<svg xmlns="http://www.w3.org/2000/svg" xmlns:xlink="http://www.w3.org/1999/xlink" contentStyleType="text/css" data-diagram-type="CLASS" height="829px" preserveAspectRatio="none" style="width:669px;height:829px;background:#FFFFFF;" version="1.1" viewBox="0 0 669 829" width="669px" zoomAndPan="magnify"><defs/><g><!--class patterns--><g class="entity" data-entity="patterns" data-source-line="4" data-uid="ent0002" id="entity_patterns"><rect fill="#F1F1F1" height="113.1875" rx="2.5" ry="2.5" style="stroke:#181818;stroke-width:0.5;" width="220.9658" x="199.42" y="7"/><ellipse cx="214.42" cy="23" fill="#ADD1B2" rx="11" ry="11" style="stroke:#181818;stroke-width:1;"/><path d="M217.3888,28.6406 Q216.8106,28.9375 216.17,29.0781 Q215.5294,29.2344 214.8263,29.2344 Q212.3263,29.2344 210.9981,27.5938 Q209.6856,25.9375 209.6856,22.8125 Q209.6856,19.6875 210.9981,18.0313 Q212.3263,16.375 214.8263,16.375 Q215.5294,16.375 216.17,16.5313 Q216.8263,16.6875 217.3888,16.9844 L217.3888,19.7031 Q216.7638,19.125 216.17,18.8594 Q215.5763,18.5781 214.9513,18.5781 Q213.6075,18.5781 212.92,19.6563 Q212.2325,20.7188 212.2325,22.8125 Q212.2325,24.9063 212.92,25.9844 Q213.6075,27.0469 214.9513,27.0469 Q215.5763,27.0469 216.17,26.7813 Q216.7638,26.5 217.3888,25.9219 L217.3888,28.6406 Z " fill="#000000"/><text fill="#000000" font-family="sans-serif" font-size="14" lengthAdjust="spacing" textLength="188.9658" x="228.42" y="27.8467">Human Behaviour Patterns</text><line style="stroke:#181818;stroke-width:0.5;" x1="200.42" x2="419.3858" y1="39" y2="39"/><ellipse cx="210.42" cy="52.6484" fill="none" rx="3" ry="3" style="stroke:#038048;stroke-width:1;"/><text fill="#000000" font-family="sans-serif" font-size="14" lengthAdjust="spacing" textLength="174.166" x="219.42" y="55.9951">Psychological Responses</text><ellipse cx="210.42" cy="68.9453" fill="none" rx="3" ry="3" style="stroke:#038048;stroke-width:1;"/><text fill="#000000" font-family="sans-serif" font-size="14" lengthAdjust="spacing" textLength="116.5117" x="219.42" y="72.292">Stress Reactions</text><ellipse cx="210.42" cy="85.2422" fill="none" rx="3" ry="3" style="stroke:#038048;stroke-width:1;"/><text fill="#000000" font-family="sans-serif" font-size="14" lengthAdjust="spacing" textLength="123.8398" x="219.42" y="88.5889">Cultural Protocols</text><ellipse cx="210.42" cy="101.5391" fill="none" rx="3" ry="3" style="stroke:#038048;stroke-width:1;"/><text fill="#000000" font-family="sans-serif" font-size="14" lengthAdjust="spacing" textLength="103.4893" x="219.42" y="104.8857">Belief Systems</text><line style="stroke:#181818;stroke-width:0.5;" x1="200.42" x2="419.3858" y1="112.1875" y2="112.1875"/></g><!--class design--><g class="entity" data-entity="design" data-source-line="11" data-uid="ent0003" id="entity_design"><rect fill="#F1F1F1" height="113.1875" rx="2.5" ry="2.5" style="stroke:#181818;stroke-width:0.5;" width="185.7969" x="7" y="197.19"/><ellipse cx="35.7914" cy="213.19" fill="#ADD1B2" rx="11" ry="11" style="stroke:#181818;stroke-width:1;"/><path d="M38.7601,218.8306 Q38.182,219.1275 37.5414,219.2681 Q36.9007,219.4244 36.1976,219.4244 Q33.6976,219.4244 32.3695,217.7837 Q31.057,216.1275 31.057,213.0025 Q31.057,209.8775 32.3695,208.2212 Q33.6976,206.565 36.1976,206.565 Q36.9007,206.565 37.5414,206.7212 Q38.1976,206.8775 38.7601,207.1744 L38.7601,209.8931 Q38.1351,209.315 37.5414,209.0494 Q36.9476,208.7681 36.3226,208.7681 Q34.9789,208.7681 34.2914,209.8462 Q33.6039,210.9087 33.6039,213.0025 Q33.6039,215.0962 34.2914,216.1744 Q34.9789,217.2369 36.3226,217.2369 Q36.9476,217.2369 37.5414,216.9712 Q38.1351,216.69 38.7601,216.1119 L38.7601,218.8306 Z " fill="#000000"/><text fill="#000000" font-family="sans-serif" font-size="14" lengthAdjust="spacing" textLength="123.1494" x="52.8561" y="218.0367">AI System Design</text><line style="stroke:#181818;stroke-width:0.5;" x1="8" x2="191.7969" y1="229.19" y2="229.19"/><ellipse cx="18" cy="242.8384" fill="none" rx="3" ry="3" style="stroke:#038048;stroke-width:1;"/><text fill="#000000" font-family="sans-serif" font-size="14" lengthAdjust="spacing" textLength="115.4658" x="27" y="246.1851">Interface Design</text><ellipse cx="18" cy="259.1353" fill="none" rx="3" ry="3" style="stroke:#038048;stroke-width:1;"/><text fill="#000000" font-family="sans-serif" font-size="14" lengthAdjust="spacing" textLength="159.7969" x="27" y="262.482">Decision Transparency</text><ellipse cx="18" cy="275.4322" fill="none" rx="3" ry="3" style="stroke:#038048;stroke-width:1;"/><text fill="#000000" font-family="sans-serif" font-size="14" lengthAdjust="spacing" textLength="142.1943" x="27" y="278.7789">Control Mechanisms</text><ellipse cx="18" cy="291.7291" fill="none" rx="3" ry="3" style="stroke:#038048;stroke-width:1;"/><text fill="#000000" font-family="sans-serif" font-size="14" lengthAdjust="spacing" textLength="131.3867" x="27" y="295.0757">Feedback Systems</text><line style="stroke:#181818;stroke-width:0.5;" x1="8" x2="191.7969" y1="302.3775" y2="302.3775"/></g><!--class data--><g class="entity" data-entity="data" data-source-line="18" data-uid="ent0004" id="entity_data"><rect fill="#F1F1F1" height="113.1875" rx="2.5" ry="2.5" style="stroke:#181818;stroke-width:0.5;" width="164.7764" x="227.51" y="197.19"/><ellipse cx="254.0527" cy="213.19" fill="#ADD1B2" rx="11" ry="11" style="stroke:#181818;stroke-width:1;"/><path d="M257.0214,218.8306 Q256.4433,219.1275 255.8027,219.2681 Q255.1621,219.4244 254.4589,219.4244 Q251.9589,219.4244 250.6308,217.7837 Q249.3183,216.1275 249.3183,213.0025 Q249.3183,209.8775 250.6308,208.2212 Q251.9589,206.565 254.4589,206.565 Q255.1621,206.565 255.8027,206.7212 Q256.4589,206.8775 257.0214,207.1744 L257.0214,209.8931 Q256.3964,209.315 255.8027,209.0494 Q255.2089,208.7681 254.5839,208.7681 Q253.2402,208.7681 252.5527,209.8462 Q251.8652,210.9087 251.8652,213.0025 Q251.8652,215.0962 252.5527,216.1744 Q253.2402,217.2369 254.5839,217.2369 Q255.2089,217.2369 255.8027,216.9712 Q256.3964,216.69 257.0214,216.1119 L257.0214,218.8306 Z " fill="#000000"/><text fill="#000000" font-family="sans-serif" font-size="14" lengthAdjust="spacing" textLength="107.126" x="270.6177" y="218.0367">Data Collection</text><line style="stroke:#181818;stroke-width:0.5;" x1="228.51" x2="391.2864" y1="229.19" y2="229.19"/><ellipse cx="238.51" cy="242.8384" fill="none" rx="3" ry="3" style="stroke:#038048;stroke-width:1;"/><text fill="#000000" font-family="sans-serif" font-size="14" lengthAdjust="spacing" textLength="119.6084" x="247.51" y="246.1851">User Interactions</text><ellipse cx="238.51" cy="259.1353" fill="none" rx="3" ry="3" style="stroke:#038048;stroke-width:1;"/><text fill="#000000" font-family="sans-serif" font-size="14" lengthAdjust="spacing" textLength="138.7764" x="247.51" y="262.482">Behavioural Metrics</text><ellipse cx="238.51" cy="275.4322" fill="none" rx="3" ry="3" style="stroke:#038048;stroke-width:1;"/><text fill="#000000" font-family="sans-serif" font-size="14" lengthAdjust="spacing" textLength="114.666" x="247.51" y="278.7789">Cultural Context</text><ellipse cx="238.51" cy="291.7291" fill="none" rx="3" ry="3" style="stroke:#038048;stroke-width:1;"/><text fill="#000000" font-family="sans-serif" font-size="14" lengthAdjust="spacing" textLength="116.9424" x="247.51" y="295.0757">Stress Indicators</text><line style="stroke:#181818;stroke-width:0.5;" x1="228.51" x2="391.2864" y1="302.3775" y2="302.3775"/></g><!--class training--><g class="entity" data-entity="training" data-source-line="25" data-uid="ent0005" id="entity_training"><rect fill="#F1F1F1" height="113.1875" rx="2.5" ry="2.5" style="stroke:#181818;stroke-width:0.5;" width="172.1387" x="220.83" y="387.37"/><ellipse cx="252.19" cy="403.37" fill="#ADD1B2" rx="11" ry="11" style="stroke:#181818;stroke-width:1;"/><path d="M255.1587,409.0106 Q254.5806,409.3075 253.94,409.4481 Q253.2993,409.6044 252.5962,409.6044 Q250.0962,409.6044 248.7681,407.9637 Q247.4556,406.3075 247.4556,403.1825 Q247.4556,400.0575 248.7681,398.4012 Q250.0962,396.745 252.5962,396.745 Q253.2993,396.745 253.94,396.9012 Q254.5962,397.0575 255.1587,397.3544 L255.1587,400.0731 Q254.5337,399.495 253.94,399.2294 Q253.3462,398.9481 252.7212,398.9481 Q251.3775,398.9481 250.69,400.0262 Q250.0025,401.0887 250.0025,403.1825 Q250.0025,405.2762 250.69,406.3544 Q251.3775,407.4169 252.7212,407.4169 Q253.3462,407.4169 253.94,407.1512 Q254.5337,406.87 255.1587,406.2919 L255.1587,409.0106 Z " fill="#000000"/><text fill="#000000" font-family="sans-serif" font-size="14" lengthAdjust="spacing" textLength="103.7832" x="269.8255" y="408.2167">Model Training</text><line style="stroke:#181818;stroke-width:0.5;" x1="221.83" x2="391.9687" y1="419.37" y2="419.37"/><ellipse cx="231.83" cy="433.0184" fill="none" rx="3" ry="3" style="stroke:#038048;stroke-width:1;"/><text fill="#000000" font-family="sans-serif" font-size="14" lengthAdjust="spacing" textLength="130.8672" x="240.83" y="436.3651">Bias Consideration</text><ellipse cx="231.83" cy="449.3153" fill="none" rx="3" ry="3" style="stroke:#038048;stroke-width:1;"/><text fill="#000000" font-family="sans-serif" font-size="14" lengthAdjust="spacing" textLength="136.3906" x="240.83" y="452.662">Cultural Adaptation</text><ellipse cx="231.83" cy="465.6122" fill="none" rx="3" ry="3" style="stroke:#038048;stroke-width:1;"/><text fill="#000000" font-family="sans-serif" font-size="14" lengthAdjust="spacing" textLength="146.1387" x="240.83" y="468.9589">Stress-Aware Models</text><ellipse cx="231.83" cy="481.9091" fill="none" rx="3" ry="3" style="stroke:#038048;stroke-width:1;"/><text fill="#000000" font-family="sans-serif" font-size="14" lengthAdjust="spacing" textLength="113.6201" x="240.83" y="485.2557">Fairness Metrics</text><line style="stroke:#181818;stroke-width:0.5;" x1="221.83" x2="391.9687" y1="492.5575" y2="492.5575"/></g><!--class adaptation--><g class="entity" data-entity="adaptation" data-source-line="32" data-uid="ent0006" id="entity_adaptation"><rect fill="#F1F1F1" height="113.1875" rx="2.5" ry="2.5" style="stroke:#181818;stroke-width:0.5;" width="168.7412" x="292.53" y="577.56"/><ellipse cx="309.0013" cy="593.56" fill="#ADD1B2" rx="11" ry="11" style="stroke:#181818;stroke-width:1;"/><path d="M311.97,599.2006 Q311.3919,599.4975 310.7513,599.6381 Q310.1107,599.7944 309.4075,599.7944 Q306.9075,599.7944 305.5794,598.1538 Q304.2669,596.4975 304.2669,593.3725 Q304.2669,590.2475 305.5794,588.5913 Q306.9075,586.935 309.4075,586.935 Q310.1107,586.935 310.7513,587.0913 Q311.4075,587.2475 311.97,587.5444 L311.97,590.2631 Q311.345,589.685 310.7513,589.4194 Q310.1575,589.1381 309.5325,589.1381 Q308.1888,589.1381 307.5013,590.2163 Q306.8138,591.2788 306.8138,593.3725 Q306.8138,595.4663 307.5013,596.5444 Q308.1888,597.6069 309.5325,597.6069 Q310.1575,597.6069 310.7513,597.3413 Q311.345,597.06 311.97,596.4819 L311.97,599.2006 Z " fill="#000000"/><text fill="#000000" font-family="sans-serif" font-size="14" lengthAdjust="spacing" textLength="133.4717" x="323.3282" y="598.4067">System Adaptation</text><line style="stroke:#181818;stroke-width:0.5;" x1="293.53" x2="460.2712" y1="609.56" y2="609.56"/><ellipse cx="303.53" cy="623.2084" fill="none" rx="3" ry="3" style="stroke:#038048;stroke-width:1;"/><text fill="#000000" font-family="sans-serif" font-size="14" lengthAdjust="spacing" textLength="128.8711" x="312.53" y="626.5551">Dynamic Interface</text><ellipse cx="303.53" cy="639.5053" fill="none" rx="3" ry="3" style="stroke:#038048;stroke-width:1;"/><text fill="#000000" font-family="sans-serif" font-size="14" lengthAdjust="spacing" textLength="142.7412" x="312.53" y="642.852">Cultural Localization</text><ellipse cx="303.53" cy="655.8022" fill="none" rx="3" ry="3" style="stroke:#038048;stroke-width:1;"/><text fill="#000000" font-family="sans-serif" font-size="14" lengthAdjust="spacing" textLength="115.6504" x="312.53" y="659.1489">Stress Response</text><ellipse cx="303.53" cy="672.0991" fill="none" rx="3" ry="3" style="stroke:#038048;stroke-width:1;"/><text fill="#000000" font-family="sans-serif" font-size="14" lengthAdjust="spacing" textLength="97.207" x="312.53" y="675.4457">Trust Building</text><line style="stroke:#181818;stroke-width:0.5;" x1="293.53" x2="460.2712" y1="682.7475" y2="682.7475"/></g><g class="entity" data-entity="GMN12" data-source-line="46" data-uid="ent0013" id="entity_GMN12"><path d="M455.15,28.33 L455.15,59.59 L420.78,63.59 L455.15,67.59 L455.15,98.8612 A0,0 0 0 0 455.15,98.8612 L662.6505,98.8612 A0,0 0 0 0 662.6505,98.8612 L662.6505,38.33 L652.6505,28.33 L455.15,28.33 A0,0 0 0 0 455.15,28.33" fill="#FEFFDD" style="stroke:#181818;stroke-width:0.5;"/><path d="M652.6505,28.33 L652.6505,38.33 L662.6505,38.33 L652.6505,28.33" fill="#FEFFDD" style="stroke:#181818;stroke-width:0.5;"/><text fill="#000000" font-family="sans-serif" font-size="13" lengthAdjust="spacing" textLength="175.2144" x="461.15" y="45.3969">Human behaviour patterns</text><text fill="#000000" font-family="sans-serif" font-size="13" lengthAdjust="spacing" textLength="174.0464" x="461.15" y="60.5297">are complex and culturally</text><text fill="#000000" font-family="sans-serif" font-size="13" lengthAdjust="spacing" textLength="186.5005" x="461.15" y="75.6625">dependent, requiring careful</text><text fill="#000000" font-family="sans-serif" font-size="13" lengthAdjust="spacing" textLength="156.9648" x="461.15" y="90.7953">study and consideration</text></g><g class="entity" data-entity="GMN15" data-source-line="53" data-uid="ent0016" id="entity_GMN15"><path d="M273.81,751.75 L273.81,822.2813 A0,0 0 0 0 273.81,822.2813 L479.9965,822.2813 A0,0 0 0 0 479.9965,822.2813 L479.9965,761.75 L469.9965,751.75 L380.9,751.75 L376.9,690.9 L372.9,751.75 L273.81,751.75 A0,0 0 0 0 273.81,751.75" fill="#FEFFDD" style="stroke:#181818;stroke-width:0.5;"/><path d="M469.9965,751.75 L469.9965,761.75 L479.9965,761.75 L469.9965,751.75" fill="#FEFFDD" style="stroke:#181818;stroke-width:0.5;"/><text fill="#000000" font-family="sans-serif" font-size="13" lengthAdjust="spacing" textLength="185.1865" x="279.81" y="768.8169">Successful AI systems adapt</text><text fill="#000000" font-family="sans-serif" font-size="13" lengthAdjust="spacing" textLength="176.084" x="279.81" y="783.9497">to human behaviour rather</text><text fill="#000000" font-family="sans-serif" font-size="13" lengthAdjust="spacing" textLength="152.2358" x="279.81" y="799.0825">than forcing humans to</text><text fill="#000000" font-family="sans-serif" font-size="13" lengthAdjust="spacing" textLength="131.0347" x="279.81" y="814.2153">adapt to technology</text></g><!--link patterns to design--><g class="link" data-entity-1="patterns" data-entity-2="design" data-source-line="39" data-uid="lnk7" id="link_patterns_design"><path codeLine="39" d="M247.46,120.55 C220.62,144.6 193.7776,168.645 166.9276,192.715" fill="none" id="patterns-to-design" style="stroke:#181818;stroke-width:1;"/><polygon fill="#181818" points="162.46,196.72,171.8315,193.6908,166.183,193.3825,166.4914,187.734,162.46,196.72" style="stroke:#181818;stroke-width:1;"/><text fill="#000000" font-family="sans-serif" font-size="13" lengthAdjust="spacing" textLength="49.3848" x="212.9" y="163.2569">Informs</text></g><!--link patterns to data--><g class="link" data-entity-1="patterns" data-entity-2="data" data-source-line="40" data-uid="lnk8" id="link_patterns_data"><path codeLine="40" d="M309.9,120.55 C309.9,144.6 309.9,166.65 309.9,190.72" fill="none" id="patterns-to-data" style="stroke:#181818;stroke-width:1;"/><polygon fill="#181818" points="309.9,196.72,313.9,187.72,309.9,191.72,305.9,187.72,309.9,196.72" style="stroke:#181818;stroke-width:1;"/><text fill="#000000" font-family="sans-serif" font-size="13" lengthAdjust="spacing" textLength="66.6567" x="310.9" y="163.2569">Influences</text></g><!--link data to training--><g class="link" data-entity-1="data" data-entity-2="training" data-source-line="41" data-uid="lnk9" id="link_data_training"><path codeLine="41" d="M309.01,310.73 C308.62,334.79 308.2772,356.8408 307.8872,380.9108" fill="none" id="data-to-training" style="stroke:#181818;stroke-width:1;"/><polygon fill="#181818" points="307.79,386.91,311.9353,377.976,307.871,381.9107,303.9363,377.8464,307.79,386.91" style="stroke:#181818;stroke-width:1;"/><text fill="#000000" font-family="sans-serif" font-size="13" lengthAdjust="spacing" textLength="67.7549" x="309.9" y="353.4369">Feeds Into</text></g><!--link training to adaptation--><g class="link" data-entity-1="training" data-entity-2="adaptation" data-source-line="42" data-uid="lnk10" id="link_training_adaptation"><path codeLine="42" d="M327.71,500.92 C336.66,524.97 344.9981,547.4065 353.9481,571.4665" fill="none" id="training-to-adaptation" style="stroke:#181818;stroke-width:1;"/><polygon fill="#181818" points="356.04,577.09,356.6512,567.2601,354.2968,572.4037,349.1532,570.0493,356.04,577.09" style="stroke:#181818;stroke-width:1;"/><text fill="#000000" font-family="sans-serif" font-size="13" lengthAdjust="spacing" textLength="51.0542" x="345.9" y="543.6269">Enables</text></g><!--link adaptation to patterns--><g class="link" data-entity-1="adaptation" data-entity-2="patterns" data-source-line="43" data-uid="lnk11" id="link_adaptation_patterns"><path codeLine="43" d="M397.73,577.49 C400.85,567.62 403.74,557.37 405.9,547.56 C439.33,395.46 446.72,348.5 409.9,197.19 C403.01,168.89 389.8274,146.9008 371.7374,125.0608" fill="none" id="adaptation-to-patterns" style="stroke:#181818;stroke-width:1;"/><polygon fill="#181818" points="367.91,120.44,370.5705,129.9227,371.0995,124.2906,376.7315,124.8196,367.91,120.44" style="stroke:#181818;stroke-width:1;"/><text fill="#000000" font-family="sans-serif" font-size="13" lengthAdjust="spacing" textLength="83.3003" x="435.9" y="353.4369">Responds To</text></g><!--SRC=[TPJRZjCm48RlynH3Rw4lm0LIkorGQHTLs_80hZrfB1mxs1FOW7XtPknicaRQk-QVWxyvzPt1sdg4v_t3UVFjo-CUj5CfLTLDM7tjM-LXYutwPKCVuQY8CFgq0fMW6p_WRmNm7evfq4rmuMgrSl2CgGi-OSgs4qLCYKMboRASnOVUKH_PznW31HrSaRVeBDPm6X9Xcwf_Tq2RmsY07IPxzHd4v9yZni4pLAqqZXvPtA6sYH-6SrG-TIgYrqE129vYSF24kb7UfhP0V4Oq5wL_l86nKwGur3dCzHGAqGh3zuInWCphdTgev3cALY_w82puGlEE7RpXTbA8IuAdOD19ETPRVyq0D7wC45lB6gTCrZ27ODo_jZ6gevjU7bnlVdDp86SVEw5iz8BoYdpFCKxZbYoZgEbpXDaDNhLMtwPpp_8OU6VidoNDj4LPEyS-4MnxwmnNAHpJ1gxNdrwtu2Ei3huEiKshXLtcKwokv_aZEsHDZ5Fls45cBvsdiAecNPncLR7RtgkBaoGpMRocHzcdy7EsC-UgV224QAyDGQWdFwwjdDbbEhEPIQQXGzivV07b3UYnPKxMrs27tg2d3n3nPs-Za6eEgNl7vaIz6KhKtHfm30ZBI7G9HA4L93LVYLElkKU9Km5VNIftK5pOIW6Q1JLdRp2AZIy9U0HQSB8NBsUGOYHOGeclpSj_nN23-Gy0]--></g></svg>