<svg xmlns="http://www.w3.org/2000/svg" xmlns:xlink="http://www.w3.org/1999/xlink" contentStyleType="text/css" data-diagram-type="DESCRIPTION" height="679px" preserveAspectRatio="none" style="width:2440px;height:679px;background:#FFFFFF;" version="1.1" viewBox="0 0 2440 679" width="2440px" zoomAndPan="magnify"><defs/><g><!--cluster Neural Network Architecture--><g class="cluster" data-entity="Neural Network Architecture" data-source-line="3" data-uid="ent0002" id="cluster_Neural Network Architecture"><path d="M13.5,11 L241.5967,11 A3.75,3.75 0 0 1 244.0967,13.5 L251.0967,33.2969 L1981.5,33.2969 A2.5,2.5 0 0 1 1984,35.7969 L1984,448.93 A2.5,2.5 0 0 1 1981.5,451.43 L13.5,451.43 A2.5,2.5 0 0 1 11,448.93 L11,13.5 A2.5,2.5 0 0 1 13.5,11" fill="#FFFFFF" style="stroke:#000000;stroke-width:1;"/><line style="stroke:#000000;stroke-width:1;" x1="11" x2="251.0967" y1="33.2969" y2="33.2969"/><text fill="#000000" font-family="Verdana" font-size="14" font-weight="bold" lengthAdjust="spacing" textLength="227.0967" x="15" y="25.9951">Neural Network Architecture</text></g><!--cluster Training Loop Components--><g class="cluster" data-entity="Training Loop Components" data-source-line="57" data-uid="ent0046" id="cluster_Training Loop Components"><path d="M2018.5,53.91 L2231.4551,53.91 A3.75,3.75 0 0 1 2233.9551,56.41 L2240.9551,76.2069 L2430.5,76.2069 A2.5,2.5 0 0 1 2433,78.7069 L2433,669.52 A2.5,2.5 0 0 1 2430.5,672.02 L2018.5,672.02 A2.5,2.5 0 0 1 2016,669.52 L2016,56.41 A2.5,2.5 0 0 1 2018.5,53.91" fill="#FFFFFF" style="stroke:#000000;stroke-width:1;"/><line style="stroke:#000000;stroke-width:1;" x1="2016" x2="2240.9551" y1="76.2069" y2="76.2069"/><text fill="#000000" font-family="Verdana" font-size="14" font-weight="bold" lengthAdjust="spacing" textLength="211.9551" x="2020" y="68.9051">Training Loop Components</text></g><!--entity Input Layer--><g class="entity" data-entity="Input Layer" data-source-line="5" data-uid="ent0003" id="entity_Input Layer"><rect fill="#FFFFFF" height="46.2969" rx="2.5" ry="2.5" style="stroke:#000000;stroke-width:1;" width="119.7344" x="1699.13" y="58.12"/><rect fill="#FFFFFF" height="10" style="stroke:#000000;stroke-width:1;" width="15" x="1798.8644" y="63.12"/><rect fill="#FFFFFF" height="2" style="stroke:#000000;stroke-width:1;" width="4" x="1796.8644" y="65.12"/><rect fill="#FFFFFF" height="2" style="stroke:#000000;stroke-width:1;" width="4" x="1796.8644" y="69.12"/><text fill="#000000" font-family="Verdana" font-size="14" lengthAdjust="spacing" textLength="79.7344" x="1714.13" y="91.1151">Input Layer</text></g><!--entity Hidden Layer 1--><g class="entity" data-entity="Hidden Layer 1" data-source-line="6" data-uid="ent0004" id="entity_Hidden Layer 1"><rect fill="#FFFFFF" height="46.2969" rx="2.5" ry="2.5" style="stroke:#000000;stroke-width:1;" width="146.5176" x="1649.74" y="176.54"/><rect fill="#FFFFFF" height="10" style="stroke:#000000;stroke-width:1;" width="15" x="1776.2576" y="181.54"/><rect fill="#FFFFFF" height="2" style="stroke:#000000;stroke-width:1;" width="4" x="1774.2576" y="183.54"/><rect fill="#FFFFFF" height="2" style="stroke:#000000;stroke-width:1;" width="4" x="1774.2576" y="187.54"/><text fill="#000000" font-family="Verdana" font-size="14" lengthAdjust="spacing" textLength="106.5176" x="1664.74" y="209.5351">Hidden Layer 1</text></g><!--entity Hidden Layer 2--><g class="entity" data-entity="Hidden Layer 2" data-source-line="7" data-uid="ent0005" id="entity_Hidden Layer 2"><rect fill="#FFFFFF" height="46.2969" rx="2.5" ry="2.5" style="stroke:#000000;stroke-width:1;" width="146.5176" x="1649.74" y="282.83"/><rect fill="#FFFFFF" height="10" style="stroke:#000000;stroke-width:1;" width="15" x="1776.2576" y="287.83"/><rect fill="#FFFFFF" height="2" style="stroke:#000000;stroke-width:1;" width="4" x="1774.2576" y="289.83"/><rect fill="#FFFFFF" height="2" style="stroke:#000000;stroke-width:1;" width="4" x="1774.2576" y="293.83"/><text fill="#000000" font-family="Verdana" font-size="14" lengthAdjust="spacing" textLength="106.5176" x="1664.74" y="315.8251">Hidden Layer 2</text></g><!--entity Output Layer--><g class="entity" data-entity="Output Layer" data-source-line="8" data-uid="ent0006" id="entity_Output Layer"><rect fill="#FFFFFF" height="46.2969" rx="2.5" ry="2.5" style="stroke:#000000;stroke-width:1;" width="132.1143" x="1656.94" y="389.13"/><rect fill="#FFFFFF" height="10" style="stroke:#000000;stroke-width:1;" width="15" x="1769.0543" y="394.13"/><rect fill="#FFFFFF" height="2" style="stroke:#000000;stroke-width:1;" width="4" x="1767.0543" y="396.13"/><rect fill="#FFFFFF" height="2" style="stroke:#000000;stroke-width:1;" width="4" x="1767.0543" y="400.13"/><text fill="#000000" font-family="Verdana" font-size="14" lengthAdjust="spacing" textLength="92.1143" x="1671.94" y="422.1251">Output Layer</text></g><g class="entity" data-entity="GMN10" data-source-line="14" data-uid="ent0011" id="entity_GMN10"><path d="M1854.34,68.7 L1854.34,77.27 L1819.27,81.27 L1854.34,85.27 L1854.34,93.8328 A0,0 0 0 0 1854.34,93.8328 L1967.654,93.8328 A0,0 0 0 0 1967.654,93.8328 L1967.654,78.7 L1957.654,68.7 L1854.34,68.7 A0,0 0 0 0 1854.34,68.7" fill="#FFFFFF" style="stroke:#000000;stroke-width:1;"/><path d="M1957.654,68.7 L1957.654,78.7 L1967.654,78.7 L1957.654,68.7" fill="#FFFFFF" style="stroke:#000000;stroke-width:1;"/><text fill="#000000" font-family="Verdana" font-size="13" lengthAdjust="spacing" textLength="92.314" x="1860.34" y="85.7669">Features/Data</text></g><g class="entity" data-entity="GMN13" data-source-line="15" data-uid="ent0014" id="entity_GMN13"><path d="M1831.07,187.12 L1831.07,195.68 L1796.56,199.68 L1831.07,203.68 L1831.07,212.2528 A0,0 0 0 0 1831.07,212.2528 L1966.9372,212.2528 A0,0 0 0 0 1966.9372,212.2528 L1966.9372,197.12 L1956.9372,187.12 L1831.07,187.12 A0,0 0 0 0 1831.07,187.12" fill="#FFFFFF" style="stroke:#000000;stroke-width:1;"/><path d="M1956.9372,187.12 L1956.9372,197.12 L1966.9372,197.12 L1956.9372,187.12" fill="#FFFFFF" style="stroke:#000000;stroke-width:1;"/><text fill="#000000" font-family="Verdana" font-size="13" lengthAdjust="spacing" textLength="114.8672" x="1837.07" y="204.1869">Pattern Detection</text></g><g class="entity" data-entity="GMN16" data-source-line="16" data-uid="ent0017" id="entity_GMN16"><path d="M1831.63,293.41 L1831.63,301.98 L1796.63,305.98 L1831.63,309.98 L1831.63,318.5428 A0,0 0 0 0 1831.63,318.5428 L1968.3668,318.5428 A0,0 0 0 0 1968.3668,318.5428 L1968.3668,303.41 L1958.3668,293.41 L1831.63,293.41 A0,0 0 0 0 1831.63,293.41" fill="#FFFFFF" style="stroke:#000000;stroke-width:1;"/><path d="M1958.3668,293.41 L1958.3668,303.41 L1968.3668,303.41 L1958.3668,293.41" fill="#FFFFFF" style="stroke:#000000;stroke-width:1;"/><text fill="#000000" font-family="Verdana" font-size="13" lengthAdjust="spacing" textLength="115.7368" x="1837.63" y="310.4769">Complex Patterns</text></g><g class="entity" data-entity="GMN19" data-source-line="17" data-uid="ent0020" id="entity_GMN19"><path d="M1823.57,399.71 L1823.57,408.28 L1789.32,412.28 L1823.57,416.28 L1823.57,424.8428 A0,0 0 0 0 1823.57,424.8428 L1916.4382,424.8428 A0,0 0 0 0 1916.4382,424.8428 L1916.4382,409.71 L1906.4382,399.71 L1823.57,399.71 A0,0 0 0 0 1823.57,399.71" fill="#FFFFFF" style="stroke:#000000;stroke-width:1;"/><path d="M1906.4382,399.71 L1906.4382,409.71 L1916.4382,409.71 L1906.4382,399.71" fill="#FFFFFF" style="stroke:#000000;stroke-width:1;"/><text fill="#000000" font-family="Verdana" font-size="13" lengthAdjust="spacing" textLength="71.8682" x="1829.57" y="416.7769">Predictions</text></g><!--entity Perceptron--><g class="entity" data-entity="Perceptron" data-source-line="19" data-uid="ent0022" id="entity_Perceptron"><rect fill="#FFFFFF" height="46.2969" rx="2.5" ry="2.5" style="stroke:#000000;stroke-width:1;" width="116.6924" x="1327.65" y="58.12"/><rect fill="#FFFFFF" height="10" style="stroke:#000000;stroke-width:1;" width="15" x="1424.3424" y="63.12"/><rect fill="#FFFFFF" height="2" style="stroke:#000000;stroke-width:1;" width="4" x="1422.3424" y="65.12"/><rect fill="#FFFFFF" height="2" style="stroke:#000000;stroke-width:1;" width="4" x="1422.3424" y="69.12"/><text fill="#000000" font-family="Verdana" font-size="14" lengthAdjust="spacing" textLength="76.6924" x="1342.65" y="91.1151">Perceptron</text></g><!--entity Binary Classification--><g class="entity" data-entity="Binary Classification" data-source-line="20" data-uid="ent0023" id="entity_Binary Classification"><rect fill="#FFFFFF" height="46.2969" rx="2.5" ry="2.5" style="stroke:#000000;stroke-width:1;" width="182.0713" x="1294.96" y="176.54"/><rect fill="#FFFFFF" height="10" style="stroke:#000000;stroke-width:1;" width="15" x="1457.0313" y="181.54"/><rect fill="#FFFFFF" height="2" style="stroke:#000000;stroke-width:1;" width="4" x="1455.0313" y="183.54"/><rect fill="#FFFFFF" height="2" style="stroke:#000000;stroke-width:1;" width="4" x="1455.0313" y="187.54"/><text fill="#000000" font-family="Verdana" font-size="14" lengthAdjust="spacing" textLength="142.0713" x="1309.96" y="209.5351">Binary Classification</text></g><g class="entity" data-entity="GMN25" data-source-line="23" data-uid="ent0026" id="entity_GMN25"><path d="M1479.4,53.57 L1479.4,77.27 L1444.49,81.27 L1479.4,85.27 L1479.4,108.9684 A0,0 0 0 0 1479.4,108.9684 L1664.5948,108.9684 A0,0 0 0 0 1664.5948,108.9684 L1664.5948,63.57 L1654.5948,53.57 L1479.4,53.57 A0,0 0 0 0 1479.4,53.57" fill="#FFFFFF" style="stroke:#000000;stroke-width:1;"/><path d="M1654.5948,53.57 L1654.5948,63.57 L1664.5948,63.57 L1654.5948,53.57" fill="#FFFFFF" style="stroke:#000000;stroke-width:1;"/><text fill="#000000" font-family="Verdana" font-size="13" lengthAdjust="spacing" textLength="76.7114" x="1485.4" y="70.6369">Single layer</text><text fill="#000000" font-family="Verdana" font-size="13" lengthAdjust="spacing" textLength="164.1948" x="1485.4" y="85.7697">Linear decision boundary</text><text fill="#000000" font-family="Verdana" font-size="13" lengthAdjust="spacing" textLength="131.1108" x="1485.4" y="100.9025">Simple learning rule</text></g><!--entity Multi-Layer Perceptron--><g class="entity" data-entity="Multi-Layer Perceptron" data-source-line="28" data-uid="ent0028" id="entity_Multi-Layer Perceptron"><rect fill="#FFFFFF" height="46.2969" rx="2.5" ry="2.5" style="stroke:#000000;stroke-width:1;" width="199.4482" x="872.28" y="58.12"/><rect fill="#FFFFFF" height="10" style="stroke:#000000;stroke-width:1;" width="15" x="1051.7282" y="63.12"/><rect fill="#FFFFFF" height="2" style="stroke:#000000;stroke-width:1;" width="4" x="1049.7282" y="65.12"/><rect fill="#FFFFFF" height="2" style="stroke:#000000;stroke-width:1;" width="4" x="1049.7282" y="69.12"/><text fill="#000000" font-family="Verdana" font-size="14" lengthAdjust="spacing" textLength="159.4482" x="887.28" y="91.1151">Multi-Layer Perceptron</text></g><!--entity Non-linear Problems--><g class="entity" data-entity="Non-linear Problems" data-source-line="29" data-uid="ent0029" id="entity_Non-linear Problems"><rect fill="#FFFFFF" height="46.2969" rx="2.5" ry="2.5" style="stroke:#000000;stroke-width:1;" width="182.0986" x="880.95" y="176.54"/><rect fill="#FFFFFF" height="10" style="stroke:#000000;stroke-width:1;" width="15" x="1043.0486" y="181.54"/><rect fill="#FFFFFF" height="2" style="stroke:#000000;stroke-width:1;" width="4" x="1041.0486" y="183.54"/><rect fill="#FFFFFF" height="2" style="stroke:#000000;stroke-width:1;" width="4" x="1041.0486" y="187.54"/><text fill="#000000" font-family="Verdana" font-size="14" lengthAdjust="spacing" textLength="142.0986" x="895.95" y="209.5351">Non-linear Problems</text></g><g class="entity" data-entity="GMN31" data-source-line="32" data-uid="ent0032" id="entity_GMN31"><path d="M1107.03,53.57 L1107.03,77.27 L1072.2,81.27 L1107.03,85.27 L1107.03,108.9684 A0,0 0 0 0 1107.03,108.9684 L1292.9738,108.9684 A0,0 0 0 0 1292.9738,108.9684 L1292.9738,63.57 L1282.9738,53.57 L1107.03,53.57 A0,0 0 0 0 1107.03,53.57" fill="#FFFFFF" style="stroke:#000000;stroke-width:1;"/><path d="M1282.9738,53.57 L1282.9738,63.57 L1292.9738,63.57 L1282.9738,53.57" fill="#FFFFFF" style="stroke:#000000;stroke-width:1;"/><text fill="#000000" font-family="Verdana" font-size="13" lengthAdjust="spacing" textLength="143.8823" x="1113.03" y="70.6369">Multiple hidden layers</text><text fill="#000000" font-family="Verdana" font-size="13" lengthAdjust="spacing" textLength="164.9438" x="1113.03" y="85.7697">Backpropagation training</text><text fill="#000000" font-family="Verdana" font-size="13" lengthAdjust="spacing" textLength="152.9849" x="1113.03" y="100.9025">Universal approximator</text></g><!--entity Activation Functions--><g class="entity" data-entity="Activation Functions" data-source-line="37" data-uid="ent0034" id="entity_Activation Functions"><rect fill="#FFFFFF" height="46.2969" rx="2.5" ry="2.5" style="stroke:#000000;stroke-width:1;" width="182.3926" x="385.8" y="58.12"/><rect fill="#FFFFFF" height="10" style="stroke:#000000;stroke-width:1;" width="15" x="548.1926" y="63.12"/><rect fill="#FFFFFF" height="2" style="stroke:#000000;stroke-width:1;" width="4" x="546.1926" y="65.12"/><rect fill="#FFFFFF" height="2" style="stroke:#000000;stroke-width:1;" width="4" x="546.1926" y="69.12"/><text fill="#000000" font-family="Verdana" font-size="14" lengthAdjust="spacing" textLength="142.3926" x="400.8" y="91.1151">Activation Functions</text></g><!--entity Non-linearity--><g class="entity" data-entity="Non-linearity" data-source-line="38" data-uid="ent0035" id="entity_Non-linearity"><rect fill="#FFFFFF" height="46.2969" rx="2.5" ry="2.5" style="stroke:#000000;stroke-width:1;" width="130.2275" x="411.89" y="176.54"/><rect fill="#FFFFFF" height="10" style="stroke:#000000;stroke-width:1;" width="15" x="522.1175" y="181.54"/><rect fill="#FFFFFF" height="2" style="stroke:#000000;stroke-width:1;" width="4" x="520.1175" y="183.54"/><rect fill="#FFFFFF" height="2" style="stroke:#000000;stroke-width:1;" width="4" x="520.1175" y="187.54"/><text fill="#000000" font-family="Verdana" font-size="14" lengthAdjust="spacing" textLength="90.2275" x="426.89" y="209.5351">Non-linearity</text></g><g class="entity" data-entity="GMN37" data-source-line="41" data-uid="ent0038" id="entity_GMN37"><path d="M602.8,53.57 L602.8,77.27 L568.6,81.27 L602.8,85.27 L602.8,108.9684 A0,0 0 0 0 602.8,108.9684 L837.1955,108.9684 A0,0 0 0 0 837.1955,108.9684 L837.1955,63.57 L827.1955,53.57 L602.8,53.57 A0,0 0 0 0 602.8,53.57" fill="#FFFFFF" style="stroke:#000000;stroke-width:1;"/><path d="M827.1955,53.57 L827.1955,63.57 L837.1955,63.57 L827.1955,53.57" fill="#FFFFFF" style="stroke:#000000;stroke-width:1;"/><text fill="#000000" font-family="Verdana" font-size="13" lengthAdjust="spacing" textLength="179.5752" x="608.8" y="70.6369">Sigmoid: &#963;(x) = 1/(1+e^-x)</text><text fill="#000000" font-family="Verdana" font-size="13" lengthAdjust="spacing" textLength="104.9966" x="608.8" y="85.7697">ReLU: max(0, x)</text><text fill="#000000" font-family="Verdana" font-size="13" lengthAdjust="spacing" textLength="213.3955" x="608.8" y="100.9025">Tanh: (e^x - e^-x)/(e^x + e^-x)</text></g><!--entity Training Process--><g class="entity" data-entity="Training Process" data-source-line="46" data-uid="ent0040" id="entity_Training Process"><rect fill="#FFFFFF" height="46.2969" rx="2.5" ry="2.5" style="stroke:#000000;stroke-width:1;" width="155.4111" x="27.29" y="58.12"/><rect fill="#FFFFFF" height="10" style="stroke:#000000;stroke-width:1;" width="15" x="162.7011" y="63.12"/><rect fill="#FFFFFF" height="2" style="stroke:#000000;stroke-width:1;" width="4" x="160.7011" y="65.12"/><rect fill="#FFFFFF" height="2" style="stroke:#000000;stroke-width:1;" width="4" x="160.7011" y="69.12"/><text fill="#000000" font-family="Verdana" font-size="14" lengthAdjust="spacing" textLength="115.4111" x="42.29" y="91.1151">Training Process</text></g><!--entity Weight Updates--><g class="entity" data-entity="Weight Updates" data-source-line="47" data-uid="ent0041" id="entity_Weight Updates"><rect fill="#FFFFFF" height="46.2969" rx="2.5" ry="2.5" style="stroke:#000000;stroke-width:1;" width="152.041" x="28.98" y="176.54"/><rect fill="#FFFFFF" height="10" style="stroke:#000000;stroke-width:1;" width="15" x="161.021" y="181.54"/><rect fill="#FFFFFF" height="2" style="stroke:#000000;stroke-width:1;" width="4" x="159.021" y="183.54"/><rect fill="#FFFFFF" height="2" style="stroke:#000000;stroke-width:1;" width="4" x="159.021" y="187.54"/><text fill="#000000" font-family="Verdana" font-size="14" lengthAdjust="spacing" textLength="112.041" x="43.98" y="209.5351">Weight Updates</text></g><g class="entity" data-entity="GMN43" data-source-line="50" data-uid="ent0044" id="entity_GMN43"><path d="M217.39,46 L217.39,77.27 L182.96,81.27 L217.39,85.27 L217.39,116.5313 A0,0 0 0 0 217.39,116.5313 L350.6102,116.5313 A0,0 0 0 0 350.6102,116.5313 L350.6102,56 L340.6102,46 L217.39,46 A0,0 0 0 0 217.39,46" fill="#FFFFFF" style="stroke:#000000;stroke-width:1;"/><path d="M340.6102,46 L340.6102,56 L350.6102,56 L340.6102,46" fill="#FFFFFF" style="stroke:#000000;stroke-width:1;"/><text fill="#000000" font-family="Verdana" font-size="13" lengthAdjust="spacing" textLength="86.8677" x="223.39" y="63.0669">Forward pass</text><text fill="#000000" font-family="Verdana" font-size="13" lengthAdjust="spacing" textLength="103.4668" x="223.39" y="78.1997">Loss calculation</text><text fill="#000000" font-family="Verdana" font-size="13" lengthAdjust="spacing" textLength="97.6523" x="223.39" y="93.3325">Backward pass</text><text fill="#000000" font-family="Verdana" font-size="13" lengthAdjust="spacing" textLength="112.2202" x="223.39" y="108.4653">Gradient descent</text></g><!--entity Data Batch--><g class="entity" data-entity="Data Batch" data-source-line="58" data-uid="ent0047" id="entity_Data Batch"><rect fill="#FFFFFF" height="46.2969" rx="2.5" ry="2.5" style="stroke:#000000;stroke-width:1;" width="118.1211" x="2290.94" y="176.54"/><rect fill="#FFFFFF" height="10" style="stroke:#000000;stroke-width:1;" width="15" x="2389.0611" y="181.54"/><rect fill="#FFFFFF" height="2" style="stroke:#000000;stroke-width:1;" width="4" x="2387.0611" y="183.54"/><rect fill="#FFFFFF" height="2" style="stroke:#000000;stroke-width:1;" width="4" x="2387.0611" y="187.54"/><text fill="#000000" font-family="Verdana" font-size="14" lengthAdjust="spacing" textLength="78.1211" x="2305.94" y="209.5351">Data Batch</text></g><!--entity Forward Pass--><g class="entity" data-entity="Forward Pass" data-source-line="59" data-uid="ent0048" id="entity_Forward Pass"><rect fill="#FFFFFF" height="46.2969" rx="2.5" ry="2.5" style="stroke:#000000;stroke-width:1;" width="133.1055" x="2199.45" y="282.83"/><rect fill="#FFFFFF" height="10" style="stroke:#000000;stroke-width:1;" width="15" x="2312.5555" y="287.83"/><rect fill="#FFFFFF" height="2" style="stroke:#000000;stroke-width:1;" width="4" x="2310.5555" y="289.83"/><rect fill="#FFFFFF" height="2" style="stroke:#000000;stroke-width:1;" width="4" x="2310.5555" y="293.83"/><text fill="#000000" font-family="Verdana" font-size="14" lengthAdjust="spacing" textLength="93.1055" x="2214.45" y="315.8251">Forward Pass</text></g><!--entity Loss Calculation--><g class="entity" data-entity="Loss Calculation" data-source-line="60" data-uid="ent0049" id="entity_Loss Calculation"><rect fill="#FFFFFF" height="46.2969" rx="2.5" ry="2.5" style="stroke:#000000;stroke-width:1;" width="153.5039" x="2184.25" y="389.13"/><rect fill="#FFFFFF" height="10" style="stroke:#000000;stroke-width:1;" width="15" x="2317.7539" y="394.13"/><rect fill="#FFFFFF" height="2" style="stroke:#000000;stroke-width:1;" width="4" x="2315.7539" y="396.13"/><rect fill="#FFFFFF" height="2" style="stroke:#000000;stroke-width:1;" width="4" x="2315.7539" y="400.13"/><text fill="#000000" font-family="Verdana" font-size="14" lengthAdjust="spacing" textLength="113.5039" x="2199.25" y="422.1251">Loss Calculation</text></g><!--entity Backward Pass--><g class="entity" data-entity="Backward Pass" data-source-line="61" data-uid="ent0050" id="entity_Backward Pass"><rect fill="#FFFFFF" height="46.2969" rx="2.5" ry="2.5" style="stroke:#000000;stroke-width:1;" width="144.7197" x="2190.64" y="495.43"/><rect fill="#FFFFFF" height="10" style="stroke:#000000;stroke-width:1;" width="15" x="2315.3597" y="500.43"/><rect fill="#FFFFFF" height="2" style="stroke:#000000;stroke-width:1;" width="4" x="2313.3597" y="502.43"/><rect fill="#FFFFFF" height="2" style="stroke:#000000;stroke-width:1;" width="4" x="2313.3597" y="506.43"/><text fill="#000000" font-family="Verdana" font-size="14" lengthAdjust="spacing" textLength="104.7197" x="2205.64" y="528.4251">Backward Pass</text></g><!--entity Weight Update--><g class="entity" data-entity="Weight Update" data-source-line="62" data-uid="ent0051" id="entity_Weight Update"><rect fill="#FFFFFF" height="46.2969" rx="2.5" ry="2.5" style="stroke:#000000;stroke-width:1;" width="144.7471" x="2240.63" y="601.72"/><rect fill="#FFFFFF" height="10" style="stroke:#000000;stroke-width:1;" width="15" x="2365.3771" y="606.72"/><rect fill="#FFFFFF" height="2" style="stroke:#000000;stroke-width:1;" width="4" x="2363.3771" y="608.72"/><rect fill="#FFFFFF" height="2" style="stroke:#000000;stroke-width:1;" width="4" x="2363.3771" y="612.72"/><text fill="#000000" font-family="Verdana" font-size="14" lengthAdjust="spacing" textLength="104.7471" x="2255.63" y="634.7151">Weight Update</text></g><g class="entity" data-entity="GMN57" data-source-line="70" data-uid="ent0058" id="entity_GMN57"><path d="M2040.49,187.12 L2040.49,212.2528 L2255.5188,212.2528 L2255.5188,197.12 L2245.5188,187.12 L2040.49,187.12" fill="#FFFFFF" style="stroke:#000000;stroke-width:1;"/><path d="M2245.5188,187.12 L2245.5188,197.12 L2255.5188,197.12 L2245.5188,187.12" fill="#FFFFFF" style="stroke:#000000;stroke-width:1;"/><text fill="#000000" font-family="Verdana" font-size="13" lengthAdjust="spacing" textLength="194.0288" x="2046.49" y="204.1869">Iterative optimization process</text></g><!--link Input Layer to Hidden Layer 1--><g class="link" data-entity-1="Input Layer" data-entity-2="Hidden Layer 1" data-source-line="10" data-uid="lnk7" id="link_Input Layer_Hidden Layer 1"><path d="M1752.06,104.72 C1745.68,125.33 1738.0625,149.9778 1731.6925,170.5778" fill="none" id="Input Layer-to-Hidden Layer 1" style="stroke:#000000;stroke-width:1;"/><polygon fill="#000000" points="1729.92,176.31,1736.4003,168.8934,1731.3971,171.5332,1728.7573,166.53,1729.92,176.31" style="stroke:#000000;stroke-width:1;"/></g><!--link Hidden Layer 1 to Hidden Layer 2--><g class="link" data-entity-1="Hidden Layer 1" data-entity-2="Hidden Layer 2" data-source-line="11" data-uid="lnk8" id="link_Hidden Layer 1_Hidden Layer 2"><path d="M1723,223.31 C1723,240.81 1723,258.91 1723,276.39" fill="none" id="Hidden Layer 1-to-Hidden Layer 2" style="stroke:#000000;stroke-width:1;"/><polygon fill="#000000" points="1723,282.39,1727,273.39,1723,277.39,1719,273.39,1723,282.39" style="stroke:#000000;stroke-width:1;"/></g><!--link Hidden Layer 2 to Output Layer--><g class="link" data-entity-1="Hidden Layer 2" data-entity-2="Output Layer" data-source-line="12" data-uid="lnk9" id="link_Hidden Layer 2_Output Layer"><path d="M1723,329.61 C1723,347.11 1723,365.21 1723,382.69" fill="none" id="Hidden Layer 2-to-Output Layer" style="stroke:#000000;stroke-width:1;"/><polygon fill="#000000" points="1723,388.69,1727,379.69,1723,383.69,1719,379.69,1723,388.69" style="stroke:#000000;stroke-width:1;"/></g><!--link Perceptron to Binary Classification--><g class="link" data-entity-1="Perceptron" data-entity-2="Binary Classification" data-source-line="21" data-uid="lnk24" id="link_Perceptron_Binary Classification"><path d="M1386,104.72 C1386,125.33 1386,149.71 1386,170.31" fill="none" id="Perceptron-to-Binary Classification" style="stroke:#000000;stroke-width:1;"/><polygon fill="#000000" points="1386,176.31,1390,167.31,1386,171.31,1382,167.31,1386,176.31" style="stroke:#000000;stroke-width:1;"/></g><!--link Multi-Layer Perceptron to Non-linear Problems--><g class="link" data-entity-1="Multi-Layer Perceptron" data-entity-2="Non-linear Problems" data-source-line="30" data-uid="lnk30" id="link_Multi-Layer Perceptron_Non-linear Problems"><path d="M972,104.72 C972,125.33 972,149.71 972,170.31" fill="none" id="Multi-Layer Perceptron-to-Non-linear Problems" style="stroke:#000000;stroke-width:1;"/><polygon fill="#000000" points="972,176.31,976,167.31,972,171.31,968,167.31,972,176.31" style="stroke:#000000;stroke-width:1;"/></g><!--link Activation Functions to Non-linearity--><g class="link" data-entity-1="Activation Functions" data-entity-2="Non-linearity" data-source-line="39" data-uid="lnk36" id="link_Activation Functions_Non-linearity"><path d="M477,104.72 C477,125.33 477,149.71 477,170.31" fill="none" id="Activation Functions-to-Non-linearity" style="stroke:#000000;stroke-width:1;"/><polygon fill="#000000" points="477,176.31,481,167.31,477,171.31,473,167.31,477,176.31" style="stroke:#000000;stroke-width:1;"/></g><!--link Training Process to Weight Updates--><g class="link" data-entity-1="Training Process" data-entity-2="Weight Updates" data-source-line="48" data-uid="lnk42" id="link_Training Process_Weight Updates"><path d="M105,104.72 C105,125.33 105,149.71 105,170.31" fill="none" id="Training Process-to-Weight Updates" style="stroke:#000000;stroke-width:1;"/><polygon fill="#000000" points="105,176.31,109,167.31,105,171.31,101,167.31,105,176.31" style="stroke:#000000;stroke-width:1;"/></g><!--link Data Batch to Forward Pass--><g class="link" data-entity-1="Data Batch" data-entity-2="Forward Pass" data-source-line="64" data-uid="lnk52" id="link_Data Batch_Forward Pass"><path d="M2331.77,223.31 C2317.68,240.81 2302.0338,260.2373 2287.9538,277.7173" fill="none" id="Data Batch-to-Forward Pass" style="stroke:#000000;stroke-width:1;"/><polygon fill="#000000" points="2284.19,282.39,2292.9508,277.8902,2287.3265,278.4961,2286.7206,272.8718,2284.19,282.39" style="stroke:#000000;stroke-width:1;"/></g><!--link Forward Pass to Loss Calculation--><g class="link" data-entity-1="Forward Pass" data-entity-2="Loss Calculation" data-source-line="65" data-uid="lnk53" id="link_Forward Pass_Loss Calculation"><path d="M2264.92,329.61 C2264.08,347.11 2263.208,365.2169 2262.368,382.6969" fill="none" id="Forward Pass-to-Loss Calculation" style="stroke:#000000;stroke-width:1;"/><polygon fill="#000000" points="2262.08,388.69,2266.5074,379.8924,2262.32,383.6958,2258.5166,379.5084,2262.08,388.69" style="stroke:#000000;stroke-width:1;"/></g><!--link Loss Calculation to Backward Pass--><g class="link" data-entity-1="Loss Calculation" data-entity-2="Backward Pass" data-source-line="66" data-uid="lnk54" id="link_Loss Calculation_Backward Pass"><path d="M2261.43,435.91 C2261.77,453.4 2262.1133,471.5111 2262.4533,488.9911" fill="none" id="Loss Calculation-to-Backward Pass" style="stroke:#000000;stroke-width:1;"/><polygon fill="#000000" points="2262.57,494.99,2266.3942,485.9139,2262.4728,489.9909,2258.3957,486.0695,2262.57,494.99" style="stroke:#000000;stroke-width:1;"/></g><!--link Backward Pass to Weight Update--><g class="link" data-entity-1="Backward Pass" data-entity-2="Weight Update" data-source-line="67" data-uid="lnk55" id="link_Backward Pass_Weight Update"><path d="M2273.85,542.21 C2282.24,559.7 2291.1962,578.3896 2299.5762,595.8696" fill="none" id="Backward Pass-to-Weight Update" style="stroke:#000000;stroke-width:1;"/><polygon fill="#000000" points="2302.17,601.28,2301.8863,591.4352,2300.0085,596.7713,2294.6724,594.8936,2302.17,601.28" style="stroke:#000000;stroke-width:1;"/></g><!--link Weight Update to Data Batch--><g class="link" data-entity-1="Weight Update" data-entity-2="Data Batch" data-source-line="68" data-uid="lnk56" id="link_Weight Update_Data Batch"><path d="M2327.16,601.5 C2336.44,585.52 2347.79,563.15 2353,541.72 C2381.49,424.65 2363.7429,284.1238 2354.8729,228.9838" fill="none" id="Weight Update-to-Data Batch" style="stroke:#000000;stroke-width:1;"/><polygon fill="#000000" points="2353.92,223.06,2351.4002,232.5811,2354.7141,227.9965,2359.2986,231.3105,2353.92,223.06" style="stroke:#000000;stroke-width:1;"/></g><!--link Training Loop Components to GMN57--><g class="link" data-entity-1="Training Loop Components" data-entity-2="GMN57" data-source-line="70" data-uid="lnk59" id="link_Training Loop Components_GMN57"><path d="M2148,82.35 C2148,85.18 2148,158.08 2148,187.01" fill="none" id="Training Loop Components-GMN57" style="stroke:#000000;stroke-width:1;stroke-dasharray:7.0,7.0;"/></g><!--SRC=[XLLDRnen4BtpAwOv4QM8mX6fbH8YsaYKeZQeXwgHpEu4h7Xjo_OIqggd_C3-fVfZMNQzXlg2c7dZUVDcFFl6RB50a8nGtkj9aZsH3SB50aj562pGF0lr1DSgsrA3cIaLNi3lNW_ioKGX1KTkuCSTbwM1ENb1zJFsVQ9vZZmuONJUFUwulvIcSRNtjhB1OF0XdICs9f3Z579S8HEPkJ08Ycws1iHZn6C2CoHE7psy9OQay36X2Io9CQWutA8Jbmh-tx2n2vjQVHZk3-4w5TMYxr8fpAdFeJljMwBAK1ebU4V_6yg9Ue4f8rhJHveHTqCbMoCiI7O67B6BCxhpZV8DGs2ESMsSKuv4GOuPrVOoM8kIvpP98yff0SoYkBq0LCdGEv7dFckdsiybCtGGv3nJ-KBm0GlPbqgi6HQwgll41K63as6H0kTOkEFzhh9jQB-NHTVk6_jIfHAIRBp8O9HzmBR-6h3YT6S3x2CcqWBtj216gFFANDlvs8NxPYKFmt965sfUAaMIWR4UDJnIudJMqDzD8MW-WR-l_Vqbl8VHi3-wmeV1_hB6VCNvQW85sVVVlOM6_PxmxGJw-B270VYGeVzp1SVuasBSLugwDcQekq9yHr_2IkR4u64sEb51XHGsaY6TpvsPKCz4vI3jipe-3A4rP8Hb9IFrvZXCHXV-KP6SEjevwip-jcl_qrZzDO-v4DAl6b-lTdi_Ki0jEflFPDkEE0VEIv9GpdEV7hbtjywXXcHuIyp3Hw719KZUPT0s1LIQIjTSBRWkhyYMQ7U5Qzi2hYdWSIRMmXXHj8SYQeRRw7TszrjoEmGX3Iteh_26P1WVszD_]--></g></svg>