<svg xmlns="http://www.w3.org/2000/svg" xmlns:xlink="http://www.w3.org/1999/xlink" contentStyleType="text/css" data-diagram-type="DESCRIPTION" height="360px" preserveAspectRatio="none" style="width:1825px;height:360px;background:#FEFEFE;" version="1.1" viewBox="0 0 1825 360" width="1825px" zoomAndPan="magnify"><defs/><g><rect fill="#FEFEFE" height="360" style="stroke:none;stroke-width:1;" width="1825" x="0" y="0"/><!--cluster RPA vs BPA Comparison--><g class="cluster" data-entity="RPA vs BPA Comparison" data-source-line="5" data-uid="ent0002" id="cluster_RPA vs BPA Comparison"><path d="M13.5,11 L176.752,11 A3.75,3.75 0 0 1 179.252,13.5 L186.252,30.9688 L1815.5,30.9688 A2.5,2.5 0 0 1 1818,33.4688 L1818,351.06 A2.5,2.5 0 0 1 1815.5,353.56 L13.5,353.56 A2.5,2.5 0 0 1 11,351.06 L11,13.5 A2.5,2.5 0 0 1 13.5,11" fill="#FFFFFF" style="stroke:#000000;stroke-width:1;"/><line style="stroke:#000000;stroke-width:1;" x1="11" x2="186.252" y1="30.9688" y2="30.9688"/><text fill="#000000" font-family="Verdana" font-size="12" font-weight="bold" lengthAdjust="spacing" textLength="162.252" x="15" y="24.1387">RPA vs BPA Comparison</text></g><!--cluster rpa--><g class="cluster" data-entity="rpa" data-source-line="6" data-uid="ent0003" id="cluster_rpa"><rect fill="#FFFFFF" height="175.59" rx="2.5" ry="2.5" style="stroke:#000000;stroke-width:1;" width="869" x="917" y="59"/><text fill="#000000" font-family="Verdana" font-size="12" font-weight="bold" lengthAdjust="spacing" textLength="95.8828" x="1303.5586" y="72.1387">RPA Approach</text></g><!--cluster bpa--><g class="cluster" data-entity="bpa" data-source-line="20" data-uid="ent0011" id="cluster_bpa"><rect fill="#FFFFFF" height="175.59" rx="2.5" ry="2.5" style="stroke:#000000;stroke-width:1;" width="834" x="43" y="59"/><text fill="#000000" font-family="Verdana" font-size="12" font-weight="bold" lengthAdjust="spacing" textLength="95.7891" x="412.1055" y="72.1387">BPA Approach</text></g><!--entity legacy--><g class="entity" data-entity="legacy" data-source-line="34" data-uid="ent0019" id="entity_legacy"><rect fill="#FFFFFF" height="33.9688" rx="2.5" ry="2.5" style="stroke:#000000;stroke-width:1;" width="117.5527" x="1408.22" y="303.59"/><text fill="#000000" font-family="Verdana" font-size="12" lengthAdjust="spacing" textLength="97.5527" x="1418.22" y="324.7287">Legacy Systems</text></g><!--entity modern--><g class="entity" data-entity="modern" data-source-line="35" data-uid="ent0020" id="entity_modern"><rect fill="#FFFFFF" height="33.9688" rx="2.5" ry="2.5" style="stroke:#000000;stroke-width:1;" width="142.3496" x="565.83" y="303.59"/><text fill="#000000" font-family="Verdana" font-size="12" lengthAdjust="spacing" textLength="122.3496" x="575.83" y="324.7287">Modern Applications</text></g><!--entity db--><g class="entity" data-entity="db" data-source-line="36" data-uid="ent0021" id="entity_db"><rect fill="#FFFFFF" height="33.9688" rx="2.5" ry="2.5" style="stroke:#000000;stroke-width:1;" width="83.5098" x="447.25" y="303.59"/><text fill="#000000" font-family="Verdana" font-size="12" lengthAdjust="spacing" textLength="63.5098" x="457.25" y="324.7287">Databases</text></g><!--entity apis--><g class="entity" data-entity="apis" data-source-line="37" data-uid="ent0022" id="entity_apis"><rect fill="#FFFFFF" height="33.9688" rx="2.5" ry="2.5" style="stroke:#000000;stroke-width:1;" width="99.0488" x="313.48" y="303.59"/><text fill="#000000" font-family="Verdana" font-size="12" lengthAdjust="spacing" textLength="79.0488" x="323.48" y="324.7287">External APIs</text></g><!--entity rpa_ui--><g class="entity" data-entity="rpa_ui" data-source-line="7" data-uid="ent0004" id="entity_rpa_ui"><rect fill="#FFFFFF" height="57.9375" rx="2.5" ry="2.5" style="stroke:#000000;stroke-width:1;" width="124.8906" x="1637.55" y="148.68"/><rect fill="#FFFFFF" height="10" style="stroke:#000000;stroke-width:1;" width="15" x="1742.4406" y="153.68"/><rect fill="#FFFFFF" height="2" style="stroke:#000000;stroke-width:1;" width="4" x="1740.4406" y="155.68"/><rect fill="#FFFFFF" height="2" style="stroke:#000000;stroke-width:1;" width="4" x="1740.4406" y="159.68"/><text fill="#000000" font-family="Verdana" font-size="12" lengthAdjust="spacing" textLength="84.8906" x="1652.55" y="179.8187">User Interface</text><text fill="#000000" font-family="Verdana" font-size="12" lengthAdjust="spacing" textLength="69.8906" x="1652.55" y="193.7874">Automation</text></g><!--entity rpa_screen--><g class="entity" data-entity="rpa_screen" data-source-line="8" data-uid="ent0005" id="entity_rpa_screen"><rect fill="#FFFFFF" height="43.9688" rx="2.5" ry="2.5" style="stroke:#000000;stroke-width:1;" width="138.0098" x="1319" y="155.67"/><rect fill="#FFFFFF" height="10" style="stroke:#000000;stroke-width:1;" width="15" x="1437.0098" y="160.67"/><rect fill="#FFFFFF" height="2" style="stroke:#000000;stroke-width:1;" width="4" x="1435.0098" y="162.67"/><rect fill="#FFFFFF" height="2" style="stroke:#000000;stroke-width:1;" width="4" x="1435.0098" y="166.67"/><text fill="#000000" font-family="Verdana" font-size="12" lengthAdjust="spacing" textLength="98.0098" x="1334" y="186.8087">Screen Scraping</text></g><!--entity rpa_form--><g class="entity" data-entity="rpa_form" data-source-line="9" data-uid="ent0006" id="entity_rpa_form"><rect fill="#FFFFFF" height="43.9688" rx="2.5" ry="2.5" style="stroke:#000000;stroke-width:1;" width="110.1426" x="1491.93" y="155.67"/><rect fill="#FFFFFF" height="10" style="stroke:#000000;stroke-width:1;" width="15" x="1582.0726" y="160.67"/><rect fill="#FFFFFF" height="2" style="stroke:#000000;stroke-width:1;" width="4" x="1580.0726" y="162.67"/><rect fill="#FFFFFF" height="2" style="stroke:#000000;stroke-width:1;" width="4" x="1580.0726" y="166.67"/><text fill="#000000" font-family="Verdana" font-size="12" lengthAdjust="spacing" textLength="70.1426" x="1506.93" y="186.8087">Form Filling</text></g><!--entity rpa_rules--><g class="entity" data-entity="rpa_rules" data-source-line="10" data-uid="ent0007" id="entity_rpa_rules"><rect fill="#FFFFFF" height="43.9688" rx="2.5" ry="2.5" style="stroke:#000000;stroke-width:1;" width="143.2188" x="1140.39" y="155.67"/><rect fill="#FFFFFF" height="10" style="stroke:#000000;stroke-width:1;" width="15" x="1263.6088" y="160.67"/><rect fill="#FFFFFF" height="2" style="stroke:#000000;stroke-width:1;" width="4" x="1261.6088" y="162.67"/><rect fill="#FFFFFF" height="2" style="stroke:#000000;stroke-width:1;" width="4" x="1261.6088" y="166.67"/><text fill="#000000" font-family="Verdana" font-size="12" lengthAdjust="spacing" textLength="103.2188" x="1155.39" y="186.8087">Rule-Based Logic</text></g><g class="entity" data-entity="GMN8" data-source-line="13" data-uid="ent0009" id="entity_GMN8"><path d="M940.64,144.72 L940.64,210.595 L1105.3587,210.595 L1105.3587,154.72 L1095.3587,144.72 L940.64,144.72" fill="#FFFFFF" style="stroke:#000000;stroke-width:1;"/><path d="M1095.3587,144.72 L1095.3587,154.72 L1105.3587,154.72 L1095.3587,144.72" fill="#FFFFFF" style="stroke:#000000;stroke-width:1;"/><text fill="#000000" font-family="Verdana" font-size="12" lengthAdjust="spacing" textLength="131.8945" x="946.64" y="160.8587">&#8226; Operates at UI layer</text><text fill="#000000" font-family="Verdana" font-size="12" lengthAdjust="spacing" textLength="128.6367" x="946.64" y="174.8274">&#8226; No system changes</text><text fill="#000000" font-family="Verdana" font-size="12" lengthAdjust="spacing" textLength="143.7188" x="946.64" y="188.7962">&#8226; Quick implementation</text><text fill="#000000" font-family="Verdana" font-size="12" lengthAdjust="spacing" textLength="125.373" x="946.64" y="202.7649">&#8226; Limited integration</text></g><!--entity bpa_process--><g class="entity" data-entity="bpa_process" data-source-line="21" data-uid="ent0012" id="entity_bpa_process"><rect fill="#FFFFFF" height="57.9375" rx="2.5" ry="2.5" style="stroke:#000000;stroke-width:1;" width="127.5215" x="725.24" y="148.68"/><rect fill="#FFFFFF" height="10" style="stroke:#000000;stroke-width:1;" width="15" x="832.7615" y="153.68"/><rect fill="#FFFFFF" height="2" style="stroke:#000000;stroke-width:1;" width="4" x="830.7615" y="155.68"/><rect fill="#FFFFFF" height="2" style="stroke:#000000;stroke-width:1;" width="4" x="830.7615" y="159.68"/><text fill="#000000" font-family="Verdana" font-size="12" lengthAdjust="spacing" textLength="45.9961" x="740.24" y="179.8187">Process</text><text fill="#000000" font-family="Verdana" font-size="12" lengthAdjust="spacing" textLength="87.5215" x="740.24" y="193.7874">Reengineering</text></g><!--entity bpa_system--><g class="entity" data-entity="bpa_system" data-source-line="22" data-uid="ent0013" id="entity_bpa_system"><rect fill="#FFFFFF" height="57.9375" rx="2.5" ry="2.5" style="stroke:#000000;stroke-width:1;" width="106.123" x="583.94" y="148.68"/><rect fill="#FFFFFF" height="10" style="stroke:#000000;stroke-width:1;" width="15" x="670.063" y="153.68"/><rect fill="#FFFFFF" height="2" style="stroke:#000000;stroke-width:1;" width="4" x="668.063" y="155.68"/><rect fill="#FFFFFF" height="2" style="stroke:#000000;stroke-width:1;" width="4" x="668.063" y="159.68"/><text fill="#000000" font-family="Verdana" font-size="12" lengthAdjust="spacing" textLength="44.748" x="598.94" y="179.8187">System</text><text fill="#000000" font-family="Verdana" font-size="12" lengthAdjust="spacing" textLength="66.123" x="598.94" y="193.7874">Integration</text></g><!--entity bpa_workflow--><g class="entity" data-entity="bpa_workflow" data-source-line="23" data-uid="ent0014" id="entity_bpa_workflow"><rect fill="#FFFFFF" height="57.9375" rx="2.5" ry="2.5" style="stroke:#000000;stroke-width:1;" width="122.1953" x="426.9" y="148.68"/><rect fill="#FFFFFF" height="10" style="stroke:#000000;stroke-width:1;" width="15" x="529.0953" y="153.68"/><rect fill="#FFFFFF" height="2" style="stroke:#000000;stroke-width:1;" width="4" x="527.0953" y="155.68"/><rect fill="#FFFFFF" height="2" style="stroke:#000000;stroke-width:1;" width="4" x="527.0953" y="159.68"/><text fill="#000000" font-family="Verdana" font-size="12" lengthAdjust="spacing" textLength="55.8047" x="441.9" y="179.8187">Workflow</text><text fill="#000000" font-family="Verdana" font-size="12" lengthAdjust="spacing" textLength="82.1953" x="441.9" y="193.7874">Orchestration</text></g><!--entity bpa_ml--><g class="entity" data-entity="bpa_ml" data-source-line="24" data-uid="ent0015" id="entity_bpa_ml"><rect fill="#FFFFFF" height="57.9375" rx="2.5" ry="2.5" style="stroke:#000000;stroke-width:1;" width="109.8203" x="282.09" y="148.68"/><rect fill="#FFFFFF" height="10" style="stroke:#000000;stroke-width:1;" width="15" x="371.9103" y="153.68"/><rect fill="#FFFFFF" height="2" style="stroke:#000000;stroke-width:1;" width="4" x="369.9103" y="155.68"/><rect fill="#FFFFFF" height="2" style="stroke:#000000;stroke-width:1;" width="4" x="369.9103" y="159.68"/><text fill="#000000" font-family="Verdana" font-size="12" lengthAdjust="spacing" textLength="69.8203" x="297.09" y="179.8187">Intelligence</text><text fill="#000000" font-family="Verdana" font-size="12" lengthAdjust="spacing" textLength="33.457" x="297.09" y="193.7874">Layer</text></g><g class="entity" data-entity="GMN16" data-source-line="27" data-uid="ent0017" id="entity_GMN16"><path d="M66.78,144.72 L66.78,210.595 L247.2253,210.595 L247.2253,154.72 L237.2253,144.72 L66.78,144.72" fill="#FFFFFF" style="stroke:#000000;stroke-width:1;"/><path d="M237.2253,144.72 L237.2253,154.72 L247.2253,154.72 L237.2253,144.72" fill="#FFFFFF" style="stroke:#000000;stroke-width:1;"/><text fill="#000000" font-family="Verdana" font-size="12" lengthAdjust="spacing" textLength="159.4453" x="72.78" y="160.8587">&#8226; Deep system integration</text><text fill="#000000" font-family="Verdana" font-size="12" lengthAdjust="spacing" textLength="135.3633" x="72.78" y="174.8274">&#8226; Process optimization</text><text fill="#000000" font-family="Verdana" font-size="12" lengthAdjust="spacing" textLength="156.2344" x="72.78" y="188.7962">&#8226; Comprehensive solution</text><text fill="#000000" font-family="Verdana" font-size="12" lengthAdjust="spacing" textLength="158.332" x="72.78" y="202.7649">&#8226; Strategic transformation</text></g><!--link rpa to GMN8--><g class="link" data-entity-1="rpa" data-entity-2="GMN8" data-source-line="13" data-uid="lnk10" id="link_rpa_GMN8"><path d="M1023,83.98 C1023,87.2 1023,118.86 1023,144.3" fill="none" id="rpa-GMN8" style="stroke:#000000;stroke-width:1;stroke-dasharray:7.0,7.0;"/></g><!--link bpa to GMN16--><g class="link" data-entity-1="bpa" data-entity-2="GMN16" data-source-line="27" data-uid="lnk18" id="link_bpa_GMN16"><path d="M157,83.98 C157,87.2 157,118.86 157,144.3" fill="none" id="bpa-GMN16" style="stroke:#000000;stroke-width:1;stroke-dasharray:7.0,7.0;"/></g><!--link rpa_ui to legacy--><g class="link" data-entity-1="rpa_ui" data-entity-2="legacy" data-source-line="40" data-uid="lnk23" id="link_rpa_ui_legacy"><path d="M1670.99,206.85 C1656.22,220.64 1637.69,237.13 1620,250.59 C1589.39,273.88 1555.2961,289.4049 1523.9961,301.0049" fill="none" id="rpa_ui-to-legacy" style="stroke:#000000;stroke-width:1;"/><polygon fill="#000000" points="1518.37,303.09,1528.1991,303.7131,1523.0584,301.3525,1525.4191,296.2117,1518.37,303.09" style="stroke:#000000;stroke-width:1;"/><text fill="#000000" font-family="Verdana" font-size="12" lengthAdjust="spacing" textLength="114.4277" x="1606" y="270.7287">Surface interaction</text></g><!--link rpa_screen to legacy--><g class="link" data-entity-1="rpa_screen" data-entity-2="legacy" data-source-line="41" data-uid="lnk24" id="link_rpa_screen_legacy"><path d="M1386.83,199.87 C1386.7,220.24 1389.17,251.15 1403,273.59 C1410.54,285.82 1417.6046,292.5284 1429.2746,299.9884" fill="none" id="rpa_screen-to-legacy" style="stroke:#000000;stroke-width:1;"/><polygon fill="#000000" points="1434.33,303.22,1428.9014,295.0023,1430.1172,300.527,1424.5926,301.7428,1434.33,303.22" style="stroke:#000000;stroke-width:1;"/><text fill="#000000" font-family="Verdana" font-size="12" lengthAdjust="spacing" textLength="93.5273" x="1404" y="270.7287">Data extraction</text></g><!--link rpa_form to legacy--><g class="link" data-entity-1="rpa_form" data-entity-2="legacy" data-source-line="42" data-uid="lnk25" id="link_rpa_form_legacy"><path d="M1538.38,200.05 C1530.09,219.73 1516.7,249.44 1502,273.59 C1495.74,283.88 1491.4095,289.9359 1484.5895,298.4559" fill="none" id="rpa_form-to-legacy" style="stroke:#000000;stroke-width:1;"/><polygon fill="#000000" points="1480.84,303.14,1489.587,298.6135,1483.9646,299.2366,1483.3415,293.6141,1480.84,303.14" style="stroke:#000000;stroke-width:1;"/><text fill="#000000" font-family="Verdana" font-size="12" lengthAdjust="spacing" textLength="64.1953" x="1511" y="270.7287">Data entry</text></g><!--link bpa_system to legacy--><g class="link" data-entity-1="bpa_system" data-entity-2="legacy" data-source-line="44" data-uid="lnk26" id="link_bpa_system_legacy"><path d="M656.97,207.06 C669.66,222.73 687.53,240.92 708,250.59 C723.82,258.07 1226.1801,299.829 1401.9401,314.259" fill="none" id="bpa_system-to-legacy" style="stroke:#000000;stroke-width:1;"/><polygon fill="#000000" points="1407.92,314.75,1399.2775,310.027,1402.9368,314.3409,1398.6229,318.0002,1407.92,314.75" style="stroke:#000000;stroke-width:1;"/><text fill="#000000" font-family="Verdana" font-size="12" lengthAdjust="spacing" textLength="88.7168" x="921" y="270.7287">API integration</text></g><!--link bpa_system to modern--><g class="link" data-entity-1="bpa_system" data-entity-2="modern" data-source-line="45" data-uid="lnk27" id="link_bpa_system_modern"><path d="M637,206.83 C637,235.75 637,273.74 637,297.31" fill="none" id="bpa_system-to-modern" style="stroke:#000000;stroke-width:1;"/><polygon fill="#000000" points="637,303.31,641,294.31,637,298.31,633,294.31,637,303.31" style="stroke:#000000;stroke-width:1;"/><text fill="#000000" font-family="Verdana" font-size="12" lengthAdjust="spacing" textLength="108.5859" x="638" y="270.7287">Native integration</text></g><!--link bpa_workflow to db--><g class="link" data-entity-1="bpa_workflow" data-entity-2="db" data-source-line="46" data-uid="lnk28" id="link_bpa_workflow_db"><path d="M488.2,206.83 C488.41,235.75 488.6793,273.7401 488.8393,297.3101" fill="none" id="bpa_workflow-to-db" style="stroke:#000000;stroke-width:1;"/><polygon fill="#000000" points="488.88,303.31,492.8188,294.2831,488.8461,298.3101,484.819,294.3374,488.88,303.31" style="stroke:#000000;stroke-width:1;"/><text fill="#000000" font-family="Verdana" font-size="12" lengthAdjust="spacing" textLength="80.4434" x="489" y="270.7287">Direct access</text></g><!--link bpa_workflow to apis--><g class="link" data-entity-1="bpa_workflow" data-entity-2="apis" data-source-line="47" data-uid="lnk29" id="link_bpa_workflow_apis"><path d="M454.34,206.97 C437.95,221.56 418.5,240.13 403,258.59 C391.11,272.75 382.8407,285.4294 375.2907,298.1594" fill="none" id="bpa_workflow-to-apis" style="stroke:#000000;stroke-width:1;"/><polygon fill="#000000" points="372.23,303.32,380.2615,297.6195,374.7806,299.0195,373.3806,293.5386,372.23,303.32" style="stroke:#000000;stroke-width:1;"/><text fill="#000000" font-family="Verdana" font-size="12" lengthAdjust="spacing" textLength="75.0352" x="404" y="270.7287">Service calls</text></g><!--SRC=[ZPFFRjim3CRlVWekE-Um7NSOaBGD421himJ5BW4AMcOS8J9bI7BQT1YmPzcZxKb6oVbd9uV11zlwVfJ8ZzI7iA6Ae3QeEVDRpJKwh217jIsTRRYuiyOw-3XvYCy5KT0Q6nCcbiDIlnDy-fnbjKHXIJ1Op4Umyp2Mrvsj941xomFucG4uKW6vD0TgLDVEejeC03su6XC3e2JACd60mRCd1rCEvDQeQCMZ9jWAWuuRjZ4lZUu7BPKZOf0NrfhB4-dJUf-UM5V1H1jpYQvbiGyk6aF3CNegO6PBhKwm4y5d2MSR278R94kmwwYcPO2_l__0KqqE0td00CzJCBWdTo4_Ml1x7wW2jH6JPCkpzhtHQWkwgeqqZ4Dou4AUwKe7oKkBKwKxgyH5Iab-VcLT_yTz__DR_i-TLUJzYXVYNAcPo1rj4lwbRkMh1gGoLZmzftCAQKliH_omRhiszdN5Jqvjo8TUrEj1xyV54wHp9N6SZbbqz1HJcPizoJizkIUgZxRttMk9WmLWwo0kl_VbEEAEDiHUxmYyDKqFMCPQIEO5v8DzdAp_Qj2CIbHxQBtqgIgJbhhODrkGuzXAerNQk6MhjDvbxp5WBWFS4aNULH_Uv9en6XZDfoqXryTdabTxpM0u_7f80Rx0iabNCfdcKAMApfUioyPpWTx29HTzk4LnSFiiEqzAbv7KEctgSMtHmZsAlAChz3X62IxoUAYE3W2gDCTNJ7GW5ajkfwLOXSRux1y0]--></g></svg>