<svg xmlns="http://www.w3.org/2000/svg" xmlns:xlink="http://www.w3.org/1999/xlink" contentStyleType="text/css" data-diagram-type="DESCRIPTION" height="882px" preserveAspectRatio="none" style="width:1190px;height:882px;background:#FEFEFE;" version="1.1" viewBox="0 0 1190 882" width="1190px" zoomAndPan="magnify"><defs/><g><rect fill="#FEFEFE" height="882" style="stroke:none;stroke-width:1;" width="1190" x="0" y="0"/><!--cluster RPA System Architecture--><g class="cluster" data-entity="RPA System Architecture" data-source-line="5" data-uid="ent0002" id="cluster_RPA System Architecture"><path d="M13.5,11 L184.4629,11 A3.75,3.75 0 0 1 186.9629,13.5 L193.9629,30.9688 L960.5,30.9688 A2.5,2.5 0 0 1 963,33.4688 L963,873.28 A2.5,2.5 0 0 1 960.5,875.78 L13.5,875.78 A2.5,2.5 0 0 1 11,873.28 L11,13.5 A2.5,2.5 0 0 1 13.5,11" fill="#FFFFFF" style="stroke:#000000;stroke-width:1;"/><line style="stroke:#000000;stroke-width:1;" x1="11" x2="193.9629" y1="30.9688" y2="30.9688"/><text fill="#000000" font-family="Verdana" font-size="12" font-weight="bold" lengthAdjust="spacing" textLength="169.9629" x="15" y="24.1387">RPA System Architecture</text></g><!--cluster dashboard--><g class="cluster" data-entity="dashboard" data-source-line="6" data-uid="ent0003" id="cluster_dashboard"><rect fill="#FFFFFF" height="91.97" rx="2.5" ry="2.5" style="stroke:#000000;stroke-width:1;" width="611" x="37" y="51"/><text fill="#000000" font-family="Verdana" font-size="12" font-weight="bold" lengthAdjust="spacing" textLength="126.9668" x="279.0166" y="64.1387">Control Dashboard</text></g><!--cluster execution--><g class="cluster" data-entity="execution" data-source-line="13" data-uid="ent0008" id="cluster_execution"><rect fill="#FFFFFF" height="210.94" rx="2.5" ry="2.5" style="stroke:#000000;stroke-width:1;" width="496" x="58" y="189.97"/><text fill="#000000" font-family="Verdana" font-size="12" font-weight="bold" lengthAdjust="spacing" textLength="156.8496" x="227.5752" y="203.1087">Execution Environment</text></g><!--cluster targets--><g class="cluster" data-entity="targets" data-source-line="20" data-uid="ent0013" id="cluster_targets"><rect fill="#FFFFFF" height="260.93" rx="2.5" ry="2.5" style="stroke:#000000;stroke-width:1;" width="345" x="43" y="455.91"/><text fill="#000000" font-family="Verdana" font-size="12" font-weight="bold" lengthAdjust="spacing" textLength="132.5273" x="149.2363" y="469.0487">Target Applications</text></g><!--cluster data--><g class="cluster" data-entity="data" data-source-line="27" data-uid="ent0018" id="cluster_data"><rect fill="#FFFFFF" height="234.91" rx="2.5" ry="2.5" style="stroke:#000000;stroke-width:1;" width="503" x="428" y="608.87"/><text fill="#000000" font-family="Verdana" font-size="12" font-weight="bold" lengthAdjust="spacing" textLength="179.707" x="589.6465" y="622.0087">Data Sources/Destinations</text></g><!--entity designer--><g class="entity" data-entity="designer" data-source-line="7" data-uid="ent0004" id="entity_designer"><rect fill="#FFFFFF" height="43.9688" rx="2.5" ry="2.5" style="stroke:#000000;stroke-width:1;" width="153.3672" x="53.32" y="83"/><rect fill="#FFFFFF" height="10" style="stroke:#000000;stroke-width:1;" width="15" x="186.6872" y="88"/><rect fill="#FFFFFF" height="2" style="stroke:#000000;stroke-width:1;" width="4" x="184.6872" y="90"/><rect fill="#FFFFFF" height="2" style="stroke:#000000;stroke-width:1;" width="4" x="184.6872" y="94"/><text fill="#000000" font-family="Verdana" font-size="12" lengthAdjust="spacing" textLength="113.3672" x="68.32" y="114.1387">Workflow Designer</text></g><!--entity manager--><g class="entity" data-entity="manager" data-source-line="8" data-uid="ent0005" id="entity_manager"><rect fill="#FFFFFF" height="43.9688" rx="2.5" ry="2.5" style="stroke:#000000;stroke-width:1;" width="116.6934" x="241.65" y="83"/><rect fill="#FFFFFF" height="10" style="stroke:#000000;stroke-width:1;" width="15" x="338.3434" y="88"/><rect fill="#FFFFFF" height="2" style="stroke:#000000;stroke-width:1;" width="4" x="336.3434" y="90"/><rect fill="#FFFFFF" height="2" style="stroke:#000000;stroke-width:1;" width="4" x="336.3434" y="94"/><text fill="#000000" font-family="Verdana" font-size="12" lengthAdjust="spacing" textLength="76.6934" x="256.65" y="114.1387">Bot Manager</text></g><!--entity scheduler--><g class="entity" data-entity="scheduler" data-source-line="9" data-uid="ent0006" id="entity_scheduler"><rect fill="#FFFFFF" height="43.9688" rx="2.5" ry="2.5" style="stroke:#000000;stroke-width:1;" width="100.0762" x="392.96" y="83"/><rect fill="#FFFFFF" height="10" style="stroke:#000000;stroke-width:1;" width="15" x="473.0362" y="88"/><rect fill="#FFFFFF" height="2" style="stroke:#000000;stroke-width:1;" width="4" x="471.0362" y="90"/><rect fill="#FFFFFF" height="2" style="stroke:#000000;stroke-width:1;" width="4" x="471.0362" y="94"/><text fill="#000000" font-family="Verdana" font-size="12" lengthAdjust="spacing" textLength="60.0762" x="407.96" y="114.1387">Scheduler</text></g><!--entity monitor--><g class="entity" data-entity="monitor" data-source-line="10" data-uid="ent0007" id="entity_monitor"><rect fill="#FFFFFF" height="43.9688" rx="2.5" ry="2.5" style="stroke:#000000;stroke-width:1;" width="104.1719" x="527.91" y="83"/><rect fill="#FFFFFF" height="10" style="stroke:#000000;stroke-width:1;" width="15" x="612.0819" y="88"/><rect fill="#FFFFFF" height="2" style="stroke:#000000;stroke-width:1;" width="4" x="610.0819" y="90"/><rect fill="#FFFFFF" height="2" style="stroke:#000000;stroke-width:1;" width="4" x="610.0819" y="94"/><text fill="#000000" font-family="Verdana" font-size="12" lengthAdjust="spacing" textLength="64.1719" x="542.91" y="114.1387">Monitoring</text></g><!--entity runner--><g class="entity" data-entity="runner" data-source-line="14" data-uid="ent0009" id="entity_runner"><rect fill="#FFFFFF" height="43.9688" rx="2.5" ry="2.5" style="stroke:#000000;stroke-width:1;" width="107.5645" x="266.22" y="221.97"/><rect fill="#FFFFFF" height="10" style="stroke:#000000;stroke-width:1;" width="15" x="353.7845" y="226.97"/><rect fill="#FFFFFF" height="2" style="stroke:#000000;stroke-width:1;" width="4" x="351.7845" y="228.97"/><rect fill="#FFFFFF" height="2" style="stroke:#000000;stroke-width:1;" width="4" x="351.7845" y="232.97"/><text fill="#000000" font-family="Verdana" font-size="12" lengthAdjust="spacing" textLength="67.5645" x="281.22" y="253.1087">Bot Runner</text></g><!--entity screen--><g class="entity" data-entity="screen" data-source-line="15" data-uid="ent0010" id="entity_screen"><rect fill="#FFFFFF" height="43.9688" rx="2.5" ry="2.5" style="stroke:#000000;stroke-width:1;" width="133.3105" x="74.34" y="340.94"/><rect fill="#FFFFFF" height="10" style="stroke:#000000;stroke-width:1;" width="15" x="187.6505" y="345.94"/><rect fill="#FFFFFF" height="2" style="stroke:#000000;stroke-width:1;" width="4" x="185.6505" y="347.94"/><rect fill="#FFFFFF" height="2" style="stroke:#000000;stroke-width:1;" width="4" x="185.6505" y="351.94"/><text fill="#000000" font-family="Verdana" font-size="12" lengthAdjust="spacing" textLength="93.3105" x="89.34" y="372.0787">Screen Capture</text></g><!--entity input--><g class="entity" data-entity="input" data-source-line="16" data-uid="ent0011" id="entity_input"><rect fill="#FFFFFF" height="43.9688" rx="2.5" ry="2.5" style="stroke:#000000;stroke-width:1;" width="132.8008" x="242.6" y="340.94"/><rect fill="#FFFFFF" height="10" style="stroke:#000000;stroke-width:1;" width="15" x="355.4008" y="345.94"/><rect fill="#FFFFFF" height="2" style="stroke:#000000;stroke-width:1;" width="4" x="353.4008" y="347.94"/><rect fill="#FFFFFF" height="2" style="stroke:#000000;stroke-width:1;" width="4" x="353.4008" y="351.94"/><text fill="#000000" font-family="Verdana" font-size="12" lengthAdjust="spacing" textLength="92.8008" x="257.6" y="372.0787">Input Simulator</text></g><!--entity extractor--><g class="entity" data-entity="extractor" data-source-line="17" data-uid="ent0012" id="entity_extractor"><rect fill="#FFFFFF" height="43.9688" rx="2.5" ry="2.5" style="stroke:#000000;stroke-width:1;" width="127.7207" x="410.14" y="340.94"/><rect fill="#FFFFFF" height="10" style="stroke:#000000;stroke-width:1;" width="15" x="517.8607" y="345.94"/><rect fill="#FFFFFF" height="2" style="stroke:#000000;stroke-width:1;" width="4" x="515.8607" y="347.94"/><rect fill="#FFFFFF" height="2" style="stroke:#000000;stroke-width:1;" width="4" x="515.8607" y="351.94"/><text fill="#000000" font-family="Verdana" font-size="12" lengthAdjust="spacing" textLength="87.7207" x="425.14" y="372.0787">Data Extractor</text></g><!--entity browser--><g class="entity" data-entity="browser" data-source-line="21" data-uid="ent0014" id="entity_browser"><rect fill="#FFFFFF" height="43.9688" rx="2.5" ry="2.5" style="stroke:#000000;stroke-width:1;" width="119.5703" x="67.21" y="495.91"/><rect fill="#FFFFFF" height="10" style="stroke:#000000;stroke-width:1;" width="15" x="166.7803" y="500.91"/><rect fill="#FFFFFF" height="2" style="stroke:#000000;stroke-width:1;" width="4" x="164.7803" y="502.91"/><rect fill="#FFFFFF" height="2" style="stroke:#000000;stroke-width:1;" width="4" x="164.7803" y="506.91"/><text fill="#000000" font-family="Verdana" font-size="12" lengthAdjust="spacing" textLength="79.5703" x="82.21" y="527.0487">Web Browser</text></g><!--entity desktop--><g class="entity" data-entity="desktop" data-source-line="22" data-uid="ent0015" id="entity_desktop"><rect fill="#FFFFFF" height="43.9688" rx="2.5" ry="2.5" style="stroke:#000000;stroke-width:1;" width="122.998" x="221.5" y="495.91"/><rect fill="#FFFFFF" height="10" style="stroke:#000000;stroke-width:1;" width="15" x="324.498" y="500.91"/><rect fill="#FFFFFF" height="2" style="stroke:#000000;stroke-width:1;" width="4" x="322.498" y="502.91"/><rect fill="#FFFFFF" height="2" style="stroke:#000000;stroke-width:1;" width="4" x="322.498" y="506.91"/><text fill="#000000" font-family="Verdana" font-size="12" lengthAdjust="spacing" textLength="82.998" x="236.5" y="527.0487">Desktop Apps</text></g><!--entity legacy--><g class="entity" data-entity="legacy" data-source-line="23" data-uid="ent0016" id="entity_legacy"><rect fill="#FFFFFF" height="43.9688" rx="2.5" ry="2.5" style="stroke:#000000;stroke-width:1;" width="137.5527" x="67.22" y="648.87"/><rect fill="#FFFFFF" height="10" style="stroke:#000000;stroke-width:1;" width="15" x="184.7727" y="653.87"/><rect fill="#FFFFFF" height="2" style="stroke:#000000;stroke-width:1;" width="4" x="182.7727" y="655.87"/><rect fill="#FFFFFF" height="2" style="stroke:#000000;stroke-width:1;" width="4" x="182.7727" y="659.87"/><text fill="#000000" font-family="Verdana" font-size="12" lengthAdjust="spacing" textLength="97.5527" x="82.22" y="680.0087">Legacy Systems</text></g><!--entity docs--><g class="entity" data-entity="docs" data-source-line="24" data-uid="ent0017" id="entity_docs"><rect fill="#FFFFFF" height="43.9688" rx="2.5" ry="2.5" style="stroke:#000000;stroke-width:1;" width="108.4199" x="239.79" y="648.87"/><rect fill="#FFFFFF" height="10" style="stroke:#000000;stroke-width:1;" width="15" x="328.2099" y="653.87"/><rect fill="#FFFFFF" height="2" style="stroke:#000000;stroke-width:1;" width="4" x="326.2099" y="655.87"/><rect fill="#FFFFFF" height="2" style="stroke:#000000;stroke-width:1;" width="4" x="326.2099" y="659.87"/><text fill="#000000" font-family="Verdana" font-size="12" lengthAdjust="spacing" textLength="68.4199" x="254.79" y="680.0087">Documents</text></g><!--entity db--><g class="entity" data-entity="db" data-source-line="28" data-uid="ent0019" id="entity_db"><path d="M471.25,659.37 C471.25,649.37 513.0049,649.37 513.0049,649.37 C513.0049,649.37 554.7598,649.37 554.7598,659.37 L554.7598,682.3388 C554.7598,692.3388 513.0049,692.3388 513.0049,692.3388 C513.0049,692.3388 471.25,692.3388 471.25,682.3388 L471.25,659.37" fill="#FFFFFF" style="stroke:#000000;stroke-width:1;"/><path d="M471.25,659.37 C471.25,669.37 513.0049,669.37 513.0049,669.37 C513.0049,669.37 554.7598,669.37 554.7598,659.37" fill="none" style="stroke:#000000;stroke-width:1;"/><text fill="#000000" font-family="Verdana" font-size="12" lengthAdjust="spacing" textLength="63.5098" x="481.25" y="684.5087">Databases</text></g><!--entity files--><g class="entity" data-entity="files" data-source-line="29" data-uid="ent0020" id="entity_files"><rect fill="#FFFFFF" height="43.9688" rx="2.5" ry="2.5" style="stroke:#000000;stroke-width:1;" width="153.3496" x="753.33" y="648.87"/><rect fill="#FFFFFF" height="10" style="stroke:#000000;stroke-width:1;" width="15" x="886.6796" y="653.87"/><rect fill="#FFFFFF" height="2" style="stroke:#000000;stroke-width:1;" width="4" x="884.6796" y="655.87"/><rect fill="#FFFFFF" height="2" style="stroke:#000000;stroke-width:1;" width="4" x="884.6796" y="659.87"/><text fill="#000000" font-family="Verdana" font-size="12" lengthAdjust="spacing" textLength="113.3496" x="768.33" y="680.0087">Files/Spreadsheets</text></g><!--entity apis--><g class="entity" data-entity="apis" data-source-line="30" data-uid="ent0021" id="entity_apis"><rect fill="#FFFFFF" height="43.9688" rx="2.5" ry="2.5" style="stroke:#000000;stroke-width:1;" width="65.2363" x="480.38" y="775.81"/><rect fill="#FFFFFF" height="10" style="stroke:#000000;stroke-width:1;" width="15" x="525.6163" y="780.81"/><rect fill="#FFFFFF" height="2" style="stroke:#000000;stroke-width:1;" width="4" x="523.6163" y="782.81"/><rect fill="#FFFFFF" height="2" style="stroke:#000000;stroke-width:1;" width="4" x="523.6163" y="786.81"/><text fill="#000000" font-family="Verdana" font-size="12" lengthAdjust="spacing" textLength="25.2363" x="495.38" y="806.9487">APIs</text></g><!--entity email--><g class="entity" data-entity="email" data-source-line="31" data-uid="ent0022" id="entity_email"><rect fill="#FFFFFF" height="43.9688" rx="2.5" ry="2.5" style="stroke:#000000;stroke-width:1;" width="128.1074" x="589.95" y="648.87"/><rect fill="#FFFFFF" height="10" style="stroke:#000000;stroke-width:1;" width="15" x="698.0574" y="653.87"/><rect fill="#FFFFFF" height="2" style="stroke:#000000;stroke-width:1;" width="4" x="696.0574" y="655.87"/><rect fill="#FFFFFF" height="2" style="stroke:#000000;stroke-width:1;" width="4" x="696.0574" y="659.87"/><text fill="#000000" font-family="Verdana" font-size="12" lengthAdjust="spacing" textLength="88.1074" x="604.95" y="680.0087">Email Systems</text></g><g class="entity" data-entity="GMN35" data-source-line="52" data-uid="ent0036" id="entity_GMN35"><path d="M978.77,771.84 L978.77,823.7462 L1183.2388,823.7462 L1183.2388,781.84 L1173.2388,771.84 L978.77,771.84" fill="#FFFFFF" style="stroke:#000000;stroke-width:1;"/><path d="M1173.2388,771.84 L1173.2388,781.84 L1183.2388,781.84 L1173.2388,771.84" fill="#FFFFFF" style="stroke:#000000;stroke-width:1;"/><text fill="#000000" font-family="Verdana" font-size="12" lengthAdjust="spacing" textLength="173.8184" x="984.77" y="787.9787">RPA operates at the UI layer,</text><text fill="#000000" font-family="Verdana" font-size="12" lengthAdjust="spacing" textLength="183.4688" x="984.77" y="801.9474">simulating human interactions</text><text fill="#000000" font-family="Verdana" font-size="12" lengthAdjust="spacing" textLength="162.041" x="984.77" y="815.9162">without system integration</text></g><!--link designer to runner--><g class="link" data-entity-1="designer" data-entity-2="runner" data-source-line="35" data-uid="lnk23" id="link_designer_runner"><path d="M148.62,127.42 C161.6,141.63 179.79,160.13 198,173.97 C222.12,192.3 246.305,206.3552 270.265,218.7952" fill="none" id="designer-to-runner" style="stroke:#000000;stroke-width:1;"/><polygon fill="#000000" points="275.59,221.56,269.4456,213.8628,271.1525,219.256,265.7593,220.9629,275.59,221.56" style="stroke:#000000;stroke-width:1;"/><text fill="#000000" font-family="Verdana" font-size="12" lengthAdjust="spacing" textLength="101.6367" x="199" y="171.1087">Deploy Workflow</text></g><!--link manager to runner--><g class="link" data-entity-1="manager" data-entity-2="runner" data-source-line="36" data-uid="lnk24" id="link_manager_runner"><path d="M303.12,127.38 C306.88,153.12 312.2824,190.1031 316.0324,215.7631" fill="none" id="manager-to-runner" style="stroke:#000000;stroke-width:1;"/><polygon fill="#000000" points="316.9,221.7,319.5565,212.2162,316.177,216.7526,311.6406,213.373,316.9,221.7" style="stroke:#000000;stroke-width:1;"/><text fill="#000000" font-family="Verdana" font-size="12" lengthAdjust="spacing" textLength="73.9863" x="311" y="171.1087">Control Bots</text></g><!--link scheduler to runner--><g class="link" data-entity-1="scheduler" data-entity-2="runner" data-source-line="37" data-uid="lnk25" id="link_scheduler_runner"><path d="M427.84,127.44 C417.85,141.15 404.22,159.08 391,173.97 C376.05,190.8 362.2056,204.386 347.9556,217.626" fill="none" id="scheduler-to-runner" style="stroke:#000000;stroke-width:1;"/><polygon fill="#000000" points="343.56,221.71,352.876,218.5144,347.223,218.3067,347.4307,212.6536,343.56,221.71" style="stroke:#000000;stroke-width:1;"/><text fill="#000000" font-family="Verdana" font-size="12" lengthAdjust="spacing" textLength="71.7129" x="405" y="171.1087">Trigger Jobs</text></g><!--link monitor to runner--><g class="link" data-entity-1="monitor" data-entity-2="runner" data-source-line="38" data-uid="lnk26" id="link_monitor_runner"><path d="M553.64,127.31 C535.14,141.65 509.45,160.34 485,173.97 C449.47,193.77 412.7107,209.244 379.8007,221.714" fill="none" id="monitor-to-runner" style="stroke:#000000;stroke-width:1;"/><polygon fill="#000000" points="374.19,223.84,384.0234,224.3915,378.8656,222.0684,381.1888,216.9106,374.19,223.84" style="stroke:#000000;stroke-width:1;"/><text fill="#000000" font-family="Verdana" font-size="12" lengthAdjust="spacing" textLength="113.6602" x="510" y="171.1087">Track Performance</text></g><!--link runner to screen--><g class="link" data-entity-1="runner" data-entity-2="screen" data-source-line="40" data-uid="lnk27" id="link_runner_screen"><path d="M286.04,266.38 C271.77,275.44 255.04,286.13 240,295.94 C217.33,310.71 196.9212,324.2952 177.5312,337.3152" fill="none" id="runner-to-screen" style="stroke:#000000;stroke-width:1;"/><polygon fill="#000000" points="172.55,340.66,182.2517,338.9636,176.701,337.8727,177.792,332.322,172.55,340.66" style="stroke:#000000;stroke-width:1;"/><text fill="#000000" font-family="Verdana" font-size="12" lengthAdjust="spacing" textLength="64.1133" x="241" y="308.0787">Capture UI</text></g><!--link runner to input--><g class="link" data-entity-1="runner" data-entity-2="input" data-source-line="41" data-uid="lnk28" id="link_runner_input"><path d="M317.98,266.41 C316,287.51 313.5544,313.5666 311.5644,334.6266" fill="none" id="runner-to-input" style="stroke:#000000;stroke-width:1;"/><polygon fill="#000000" points="311,340.6,315.8289,332.0162,311.4704,335.6222,307.8644,331.2636,311,340.6" style="stroke:#000000;stroke-width:1;"/><text fill="#000000" font-family="Verdana" font-size="12" lengthAdjust="spacing" textLength="100.8809" x="317" y="308.0787">Simulate Actions</text></g><!--link runner to extractor--><g class="link" data-entity-1="runner" data-entity-2="extractor" data-source-line="42" data-uid="lnk29" id="link_runner_extractor"><path d="M373.77,266.37 C390.17,274.3 407.65,284.25 422,295.94 C437.49,308.55 447.9391,321.5896 457.4191,335.6096" fill="none" id="runner-to-extractor" style="stroke:#000000;stroke-width:1;"/><polygon fill="#000000" points="460.78,340.58,459.0523,330.8839,457.9793,336.438,452.4251,335.365,460.78,340.58" style="stroke:#000000;stroke-width:1;"/><text fill="#000000" font-family="Verdana" font-size="12" lengthAdjust="spacing" textLength="75.4453" x="438" y="308.0787">Extract Data</text></g><!--link screen to targets--><g class="link" data-entity-1="screen" data-entity-2="targets" data-source-line="44" data-uid="lnk30" id="link_screen_targets"><path d="M156.68,385.31 C169.75,401.3 189.93,422.02 213,431.91 C228.44,438.52 351.25,428.96 364,439.91 C367.2113,442.6663 369.8794,445.8837 372.0888,449.4104 C373.1936,451.1737 374.1836,453.0143 375.0696,454.9131 C375.1803,455.1505 372.8292,449.9163 372.9367,450.1555" fill="none" id="screen-to-targets" style="stroke:#000000;stroke-width:1;"/><polygon fill="#000000" points="375.3969,455.6279,375.3549,445.7791,373.3467,451.0676,368.0583,449.0594,375.3969,455.6279" style="stroke:#000000;stroke-width:1;"/><text fill="#000000" font-family="Verdana" font-size="12" lengthAdjust="spacing" textLength="94.4824" x="214" y="429.0487">Read Interfaces</text></g><!--link input to targets--><g class="link" data-entity-1="input" data-entity-2="targets" data-source-line="45" data-uid="lnk31" id="link_input_targets"><path d="M308.71,385.23 C309.69,400.31 313.56,419.92 326,431.91 C338.43,443.88 351.81,427.69 364,439.91 C366.9888,442.905 369.4883,446.3034 371.5732,449.9637 C372.6157,451.7938 371.1632,448.1866 372.0077,450.1299" fill="none" id="input-to-targets" style="stroke:#000000;stroke-width:1;"/><polygon fill="#000000" points="374.3991,455.6327,374.4805,445.7842,372.4063,451.047,367.1434,448.9727,374.3991,455.6327" style="stroke:#000000;stroke-width:1;"/><text fill="#000000" font-family="Verdana" font-size="12" lengthAdjust="spacing" textLength="46.8223" x="327" y="429.0487">Interact</text></g><!--link extractor to targets--><g class="link" data-entity-1="extractor" data-entity-2="targets" data-source-line="46" data-uid="lnk32" id="link_extractor_targets"><path d="M460.93,385.19 C448.215,405.88 428.41,438.1075 411.575,465.5025 C403.1575,479.2 395.4825,491.6894 389.8075,500.9244 C389.4528,501.5016 389.1059,502.066 388.7672,502.6173 C388.5978,502.8929 388.4305,503.1653 388.2652,503.4342 C388.1825,503.5687 391.2417,498.5904 391.1601,498.7232" fill="none" id="extractor-to-targets" style="stroke:#000000;stroke-width:1;"/><polygon fill="#000000" points="388.0188,503.8351,396.1388,498.2614,390.6366,499.5752,389.3228,494.073,388.0188,503.8351" style="stroke:#000000;stroke-width:1;"/><text fill="#000000" font-family="Verdana" font-size="12" lengthAdjust="spacing" textLength="53.8535" x="442" y="429.0487">Get Data</text></g><!--link runner to data--><g class="link" data-entity-1="runner" data-entity-2="data" data-source-line="48" data-uid="lnk33" id="link_runner_data"><path d="M374.12,246.09 C435.99,250.83 531.72,269.84 555,340.94 C589.33,445.79 591.13,511.21 509,584.87 C490.94,601.07 472.95,576.55 455,592.87 C451.8425,595.7412 449.1711,599.0461 446.9144,602.6374 C445.786,604.4331 444.7613,606.3003 443.8313,608.2208 C443.7732,608.3409 446.2962,603.0445 446.2388,603.1649" fill="none" id="runner-to-data" style="stroke:#000000;stroke-width:1;"/><polygon fill="#000000" points="443.6581,608.5815,451.1403,602.1771,445.8087,604.0677,443.9181,598.7361,443.6581,608.5815" style="stroke:#000000;stroke-width:1;"/><text fill="#000000" font-family="Verdana" font-size="12" lengthAdjust="spacing" textLength="99.4219" x="577" y="429.0487">Read/Write Data</text></g><!--link targets to data--><g class="link" data-entity-1="targets" data-entity-2="data" data-source-line="49" data-uid="lnk34" id="link_targets_data"><path d="M388.0643,540.6301 C388.1414,540.8379 388.2189,541.0468 388.2968,541.2569 C388.6085,542.0972 388.9269,542.9553 389.2514,543.8302 C394.4441,557.8278 401.2281,576.1156 408.0113,594.4012 C414.7944,612.6869 421.5766,630.9703 426.7655,644.9592 C427.0898,645.8335 427.4079,646.6911 427.7193,647.5308 C427.7972,647.7407 425.788,642.324 425.865,642.5317" fill="none" id="targets-to-data" style="stroke:#000000;stroke-width:1;"/><polygon fill="#000000" points="427.9517,648.1572,428.572,638.3279,426.2128,643.4693,421.0714,641.1101,427.9517,648.1572" style="stroke:#000000;stroke-width:1;"/><text fill="#000000" font-family="Verdana" font-size="12" lengthAdjust="spacing" textLength="96.1055" x="404" y="582.0087">Access Systems</text></g><!--link email to GMN35--><g class="link" data-entity-1="email" data-entity-2="GMN35" data-source-line="52" data-uid="lnk37" id="link_email_GMN35"><path d="M676.58,693.14 C692.12,706.59 713.88,723.19 736,732.84 C758.12,742.49 885.1,764.71 978.62,780.23" fill="none" id="email-GMN35" style="stroke:#000000;stroke-width:1;stroke-dasharray:7.0,7.0;"/></g><!--SRC=[RPHDJnin48Rl_XNJz5g4sYE7IW52bQf8Y51nzdedkrQy7ils5bBK_zxnnqAoYVPYUvxvzBl-57iS49oHsegmqzP9BmTefDfrdaRRtf0X3v_lLkax85hSoj74Ex9ne_yYVFqcX6ClsI4i7X-MiDc7Y0CilUfrH1L7Zmju4m2UDz9sXhaRzlPau5Q6lY7fsmN80EsqopY0ei6HHHjXyKn-jpNq0hSOT6VH5uUwcTFN5E5UMYwfS4DPpx6Dwh4TJON2j9jZzsHr9AzjLuALBLF_n75NgrTKOzHaOMN_Q4zsOF_iW- -MjtErFevsQiddvMcb7j72ZNHbdBdST3G7rzQD4JPw68ta8ZEfqzaSl9LHmkerUgac3gVTcTQUfEymmj8vevLCdOJi4_DvE7DXsC2rfvTG-shA-gGC3Bj8BWKEqvMcWpdt2pkfzbLRXJJvw2GWgJ6DlKOZ5SvqavlVqEWLXaik8Mfxq5ERhAMXj6nag2vfLP5cdlTE6uwrSHvb6th4Mi0s7S_PvSEwMANJ9yRL8BKvQXJJIUw2-vWa3nSNtwjOu8h_2cTe3zDV8ghWZw7ffsF51V6kzcFcoUikEVwa9eYgz3d1FpiyeD-IvpGAXQYsX1LLfcH5gl1xVMZEKcHh5IZ2KkMv7pBlCcIk2XJIz8MemHCqwUuA7ddWiBQH2v9ydQAaE6QocUE8ZzZ7m0-SSXmKadLG4bm-UtxB2Z9v7I1BnPd3T6b2M6AueHXfu7jBZo8vBY0YNta4VdbvB63a7lqNjeSo37vVe1zvf3obKcwU3C2BZZrnJw4yhCdQ-QnNWRQ5b4py1m00]--></g></svg>