<svg xmlns="http://www.w3.org/2000/svg" xmlns:xlink="http://www.w3.org/1999/xlink" contentStyleType="text/css" data-diagram-type="ACTIVITY" height="395px" preserveAspectRatio="none" style="width:1683px;height:395px;background:#FEFEFE;" version="1.1" viewBox="0 0 1683 395" width="1683px" zoomAndPan="magnify"><defs/><g><rect fill="#FEFEFE" height="395" style="stroke:none;stroke-width:1;" width="1683" x="0" y="0"/><ellipse cx="861.8229" cy="15" fill="#FFFFFF" rx="10" ry="10" style="stroke:#000000;stroke-width:1;"/><rect fill="#FFFFFF" height="33.9688" rx="12.5" ry="12.5" style="stroke:#000000;stroke-width:1;" width="226.2734" x="748.6862" y="45"/><text fill="#000000" font-family="Verdana" font-size="12" lengthAdjust="spacing" textLength="206.2734" x="758.6862" y="66.1387">Automation Opportunity Identified</text><polygon fill="#FFFFFF" points="763.9742,98.9688,959.6715,98.9688,971.6715,110.9688,959.6715,122.9688,763.9742,122.9688,751.9742,110.9688,763.9742,98.9688" style="stroke:#000000;stroke-width:1;"/><text fill="#000000" font-family="Verdana" font-size="12" lengthAdjust="spacing" textLength="195.6973" x="763.9742" y="115.123">Process fundamentally efficient?</text><text fill="#000000" font-family="Verdana" font-size="12" lengthAdjust="spacing" textLength="20.7363" x="731.2379" y="108.1387">yes</text><text fill="#000000" font-family="Verdana" font-size="12" lengthAdjust="spacing" textLength="14.9473" x="971.6715" y="108.1387">no</text><polygon fill="#FFFFFF" points="414.4607,132.9688,546.2146,132.9688,558.2146,144.9688,546.2146,156.9688,414.4607,156.9688,402.4607,144.9688,414.4607,132.9688" style="stroke:#000000;stroke-width:1;"/><text fill="#000000" font-family="Verdana" font-size="12" lengthAdjust="spacing" textLength="131.7539" x="414.4607" y="149.123">Legacy systems only?</text><text fill="#000000" font-family="Verdana" font-size="12" lengthAdjust="spacing" textLength="20.7363" x="381.7244" y="142.1387">yes</text><text fill="#000000" font-family="Verdana" font-size="12" lengthAdjust="spacing" textLength="14.9473" x="558.2146" y="142.1387">no</text><polygon fill="#FFFFFF" points="143.6714,166.9688,331.6694,166.9688,343.6694,178.9688,331.6694,190.9688,143.6714,190.9688,131.6714,178.9688,143.6714,166.9688" style="stroke:#000000;stroke-width:1;"/><text fill="#000000" font-family="Verdana" font-size="12" lengthAdjust="spacing" textLength="187.998" x="143.6714" y="183.123">Quick implementation needed?</text><text fill="#000000" font-family="Verdana" font-size="12" lengthAdjust="spacing" textLength="20.7363" x="110.9351" y="176.1387">yes</text><text fill="#000000" font-family="Verdana" font-size="12" lengthAdjust="spacing" textLength="14.9473" x="343.6694" y="176.1387">no</text><path d="M172.5332,200.9688 L172.5332,222.9219 L152.5332,226.9219 L172.5332,230.9219 L172.5332,252.875 A0,0 0 0 0 172.5332,252.875 L305.2305,252.875 A0,0 0 0 0 305.2305,252.875 L305.2305,210.9688 L295.2305,200.9688 L172.5332,200.9688 A0,0 0 0 0 172.5332,200.9688" fill="#FFFFFF" style="stroke:#000000;stroke-width:1;"/><path d="M295.2305,200.9688 L295.2305,210.9688 L305.2305,210.9688 L295.2305,200.9688" fill="#FFFFFF" style="stroke:#000000;stroke-width:1;"/><text fill="#000000" font-family="Verdana" font-size="12" lengthAdjust="spacing" textLength="111.6973" x="178.5332" y="217.1074">&#8226; Fast deployment</text><text fill="#000000" font-family="Verdana" font-size="12" lengthAdjust="spacing" textLength="83.1797" x="178.5332" y="231.0762">&#8226; Minimal risk</text><text fill="#000000" font-family="Verdana" font-size="12" lengthAdjust="spacing" textLength="100.7227" x="178.5332" y="245.0449">&#8226; Immediate ROI</text><rect fill="#FFFFFF" height="33.9688" rx="12.5" ry="12.5" style="stroke:#000000;stroke-width:1;" width="146.5332" x="6" y="209.9375"/><text fill="#000000" font-family="Verdana" font-size="12" lengthAdjust="spacing" textLength="126.5332" x="16" y="231.0762">Choose RPA Platform</text><path d="M486.918,200.9688 L486.918,222.9219 L466.918,226.9219 L486.918,230.9219 L486.918,252.875 A0,0 0 0 0 486.918,252.875 L616.5625,252.875 A0,0 0 0 0 616.5625,252.875 L616.5625,210.9688 L606.5625,200.9688 L486.918,200.9688 A0,0 0 0 0 486.918,200.9688" fill="#FFFFFF" style="stroke:#000000;stroke-width:1;"/><path d="M606.5625,200.9688 L606.5625,210.9688 L616.5625,210.9688 L606.5625,200.9688" fill="#FFFFFF" style="stroke:#000000;stroke-width:1;"/><text fill="#000000" font-family="Verdana" font-size="12" lengthAdjust="spacing" textLength="93.7207" x="492.918" y="217.1074">&#8226; Cost effective</text><text fill="#000000" font-family="Verdana" font-size="12" lengthAdjust="spacing" textLength="77.7422" x="492.918" y="231.0762">&#8226; Full control</text><text fill="#000000" font-family="Verdana" font-size="12" lengthAdjust="spacing" textLength="108.6445" x="492.918" y="245.0449">&#8226; Future flexibility</text><rect fill="#FFFFFF" height="33.9688" rx="12.5" ry="12.5" style="stroke:#000000;stroke-width:1;" width="141.6875" x="325.2305" y="209.9375"/><text fill="#000000" font-family="Verdana" font-size="12" lengthAdjust="spacing" textLength="121.6875" x="335.2305" y="231.0762">Choose Custom RPA</text><polygon fill="#FFFFFF" points="237.6704,258.875,249.6704,270.875,237.6704,282.875,225.6704,270.875,237.6704,258.875" style="stroke:#000000;stroke-width:1;"/><path d="M799.4473,166.9688 L799.4473,188.9219 L779.4473,192.9219 L799.4473,196.9219 L799.4473,218.875 A0,0 0 0 0 799.4473,218.875 L978.7793,218.875 A0,0 0 0 0 978.7793,218.875 L978.7793,176.9688 L968.7793,166.9688 L799.4473,166.9688 A0,0 0 0 0 799.4473,166.9688" fill="#FFFFFF" style="stroke:#000000;stroke-width:1;"/><path d="M968.7793,166.9688 L968.7793,176.9688 L978.7793,176.9688 L968.7793,166.9688" fill="#FFFFFF" style="stroke:#000000;stroke-width:1;"/><text fill="#000000" font-family="Verdana" font-size="12" lengthAdjust="spacing" textLength="112.248" x="805.4473" y="183.1074">&#8226; Deep integration</text><text fill="#000000" font-family="Verdana" font-size="12" lengthAdjust="spacing" textLength="135.3633" x="805.4473" y="197.0762">&#8226; Process optimization</text><text fill="#000000" font-family="Verdana" font-size="12" lengthAdjust="spacing" textLength="158.332" x="805.4473" y="211.0449">&#8226; Strategic transformation</text><rect fill="#FFFFFF" height="33.9688" rx="12.5" ry="12.5" style="stroke:#000000;stroke-width:1;" width="152.8848" x="626.5625" y="175.9375"/><text fill="#000000" font-family="Verdana" font-size="12" lengthAdjust="spacing" textLength="132.8848" x="636.5625" y="197.0762">Choose BPA Approach</text><polygon fill="#FFFFFF" points="480.3376,288.875,492.3376,300.875,480.3376,312.875,468.3376,300.875,480.3376,288.875" style="stroke:#000000;stroke-width:1;"/><rect fill="#FFFFFF" height="33.9688" rx="12.5" ry="12.5" style="stroke:#000000;stroke-width:1;" width="215.3574" x="1133.4689" y="132.9688"/><text fill="#000000" font-family="Verdana" font-size="12" lengthAdjust="spacing" textLength="195.3574" x="1143.4689" y="154.1074">Process Reengineering Required</text><polygon fill="#FFFFFF" points="1156.6466,201.9375,1325.6486,201.9375,1337.6486,213.9375,1325.6486,225.9375,1156.6466,225.9375,1144.6466,213.9375,1156.6466,201.9375" style="stroke:#000000;stroke-width:1;"/><text fill="#000000" font-family="Verdana" font-size="12" lengthAdjust="spacing" textLength="169.002" x="1156.6466" y="218.0918">Complex integration needs?</text><text fill="#000000" font-family="Verdana" font-size="12" lengthAdjust="spacing" textLength="20.7363" x="1123.9103" y="211.1074">yes</text><text fill="#000000" font-family="Verdana" font-size="12" lengthAdjust="spacing" textLength="14.9473" x="1337.6486" y="211.1074">no</text><path d="M1158.2008,235.9375 L1158.2008,257.8906 L1138.2008,261.8906 L1158.2008,265.8906 L1158.2008,287.8438 A0,0 0 0 0 1158.2008,287.8438 L1317.6344,287.8438 A0,0 0 0 0 1317.6344,287.8438 L1317.6344,245.9375 L1307.6344,235.9375 L1158.2008,235.9375 A0,0 0 0 0 1158.2008,235.9375" fill="#FFFFFF" style="stroke:#000000;stroke-width:1;"/><path d="M1307.6344,235.9375 L1307.6344,245.9375 L1317.6344,245.9375 L1307.6344,235.9375" fill="#FFFFFF" style="stroke:#000000;stroke-width:1;"/><text fill="#000000" font-family="Verdana" font-size="12" lengthAdjust="spacing" textLength="110.8535" x="1164.2008" y="252.0762">&#8226; Tailored solution</text><text fill="#000000" font-family="Verdana" font-size="12" lengthAdjust="spacing" textLength="125.373" x="1164.2008" y="266.0449">&#8226; System integration</text><text fill="#000000" font-family="Verdana" font-size="12" lengthAdjust="spacing" textLength="138.4336" x="1164.2008" y="280.0137">&#8226; Scalable architecture</text><rect fill="#FFFFFF" height="33.9688" rx="12.5" ry="12.5" style="stroke:#000000;stroke-width:1;" width="141.582" x="996.6188" y="244.9063"/><text fill="#000000" font-family="Verdana" font-size="12" lengthAdjust="spacing" textLength="121.582" x="1006.6188" y="266.0449">Choose Custom BPA</text><path d="M1512.1364,235.9375 L1512.1364,257.8906 L1492.1364,261.8906 L1512.1364,265.8906 L1512.1364,287.8438 A0,0 0 0 0 1512.1364,287.8438 L1676.2809,287.8438 A0,0 0 0 0 1676.2809,287.8438 L1676.2809,245.9375 L1666.2809,235.9375 L1512.1364,235.9375 A0,0 0 0 0 1512.1364,235.9375" fill="#FFFFFF" style="stroke:#000000;stroke-width:1;"/><path d="M1666.2809,235.9375 L1666.2809,245.9375 L1676.2809,245.9375 L1666.2809,235.9375" fill="#FFFFFF" style="stroke:#000000;stroke-width:1;"/><text fill="#000000" font-family="Verdana" font-size="12" lengthAdjust="spacing" textLength="128.127" x="1518.1364" y="252.0762">&#8226; Rapid development</text><text fill="#000000" font-family="Verdana" font-size="12" lengthAdjust="spacing" textLength="143.1445" x="1518.1364" y="266.0449">&#8226; Business user friendly</text><text fill="#000000" font-family="Verdana" font-size="12" lengthAdjust="spacing" textLength="126.2754" x="1518.1364" y="280.0137">&#8226; Enterprise features</text><rect fill="#FFFFFF" height="33.9688" rx="12.5" ry="12.5" style="stroke:#000000;stroke-width:1;" width="154.502" x="1337.6344" y="244.9063"/><text fill="#000000" font-family="Verdana" font-size="12" lengthAdjust="spacing" textLength="134.502" x="1347.6344" y="266.0449">Choose Low-Code BPA</text><polygon fill="#FFFFFF" points="1241.1476,293.8438,1253.1476,305.8438,1241.1476,317.8438,1229.1476,305.8438,1241.1476,293.8438" style="stroke:#000000;stroke-width:1;"/><polygon fill="#FFFFFF" points="861.8229,323.8438,873.8229,335.8438,861.8229,347.8438,849.8229,335.8438,861.8229,323.8438" style="stroke:#000000;stroke-width:1;"/><ellipse cx="861.8229" cy="378.8438" fill="none" rx="11" ry="11" style="stroke:#000000;stroke-width:1;"/><ellipse cx="861.8229" cy="378.8438" fill="#FFFFFF" rx="6" ry="6" style="stroke:#000000;stroke-width:1;"/><line style="stroke:#000000;stroke-width:1;" x1="861.8229" x2="861.8229" y1="25" y2="45"/><polygon fill="#000000" points="857.8229,35,861.8229,45,865.8229,35,861.8229,39" style="stroke:#000000;stroke-width:1;"/><line style="stroke:#000000;stroke-width:1;" x1="131.6714" x2="79.2666" y1="178.9688" y2="178.9688"/><line style="stroke:#000000;stroke-width:1;" x1="79.2666" x2="79.2666" y1="178.9688" y2="209.9375"/><polygon fill="#000000" points="75.2666,199.9375,79.2666,209.9375,83.2666,199.9375,79.2666,203.9375" style="stroke:#000000;stroke-width:1;"/><line style="stroke:#000000;stroke-width:1;" x1="343.6694" x2="396.0742" y1="178.9688" y2="178.9688"/><line style="stroke:#000000;stroke-width:1;" x1="396.0742" x2="396.0742" y1="178.9688" y2="209.9375"/><polygon fill="#000000" points="392.0742,199.9375,396.0742,209.9375,400.0742,199.9375,396.0742,203.9375" style="stroke:#000000;stroke-width:1;"/><line style="stroke:#000000;stroke-width:1;" x1="79.2666" x2="79.2666" y1="243.9063" y2="270.875"/><line style="stroke:#000000;stroke-width:1;" x1="79.2666" x2="225.6704" y1="270.875" y2="270.875"/><polygon fill="#000000" points="215.6704,266.875,225.6704,270.875,215.6704,274.875,219.6704,270.875" style="stroke:#000000;stroke-width:1;"/><line style="stroke:#000000;stroke-width:1;" x1="396.0742" x2="396.0742" y1="243.9063" y2="270.875"/><line style="stroke:#000000;stroke-width:1;" x1="396.0742" x2="249.6704" y1="270.875" y2="270.875"/><polygon fill="#000000" points="259.6704,266.875,249.6704,270.875,259.6704,274.875,255.6704,270.875" style="stroke:#000000;stroke-width:1;"/><line style="stroke:#000000;stroke-width:1;" x1="402.4607" x2="237.6704" y1="144.9688" y2="144.9688"/><line style="stroke:#000000;stroke-width:1;" x1="237.6704" x2="237.6704" y1="144.9688" y2="166.9688"/><polygon fill="#000000" points="233.6704,156.9688,237.6704,166.9688,241.6704,156.9688,237.6704,160.9688" style="stroke:#000000;stroke-width:1;"/><line style="stroke:#000000;stroke-width:1;" x1="558.2146" x2="703.0049" y1="144.9688" y2="144.9688"/><line style="stroke:#000000;stroke-width:1;" x1="703.0049" x2="703.0049" y1="144.9688" y2="175.9375"/><polygon fill="#000000" points="699.0049,165.9375,703.0049,175.9375,707.0049,165.9375,703.0049,169.9375" style="stroke:#000000;stroke-width:1;"/><line style="stroke:#000000;stroke-width:1;" x1="237.6704" x2="237.6704" y1="282.875" y2="300.875"/><line style="stroke:#000000;stroke-width:1;" x1="237.6704" x2="468.3376" y1="300.875" y2="300.875"/><polygon fill="#000000" points="458.3376,296.875,468.3376,300.875,458.3376,304.875,462.3376,300.875" style="stroke:#000000;stroke-width:1;"/><line style="stroke:#000000;stroke-width:1;" x1="703.0049" x2="703.0049" y1="209.9063" y2="300.875"/><line style="stroke:#000000;stroke-width:1;" x1="703.0049" x2="492.3376" y1="300.875" y2="300.875"/><polygon fill="#000000" points="502.3376,296.875,492.3376,300.875,502.3376,304.875,498.3376,300.875" style="stroke:#000000;stroke-width:1;"/><line style="stroke:#000000;stroke-width:1;" x1="1144.6466" x2="1067.4098" y1="213.9375" y2="213.9375"/><line style="stroke:#000000;stroke-width:1;" x1="1067.4098" x2="1067.4098" y1="213.9375" y2="244.9063"/><polygon fill="#000000" points="1063.4098,234.9063,1067.4098,244.9063,1071.4098,234.9063,1067.4098,238.9063" style="stroke:#000000;stroke-width:1;"/><line style="stroke:#000000;stroke-width:1;" x1="1337.6486" x2="1414.8854" y1="213.9375" y2="213.9375"/><line style="stroke:#000000;stroke-width:1;" x1="1414.8854" x2="1414.8854" y1="213.9375" y2="244.9063"/><polygon fill="#000000" points="1410.8854,234.9063,1414.8854,244.9063,1418.8854,234.9063,1414.8854,238.9063" style="stroke:#000000;stroke-width:1;"/><line style="stroke:#000000;stroke-width:1;" x1="1067.4098" x2="1067.4098" y1="278.875" y2="305.8438"/><line style="stroke:#000000;stroke-width:1;" x1="1067.4098" x2="1229.1476" y1="305.8438" y2="305.8438"/><polygon fill="#000000" points="1219.1476,301.8438,1229.1476,305.8438,1219.1476,309.8438,1223.1476,305.8438" style="stroke:#000000;stroke-width:1;"/><line style="stroke:#000000;stroke-width:1;" x1="1414.8854" x2="1414.8854" y1="278.875" y2="305.8438"/><line style="stroke:#000000;stroke-width:1;" x1="1414.8854" x2="1253.1476" y1="305.8438" y2="305.8438"/><polygon fill="#000000" points="1263.1476,301.8438,1253.1476,305.8438,1263.1476,309.8438,1259.1476,305.8438" style="stroke:#000000;stroke-width:1;"/><line style="stroke:#000000;stroke-width:1;" x1="1241.1476" x2="1241.1476" y1="166.9375" y2="201.9375"/><polygon fill="#000000" points="1237.1476,191.9375,1241.1476,201.9375,1245.1476,191.9375,1241.1476,195.9375" style="stroke:#000000;stroke-width:1;"/><line style="stroke:#000000;stroke-width:1;" x1="751.9742" x2="480.3376" y1="110.9688" y2="110.9688"/><line style="stroke:#000000;stroke-width:1;" x1="480.3376" x2="480.3376" y1="110.9688" y2="132.9688"/><polygon fill="#000000" points="476.3376,122.9688,480.3376,132.9688,484.3376,122.9688,480.3376,126.9688" style="stroke:#000000;stroke-width:1;"/><line style="stroke:#000000;stroke-width:1;" x1="971.6715" x2="1241.1476" y1="110.9688" y2="110.9688"/><line style="stroke:#000000;stroke-width:1;" x1="1241.1476" x2="1241.1476" y1="110.9688" y2="132.9688"/><polygon fill="#000000" points="1237.1476,122.9688,1241.1476,132.9688,1245.1476,122.9688,1241.1476,126.9688" style="stroke:#000000;stroke-width:1;"/><line style="stroke:#000000;stroke-width:1;" x1="480.3376" x2="480.3376" y1="312.875" y2="335.8438"/><line style="stroke:#000000;stroke-width:1;" x1="480.3376" x2="849.8229" y1="335.8438" y2="335.8438"/><polygon fill="#000000" points="839.8229,331.8438,849.8229,335.8438,839.8229,339.8438,843.8229,335.8438" style="stroke:#000000;stroke-width:1;"/><line style="stroke:#000000;stroke-width:1;" x1="1241.1476" x2="1241.1476" y1="317.8438" y2="335.8438"/><line style="stroke:#000000;stroke-width:1;" x1="1241.1476" x2="873.8229" y1="335.8438" y2="335.8438"/><polygon fill="#000000" points="883.8229,331.8438,873.8229,335.8438,883.8229,339.8438,879.8229,335.8438" style="stroke:#000000;stroke-width:1;"/><line style="stroke:#000000;stroke-width:1;" x1="861.8229" x2="861.8229" y1="78.9688" y2="98.9688"/><polygon fill="#000000" points="857.8229,88.9688,861.8229,98.9688,865.8229,88.9688,861.8229,92.9688" style="stroke:#000000;stroke-width:1;"/><line style="stroke:#000000;stroke-width:1;" x1="861.8229" x2="861.8229" y1="347.8438" y2="367.8438"/><polygon fill="#000000" points="857.8229,357.8438,861.8229,367.8438,865.8229,357.8438,861.8229,361.8438" style="stroke:#000000;stroke-width:1;"/><!--SRC=[XPHDRjim48NtEiKKsJYBBjgbioXi9GOCf8XhzmAqE9879ZaCVz8egvwbH-j9Ef9jL9OT1084KMz8Vfptf4zfXnR16qMkY7joNWLbOQkgVHCuErsouG0tYuVk6bHeh5KsQS4kRUWDuSlNeeX9XLGKqrbER5KYTl3aFOUK7QKMbXfTeffGtnK5rJ1P1QumHgXb7sL5LCQqW7LD5Sdesoq8dOD9Y_6s0EYcF6AZgXPY6nFQ2EnCEoux5Fx8LEs1h3VOhzpJE4ID-d82mBJSCKU4zMe6AwDIpS7U7JN72I5Giql75m1_V_-1XOf9sk0DjzqEPzftScILaLbnVoOihKLDIXPSFosF2ZhTxz4FqGZ5nF4OhCnHcjhnVO1Lic193x5Az8BdnDaOgCInm6Oaf1mGQeElj2KZPbr5SvhgOenu0fnBvsRU1rRLxe1u0TXjTO_eWLp29lIU3AHJ7DWdilGsbZT9Pc135SY3Yvr3_qi6e0VC8UJqjF8QqJKaAGZa6XazPmfz6W-PARcBo-iGhuzCl4pCo9RvoPQhP_wfI3uYr13PvF6f-YI_qv5DfOpQ6WGLgXqbiLHikZZlLJiU-TVdaZL-WBPMdhIa-0KD-q6CEssUe_HAsfOZ1gY3V9FQj8E21u4ENZ8kqK7LiSLtpEZlydzWN_m3]--></g></svg>