<svg xmlns="http://www.w3.org/2000/svg" xmlns:xlink="http://www.w3.org/1999/xlink" contentStyleType="text/css" data-diagram-type="DESCRIPTION" height="359px" preserveAspectRatio="none" style="width:1286px;height:359px;background:#FFFFFF;" version="1.1" viewBox="0 0 1286 359" width="1286px" zoomAndPan="magnify"><defs/><g><!--cluster Open Source Web Ecosystem--><g class="cluster" data-entity="Open Source Web Ecosystem" data-source-line="4" data-uid="ent0002" id="cluster_Open Source Web Ecosystem"><rect fill="none" height="97.29" rx="2.5" ry="2.5" style="stroke:#181818;stroke-width:1;" width="932" x="261.61" y="7"/><text fill="#000000" font-family="sans-serif" font-size="14" font-weight="bold" lengthAdjust="spacing" textLength="229.3799" x="612.9201" y="21.9951">Open Source Web Ecosystem</text></g><!--cluster Development Process--><g class="cluster" data-entity="Development Process" data-source-line="12" data-uid="ent0008" id="cluster_Development Process"><rect fill="none" height="97.3" rx="2.5" ry="2.5" style="stroke:#181818;stroke-width:1;" width="473" x="357.61" y="153.29"/><text fill="#000000" font-family="sans-serif" font-size="14" font-weight="bold" lengthAdjust="spacing" textLength="171.0352" x="508.5924" y="168.2851">Development Process</text></g><!--entity servers--><g class="entity" data-entity="servers" data-source-line="5" data-uid="ent0003" id="entity_servers"><rect fill="#F1F1F1" height="46.2969" rx="2.5" ry="2.5" style="stroke:#181818;stroke-width:0.5;" width="128.9971" x="528.11" y="42"/><rect fill="#F1F1F1" height="10" style="stroke:#181818;stroke-width:0.5;" width="15" x="637.1071" y="47"/><rect fill="#F1F1F1" height="2" style="stroke:#181818;stroke-width:0.5;" width="4" x="635.1071" y="49"/><rect fill="#F1F1F1" height="2" style="stroke:#181818;stroke-width:0.5;" width="4" x="635.1071" y="53"/><text fill="#000000" font-family="sans-serif" font-size="14" lengthAdjust="spacing" textLength="88.9971" x="543.11" y="74.9951">Web Servers</text></g><!--entity languages--><g class="entity" data-entity="languages" data-source-line="6" data-uid="ent0004" id="entity_languages"><rect fill="#F1F1F1" height="46.2969" rx="2.5" ry="2.5" style="stroke:#181818;stroke-width:0.5;" width="215.7451" x="277.73" y="42"/><rect fill="#F1F1F1" height="10" style="stroke:#181818;stroke-width:0.5;" width="15" x="473.4751" y="47"/><rect fill="#F1F1F1" height="2" style="stroke:#181818;stroke-width:0.5;" width="4" x="471.4751" y="49"/><rect fill="#F1F1F1" height="2" style="stroke:#181818;stroke-width:0.5;" width="4" x="471.4751" y="53"/><text fill="#000000" font-family="sans-serif" font-size="14" lengthAdjust="spacing" textLength="175.7451" x="292.73" y="74.9951">Programming Languages</text></g><!--entity frameworks--><g class="entity" data-entity="frameworks" data-source-line="7" data-uid="ent0005" id="entity_frameworks"><rect fill="#F1F1F1" height="46.2969" rx="2.5" ry="2.5" style="stroke:#181818;stroke-width:0.5;" width="125.8115" x="691.7" y="42"/><rect fill="#F1F1F1" height="10" style="stroke:#181818;stroke-width:0.5;" width="15" x="797.5115" y="47"/><rect fill="#F1F1F1" height="2" style="stroke:#181818;stroke-width:0.5;" width="4" x="795.5115" y="49"/><rect fill="#F1F1F1" height="2" style="stroke:#181818;stroke-width:0.5;" width="4" x="795.5115" y="53"/><text fill="#000000" font-family="sans-serif" font-size="14" lengthAdjust="spacing" textLength="85.8115" x="706.7" y="74.9951">Frameworks</text></g><!--entity databases--><g class="entity" data-entity="databases" data-source-line="8" data-uid="ent0006" id="entity_databases"><rect fill="#F1F1F1" height="46.2969" rx="2.5" ry="2.5" style="stroke:#181818;stroke-width:0.5;" width="114.0947" x="852.56" y="42"/><rect fill="#F1F1F1" height="10" style="stroke:#181818;stroke-width:0.5;" width="15" x="946.6547" y="47"/><rect fill="#F1F1F1" height="2" style="stroke:#181818;stroke-width:0.5;" width="4" x="944.6547" y="49"/><rect fill="#F1F1F1" height="2" style="stroke:#181818;stroke-width:0.5;" width="4" x="944.6547" y="53"/><text fill="#000000" font-family="sans-serif" font-size="14" lengthAdjust="spacing" textLength="74.0947" x="867.56" y="74.9951">Databases</text></g><!--entity tools--><g class="entity" data-entity="tools" data-source-line="9" data-uid="ent0007" id="entity_tools"><rect fill="#F1F1F1" height="46.2969" rx="2.5" ry="2.5" style="stroke:#181818;stroke-width:0.5;" width="175.5635" x="1001.82" y="42"/><rect fill="#F1F1F1" height="10" style="stroke:#181818;stroke-width:0.5;" width="15" x="1157.3835" y="47"/><rect fill="#F1F1F1" height="2" style="stroke:#181818;stroke-width:0.5;" width="4" x="1155.3835" y="49"/><rect fill="#F1F1F1" height="2" style="stroke:#181818;stroke-width:0.5;" width="4" x="1155.3835" y="53"/><text fill="#000000" font-family="sans-serif" font-size="14" lengthAdjust="spacing" textLength="135.5635" x="1016.82" y="74.9951">Development Tools</text></g><!--entity community--><g class="entity" data-entity="community" data-source-line="13" data-uid="ent0009" id="entity_community"><rect fill="#F1F1F1" height="46.2969" rx="2.5" ry="2.5" style="stroke:#181818;stroke-width:0.5;" width="121.0264" x="693.09" y="188.29"/><rect fill="#F1F1F1" height="10" style="stroke:#181818;stroke-width:0.5;" width="15" x="794.1164" y="193.29"/><rect fill="#F1F1F1" height="2" style="stroke:#181818;stroke-width:0.5;" width="4" x="792.1164" y="195.29"/><rect fill="#F1F1F1" height="2" style="stroke:#181818;stroke-width:0.5;" width="4" x="792.1164" y="199.29"/><text fill="#000000" font-family="sans-serif" font-size="14" lengthAdjust="spacing" textLength="81.0264" x="708.09" y="221.2851">Community</text></g><!--entity contributors--><g class="entity" data-entity="contributors" data-source-line="14" data-uid="ent0010" id="entity_contributors"><rect fill="#F1F1F1" height="46.2969" rx="2.5" ry="2.5" style="stroke:#181818;stroke-width:0.5;" width="127.2129" x="531" y="188.29"/><rect fill="#F1F1F1" height="10" style="stroke:#181818;stroke-width:0.5;" width="15" x="638.2129" y="193.29"/><rect fill="#F1F1F1" height="2" style="stroke:#181818;stroke-width:0.5;" width="4" x="636.2129" y="195.29"/><rect fill="#F1F1F1" height="2" style="stroke:#181818;stroke-width:0.5;" width="4" x="636.2129" y="199.29"/><text fill="#000000" font-family="sans-serif" font-size="14" lengthAdjust="spacing" textLength="87.2129" x="546" y="221.2851">Contributors</text></g><!--entity maintainers--><g class="entity" data-entity="maintainers" data-source-line="15" data-uid="ent0011" id="entity_maintainers"><rect fill="#F1F1F1" height="46.2969" rx="2.5" ry="2.5" style="stroke:#181818;stroke-width:0.5;" width="121.915" x="373.65" y="188.29"/><rect fill="#F1F1F1" height="10" style="stroke:#181818;stroke-width:0.5;" width="15" x="475.565" y="193.29"/><rect fill="#F1F1F1" height="2" style="stroke:#181818;stroke-width:0.5;" width="4" x="473.565" y="195.29"/><rect fill="#F1F1F1" height="2" style="stroke:#181818;stroke-width:0.5;" width="4" x="473.565" y="199.29"/><text fill="#000000" font-family="sans-serif" font-size="14" lengthAdjust="spacing" textLength="81.915" x="388.65" y="221.2851">Maintainers</text></g><g class="entity" data-entity="GMN12" data-source-line="18" data-uid="ent0013" id="entity_GMN12"><path d="M214.22,191.31 L214.22,231.5756 L338.9915,231.5756 L338.9915,201.31 L328.9915,191.31 L214.22,191.31" fill="#FAFAFA" style="stroke:#181818;stroke-width:0.5;"/><path d="M328.9915,191.31 L328.9915,201.31 L338.9915,201.31 L328.9915,191.31" fill="#FAFAFA" style="stroke:#181818;stroke-width:1;"/><text fill="#000000" font-family="sans-serif" font-size="13" lengthAdjust="spacing" textLength="94.2817" x="220.22" y="208.3769">Apache, Nginx</text><text fill="#000000" font-family="sans-serif" font-size="13" lengthAdjust="spacing" textLength="103.7715" x="220.22" y="223.5097">Node.js runtime</text></g><g class="entity" data-entity="GMN15" data-source-line="19" data-uid="ent0016" id="entity_GMN15"><path d="M6,191.31 L6,231.5756 L179.2104,231.5756 L179.2104,201.31 L169.2104,191.31 L6,191.31" fill="#FAFAFA" style="stroke:#181818;stroke-width:0.5;"/><path d="M169.2104,191.31 L169.2104,201.31 L179.2104,201.31 L169.2104,191.31" fill="#FAFAFA" style="stroke:#181818;stroke-width:1;"/><text fill="#000000" font-family="sans-serif" font-size="13" lengthAdjust="spacing" textLength="152.2104" x="12" y="208.3769">Python, PHP, JavaScript</text><text fill="#000000" font-family="sans-serif" font-size="13" lengthAdjust="spacing" textLength="59.5093" x="12" y="223.5097">Ruby, Go</text></g><g class="entity" data-entity="GMN18" data-source-line="20" data-uid="ent0019" id="entity_GMN18"><path d="M849.28,191.31 L849.28,231.5756 L957.9348,231.5756 L957.9348,201.31 L947.9348,191.31 L849.28,191.31" fill="#FAFAFA" style="stroke:#181818;stroke-width:0.5;"/><path d="M947.9348,191.31 L947.9348,201.31 L957.9348,201.31 L947.9348,191.31" fill="#FAFAFA" style="stroke:#181818;stroke-width:1;"/><text fill="#000000" font-family="sans-serif" font-size="13" lengthAdjust="spacing" textLength="87.6548" x="855.28" y="208.3769">Django, Flask</text><text fill="#000000" font-family="sans-serif" font-size="13" lengthAdjust="spacing" textLength="85.1538" x="855.28" y="223.5097">React, Vue.js</text></g><g class="entity" data-entity="GMN21" data-source-line="21" data-uid="ent0022" id="entity_GMN21"><path d="M993.16,191.31 L993.16,231.5756 A0,0 0 0 0 993.16,231.5756 L1142.0462,231.5756 A0,0 0 0 0 1142.0462,231.5756 L1142.0462,201.31 L1132.0462,191.31 L1050.13,191.31 L934.29,88.69 L1042.13,191.31 L993.16,191.31 A0,0 0 0 0 993.16,191.31" fill="#FAFAFA" style="stroke:#181818;stroke-width:0.5;"/><path d="M1132.0462,191.31 L1132.0462,201.31 L1142.0462,201.31 L1132.0462,191.31" fill="#FAFAFA" style="stroke:#181818;stroke-width:0.5;"/><text fill="#000000" font-family="sans-serif" font-size="13" lengthAdjust="spacing" textLength="127.8862" x="999.16" y="208.3769">PostgreSQL, MySQL</text><text fill="#000000" font-family="sans-serif" font-size="13" lengthAdjust="spacing" textLength="106.4756" x="999.16" y="223.5097">MongoDB, Redis</text></g><g class="entity" data-entity="GMN24" data-source-line="22" data-uid="ent0025" id="entity_GMN24"><path d="M1177.3,191.31 L1177.3,231.5756 A0,0 0 0 0 1177.3,231.5756 L1279.9055,231.5756 A0,0 0 0 0 1279.9055,231.5756 L1279.9055,201.31 L1269.9055,191.31 L1213.71,191.31 L1111.32,88.69 L1205.71,191.31 L1177.3,191.31 A0,0 0 0 0 1177.3,191.31" fill="#FAFAFA" style="stroke:#181818;stroke-width:0.5;"/><path d="M1269.9055,191.31 L1269.9055,201.31 L1279.9055,201.31 L1269.9055,191.31" fill="#FAFAFA" style="stroke:#181818;stroke-width:0.5;"/><text fill="#000000" font-family="sans-serif" font-size="13" lengthAdjust="spacing" textLength="81.6055" x="1183.3" y="208.3769">Git, VS Code</text><text fill="#000000" font-family="sans-serif" font-size="13" lengthAdjust="spacing" textLength="57.5352" x="1183.3" y="223.5097">npm, pip</text></g><g class="entity" data-entity="GMN27" data-source-line="24" data-uid="ent0028" id="entity_GMN27"><path d="M701.74,297.59 L701.74,352.9884 A0,0 0 0 0 701.74,352.9884 L833.4685,352.9884 A0,0 0 0 0 833.4685,352.9884 L833.4685,307.59 L823.4685,297.59 L768.23,297.59 L756.44,235.08 L760.23,297.59 L701.74,297.59 A0,0 0 0 0 701.74,297.59" fill="#FAFAFA" style="stroke:#181818;stroke-width:0.5;"/><path d="M823.4685,297.59 L823.4685,307.59 L833.4685,307.59 L823.4685,297.59" fill="#FAFAFA" style="stroke:#181818;stroke-width:0.5;"/><text fill="#000000" font-family="sans-serif" font-size="13" lengthAdjust="spacing" textLength="97.8428" x="707.74" y="314.6569">Issue reporting</text><text fill="#000000" font-family="sans-serif" font-size="13" lengthAdjust="spacing" textLength="110.7285" x="707.74" y="329.7897">Feature requests</text><text fill="#000000" font-family="sans-serif" font-size="13" lengthAdjust="spacing" textLength="100.2168" x="707.74" y="344.9225">Documentation</text></g><g class="entity" data-entity="GMN30" data-source-line="25" data-uid="ent0031" id="entity_GMN30"><path d="M522.62,297.59 L522.62,352.9884 A0,0 0 0 0 522.62,352.9884 L666.5931,352.9884 A0,0 0 0 0 666.5931,352.9884 L666.5931,307.59 L656.5931,297.59 L598.61,297.59 L594.61,235.08 L590.61,297.59 L522.62,297.59 A0,0 0 0 0 522.62,297.59" fill="#FAFAFA" style="stroke:#181818;stroke-width:0.5;"/><path d="M656.5931,297.59 L656.5931,307.59 L666.5931,307.59 L656.5931,297.59" fill="#FAFAFA" style="stroke:#181818;stroke-width:0.5;"/><text fill="#000000" font-family="sans-serif" font-size="13" lengthAdjust="spacing" textLength="122.9731" x="528.62" y="314.6569">Code contributions</text><text fill="#000000" font-family="sans-serif" font-size="13" lengthAdjust="spacing" textLength="60.1948" x="528.62" y="329.7897">Bug fixes</text><text fill="#000000" font-family="sans-serif" font-size="13" lengthAdjust="spacing" textLength="47.9121" x="528.62" y="344.9225">Testing</text></g><g class="entity" data-entity="GMN33" data-source-line="26" data-uid="ent0034" id="entity_GMN33"><path d="M323.81,297.59 L323.81,352.9884 A0,0 0 0 0 323.81,352.9884 L487.4038,352.9884 A0,0 0 0 0 487.4038,352.9884 L487.4038,307.59 L477.4038,297.59 L416.59,297.59 L428.74,235.08 L408.59,297.59 L323.81,297.59 A0,0 0 0 0 323.81,297.59" fill="#FAFAFA" style="stroke:#181818;stroke-width:0.5;"/><path d="M477.4038,297.59 L477.4038,307.59 L487.4038,307.59 L477.4038,297.59" fill="#FAFAFA" style="stroke:#181818;stroke-width:0.5;"/><text fill="#000000" font-family="sans-serif" font-size="13" lengthAdjust="spacing" textLength="80.6914" x="329.81" y="314.6569">Code review</text><text fill="#000000" font-family="sans-serif" font-size="13" lengthAdjust="spacing" textLength="142.5938" x="329.81" y="329.7897">Release management</text><text fill="#000000" font-family="sans-serif" font-size="13" lengthAdjust="spacing" textLength="106.3804" x="329.81" y="344.9225">Project direction</text></g><!--link servers to GMN12--><g class="link" data-entity-1="servers" data-entity-2="GMN12" data-source-line="18" data-uid="lnk14" id="link_servers_GMN12"><path d="M557.81,88.79 C543.64,97.19 526.8,106.15 510.61,112.29 C445.56,136.96 420.4,115.36 357.61,145.29 C333.82,156.63 310.82,176.23 295.45,190.98" fill="none" id="servers-GMN12" style="stroke:#181818;stroke-width:1;stroke-dasharray:7.0,7.0;"/></g><!--link languages to GMN15--><g class="link" data-entity-1="languages" data-entity-2="GMN15" data-source-line="19" data-uid="lnk17" id="link_languages_GMN15"><path d="M322.87,88.78 C285.37,103.2 237.26,123.26 196.61,145.29 C170.57,159.4 142.14,177.4 121.6,190.9" fill="none" id="languages-GMN15" style="stroke:#181818;stroke-width:1;stroke-dasharray:7.0,7.0;"/></g><!--link frameworks to GMN18--><g class="link" data-entity-1="frameworks" data-entity-2="GMN18" data-source-line="20" data-uid="lnk20" id="link_frameworks_GMN18"><path d="M793.11,88.71 C806.23,96.3 821.01,104.75 834.61,112.29 C841.21,115.96 844.13,115.09 849.61,120.29 C871.02,140.67 886.95,171.36 895.77,191.15" fill="none" id="frameworks-GMN18" style="stroke:#181818;stroke-width:1;stroke-dasharray:7.0,7.0;"/></g><!--link servers to contributors--><g class="link" data-entity-1="servers" data-entity-2="contributors" data-source-line="28" data-uid="lnk36" id="link_servers_contributors"><path d="M592.92,88.69 C593.29,115.8 593.8379,155.0206 594.2079,182.0606" fill="none" id="servers-to-contributors" style="stroke:#181818;stroke-width:1;"/><polygon fill="#181818" points="594.29,188.06,598.1665,179.0061,594.2216,183.0605,590.1672,179.1156,594.29,188.06" style="stroke:#181818;stroke-width:1;"/><text fill="#000000" font-family="sans-serif" font-size="13" lengthAdjust="spacing" textLength="51.3398" x="593.61" y="133.3569">used by</text></g><!--link frameworks to community--><g class="link" data-entity-1="frameworks" data-entity-2="community" data-source-line="29" data-uid="lnk37" id="link_frameworks_community"><path d="M754.45,88.69 C754.26,115.8 753.9922,155.0201 753.8022,182.0601" fill="none" id="frameworks-to-community" style="stroke:#181818;stroke-width:1;"/><polygon fill="#181818" points="753.76,188.06,757.8231,179.0883,753.7951,183.0601,749.8233,179.0321,753.76,188.06" style="stroke:#181818;stroke-width:1;"/><text fill="#000000" font-family="sans-serif" font-size="13" lengthAdjust="spacing" textLength="86.2393" x="754.61" y="133.3569">supported by</text></g><!--link maintainers to servers--><g class="link" data-entity-1="maintainers" data-entity-2="servers" data-source-line="30" data-uid="lnk38" id="link_maintainers_servers"><path d="M456.07,187.95 C474.14,169.31 500.92,142.4 525.61,120.29 C537.64,109.52 546.7429,101.9333 558.6829,92.4433" fill="none" id="maintainers-to-servers" style="stroke:#181818;stroke-width:1;"/><polygon fill="#181818" points="563.38,88.71,553.8455,91.1785,559.4658,91.8211,558.8232,97.4413,563.38,88.71" style="stroke:#181818;stroke-width:1;"/><text fill="#000000" font-family="sans-serif" font-size="13" lengthAdjust="spacing" textLength="57.3955" x="526.61" y="133.3569">maintain</text></g><!--SRC=[PLDDSzf03BtxLsWuE_q1FNGc2ILj9oGqPDgBB-krC0jUoTqFYAVJ_rvj76Cm1uRLxdjFqfFizuPQvPG5oyHwwzWY11SnywSNlrKL7mtLi56Dnonpg8EYka6OFRT8iEReDC9lBE6hPj_vW7O6VpC0pRPbGWemIwzhT0TqVWRAW-_Fbw2LurfIsfJiKL94LMCFRuReah0GD1xPxNlKvXHUmkOgg5Bv3wrgY2OWF633hKt1AtFJWqCwPVykkZv7IiaQlR_gzvwjZMH2zwwYXsWAek1C6GD_kABFBYwXIsKeo6_mpuvngeuu89GS0blWpU0kV8RRLkajvl1K6tehw8ah_BJpu285Ot7AEzaip5KNjamvhBwjSlYX3cgjdMb3GI-nx79uu2bvT5_Oyvr8SGwBHlczS53faCElcB9FYQU1fApiG-rm_VCnXsKdVmKjMPJcTpcyO6MkoEy34kA3IVfhk9SE2wBMvj2QzigPqoI4yjtxYE2mPHTavGfQe0hHfQi_4Ntm1SrPnpHd5GpJjTOuBP5BcSSxmGl_BifdOzvGZg-YA5cc8cU373GS7WmUasaDYYq28Pb9AgCWsRUTR29K9YraAYeRXdrpysLQKlHOGTbbPwFfKQC9FhQf_nvtNam2ZdiqlFm7]--></g></svg>