<svg xmlns="http://www.w3.org/2000/svg" xmlns:xlink="http://www.w3.org/1999/xlink" contentStyleType="text/css" data-diagram-type="DESCRIPTION" height="610px" preserveAspectRatio="none" style="width:982px;height:610px;background:#FFFFFF;" version="1.1" viewBox="0 0 982 610" width="982px" zoomAndPan="magnify"><defs/><g><!--cluster CMS Architecture--><g class="cluster" data-entity="CMS Architecture" data-source-line="4" data-uid="ent0002" id="cluster_CMS Architecture"><rect fill="none" height="491.94" rx="2.5" ry="2.5" style="stroke:#181818;stroke-width:1;" width="198" x="7" y="7"/><text fill="#000000" font-family="sans-serif" font-size="14" font-weight="bold" lengthAdjust="spacing" textLength="137.5117" x="37.2441" y="21.9951">CMS Architecture</text></g><!--cluster CMS Types--><g class="cluster" data-entity="CMS Types" data-source-line="11" data-uid="ent0007" id="cluster_CMS Types"><rect fill="none" height="97.3" rx="2.5" ry="2.5" style="stroke:#181818;stroke-width:1;" width="586" x="390" y="7"/><text fill="#000000" font-family="sans-serif" font-size="14" font-weight="bold" lengthAdjust="spacing" textLength="85.6885" x="640.1558" y="21.9951">CMS Types</text></g><!--entity admin--><g class="entity" data-entity="admin" data-source-line="5" data-uid="ent0003" id="entity_admin"><rect fill="#F1F1F1" height="46.2969" rx="2.5" ry="2.5" style="stroke:#181818;stroke-width:0.5;" width="151.9932" x="30" y="42"/><rect fill="#F1F1F1" height="10" style="stroke:#181818;stroke-width:0.5;" width="15" x="161.9932" y="47"/><rect fill="#F1F1F1" height="2" style="stroke:#181818;stroke-width:0.5;" width="4" x="159.9932" y="49"/><rect fill="#F1F1F1" height="2" style="stroke:#181818;stroke-width:0.5;" width="4" x="159.9932" y="53"/><text fill="#000000" font-family="sans-serif" font-size="14" lengthAdjust="spacing" textLength="111.9932" x="45" y="74.9951">Admin Interface</text></g><!--entity db--><g class="entity" data-entity="db" data-source-line="6" data-uid="ent0004" id="entity_db"><rect fill="#F1F1F1" height="46.2969" rx="2.5" ry="2.5" style="stroke:#181818;stroke-width:0.5;" width="166.9297" x="22.54" y="171.85"/><rect fill="#F1F1F1" height="10" style="stroke:#181818;stroke-width:0.5;" width="15" x="169.4697" y="176.85"/><rect fill="#F1F1F1" height="2" style="stroke:#181818;stroke-width:0.5;" width="4" x="167.4697" y="178.85"/><rect fill="#F1F1F1" height="2" style="stroke:#181818;stroke-width:0.5;" width="4" x="167.4697" y="182.85"/><text fill="#000000" font-family="sans-serif" font-size="14" lengthAdjust="spacing" textLength="126.9297" x="37.54" y="204.8451">Content Database</text></g><!--entity templates--><g class="entity" data-entity="templates" data-source-line="7" data-uid="ent0005" id="entity_templates"><rect fill="#F1F1F1" height="46.2969" rx="2.5" ry="2.5" style="stroke:#181818;stroke-width:0.5;" width="158.6924" x="22.65" y="304.25"/><rect fill="#F1F1F1" height="10" style="stroke:#181818;stroke-width:0.5;" width="15" x="161.3424" y="309.25"/><rect fill="#F1F1F1" height="2" style="stroke:#181818;stroke-width:0.5;" width="4" x="159.3424" y="311.25"/><rect fill="#F1F1F1" height="2" style="stroke:#181818;stroke-width:0.5;" width="4" x="159.3424" y="315.25"/><text fill="#000000" font-family="sans-serif" font-size="14" lengthAdjust="spacing" textLength="118.6924" x="37.65" y="337.2451">Template Engine</text></g><!--entity public--><g class="entity" data-entity="public" data-source-line="8" data-uid="ent0006" id="entity_public"><rect fill="#F1F1F1" height="46.2969" rx="2.5" ry="2.5" style="stroke:#181818;stroke-width:0.5;" width="142.7578" x="22.62" y="436.64"/><rect fill="#F1F1F1" height="10" style="stroke:#181818;stroke-width:0.5;" width="15" x="145.3778" y="441.64"/><rect fill="#F1F1F1" height="2" style="stroke:#181818;stroke-width:0.5;" width="4" x="143.3778" y="443.64"/><rect fill="#F1F1F1" height="2" style="stroke:#181818;stroke-width:0.5;" width="4" x="143.3778" y="447.64"/><text fill="#000000" font-family="sans-serif" font-size="14" lengthAdjust="spacing" textLength="102.7578" x="37.62" y="469.6351">Public Website</text></g><!--entity traditional--><g class="entity" data-entity="traditional" data-source-line="12" data-uid="ent0008" id="entity_traditional"><rect fill="#F1F1F1" height="46.2969" rx="2.5" ry="2.5" style="stroke:#181818;stroke-width:0.5;" width="150.1406" x="405.93" y="42"/><rect fill="#F1F1F1" height="10" style="stroke:#181818;stroke-width:0.5;" width="15" x="536.0706" y="47"/><rect fill="#F1F1F1" height="2" style="stroke:#181818;stroke-width:0.5;" width="4" x="534.0706" y="49"/><rect fill="#F1F1F1" height="2" style="stroke:#181818;stroke-width:0.5;" width="4" x="534.0706" y="53"/><text fill="#000000" font-family="sans-serif" font-size="14" lengthAdjust="spacing" textLength="110.1406" x="420.93" y="74.9951">Traditional CMS</text></g><!--entity headless--><g class="entity" data-entity="headless" data-source-line="13" data-uid="ent0009" id="entity_headless"><rect fill="#F1F1F1" height="46.2969" rx="2.5" ry="2.5" style="stroke:#181818;stroke-width:0.5;" width="138.8887" x="591.56" y="42"/><rect fill="#F1F1F1" height="10" style="stroke:#181818;stroke-width:0.5;" width="15" x="710.4487" y="47"/><rect fill="#F1F1F1" height="2" style="stroke:#181818;stroke-width:0.5;" width="4" x="708.4487" y="49"/><rect fill="#F1F1F1" height="2" style="stroke:#181818;stroke-width:0.5;" width="4" x="708.4487" y="53"/><text fill="#000000" font-family="sans-serif" font-size="14" lengthAdjust="spacing" textLength="98.8887" x="606.56" y="74.9951">Headless CMS</text></g><!--entity static--><g class="entity" data-entity="static" data-source-line="14" data-uid="ent0010" id="entity_static"><rect fill="#F1F1F1" height="46.2969" rx="2.5" ry="2.5" style="stroke:#181818;stroke-width:0.5;" width="194.1982" x="765.9" y="42"/><rect fill="#F1F1F1" height="10" style="stroke:#181818;stroke-width:0.5;" width="15" x="940.0982" y="47"/><rect fill="#F1F1F1" height="2" style="stroke:#181818;stroke-width:0.5;" width="4" x="938.0982" y="49"/><rect fill="#F1F1F1" height="2" style="stroke:#181818;stroke-width:0.5;" width="4" x="938.0982" y="53"/><text fill="#000000" font-family="sans-serif" font-size="14" lengthAdjust="spacing" textLength="154.1982" x="780.9" y="74.9951">Static Site Generators</text></g><g class="entity" data-entity="GMN11" data-source-line="17" data-uid="ent0012" id="entity_GMN11"><path d="M224.42,167.3 L224.42,222.6984 L375.5787,222.6984 L375.5787,177.3 L365.5787,167.3 L224.42,167.3" fill="#FAFAFA" style="stroke:#181818;stroke-width:0.5;"/><path d="M365.5787,167.3 L365.5787,177.3 L375.5787,177.3 L365.5787,167.3" fill="#FAFAFA" style="stroke:#181818;stroke-width:1;"/><text fill="#000000" font-family="sans-serif" font-size="13" lengthAdjust="spacing" textLength="109.1924" x="230.42" y="184.3669">Content creation</text><text fill="#000000" font-family="sans-serif" font-size="13" lengthAdjust="spacing" textLength="120.8467" x="230.42" y="199.4997">User management</text><text fill="#000000" font-family="sans-serif" font-size="13" lengthAdjust="spacing" textLength="130.1587" x="230.42" y="214.6325">Plugin configuration</text></g><g class="entity" data-entity="GMN14" data-source-line="18" data-uid="ent0015" id="entity_GMN14"><path d="M220.51,299.69 L220.51,355.0884 L337.4929,355.0884 L337.4929,309.69 L327.4929,299.69 L220.51,299.69" fill="#FAFAFA" style="stroke:#181818;stroke-width:0.5;"/><path d="M327.4929,299.69 L327.4929,309.69 L337.4929,309.69 L327.4929,299.69" fill="#FAFAFA" style="stroke:#181818;stroke-width:1;"/><text fill="#000000" font-family="sans-serif" font-size="13" lengthAdjust="spacing" textLength="95.9829" x="226.51" y="316.7569">Articles, pages</text><text fill="#000000" font-family="sans-serif" font-size="13" lengthAdjust="spacing" textLength="69.748" x="226.51" y="331.8897">Media files</text><text fill="#000000" font-family="sans-serif" font-size="13" lengthAdjust="spacing" textLength="63.0449" x="226.51" y="347.0225">User data</text></g><g class="entity" data-entity="GMN17" data-source-line="19" data-uid="ent0018" id="entity_GMN17"><path d="M220.71,432.09 L220.71,487.4884 L363.293,487.4884 L363.293,442.09 L353.293,432.09 L220.71,432.09" fill="#FAFAFA" style="stroke:#181818;stroke-width:0.5;"/><path d="M353.293,432.09 L353.293,442.09 L363.293,442.09 L353.293,432.09" fill="#FAFAFA" style="stroke:#181818;stroke-width:1;"/><text fill="#000000" font-family="sans-serif" font-size="13" lengthAdjust="spacing" textLength="95.9702" x="226.71" y="449.1569">Theme system</text><text fill="#000000" font-family="sans-serif" font-size="13" lengthAdjust="spacing" textLength="93.6724" x="226.71" y="464.2897">Layout control</text><text fill="#000000" font-family="sans-serif" font-size="13" lengthAdjust="spacing" textLength="121.583" x="226.71" y="479.4225">Responsive design</text></g><g class="entity" data-entity="GMN20" data-source-line="20" data-uid="ent0021" id="entity_GMN20"><path d="M14.6,548.49 L14.6,603.8884 A0,0 0 0 0 14.6,603.8884 L173.4076,603.8884 A0,0 0 0 0 173.4076,603.8884 L173.4076,558.49 L163.4076,548.49 L98,548.49 L94,483.39 L90,548.49 L14.6,548.49 A0,0 0 0 0 14.6,548.49" fill="#FAFAFA" style="stroke:#181818;stroke-width:0.5;"/><path d="M163.4076,548.49 L163.4076,558.49 L173.4076,558.49 L163.4076,548.49" fill="#FAFAFA" style="stroke:#181818;stroke-width:0.5;"/><text fill="#000000" font-family="sans-serif" font-size="13" lengthAdjust="spacing" textLength="117.6094" x="20.6" y="565.5569">Rendered website</text><text fill="#000000" font-family="sans-serif" font-size="13" lengthAdjust="spacing" textLength="111.7124" x="20.6" y="580.6897">SEO optimization</text><text fill="#000000" font-family="sans-serif" font-size="13" lengthAdjust="spacing" textLength="137.8076" x="20.6" y="595.8225">Performance caching</text></g><g class="entity" data-entity="GMN23" data-source-line="22" data-uid="ent0024" id="entity_GMN23"><path d="M410.09,174.86 L410.09,215.1256 A0,0 0 0 0 410.09,215.1256 L551.9113,215.1256 A0,0 0 0 0 551.9113,215.1256 L551.9113,184.86 L541.9113,174.86 L485,174.86 L481,88.71 L477,174.86 L410.09,174.86 A0,0 0 0 0 410.09,174.86" fill="#FAFAFA" style="stroke:#181818;stroke-width:0.5;"/><path d="M541.9113,174.86 L541.9113,184.86 L551.9113,184.86 L541.9113,174.86" fill="#FAFAFA" style="stroke:#181818;stroke-width:0.5;"/><text fill="#000000" font-family="sans-serif" font-size="13" lengthAdjust="spacing" textLength="120.8213" x="416.09" y="191.9269">WordPress, Drupal</text><text fill="#000000" font-family="sans-serif" font-size="13" lengthAdjust="spacing" textLength="117.1523" x="416.09" y="207.0597">All-in-one solution</text></g><g class="entity" data-entity="GMN26" data-source-line="23" data-uid="ent0027" id="entity_GMN26"><path d="M590.35,174.86 L590.35,215.1256 A0,0 0 0 0 590.35,215.1256 L731.6508,215.1256 A0,0 0 0 0 731.6508,215.1256 L731.6508,184.86 L721.6508,174.86 L665,174.86 L661,88.71 L657,174.86 L590.35,174.86 A0,0 0 0 0 590.35,174.86" fill="#FAFAFA" style="stroke:#181818;stroke-width:0.5;"/><path d="M721.6508,174.86 L721.6508,184.86 L731.6508,184.86 L721.6508,174.86" fill="#FAFAFA" style="stroke:#181818;stroke-width:0.5;"/><text fill="#000000" font-family="sans-serif" font-size="13" lengthAdjust="spacing" textLength="114.918" x="596.35" y="191.9269">Strapi, Contentful</text><text fill="#000000" font-family="sans-serif" font-size="13" lengthAdjust="spacing" textLength="120.3008" x="596.35" y="207.0597">API-driven content</text></g><g class="entity" data-entity="GMN29" data-source-line="24" data-uid="ent0030" id="entity_GMN29"><path d="M803.47,174.86 L803.47,215.1256 A0,0 0 0 0 803.47,215.1256 L922.5286,215.1256 A0,0 0 0 0 922.5286,215.1256 L922.5286,184.86 L912.5286,174.86 L867,174.86 L863,88.71 L859,174.86 L803.47,174.86 A0,0 0 0 0 803.47,174.86" fill="#FAFAFA" style="stroke:#181818;stroke-width:0.5;"/><path d="M912.5286,174.86 L912.5286,184.86 L922.5286,184.86 L912.5286,174.86" fill="#FAFAFA" style="stroke:#181818;stroke-width:0.5;"/><text fill="#000000" font-family="sans-serif" font-size="13" lengthAdjust="spacing" textLength="76.7622" x="809.47" y="191.9269">Jekyll, Hugo</text><text fill="#000000" font-family="sans-serif" font-size="13" lengthAdjust="spacing" textLength="98.0586" x="809.47" y="207.0597">Pre-built pages</text></g><!--link admin to GMN11--><g class="link" data-entity-1="admin" data-entity-2="GMN11" data-source-line="17" data-uid="lnk13" id="link_admin_GMN11"><path d="M153.77,88.79 C171.55,97.85 191.62,108.85 209,120.3 C230.22,134.27 252.42,152.17 269.57,166.83" fill="none" id="admin-GMN11" style="stroke:#181818;stroke-width:1;stroke-dasharray:7.0,7.0;"/></g><!--link db to GMN14--><g class="link" data-entity-1="db" data-entity-2="GMN14" data-source-line="18" data-uid="lnk16" id="link_db_GMN14"><path d="M150.43,218.58 C167.77,228.19 187.42,240.08 204,252.69 C222.3,266.63 240.76,284.7 254.78,299.46" fill="none" id="db-GMN14" style="stroke:#181818;stroke-width:1;stroke-dasharray:7.0,7.0;"/></g><!--link templates to GMN17--><g class="link" data-entity-1="templates" data-entity-2="GMN17" data-source-line="19" data-uid="lnk19" id="link_templates_GMN17"><path d="M157.51,351 C177.4,360.25 199.47,371.89 218,385.09 C236.75,398.45 255.11,416.7 268.85,431.69" fill="none" id="templates-GMN17" style="stroke:#181818;stroke-width:1;stroke-dasharray:7.0,7.0;"/></g><!--link admin to db--><g class="link" data-entity-1="admin" data-entity-2="db" data-source-line="26" data-uid="lnk32" id="link_admin_db"><path d="M106,88.71 C106,112.08 106,142.37 106,165.66" fill="none" id="admin-to-db" style="stroke:#181818;stroke-width:1;"/><polygon fill="#181818" points="106,171.66,110,162.66,106,166.66,102,162.66,106,171.66" style="stroke:#181818;stroke-width:1;"/><text fill="#000000" font-family="sans-serif" font-size="13" lengthAdjust="spacing" textLength="93.8438" x="107" y="133.3669">stores content</text></g><!--link db to templates--><g class="link" data-entity-1="db" data-entity-2="templates" data-source-line="27" data-uid="lnk33" id="link_db_templates"><path d="M105.31,218.41 C104.58,242.3 103.6154,273.8929 102.8754,297.8329" fill="none" id="db-to-templates" style="stroke:#181818;stroke-width:1;"/><polygon fill="#181818" points="102.69,303.83,106.9662,294.9579,102.8445,298.8324,98.97,294.7107,102.69,303.83" style="stroke:#181818;stroke-width:1;"/><text fill="#000000" font-family="sans-serif" font-size="13" lengthAdjust="spacing" textLength="89.2925" x="106" y="265.7569">provides data</text></g><!--link templates to public--><g class="link" data-entity-1="templates" data-entity-2="public" data-source-line="28" data-uid="lnk34" id="link_templates_public"><path d="M100.62,350.81 C99.16,374.69 97.2177,406.3013 95.7477,430.2413" fill="none" id="templates-to-public" style="stroke:#181818;stroke-width:1;"/><polygon fill="#181818" points="95.38,436.23,99.9241,427.4921,95.6864,431.2394,91.9391,427.0018,95.38,436.23" style="stroke:#181818;stroke-width:1;"/><text fill="#000000" font-family="sans-serif" font-size="13" lengthAdjust="spacing" textLength="109.04" x="100" y="398.1569">generates pages</text></g><!--SRC=[RL91Rjj03Bph5OJFrWTwA60aGPCYGOtOHIwwK5fANcJ55SXL0hVetqjfRIUGuvCy70x9cTLNpmCAzj17Zir1Oa-GPAH2BnKze8lldZjeCIWLXL2JaBj0iBfvsi56ceDFXer2A_XRWFsQs0-HYHEiDgxt30-SI5fiZ84AE65BuaqqZdtSOi8QDJDTlQJjgHy29e8xxZndLZfXkYHlnphu1bweLbjnvWupLFoxkcD_74Y_E60lw7poaJ60yVB03sn9loTqWLGltCC9M19t2PFjjhF5u0Sn2QOeEhVeN9fsv6ZLEgOKUuXjDWw-mTchHWYdDIh-hIJG8sD7lLKgteRH_B61tFfkb9csb7ErQMt4Pjc2QnYiMIj-8kSHMX-cFxEkiqYMlHVFJM9_iA6WHpMmuaSynZ5DavF4KF4pgTsi_et0aVhkQeqSYUay4piISl2U0wjuT_SBuf1yx_-S3jtQEufYbpO43ThJu-xAfa_ncEfB5BSLIs0Djp8EQ2jjGYWzbvO4Q0pZLzwSOpE1dUaDVdrslHqdXUr3wSHkcYsUuAL03j7QVzBhCOGrt8zTjFs5odhq8MMxYo9dMfRVSnnghy1CFOiQDfK-kpr8VFFcP8xbepBnBbPs-KKPF8_v3m00]--></g></svg>