<svg xmlns="http://www.w3.org/2000/svg" xmlns:xlink="http://www.w3.org/1999/xlink" contentStyleType="text/css" data-diagram-type="ACTIVITY" height="517px" preserveAspectRatio="none" style="width:1269px;height:517px;background:#FFFFFF;" version="1.1" viewBox="0 0 1269 517" width="1269px" zoomAndPan="magnify"><defs/><g><ellipse cx="614.7012" cy="20" fill="#222222" rx="10" ry="10" style="stroke:#222222;stroke-width:1;"/><rect fill="#F1F1F1" height="33.9688" rx="12.5" ry="12.5" style="stroke:#181818;stroke-width:0.5;" width="114.0488" x="557.6768" y="50"/><text fill="#000000" font-family="sans-serif" font-size="12" lengthAdjust="spacing" textLength="94.0488" x="567.6768" y="71.1387">Get user choice</text><polygon fill="#F1F1F1" points="133.1843,103.9688,232.0769,103.9688,244.0769,115.9688,232.0769,127.9688,133.1843,127.9688,121.1843,115.9688,133.1843,103.9688" style="stroke:#181818;stroke-width:0.5;"/><text fill="#000000" font-family="sans-serif" font-size="11" lengthAdjust="spacing" textLength="19.0083" x="186.6306" y="138.1792">yes</text><text fill="#000000" font-family="sans-serif" font-size="11" lengthAdjust="spacing" textLength="98.8926" x="133.1843" y="119.7769">choice = "enroll"?</text><rect fill="#F1F1F1" height="33.9688" rx="12.5" ry="12.5" style="stroke:#181818;stroke-width:0.5;" width="187.7129" x="88.7742" y="159.6792"/><text fill="#000000" font-family="sans-serif" font-size="12" lengthAdjust="spacing" textLength="167.7129" x="98.7742" y="180.8179">Get student and course info</text><polygon fill="#F1F1F1" points="103.4365,213.6479,261.8247,213.6479,273.8247,225.6479,261.8247,237.6479,103.4365,237.6479,91.4365,225.6479,103.4365,213.6479" style="stroke:#181818;stroke-width:0.5;"/><text fill="#000000" font-family="sans-serif" font-size="11" lengthAdjust="spacing" textLength="158.3882" x="103.4365" y="229.4561">CheckEnrollmentEligibility()?</text><text fill="#000000" font-family="sans-serif" font-size="11" lengthAdjust="spacing" textLength="19.0083" x="72.4282" y="223.0537">yes</text><text fill="#000000" font-family="sans-serif" font-size="11" lengthAdjust="spacing" textLength="13.7017" x="273.8247" y="223.0537">no</text><rect fill="#F1F1F1" height="33.9688" rx="12.5" ry="12.5" style="stroke:#181818;stroke-width:0.5;" width="140.873" x="11" y="247.6479"/><text fill="#000000" font-family="sans-serif" font-size="12" lengthAdjust="spacing" textLength="120.873" x="21" y="268.7866">ProcessEnrollment()</text><rect fill="#F1F1F1" height="33.9688" rx="12.5" ry="12.5" style="stroke:#181818;stroke-width:0.5;" width="114.9863" x="23.9434" y="316.6167"/><text fill="#000000" font-family="sans-serif" font-size="12" lengthAdjust="spacing" textLength="94.9863" x="33.9434" y="337.7554">Display success</text><rect fill="#F1F1F1" height="33.9688" rx="12.5" ry="12.5" style="stroke:#181818;stroke-width:0.5;" width="192.9922" x="187.3286" y="247.6479"/><text fill="#000000" font-family="sans-serif" font-size="12" lengthAdjust="spacing" textLength="172.9922" x="197.3286" y="268.7866">GetEnrollmentBlockReason()</text><rect fill="#F1F1F1" height="33.9688" rx="12.5" ry="12.5" style="stroke:#181818;stroke-width:0.5;" width="97.5723" x="235.0386" y="316.6167"/><text fill="#000000" font-family="sans-serif" font-size="12" lengthAdjust="spacing" textLength="77.5723" x="245.0386" y="337.7554">Display error</text><polygon fill="#F1F1F1" points="182.6306,356.5854,194.6306,368.5854,182.6306,380.5854,170.6306,368.5854,182.6306,356.5854" style="stroke:#181818;stroke-width:0.5;"/><polygon fill="#F1F1F1" points="651.9702,103.9688,770.3384,103.9688,782.3384,115.9688,770.3384,127.9688,651.9702,127.9688,639.9702,115.9688,651.9702,103.9688" style="stroke:#181818;stroke-width:0.5;"/><text fill="#000000" font-family="sans-serif" font-size="11" lengthAdjust="spacing" textLength="19.0083" x="715.1543" y="138.1792">yes</text><text fill="#000000" font-family="sans-serif" font-size="11" lengthAdjust="spacing" textLength="118.3682" x="651.9702" y="119.7769">choice = "withdraw"?</text><rect fill="#F1F1F1" height="33.9688" rx="12.5" ry="12.5" style="stroke:#181818;stroke-width:0.5;" width="187.7129" x="617.2979" y="159.6792"/><text fill="#000000" font-family="sans-serif" font-size="12" lengthAdjust="spacing" textLength="167.7129" x="627.2979" y="180.8179">Get student and course info</text><polygon fill="#F1F1F1" points="636.1228,213.6479,786.1858,213.6479,798.1858,225.6479,786.1858,237.6479,636.1228,237.6479,624.1228,225.6479,636.1228,213.6479" style="stroke:#181818;stroke-width:0.5;"/><text fill="#000000" font-family="sans-serif" font-size="11" lengthAdjust="spacing" textLength="150.063" x="636.1228" y="229.4561">CheckCurrentEnrollment()?</text><text fill="#000000" font-family="sans-serif" font-size="11" lengthAdjust="spacing" textLength="19.0083" x="605.1145" y="223.0537">yes</text><text fill="#000000" font-family="sans-serif" font-size="11" lengthAdjust="spacing" textLength="13.7017" x="798.1858" y="223.0537">no</text><polygon fill="#F1F1F1" points="483.9585,247.6479,643.2866,247.6479,655.2866,259.6479,643.2866,271.6479,483.9585,271.6479,471.9585,259.6479,483.9585,247.6479" style="stroke:#181818;stroke-width:0.5;"/><text fill="#000000" font-family="sans-serif" font-size="11" lengthAdjust="spacing" textLength="159.3281" x="483.9585" y="263.4561">CheckWithdrawalDeadline()?</text><text fill="#000000" font-family="sans-serif" font-size="11" lengthAdjust="spacing" textLength="19.0083" x="452.9502" y="257.0537">yes</text><text fill="#000000" font-family="sans-serif" font-size="11" lengthAdjust="spacing" textLength="13.7017" x="655.2866" y="257.0537">no</text><rect fill="#F1F1F1" height="33.9688" rx="12.5" ry="12.5" style="stroke:#181818;stroke-width:0.5;" width="143.2754" x="390.3208" y="281.6479"/><text fill="#000000" font-family="sans-serif" font-size="12" lengthAdjust="spacing" textLength="123.2754" x="400.3208" y="302.7866">ProcessWithdrawal()</text><rect fill="#F1F1F1" height="33.9688" rx="12.5" ry="12.5" style="stroke:#181818;stroke-width:0.5;" width="114.9863" x="404.4653" y="350.6167"/><text fill="#000000" font-family="sans-serif" font-size="12" lengthAdjust="spacing" textLength="94.9863" x="414.4653" y="371.7554">Display success</text><rect fill="#F1F1F1" height="33.9688" rx="12.5" ry="12.5" style="stroke:#181818;stroke-width:0.5;" width="153.0137" x="588.7798" y="281.6479"/><text fill="#000000" font-family="sans-serif" font-size="12" lengthAdjust="spacing" textLength="133.0137" x="598.7798" y="302.7866">Display deadline error</text><polygon fill="#F1F1F1" points="563.6226,390.5854,575.6226,402.5854,563.6226,414.5854,551.6226,402.5854,563.6226,390.5854" style="stroke:#181818;stroke-width:0.5;"/><rect fill="#F1F1F1" height="33.9688" rx="12.5" ry="12.5" style="stroke:#181818;stroke-width:0.5;" width="173.7852" x="771.7935" y="247.6479"/><text fill="#000000" font-family="sans-serif" font-size="12" lengthAdjust="spacing" textLength="153.7852" x="781.7935" y="268.7866">Display not enrolled error</text><polygon fill="#F1F1F1" points="711.1543,420.5854,723.1543,432.5854,711.1543,444.5854,699.1543,432.5854,711.1543,420.5854" style="stroke:#181818;stroke-width:0.5;"/><polygon fill="#F1F1F1" points="977.5786,103.9688,1136.4824,103.9688,1148.4824,115.9688,1136.4824,127.9688,977.5786,127.9688,965.5786,115.9688,977.5786,103.9688" style="stroke:#181818;stroke-width:0.5;"/><text fill="#000000" font-family="sans-serif" font-size="11" lengthAdjust="spacing" textLength="19.0083" x="1061.0305" y="138.1792">yes</text><text fill="#000000" font-family="sans-serif" font-size="11" lengthAdjust="spacing" textLength="158.9038" x="977.5786" y="119.7769">choice = "viewEnrollments"?</text><text fill="#000000" font-family="sans-serif" font-size="11" lengthAdjust="spacing" textLength="82.5967" x="1148.4824" y="113.3745">choice = "exit"</text><rect fill="#F1F1F1" height="33.9688" rx="12.5" ry="12.5" style="stroke:#181818;stroke-width:0.5;" width="117.3945" x="998.3333" y="159.6792"/><text fill="#000000" font-family="sans-serif" font-size="12" lengthAdjust="spacing" textLength="97.3945" x="1008.3333" y="180.8179">Get student info</text><rect fill="#F1F1F1" height="33.9688" rx="12.5" ry="12.5" style="stroke:#181818;stroke-width:0.5;" width="169.7539" x="972.1536" y="213.6479"/><text fill="#000000" font-family="sans-serif" font-size="12" lengthAdjust="spacing" textLength="149.7539" x="982.1536" y="234.7866">GetStudentEnrollments()</text><rect fill="#F1F1F1" height="33.9688" rx="12.5" ry="12.5" style="stroke:#181818;stroke-width:0.5;" width="160.0859" x="976.9875" y="282.6167"/><text fill="#000000" font-family="sans-serif" font-size="12" lengthAdjust="spacing" textLength="140.0859" x="986.9875" y="303.7554">DisplayEnrollmentList()</text><rect fill="#F1F1F1" height="33.9688" rx="12.5" ry="12.5" style="stroke:#181818;stroke-width:0.5;" width="89.9199" x="1168.4824" y="274.2456"/><text fill="#000000" font-family="sans-serif" font-size="12" lengthAdjust="spacing" textLength="69.9199" x="1178.4824" y="295.3843">Exit system</text><ellipse cx="614.7012" cy="495.5854" fill="none" rx="11" ry="11" style="stroke:#222222;stroke-width:1;"/><ellipse cx="614.7012" cy="495.5854" fill="#222222" rx="6" ry="6" style="stroke:#222222;stroke-width:1;"/><line style="stroke:#181818;stroke-width:1;" x1="614.7012" x2="614.7012" y1="30" y2="50"/><polygon fill="#181818" points="610.7012,40,614.7012,50,618.7012,40,614.7012,44" style="stroke:#181818;stroke-width:1;"/><line style="stroke:#181818;stroke-width:1;" x1="81.4365" x2="81.4365" y1="281.6167" y2="316.6167"/><polygon fill="#181818" points="77.4365,306.6167,81.4365,316.6167,85.4365,306.6167,81.4365,310.6167" style="stroke:#181818;stroke-width:1;"/><line style="stroke:#181818;stroke-width:1;" x1="283.8247" x2="283.8247" y1="281.6167" y2="316.6167"/><polygon fill="#181818" points="279.8247,306.6167,283.8247,316.6167,287.8247,306.6167,283.8247,310.6167" style="stroke:#181818;stroke-width:1;"/><line style="stroke:#181818;stroke-width:1;" x1="91.4365" x2="81.4365" y1="225.6479" y2="225.6479"/><line style="stroke:#181818;stroke-width:1;" x1="81.4365" x2="81.4365" y1="225.6479" y2="247.6479"/><polygon fill="#181818" points="77.4365,237.6479,81.4365,247.6479,85.4365,237.6479,81.4365,241.6479" style="stroke:#181818;stroke-width:1;"/><line style="stroke:#181818;stroke-width:1;" x1="273.8247" x2="283.8247" y1="225.6479" y2="225.6479"/><line style="stroke:#181818;stroke-width:1;" x1="283.8247" x2="283.8247" y1="225.6479" y2="247.6479"/><polygon fill="#181818" points="279.8247,237.6479,283.8247,247.6479,287.8247,237.6479,283.8247,241.6479" style="stroke:#181818;stroke-width:1;"/><line style="stroke:#181818;stroke-width:1;" x1="81.4365" x2="81.4365" y1="350.5854" y2="368.5854"/><line style="stroke:#181818;stroke-width:1;" x1="81.4365" x2="170.6306" y1="368.5854" y2="368.5854"/><polygon fill="#181818" points="160.6306,364.5854,170.6306,368.5854,160.6306,372.5854,164.6306,368.5854" style="stroke:#181818;stroke-width:1;"/><line style="stroke:#181818;stroke-width:1;" x1="283.8247" x2="283.8247" y1="350.5854" y2="368.5854"/><line style="stroke:#181818;stroke-width:1;" x1="283.8247" x2="194.6306" y1="368.5854" y2="368.5854"/><polygon fill="#181818" points="204.6306,364.5854,194.6306,368.5854,204.6306,372.5854,200.6306,368.5854" style="stroke:#181818;stroke-width:1;"/><line style="stroke:#181818;stroke-width:1;" x1="182.6306" x2="182.6306" y1="193.6479" y2="213.6479"/><polygon fill="#181818" points="178.6306,203.6479,182.6306,213.6479,186.6306,203.6479,182.6306,207.6479" style="stroke:#181818;stroke-width:1;"/><line style="stroke:#181818;stroke-width:1;" x1="461.9585" x2="461.9585" y1="315.6167" y2="350.6167"/><polygon fill="#181818" points="457.9585,340.6167,461.9585,350.6167,465.9585,340.6167,461.9585,344.6167" style="stroke:#181818;stroke-width:1;"/><line style="stroke:#181818;stroke-width:1;" x1="471.9585" x2="461.9585" y1="259.6479" y2="259.6479"/><line style="stroke:#181818;stroke-width:1;" x1="461.9585" x2="461.9585" y1="259.6479" y2="281.6479"/><polygon fill="#181818" points="457.9585,271.6479,461.9585,281.6479,465.9585,271.6479,461.9585,275.6479" style="stroke:#181818;stroke-width:1;"/><line style="stroke:#181818;stroke-width:1;" x1="655.2866" x2="665.2866" y1="259.6479" y2="259.6479"/><line style="stroke:#181818;stroke-width:1;" x1="665.2866" x2="665.2866" y1="259.6479" y2="281.6479"/><polygon fill="#181818" points="661.2866,271.6479,665.2866,281.6479,669.2866,271.6479,665.2866,275.6479" style="stroke:#181818;stroke-width:1;"/><line style="stroke:#181818;stroke-width:1;" x1="461.9585" x2="461.9585" y1="384.5854" y2="402.5854"/><line style="stroke:#181818;stroke-width:1;" x1="461.9585" x2="551.6226" y1="402.5854" y2="402.5854"/><polygon fill="#181818" points="541.6226,398.5854,551.6226,402.5854,541.6226,406.5854,545.6226,402.5854" style="stroke:#181818;stroke-width:1;"/><line style="stroke:#181818;stroke-width:1;" x1="665.2866" x2="665.2866" y1="315.6167" y2="402.5854"/><line style="stroke:#181818;stroke-width:1;" x1="665.2866" x2="575.6226" y1="402.5854" y2="402.5854"/><polygon fill="#181818" points="585.6226,398.5854,575.6226,402.5854,585.6226,406.5854,581.6226,402.5854" style="stroke:#181818;stroke-width:1;"/><line style="stroke:#181818;stroke-width:1;" x1="624.1228" x2="563.6226" y1="225.6479" y2="225.6479"/><line style="stroke:#181818;stroke-width:1;" x1="563.6226" x2="563.6226" y1="225.6479" y2="247.6479"/><polygon fill="#181818" points="559.6226,237.6479,563.6226,247.6479,567.6226,237.6479,563.6226,241.6479" style="stroke:#181818;stroke-width:1;"/><line style="stroke:#181818;stroke-width:1;" x1="798.1858" x2="858.686" y1="225.6479" y2="225.6479"/><line style="stroke:#181818;stroke-width:1;" x1="858.686" x2="858.686" y1="225.6479" y2="247.6479"/><polygon fill="#181818" points="854.686,237.6479,858.686,247.6479,862.686,237.6479,858.686,241.6479" style="stroke:#181818;stroke-width:1;"/><line style="stroke:#181818;stroke-width:1;" x1="563.6226" x2="563.6226" y1="414.5854" y2="432.5854"/><line style="stroke:#181818;stroke-width:1;" x1="563.6226" x2="699.1543" y1="432.5854" y2="432.5854"/><polygon fill="#181818" points="689.1543,428.5854,699.1543,432.5854,689.1543,436.5854,693.1543,432.5854" style="stroke:#181818;stroke-width:1;"/><line style="stroke:#181818;stroke-width:1;" x1="858.686" x2="858.686" y1="281.6167" y2="432.5854"/><line style="stroke:#181818;stroke-width:1;" x1="858.686" x2="723.1543" y1="432.5854" y2="432.5854"/><polygon fill="#181818" points="733.1543,428.5854,723.1543,432.5854,733.1543,436.5854,729.1543,432.5854" style="stroke:#181818;stroke-width:1;"/><line style="stroke:#181818;stroke-width:1;" x1="711.1543" x2="711.1543" y1="193.6479" y2="213.6479"/><polygon fill="#181818" points="707.1543,203.6479,711.1543,213.6479,715.1543,203.6479,711.1543,207.6479" style="stroke:#181818;stroke-width:1;"/><line style="stroke:#181818;stroke-width:1;" x1="1057.0305" x2="1057.0305" y1="193.6479" y2="213.6479"/><polygon fill="#181818" points="1053.0305,203.6479,1057.0305,213.6479,1061.0305,203.6479,1057.0305,207.6479" style="stroke:#181818;stroke-width:1;"/><line style="stroke:#181818;stroke-width:1;" x1="1057.0305" x2="1057.0305" y1="247.6167" y2="282.6167"/><polygon fill="#181818" points="1053.0305,272.6167,1057.0305,282.6167,1061.0305,272.6167,1057.0305,276.6167" style="stroke:#181818;stroke-width:1;"/><line style="stroke:#181818;stroke-width:1;" x1="182.6306" x2="182.6306" y1="127.9688" y2="159.6792"/><polygon fill="#181818" points="178.6306,149.6792,182.6306,159.6792,186.6306,149.6792,182.6306,153.6792" style="stroke:#181818;stroke-width:1;"/><line style="stroke:#181818;stroke-width:1;" x1="182.6306" x2="182.6306" y1="380.5854" y2="464.5854"/><polygon fill="#181818" points="178.6306,454.5854,182.6306,464.5854,186.6306,454.5854,182.6306,458.5854" style="stroke:#181818;stroke-width:1;"/><line style="stroke:#181818;stroke-width:1;" x1="711.1543" x2="711.1543" y1="127.9688" y2="159.6792"/><polygon fill="#181818" points="707.1543,149.6792,711.1543,159.6792,715.1543,149.6792,711.1543,153.6792" style="stroke:#181818;stroke-width:1;"/><line style="stroke:#181818;stroke-width:1;" x1="711.1543" x2="711.1543" y1="444.5854" y2="464.5854"/><polygon fill="#181818" points="707.1543,454.5854,711.1543,464.5854,715.1543,454.5854,711.1543,458.5854" style="stroke:#181818;stroke-width:1;"/><line style="stroke:#181818;stroke-width:1;" x1="1057.0305" x2="1057.0305" y1="127.9688" y2="159.6792"/><polygon fill="#181818" points="1053.0305,149.6792,1057.0305,159.6792,1061.0305,149.6792,1057.0305,153.6792" style="stroke:#181818;stroke-width:1;"/><line style="stroke:#181818;stroke-width:1;" x1="1057.0305" x2="1057.0305" y1="316.5854" y2="464.5854"/><polygon fill="#181818" points="1053.0305,454.5854,1057.0305,464.5854,1061.0305,454.5854,1057.0305,458.5854" style="stroke:#181818;stroke-width:1;"/><line style="stroke:#181818;stroke-width:1;" x1="244.0769" x2="639.9702" y1="115.9688" y2="115.9688"/><polygon fill="#181818" points="629.9702,111.9688,639.9702,115.9688,629.9702,119.9688,633.9702,115.9688" style="stroke:#181818;stroke-width:1;"/><line style="stroke:#181818;stroke-width:1;" x1="782.3384" x2="965.5786" y1="115.9688" y2="115.9688"/><polygon fill="#181818" points="955.5786,111.9688,965.5786,115.9688,955.5786,119.9688,959.5786,115.9688" style="stroke:#181818;stroke-width:1;"/><line style="stroke:#181818;stroke-width:1;" x1="614.7012" x2="614.7012" y1="83.9688" y2="88.9688"/><line style="stroke:#181818;stroke-width:1;" x1="614.7012" x2="182.6306" y1="88.9688" y2="88.9688"/><line style="stroke:#181818;stroke-width:1;" x1="182.6306" x2="182.6306" y1="88.9688" y2="103.9688"/><polygon fill="#181818" points="178.6306,93.9688,182.6306,103.9688,186.6306,93.9688,182.6306,97.9688" style="stroke:#181818;stroke-width:1;"/><line style="stroke:#181818;stroke-width:1;" x1="1148.4824" x2="1213.4424" y1="115.9688" y2="115.9688"/><line style="stroke:#181818;stroke-width:1;" x1="1213.4424" x2="1213.4424" y1="115.9688" y2="274.2456"/><polygon fill="#181818" points="1209.4424,264.2456,1213.4424,274.2456,1217.4424,264.2456,1213.4424,268.2456" style="stroke:#181818;stroke-width:1;"/><line style="stroke:#181818;stroke-width:1;" x1="1213.4424" x2="1213.4424" y1="308.2144" y2="464.5854"/><polygon fill="#181818" points="1209.4424,454.5854,1213.4424,464.5854,1217.4424,454.5854,1213.4424,458.5854" style="stroke:#181818;stroke-width:1;"/><line style="stroke:#181818;stroke-width:1;" x1="182.6306" x2="1213.4424" y1="464.5854" y2="464.5854"/><line style="stroke:#181818;stroke-width:1;" x1="614.7012" x2="614.7012" y1="464.5854" y2="484.5854"/><polygon fill="#181818" points="610.7012,474.5854,614.7012,484.5854,618.7012,474.5854,614.7012,478.5854" style="stroke:#181818;stroke-width:1;"/><!--SRC=[dL91JiGm3Bpt5TQUsYzG8IHsAouS41muXyIbrcQJLPnI-dkIfYLbkmA9csNFZ3qZinVE5pSFwA5dT20xInBhWbeeKmsti4FZhDQxkmfyXmRA4Rag02OQ-rwXyI2C0cbxnmXaMbk7UHJPToYFpSG_1LYZwPtUI9CVo-fIBoW-EIkHEHFAgawJ0_5PYn6ubn4HkwZ3ijBOcHkkoRnxRUNn6GLRiv50vwoR18oYjeWoF_qEv3lbnF1_n_lUkMXtvMFhzXlzEkyJ-e12QJ9u3PxZoVZ5s_M0BYDQeTIyA8UnnB79TQ4Owo5z0gg_C_mW7B9z_ZtA9R_OV4cz5JUPNEx8WqVYwJ_IlQjt_II_ctOqeG8UsUCfmAPBsTlp5m00]--></g></svg>