<svg xmlns="http://www.w3.org/2000/svg" xmlns:xlink="http://www.w3.org/1999/xlink" contentStyleType="text/css" data-diagram-type="ACTIVITY" height="416px" preserveAspectRatio="none" style="width:199px;height:416px;background:#FFFFFF;" version="1.1" viewBox="0 0 199 416" width="199px" zoomAndPan="magnify"><defs/><g><ellipse cx="94.5972" cy="20" fill="#222222" rx="10" ry="10" style="stroke:#222222;stroke-width:1;"/><rect fill="#F1F1F1" height="33.9688" rx="12.5" ry="12.5" style="stroke:#181818;stroke-width:0.5;" width="48.6465" x="70.2739" y="50"/><text fill="#000000" font-family="sans-serif" font-size="12" lengthAdjust="spacing" textLength="28.6465" x="80.2739" y="71.1387">Main</text><rect fill="#F1F1F1" height="33.9688" rx="12.5" ry="12.5" style="stroke:#181818;stroke-width:0.5;" width="76.2734" x="56.4604" y="103.9688"/><text fill="#000000" font-family="sans-serif" font-size="12" lengthAdjust="spacing" textLength="56.2734" x="66.4604" y="125.1074">Get Input</text><rect fill="#F1F1F1" height="33.9688" rx="12.5" ry="12.5" style="stroke:#181818;stroke-width:0.5;" width="69.2891" x="59.9526" y="157.9375"/><text fill="#000000" font-family="sans-serif" font-size="12" lengthAdjust="spacing" textLength="49.2891" x="69.9526" y="179.0762">Validate</text><polygon fill="#F1F1F1" points="71.762,211.9063,117.4324,211.9063,129.4324,223.9063,117.4324,235.9063,71.762,235.9063,59.762,223.9063,71.762,211.9063" style="stroke:#181818;stroke-width:0.5;"/><text fill="#000000" font-family="sans-serif" font-size="11" lengthAdjust="spacing" textLength="45.6704" x="71.762" y="227.7144">Is Valid?</text><text fill="#000000" font-family="sans-serif" font-size="11" lengthAdjust="spacing" textLength="19.0083" x="40.7537" y="221.312">yes</text><text fill="#000000" font-family="sans-serif" font-size="11" lengthAdjust="spacing" textLength="13.7017" x="129.4324" y="221.312">no</text><rect fill="#F1F1F1" height="33.9688" rx="12.5" ry="12.5" style="stroke:#181818;stroke-width:0.5;" width="65.9961" x="12.1543" y="245.9063"/><text fill="#000000" font-family="sans-serif" font-size="12" lengthAdjust="spacing" textLength="45.9961" x="22.1543" y="267.0449">Process</text><rect fill="#F1F1F1" height="33.9688" rx="12.5" ry="12.5" style="stroke:#181818;stroke-width:0.5;" width="68.3047" x="11" y="299.875"/><text fill="#000000" font-family="sans-serif" font-size="12" lengthAdjust="spacing" textLength="48.3047" x="21" y="321.0137">Success</text><rect fill="#F1F1F1" height="33.9688" rx="12.5" ry="12.5" style="stroke:#181818;stroke-width:0.5;" width="89.4746" x="99.3047" y="245.9063"/><text fill="#000000" font-family="sans-serif" font-size="12" lengthAdjust="spacing" textLength="69.4746" x="109.3047" y="267.0449">Get Reason</text><rect fill="#F1F1F1" height="33.9688" rx="12.5" ry="12.5" style="stroke:#181818;stroke-width:0.5;" width="49.7246" x="119.1797" y="299.875"/><text fill="#000000" font-family="sans-serif" font-size="12" lengthAdjust="spacing" textLength="29.7246" x="129.1797" y="321.0137">Error</text><polygon fill="#F1F1F1" points="94.5972,339.8438,106.5972,351.8438,94.5972,363.8438,82.5972,351.8438,94.5972,339.8438" style="stroke:#181818;stroke-width:0.5;"/><ellipse cx="94.5972" cy="394.8438" fill="none" rx="11" ry="11" style="stroke:#222222;stroke-width:1;"/><ellipse cx="94.5972" cy="394.8438" fill="#222222" rx="6" ry="6" style="stroke:#222222;stroke-width:1;"/><line style="stroke:#181818;stroke-width:1;" x1="94.5972" x2="94.5972" y1="30" y2="50"/><polygon fill="#181818" points="90.5972,40,94.5972,50,98.5972,40,94.5972,44" style="stroke:#181818;stroke-width:1;"/><line style="stroke:#181818;stroke-width:1;" x1="94.5972" x2="94.5972" y1="83.9688" y2="103.9688"/><polygon fill="#181818" points="90.5972,93.9688,94.5972,103.9688,98.5972,93.9688,94.5972,97.9688" style="stroke:#181818;stroke-width:1;"/><line style="stroke:#181818;stroke-width:1;" x1="94.5972" x2="94.5972" y1="137.9375" y2="157.9375"/><polygon fill="#181818" points="90.5972,147.9375,94.5972,157.9375,98.5972,147.9375,94.5972,151.9375" style="stroke:#181818;stroke-width:1;"/><line style="stroke:#181818;stroke-width:1;" x1="45.1523" x2="45.1523" y1="279.875" y2="299.875"/><polygon fill="#181818" points="41.1523,289.875,45.1523,299.875,49.1523,289.875,45.1523,293.875" style="stroke:#181818;stroke-width:1;"/><line style="stroke:#181818;stroke-width:1;" x1="144.042" x2="144.042" y1="279.875" y2="299.875"/><polygon fill="#181818" points="140.042,289.875,144.042,299.875,148.042,289.875,144.042,293.875" style="stroke:#181818;stroke-width:1;"/><line style="stroke:#181818;stroke-width:1;" x1="59.762" x2="45.1523" y1="223.9063" y2="223.9063"/><line style="stroke:#181818;stroke-width:1;" x1="45.1523" x2="45.1523" y1="223.9063" y2="245.9063"/><polygon fill="#181818" points="41.1523,235.9063,45.1523,245.9063,49.1523,235.9063,45.1523,239.9063" style="stroke:#181818;stroke-width:1;"/><line style="stroke:#181818;stroke-width:1;" x1="129.4324" x2="144.042" y1="223.9063" y2="223.9063"/><line style="stroke:#181818;stroke-width:1;" x1="144.042" x2="144.042" y1="223.9063" y2="245.9063"/><polygon fill="#181818" points="140.042,235.9063,144.042,245.9063,148.042,235.9063,144.042,239.9063" style="stroke:#181818;stroke-width:1;"/><line style="stroke:#181818;stroke-width:1;" x1="45.1523" x2="45.1523" y1="333.8438" y2="351.8438"/><line style="stroke:#181818;stroke-width:1;" x1="45.1523" x2="82.5972" y1="351.8438" y2="351.8438"/><polygon fill="#181818" points="72.5972,347.8438,82.5972,351.8438,72.5972,355.8438,76.5972,351.8438" style="stroke:#181818;stroke-width:1;"/><line style="stroke:#181818;stroke-width:1;" x1="144.042" x2="144.042" y1="333.8438" y2="351.8438"/><line style="stroke:#181818;stroke-width:1;" x1="144.042" x2="106.5972" y1="351.8438" y2="351.8438"/><polygon fill="#181818" points="116.5972,347.8438,106.5972,351.8438,116.5972,355.8438,112.5972,351.8438" style="stroke:#181818;stroke-width:1;"/><line style="stroke:#181818;stroke-width:1;" x1="94.5972" x2="94.5972" y1="191.9063" y2="211.9063"/><polygon fill="#181818" points="90.5972,201.9063,94.5972,211.9063,98.5972,201.9063,94.5972,205.9063" style="stroke:#181818;stroke-width:1;"/><line style="stroke:#181818;stroke-width:1;" x1="94.5972" x2="94.5972" y1="363.8438" y2="383.8438"/><polygon fill="#181818" points="90.5972,373.8438,94.5972,383.8438,98.5972,373.8438,94.5972,377.8438" style="stroke:#181818;stroke-width:1;"/><!--SRC=[BOmn2iD030HxlKBb-GjtHQeGN1X20kc5BPC38nb9Bl9xdsDljRCCwq4Ma0UgKY0_EB2NTOlMFxJKYO8Br1bJx_WVRXt6bmNJZxq3RCbFqv7ToqdlRJo95sTCefTrNB-ONEKIxsPgJPEfpk2Xwmu0]--></g></svg>