<svg xmlns="http://www.w3.org/2000/svg" xmlns:xlink="http://www.w3.org/1999/xlink" contentStyleType="text/css" data-diagram-type="DESCRIPTION" height="574px" preserveAspectRatio="none" style="width:2246px;height:574px;background:#FFFFFF;" version="1.1" viewBox="0 0 2246 574" width="2246px" zoomAndPan="magnify"><defs/><g><!--cluster Student Course Management System--><g class="cluster" data-entity="Student Course Management System" data-source-line="1" data-uid="ent0002" id="cluster_Student Course Management System"><path d="M8.5,6 L303.001,6 A3.75,3.75 0 0 1 305.501,8.5 L312.501,28.2969 L2205.5,28.2969 A2.5,2.5 0 0 1 2208,30.7969 L2208,564.98 A2.5,2.5 0 0 1 2205.5,567.48 L8.5,567.48 A2.5,2.5 0 0 1 6,564.98 L6,8.5 A2.5,2.5 0 0 1 8.5,6" fill="none" style="stroke:#000000;stroke-width:1.5;"/><line style="stroke:#000000;stroke-width:1.5;" x1="6" x2="312.501" y1="28.2969" y2="28.2969"/><text fill="#000000" font-family="sans-serif" font-size="14" font-weight="bold" lengthAdjust="spacing" textLength="293.501" x="10" y="20.9951">Student Course Management System</text></g><!--cluster User Interface Functions--><g class="cluster" data-entity="User Interface Functions" data-source-line="5" data-uid="ent0004" id="cluster_User Interface Functions"><path d="M32.5,112.29 L228.1533,112.29 A3.75,3.75 0 0 1 230.6533,114.79 L237.6533,134.5869 L905.5,134.5869 A2.5,2.5 0 0 1 908,137.0869 L908,313.39 A2.5,2.5 0 0 1 905.5,315.89 L32.5,315.89 A2.5,2.5 0 0 1 30,313.39 L30,114.79 A2.5,2.5 0 0 1 32.5,112.29" fill="none" style="stroke:#000000;stroke-width:1.5;"/><line style="stroke:#000000;stroke-width:1.5;" x1="30" x2="237.6533" y1="134.5869" y2="134.5869"/><text fill="#000000" font-family="sans-serif" font-size="14" font-weight="bold" lengthAdjust="spacing" textLength="194.6533" x="34" y="127.2851">User Interface Functions</text></g><!--cluster Validation Functions--><g class="cluster" data-entity="Validation Functions" data-source-line="14" data-uid="ent0011" id="cluster_Validation Functions"><path d="M934.5,112.29 L1098.0039,112.29 A3.75,3.75 0 0 1 1100.5039,114.79 L1107.5039,134.5869 L2168.5,134.5869 A2.5,2.5 0 0 1 2171,137.0869 L2171,313.39 A2.5,2.5 0 0 1 2168.5,315.89 L934.5,315.89 A2.5,2.5 0 0 1 932,313.39 L932,114.79 A2.5,2.5 0 0 1 934.5,112.29" fill="none" style="stroke:#000000;stroke-width:1.5;"/><line style="stroke:#000000;stroke-width:1.5;" x1="932" x2="1107.5039" y1="134.5869" y2="134.5869"/><text fill="#000000" font-family="sans-serif" font-size="14" font-weight="bold" lengthAdjust="spacing" textLength="162.5039" x="936" y="127.2851">Validation Functions</text></g><!--cluster Business Logic--><g class="cluster" data-entity="Business Logic" data-source-line="25" data-uid="ent0020" id="cluster_Business Logic"><path d="M409.5,339.89 L526.9297,339.89 A3.75,3.75 0 0 1 529.4297,342.39 L536.4297,362.1869 L1113.5,362.1869 A2.5,2.5 0 0 1 1116,364.6869 L1116,540.98 A2.5,2.5 0 0 1 1113.5,543.48 L409.5,543.48 A2.5,2.5 0 0 1 407,540.98 L407,342.39 A2.5,2.5 0 0 1 409.5,339.89" fill="none" style="stroke:#000000;stroke-width:1.5;"/><line style="stroke:#000000;stroke-width:1.5;" x1="407" x2="536.4297" y1="362.1869" y2="362.1869"/><text fill="#000000" font-family="sans-serif" font-size="14" font-weight="bold" lengthAdjust="spacing" textLength="116.4297" x="411" y="354.8851">Business Logic</text></g><!--cluster Data Access--><g class="cluster" data-entity="Data Access" data-source-line="32" data-uid="ent0025" id="cluster_Data Access"><path d="M1142.5,446.18 L1239.1758,446.18 A3.75,3.75 0 0 1 1241.6758,448.68 L1248.6758,468.4769 L2181.5,468.4769 A2.5,2.5 0 0 1 2184,470.9769 L2184,540.98 A2.5,2.5 0 0 1 2181.5,543.48 L1142.5,543.48 A2.5,2.5 0 0 1 1140,540.98 L1140,448.68 A2.5,2.5 0 0 1 1142.5,446.18" fill="none" style="stroke:#000000;stroke-width:1.5;"/><line style="stroke:#000000;stroke-width:1.5;" x1="1140" x2="1248.6758" y1="468.4769" y2="468.4769"/><text fill="#000000" font-family="sans-serif" font-size="14" font-weight="bold" lengthAdjust="spacing" textLength="95.6758" x="1144" y="461.1751">Data Access</text></g><!--entity main--><g class="entity" data-entity="main" data-source-line="3" data-uid="ent0003" id="entity_main"><rect fill="#F1F1F1" height="46.2969" rx="2.5" ry="2.5" style="stroke:#181818;stroke-width:0.5;" width="146.4355" x="690.78" y="41"/><rect fill="#F1F1F1" height="10" style="stroke:#181818;stroke-width:0.5;" width="15" x="817.2155" y="46"/><rect fill="#F1F1F1" height="2" style="stroke:#181818;stroke-width:0.5;" width="4" x="815.2155" y="48"/><rect fill="#F1F1F1" height="2" style="stroke:#181818;stroke-width:0.5;" width="4" x="815.2155" y="52"/><text fill="#000000" font-family="sans-serif" font-size="14" lengthAdjust="spacing" textLength="106.4355" x="705.78" y="73.9951">Main Algorithm</text></g><!--entity DisplayMenuAndGetChoice()--><g class="entity" data-entity="DisplayMenuAndGetChoice()" data-source-line="6" data-uid="ent0005" id="entity_DisplayMenuAndGetChoice()"><rect fill="#F1F1F1" height="46.2969" rx="2.5" ry="2.5" style="stroke:#181818;stroke-width:0.5;" width="240.6689" x="226.67" y="147.29"/><rect fill="#F1F1F1" height="10" style="stroke:#181818;stroke-width:0.5;" width="15" x="447.3389" y="152.29"/><rect fill="#F1F1F1" height="2" style="stroke:#181818;stroke-width:0.5;" width="4" x="445.3389" y="154.29"/><rect fill="#F1F1F1" height="2" style="stroke:#181818;stroke-width:0.5;" width="4" x="445.3389" y="158.29"/><text fill="#000000" font-family="sans-serif" font-size="14" lengthAdjust="spacing" textLength="200.6689" x="241.67" y="180.2851">DisplayMenuAndGetChoice()</text></g><!--entity GetStudentID()--><g class="entity" data-entity="GetStudentID()" data-source-line="7" data-uid="ent0006" id="entity_GetStudentID()"><rect fill="#F1F1F1" height="46.2969" rx="2.5" ry="2.5" style="stroke:#181818;stroke-width:0.5;" width="145.8955" x="46.05" y="147.29"/><rect fill="#F1F1F1" height="10" style="stroke:#181818;stroke-width:0.5;" width="15" x="171.9455" y="152.29"/><rect fill="#F1F1F1" height="2" style="stroke:#181818;stroke-width:0.5;" width="4" x="169.9455" y="154.29"/><rect fill="#F1F1F1" height="2" style="stroke:#181818;stroke-width:0.5;" width="4" x="169.9455" y="158.29"/><text fill="#000000" font-family="sans-serif" font-size="14" lengthAdjust="spacing" textLength="105.8955" x="61.05" y="180.2851">GetStudentID()</text></g><!--entity GetCourseCode()--><g class="entity" data-entity="GetCourseCode()" data-source-line="8" data-uid="ent0007" id="entity_GetCourseCode()"><rect fill="#F1F1F1" height="46.2969" rx="2.5" ry="2.5" style="stroke:#181818;stroke-width:0.5;" width="160.5928" x="502.7" y="147.29"/><rect fill="#F1F1F1" height="10" style="stroke:#181818;stroke-width:0.5;" width="15" x="643.2928" y="152.29"/><rect fill="#F1F1F1" height="2" style="stroke:#181818;stroke-width:0.5;" width="4" x="641.2928" y="154.29"/><rect fill="#F1F1F1" height="2" style="stroke:#181818;stroke-width:0.5;" width="4" x="641.2928" y="158.29"/><text fill="#000000" font-family="sans-serif" font-size="14" lengthAdjust="spacing" textLength="120.5928" x="517.7" y="180.2851">GetCourseCode()</text></g><!--entity DisplayConfirmation()--><g class="entity" data-entity="DisplayConfirmation()" data-source-line="9" data-uid="ent0008" id="entity_DisplayConfirmation()"><rect fill="#F1F1F1" height="46.2969" rx="2.5" ry="2.5" style="stroke:#181818;stroke-width:0.5;" width="193.3506" x="698.32" y="147.29"/><rect fill="#F1F1F1" height="10" style="stroke:#181818;stroke-width:0.5;" width="15" x="871.6706" y="152.29"/><rect fill="#F1F1F1" height="2" style="stroke:#181818;stroke-width:0.5;" width="4" x="869.6706" y="154.29"/><rect fill="#F1F1F1" height="2" style="stroke:#181818;stroke-width:0.5;" width="4" x="869.6706" y="158.29"/><text fill="#000000" font-family="sans-serif" font-size="14" lengthAdjust="spacing" textLength="153.3506" x="713.32" y="180.2851">DisplayConfirmation()</text></g><!--entity DisplayError()--><g class="entity" data-entity="DisplayError()" data-source-line="10" data-uid="ent0009" id="entity_DisplayError()"><rect fill="#F1F1F1" height="46.2969" rx="2.5" ry="2.5" style="stroke:#181818;stroke-width:0.5;" width="137.207" x="480.4" y="253.59"/><rect fill="#F1F1F1" height="10" style="stroke:#181818;stroke-width:0.5;" width="15" x="597.607" y="258.59"/><rect fill="#F1F1F1" height="2" style="stroke:#181818;stroke-width:0.5;" width="4" x="595.607" y="260.59"/><rect fill="#F1F1F1" height="2" style="stroke:#181818;stroke-width:0.5;" width="4" x="595.607" y="264.59"/><text fill="#000000" font-family="sans-serif" font-size="14" lengthAdjust="spacing" textLength="97.207" x="495.4" y="286.5851">DisplayError()</text></g><!--entity DisplayEnrollmentList()--><g class="entity" data-entity="DisplayEnrollmentList()" data-source-line="11" data-uid="ent0010" id="entity_DisplayEnrollmentList()"><rect fill="#F1F1F1" height="46.2969" rx="2.5" ry="2.5" style="stroke:#181818;stroke-width:0.5;" width="203.4336" x="652.28" y="253.59"/><rect fill="#F1F1F1" height="10" style="stroke:#181818;stroke-width:0.5;" width="15" x="835.7136" y="258.59"/><rect fill="#F1F1F1" height="2" style="stroke:#181818;stroke-width:0.5;" width="4" x="833.7136" y="260.59"/><rect fill="#F1F1F1" height="2" style="stroke:#181818;stroke-width:0.5;" width="4" x="833.7136" y="264.59"/><text fill="#000000" font-family="sans-serif" font-size="14" lengthAdjust="spacing" textLength="163.4336" x="667.28" y="286.5851">DisplayEnrollmentList()</text></g><!--entity IsValidStudentID()--><g class="entity" data-entity="IsValidStudentID()" data-source-line="15" data-uid="ent0012" id="entity_IsValidStudentID()"><rect fill="#F1F1F1" height="46.2969" rx="2.5" ry="2.5" style="stroke:#181818;stroke-width:0.5;" width="167.1895" x="1334.41" y="147.29"/><rect fill="#F1F1F1" height="10" style="stroke:#181818;stroke-width:0.5;" width="15" x="1481.5995" y="152.29"/><rect fill="#F1F1F1" height="2" style="stroke:#181818;stroke-width:0.5;" width="4" x="1479.5995" y="154.29"/><rect fill="#F1F1F1" height="2" style="stroke:#181818;stroke-width:0.5;" width="4" x="1479.5995" y="158.29"/><text fill="#000000" font-family="sans-serif" font-size="14" lengthAdjust="spacing" textLength="127.1895" x="1349.41" y="180.2851">IsValidStudentID()</text></g><!--entity IsValidCourseCode()--><g class="entity" data-entity="IsValidCourseCode()" data-source-line="16" data-uid="ent0013" id="entity_IsValidCourseCode()"><rect fill="#F1F1F1" height="46.2969" rx="2.5" ry="2.5" style="stroke:#181818;stroke-width:0.5;" width="181.8867" x="1537.06" y="147.29"/><rect fill="#F1F1F1" height="10" style="stroke:#181818;stroke-width:0.5;" width="15" x="1698.9467" y="152.29"/><rect fill="#F1F1F1" height="2" style="stroke:#181818;stroke-width:0.5;" width="4" x="1696.9467" y="154.29"/><rect fill="#F1F1F1" height="2" style="stroke:#181818;stroke-width:0.5;" width="4" x="1696.9467" y="158.29"/><text fill="#000000" font-family="sans-serif" font-size="14" lengthAdjust="spacing" textLength="141.8867" x="1552.06" y="180.2851">IsValidCourseCode()</text></g><!--entity CheckEnrollmentEligibility()--><g class="entity" data-entity="CheckEnrollmentEligibility()" data-source-line="17" data-uid="ent0014" id="entity_CheckEnrollmentEligibility()"><rect fill="#F1F1F1" height="46.2969" rx="2.5" ry="2.5" style="stroke:#181818;stroke-width:0.5;" width="234.1543" x="1064.92" y="147.29"/><rect fill="#F1F1F1" height="10" style="stroke:#181818;stroke-width:0.5;" width="15" x="1279.0743" y="152.29"/><rect fill="#F1F1F1" height="2" style="stroke:#181818;stroke-width:0.5;" width="4" x="1277.0743" y="154.29"/><rect fill="#F1F1F1" height="2" style="stroke:#181818;stroke-width:0.5;" width="4" x="1277.0743" y="158.29"/><text fill="#000000" font-family="sans-serif" font-size="14" lengthAdjust="spacing" textLength="194.1543" x="1079.92" y="180.2851">CheckEnrollmentEligibility()</text></g><!--entity CheckCurrentEnrollment()--><g class="entity" data-entity="CheckCurrentEnrollment()" data-source-line="18" data-uid="ent0015" id="entity_CheckCurrentEnrollment()"><rect fill="#F1F1F1" height="46.2969" rx="2.5" ry="2.5" style="stroke:#181818;stroke-width:0.5;" width="223.5586" x="948.22" y="253.59"/><rect fill="#F1F1F1" height="10" style="stroke:#181818;stroke-width:0.5;" width="15" x="1151.7786" y="258.59"/><rect fill="#F1F1F1" height="2" style="stroke:#181818;stroke-width:0.5;" width="4" x="1149.7786" y="260.59"/><rect fill="#F1F1F1" height="2" style="stroke:#181818;stroke-width:0.5;" width="4" x="1149.7786" y="264.59"/><text fill="#000000" font-family="sans-serif" font-size="14" lengthAdjust="spacing" textLength="183.5586" x="963.22" y="286.5851">CheckCurrentEnrollment()</text></g><!--entity CheckWithdrawalDeadline()--><g class="entity" data-entity="CheckWithdrawalDeadline()" data-source-line="19" data-uid="ent0016" id="entity_CheckWithdrawalDeadline()"><rect fill="#F1F1F1" height="46.2969" rx="2.5" ry="2.5" style="stroke:#181818;stroke-width:0.5;" width="235.3506" x="1919.32" y="253.59"/><rect fill="#F1F1F1" height="10" style="stroke:#181818;stroke-width:0.5;" width="15" x="2134.6706" y="258.59"/><rect fill="#F1F1F1" height="2" style="stroke:#181818;stroke-width:0.5;" width="4" x="2132.6706" y="260.59"/><rect fill="#F1F1F1" height="2" style="stroke:#181818;stroke-width:0.5;" width="4" x="2132.6706" y="264.59"/><text fill="#000000" font-family="sans-serif" font-size="14" lengthAdjust="spacing" textLength="195.3506" x="1934.32" y="286.5851">CheckWithdrawalDeadline()</text></g><!--entity CheckPrerequisites()--><g class="entity" data-entity="CheckPrerequisites()" data-source-line="20" data-uid="ent0017" id="entity_CheckPrerequisites()"><rect fill="#F1F1F1" height="46.2969" rx="2.5" ry="2.5" style="stroke:#181818;stroke-width:0.5;" width="185.4004" x="1206.3" y="253.59"/><rect fill="#F1F1F1" height="10" style="stroke:#181818;stroke-width:0.5;" width="15" x="1371.7004" y="258.59"/><rect fill="#F1F1F1" height="2" style="stroke:#181818;stroke-width:0.5;" width="4" x="1369.7004" y="260.59"/><rect fill="#F1F1F1" height="2" style="stroke:#181818;stroke-width:0.5;" width="4" x="1369.7004" y="264.59"/><text fill="#000000" font-family="sans-serif" font-size="14" lengthAdjust="spacing" textLength="145.4004" x="1221.3" y="286.5851">CheckPrerequisites()</text></g><!--entity CheckCourseCapacity()--><g class="entity" data-entity="CheckCourseCapacity()" data-source-line="21" data-uid="ent0018" id="entity_CheckCourseCapacity()"><rect fill="#F1F1F1" height="46.2969" rx="2.5" ry="2.5" style="stroke:#181818;stroke-width:0.5;" width="204.0488" x="1426.98" y="253.59"/><rect fill="#F1F1F1" height="10" style="stroke:#181818;stroke-width:0.5;" width="15" x="1611.0288" y="258.59"/><rect fill="#F1F1F1" height="2" style="stroke:#181818;stroke-width:0.5;" width="4" x="1609.0288" y="260.59"/><rect fill="#F1F1F1" height="2" style="stroke:#181818;stroke-width:0.5;" width="4" x="1609.0288" y="264.59"/><text fill="#000000" font-family="sans-serif" font-size="14" lengthAdjust="spacing" textLength="164.0488" x="1441.98" y="286.5851">CheckCourseCapacity()</text></g><!--entity CheckScheduleConflicts()--><g class="entity" data-entity="CheckScheduleConflicts()" data-source-line="22" data-uid="ent0019" id="entity_CheckScheduleConflicts()"><rect fill="#F1F1F1" height="46.2969" rx="2.5" ry="2.5" style="stroke:#181818;stroke-width:0.5;" width="218.7256" x="1665.64" y="253.59"/><rect fill="#F1F1F1" height="10" style="stroke:#181818;stroke-width:0.5;" width="15" x="1864.3656" y="258.59"/><rect fill="#F1F1F1" height="2" style="stroke:#181818;stroke-width:0.5;" width="4" x="1862.3656" y="260.59"/><rect fill="#F1F1F1" height="2" style="stroke:#181818;stroke-width:0.5;" width="4" x="1862.3656" y="264.59"/><text fill="#000000" font-family="sans-serif" font-size="14" lengthAdjust="spacing" textLength="178.7256" x="1680.64" y="286.5851">CheckScheduleConflicts()</text></g><!--entity ProcessEnrollment()--><g class="entity" data-entity="ProcessEnrollment()" data-source-line="26" data-uid="ent0021" id="entity_ProcessEnrollment()"><rect fill="#F1F1F1" height="46.2969" rx="2.5" ry="2.5" style="stroke:#181818;stroke-width:0.5;" width="181.0186" x="918.49" y="374.89"/><rect fill="#F1F1F1" height="10" style="stroke:#181818;stroke-width:0.5;" width="15" x="1079.5086" y="379.89"/><rect fill="#F1F1F1" height="2" style="stroke:#181818;stroke-width:0.5;" width="4" x="1077.5086" y="381.89"/><rect fill="#F1F1F1" height="2" style="stroke:#181818;stroke-width:0.5;" width="4" x="1077.5086" y="385.89"/><text fill="#000000" font-family="sans-serif" font-size="14" lengthAdjust="spacing" textLength="141.0186" x="933.49" y="407.8851">ProcessEnrollment()</text></g><!--entity ProcessWithdrawal()--><g class="entity" data-entity="ProcessWithdrawal()" data-source-line="27" data-uid="ent0022" id="entity_ProcessWithdrawal()"><rect fill="#F1F1F1" height="46.2969" rx="2.5" ry="2.5" style="stroke:#181818;stroke-width:0.5;" width="183.8213" x="423.09" y="374.89"/><rect fill="#F1F1F1" height="10" style="stroke:#181818;stroke-width:0.5;" width="15" x="586.9113" y="379.89"/><rect fill="#F1F1F1" height="2" style="stroke:#181818;stroke-width:0.5;" width="4" x="584.9113" y="381.89"/><rect fill="#F1F1F1" height="2" style="stroke:#181818;stroke-width:0.5;" width="4" x="584.9113" y="385.89"/><text fill="#000000" font-family="sans-serif" font-size="14" lengthAdjust="spacing" textLength="143.8213" x="438.09" y="407.8851">ProcessWithdrawal()</text></g><!--entity GetEnrollmentBlockReason()--><g class="entity" data-entity="GetEnrollmentBlockReason()" data-source-line="28" data-uid="ent0023" id="entity_GetEnrollmentBlockReason()"><rect fill="#F1F1F1" height="46.2969" rx="2.5" ry="2.5" style="stroke:#181818;stroke-width:0.5;" width="241.8242" x="642.09" y="374.89"/><rect fill="#F1F1F1" height="10" style="stroke:#181818;stroke-width:0.5;" width="15" x="863.9142" y="379.89"/><rect fill="#F1F1F1" height="2" style="stroke:#181818;stroke-width:0.5;" width="4" x="861.9142" y="381.89"/><rect fill="#F1F1F1" height="2" style="stroke:#181818;stroke-width:0.5;" width="4" x="861.9142" y="385.89"/><text fill="#000000" font-family="sans-serif" font-size="14" lengthAdjust="spacing" textLength="201.8242" x="657.09" y="407.8851">GetEnrollmentBlockReason()</text></g><!--entity GetStudentEnrollments()--><g class="entity" data-entity="GetStudentEnrollments()" data-source-line="29" data-uid="ent0024" id="entity_GetStudentEnrollments()"><rect fill="#F1F1F1" height="46.2969" rx="2.5" ry="2.5" style="stroke:#181818;stroke-width:0.5;" width="214.7129" x="422.64" y="481.18"/><rect fill="#F1F1F1" height="10" style="stroke:#181818;stroke-width:0.5;" width="15" x="617.3529" y="486.18"/><rect fill="#F1F1F1" height="2" style="stroke:#181818;stroke-width:0.5;" width="4" x="615.3529" y="488.18"/><rect fill="#F1F1F1" height="2" style="stroke:#181818;stroke-width:0.5;" width="4" x="615.3529" y="492.18"/><text fill="#000000" font-family="sans-serif" font-size="14" lengthAdjust="spacing" textLength="174.7129" x="437.64" y="514.1751">GetStudentEnrollments()</text></g><!--entity AddToEnrollmentDatabase()--><g class="entity" data-entity="AddToEnrollmentDatabase()" data-source-line="33" data-uid="ent0026" id="entity_AddToEnrollmentDatabase()"><rect fill="#F1F1F1" height="46.2969" rx="2.5" ry="2.5" style="stroke:#181818;stroke-width:0.5;" width="238.625" x="1929.69" y="481.18"/><rect fill="#F1F1F1" height="10" style="stroke:#181818;stroke-width:0.5;" width="15" x="2148.315" y="486.18"/><rect fill="#F1F1F1" height="2" style="stroke:#181818;stroke-width:0.5;" width="4" x="2146.315" y="488.18"/><rect fill="#F1F1F1" height="2" style="stroke:#181818;stroke-width:0.5;" width="4" x="2146.315" y="492.18"/><text fill="#000000" font-family="sans-serif" font-size="14" lengthAdjust="spacing" textLength="198.625" x="1944.69" y="514.1751">AddToEnrollmentDatabase()</text></g><!--entity UpdateCourseCapacity()--><g class="entity" data-entity="UpdateCourseCapacity()" data-source-line="34" data-uid="ent0027" id="entity_UpdateCourseCapacity()"><rect fill="#F1F1F1" height="46.2969" rx="2.5" ry="2.5" style="stroke:#181818;stroke-width:0.5;" width="211.6846" x="1683.16" y="481.18"/><rect fill="#F1F1F1" height="10" style="stroke:#181818;stroke-width:0.5;" width="15" x="1874.8446" y="486.18"/><rect fill="#F1F1F1" height="2" style="stroke:#181818;stroke-width:0.5;" width="4" x="1872.8446" y="488.18"/><rect fill="#F1F1F1" height="2" style="stroke:#181818;stroke-width:0.5;" width="4" x="1872.8446" y="492.18"/><text fill="#000000" font-family="sans-serif" font-size="14" lengthAdjust="spacing" textLength="171.6846" x="1698.16" y="514.1751">UpdateCourseCapacity()</text></g><!--entity SendEnrollmentNotification()--><g class="entity" data-entity="SendEnrollmentNotification()" data-source-line="35" data-uid="ent0028" id="entity_SendEnrollmentNotification()"><rect fill="#F1F1F1" height="46.2969" rx="2.5" ry="2.5" style="stroke:#181818;stroke-width:0.5;" width="242.9453" x="1405.53" y="481.18"/><rect fill="#F1F1F1" height="10" style="stroke:#181818;stroke-width:0.5;" width="15" x="1628.4753" y="486.18"/><rect fill="#F1F1F1" height="2" style="stroke:#181818;stroke-width:0.5;" width="4" x="1626.4753" y="488.18"/><rect fill="#F1F1F1" height="2" style="stroke:#181818;stroke-width:0.5;" width="4" x="1626.4753" y="492.18"/><text fill="#000000" font-family="sans-serif" font-size="14" lengthAdjust="spacing" textLength="202.9453" x="1420.53" y="514.1751">SendEnrollmentNotification()</text></g><!--entity ConvertChoiceToAction()--><g class="entity" data-entity="ConvertChoiceToAction()" data-source-line="36" data-uid="ent0029" id="entity_ConvertChoiceToAction()"><rect fill="#F1F1F1" height="46.2969" rx="2.5" ry="2.5" style="stroke:#181818;stroke-width:0.5;" width="214.9043" x="1155.55" y="481.18"/><rect fill="#F1F1F1" height="10" style="stroke:#181818;stroke-width:0.5;" width="15" x="1350.4543" y="486.18"/><rect fill="#F1F1F1" height="2" style="stroke:#181818;stroke-width:0.5;" width="4" x="1348.4543" y="488.18"/><rect fill="#F1F1F1" height="2" style="stroke:#181818;stroke-width:0.5;" width="4" x="1348.4543" y="492.18"/><text fill="#000000" font-family="sans-serif" font-size="14" lengthAdjust="spacing" textLength="174.9043" x="1170.55" y="514.1751">ConvertChoiceToAction()</text></g><!--link main to DisplayMenuAndGetChoice()--><g class="link" data-entity-1="main" data-entity-2="DisplayMenuAndGetChoice()" data-source-line="40" data-uid="lnk30" id="link_main_DisplayMenuAndGetChoice()"><path d="M690.46,69.39 C633.44,74.13 552.96,84 485,104.29 C450.35,114.64 418.7119,129.6523 391.7819,144.0423" fill="none" id="main-to-DisplayMenuAndGetChoice()" style="stroke:#181818;stroke-width:1;"/><polygon fill="#181818" points="386.49,146.87,396.313,146.1564,390.8999,144.5136,392.5427,139.1005,386.49,146.87" style="stroke:#181818;stroke-width:1;"/></g><!--link main to GetStudentID()--><g class="link" data-entity-1="main" data-entity-2="GetStudentID()" data-source-line="41" data-uid="lnk31" id="link_main_GetStudentID()"><path d="M690.32,65.35 C560.23,66.55 295.42,72.89 209,104.29 C183.8,113.45 163.9407,127.9135 146.9307,142.8335" fill="none" id="main-to-GetStudentID()" style="stroke:#181818;stroke-width:1;"/><polygon fill="#181818" points="142.42,146.79,151.8237,143.8624,146.1789,143.4929,146.5484,137.8482,142.42,146.79" style="stroke:#181818;stroke-width:1;"/></g><!--link main to CheckEnrollmentEligibility()--><g class="link" data-entity-1="main" data-entity-2="CheckEnrollmentEligibility()" data-source-line="42" data-uid="lnk32" id="link_main_CheckEnrollmentEligibility()"><path d="M837.29,83.43 C908,101.07 1009.3985,126.3775 1085.4685,145.3575" fill="none" id="main-to-CheckEnrollmentEligibility()" style="stroke:#181818;stroke-width:1;"/><polygon fill="#181818" points="1091.29,146.81,1083.526,140.7502,1086.4387,145.5996,1081.5894,148.5123,1091.29,146.81" style="stroke:#181818;stroke-width:1;"/></g><!--link main to ProcessEnrollment()--><g class="link" data-entity-1="main" data-entity-2="ProcessEnrollment()" data-source-line="43" data-uid="lnk33" id="link_main_ProcessEnrollment()"><path d="M837.28,65.81 C1122.98,68.58 2147.55,80.18 2171,104.29 C2239.05,174.26 2237.81,252.74 2171,323.89 C2134.46,362.8 1372.9677,387.1344 1105.7577,394.5144" fill="none" id="main-to-ProcessEnrollment()" style="stroke:#181818;stroke-width:1;"/><polygon fill="#181818" points="1099.76,394.68,1108.867,398.43,1104.7581,394.542,1108.6461,390.4331,1099.76,394.68" style="stroke:#181818;stroke-width:1;"/></g><!--link CheckEnrollmentEligibility() to CheckPrerequisites()--><g class="link" data-entity-1="CheckEnrollmentEligibility()" data-entity-2="CheckPrerequisites()" data-source-line="45" data-uid="lnk34" id="link_CheckEnrollmentEligibility()_CheckPrerequisites()"><path d="M1207.39,194.07 C1227.01,211.57 1249.5711,231.6776 1269.1811,249.1576" fill="none" id="CheckEnrollmentEligibility()-to-CheckPrerequisites()" style="stroke:#181818;stroke-width:1;"/><polygon fill="#181818" points="1273.66,253.15,1269.6033,244.1754,1269.9276,249.823,1264.28,250.1473,1273.66,253.15" style="stroke:#181818;stroke-width:1;"/></g><!--link CheckEnrollmentEligibility() to CheckCourseCapacity()--><g class="link" data-entity-1="CheckEnrollmentEligibility()" data-entity-2="CheckCourseCapacity()" data-source-line="46" data-uid="lnk35" id="link_CheckEnrollmentEligibility()_CheckCourseCapacity()"><path d="M1257.29,194.07 C1315.5,211.57 1389.9439,233.943 1448.1039,251.423" fill="none" id="CheckEnrollmentEligibility()-to-CheckCourseCapacity()" style="stroke:#181818;stroke-width:1;"/><polygon fill="#181818" points="1453.85,253.15,1446.3822,246.7288,1449.0616,251.7108,1444.0795,254.3902,1453.85,253.15" style="stroke:#181818;stroke-width:1;"/></g><!--link CheckEnrollmentEligibility() to CheckScheduleConflicts()--><g class="link" data-entity-1="CheckEnrollmentEligibility()" data-entity-2="CheckScheduleConflicts()" data-source-line="47" data-uid="lnk36" id="link_CheckEnrollmentEligibility()_CheckScheduleConflicts()"><path d="M1299.51,192.11 C1405.87,210.82 1555.4307,237.1208 1659.3207,255.3908" fill="none" id="CheckEnrollmentEligibility()-to-CheckScheduleConflicts()" style="stroke:#181818;stroke-width:1;"/><polygon fill="#181818" points="1665.23,256.43,1657.0588,250.9316,1660.3056,255.564,1655.6732,258.8107,1665.23,256.43" style="stroke:#181818;stroke-width:1;"/></g><!--link CheckEnrollmentEligibility() to CheckCurrentEnrollment()--><g class="link" data-entity-1="CheckEnrollmentEligibility()" data-entity-2="CheckCurrentEnrollment()" data-source-line="48" data-uid="lnk37" id="link_CheckEnrollmentEligibility()_CheckCurrentEnrollment()"><path d="M1155.53,194.07 C1135.06,211.57 1111.4309,231.7715 1090.9809,249.2515" fill="none" id="CheckEnrollmentEligibility()-to-CheckCurrentEnrollment()" style="stroke:#181818;stroke-width:1;"/><polygon fill="#181818" points="1086.42,253.15,1095.8603,250.3428,1090.2207,249.9013,1090.6623,244.2617,1086.42,253.15" style="stroke:#181818;stroke-width:1;"/></g><!--link ProcessEnrollment() to AddToEnrollmentDatabase()--><g class="link" data-entity-1="ProcessEnrollment()" data-entity-2="AddToEnrollmentDatabase()" data-source-line="50" data-uid="lnk38" id="link_ProcessEnrollment()_AddToEnrollmentDatabase()"><path d="M1099.71,398.4 C1297.13,397.75 1760.19,400.45 1912,438.18 C1947.78,447.08 1980.1725,462.785 2006.9225,477.855" fill="none" id="ProcessEnrollment()-to-AddToEnrollmentDatabase()" style="stroke:#181818;stroke-width:1;"/><polygon fill="#181818" points="2012.15,480.8,2006.2721,472.8975,2007.7937,478.3458,2002.3454,479.8675,2012.15,480.8" style="stroke:#181818;stroke-width:1;"/></g><!--link ProcessEnrollment() to UpdateCourseCapacity()--><g class="link" data-entity-1="ProcessEnrollment()" data-entity-2="UpdateCourseCapacity()" data-source-line="51" data-uid="lnk39" id="link_ProcessEnrollment()_UpdateCourseCapacity()"><path d="M1100.01,399.7 C1254.7,401.62 1562.23,409.1 1666,438.18 C1698.46,447.28 1726.9885,462.6197 1750.8485,477.5997" fill="none" id="ProcessEnrollment()-to-UpdateCourseCapacity()" style="stroke:#181818;stroke-width:1;"/><polygon fill="#181818" points="1755.93,480.79,1750.4346,472.6168,1751.6954,478.1314,1746.1808,479.3922,1755.93,480.79" style="stroke:#181818;stroke-width:1;"/></g><!--link ProcessEnrollment() to SendEnrollmentNotification()--><g class="link" data-entity-1="ProcessEnrollment()" data-entity-2="SendEnrollmentNotification()" data-source-line="52" data-uid="lnk40" id="link_ProcessEnrollment()_SendEnrollmentNotification()"><path d="M1099.78,399.93 C1177.56,402.69 1291.91,411.53 1388,438.18 C1423.44,448.01 1455.7792,463.3316 1482.9392,477.9816" fill="none" id="ProcessEnrollment()-to-SendEnrollmentNotification()" style="stroke:#181818;stroke-width:1;"/><polygon fill="#181818" points="1488.22,480.83,1482.1978,473.0369,1483.8194,478.4563,1478.3999,480.0779,1488.22,480.83" style="stroke:#181818;stroke-width:1;"/></g><!--SRC=[ZLF1JW8n4BtlLpIUzC0lc2mB6X8mH40FXiFO3Z2XssBRrH3ZlzkwAmMsRDZZl3SpRrxVxe1lOOtiPkOgWSgnGbV68fk0ykKoL6Pxwx2yOTzPnjZR14YnNAwr8RSfbmmiAtqfOBl_MGkBXesKGxC2ZkoXKjoHLZRCOFvx6v3TITXFK5Mv4e_eYeqcZhTtonhtbKRFQ71ShCKLMaHgCwhGQaMcXB3d71iQeqshg8oMCXmu9kjgzEVaYXUG9Fu69YuOsJ-uhR814agB3V9jN3kKjAPtakJsfvIYCYRW1-Of_Efz5mQ-G0uGX2Hrjc5gqE17HPOSshF9jIZm9xQsplW6HIKn62c9Evkof5zPlyzQDjPhuWSpfaPpNqqeRf2e-VWr8xylDTy-8zYZnuiPYBoag04uO3aFUmwASY7cElO5oZlOwDHYvryMB_WnGoLYxvDsj29-cYplqYUQ9hPpdVE8_cHUNlWbMAzttndrI3hFUqIwGnDvoIV8kjkFDhH2StLdsyEhMvEHktvnwZV9aaRKNHsPwEYwb9IEbixy_080]--></g></svg>