<svg xmlns="http://www.w3.org/2000/svg" xmlns:xlink="http://www.w3.org/1999/xlink" contentStyleType="text/css" data-diagram-type="CLASS" height="398px" preserveAspectRatio="none" style="width:362px;height:398px;background:#FFFFFF;" version="1.1" viewBox="0 0 362 398" width="362px" zoomAndPan="magnify"><defs/><g><!--class Student--><g class="entity" data-entity="Student" data-source-line="4" data-uid="ent0002" id="entity_Student"><rect fill="#F1F1F1" height="162.0781" rx="2.5" ry="2.5" style="stroke:#181818;stroke-width:0.5;" width="279.3945" x="41.68" y="229.78"/><ellipse cx="149.5716" cy="245.78" fill="#C2C2C2" rx="11" ry="11" style="stroke:#181818;stroke-width:1;"/><path d="M152.5404,251.4206 Q151.9622,251.7175 151.3216,251.8581 Q150.681,252.0144 149.9779,252.0144 Q147.4779,252.0144 146.1497,250.3738 Q144.8372,248.7175 144.8372,245.5925 Q144.8372,242.4675 146.1497,240.8113 Q147.4779,239.155 149.9779,239.155 Q150.681,239.155 151.3216,239.3113 Q151.9779,239.4675 152.5404,239.7644 L152.5404,242.4831 Q151.9154,241.905 151.3216,241.6394 Q150.7279,241.3581 150.1029,241.3581 Q148.7591,241.3581 148.0716,242.4363 Q147.3841,243.4988 147.3841,245.5925 Q147.3841,247.6863 148.0716,248.7644 Q148.7591,249.8269 150.1029,249.8269 Q150.7279,249.8269 151.3216,249.5613 Q151.9154,249.28 152.5404,248.7019 L152.5404,251.4206 Z " fill="#000000"/><text fill="#000000" font-family="sans-serif" font-size="14" lengthAdjust="spacing" textLength="55.1113" x="170.0716" y="250.6267">Student</text><line style="stroke:#181818;stroke-width:0.5;" x1="42.68" x2="320.0745" y1="261.78" y2="261.78"/><rect fill="none" height="6" style="stroke:#595959;stroke-width:1;" width="6" x="49.68" y="272.4284"/><text fill="#000000" font-family="sans-serif" font-size="14" lengthAdjust="spacing" textLength="122.6504" x="61.68" y="278.7751">student_id: string</text><rect fill="none" height="6" style="stroke:#595959;stroke-width:1;" width="6" x="49.68" y="288.7253"/><text fill="#000000" font-family="sans-serif" font-size="14" lengthAdjust="spacing" textLength="89.0586" x="61.68" y="295.072">name: string</text><rect fill="none" height="6" style="stroke:#595959;stroke-width:1;" width="6" x="49.68" y="305.0222"/><text fill="#000000" font-family="sans-serif" font-size="14" lengthAdjust="spacing" textLength="77.7451" x="61.68" y="311.3689">grades: list</text><line style="stroke:#181818;stroke-width:0.5;" x1="42.68" x2="320.0745" y1="318.6706" y2="318.6706"/><ellipse cx="52.68" cy="332.3191" fill="#A6A6A6" rx="3" ry="3" style="stroke:#545454;stroke-width:1;"/><text fill="#000000" font-family="sans-serif" font-size="14" lengthAdjust="spacing" textLength="201.8311" x="61.68" y="335.6657">\_\_init\_\_(student_id, name)</text><ellipse cx="52.68" cy="348.6159" fill="#A6A6A6" rx="3" ry="3" style="stroke:#545454;stroke-width:1;"/><text fill="#000000" font-family="sans-serif" font-size="14" lengthAdjust="spacing" textLength="182.5674" x="61.68" y="351.9626">add_grade(subject, score)</text><ellipse cx="52.68" cy="364.9128" fill="#A6A6A6" rx="3" ry="3" style="stroke:#545454;stroke-width:1;"/><text fill="#000000" font-family="sans-serif" font-size="14" lengthAdjust="spacing" textLength="138.8447" x="61.68" y="368.2595">get_average(): float</text><ellipse cx="52.68" cy="381.2097" fill="#A6A6A6" rx="3" ry="3" style="stroke:#545454;stroke-width:1;"/><text fill="#000000" font-family="sans-serif" font-size="14" lengthAdjust="spacing" textLength="253.3945" x="61.68" y="384.5564">get_grades_for_subject(subject): list</text></g><!--class Gradebook--><g class="entity" data-entity="Gradebook" data-source-line="14" data-uid="ent0003" id="entity_Gradebook"><rect fill="#F1F1F1" height="145.7813" rx="2.5" ry="2.5" style="stroke:#181818;stroke-width:0.5;" width="348.7588" x="7" y="7"/><ellipse cx="138.7251" cy="23" fill="#C2C2C2" rx="11" ry="11" style="stroke:#181818;stroke-width:1;"/><path d="M141.6938,28.6406 Q141.1157,28.9375 140.4751,29.0781 Q139.8345,29.2344 139.1313,29.2344 Q136.6313,29.2344 135.3032,27.5938 Q133.9907,25.9375 133.9907,22.8125 Q133.9907,19.6875 135.3032,18.0313 Q136.6313,16.375 139.1313,16.375 Q139.8345,16.375 140.4751,16.5313 Q141.1313,16.6875 141.6938,16.9844 L141.6938,19.7031 Q141.0688,19.125 140.4751,18.8594 Q139.8813,18.5781 139.2563,18.5781 Q137.9126,18.5781 137.2251,19.6563 Q136.5376,20.7188 136.5376,22.8125 Q136.5376,24.9063 137.2251,25.9844 Q137.9126,27.0469 139.2563,27.0469 Q139.8813,27.0469 140.4751,26.7813 Q141.0688,26.5 141.6938,25.9219 L141.6938,28.6406 Z " fill="#000000"/><text fill="#000000" font-family="sans-serif" font-size="14" lengthAdjust="spacing" textLength="76.8086" x="159.2251" y="27.8467">Gradebook</text><line style="stroke:#181818;stroke-width:0.5;" x1="8" x2="354.7588" y1="39" y2="39"/><rect fill="none" height="6" style="stroke:#595959;stroke-width:1;" width="6" x="15" y="49.6484"/><text fill="#000000" font-family="sans-serif" font-size="14" lengthAdjust="spacing" textLength="95.9424" x="27" y="55.9951">students: dict</text><line style="stroke:#181818;stroke-width:0.5;" x1="8" x2="354.7588" y1="63.2969" y2="63.2969"/><ellipse cx="18" cy="76.9453" fill="#A6A6A6" rx="3" ry="3" style="stroke:#545454;stroke-width:1;"/><text fill="#000000" font-family="sans-serif" font-size="14" lengthAdjust="spacing" textLength="79.9326" x="27" y="80.292">\_\_init\_\_()</text><ellipse cx="18" cy="93.2422" fill="#A6A6A6" rx="3" ry="3" style="stroke:#545454;stroke-width:1;"/><text fill="#000000" font-family="sans-serif" font-size="14" lengthAdjust="spacing" textLength="151.3135" x="27" y="96.5889">add_student(student)</text><ellipse cx="18" cy="109.5391" fill="#A6A6A6" rx="3" ry="3" style="stroke:#545454;stroke-width:1;"/><text fill="#000000" font-family="sans-serif" font-size="14" lengthAdjust="spacing" textLength="322.7588" x="27" y="112.8857">record_grade(student_id, subject, score): bool</text><ellipse cx="18" cy="125.8359" fill="#A6A6A6" rx="3" ry="3" style="stroke:#545454;stroke-width:1;"/><text fill="#000000" font-family="sans-serif" font-size="14" lengthAdjust="spacing" textLength="231.3418" x="27" y="129.1826">get_class_average(subject): float</text><ellipse cx="18" cy="142.1328" fill="#A6A6A6" rx="3" ry="3" style="stroke:#545454;stroke-width:1;"/><text fill="#000000" font-family="sans-serif" font-size="14" lengthAdjust="spacing" textLength="247.0645" x="27" y="145.4795">generate_report(student_id): string</text></g><!--link Gradebook to Student--><g class="link" data-entity-1="Gradebook" data-entity-2="Student" data-source-line="23" data-uid="lnk4" id="link_Gradebook_Student"><path codeLine="23" d="M181.38,153.01 C181.38,177.26 181.38,198.46 181.38,223.31" fill="none" id="Gradebook-to-Student" style="stroke:#181818;stroke-width:1;"/><polygon fill="#181818" points="181.38,229.31,185.38,220.31,181.38,224.31,177.38,220.31,181.38,229.31" style="stroke:#181818;stroke-width:1;"/><text fill="#000000" font-family="sans-serif" font-size="13" lengthAdjust="spacing" textLength="59.8584" x="182.38" y="195.8469">manages</text><text fill="#000000" font-family="sans-serif" font-size="13" lengthAdjust="spacing" textLength="6.5" x="175.1439" y="218.7334">*</text></g><!--SRC=[RP5DRiCW48NtFiKeAxkDB-15jpr0jv7Gn8mT6WpH34uNLUzUuc1ChR81vitF-q2knjsGSOB9EzzVs4y4WMUg92joGUs_Z1jXG2jKLRr54VW8ioONuBk2k5gGvrqPtSKpn_maE9ne5nePDKa7raXOGgzmKYTbd0cFlTvw7PVo9YMXrcgfhMK-Vr8VZY2zvwoF51JUYN6akkbWi1v38Jt7gi6pIlLhdoPv-LdftX-fP- -lUxxeMfl-NzUbovIzagmIKxIR6GhA7Ky7SROjh2-kCjlc-Y-YYt8WnNJp78h-JNx_2BYXjUqR75uE-IixcD35_l8B]--></g></svg>