<svg xmlns="http://www.w3.org/2000/svg" xmlns:xlink="http://www.w3.org/1999/xlink" contentStyleType="text/css" data-diagram-type="DESCRIPTION" height="344px" preserveAspectRatio="none" style="width:2674px;height:344px;background:#FFFFFF;" version="1.1" viewBox="0 0 2674 344" width="2674px" zoomAndPan="magnify"><defs/><g><!--cluster System Stability Factors--><g class="cluster" data-entity="System Stability Factors" data-source-line="4" data-uid="ent0002" id="cluster_System Stability Factors"><rect fill="none" height="270.59" rx="2.5" ry="2.5" style="stroke:#181818;stroke-width:1;" width="1869" x="7" y="7"/><text fill="#000000" font-family="sans-serif" font-size="14" font-weight="bold" lengthAdjust="spacing" textLength="193.3818" x="844.8091" y="21.9951">System Stability Factors</text></g><!--cluster Control Gain--><g class="cluster" data-entity="Control Gain" data-source-line="5" data-uid="ent0003" id="cluster_Control Gain"><rect fill="none" height="203.59" rx="2.5" ry="2.5" style="stroke:#181818;stroke-width:1;" width="645" x="1207" y="50"/><text fill="#000000" font-family="sans-serif" font-size="14" font-weight="bold" lengthAdjust="spacing" textLength="98.4512" x="1480.2744" y="64.9951">Control Gain</text></g><!--cluster System Delays--><g class="cluster" data-entity="System Delays" data-source-line="12" data-uid="ent0016" id="cluster_System Delays"><rect fill="none" height="203.59" rx="2.5" ry="2.5" style="stroke:#181818;stroke-width:1;" width="620" x="563" y="50"/><text fill="#000000" font-family="sans-serif" font-size="14" font-weight="bold" lengthAdjust="spacing" textLength="116.0127" x="814.9937" y="64.9951">System Delays</text></g><!--cluster Disturbances--><g class="cluster" data-entity="Disturbances" data-source-line="19" data-uid="ent0021" id="cluster_Disturbances"><rect fill="none" height="203.59" rx="2.5" ry="2.5" style="stroke:#181818;stroke-width:1;" width="508" x="31" y="50"/><text fill="#000000" font-family="sans-serif" font-size="14" font-weight="bold" lengthAdjust="spacing" textLength="103.8789" x="233.0605" y="64.9951">Disturbances</text></g><!--entity Low Gain--><g class="entity" data-entity="Low Gain" data-source-line="6" data-uid="ent0004" id="entity_Low Gain"><rect fill="#F1F1F1" height="46.2969" rx="2.5" ry="2.5" style="stroke:#181818;stroke-width:0.5;" width="104.4561" x="1585.77" y="85"/><rect fill="#F1F1F1" height="10" style="stroke:#181818;stroke-width:0.5;" width="15" x="1670.2261" y="90"/><rect fill="#F1F1F1" height="2" style="stroke:#181818;stroke-width:0.5;" width="4" x="1668.2261" y="92"/><rect fill="#F1F1F1" height="2" style="stroke:#181818;stroke-width:0.5;" width="4" x="1668.2261" y="96"/><text fill="#000000" font-family="sans-serif" font-size="14" lengthAdjust="spacing" textLength="64.4561" x="1600.77" y="117.9951">Low Gain</text></g><!--entity Slow Response--><g class="entity" data-entity="Slow Response" data-source-line="6" data-uid="ent0005" id="entity_Slow Response"><rect fill="#F1F1F1" height="46.2969" rx="2.5" ry="2.5" style="stroke:#181818;stroke-width:0.5;" width="145.1094" x="1514.45" y="191.3"/><rect fill="#F1F1F1" height="10" style="stroke:#181818;stroke-width:0.5;" width="15" x="1639.5594" y="196.3"/><rect fill="#F1F1F1" height="2" style="stroke:#181818;stroke-width:0.5;" width="4" x="1637.5594" y="198.3"/><rect fill="#F1F1F1" height="2" style="stroke:#181818;stroke-width:0.5;" width="4" x="1637.5594" y="202.3"/><text fill="#000000" font-family="sans-serif" font-size="14" lengthAdjust="spacing" textLength="105.1094" x="1529.45" y="224.2951">Slow Response</text></g><!--entity High Gain--><g class="entity" data-entity="High Gain" data-source-line="7" data-uid="ent0007" id="entity_High Gain"><rect fill="#F1F1F1" height="46.2969" rx="2.5" ry="2.5" style="stroke:#181818;stroke-width:0.5;" width="108.8174" x="1726.59" y="85"/><rect fill="#F1F1F1" height="10" style="stroke:#181818;stroke-width:0.5;" width="15" x="1815.4074" y="90"/><rect fill="#F1F1F1" height="2" style="stroke:#181818;stroke-width:0.5;" width="4" x="1813.4074" y="92"/><rect fill="#F1F1F1" height="2" style="stroke:#181818;stroke-width:0.5;" width="4" x="1813.4074" y="96"/><text fill="#000000" font-family="sans-serif" font-size="14" lengthAdjust="spacing" textLength="68.8174" x="1741.59" y="117.9951">High Gain</text></g><!--entity Fast Response--><g class="entity" data-entity="Fast Response" data-source-line="7" data-uid="ent0008" id="entity_Fast Response"><rect fill="#F1F1F1" height="46.2969" rx="2.5" ry="2.5" style="stroke:#181818;stroke-width:0.5;" width="141.7324" x="1694.13" y="191.3"/><rect fill="#F1F1F1" height="10" style="stroke:#181818;stroke-width:0.5;" width="15" x="1815.8624" y="196.3"/><rect fill="#F1F1F1" height="2" style="stroke:#181818;stroke-width:0.5;" width="4" x="1813.8624" y="198.3"/><rect fill="#F1F1F1" height="2" style="stroke:#181818;stroke-width:0.5;" width="4" x="1813.8624" y="202.3"/><text fill="#000000" font-family="sans-serif" font-size="14" lengthAdjust="spacing" textLength="101.7324" x="1709.13" y="224.2951">Fast Response</text></g><!--entity Very High Gain--><g class="entity" data-entity="Very High Gain" data-source-line="8" data-uid="ent0010" id="entity_Very High Gain"><rect fill="#F1F1F1" height="46.2969" rx="2.5" ry="2.5" style="stroke:#181818;stroke-width:0.5;" width="145.499" x="1403.25" y="85"/><rect fill="#F1F1F1" height="10" style="stroke:#181818;stroke-width:0.5;" width="15" x="1528.749" y="90"/><rect fill="#F1F1F1" height="2" style="stroke:#181818;stroke-width:0.5;" width="4" x="1526.749" y="92"/><rect fill="#F1F1F1" height="2" style="stroke:#181818;stroke-width:0.5;" width="4" x="1526.749" y="96"/><text fill="#000000" font-family="sans-serif" font-size="14" lengthAdjust="spacing" textLength="105.499" x="1418.25" y="117.9951">Very High Gain</text></g><!--entity Oscillation--><g class="entity" data-entity="Oscillation" data-source-line="8" data-uid="ent0011" id="entity_Oscillation"><rect fill="#F1F1F1" height="46.2969" rx="2.5" ry="2.5" style="stroke:#181818;stroke-width:0.5;" width="113.0762" x="1366.46" y="191.3"/><rect fill="#F1F1F1" height="10" style="stroke:#181818;stroke-width:0.5;" width="15" x="1459.5362" y="196.3"/><rect fill="#F1F1F1" height="2" style="stroke:#181818;stroke-width:0.5;" width="4" x="1457.5362" y="198.3"/><rect fill="#F1F1F1" height="2" style="stroke:#181818;stroke-width:0.5;" width="4" x="1457.5362" y="202.3"/><text fill="#000000" font-family="sans-serif" font-size="14" lengthAdjust="spacing" textLength="73.0762" x="1381.46" y="224.2951">Oscillation</text></g><!--entity Excessive Gain--><g class="entity" data-entity="Excessive Gain" data-source-line="9" data-uid="ent0013" id="entity_Excessive Gain"><rect fill="#F1F1F1" height="46.2969" rx="2.5" ry="2.5" style="stroke:#181818;stroke-width:0.5;" width="145.458" x="1223.27" y="85"/><rect fill="#F1F1F1" height="10" style="stroke:#181818;stroke-width:0.5;" width="15" x="1348.728" y="90"/><rect fill="#F1F1F1" height="2" style="stroke:#181818;stroke-width:0.5;" width="4" x="1346.728" y="92"/><rect fill="#F1F1F1" height="2" style="stroke:#181818;stroke-width:0.5;" width="4" x="1346.728" y="96"/><text fill="#000000" font-family="sans-serif" font-size="14" lengthAdjust="spacing" textLength="105.458" x="1238.27" y="117.9951">Excessive Gain</text></g><!--entity Instability--><g class="entity" data-entity="Instability" data-source-line="9" data-uid="ent0014" id="entity_Instability"><rect fill="#F1F1F1" height="46.2969" rx="2.5" ry="2.5" style="stroke:#181818;stroke-width:0.5;" width="108.6943" x="1222.65" y="191.3"/><rect fill="#F1F1F1" height="10" style="stroke:#181818;stroke-width:0.5;" width="15" x="1311.3443" y="196.3"/><rect fill="#F1F1F1" height="2" style="stroke:#181818;stroke-width:0.5;" width="4" x="1309.3443" y="198.3"/><rect fill="#F1F1F1" height="2" style="stroke:#181818;stroke-width:0.5;" width="4" x="1309.3443" y="202.3"/><text fill="#000000" font-family="sans-serif" font-size="14" lengthAdjust="spacing" textLength="68.6943" x="1237.65" y="224.2951">Instability</text></g><!--entity Processing Delay--><g class="entity" data-entity="Processing Delay" data-source-line="13" data-uid="ent0017" id="entity_Processing Delay"><rect fill="#F1F1F1" height="46.2969" rx="2.5" ry="2.5" style="stroke:#181818;stroke-width:0.5;" width="159.9092" x="1007.05" y="85"/><rect fill="#F1F1F1" height="10" style="stroke:#181818;stroke-width:0.5;" width="15" x="1146.9592" y="90"/><rect fill="#F1F1F1" height="2" style="stroke:#181818;stroke-width:0.5;" width="4" x="1144.9592" y="92"/><rect fill="#F1F1F1" height="2" style="stroke:#181818;stroke-width:0.5;" width="4" x="1144.9592" y="96"/><text fill="#000000" font-family="sans-serif" font-size="14" lengthAdjust="spacing" textLength="119.9092" x="1022.05" y="117.9951">Processing Delay</text></g><!--entity Communication Delay--><g class="entity" data-entity="Communication Delay" data-source-line="14" data-uid="ent0018" id="entity_Communication Delay"><rect fill="#F1F1F1" height="46.2969" rx="2.5" ry="2.5" style="stroke:#181818;stroke-width:0.5;" width="194.9434" x="578.53" y="85"/><rect fill="#F1F1F1" height="10" style="stroke:#181818;stroke-width:0.5;" width="15" x="753.4734" y="90"/><rect fill="#F1F1F1" height="2" style="stroke:#181818;stroke-width:0.5;" width="4" x="751.4734" y="92"/><rect fill="#F1F1F1" height="2" style="stroke:#181818;stroke-width:0.5;" width="4" x="751.4734" y="96"/><text fill="#000000" font-family="sans-serif" font-size="14" lengthAdjust="spacing" textLength="154.9434" x="593.53" y="117.9951">Communication Delay</text></g><!--entity Mechanical Delay--><g class="entity" data-entity="Mechanical Delay" data-source-line="15" data-uid="ent0019" id="entity_Mechanical Delay"><rect fill="#F1F1F1" height="46.2969" rx="2.5" ry="2.5" style="stroke:#181818;stroke-width:0.5;" width="163.3682" x="808.32" y="85"/><rect fill="#F1F1F1" height="10" style="stroke:#181818;stroke-width:0.5;" width="15" x="951.6882" y="90"/><rect fill="#F1F1F1" height="2" style="stroke:#181818;stroke-width:0.5;" width="4" x="949.6882" y="92"/><rect fill="#F1F1F1" height="2" style="stroke:#181818;stroke-width:0.5;" width="4" x="949.6882" y="96"/><text fill="#000000" font-family="sans-serif" font-size="14" lengthAdjust="spacing" textLength="123.3682" x="823.32" y="117.9951">Mechanical Delay</text></g><!--entity Sensor Delay--><g class="entity" data-entity="Sensor Delay" data-source-line="16" data-uid="ent0020" id="entity_Sensor Delay"><rect fill="#F1F1F1" height="46.2969" rx="2.5" ry="2.5" style="stroke:#181818;stroke-width:0.5;" width="132.5859" x="609.71" y="191.3"/><rect fill="#F1F1F1" height="10" style="stroke:#181818;stroke-width:0.5;" width="15" x="722.2959" y="196.3"/><rect fill="#F1F1F1" height="2" style="stroke:#181818;stroke-width:0.5;" width="4" x="720.2959" y="198.3"/><rect fill="#F1F1F1" height="2" style="stroke:#181818;stroke-width:0.5;" width="4" x="720.2959" y="202.3"/><text fill="#000000" font-family="sans-serif" font-size="14" lengthAdjust="spacing" textLength="92.5859" x="624.71" y="224.2951">Sensor Delay</text></g><!--entity External Forces--><g class="entity" data-entity="External Forces" data-source-line="20" data-uid="ent0022" id="entity_External Forces"><rect fill="#F1F1F1" height="46.2969" rx="2.5" ry="2.5" style="stroke:#181818;stroke-width:0.5;" width="148.7598" x="374.62" y="85"/><rect fill="#F1F1F1" height="10" style="stroke:#181818;stroke-width:0.5;" width="15" x="503.3798" y="90"/><rect fill="#F1F1F1" height="2" style="stroke:#181818;stroke-width:0.5;" width="4" x="501.3798" y="92"/><rect fill="#F1F1F1" height="2" style="stroke:#181818;stroke-width:0.5;" width="4" x="501.3798" y="96"/><text fill="#000000" font-family="sans-serif" font-size="14" lengthAdjust="spacing" textLength="108.7598" x="389.62" y="117.9951">External Forces</text></g><!--entity Noise--><g class="entity" data-entity="Noise" data-source-line="21" data-uid="ent0023" id="entity_Noise"><rect fill="#F1F1F1" height="46.2969" rx="2.5" ry="2.5" style="stroke:#181818;stroke-width:0.5;" width="78.835" x="46.58" y="85"/><rect fill="#F1F1F1" height="10" style="stroke:#181818;stroke-width:0.5;" width="15" x="105.415" y="90"/><rect fill="#F1F1F1" height="2" style="stroke:#181818;stroke-width:0.5;" width="4" x="103.415" y="92"/><rect fill="#F1F1F1" height="2" style="stroke:#181818;stroke-width:0.5;" width="4" x="103.415" y="96"/><text fill="#000000" font-family="sans-serif" font-size="14" lengthAdjust="spacing" textLength="38.835" x="61.58" y="117.9951">Noise</text></g><!--entity Parameter Changes--><g class="entity" data-entity="Parameter Changes" data-source-line="22" data-uid="ent0024" id="entity_Parameter Changes"><rect fill="#F1F1F1" height="46.2969" rx="2.5" ry="2.5" style="stroke:#181818;stroke-width:0.5;" width="178.8105" x="160.59" y="85"/><rect fill="#F1F1F1" height="10" style="stroke:#181818;stroke-width:0.5;" width="15" x="319.4005" y="90"/><rect fill="#F1F1F1" height="2" style="stroke:#181818;stroke-width:0.5;" width="4" x="317.4005" y="92"/><rect fill="#F1F1F1" height="2" style="stroke:#181818;stroke-width:0.5;" width="4" x="317.4005" y="96"/><text fill="#000000" font-family="sans-serif" font-size="14" lengthAdjust="spacing" textLength="138.8105" x="175.59" y="117.9951">Parameter Changes</text></g><!--entity Load Variations--><g class="entity" data-entity="Load Variations" data-source-line="23" data-uid="ent0025" id="entity_Load Variations"><rect fill="#F1F1F1" height="46.2969" rx="2.5" ry="2.5" style="stroke:#181818;stroke-width:0.5;" width="148.7734" x="46.61" y="191.3"/><rect fill="#F1F1F1" height="10" style="stroke:#181818;stroke-width:0.5;" width="15" x="175.3834" y="196.3"/><rect fill="#F1F1F1" height="2" style="stroke:#181818;stroke-width:0.5;" width="4" x="173.3834" y="198.3"/><rect fill="#F1F1F1" height="2" style="stroke:#181818;stroke-width:0.5;" width="4" x="173.3834" y="202.3"/><text fill="#000000" font-family="sans-serif" font-size="14" lengthAdjust="spacing" textLength="108.7734" x="61.61" y="224.2951">Load Variations</text></g><!--entity Stable but Slow--><g class="entity" data-entity="Stable but Slow" data-source-line="27" data-uid="ent0026" id="entity_Stable but Slow"><rect fill="#F1F1F1" height="46.2969" rx="2.5" ry="2.5" style="stroke:#181818;stroke-width:0.5;" width="149.2861" x="2242.36" y="191.3"/><rect fill="#F1F1F1" height="10" style="stroke:#181818;stroke-width:0.5;" width="15" x="2371.6461" y="196.3"/><rect fill="#F1F1F1" height="2" style="stroke:#181818;stroke-width:0.5;" width="4" x="2369.6461" y="198.3"/><rect fill="#F1F1F1" height="2" style="stroke:#181818;stroke-width:0.5;" width="4" x="2369.6461" y="202.3"/><text fill="#000000" font-family="sans-serif" font-size="14" lengthAdjust="spacing" textLength="109.2861" x="2257.36" y="224.2951">Stable but Slow</text></g><!--entity Fast but Potentially Unstable--><g class="entity" data-entity="Fast but Potentially Unstable" data-source-line="28" data-uid="ent0028" id="entity_Fast but Potentially Unstable"><rect fill="#F1F1F1" height="46.2969" rx="2.5" ry="2.5" style="stroke:#181818;stroke-width:0.5;" width="241.8926" x="2427.05" y="191.3"/><rect fill="#F1F1F1" height="10" style="stroke:#181818;stroke-width:0.5;" width="15" x="2648.9426" y="196.3"/><rect fill="#F1F1F1" height="2" style="stroke:#181818;stroke-width:0.5;" width="4" x="2646.9426" y="198.3"/><rect fill="#F1F1F1" height="2" style="stroke:#181818;stroke-width:0.5;" width="4" x="2646.9426" y="202.3"/><text fill="#000000" font-family="sans-serif" font-size="14" lengthAdjust="spacing" textLength="201.8926" x="2442.05" y="224.2951">Fast but Potentially Unstable</text></g><!--entity Phase Lag--><g class="entity" data-entity="Phase Lag" data-source-line="29" data-uid="ent0030" id="entity_Phase Lag"><rect fill="#F1F1F1" height="46.2969" rx="2.5" ry="2.5" style="stroke:#181818;stroke-width:0.5;" width="111.5176" x="2096.24" y="191.3"/><rect fill="#F1F1F1" height="10" style="stroke:#181818;stroke-width:0.5;" width="15" x="2187.7576" y="196.3"/><rect fill="#F1F1F1" height="2" style="stroke:#181818;stroke-width:0.5;" width="4" x="2185.7576" y="198.3"/><rect fill="#F1F1F1" height="2" style="stroke:#181818;stroke-width:0.5;" width="4" x="2185.7576" y="202.3"/><text fill="#000000" font-family="sans-serif" font-size="14" lengthAdjust="spacing" textLength="71.5176" x="2111.24" y="224.2951">Phase Lag</text></g><!--entity Steady State Error--><g class="entity" data-entity="Steady State Error" data-source-line="30" data-uid="ent0032" id="entity_Steady State Error"><rect fill="#F1F1F1" height="46.2969" rx="2.5" ry="2.5" style="stroke:#181818;stroke-width:0.5;" width="169.377" x="1892.31" y="191.3"/><rect fill="#F1F1F1" height="10" style="stroke:#181818;stroke-width:0.5;" width="15" x="2041.687" y="196.3"/><rect fill="#F1F1F1" height="2" style="stroke:#181818;stroke-width:0.5;" width="4" x="2039.687" y="198.3"/><rect fill="#F1F1F1" height="2" style="stroke:#181818;stroke-width:0.5;" width="4" x="2039.687" y="202.3"/><text fill="#000000" font-family="sans-serif" font-size="14" lengthAdjust="spacing" textLength="129.377" x="1907.31" y="224.2951">Steady State Error</text></g><g class="entity" data-entity="GMN34" data-source-line="32" data-uid="ent0035" id="entity_GMN34"><path d="M1866.59,297.59 L1866.59,337.8556 A0,0 0 0 0 1866.59,337.8556 L2087.4015,337.8556 A0,0 0 0 0 2087.4015,337.8556 L2087.4015,307.59 L2077.4015,297.59 L1981,297.59 L1977,237.92 L1973,297.59 L1866.59,297.59 A0,0 0 0 0 1866.59,297.59" fill="#FAFAFA" style="stroke:#181818;stroke-width:0.5;"/><path d="M2077.4015,297.59 L2077.4015,307.59 L2087.4015,307.59 L2077.4015,297.59" fill="#FAFAFA" style="stroke:#181818;stroke-width:0.5;"/><text fill="#000000" font-family="sans-serif" font-size="13" lengthAdjust="spacing" textLength="199.8115" x="1872.59" y="314.6569">Balance between performance</text><text fill="#000000" font-family="sans-serif" font-size="13" lengthAdjust="spacing" textLength="122.1733" x="1872.59" y="329.7897">and stability is key</text></g><!--link Low Gain to Slow Response--><g class="link" data-entity-1="Low Gain" data-entity-2="Slow Response" data-source-line="6" data-uid="lnk6" id="link_Low Gain_Slow Response"><path d="M1626.93,131.78 C1618.38,149.27 1609.2263,167.9902 1600.6763,185.4702" fill="none" id="Low Gain-to-Slow Response" style="stroke:#181818;stroke-width:1;"/><polygon fill="#181818" points="1598.04,190.86,1605.5877,184.5329,1600.2369,186.3685,1598.4013,181.0178,1598.04,190.86" style="stroke:#181818;stroke-width:1;"/></g><!--link High Gain to Fast Response--><g class="link" data-entity-1="High Gain" data-entity-2="Fast Response" data-source-line="7" data-uid="lnk9" id="link_High Gain_Fast Response"><path d="M1777.53,131.78 C1774.84,149.27 1772.0626,167.4498 1769.3726,184.9298" fill="none" id="High Gain-to-Fast Response" style="stroke:#181818;stroke-width:1;"/><polygon fill="#181818" points="1768.46,190.86,1773.7824,182.5731,1769.2205,185.9182,1765.8754,181.3563,1768.46,190.86" style="stroke:#181818;stroke-width:1;"/></g><!--link Very High Gain to Oscillation--><g class="link" data-entity-1="Very High Gain" data-entity-2="Oscillation" data-source-line="8" data-uid="lnk12" id="link_Very High Gain_Oscillation"><path d="M1464.5,131.78 C1455.61,149.27 1446.0775,168.0307 1437.1975,185.5107" fill="none" id="Very High Gain-to-Oscillation" style="stroke:#181818;stroke-width:1;"/><polygon fill="#181818" points="1434.48,190.86,1442.1225,184.6477,1436.7446,186.4022,1434.99,181.0244,1434.48,190.86" style="stroke:#181818;stroke-width:1;"/></g><!--link Excessive Gain to Instability--><g class="link" data-entity-1="Excessive Gain" data-entity-2="Instability" data-source-line="9" data-uid="lnk15" id="link_Excessive Gain_Instability"><path d="M1291.88,131.78 C1288.69,149.27 1285.3772,167.4775 1282.1872,184.9575" fill="none" id="Excessive Gain-to-Instability" style="stroke:#181818;stroke-width:1;"/><polygon fill="#181818" points="1281.11,190.86,1286.6608,182.7243,1282.0076,185.9412,1278.7908,181.2881,1281.11,190.86" style="stroke:#181818;stroke-width:1;"/></g><!--link Low Gain to Stable but Slow--><g class="link" data-entity-1="Low Gain" data-entity-2="Stable but Slow" data-source-line="27" data-uid="lnk27" id="link_Low Gain_Stable but Slow"><path d="M1690.44,126.71 C1696.65,128.43 1702.94,130.01 1709,131.3 C1934.85,179.22 1997.69,150.87 2225,191.3 C2230.58,192.29 2230.4557,192.1983 2236.2257,193.3983" fill="none" id="Low Gain-to-Stable but Slow" style="stroke:#181818;stroke-width:1;"/><polygon fill="#181818" points="2242.1,194.62,2234.103,188.8713,2237.2047,193.6019,2232.4741,196.7037,2242.1,194.62" style="stroke:#181818;stroke-width:1;"/></g><!--link High Gain to Fast but Potentially Unstable--><g class="link" data-entity-1="High Gain" data-entity-2="Fast but Potentially Unstable" data-source-line="28" data-uid="lnk29" id="link_High Gain_Fast but Potentially Unstable"><path d="M1835.67,115.78 C1944.8,129.13 2197.35,160.6 2409,191.3 C2414.8,192.14 2414.8064,192.13 2420.8064,193.03" fill="none" id="High Gain-to-Fast but Potentially Unstable" style="stroke:#181818;stroke-width:1;"/><polygon fill="#181818" points="2426.74,193.92,2418.4329,188.6292,2421.7953,193.1783,2417.2462,196.5407,2426.74,193.92" style="stroke:#181818;stroke-width:1;"/></g><!--link Processing Delay to Phase Lag--><g class="link" data-entity-1="Processing Delay" data-entity-2="Phase Lag" data-source-line="29" data-uid="lnk31" id="link_Processing Delay_Phase Lag"><path d="M1167.17,125.25 C1180.43,127.54 1194.07,129.67 1207,131.3 C1592.41,179.96 1696.92,121.12 2079,191.3 C2084.6,192.33 2084.5676,192.1415 2090.3076,193.6115" fill="none" id="Processing Delay-to-Phase Lag" style="stroke:#181818;stroke-width:1;"/><polygon fill="#181818" points="2096.12,195.1,2088.3937,188.9922,2091.2763,193.8595,2086.409,196.7421,2096.12,195.1" style="stroke:#181818;stroke-width:1;"/></g><!--link External Forces to Steady State Error--><g class="link" data-entity-1="External Forces" data-entity-2="Steady State Error" data-source-line="30" data-uid="lnk33" id="link_External Forces_Steady State Error"><path d="M523.87,125.3 C536.87,127.65 550.29,129.77 563,131.3 C1132.44,199.5 1282.02,127.8 1852,191.3 C1864.92,192.74 1872.607,193.7318 1885.897,195.8818" fill="none" id="External Forces-to-Steady State Error" style="stroke:#181818;stroke-width:1;"/><polygon fill="#181818" points="1891.82,196.84,1883.5743,191.454,1886.8842,196.0415,1882.2967,199.3514,1891.82,196.84" style="stroke:#181818;stroke-width:1;"/></g><!--SRC=[RPB1Ki9038RlVOgCTrx0WmSHr1bKHaOkoY4jeTrncp1943kEx-wsYXRgtZR_rysVFxNNm5jKhA4Mbg9IgGbSTvJPhs8LhcKVk8GDHgCiKoeSkOm4Pul6d6fOEEOX1czWYeMBsXbyP91E3nqBkqg4QmnyaDlpF9DzLrp1Q7G1pukOxezaMs6ZrHzs4yggpqtH_3zkITh0AVnWHOWHFGZtqCbxGMRXZVheBTjXcc_qCpiTvMVgAuhOsD4iSvNkoHHMf_QQZQMkTnoApiH0lQEYmbQD0sb1RABzyj3HLJ3VQOwSkXyPchmxAQTNfw99wprxB-4ejtcxR4eqZ9EJyeYT2QvXYHewytPmaNmCjfUoIuRodKExo5Ns_zvQVIvEx05ZRE2f2pqcFyC8lp-RLsW4ComJSZhKeJNXkcd_HIUOg8gkienJ4yZ5NMeuXqkCRKIGa- -96BQa6z6whRqmyXf-Lm_1u9MQBm00]--></g></svg>