<svg xmlns="http://www.w3.org/2000/svg" xmlns:xlink="http://www.w3.org/1999/xlink" contentStyleType="text/css" data-diagram-type="DESCRIPTION" height="742px" preserveAspectRatio="none" style="width:634px;height:742px;background:#FFFFFF;" version="1.1" viewBox="0 0 634 742" width="634px" zoomAndPan="magnify"><defs/><g><!--cluster Closed Loop System--><g class="cluster" data-entity="Closed Loop System" data-source-line="4" data-uid="ent0002" id="cluster_Closed Loop System"><rect fill="none" height="729.05" rx="2.5" ry="2.5" style="stroke:#181818;stroke-width:1;" width="203" x="7" y="7"/><text fill="#000000" font-family="sans-serif" font-size="14" font-weight="bold" lengthAdjust="spacing" textLength="158.7852" x="29.1074" y="21.9951">Closed Loop System</text></g><!--cluster Example: Thermostat--><g class="cluster" data-entity="Example: Thermostat" data-source-line="15" data-uid="ent0018" id="cluster_Example: Thermostat"><rect fill="none" height="628.78" rx="2.5" ry="2.5" style="stroke:#181818;stroke-width:1;" width="394" x="234" y="7"/><text fill="#000000" font-family="sans-serif" font-size="14" font-weight="bold" lengthAdjust="spacing" textLength="168.7041" x="346.6479" y="21.9951">Example: Thermostat</text></g><!--entity Input Command--><g class="entity" data-entity="Input Command" data-source-line="5" data-uid="ent0003" id="entity_Input Command"><rect fill="#F1F1F1" height="46.2969" rx="2.5" ry="2.5" style="stroke:#181818;stroke-width:0.5;" width="152.6563" x="31.67" y="42"/><rect fill="#F1F1F1" height="10" style="stroke:#181818;stroke-width:0.5;" width="15" x="164.3263" y="47"/><rect fill="#F1F1F1" height="2" style="stroke:#181818;stroke-width:0.5;" width="4" x="162.3263" y="49"/><rect fill="#F1F1F1" height="2" style="stroke:#181818;stroke-width:0.5;" width="4" x="162.3263" y="53"/><text fill="#000000" font-family="sans-serif" font-size="14" lengthAdjust="spacing" textLength="112.6563" x="46.67" y="74.9951">Input Command</text></g><!--entity Controller--><g class="entity" data-entity="Controller" data-source-line="5" data-uid="ent0004" id="entity_Controller"><rect fill="#F1F1F1" height="46.2969" rx="2.5" ry="2.5" style="stroke:#181818;stroke-width:0.5;" width="109.1729" x="53.41" y="148.3"/><rect fill="#F1F1F1" height="10" style="stroke:#181818;stroke-width:0.5;" width="15" x="142.5829" y="153.3"/><rect fill="#F1F1F1" height="2" style="stroke:#181818;stroke-width:0.5;" width="4" x="140.5829" y="155.3"/><rect fill="#F1F1F1" height="2" style="stroke:#181818;stroke-width:0.5;" width="4" x="140.5829" y="159.3"/><text fill="#000000" font-family="sans-serif" font-size="14" lengthAdjust="spacing" textLength="69.1729" x="68.41" y="181.2951">Controller</text></g><!--entity Process/Plant--><g class="entity" data-entity="Process/Plant" data-source-line="6" data-uid="ent0006" id="entity_Process/Plant"><rect fill="#F1F1F1" height="46.2969" rx="2.5" ry="2.5" style="stroke:#181818;stroke-width:0.5;" width="133.6523" x="23.17" y="254.6"/><rect fill="#F1F1F1" height="10" style="stroke:#181818;stroke-width:0.5;" width="15" x="136.8223" y="259.6"/><rect fill="#F1F1F1" height="2" style="stroke:#181818;stroke-width:0.5;" width="4" x="134.8223" y="261.6"/><rect fill="#F1F1F1" height="2" style="stroke:#181818;stroke-width:0.5;" width="4" x="134.8223" y="265.6"/><text fill="#000000" font-family="sans-serif" font-size="14" lengthAdjust="spacing" textLength="93.6523" x="38.17" y="287.5951">Process/Plant</text></g><!--entity Output--><g class="entity" data-entity="Output" data-source-line="7" data-uid="ent0008" id="entity_Output"><rect fill="#F1F1F1" height="46.2969" rx="2.5" ry="2.5" style="stroke:#181818;stroke-width:0.5;" width="88.6309" x="49.68" y="360.89"/><rect fill="#F1F1F1" height="10" style="stroke:#181818;stroke-width:0.5;" width="15" x="118.3109" y="365.89"/><rect fill="#F1F1F1" height="2" style="stroke:#181818;stroke-width:0.5;" width="4" x="116.3109" y="367.89"/><rect fill="#F1F1F1" height="2" style="stroke:#181818;stroke-width:0.5;" width="4" x="116.3109" y="371.89"/><text fill="#000000" font-family="sans-serif" font-size="14" lengthAdjust="spacing" textLength="48.6309" x="64.68" y="393.8851">Output</text></g><!--entity Sensor--><g class="entity" data-entity="Sensor" data-source-line="8" data-uid="ent0010" id="entity_Sensor"><rect fill="#F1F1F1" height="46.2969" rx="2.5" ry="2.5" style="stroke:#181818;stroke-width:0.5;" width="87.9883" x="55.01" y="467.19"/><rect fill="#F1F1F1" height="10" style="stroke:#181818;stroke-width:0.5;" width="15" x="122.9983" y="472.19"/><rect fill="#F1F1F1" height="2" style="stroke:#181818;stroke-width:0.5;" width="4" x="120.9983" y="474.19"/><rect fill="#F1F1F1" height="2" style="stroke:#181818;stroke-width:0.5;" width="4" x="120.9983" y="478.19"/><text fill="#000000" font-family="sans-serif" font-size="14" lengthAdjust="spacing" textLength="47.9883" x="70.01" y="500.1851">Sensor</text></g><!--entity Feedback--><g class="entity" data-entity="Feedback" data-source-line="9" data-uid="ent0012" id="entity_Feedback"><rect fill="#F1F1F1" height="46.2969" rx="2.5" ry="2.5" style="stroke:#181818;stroke-width:0.5;" width="107.4365" x="54.28" y="573.49"/><rect fill="#F1F1F1" height="10" style="stroke:#181818;stroke-width:0.5;" width="15" x="141.7165" y="578.49"/><rect fill="#F1F1F1" height="2" style="stroke:#181818;stroke-width:0.5;" width="4" x="139.7165" y="580.49"/><rect fill="#F1F1F1" height="2" style="stroke:#181818;stroke-width:0.5;" width="4" x="139.7165" y="584.49"/><text fill="#000000" font-family="sans-serif" font-size="14" lengthAdjust="spacing" textLength="67.4365" x="69.28" y="606.4851">Feedback</text></g><g class="entity" data-entity="GMN15" data-source-line="12" data-uid="ent0016" id="entity_GMN15"><path d="M23.24,679.78 L23.24,720.0456 A0,0 0 0 0 23.24,720.0456 L192.7625,720.0456 A0,0 0 0 0 192.7625,720.0456 L192.7625,689.78 L182.7625,679.78 L112,679.78 L108,620.11 L104,679.78 L23.24,679.78 A0,0 0 0 0 23.24,679.78" fill="#FAFAFA" style="stroke:#181818;stroke-width:0.5;"/><path d="M182.7625,679.78 L182.7625,689.78 L192.7625,689.78 L182.7625,679.78" fill="#FAFAFA" style="stroke:#181818;stroke-width:0.5;"/><text fill="#000000" font-family="sans-serif" font-size="13" lengthAdjust="spacing" textLength="148.5225" x="29.24" y="696.8469">Continuous monitoring</text><text fill="#000000" font-family="sans-serif" font-size="13" lengthAdjust="spacing" textLength="102.5273" x="29.24" y="711.9797">and adjustment</text></g><!--entity Temperature Setting--><g class="entity" data-entity="Temperature Setting" data-source-line="16" data-uid="ent0019" id="entity_Temperature Setting"><rect fill="#F1F1F1" height="46.2969" rx="2.5" ry="2.5" style="stroke:#181818;stroke-width:0.5;" width="185.9473" x="381.03" y="42"/><rect fill="#F1F1F1" height="10" style="stroke:#181818;stroke-width:0.5;" width="15" x="546.9773" y="47"/><rect fill="#F1F1F1" height="2" style="stroke:#181818;stroke-width:0.5;" width="4" x="544.9773" y="49"/><rect fill="#F1F1F1" height="2" style="stroke:#181818;stroke-width:0.5;" width="4" x="544.9773" y="53"/><text fill="#000000" font-family="sans-serif" font-size="14" lengthAdjust="spacing" textLength="145.9473" x="396.03" y="74.9951">Temperature Setting</text></g><!--entity Control Logic--><g class="entity" data-entity="Control Logic" data-source-line="16" data-uid="ent0020" id="entity_Control Logic"><rect fill="#F1F1F1" height="46.2969" rx="2.5" ry="2.5" style="stroke:#181818;stroke-width:0.5;" width="132.2031" x="407.9" y="148.3"/><rect fill="#F1F1F1" height="10" style="stroke:#181818;stroke-width:0.5;" width="15" x="520.1031" y="153.3"/><rect fill="#F1F1F1" height="2" style="stroke:#181818;stroke-width:0.5;" width="4" x="518.1031" y="155.3"/><rect fill="#F1F1F1" height="2" style="stroke:#181818;stroke-width:0.5;" width="4" x="518.1031" y="159.3"/><text fill="#000000" font-family="sans-serif" font-size="14" lengthAdjust="spacing" textLength="92.2031" x="422.9" y="181.2951">Control Logic</text></g><!--entity Heater--><g class="entity" data-entity="Heater" data-source-line="17" data-uid="ent0022" id="entity_Heater"><rect fill="#F1F1F1" height="46.2969" rx="2.5" ry="2.5" style="stroke:#181818;stroke-width:0.5;" width="87.5781" x="250.21" y="254.6"/><rect fill="#F1F1F1" height="10" style="stroke:#181818;stroke-width:0.5;" width="15" x="317.7881" y="259.6"/><rect fill="#F1F1F1" height="2" style="stroke:#181818;stroke-width:0.5;" width="4" x="315.7881" y="261.6"/><rect fill="#F1F1F1" height="2" style="stroke:#181818;stroke-width:0.5;" width="4" x="315.7881" y="265.6"/><text fill="#000000" font-family="sans-serif" font-size="14" lengthAdjust="spacing" textLength="47.5781" x="265.21" y="287.5951">Heater</text></g><!--entity Room Temperature--><g class="entity" data-entity="Room Temperature" data-source-line="18" data-uid="ent0024" id="entity_Room Temperature"><rect fill="#F1F1F1" height="46.2969" rx="2.5" ry="2.5" style="stroke:#181818;stroke-width:0.5;" width="176.3154" x="320.84" y="360.89"/><rect fill="#F1F1F1" height="10" style="stroke:#181818;stroke-width:0.5;" width="15" x="477.1554" y="365.89"/><rect fill="#F1F1F1" height="2" style="stroke:#181818;stroke-width:0.5;" width="4" x="475.1554" y="367.89"/><rect fill="#F1F1F1" height="2" style="stroke:#181818;stroke-width:0.5;" width="4" x="475.1554" y="371.89"/><text fill="#000000" font-family="sans-serif" font-size="14" lengthAdjust="spacing" textLength="136.3154" x="335.84" y="393.8851">Room Temperature</text></g><!--entity Temperature Sensor--><g class="entity" data-entity="Temperature Sensor" data-source-line="19" data-uid="ent0026" id="entity_Temperature Sensor"><rect fill="#F1F1F1" height="46.2969" rx="2.5" ry="2.5" style="stroke:#181818;stroke-width:0.5;" width="183.8076" x="324.1" y="467.19"/><rect fill="#F1F1F1" height="10" style="stroke:#181818;stroke-width:0.5;" width="15" x="487.9076" y="472.19"/><rect fill="#F1F1F1" height="2" style="stroke:#181818;stroke-width:0.5;" width="4" x="485.9076" y="474.19"/><rect fill="#F1F1F1" height="2" style="stroke:#181818;stroke-width:0.5;" width="4" x="485.9076" y="478.19"/><text fill="#000000" font-family="sans-serif" font-size="14" lengthAdjust="spacing" textLength="143.8076" x="339.1" y="500.1851">Temperature Sensor</text></g><!--entity Measured Temperature--><g class="entity" data-entity="Measured Temperature" data-source-line="20" data-uid="ent0028" id="entity_Measured Temperature"><rect fill="#F1F1F1" height="46.2969" rx="2.5" ry="2.5" style="stroke:#181818;stroke-width:0.5;" width="204.5137" x="316.74" y="573.49"/><rect fill="#F1F1F1" height="10" style="stroke:#181818;stroke-width:0.5;" width="15" x="501.2537" y="578.49"/><rect fill="#F1F1F1" height="2" style="stroke:#181818;stroke-width:0.5;" width="4" x="499.2537" y="580.49"/><rect fill="#F1F1F1" height="2" style="stroke:#181818;stroke-width:0.5;" width="4" x="499.2537" y="584.49"/><text fill="#000000" font-family="sans-serif" font-size="14" lengthAdjust="spacing" textLength="164.5137" x="331.74" y="606.4851">Measured Temperature</text></g><g class="entity" data-entity="GMN31" data-source-line="23" data-uid="ent0032" id="entity_GMN31"><path d="M372.93,257.61 L372.93,297.8756 A0,0 0 0 0 372.93,297.8756 L575.0794,297.8756 A0,0 0 0 0 575.0794,297.8756 L575.0794,267.61 L565.0794,257.61 L478,257.61 L474,195.08 L470,257.61 L372.93,257.61 A0,0 0 0 0 372.93,257.61" fill="#FAFAFA" style="stroke:#181818;stroke-width:0.5;"/><path d="M565.0794,257.61 L565.0794,267.61 L575.0794,267.61 L565.0794,257.61" fill="#FAFAFA" style="stroke:#181818;stroke-width:0.5;"/><text fill="#000000" font-family="sans-serif" font-size="13" lengthAdjust="spacing" textLength="181.1494" x="378.93" y="274.6769">Compares desired vs actual</text><text fill="#000000" font-family="sans-serif" font-size="13" lengthAdjust="spacing" textLength="81.999" x="378.93" y="289.8097">temperature</text></g><!--link Input Command to Controller--><g class="link" data-entity-1="Input Command" data-entity-2="Controller" data-source-line="5" data-uid="lnk5" id="link_Input Command_Controller"><path d="M108,88.78 C108,106.28 108,124.38 108,141.86" fill="none" id="Input Command-to-Controller" style="stroke:#181818;stroke-width:1;"/><polygon fill="#181818" points="108,147.86,112,138.86,108,142.86,104,138.86,108,147.86" style="stroke:#181818;stroke-width:1;"/></g><!--link Controller to Process/Plant--><g class="link" data-entity-1="Controller" data-entity-2="Process/Plant" data-source-line="6" data-uid="lnk7" id="link_Controller_Process/Plant"><path d="M104.09,195.08 C101.08,212.57 97.9415,230.7676 94.9215,248.2476" fill="none" id="Controller-to-Process/Plant" style="stroke:#181818;stroke-width:1;"/><polygon fill="#181818" points="93.9,254.16,99.3738,245.9724,94.7512,249.233,91.4906,244.6104,93.9,254.16" style="stroke:#181818;stroke-width:1;"/></g><!--link Process/Plant to Output--><g class="link" data-entity-1="Process/Plant" data-entity-2="Output" data-source-line="7" data-uid="lnk9" id="link_Process/Plant_Output"><path d="M90.87,301.38 C91.54,318.87 92.2303,336.9744 92.9003,354.4644" fill="none" id="Process/Plant-to-Output" style="stroke:#181818;stroke-width:1;"/><polygon fill="#181818" points="93.13,360.46,96.7826,351.3135,92.9386,355.4637,88.7884,351.6197,93.13,360.46" style="stroke:#181818;stroke-width:1;"/></g><!--link Output to Sensor--><g class="link" data-entity-1="Output" data-entity-2="Sensor" data-source-line="8" data-uid="lnk11" id="link_Output_Sensor"><path d="M95.08,407.67 C95.92,425.17 96.792,443.2769 97.632,460.7569" fill="none" id="Output-to-Sensor" style="stroke:#181818;stroke-width:1;"/><polygon fill="#181818" points="97.92,466.75,101.4834,457.5684,97.68,461.7558,93.4926,457.9524,97.92,466.75" style="stroke:#181818;stroke-width:1;"/></g><!--link Sensor to Feedback--><g class="link" data-entity-1="Sensor" data-entity-2="Feedback" data-source-line="9" data-uid="lnk13" id="link_Sensor_Feedback"><path d="M100.95,513.97 C102.46,531.46 104.0236,549.5923 105.5336,567.0723" fill="none" id="Sensor-to-Feedback" style="stroke:#181818;stroke-width:1;"/><polygon fill="#181818" points="106.05,573.05,109.2606,563.7391,105.6197,568.0686,101.2903,564.4276,106.05,573.05" style="stroke:#181818;stroke-width:1;"/></g><!--link Feedback to Controller--><g class="link" data-entity-1="Feedback" data-entity-2="Controller" data-source-line="10" data-uid="lnk14" id="link_Feedback_Controller"><path d="M126.62,573.14 C138.45,557.45 152.83,535.47 160,513.49 C220.74,327.11 191.55,304.46 174,254.6 C165.86,231.47 152.3815,214.3137 137.3615,199.1437" fill="none" id="Feedback-to-Controller" style="stroke:#181818;stroke-width:1;"/><polygon fill="#181818" points="133.14,194.88,136.6298,204.0898,136.6579,198.4331,142.3147,198.4612,133.14,194.88" style="stroke:#181818;stroke-width:1;"/></g><!--link Temperature Setting to Control Logic--><g class="link" data-entity-1="Temperature Setting" data-entity-2="Control Logic" data-source-line="16" data-uid="lnk21" id="link_Temperature Setting_Control Logic"><path d="M474,88.78 C474,106.28 474,124.38 474,141.86" fill="none" id="Temperature Setting-to-Control Logic" style="stroke:#181818;stroke-width:1;"/><polygon fill="#181818" points="474,147.86,478,138.86,474,142.86,470,138.86,474,147.86" style="stroke:#181818;stroke-width:1;"/></g><!--link Control Logic to Heater--><g class="link" data-entity-1="Control Logic" data-entity-2="Heater" data-source-line="17" data-uid="lnk23" id="link_Control Logic_Heater"><path d="M434.94,195.08 C404.75,212.57 368.3416,233.6721 338.1716,251.1521" fill="none" id="Control Logic-to-Heater" style="stroke:#181818;stroke-width:1;"/><polygon fill="#181818" points="332.98,254.16,342.7726,253.1092,337.3063,251.6534,338.7621,246.1871,332.98,254.16" style="stroke:#181818;stroke-width:1;"/></g><!--link Heater to Room Temperature--><g class="link" data-entity-1="Heater" data-entity-2="Room Temperature" data-source-line="18" data-uid="lnk25" id="link_Heater_Room Temperature"><path d="M318.95,301.38 C338.24,318.87 360.3761,338.9387 379.6561,356.4287" fill="none" id="Heater-to-Room Temperature" style="stroke:#181818;stroke-width:1;"/><polygon fill="#181818" points="384.1,360.46,380.1217,351.4504,380.3967,357.1006,374.7466,357.3756,384.1,360.46" style="stroke:#181818;stroke-width:1;"/></g><!--link Room Temperature to Temperature Sensor--><g class="link" data-entity-1="Room Temperature" data-entity-2="Temperature Sensor" data-source-line="19" data-uid="lnk27" id="link_Room Temperature_Temperature Sensor"><path d="M410.52,407.67 C411.69,425.17 412.9093,443.2834 414.0793,460.7634" fill="none" id="Room Temperature-to-Temperature Sensor" style="stroke:#181818;stroke-width:1;"/><polygon fill="#181818" points="414.48,466.75,417.87,457.503,414.1461,461.7612,409.8879,458.0372,414.48,466.75" style="stroke:#181818;stroke-width:1;"/></g><!--link Temperature Sensor to Measured Temperature--><g class="link" data-entity-1="Temperature Sensor" data-entity-2="Measured Temperature" data-source-line="20" data-uid="lnk29" id="link_Temperature Sensor_Measured Temperature"><path d="M416.65,513.97 C417.15,531.46 417.6784,549.5725 418.1784,567.0525" fill="none" id="Temperature Sensor-to-Measured Temperature" style="stroke:#181818;stroke-width:1;"/><polygon fill="#181818" points="418.35,573.05,422.091,563.9393,418.207,568.052,414.0943,564.168,418.35,573.05" style="stroke:#181818;stroke-width:1;"/></g><!--link Measured Temperature to Control Logic--><g class="link" data-entity-1="Measured Temperature" data-entity-2="Control Logic" data-source-line="21" data-uid="lnk30" id="link_Measured Temperature_Control Logic"><path d="M458.93,573.04 C481.21,558.6 507.85,538 525,513.49 C581.87,432.21 577.71,398.91 593,300.89 C596.17,280.56 602.56,272.82 593,254.6 C579.06,228.03 557.4706,211.2371 532.8006,197.8171" fill="none" id="Measured Temperature-to-Control Logic" style="stroke:#181818;stroke-width:1;"/><polygon fill="#181818" points="527.53,194.95,533.5245,202.7644,531.9222,197.3393,537.3474,195.7369,527.53,194.95" style="stroke:#181818;stroke-width:1;"/></g><!--SRC=[RPBBJiCm44Nt-OeH-ufz5smg44WWAjfTsyKqcQQXjYVoZ7a8zTzni0a9JNPpxyayhYodnhNeqO9bn-NHioLG7wYGtf4ZLlpUk1eEQ8IAmbEfw6f3SBKmB5J18tCBgqzHibVmLK3yDW-k3GeBjXPTjOFPx0Os2tRgsHZokmGDX4GiFPSaShqqw3H3Oornpq5Z-mpa8ZahSiA__NEHd3kYQe_bANjzURdR3-1O2VQioXRuCEJdqC6D2noa2wvHzZ6VhOkN0bQlGTIIq-8yokhs0srhQ0xh8tdBegXzM6koBNdKu0bMfB5tFLuhHbmtvJYrh2Nkdb3xM7EHd1UE1mm6PEP2JlHuaq6K4qRwuubGebXDp9Yq9k-QJFpVdLtiDhv94gX8cgxlcm2M6j1idVwDACxV]--></g></svg>