<svg xmlns="http://www.w3.org/2000/svg" xmlns:xlink="http://www.w3.org/1999/xlink" contentStyleType="text/css" data-diagram-type="DESCRIPTION" height="429px" preserveAspectRatio="none" style="width:747px;height:429px;background:#FFFFFF;" version="1.1" viewBox="0 0 747 429" width="747px" zoomAndPan="magnify"><defs/><g><!--cluster Open Loop System--><g class="cluster" data-entity="Open Loop System" data-source-line="4" data-uid="ent0002" id="cluster_Open Loop System"><rect fill="none" height="416.19" rx="2.5" ry="2.5" style="stroke:#181818;stroke-width:1;" width="303" x="7" y="7"/><text fill="#000000" font-family="sans-serif" font-size="14" font-weight="bold" lengthAdjust="spacing" textLength="147.6289" x="84.6855" y="21.9951">Open Loop System</text></g><!--cluster Example: Microwave--><g class="cluster" data-entity="Example: Microwave" data-source-line="12" data-uid="ent0013" id="cluster_Example: Microwave"><rect fill="none" height="416.19" rx="2.5" ry="2.5" style="stroke:#181818;stroke-width:1;" width="407" x="334" y="7"/><text fill="#000000" font-family="sans-serif" font-size="14" font-weight="bold" lengthAdjust="spacing" textLength="161.9707" x="456.5146" y="21.9951">Example: Microwave</text></g><!--entity Input Command--><g class="entity" data-entity="Input Command" data-source-line="5" data-uid="ent0003" id="entity_Input Command"><rect fill="#F1F1F1" height="46.2969" rx="2.5" ry="2.5" style="stroke:#181818;stroke-width:0.5;" width="152.6563" x="81.67" y="42"/><rect fill="#F1F1F1" height="10" style="stroke:#181818;stroke-width:0.5;" width="15" x="214.3263" y="47"/><rect fill="#F1F1F1" height="2" style="stroke:#181818;stroke-width:0.5;" width="4" x="212.3263" y="49"/><rect fill="#F1F1F1" height="2" style="stroke:#181818;stroke-width:0.5;" width="4" x="212.3263" y="53"/><text fill="#000000" font-family="sans-serif" font-size="14" lengthAdjust="spacing" textLength="112.6563" x="96.67" y="74.9951">Input Command</text></g><!--entity Controller--><g class="entity" data-entity="Controller" data-source-line="5" data-uid="ent0004" id="entity_Controller"><rect fill="#F1F1F1" height="46.2969" rx="2.5" ry="2.5" style="stroke:#181818;stroke-width:0.5;" width="109.1729" x="103.41" y="148.3"/><rect fill="#F1F1F1" height="10" style="stroke:#181818;stroke-width:0.5;" width="15" x="192.5829" y="153.3"/><rect fill="#F1F1F1" height="2" style="stroke:#181818;stroke-width:0.5;" width="4" x="190.5829" y="155.3"/><rect fill="#F1F1F1" height="2" style="stroke:#181818;stroke-width:0.5;" width="4" x="190.5829" y="159.3"/><text fill="#000000" font-family="sans-serif" font-size="14" lengthAdjust="spacing" textLength="69.1729" x="118.41" y="181.2951">Controller</text></g><!--entity Process/Plant--><g class="entity" data-entity="Process/Plant" data-source-line="6" data-uid="ent0006" id="entity_Process/Plant"><rect fill="#F1F1F1" height="46.2969" rx="2.5" ry="2.5" style="stroke:#181818;stroke-width:0.5;" width="133.6523" x="23.17" y="254.6"/><rect fill="#F1F1F1" height="10" style="stroke:#181818;stroke-width:0.5;" width="15" x="136.8223" y="259.6"/><rect fill="#F1F1F1" height="2" style="stroke:#181818;stroke-width:0.5;" width="4" x="134.8223" y="261.6"/><rect fill="#F1F1F1" height="2" style="stroke:#181818;stroke-width:0.5;" width="4" x="134.8223" y="265.6"/><text fill="#000000" font-family="sans-serif" font-size="14" lengthAdjust="spacing" textLength="93.6523" x="38.17" y="287.5951">Process/Plant</text></g><!--entity Output--><g class="entity" data-entity="Output" data-source-line="7" data-uid="ent0008" id="entity_Output"><rect fill="#F1F1F1" height="46.2969" rx="2.5" ry="2.5" style="stroke:#181818;stroke-width:0.5;" width="88.6309" x="45.68" y="360.89"/><rect fill="#F1F1F1" height="10" style="stroke:#181818;stroke-width:0.5;" width="15" x="114.3109" y="365.89"/><rect fill="#F1F1F1" height="2" style="stroke:#181818;stroke-width:0.5;" width="4" x="112.3109" y="367.89"/><rect fill="#F1F1F1" height="2" style="stroke:#181818;stroke-width:0.5;" width="4" x="112.3109" y="371.89"/><text fill="#000000" font-family="sans-serif" font-size="14" lengthAdjust="spacing" textLength="48.6309" x="60.68" y="393.8851">Output</text></g><g class="entity" data-entity="GMN10" data-source-line="9" data-uid="ent0011" id="entity_GMN10"><path d="M191.74,257.61 L191.74,297.8756 A0,0 0 0 0 191.74,297.8756 L294.2693,297.8756 A0,0 0 0 0 294.2693,297.8756 L294.2693,267.61 L284.2693,257.61 L231.16,257.61 L176.44,195.08 L223.16,257.61 L191.74,257.61 A0,0 0 0 0 191.74,257.61" fill="#FAFAFA" style="stroke:#181818;stroke-width:0.5;"/><path d="M284.2693,257.61 L284.2693,267.61 L294.2693,267.61 L284.2693,257.61" fill="#FAFAFA" style="stroke:#181818;stroke-width:0.5;"/><text fill="#000000" font-family="sans-serif" font-size="13" lengthAdjust="spacing" textLength="81.5293" x="197.74" y="274.6769">No feedback</text><text fill="#000000" font-family="sans-serif" font-size="13" lengthAdjust="spacing" textLength="77.5493" x="197.74" y="289.8097">from output</text></g><!--entity Time Setting--><g class="entity" data-entity="Time Setting" data-source-line="13" data-uid="ent0014" id="entity_Time Setting"><rect fill="#F1F1F1" height="46.2969" rx="2.5" ry="2.5" style="stroke:#181818;stroke-width:0.5;" width="129.2705" x="450.36" y="42"/><rect fill="#F1F1F1" height="10" style="stroke:#181818;stroke-width:0.5;" width="15" x="559.6305" y="47"/><rect fill="#F1F1F1" height="2" style="stroke:#181818;stroke-width:0.5;" width="4" x="557.6305" y="49"/><rect fill="#F1F1F1" height="2" style="stroke:#181818;stroke-width:0.5;" width="4" x="557.6305" y="53"/><text fill="#000000" font-family="sans-serif" font-size="14" lengthAdjust="spacing" textLength="89.2705" x="465.36" y="74.9951">Time Setting</text></g><!--entity Timer Control--><g class="entity" data-entity="Timer Control" data-source-line="13" data-uid="ent0015" id="entity_Timer Control"><rect fill="#F1F1F1" height="46.2969" rx="2.5" ry="2.5" style="stroke:#181818;stroke-width:0.5;" width="135.8125" x="447.09" y="148.3"/><rect fill="#F1F1F1" height="10" style="stroke:#181818;stroke-width:0.5;" width="15" x="562.9025" y="153.3"/><rect fill="#F1F1F1" height="2" style="stroke:#181818;stroke-width:0.5;" width="4" x="560.9025" y="155.3"/><rect fill="#F1F1F1" height="2" style="stroke:#181818;stroke-width:0.5;" width="4" x="560.9025" y="159.3"/><text fill="#000000" font-family="sans-serif" font-size="14" lengthAdjust="spacing" textLength="95.8125" x="462.09" y="181.2951">Timer Control</text></g><!--entity Magnetron--><g class="entity" data-entity="Magnetron" data-source-line="14" data-uid="ent0017" id="entity_Magnetron"><rect fill="#F1F1F1" height="46.2969" rx="2.5" ry="2.5" style="stroke:#181818;stroke-width:0.5;" width="115.7148" x="350.14" y="254.6"/><rect fill="#F1F1F1" height="10" style="stroke:#181818;stroke-width:0.5;" width="15" x="445.8548" y="259.6"/><rect fill="#F1F1F1" height="2" style="stroke:#181818;stroke-width:0.5;" width="4" x="443.8548" y="261.6"/><rect fill="#F1F1F1" height="2" style="stroke:#181818;stroke-width:0.5;" width="4" x="443.8548" y="265.6"/><text fill="#000000" font-family="sans-serif" font-size="14" lengthAdjust="spacing" textLength="75.7148" x="365.14" y="287.5951">Magnetron</text></g><!--entity Heat Food--><g class="entity" data-entity="Heat Food" data-source-line="15" data-uid="ent0019" id="entity_Heat Food"><rect fill="#F1F1F1" height="46.2969" rx="2.5" ry="2.5" style="stroke:#181818;stroke-width:0.5;" width="111.7295" x="352.14" y="360.89"/><rect fill="#F1F1F1" height="10" style="stroke:#181818;stroke-width:0.5;" width="15" x="443.8695" y="365.89"/><rect fill="#F1F1F1" height="2" style="stroke:#181818;stroke-width:0.5;" width="4" x="441.8695" y="367.89"/><rect fill="#F1F1F1" height="2" style="stroke:#181818;stroke-width:0.5;" width="4" x="441.8695" y="371.89"/><text fill="#000000" font-family="sans-serif" font-size="14" lengthAdjust="spacing" textLength="71.7295" x="367.14" y="393.8851">Heat Food</text></g><g class="entity" data-entity="GMN21" data-source-line="17" data-uid="ent0022" id="entity_GMN21"><path d="M500.51,257.61 L500.51,297.8756 A0,0 0 0 0 500.51,297.8756 L725.4856,297.8756 A0,0 0 0 0 725.4856,297.8756 L725.4856,267.61 L715.4856,257.61 L598.74,257.61 L536.26,195.08 L590.74,257.61 L500.51,257.61 A0,0 0 0 0 500.51,257.61" fill="#FAFAFA" style="stroke:#181818;stroke-width:0.5;"/><path d="M715.4856,257.61 L715.4856,267.61 L725.4856,267.61 L715.4856,257.61" fill="#FAFAFA" style="stroke:#181818;stroke-width:0.5;"/><text fill="#000000" font-family="sans-serif" font-size="13" lengthAdjust="spacing" textLength="117.1206" x="506.51" y="274.6769">Heats for set time</text><text fill="#000000" font-family="sans-serif" font-size="13" lengthAdjust="spacing" textLength="203.9756" x="506.51" y="289.8097">regardless of food temperature</text></g><!--link Input Command to Controller--><g class="link" data-entity-1="Input Command" data-entity-2="Controller" data-source-line="5" data-uid="lnk5" id="link_Input Command_Controller"><path d="M158,88.78 C158,106.28 158,124.38 158,141.86" fill="none" id="Input Command-to-Controller" style="stroke:#181818;stroke-width:1;"/><polygon fill="#181818" points="158,147.86,162,138.86,158,142.86,154,138.86,158,147.86" style="stroke:#181818;stroke-width:1;"/></g><!--link Controller to Process/Plant--><g class="link" data-entity-1="Controller" data-entity-2="Process/Plant" data-source-line="6" data-uid="lnk7" id="link_Controller_Process/Plant"><path d="M143.25,195.08 C131.84,212.57 119.3956,231.653 108.0056,249.133" fill="none" id="Controller-to-Process/Plant" style="stroke:#181818;stroke-width:1;"/><polygon fill="#181818" points="104.73,254.16,112.9947,248.8033,107.4597,249.9709,106.2921,244.4358,104.73,254.16" style="stroke:#181818;stroke-width:1;"/></g><!--link Process/Plant to Output--><g class="link" data-entity-1="Process/Plant" data-entity-2="Output" data-source-line="7" data-uid="lnk9" id="link_Process/Plant_Output"><path d="M90,301.38 C90,318.87 90,336.97 90,354.45" fill="none" id="Process/Plant-to-Output" style="stroke:#181818;stroke-width:1;"/><polygon fill="#181818" points="90,360.45,94,351.45,90,355.45,86,351.45,90,360.45" style="stroke:#181818;stroke-width:1;"/></g><!--link Time Setting to Timer Control--><g class="link" data-entity-1="Time Setting" data-entity-2="Timer Control" data-source-line="13" data-uid="lnk16" id="link_Time Setting_Timer Control"><path d="M515,88.78 C515,106.28 515,124.38 515,141.86" fill="none" id="Time Setting-to-Timer Control" style="stroke:#181818;stroke-width:1;"/><polygon fill="#181818" points="515,147.86,519,138.86,515,142.86,511,138.86,515,147.86" style="stroke:#181818;stroke-width:1;"/></g><!--link Timer Control to Magnetron--><g class="link" data-entity-1="Timer Control" data-entity-2="Magnetron" data-source-line="14" data-uid="lnk18" id="link_Timer Control_Magnetron"><path d="M491.78,195.08 C473.84,212.57 453.4074,232.4928 435.4674,249.9728" fill="none" id="Timer Control-to-Magnetron" style="stroke:#181818;stroke-width:1;"/><polygon fill="#181818" points="431.17,254.16,440.4075,250.7441,434.7511,250.6707,434.8246,245.0143,431.17,254.16" style="stroke:#181818;stroke-width:1;"/></g><!--link Magnetron to Heat Food--><g class="link" data-entity-1="Magnetron" data-entity-2="Heat Food" data-source-line="15" data-uid="lnk20" id="link_Magnetron_Heat Food"><path d="M408,301.38 C408,318.87 408,336.97 408,354.45" fill="none" id="Magnetron-to-Heat Food" style="stroke:#181818;stroke-width:1;"/><polygon fill="#181818" points="408,360.45,412,351.45,408,355.45,404,351.45,408,360.45" style="stroke:#181818;stroke-width:1;"/></g><!--SRC=[TP4nRy9038Nt-nKME-gUeGjgrKgb8C466KpYX8WxE_8vfLN5V- -5HAHKwcr-x_Epx8kdXbjK3124fJYg10BJZboyEV68fPmRhg527yavfSAGQqymMxN4y2RImkOh6eKPV3j8R_VARMUma12GonpcyqVOBOHDnNlIV81-2GEnLYaeneUrHxOHkjS6RjLPYi_TbM0nWeEOIG2fxbCpU1UeYCe35gSzLzeprsPtkLlawHD3woc3PLEedF63RgjictIJ3Pcb4uppUqbX79HFsAGDt19hfbJpo4pruByG6ZoBbF-iyYSpWxuXGYKAaGmisNjMgb5BdsxKzrGf3T9FjAHedPAx_000]--></g></svg>