<svg xmlns="http://www.w3.org/2000/svg" xmlns:xlink="http://www.w3.org/1999/xlink" contentStyleType="text/css" data-diagram-type="DESCRIPTION" height="216px" preserveAspectRatio="none" style="width:3369px;height:216px;background:#FFFFFF;" version="1.1" viewBox="0 0 3369 216" width="3369px" zoomAndPan="magnify"><defs/><g><!--cluster Mechatronic Application Domains--><g class="cluster" data-entity="Mechatronic Application Domains" data-source-line="4" data-uid="ent0002" id="cluster_Mechatronic Application Domains"><path d="M8.5,6 L274.3379,6 A3.75,3.75 0 0 1 276.8379,8.5 L283.8379,28.2969 L2516.5,28.2969 A2.5,2.5 0 0 1 2519,30.7969 L2519,207.09 A2.5,2.5 0 0 1 2516.5,209.59 L8.5,209.59 A2.5,2.5 0 0 1 6,207.09 L6,8.5 A2.5,2.5 0 0 1 8.5,6" fill="none" style="stroke:#000000;stroke-width:1.5;"/><line style="stroke:#000000;stroke-width:1.5;" x1="6" x2="283.8379" y1="28.2969" y2="28.2969"/><text fill="#000000" font-family="sans-serif" font-size="14" font-weight="bold" lengthAdjust="spacing" textLength="264.8379" x="10" y="20.9951">Mechatronic Application Domains</text></g><!--entity Manufacturing--><g class="entity" data-entity="Manufacturing" data-source-line="5" data-uid="ent0003" id="entity_Manufacturing"><rect fill="#F1F1F1" height="46.2969" rx="2.5" ry="2.5" style="stroke:#181818;stroke-width:0.5;" width="141.377" x="2166.31" y="41"/><rect fill="#F1F1F1" height="10" style="stroke:#181818;stroke-width:0.5;" width="15" x="2287.687" y="46"/><rect fill="#F1F1F1" height="2" style="stroke:#181818;stroke-width:0.5;" width="4" x="2285.687" y="48"/><rect fill="#F1F1F1" height="2" style="stroke:#181818;stroke-width:0.5;" width="4" x="2285.687" y="52"/><text fill="#000000" font-family="sans-serif" font-size="14" lengthAdjust="spacing" textLength="101.377" x="2181.31" y="73.9951">Manufacturing</text></g><!--entity Robots--><g class="entity" data-entity="Robots" data-source-line="5" data-uid="ent0004" id="entity_Robots"><rect fill="#F1F1F1" height="46.2969" rx="2.5" ry="2.5" style="stroke:#181818;stroke-width:0.5;" width="88.5283" x="2027.74" y="147.29"/><rect fill="#F1F1F1" height="10" style="stroke:#181818;stroke-width:0.5;" width="15" x="2096.2683" y="152.29"/><rect fill="#F1F1F1" height="2" style="stroke:#181818;stroke-width:0.5;" width="4" x="2094.2683" y="154.29"/><rect fill="#F1F1F1" height="2" style="stroke:#181818;stroke-width:0.5;" width="4" x="2094.2683" y="158.29"/><text fill="#000000" font-family="sans-serif" font-size="14" lengthAdjust="spacing" textLength="48.5283" x="2042.74" y="180.2851">Robots</text></g><!--entity Conveyor Systems--><g class="entity" data-entity="Conveyor Systems" data-source-line="6" data-uid="ent0006" id="entity_Conveyor Systems"><rect fill="#F1F1F1" height="46.2969" rx="2.5" ry="2.5" style="stroke:#181818;stroke-width:0.5;" width="170.6689" x="2151.67" y="147.29"/><rect fill="#F1F1F1" height="10" style="stroke:#181818;stroke-width:0.5;" width="15" x="2302.3389" y="152.29"/><rect fill="#F1F1F1" height="2" style="stroke:#181818;stroke-width:0.5;" width="4" x="2300.3389" y="154.29"/><rect fill="#F1F1F1" height="2" style="stroke:#181818;stroke-width:0.5;" width="4" x="2300.3389" y="158.29"/><text fill="#000000" font-family="sans-serif" font-size="14" lengthAdjust="spacing" textLength="130.6689" x="2166.67" y="180.2851">Conveyor Systems</text></g><!--entity Quality Control--><g class="entity" data-entity="Quality Control" data-source-line="7" data-uid="ent0008" id="entity_Quality Control"><rect fill="#F1F1F1" height="46.2969" rx="2.5" ry="2.5" style="stroke:#181818;stroke-width:0.5;" width="145.3896" x="2357.31" y="147.29"/><rect fill="#F1F1F1" height="10" style="stroke:#181818;stroke-width:0.5;" width="15" x="2482.6996" y="152.29"/><rect fill="#F1F1F1" height="2" style="stroke:#181818;stroke-width:0.5;" width="4" x="2480.6996" y="154.29"/><rect fill="#F1F1F1" height="2" style="stroke:#181818;stroke-width:0.5;" width="4" x="2480.6996" y="158.29"/><text fill="#000000" font-family="sans-serif" font-size="14" lengthAdjust="spacing" textLength="105.3896" x="2372.31" y="180.2851">Quality Control</text></g><!--entity Transportation--><g class="entity" data-entity="Transportation" data-source-line="9" data-uid="ent0010" id="entity_Transportation"><rect fill="#F1F1F1" height="46.2969" rx="2.5" ry="2.5" style="stroke:#181818;stroke-width:0.5;" width="143.1475" x="1705.43" y="41"/><rect fill="#F1F1F1" height="10" style="stroke:#181818;stroke-width:0.5;" width="15" x="1828.5775" y="46"/><rect fill="#F1F1F1" height="2" style="stroke:#181818;stroke-width:0.5;" width="4" x="1826.5775" y="48"/><rect fill="#F1F1F1" height="2" style="stroke:#181818;stroke-width:0.5;" width="4" x="1826.5775" y="52"/><text fill="#000000" font-family="sans-serif" font-size="14" lengthAdjust="spacing" textLength="103.1475" x="1720.43" y="73.9951">Transportation</text></g><!--entity ABS Systems--><g class="entity" data-entity="ABS Systems" data-source-line="9" data-uid="ent0011" id="entity_ABS Systems"><rect fill="#F1F1F1" height="46.2969" rx="2.5" ry="2.5" style="stroke:#181818;stroke-width:0.5;" width="132.0186" x="1539.99" y="147.29"/><rect fill="#F1F1F1" height="10" style="stroke:#181818;stroke-width:0.5;" width="15" x="1652.0086" y="152.29"/><rect fill="#F1F1F1" height="2" style="stroke:#181818;stroke-width:0.5;" width="4" x="1650.0086" y="154.29"/><rect fill="#F1F1F1" height="2" style="stroke:#181818;stroke-width:0.5;" width="4" x="1650.0086" y="158.29"/><text fill="#000000" font-family="sans-serif" font-size="14" lengthAdjust="spacing" textLength="92.0186" x="1554.99" y="180.2851">ABS Systems</text></g><!--entity Cruise Control--><g class="entity" data-entity="Cruise Control" data-source-line="10" data-uid="ent0013" id="entity_Cruise Control"><rect fill="#F1F1F1" height="46.2969" rx="2.5" ry="2.5" style="stroke:#181818;stroke-width:0.5;" width="139.5654" x="1707.22" y="147.29"/><rect fill="#F1F1F1" height="10" style="stroke:#181818;stroke-width:0.5;" width="15" x="1826.7854" y="152.29"/><rect fill="#F1F1F1" height="2" style="stroke:#181818;stroke-width:0.5;" width="4" x="1824.7854" y="154.29"/><rect fill="#F1F1F1" height="2" style="stroke:#181818;stroke-width:0.5;" width="4" x="1824.7854" y="158.29"/><text fill="#000000" font-family="sans-serif" font-size="14" lengthAdjust="spacing" textLength="99.5654" x="1722.22" y="180.2851">Cruise Control</text></g><!--entity Autopilots--><g class="entity" data-entity="Autopilots" data-source-line="11" data-uid="ent0015" id="entity_Autopilots"><rect fill="#F1F1F1" height="46.2969" rx="2.5" ry="2.5" style="stroke:#181818;stroke-width:0.5;" width="110.5195" x="1881.74" y="147.29"/><rect fill="#F1F1F1" height="10" style="stroke:#181818;stroke-width:0.5;" width="15" x="1972.2595" y="152.29"/><rect fill="#F1F1F1" height="2" style="stroke:#181818;stroke-width:0.5;" width="4" x="1970.2595" y="154.29"/><rect fill="#F1F1F1" height="2" style="stroke:#181818;stroke-width:0.5;" width="4" x="1970.2595" y="158.29"/><text fill="#000000" font-family="sans-serif" font-size="14" lengthAdjust="spacing" textLength="70.5195" x="1896.74" y="180.2851">Autopilots</text></g><!--entity Healthcare--><g class="entity" data-entity="Healthcare" data-source-line="13" data-uid="ent0017" id="entity_Healthcare"><rect fill="#F1F1F1" height="46.2969" rx="2.5" ry="2.5" style="stroke:#181818;stroke-width:0.5;" width="116.6172" x="1238.69" y="41"/><rect fill="#F1F1F1" height="10" style="stroke:#181818;stroke-width:0.5;" width="15" x="1335.3072" y="46"/><rect fill="#F1F1F1" height="2" style="stroke:#181818;stroke-width:0.5;" width="4" x="1333.3072" y="48"/><rect fill="#F1F1F1" height="2" style="stroke:#181818;stroke-width:0.5;" width="4" x="1333.3072" y="52"/><text fill="#000000" font-family="sans-serif" font-size="14" lengthAdjust="spacing" textLength="76.6172" x="1253.69" y="73.9951">Healthcare</text></g><!--entity Surgical Robots--><g class="entity" data-entity="Surgical Robots" data-source-line="13" data-uid="ent0018" id="entity_Surgical Robots"><rect fill="#F1F1F1" height="46.2969" rx="2.5" ry="2.5" style="stroke:#181818;stroke-width:0.5;" width="149.4365" x="1054.28" y="147.29"/><rect fill="#F1F1F1" height="10" style="stroke:#181818;stroke-width:0.5;" width="15" x="1183.7165" y="152.29"/><rect fill="#F1F1F1" height="2" style="stroke:#181818;stroke-width:0.5;" width="4" x="1181.7165" y="154.29"/><rect fill="#F1F1F1" height="2" style="stroke:#181818;stroke-width:0.5;" width="4" x="1181.7165" y="158.29"/><text fill="#000000" font-family="sans-serif" font-size="14" lengthAdjust="spacing" textLength="109.4365" x="1069.28" y="180.2851">Surgical Robots</text></g><!--entity Prosthetics--><g class="entity" data-entity="Prosthetics" data-source-line="14" data-uid="ent0020" id="entity_Prosthetics"><rect fill="#F1F1F1" height="46.2969" rx="2.5" ry="2.5" style="stroke:#181818;stroke-width:0.5;" width="117.4033" x="1238.3" y="147.29"/><rect fill="#F1F1F1" height="10" style="stroke:#181818;stroke-width:0.5;" width="15" x="1335.7033" y="152.29"/><rect fill="#F1F1F1" height="2" style="stroke:#181818;stroke-width:0.5;" width="4" x="1333.7033" y="154.29"/><rect fill="#F1F1F1" height="2" style="stroke:#181818;stroke-width:0.5;" width="4" x="1333.7033" y="158.29"/><text fill="#000000" font-family="sans-serif" font-size="14" lengthAdjust="spacing" textLength="77.4033" x="1253.3" y="180.2851">Prosthetics</text></g><!--entity Monitoring--><g class="entity" data-entity="Monitoring" data-source-line="15" data-uid="ent0022" id="entity_Monitoring"><rect fill="#F1F1F1" height="46.2969" rx="2.5" ry="2.5" style="stroke:#181818;stroke-width:0.5;" width="114.8672" x="1390.57" y="147.29"/><rect fill="#F1F1F1" height="10" style="stroke:#181818;stroke-width:0.5;" width="15" x="1485.4372" y="152.29"/><rect fill="#F1F1F1" height="2" style="stroke:#181818;stroke-width:0.5;" width="4" x="1483.4372" y="154.29"/><rect fill="#F1F1F1" height="2" style="stroke:#181818;stroke-width:0.5;" width="4" x="1483.4372" y="158.29"/><text fill="#000000" font-family="sans-serif" font-size="14" lengthAdjust="spacing" textLength="74.8672" x="1405.57" y="180.2851">Monitoring</text></g><!--entity Consumer--><g class="entity" data-entity="Consumer" data-source-line="17" data-uid="ent0024" id="entity_Consumer"><rect fill="#F1F1F1" height="46.2969" rx="2.5" ry="2.5" style="stroke:#181818;stroke-width:0.5;" width="111.3877" x="736.31" y="41"/><rect fill="#F1F1F1" height="10" style="stroke:#181818;stroke-width:0.5;" width="15" x="827.6977" y="46"/><rect fill="#F1F1F1" height="2" style="stroke:#181818;stroke-width:0.5;" width="4" x="825.6977" y="48"/><rect fill="#F1F1F1" height="2" style="stroke:#181818;stroke-width:0.5;" width="4" x="825.6977" y="52"/><text fill="#000000" font-family="sans-serif" font-size="14" lengthAdjust="spacing" textLength="71.3877" x="751.31" y="73.9951">Consumer</text></g><!--entity Smart Appliances--><g class="entity" data-entity="Smart Appliances" data-source-line="17" data-uid="ent0025" id="entity_Smart Appliances"><rect fill="#F1F1F1" height="46.2969" rx="2.5" ry="2.5" style="stroke:#181818;stroke-width:0.5;" width="162.9854" x="546.51" y="147.29"/><rect fill="#F1F1F1" height="10" style="stroke:#181818;stroke-width:0.5;" width="15" x="689.4954" y="152.29"/><rect fill="#F1F1F1" height="2" style="stroke:#181818;stroke-width:0.5;" width="4" x="687.4954" y="154.29"/><rect fill="#F1F1F1" height="2" style="stroke:#181818;stroke-width:0.5;" width="4" x="687.4954" y="158.29"/><text fill="#000000" font-family="sans-serif" font-size="14" lengthAdjust="spacing" textLength="122.9854" x="561.51" y="180.2851">Smart Appliances</text></g><!--entity Gaming--><g class="entity" data-entity="Gaming" data-source-line="18" data-uid="ent0027" id="entity_Gaming"><rect fill="#F1F1F1" height="46.2969" rx="2.5" ry="2.5" style="stroke:#181818;stroke-width:0.5;" width="94.7148" x="744.64" y="147.29"/><rect fill="#F1F1F1" height="10" style="stroke:#181818;stroke-width:0.5;" width="15" x="819.3548" y="152.29"/><rect fill="#F1F1F1" height="2" style="stroke:#181818;stroke-width:0.5;" width="4" x="817.3548" y="154.29"/><rect fill="#F1F1F1" height="2" style="stroke:#181818;stroke-width:0.5;" width="4" x="817.3548" y="158.29"/><text fill="#000000" font-family="sans-serif" font-size="14" lengthAdjust="spacing" textLength="54.7148" x="759.64" y="180.2851">Gaming</text></g><!--entity Mobile Devices--><g class="entity" data-entity="Mobile Devices" data-source-line="19" data-uid="ent0029" id="entity_Mobile Devices"><rect fill="#F1F1F1" height="46.2969" rx="2.5" ry="2.5" style="stroke:#181818;stroke-width:0.5;" width="145.5469" x="874.23" y="147.29"/><rect fill="#F1F1F1" height="10" style="stroke:#181818;stroke-width:0.5;" width="15" x="999.7769" y="152.29"/><rect fill="#F1F1F1" height="2" style="stroke:#181818;stroke-width:0.5;" width="4" x="997.7769" y="154.29"/><rect fill="#F1F1F1" height="2" style="stroke:#181818;stroke-width:0.5;" width="4" x="997.7769" y="158.29"/><text fill="#000000" font-family="sans-serif" font-size="14" lengthAdjust="spacing" textLength="105.5469" x="889.23" y="180.2851">Mobile Devices</text></g><!--entity Agriculture--><g class="entity" data-entity="Agriculture" data-source-line="21" data-uid="ent0031" id="entity_Agriculture"><rect fill="#F1F1F1" height="46.2969" rx="2.5" ry="2.5" style="stroke:#181818;stroke-width:0.5;" width="117.3008" x="167.35" y="41"/><rect fill="#F1F1F1" height="10" style="stroke:#181818;stroke-width:0.5;" width="15" x="264.6508" y="46"/><rect fill="#F1F1F1" height="2" style="stroke:#181818;stroke-width:0.5;" width="4" x="262.6508" y="48"/><rect fill="#F1F1F1" height="2" style="stroke:#181818;stroke-width:0.5;" width="4" x="262.6508" y="52"/><text fill="#000000" font-family="sans-serif" font-size="14" lengthAdjust="spacing" textLength="77.3008" x="182.35" y="73.9951">Agriculture</text></g><!--entity Irrigation--><g class="entity" data-entity="Irrigation" data-source-line="21" data-uid="ent0032" id="entity_Irrigation"><rect fill="#F1F1F1" height="46.2969" rx="2.5" ry="2.5" style="stroke:#181818;stroke-width:0.5;" width="103.8135" x="22.09" y="147.29"/><rect fill="#F1F1F1" height="10" style="stroke:#181818;stroke-width:0.5;" width="15" x="105.9035" y="152.29"/><rect fill="#F1F1F1" height="2" style="stroke:#181818;stroke-width:0.5;" width="4" x="103.9035" y="154.29"/><rect fill="#F1F1F1" height="2" style="stroke:#181818;stroke-width:0.5;" width="4" x="103.9035" y="158.29"/><text fill="#000000" font-family="sans-serif" font-size="14" lengthAdjust="spacing" textLength="63.8135" x="37.09" y="180.2851">Irrigation</text></g><!--entity GPS Tractors--><g class="entity" data-entity="GPS Tractors" data-source-line="22" data-uid="ent0034" id="entity_GPS Tractors"><rect fill="#F1F1F1" height="46.2969" rx="2.5" ry="2.5" style="stroke:#181818;stroke-width:0.5;" width="130.3164" x="160.84" y="147.29"/><rect fill="#F1F1F1" height="10" style="stroke:#181818;stroke-width:0.5;" width="15" x="271.1564" y="152.29"/><rect fill="#F1F1F1" height="2" style="stroke:#181818;stroke-width:0.5;" width="4" x="269.1564" y="154.29"/><rect fill="#F1F1F1" height="2" style="stroke:#181818;stroke-width:0.5;" width="4" x="269.1564" y="158.29"/><text fill="#000000" font-family="sans-serif" font-size="14" lengthAdjust="spacing" textLength="90.3164" x="175.84" y="180.2851">GPS Tractors</text></g><!--entity Livestock Monitoring--><g class="entity" data-entity="Livestock Monitoring" data-source-line="23" data-uid="ent0036" id="entity_Livestock Monitoring"><rect fill="#F1F1F1" height="46.2969" rx="2.5" ry="2.5" style="stroke:#181818;stroke-width:0.5;" width="185.0586" x="326.47" y="147.29"/><rect fill="#F1F1F1" height="10" style="stroke:#181818;stroke-width:0.5;" width="15" x="491.5286" y="152.29"/><rect fill="#F1F1F1" height="2" style="stroke:#181818;stroke-width:0.5;" width="4" x="489.5286" y="154.29"/><rect fill="#F1F1F1" height="2" style="stroke:#181818;stroke-width:0.5;" width="4" x="489.5286" y="158.29"/><text fill="#000000" font-family="sans-serif" font-size="14" lengthAdjust="spacing" textLength="145.0586" x="341.47" y="180.2851">Livestock Monitoring</text></g><g class="entity" data-entity="GMN38" data-source-line="26" data-uid="ent0039" id="entity_GMN38"><path d="M2537.38,150.31 L2537.38,190.5756 L2656.6163,190.5756 L2656.6163,160.31 L2646.6163,150.31 L2537.38,150.31" fill="#FAFAFA" style="stroke:#181818;stroke-width:0.5;"/><path d="M2646.6163,150.31 L2646.6163,160.31 L2656.6163,160.31 L2646.6163,150.31" fill="#FAFAFA" style="stroke:#181818;stroke-width:1;"/><text fill="#000000" font-family="sans-serif" font-size="13" lengthAdjust="spacing" textLength="92.9424" x="2543.38" y="167.3769">High precision</text><text fill="#000000" font-family="sans-serif" font-size="13" lengthAdjust="spacing" textLength="98.2363" x="2543.38" y="182.5097">Long operation</text></g><g class="entity" data-entity="GMN41" data-source-line="27" data-uid="ent0042" id="entity_GMN41"><path d="M2691.43,150.31 L2691.43,190.5756 L2838.5643,190.5756 L2838.5643,160.31 L2828.5643,150.31 L2691.43,150.31" fill="#FAFAFA" style="stroke:#181818;stroke-width:0.5;"/><path d="M2828.5643,150.31 L2828.5643,160.31 L2838.5643,160.31 L2828.5643,150.31" fill="#FAFAFA" style="stroke:#181818;stroke-width:1;"/><text fill="#000000" font-family="sans-serif" font-size="13" lengthAdjust="spacing" textLength="89.2544" x="2697.43" y="167.3769">Safety critical</text><text fill="#000000" font-family="sans-serif" font-size="13" lengthAdjust="spacing" textLength="126.1343" x="2697.43" y="182.5097">Real-time response</text></g><g class="entity" data-entity="GMN44" data-source-line="28" data-uid="ent0045" id="entity_GMN44"><path d="M2873.71,150.31 L2873.71,190.5756 L3042.293,190.5756 L3042.293,160.31 L3032.293,150.31 L2873.71,150.31" fill="#FAFAFA" style="stroke:#181818;stroke-width:0.5;"/><path d="M3032.293,150.31 L3032.293,160.31 L3042.293,160.31 L3032.293,150.31" fill="#FAFAFA" style="stroke:#181818;stroke-width:1;"/><text fill="#000000" font-family="sans-serif" font-size="13" lengthAdjust="spacing" textLength="118.0728" x="2879.71" y="167.3769">Extreme precision</text><text fill="#000000" font-family="sans-serif" font-size="13" lengthAdjust="spacing" textLength="147.583" x="2879.71" y="182.5097">Strict safety standards</text></g><g class="entity" data-entity="GMN47" data-source-line="29" data-uid="ent0048" id="entity_GMN47"><path d="M3077.63,150.31 L3077.63,190.5756 L3188.3605,190.5756 L3188.3605,160.31 L3178.3605,150.31 L3077.63,150.31" fill="#FAFAFA" style="stroke:#181818;stroke-width:0.5;"/><path d="M3178.3605,150.31 L3178.3605,160.31 L3188.3605,160.31 L3178.3605,150.31" fill="#FAFAFA" style="stroke:#181818;stroke-width:1;"/><text fill="#000000" font-family="sans-serif" font-size="13" lengthAdjust="spacing" textLength="89.7305" x="3083.63" y="167.3769">Cost effective</text><text fill="#000000" font-family="sans-serif" font-size="13" lengthAdjust="spacing" textLength="83.0908" x="3083.63" y="182.5097">User friendly</text></g><g class="entity" data-entity="GMN50" data-source-line="30" data-uid="ent0051" id="entity_GMN50"><path d="M3223.85,150.31 L3223.85,190.5756 L3362.142,190.5756 L3362.142,160.31 L3352.142,150.31 L3223.85,150.31" fill="#FAFAFA" style="stroke:#181818;stroke-width:0.5;"/><path d="M3352.142,150.31 L3352.142,160.31 L3362.142,160.31 L3352.142,150.31" fill="#FAFAFA" style="stroke:#181818;stroke-width:1;"/><text fill="#000000" font-family="sans-serif" font-size="13" lengthAdjust="spacing" textLength="116.5303" x="3229.85" y="167.3769">Weather resistant</text><text fill="#000000" font-family="sans-serif" font-size="13" lengthAdjust="spacing" textLength="117.292" x="3229.85" y="182.5097">Remote operation</text></g><!--link Manufacturing to Robots--><g class="link" data-entity-1="Manufacturing" data-entity-2="Robots" data-source-line="5" data-uid="lnk5" id="link_Manufacturing_Robots"><path d="M2201.2,87.78 C2173.52,105.27 2140.4621,126.1647 2112.8021,143.6447" fill="none" id="Manufacturing-to-Robots" style="stroke:#181818;stroke-width:1;"/><polygon fill="#181818" points="2107.73,146.85,2117.475,145.4234,2111.9567,144.1789,2113.2012,138.6606,2107.73,146.85" style="stroke:#181818;stroke-width:1;"/></g><!--link Manufacturing to Conveyor Systems--><g class="link" data-entity-1="Manufacturing" data-entity-2="Conveyor Systems" data-source-line="6" data-uid="lnk7" id="link_Manufacturing_Conveyor Systems"><path d="M2237,87.78 C2237,105.27 2237,123.37 2237,140.85" fill="none" id="Manufacturing-to-Conveyor Systems" style="stroke:#181818;stroke-width:1;"/><polygon fill="#181818" points="2237,146.85,2241,137.85,2237,141.85,2233,137.85,2237,146.85" style="stroke:#181818;stroke-width:1;"/></g><!--link Manufacturing to Quality Control--><g class="link" data-entity-1="Manufacturing" data-entity-2="Quality Control" data-source-line="7" data-uid="lnk9" id="link_Manufacturing_Quality Control"><path d="M2278.88,87.78 C2311.25,105.27 2350.5713,126.5177 2382.9213,143.9977" fill="none" id="Manufacturing-to-Quality Control" style="stroke:#181818;stroke-width:1;"/><polygon fill="#181818" points="2388.2,146.85,2382.1835,139.0525,2383.8011,144.4731,2378.3805,146.0907,2388.2,146.85" style="stroke:#181818;stroke-width:1;"/></g><!--link Transportation to ABS Systems--><g class="link" data-entity-1="Transportation" data-entity-2="ABS Systems" data-source-line="9" data-uid="lnk12" id="link_Transportation_ABS Systems"><path d="M1739.9,87.78 C1711.21,105.27 1676.8229,126.2466 1648.1529,143.7266" fill="none" id="Transportation-to-ABS Systems" style="stroke:#181818;stroke-width:1;"/><polygon fill="#181818" points="1643.03,146.85,1652.7967,145.5801,1647.2991,144.2471,1648.6321,138.7496,1643.03,146.85" style="stroke:#181818;stroke-width:1;"/></g><!--link Transportation to Cruise Control--><g class="link" data-entity-1="Transportation" data-entity-2="Cruise Control" data-source-line="10" data-uid="lnk14" id="link_Transportation_Cruise Control"><path d="M1777,87.78 C1777,105.27 1777,123.37 1777,140.85" fill="none" id="Transportation-to-Cruise Control" style="stroke:#181818;stroke-width:1;"/><polygon fill="#181818" points="1777,146.85,1781,137.85,1777,141.85,1773,137.85,1777,146.85" style="stroke:#181818;stroke-width:1;"/></g><!--link Transportation to Autopilots--><g class="link" data-entity-1="Transportation" data-entity-2="Autopilots" data-source-line="11" data-uid="lnk16" id="link_Transportation_Autopilots"><path d="M1811.72,87.78 C1838.55,105.27 1870.5034,126.0939 1897.3234,143.5739" fill="none" id="Transportation-to-Autopilots" style="stroke:#181818;stroke-width:1;"/><polygon fill="#181818" points="1902.35,146.85,1896.9941,138.5847,1898.1611,144.1199,1892.626,145.2869,1902.35,146.85" style="stroke:#181818;stroke-width:1;"/></g><!--link Healthcare to Surgical Robots--><g class="link" data-entity-1="Healthcare" data-entity-2="Surgical Robots" data-source-line="13" data-uid="lnk19" id="link_Healthcare_Surgical Robots"><path d="M1260.55,87.78 C1232.37,105.27 1198.6377,126.2056 1170.4777,143.6856" fill="none" id="Healthcare-to-Surgical Robots" style="stroke:#181818;stroke-width:1;"/><polygon fill="#181818" points="1165.38,146.85,1175.1362,145.5019,1169.6281,144.213,1170.917,138.705,1165.38,146.85" style="stroke:#181818;stroke-width:1;"/></g><!--link Healthcare to Prosthetics--><g class="link" data-entity-1="Healthcare" data-entity-2="Prosthetics" data-source-line="14" data-uid="lnk21" id="link_Healthcare_Prosthetics"><path d="M1297,87.78 C1297,105.27 1297,123.37 1297,140.85" fill="none" id="Healthcare-to-Prosthetics" style="stroke:#181818;stroke-width:1;"/><polygon fill="#181818" points="1297,146.85,1301,137.85,1297,141.85,1293,137.85,1297,146.85" style="stroke:#181818;stroke-width:1;"/></g><!--link Healthcare to Monitoring--><g class="link" data-entity-1="Healthcare" data-entity-2="Monitoring" data-source-line="15" data-uid="lnk23" id="link_Healthcare_Monitoring"><path d="M1329.76,87.78 C1355.09,105.27 1385.053,125.9603 1410.363,143.4403" fill="none" id="Healthcare-to-Monitoring" style="stroke:#181818;stroke-width:1;"/><polygon fill="#181818" points="1415.3,146.85,1410.1676,138.4441,1411.1858,144.0086,1405.6214,145.0268,1415.3,146.85" style="stroke:#181818;stroke-width:1;"/></g><!--link Consumer to Smart Appliances--><g class="link" data-entity-1="Consumer" data-entity-2="Smart Appliances" data-source-line="17" data-uid="lnk26" id="link_Consumer_Smart Appliances"><path d="M756.41,87.78 C728.91,105.27 696.0731,126.1505 668.5831,143.6305" fill="none" id="Consumer-to-Smart Appliances" style="stroke:#181818;stroke-width:1;"/><polygon fill="#181818" points="663.52,146.85,673.261,145.3962,667.7393,144.1671,668.9683,138.6454,663.52,146.85" style="stroke:#181818;stroke-width:1;"/></g><!--link Consumer to Gaming--><g class="link" data-entity-1="Consumer" data-entity-2="Gaming" data-source-line="18" data-uid="lnk28" id="link_Consumer_Gaming"><path d="M792,87.78 C792,105.27 792,123.37 792,140.85" fill="none" id="Consumer-to-Gaming" style="stroke:#181818;stroke-width:1;"/><polygon fill="#181818" points="792,146.85,796,137.85,792,141.85,788,137.85,792,146.85" style="stroke:#181818;stroke-width:1;"/></g><!--link Consumer to Mobile Devices--><g class="link" data-entity-1="Consumer" data-entity-2="Mobile Devices" data-source-line="19" data-uid="lnk30" id="link_Consumer_Mobile Devices"><path d="M825.63,87.78 C851.63,105.27 882.4719,126.0206 908.4519,143.5006" fill="none" id="Consumer-to-Mobile Devices" style="stroke:#181818;stroke-width:1;"/><polygon fill="#181818" points="913.43,146.85,908.1958,138.5072,909.2816,144.0588,903.7299,145.1446,913.43,146.85" style="stroke:#181818;stroke-width:1;"/></g><!--link Agriculture to Irrigation--><g class="link" data-entity-1="Agriculture" data-entity-2="Irrigation" data-source-line="21" data-uid="lnk33" id="link_Agriculture_Irrigation"><path d="M193.02,87.78 C167.52,105.27 137.3476,125.9758 111.8676,143.4558" fill="none" id="Agriculture-to-Irrigation" style="stroke:#181818;stroke-width:1;"/><polygon fill="#181818" points="106.92,146.85,116.6043,145.0571,111.043,144.0215,112.0787,138.4602,106.92,146.85" style="stroke:#181818;stroke-width:1;"/></g><!--link Agriculture to GPS Tractors--><g class="link" data-entity-1="Agriculture" data-entity-2="GPS Tractors" data-source-line="22" data-uid="lnk35" id="link_Agriculture_GPS Tractors"><path d="M226,87.78 C226,105.27 226,123.37 226,140.85" fill="none" id="Agriculture-to-GPS Tractors" style="stroke:#181818;stroke-width:1;"/><polygon fill="#181818" points="226,146.85,230,137.85,226,141.85,222,137.85,226,146.85" style="stroke:#181818;stroke-width:1;"/></g><!--link Agriculture to Livestock Monitoring--><g class="link" data-entity-1="Agriculture" data-entity-2="Livestock Monitoring" data-source-line="23" data-uid="lnk37" id="link_Agriculture_Livestock Monitoring"><path d="M267.88,87.78 C300.25,105.27 339.5713,126.5177 371.9213,143.9977" fill="none" id="Agriculture-to-Livestock Monitoring" style="stroke:#181818;stroke-width:1;"/><polygon fill="#181818" points="377.2,146.85,371.1835,139.0525,372.8011,144.4731,367.3805,146.0907,377.2,146.85" style="stroke:#181818;stroke-width:1;"/></g><!--link Robots to GMN38--><g class="link" data-entity-1="Robots" data-entity-2="GMN38" data-source-line="26" data-uid="lnk40" id="link_Robots_GMN38"><path d="M2098.61,146.84 C2113.15,135.52 2132.12,123.18 2151.5,117.29 C2225.93,94.71 2426.22,97.76 2501.5,117.29 C2525.93,123.63 2550.75,137.73 2568.96,149.81" fill="none" id="Robots-GMN38" style="stroke:#181818;stroke-width:1;stroke-dasharray:7.0,7.0;"/></g><!--link ABS Systems to GMN41--><g class="link" data-entity-1="ABS Systems" data-entity-2="GMN41" data-source-line="27" data-uid="lnk43" id="link_ABS Systems_GMN41"><path d="M1640.48,147.04 C1659.38,135.63 1683.74,123.14 1707.5,117.29 C1809.89,92.11 2553.78,93.49 2656.5,117.29 C2683.88,123.64 2712.33,137.9 2733.22,150.06" fill="none" id="ABS Systems-GMN41" style="stroke:#181818;stroke-width:1;stroke-dasharray:7.0,7.0;"/></g><!--link Surgical Robots to GMN44--><g class="link" data-entity-1="Surgical Robots" data-entity-2="GMN44" data-source-line="28" data-uid="lnk46" id="link_Surgical Robots_GMN44"><path d="M1166.69,146.89 C1187.11,135.51 1213.27,123.09 1238.5,117.29 C1411.76,77.47 2664.6,80.37 2838.5,117.29 C2868.15,123.59 2899.37,137.77 2922.47,149.9" fill="none" id="Surgical Robots-GMN44" style="stroke:#181818;stroke-width:1;stroke-dasharray:7.0,7.0;"/></g><!--link Smart Appliances to GMN47--><g class="link" data-entity-1="Smart Appliances" data-entity-2="GMN47" data-source-line="29" data-uid="lnk49" id="link_Smart Appliances_GMN47"><path d="M668.29,146.87 C690.07,135.49 717.89,123.08 744.5,117.29 C869.25,90.18 2919.31,83.79 3042.5,117.29 C3065.88,123.65 3089.4,137.75 3106.6,149.83" fill="none" id="Smart Appliances-GMN47" style="stroke:#181818;stroke-width:1;stroke-dasharray:7.0,7.0;"/></g><!--link Irrigation to GMN50--><g class="link" data-entity-1="Irrigation" data-entity-2="GMN50" data-source-line="30" data-uid="lnk52" id="link_Irrigation_GMN50"><path d="M103.28,146.81 C119.19,135.49 139.81,123.14 160.5,117.29 C241.44,94.41 3106.71,97.69 3188.5,117.29 C3215.02,123.65 3242.41,137.91 3262.49,150.07" fill="none" id="Irrigation-GMN50" style="stroke:#181818;stroke-width:1;stroke-dasharray:7.0,7.0;"/></g><!--SRC=[VL91Rjj03Bph5KJk_a0F1LodI0h4G1grw27sWLbJ5k7LKk1IResYVoybsQwhnD5HEpCSpZ3lEBMes40ZIKAjqX2OTbJayqkkSIC_EMsXmfYfA5eCEzmIt2mfr6WgYGFCspPoG6D9S2iDSietyBi0_vwNcBeAWtNgAckOpJx2yvEyYENrTS12qfuEeb0Uib7p7lHhXv7j04vnDt5TZD1lYYcteZQuEcBddyg9ufkmXNQSwP_YEuATISjnM6Q4tHD6gmCg7I5bfrlF9i9_Ix-2FQfagyauN8KiFMkJOVNZC7UOkuRqDAf1jR4CJ85EGXFK7JQ3n5jlItdXI71BUnxu8sY-LGvTzDXFLhweydOCuXhaxh44poouutmLzC1xoYPX1vVB_IcA94RWCse3gSu70n_Wtlz1gnGu-_HLUX2_JMb91pTJtcNXJYwn8Z-Le6nz9Qlqv1dFZFtkbRpSv1S-KPZMvogVVvcIKovSbEQR6UHHFnkc3UeclnAR5kHg2-yTgAeec8UnIjypALJAb3RnC1MuoDsfFmZzPBJtplrCwnTgUiOvaBy0]--></g></svg>