<svg xmlns="http://www.w3.org/2000/svg" xmlns:xlink="http://www.w3.org/1999/xlink" contentStyleType="text/css" data-diagram-type="DESCRIPTION" height="329px" preserveAspectRatio="none" style="width:2227px;height:329px;background:#FFFFFF;" version="1.1" viewBox="0 0 2227 329" width="2227px" zoomAndPan="magnify"><defs/><g><!--cluster Design Constraints--><g class="cluster" data-entity="Design Constraints" data-source-line="4" data-uid="ent0002" id="cluster_Design Constraints"><rect fill="none" height="164.3" rx="2.5" ry="2.5" style="stroke:#181818;stroke-width:1;" width="2144" x="7" y="7"/><text fill="#000000" font-family="sans-serif" font-size="14" font-weight="bold" lengthAdjust="spacing" textLength="150.1377" x="1003.9312" y="21.9951">Design Constraints</text></g><!--cluster Cost--><g class="cluster" data-entity="Cost" data-source-line="5" data-uid="ent0003" id="cluster_Cost"><rect fill="none" height="97.3" rx="2.5" ry="2.5" style="stroke:#181818;stroke-width:1;" width="628" x="31" y="50"/><text fill="#000000" font-family="sans-serif" font-size="14" font-weight="bold" lengthAdjust="spacing" textLength="34.918" x="327.541" y="64.9951">Cost</text></g><!--cluster Safety--><g class="cluster" data-entity="Safety" data-source-line="11" data-uid="ent0007" id="cluster_Safety"><rect fill="none" height="97.3" rx="2.5" ry="2.5" style="stroke:#181818;stroke-width:1;" width="604" x="683" y="50"/><text fill="#000000" font-family="sans-serif" font-size="14" font-weight="bold" lengthAdjust="spacing" textLength="50.9346" x="959.5327" y="64.9951">Safety</text></g><!--cluster Environment--><g class="cluster" data-entity="Environment" data-source-line="17" data-uid="ent0011" id="cluster_Environment"><rect fill="none" height="97.3" rx="2.5" ry="2.5" style="stroke:#181818;stroke-width:1;" width="816" x="1311" y="50"/><text fill="#000000" font-family="sans-serif" font-size="14" font-weight="bold" lengthAdjust="spacing" textLength="100.6865" x="1668.6567" y="64.9951">Environment</text></g><!--entity Component Costs--><g class="entity" data-entity="Component Costs" data-source-line="6" data-uid="ent0004" id="entity_Component Costs"><rect fill="#F1F1F1" height="46.2969" rx="2.5" ry="2.5" style="stroke:#181818;stroke-width:0.5;" width="164.1475" x="478.93" y="85"/><rect fill="#F1F1F1" height="10" style="stroke:#181818;stroke-width:0.5;" width="15" x="623.0775" y="90"/><rect fill="#F1F1F1" height="2" style="stroke:#181818;stroke-width:0.5;" width="4" x="621.0775" y="92"/><rect fill="#F1F1F1" height="2" style="stroke:#181818;stroke-width:0.5;" width="4" x="621.0775" y="96"/><text fill="#000000" font-family="sans-serif" font-size="14" lengthAdjust="spacing" textLength="124.1475" x="493.93" y="117.9951">Component Costs</text></g><!--entity Development Costs--><g class="entity" data-entity="Development Costs" data-source-line="7" data-uid="ent0005" id="entity_Development Costs"><rect fill="#F1F1F1" height="46.2969" rx="2.5" ry="2.5" style="stroke:#181818;stroke-width:0.5;" width="177.1152" x="266.44" y="85"/><rect fill="#F1F1F1" height="10" style="stroke:#181818;stroke-width:0.5;" width="15" x="423.5552" y="90"/><rect fill="#F1F1F1" height="2" style="stroke:#181818;stroke-width:0.5;" width="4" x="421.5552" y="92"/><rect fill="#F1F1F1" height="2" style="stroke:#181818;stroke-width:0.5;" width="4" x="421.5552" y="96"/><text fill="#000000" font-family="sans-serif" font-size="14" lengthAdjust="spacing" textLength="137.1152" x="281.44" y="117.9951">Development Costs</text></g><!--entity Manufacturing Costs--><g class="entity" data-entity="Manufacturing Costs" data-source-line="8" data-uid="ent0006" id="entity_Manufacturing Costs"><rect fill="#F1F1F1" height="46.2969" rx="2.5" ry="2.5" style="stroke:#181818;stroke-width:0.5;" width="184.2451" x="46.88" y="85"/><rect fill="#F1F1F1" height="10" style="stroke:#181818;stroke-width:0.5;" width="15" x="211.1251" y="90"/><rect fill="#F1F1F1" height="2" style="stroke:#181818;stroke-width:0.5;" width="4" x="209.1251" y="92"/><rect fill="#F1F1F1" height="2" style="stroke:#181818;stroke-width:0.5;" width="4" x="209.1251" y="96"/><text fill="#000000" font-family="sans-serif" font-size="14" lengthAdjust="spacing" textLength="144.2451" x="61.88" y="117.9951">Manufacturing Costs</text></g><!--entity Risk Assessment--><g class="entity" data-entity="Risk Assessment" data-source-line="12" data-uid="ent0008" id="entity_Risk Assessment"><rect fill="#F1F1F1" height="46.2969" rx="2.5" ry="2.5" style="stroke:#181818;stroke-width:0.5;" width="157.4482" x="1113.28" y="85"/><rect fill="#F1F1F1" height="10" style="stroke:#181818;stroke-width:0.5;" width="15" x="1250.7282" y="90"/><rect fill="#F1F1F1" height="2" style="stroke:#181818;stroke-width:0.5;" width="4" x="1248.7282" y="92"/><rect fill="#F1F1F1" height="2" style="stroke:#181818;stroke-width:0.5;" width="4" x="1248.7282" y="96"/><text fill="#000000" font-family="sans-serif" font-size="14" lengthAdjust="spacing" textLength="117.4482" x="1128.28" y="117.9951">Risk Assessment</text></g><!--entity Standards Compliance--><g class="entity" data-entity="Standards Compliance" data-source-line="13" data-uid="ent0009" id="entity_Standards Compliance"><rect fill="#F1F1F1" height="46.2969" rx="2.5" ry="2.5" style="stroke:#181818;stroke-width:0.5;" width="198.0879" x="879.96" y="85"/><rect fill="#F1F1F1" height="10" style="stroke:#181818;stroke-width:0.5;" width="15" x="1058.0479" y="90"/><rect fill="#F1F1F1" height="2" style="stroke:#181818;stroke-width:0.5;" width="4" x="1056.0479" y="92"/><rect fill="#F1F1F1" height="2" style="stroke:#181818;stroke-width:0.5;" width="4" x="1056.0479" y="96"/><text fill="#000000" font-family="sans-serif" font-size="14" lengthAdjust="spacing" textLength="158.0879" x="894.96" y="117.9951">Standards Compliance</text></g><!--entity Human Factors--><g class="entity" data-entity="Human Factors" data-source-line="14" data-uid="ent0010" id="entity_Human Factors"><rect fill="#F1F1F1" height="46.2969" rx="2.5" ry="2.5" style="stroke:#181818;stroke-width:0.5;" width="146.374" x="698.81" y="85"/><rect fill="#F1F1F1" height="10" style="stroke:#181818;stroke-width:0.5;" width="15" x="825.184" y="90"/><rect fill="#F1F1F1" height="2" style="stroke:#181818;stroke-width:0.5;" width="4" x="823.184" y="92"/><rect fill="#F1F1F1" height="2" style="stroke:#181818;stroke-width:0.5;" width="4" x="823.184" y="96"/><text fill="#000000" font-family="sans-serif" font-size="14" lengthAdjust="spacing" textLength="106.374" x="713.81" y="117.9951">Human Factors</text></g><!--entity Operating Conditions--><g class="entity" data-entity="Operating Conditions" data-source-line="18" data-uid="ent0012" id="entity_Operating Conditions"><rect fill="#F1F1F1" height="46.2969" rx="2.5" ry="2.5" style="stroke:#181818;stroke-width:0.5;" width="188.5449" x="1544.73" y="85"/><rect fill="#F1F1F1" height="10" style="stroke:#181818;stroke-width:0.5;" width="15" x="1713.2749" y="90"/><rect fill="#F1F1F1" height="2" style="stroke:#181818;stroke-width:0.5;" width="4" x="1711.2749" y="92"/><rect fill="#F1F1F1" height="2" style="stroke:#181818;stroke-width:0.5;" width="4" x="1711.2749" y="96"/><text fill="#000000" font-family="sans-serif" font-size="14" lengthAdjust="spacing" textLength="148.5449" x="1559.73" y="117.9951">Operating Conditions</text></g><!--entity Power Availability--><g class="entity" data-entity="Power Availability" data-source-line="19" data-uid="ent0013" id="entity_Power Availability"><rect fill="#F1F1F1" height="46.2969" rx="2.5" ry="2.5" style="stroke:#181818;stroke-width:0.5;" width="164.4072" x="1767.8" y="85"/><rect fill="#F1F1F1" height="10" style="stroke:#181818;stroke-width:0.5;" width="15" x="1912.2072" y="90"/><rect fill="#F1F1F1" height="2" style="stroke:#181818;stroke-width:0.5;" width="4" x="1910.2072" y="92"/><rect fill="#F1F1F1" height="2" style="stroke:#181818;stroke-width:0.5;" width="4" x="1910.2072" y="96"/><text fill="#000000" font-family="sans-serif" font-size="14" lengthAdjust="spacing" textLength="124.4072" x="1782.8" y="117.9951">Power Availability</text></g><!--entity Physical Space--><g class="entity" data-entity="Physical Space" data-source-line="20" data-uid="ent0014" id="entity_Physical Space"><rect fill="#F1F1F1" height="46.2969" rx="2.5" ry="2.5" style="stroke:#181818;stroke-width:0.5;" width="144.0635" x="1966.97" y="85"/><rect fill="#F1F1F1" height="10" style="stroke:#181818;stroke-width:0.5;" width="15" x="2091.0335" y="90"/><rect fill="#F1F1F1" height="2" style="stroke:#181818;stroke-width:0.5;" width="4" x="2089.0335" y="92"/><rect fill="#F1F1F1" height="2" style="stroke:#181818;stroke-width:0.5;" width="4" x="2089.0335" y="96"/><text fill="#000000" font-family="sans-serif" font-size="14" lengthAdjust="spacing" textLength="104.0635" x="1981.97" y="117.9951">Physical Space</text></g><!--entity Maintenance Access--><g class="entity" data-entity="Maintenance Access" data-source-line="21" data-uid="ent0015" id="entity_Maintenance Access"><rect fill="#F1F1F1" height="46.2969" rx="2.5" ry="2.5" style="stroke:#181818;stroke-width:0.5;" width="182.7822" x="1326.61" y="85"/><rect fill="#F1F1F1" height="10" style="stroke:#181818;stroke-width:0.5;" width="15" x="1489.3922" y="90"/><rect fill="#F1F1F1" height="2" style="stroke:#181818;stroke-width:0.5;" width="4" x="1487.3922" y="92"/><rect fill="#F1F1F1" height="2" style="stroke:#181818;stroke-width:0.5;" width="4" x="1487.3922" y="96"/><text fill="#000000" font-family="sans-serif" font-size="14" lengthAdjust="spacing" textLength="142.7822" x="1341.61" y="117.9951">Maintenance Access</text></g><!--entity Performance Trade-offs--><g class="entity" data-entity="Performance Trade-offs" data-source-line="25" data-uid="ent0016" id="entity_Performance Trade-offs"><rect fill="#F1F1F1" height="46.2969" rx="2.5" ry="2.5" style="stroke:#181818;stroke-width:0.5;" width="205.0674" x="458.47" y="191.3"/><rect fill="#F1F1F1" height="10" style="stroke:#181818;stroke-width:0.5;" width="15" x="643.5374" y="196.3"/><rect fill="#F1F1F1" height="2" style="stroke:#181818;stroke-width:0.5;" width="4" x="641.5374" y="198.3"/><rect fill="#F1F1F1" height="2" style="stroke:#181818;stroke-width:0.5;" width="4" x="641.5374" y="202.3"/><text fill="#000000" font-family="sans-serif" font-size="14" lengthAdjust="spacing" textLength="165.0674" x="473.47" y="224.2951">Performance Trade-offs</text></g><!--entity Redundancy Requirements--><g class="entity" data-entity="Redundancy Requirements" data-source-line="26" data-uid="ent0018" id="entity_Redundancy Requirements"><rect fill="#F1F1F1" height="46.2969" rx="2.5" ry="2.5" style="stroke:#181818;stroke-width:0.5;" width="230.0117" x="1076.99" y="191.3"/><rect fill="#F1F1F1" height="10" style="stroke:#181818;stroke-width:0.5;" width="15" x="1287.0017" y="196.3"/><rect fill="#F1F1F1" height="2" style="stroke:#181818;stroke-width:0.5;" width="4" x="1285.0017" y="198.3"/><rect fill="#F1F1F1" height="2" style="stroke:#181818;stroke-width:0.5;" width="4" x="1285.0017" y="202.3"/><text fill="#000000" font-family="sans-serif" font-size="14" lengthAdjust="spacing" textLength="190.0117" x="1091.99" y="224.2951">Redundancy Requirements</text></g><!--entity Component Selection--><g class="entity" data-entity="Component Selection" data-source-line="27" data-uid="ent0020" id="entity_Component Selection"><rect fill="#F1F1F1" height="46.2969" rx="2.5" ry="2.5" style="stroke:#181818;stroke-width:0.5;" width="190.2471" x="1543.88" y="191.3"/><rect fill="#F1F1F1" height="10" style="stroke:#181818;stroke-width:0.5;" width="15" x="1714.1271" y="196.3"/><rect fill="#F1F1F1" height="2" style="stroke:#181818;stroke-width:0.5;" width="4" x="1712.1271" y="198.3"/><rect fill="#F1F1F1" height="2" style="stroke:#181818;stroke-width:0.5;" width="4" x="1712.1271" y="202.3"/><text fill="#000000" font-family="sans-serif" font-size="14" lengthAdjust="spacing" textLength="150.2471" x="1558.88" y="224.2951">Component Selection</text></g><!--entity Integration Challenges--><g class="entity" data-entity="Integration Challenges" data-source-line="28" data-uid="ent0022" id="entity_Integration Challenges"><rect fill="#F1F1F1" height="46.2969" rx="2.5" ry="2.5" style="stroke:#181818;stroke-width:0.5;" width="198.8809" x="1939.56" y="191.3"/><rect fill="#F1F1F1" height="10" style="stroke:#181818;stroke-width:0.5;" width="15" x="2118.4409" y="196.3"/><rect fill="#F1F1F1" height="2" style="stroke:#181818;stroke-width:0.5;" width="4" x="2116.4409" y="198.3"/><rect fill="#F1F1F1" height="2" style="stroke:#181818;stroke-width:0.5;" width="4" x="2116.4409" y="202.3"/><text fill="#000000" font-family="sans-serif" font-size="14" lengthAdjust="spacing" textLength="158.8809" x="1954.56" y="224.2951">Integration Challenges</text></g><g class="entity" data-entity="GMN24" data-source-line="30" data-uid="ent0025" id="entity_GMN24"><path d="M1857.42,297.6 L1857.42,322.7328 A0,0 0 0 0 1857.42,322.7328 L2220.5777,322.7328 A0,0 0 0 0 2220.5777,322.7328 L2220.5777,307.6 L2210.5777,297.6 L2043,297.6 L2039,237.66 L2035,297.6 L1857.42,297.6 A0,0 0 0 0 1857.42,297.6" fill="#FAFAFA" style="stroke:#181818;stroke-width:0.5;"/><path d="M2210.5777,297.6 L2210.5777,307.6 L2220.5777,307.6 L2210.5777,297.6" fill="#FAFAFA" style="stroke:#181818;stroke-width:0.5;"/><text fill="#000000" font-family="sans-serif" font-size="13" lengthAdjust="spacing" textLength="342.1577" x="1863.42" y="314.6669">All constraints interact - changing one affects others</text></g><!--link Component Costs to Performance Trade-offs--><g class="link" data-entity-1="Component Costs" data-entity-2="Performance Trade-offs" data-source-line="25" data-uid="lnk17" id="link_Component Costs_Performance Trade-offs"><path d="M561,131.78 C561,149.28 561,167.38 561,184.86" fill="none" id="Component Costs-to-Performance Trade-offs" style="stroke:#181818;stroke-width:1;"/><polygon fill="#181818" points="561,190.86,565,181.86,561,185.86,557,181.86,561,190.86" style="stroke:#181818;stroke-width:1;"/></g><!--link Risk Assessment to Redundancy Requirements--><g class="link" data-entity-1="Risk Assessment" data-entity-2="Redundancy Requirements" data-source-line="26" data-uid="lnk19" id="link_Risk Assessment_Redundancy Requirements"><path d="M1192,131.78 C1192,149.28 1192,167.38 1192,184.86" fill="none" id="Risk Assessment-to-Redundancy Requirements" style="stroke:#181818;stroke-width:1;"/><polygon fill="#181818" points="1192,190.86,1196,181.86,1192,185.86,1188,181.86,1192,190.86" style="stroke:#181818;stroke-width:1;"/></g><!--link Operating Conditions to Component Selection--><g class="link" data-entity-1="Operating Conditions" data-entity-2="Component Selection" data-source-line="27" data-uid="lnk21" id="link_Operating Conditions_Component Selection"><path d="M1639,131.78 C1639,149.28 1639,167.38 1639,184.86" fill="none" id="Operating Conditions-to-Component Selection" style="stroke:#181818;stroke-width:1;"/><polygon fill="#181818" points="1639,190.86,1643,181.86,1639,185.86,1635,181.86,1639,190.86" style="stroke:#181818;stroke-width:1;"/></g><!--link Physical Space to Integration Challenges--><g class="link" data-entity-1="Physical Space" data-entity-2="Integration Challenges" data-source-line="28" data-uid="lnk23" id="link_Physical Space_Integration Challenges"><path d="M2039,131.78 C2039,149.28 2039,167.38 2039,184.86" fill="none" id="Physical Space-to-Integration Challenges" style="stroke:#181818;stroke-width:1;"/><polygon fill="#181818" points="2039,190.86,2043,181.86,2039,185.86,2035,181.86,2039,190.86" style="stroke:#181818;stroke-width:1;"/></g><!--SRC=[TLBDJiCm3BxtAQpTzm8SaAO1WWC2RTmG1vEwRRJKBdOwD27U7OS9rcsGOpxx-qji4tb0nHvwOGcTIa-GTQJAVX7hi9Rto2qqc8ogIYbav3OHpAx8Oikm5BQi63dR33ugy3CPMehbd-jodfVI3yB46GfaBmVaYhQKPEZ_mkwHnmP37hLucQ2VrQdY6XlAkoFDLRGDBCp8hB1FUDU-LQFM1iLNYiY19l3js2F3ZGkB_YjupTkemeNvIFLX8CMyzyjrpD6Bcd0_oZifBBOO4xx65FDk2dOxYm4Jh0SySdHVYYOkFc4HWYVwiUN6pig5-VpIoKWRqVvxvqcnfhaqZU-TzR8VNr4zUYaSTh2Yjp4g5R3C_vbeltHGNbFoRXpoXPCO-z4x3z0M7l7Fqs5An2qvVSMI2LubP-dX0XOfGJZyBIYvrLy2vX0whxxOS4N0fd4z0yaTgNq1]--></g></svg>