<svg xmlns="http://www.w3.org/2000/svg" xmlns:xlink="http://www.w3.org/1999/xlink" contentStyleType="text/css" data-diagram-type="DESCRIPTION" height="209px" preserveAspectRatio="none" style="width:2346px;height:209px;background:#FFFFFF;" version="1.1" viewBox="0 0 2346 209" width="2346px" zoomAndPan="magnify"><defs/><g><!--cluster ORM Benefits--><g class="cluster" data-entity="ORM Benefits" data-source-line="4" data-uid="ent0002" id="cluster_ORM Benefits"><path d="M111.39,6 L219.4203,6 A3.75,3.75 0 0 1 221.9203,8.5 L228.9203,28.2969 L733.39,28.2969 A2.5,2.5 0 0 1 735.89,30.7969 L735.89,100.8 A2.5,2.5 0 0 1 733.39,103.3 L111.39,103.3 A2.5,2.5 0 0 1 108.89,100.8 L108.89,8.5 A2.5,2.5 0 0 1 111.39,6" fill="none" style="stroke:#000000;stroke-width:1.5;"/><line style="stroke:#000000;stroke-width:1.5;" x1="108.89" x2="228.9203" y1="28.2969" y2="28.2969"/><text fill="#000000" font-family="sans-serif" font-size="14" font-weight="bold" lengthAdjust="spacing" textLength="107.0303" x="112.89" y="20.9951">ORM Benefits</text></g><!--cluster Raw SQL Benefits--><g class="cluster" data-entity="Raw SQL Benefits" data-source-line="11" data-uid="ent0007" id="cluster_Raw SQL Benefits"><path d="M972.39,6 L1112.7474,6 A3.75,3.75 0 0 1 1115.2474,8.5 L1122.2474,28.2969 L1561.39,28.2969 A2.5,2.5 0 0 1 1563.89,30.7969 L1563.89,100.8 A2.5,2.5 0 0 1 1561.39,103.3 L972.39,103.3 A2.5,2.5 0 0 1 969.89,100.8 L969.89,8.5 A2.5,2.5 0 0 1 972.39,6" fill="none" style="stroke:#000000;stroke-width:1.5;"/><line style="stroke:#000000;stroke-width:1.5;" x1="969.89" x2="1122.2474" y1="28.2969" y2="28.2969"/><text fill="#000000" font-family="sans-serif" font-size="14" font-weight="bold" lengthAdjust="spacing" textLength="139.3574" x="973.89" y="20.9951">Raw SQL Benefits</text></g><!--cluster Decision Factors--><g class="cluster" data-entity="Decision Factors" data-source-line="18" data-uid="ent0012" id="cluster_Decision Factors"><path d="M1766.39,6 L1898.0521,6 A3.75,3.75 0 0 1 1900.5521,8.5 L1907.5521,28.2969 L2283.39,28.2969 A2.5,2.5 0 0 1 2285.89,30.7969 L2285.89,100.8 A2.5,2.5 0 0 1 2283.39,103.3 L1766.39,103.3 A2.5,2.5 0 0 1 1763.89,100.8 L1763.89,8.5 A2.5,2.5 0 0 1 1766.39,6" fill="none" style="stroke:#000000;stroke-width:1.5;"/><line style="stroke:#000000;stroke-width:1.5;" x1="1763.89" x2="1907.5521" y1="28.2969" y2="28.2969"/><text fill="#000000" font-family="sans-serif" font-size="14" font-weight="bold" lengthAdjust="spacing" textLength="130.6621" x="1767.89" y="20.9951">Decision Factors</text></g><!--entity orm_prod--><g class="entity" data-entity="orm_prod" data-source-line="5" data-uid="ent0003" id="entity_orm_prod"><rect fill="#F1F1F1" height="46.2969" rx="2.5" ry="2.5" style="stroke:#181818;stroke-width:0.5;" width="123.5488" x="125.11" y="41"/><rect fill="#F1F1F1" height="10" style="stroke:#181818;stroke-width:0.5;" width="15" x="228.6588" y="46"/><rect fill="#F1F1F1" height="2" style="stroke:#181818;stroke-width:0.5;" width="4" x="226.6588" y="48"/><rect fill="#F1F1F1" height="2" style="stroke:#181818;stroke-width:0.5;" width="4" x="226.6588" y="52"/><text fill="#000000" font-family="sans-serif" font-size="14" lengthAdjust="spacing" textLength="83.5488" x="140.11" y="73.9951">Productivity</text></g><!--entity orm_abs--><g class="entity" data-entity="orm_abs" data-source-line="6" data-uid="ent0004" id="entity_orm_abs"><rect fill="#F1F1F1" height="46.2969" rx="2.5" ry="2.5" style="stroke:#181818;stroke-width:0.5;" width="120.0967" x="283.84" y="41"/><rect fill="#F1F1F1" height="10" style="stroke:#181818;stroke-width:0.5;" width="15" x="383.9367" y="46"/><rect fill="#F1F1F1" height="2" style="stroke:#181818;stroke-width:0.5;" width="4" x="381.9367" y="48"/><rect fill="#F1F1F1" height="2" style="stroke:#181818;stroke-width:0.5;" width="4" x="381.9367" y="52"/><text fill="#000000" font-family="sans-serif" font-size="14" lengthAdjust="spacing" textLength="80.0967" x="298.84" y="73.9951">Abstraction</text></g><!--entity orm_port--><g class="entity" data-entity="orm_port" data-source-line="7" data-uid="ent0005" id="entity_orm_port"><rect fill="#F1F1F1" height="46.2969" rx="2.5" ry="2.5" style="stroke:#181818;stroke-width:0.5;" width="111.1621" x="439.31" y="41"/><rect fill="#F1F1F1" height="10" style="stroke:#181818;stroke-width:0.5;" width="15" x="530.4721" y="46"/><rect fill="#F1F1F1" height="2" style="stroke:#181818;stroke-width:0.5;" width="4" x="528.4721" y="48"/><rect fill="#F1F1F1" height="2" style="stroke:#181818;stroke-width:0.5;" width="4" x="528.4721" y="52"/><text fill="#000000" font-family="sans-serif" font-size="14" lengthAdjust="spacing" textLength="71.1621" x="454.31" y="73.9951">Portability</text></g><!--entity orm_rel--><g class="entity" data-entity="orm_rel" data-source-line="8" data-uid="ent0006" id="entity_orm_rel"><rect fill="#F1F1F1" height="46.2969" rx="2.5" ry="2.5" style="stroke:#181818;stroke-width:0.5;" width="133.8643" x="585.96" y="41"/><rect fill="#F1F1F1" height="10" style="stroke:#181818;stroke-width:0.5;" width="15" x="699.8243" y="46"/><rect fill="#F1F1F1" height="2" style="stroke:#181818;stroke-width:0.5;" width="4" x="697.8243" y="48"/><rect fill="#F1F1F1" height="2" style="stroke:#181818;stroke-width:0.5;" width="4" x="697.8243" y="52"/><text fill="#000000" font-family="sans-serif" font-size="14" lengthAdjust="spacing" textLength="93.8643" x="600.96" y="73.9951">Relationships</text></g><!--entity sql_perf--><g class="entity" data-entity="sql_perf" data-source-line="12" data-uid="ent0008" id="entity_sql_perf"><rect fill="#F1F1F1" height="46.2969" rx="2.5" ry="2.5" style="stroke:#181818;stroke-width:0.5;" width="129.4619" x="986.16" y="41"/><rect fill="#F1F1F1" height="10" style="stroke:#181818;stroke-width:0.5;" width="15" x="1095.6219" y="46"/><rect fill="#F1F1F1" height="2" style="stroke:#181818;stroke-width:0.5;" width="4" x="1093.6219" y="48"/><rect fill="#F1F1F1" height="2" style="stroke:#181818;stroke-width:0.5;" width="4" x="1093.6219" y="52"/><text fill="#000000" font-family="sans-serif" font-size="14" lengthAdjust="spacing" textLength="89.4619" x="1001.16" y="73.9951">Performance</text></g><!--entity sql_ctrl--><g class="entity" data-entity="sql_ctrl" data-source-line="13" data-uid="ent0009" id="entity_sql_ctrl"><rect fill="#F1F1F1" height="46.2969" rx="2.5" ry="2.5" style="stroke:#181818;stroke-width:0.5;" width="90.9141" x="1150.43" y="41"/><rect fill="#F1F1F1" height="10" style="stroke:#181818;stroke-width:0.5;" width="15" x="1221.3441" y="46"/><rect fill="#F1F1F1" height="2" style="stroke:#181818;stroke-width:0.5;" width="4" x="1219.3441" y="48"/><rect fill="#F1F1F1" height="2" style="stroke:#181818;stroke-width:0.5;" width="4" x="1219.3441" y="52"/><text fill="#000000" font-family="sans-serif" font-size="14" lengthAdjust="spacing" textLength="50.9141" x="1165.43" y="73.9951">Control</text></g><!--entity sql_opt--><g class="entity" data-entity="sql_opt" data-source-line="14" data-uid="ent0010" id="entity_sql_opt"><rect fill="#F1F1F1" height="46.2969" rx="2.5" ry="2.5" style="stroke:#181818;stroke-width:0.5;" width="129.5576" x="1276.11" y="41"/><rect fill="#F1F1F1" height="10" style="stroke:#181818;stroke-width:0.5;" width="15" x="1385.6676" y="46"/><rect fill="#F1F1F1" height="2" style="stroke:#181818;stroke-width:0.5;" width="4" x="1383.6676" y="48"/><rect fill="#F1F1F1" height="2" style="stroke:#181818;stroke-width:0.5;" width="4" x="1383.6676" y="52"/><text fill="#000000" font-family="sans-serif" font-size="14" lengthAdjust="spacing" textLength="89.5576" x="1291.11" y="73.9951">Optimization</text></g><!--entity sql_flex--><g class="entity" data-entity="sql_flex" data-source-line="15" data-uid="ent0011" id="entity_sql_flex"><rect fill="#F1F1F1" height="46.2969" rx="2.5" ry="2.5" style="stroke:#181818;stroke-width:0.5;" width="107.0605" x="1440.36" y="41"/><rect fill="#F1F1F1" height="10" style="stroke:#181818;stroke-width:0.5;" width="15" x="1527.4205" y="46"/><rect fill="#F1F1F1" height="2" style="stroke:#181818;stroke-width:0.5;" width="4" x="1525.4205" y="48"/><rect fill="#F1F1F1" height="2" style="stroke:#181818;stroke-width:0.5;" width="4" x="1525.4205" y="52"/><text fill="#000000" font-family="sans-serif" font-size="14" lengthAdjust="spacing" textLength="67.0605" x="1455.36" y="73.9951">Flexibility</text></g><!--entity factor_size--><g class="entity" data-entity="factor_size" data-source-line="19" data-uid="ent0013" id="entity_factor_size"><rect fill="#F1F1F1" height="46.2969" rx="2.5" ry="2.5" style="stroke:#181818;stroke-width:0.5;" width="121.6416" x="1780.07" y="41"/><rect fill="#F1F1F1" height="10" style="stroke:#181818;stroke-width:0.5;" width="15" x="1881.7116" y="46"/><rect fill="#F1F1F1" height="2" style="stroke:#181818;stroke-width:0.5;" width="4" x="1879.7116" y="48"/><rect fill="#F1F1F1" height="2" style="stroke:#181818;stroke-width:0.5;" width="4" x="1879.7116" y="52"/><text fill="#000000" font-family="sans-serif" font-size="14" lengthAdjust="spacing" textLength="81.6416" x="1795.07" y="73.9951">Project Size</text></g><!--entity factor_skills--><g class="entity" data-entity="factor_skills" data-source-line="20" data-uid="ent0014" id="entity_factor_skills"><rect fill="#F1F1F1" height="46.2969" rx="2.5" ry="2.5" style="stroke:#181818;stroke-width:0.5;" width="119.7891" x="1936.99" y="41"/><rect fill="#F1F1F1" height="10" style="stroke:#181818;stroke-width:0.5;" width="15" x="2036.7791" y="46"/><rect fill="#F1F1F1" height="2" style="stroke:#181818;stroke-width:0.5;" width="4" x="2034.7791" y="48"/><rect fill="#F1F1F1" height="2" style="stroke:#181818;stroke-width:0.5;" width="4" x="2034.7791" y="52"/><text fill="#000000" font-family="sans-serif" font-size="14" lengthAdjust="spacing" textLength="79.7891" x="1951.99" y="73.9951">Team Skills</text></g><!--entity factor_perf--><g class="entity" data-entity="factor_perf" data-source-line="21" data-uid="ent0015" id="entity_factor_perf"><rect fill="#F1F1F1" height="46.2969" rx="2.5" ry="2.5" style="stroke:#181818;stroke-width:0.5;" width="177.792" x="2091.99" y="41"/><rect fill="#F1F1F1" height="10" style="stroke:#181818;stroke-width:0.5;" width="15" x="2249.782" y="46"/><rect fill="#F1F1F1" height="2" style="stroke:#181818;stroke-width:0.5;" width="4" x="2247.782" y="48"/><rect fill="#F1F1F1" height="2" style="stroke:#181818;stroke-width:0.5;" width="4" x="2247.782" y="52"/><text fill="#000000" font-family="sans-serif" font-size="14" lengthAdjust="spacing" textLength="137.792" x="2106.99" y="73.9951">Performance Needs</text></g><g class="entity" data-entity="GMN16" data-source-line="24" data-uid="ent0017" id="entity_GMN16"><path d="M6,147.3 L6,202.6984 A0,0 0 0 0 6,202.6984 L193.7783,202.6984 A0,0 0 0 0 193.7783,202.6984 L193.7783,157.3 L183.7783,147.3 L125.59,147.3 L168.86,87.71 L117.59,147.3 L6,147.3 A0,0 0 0 0 6,147.3" fill="#FAFAFA" style="stroke:#181818;stroke-width:0.5;"/><path d="M183.7783,147.3 L183.7783,157.3 L193.7783,157.3 L183.7783,147.3" fill="#FAFAFA" style="stroke:#181818;stroke-width:0.5;"/><text fill="#000000" font-family="sans-serif" font-size="13" lengthAdjust="spacing" textLength="130.5459" x="12" y="164.3669">Faster development</text><text fill="#000000" font-family="sans-serif" font-size="13" lengthAdjust="spacing" textLength="138.0996" x="12" y="179.4997">Less boilerplate code</text><text fill="#000000" font-family="sans-serif" font-size="13" lengthAdjust="spacing" textLength="166.7783" x="12" y="194.6325">Object-oriented approach</text></g><g class="entity" data-entity="GMN19" data-source-line="25" data-uid="ent0020" id="entity_GMN19"><path d="M229.2,147.3 L229.2,202.6984 A0,0 0 0 0 229.2,202.6984 L408.5867,202.6984 A0,0 0 0 0 408.5867,202.6984 L408.5867,157.3 L398.5867,147.3 L329.12,147.3 L338.71,87.71 L321.12,147.3 L229.2,147.3 A0,0 0 0 0 229.2,147.3" fill="#FAFAFA" style="stroke:#181818;stroke-width:0.5;"/><path d="M398.5867,147.3 L398.5867,157.3 L408.5867,157.3 L398.5867,147.3" fill="#FAFAFA" style="stroke:#181818;stroke-width:0.5;"/><text fill="#000000" font-family="sans-serif" font-size="13" lengthAdjust="spacing" textLength="158.3867" x="235.2" y="164.3669">Database independence</text><text fill="#000000" font-family="sans-serif" font-size="13" lengthAdjust="spacing" textLength="140.3149" x="235.2" y="179.4997">Automatic migrations</text><text fill="#000000" font-family="sans-serif" font-size="13" lengthAdjust="spacing" textLength="114.1563" x="235.2" y="194.6325">Built-in validation</text></g><g class="entity" data-entity="GMN22" data-source-line="26" data-uid="ent0023" id="entity_GMN22"><path d="M443.9,147.3 L443.9,202.6984 A0,0 0 0 0 443.9,202.6984 L595.8712,202.6984 A0,0 0 0 0 595.8712,202.6984 L595.8712,157.3 L585.8712,147.3 L517.65,147.3 L500.07,87.71 L509.65,147.3 L443.9,147.3 A0,0 0 0 0 443.9,147.3" fill="#FAFAFA" style="stroke:#181818;stroke-width:0.5;"/><path d="M585.8712,147.3 L585.8712,157.3 L595.8712,157.3 L585.8712,147.3" fill="#FAFAFA" style="stroke:#181818;stroke-width:0.5;"/><text fill="#000000" font-family="sans-serif" font-size="13" lengthAdjust="spacing" textLength="128.7432" x="449.9" y="164.3669">Multiple DB support</text><text fill="#000000" font-family="sans-serif" font-size="13" lengthAdjust="spacing" textLength="79.8472" x="449.9" y="179.4997">Easy testing</text><text fill="#000000" font-family="sans-serif" font-size="13" lengthAdjust="spacing" textLength="130.9712" x="449.9" y="194.6325">Consistent interface</text></g><g class="entity" data-entity="GMN25" data-source-line="27" data-uid="ent0026" id="entity_GMN25"><path d="M630.59,147.3 L630.59,202.6984 A0,0 0 0 0 630.59,202.6984 L823.1925,202.6984 A0,0 0 0 0 823.1925,202.6984 L823.1925,157.3 L813.1925,147.3 L712.43,147.3 L668.22,87.71 L704.43,147.3 L630.59,147.3 A0,0 0 0 0 630.59,147.3" fill="#FAFAFA" style="stroke:#181818;stroke-width:0.5;"/><path d="M813.1925,147.3 L813.1925,157.3 L823.1925,157.3 L813.1925,147.3" fill="#FAFAFA" style="stroke:#181818;stroke-width:0.5;"/><text fill="#000000" font-family="sans-serif" font-size="13" lengthAdjust="spacing" textLength="100.9912" x="636.59" y="164.3669">Automatic joins</text><text fill="#000000" font-family="sans-serif" font-size="13" lengthAdjust="spacing" textLength="81.7451" x="636.59" y="179.4997">Lazy loading</text><text fill="#000000" font-family="sans-serif" font-size="13" lengthAdjust="spacing" textLength="171.6025" x="636.59" y="194.6325">Relationship management</text></g><g class="entity" data-entity="GMN28" data-source-line="29" data-uid="ent0029" id="entity_GMN28"><path d="M858.61,147.3 L858.61,202.6984 A0,0 0 0 0 858.61,202.6984 L1031.1603,202.6984 A0,0 0 0 0 1031.1603,202.6984 L1031.1603,157.3 L1021.1603,147.3 L975.33,147.3 L1028.93,87.71 L967.33,147.3 L858.61,147.3 A0,0 0 0 0 858.61,147.3" fill="#FAFAFA" style="stroke:#181818;stroke-width:0.5;"/><path d="M1021.1603,147.3 L1021.1603,157.3 L1031.1603,157.3 L1021.1603,147.3" fill="#FAFAFA" style="stroke:#181818;stroke-width:0.5;"/><text fill="#000000" font-family="sans-serif" font-size="13" lengthAdjust="spacing" textLength="151.5503" x="864.61" y="164.3669">Direct database access</text><text fill="#000000" font-family="sans-serif" font-size="13" lengthAdjust="spacing" textLength="116.4985" x="864.61" y="179.4997">Minimal overhead</text><text fill="#000000" font-family="sans-serif" font-size="13" lengthAdjust="spacing" textLength="118.8916" x="864.61" y="194.6325">Optimized queries</text></g><g class="entity" data-entity="GMN31" data-source-line="30" data-uid="ent0032" id="entity_GMN31"><path d="M1066.41,147.3 L1066.41,202.6984 A0,0 0 0 0 1066.41,202.6984 L1261.3739,202.6984 A0,0 0 0 0 1261.3739,202.6984 L1261.3739,157.3 L1251.3739,147.3 L1175.87,147.3 L1189.26,87.71 L1167.87,147.3 L1066.41,147.3 A0,0 0 0 0 1066.41,147.3" fill="#FAFAFA" style="stroke:#181818;stroke-width:0.5;"/><path d="M1251.3739,147.3 L1251.3739,157.3 L1261.3739,157.3 L1251.3739,147.3" fill="#FAFAFA" style="stroke:#181818;stroke-width:0.5;"/><text fill="#000000" font-family="sans-serif" font-size="13" lengthAdjust="spacing" textLength="127.2578" x="1072.41" y="164.3669">Exact query control</text><text fill="#000000" font-family="sans-serif" font-size="13" lengthAdjust="spacing" textLength="113.8135" x="1072.41" y="179.4997">Custom functions</text><text fill="#000000" font-family="sans-serif" font-size="13" lengthAdjust="spacing" textLength="173.9639" x="1072.41" y="194.6325">Database-specific features</text></g><g class="entity" data-entity="GMN34" data-source-line="31" data-uid="ent0035" id="entity_GMN34"><path d="M1296.26,147.3 L1296.26,202.6984 A0,0 0 0 0 1296.26,202.6984 L1449.5134,202.6984 A0,0 0 0 0 1449.5134,202.6984 L1449.5134,157.3 L1439.5134,147.3 L1368.91,147.3 L1347.52,87.71 L1360.91,147.3 L1296.26,147.3 A0,0 0 0 0 1296.26,147.3" fill="#FAFAFA" style="stroke:#181818;stroke-width:0.5;"/><path d="M1439.5134,147.3 L1439.5134,157.3 L1449.5134,157.3 L1439.5134,147.3" fill="#FAFAFA" style="stroke:#181818;stroke-width:0.5;"/><text fill="#000000" font-family="sans-serif" font-size="13" lengthAdjust="spacing" textLength="132.2534" x="1302.26" y="164.3669">Manual optimization</text><text fill="#000000" font-family="sans-serif" font-size="13" lengthAdjust="spacing" textLength="104.5015" x="1302.26" y="179.4997">Custom indexes</text><text fill="#000000" font-family="sans-serif" font-size="13" lengthAdjust="spacing" textLength="100.0518" x="1302.26" y="194.6325">Query planning</text></g><g class="entity" data-entity="GMN37" data-source-line="32" data-uid="ent0038" id="entity_GMN37"><path d="M1484.18,147.3 L1484.18,202.6984 A0,0 0 0 0 1484.18,202.6984 L1657.6063,202.6984 A0,0 0 0 0 1657.6063,202.6984 L1657.6063,157.3 L1647.6063,147.3 L1555.69,147.3 L1509.84,87.71 L1547.69,147.3 L1484.18,147.3 A0,0 0 0 0 1484.18,147.3" fill="#FAFAFA" style="stroke:#181818;stroke-width:0.5;"/><path d="M1647.6063,147.3 L1647.6063,157.3 L1657.6063,157.3 L1647.6063,147.3" fill="#FAFAFA" style="stroke:#181818;stroke-width:0.5;"/><text fill="#000000" font-family="sans-serif" font-size="13" lengthAdjust="spacing" textLength="109.5986" x="1490.18" y="164.3669">Complex queries</text><text fill="#000000" font-family="sans-serif" font-size="13" lengthAdjust="spacing" textLength="120.3325" x="1490.18" y="179.4997">Stored procedures</text><text fill="#000000" font-family="sans-serif" font-size="13" lengthAdjust="spacing" textLength="152.4263" x="1490.18" y="194.6325">Advanced SQL features</text></g><g class="entity" data-entity="GMN40" data-source-line="34" data-uid="ent0041" id="entity_GMN40"><path d="M1692.21,154.87 L1692.21,195.1356 A0,0 0 0 0 1692.21,195.1356 L1869.5718,195.1356 A0,0 0 0 0 1869.5718,195.1356 L1869.5718,164.87 L1859.5718,154.87 L1795.7,154.87 L1828.46,87.71 L1787.7,154.87 L1692.21,154.87 A0,0 0 0 0 1692.21,154.87" fill="#FAFAFA" style="stroke:#181818;stroke-width:0.5;"/><path d="M1859.5718,154.87 L1859.5718,164.87 L1869.5718,164.87 L1859.5718,154.87" fill="#FAFAFA" style="stroke:#181818;stroke-width:0.5;"/><text fill="#000000" font-family="sans-serif" font-size="13" lengthAdjust="spacing" textLength="142.105" x="1698.21" y="171.9369">Small/Medium &#8594; ORM</text><text fill="#000000" font-family="sans-serif" font-size="13" lengthAdjust="spacing" textLength="156.3618" x="1698.21" y="187.0697">Large/Complex &#8594; Mixed</text></g><g class="entity" data-entity="GMN43" data-source-line="35" data-uid="ent0044" id="entity_GMN43"><path d="M1904.96,154.87 L1904.96,195.1356 A0,0 0 0 0 1904.96,195.1356 L2088.8282,195.1356 A0,0 0 0 0 2088.8282,195.1356 L2088.8282,164.87 L2078.8282,154.87 L2000.89,154.87 L1996.89,87.71 L1992.89,154.87 L1904.96,154.87 A0,0 0 0 0 1904.96,154.87" fill="#FAFAFA" style="stroke:#181818;stroke-width:0.5;"/><path d="M2078.8282,154.87 L2078.8282,164.87 L2088.8282,164.87 L2078.8282,154.87" fill="#FAFAFA" style="stroke:#181818;stroke-width:0.5;"/><text fill="#000000" font-family="sans-serif" font-size="13" lengthAdjust="spacing" textLength="162.8682" x="1910.96" y="171.9369">Junior developers &#8594; ORM</text><text fill="#000000" font-family="sans-serif" font-size="13" lengthAdjust="spacing" textLength="155.6636" x="1910.96" y="187.0697">SQL experts &#8594; Raw SQL</text></g><g class="entity" data-entity="GMN46" data-source-line="36" data-uid="ent0047" id="entity_GMN46"><path d="M2124.32,154.87 L2124.32,195.1356 A0,0 0 0 0 2124.32,195.1356 L2339.4631,195.1356 A0,0 0 0 0 2339.4631,195.1356 L2339.4631,164.87 L2329.4631,154.87 L2226.7,154.87 L2191.46,87.71 L2218.7,154.87 L2124.32,154.87 A0,0 0 0 0 2124.32,154.87" fill="#FAFAFA" style="stroke:#181818;stroke-width:0.5;"/><path d="M2329.4631,154.87 L2329.4631,164.87 L2339.4631,164.87 L2329.4631,154.87" fill="#FAFAFA" style="stroke:#181818;stroke-width:0.5;"/><text fill="#000000" font-family="sans-serif" font-size="13" lengthAdjust="spacing" textLength="150.7759" x="2130.32" y="171.9369">Standard CRUD &#8594; ORM</text><text fill="#000000" font-family="sans-serif" font-size="13" lengthAdjust="spacing" textLength="194.1431" x="2130.32" y="187.0697">High performance &#8594; Raw SQL</text></g><!--SRC=[VPJ1Sjem54NtVCKRzfdiksj2CfrEQ1feTvx92EiPNY9BYYGJIAVRVa0_iL_IAmEEdJhTCF2u75_TTqLy5EjLK3NLphfo4rpDb4B3azXz4pTAksUnQwgKYJoPU5K-gZNJz7OnfmksN4cAK_en8IfTxPrbcsZwDJZTb4csalPJKf5SgEyzXaFPnrLCGK7dRATIg_Y6vK9IAp4356P3rOADofou4HyxNM0p-TaplL3FjBox-Ozn3XL-g6p9BIG-cNkFsL1rwMmApdIACWKpLDpw9BMygEveMURy6zFNXdVIEreMLPWDFC-ub0WCNICf5qR3Vk0oqL9U3gQhLdWVyNce_CPOwV9HZ8a3OJjvDmZwmgm7FsWJWKVh4jFAfUHgSbMtPFe0hp5n8CrRDixNG1RsXcE4MWm7ZsKn7gUviBUhxFxC1O6ADIaFXYetOtIK0_2PGY5KP1AhsJDUuBAm7nieaNX9jQp3eGs5lMZ4f3Enj5L6T3iTzOr60JrlJ19lc6ON51kVfuMzKd5FYMF2FIWibXy5fqDA0iC1cV0O4Tq3yDNKWvFivqQzxCaufLjOlxQ4jB7n7DO_qPvwc4yl8MzRdq9GPObW2piNAxKovBOSDgmqaZsK49a-DOnuunWrTnVKgnrMs-hss4jRRnorYLbPDROyfdcA_YnwrBB2iIfMgGdZR1G-PwfiattrhaI7pXlSCS1txPFH2siHp1WiNmpGBj7H_EvufC8kqKWS4QKfMMSdQ8BUvkBgzgvt1jz2UzS4t2MoC-TprjBKzEVNRy8VNDvMMFFvwPbvF9STw_TGxKK2x7DZnNNrvn1VYTaIxp1BX-7nB-aTud7dowIiLa7JvUBxx9NrITORyhsRsWF-1G00]--></g></svg>