<svg xmlns="http://www.w3.org/2000/svg" xmlns:xlink="http://www.w3.org/1999/xlink" contentStyleType="text/css" data-diagram-type="CLASS" height="589px" preserveAspectRatio="none" style="width:421px;height:589px;background:#FFFFFF;" version="1.1" viewBox="0 0 421 589" width="421px" zoomAndPan="magnify"><defs/><g><!--class users--><g class="entity" data-entity="users" data-source-line="4" data-uid="ent0002" id="entity_users"><rect fill="#F1F1F1" height="129.4844" rx="2.5" ry="2.5" style="stroke:#181818;stroke-width:0.5;" width="201.7314" x="7" y="7"/><ellipse cx="84.7007" cy="23" fill="#C2C2C2" rx="11" ry="11" style="stroke:#181818;stroke-width:1;"/><path d="M88.8101,29 L81.0913,29 L81.0913,16.6094 L88.8101,16.6094 L88.8101,18.7656 L83.5444,18.7656 L83.5444,21.4375 L88.3101,21.4375 L88.3101,23.5938 L83.5444,23.5938 L83.5444,26.8438 L88.8101,26.8438 L88.8101,29 Z " fill="#000000"/><text fill="#000000" font-family="sans-serif" font-size="14" lengthAdjust="spacing" textLength="37.8301" x="105.2007" y="27.8467">users</text><line style="stroke:#181818;stroke-width:0.5;" x1="8" x2="207.7314" y1="39" y2="39"/><ellipse cx="18" cy="52.6484" fill="#000000" rx="3" ry="3" style="stroke:#000000;stroke-width:1;"/><text fill="#000000" font-family="sans-serif" font-size="14" lengthAdjust="spacing" textLength="120.8115" x="27" y="55.9951">id : INTEGER (PK)</text><line style="stroke:#181818;stroke-width:1;" x1="8" x2="207.7314" y1="63.2969" y2="63.2969"/><text fill="#000000" font-family="sans-serif" font-size="14" lengthAdjust="spacing" textLength="189.7314" x="13" y="80.292">username : TEXT (UNIQUE)</text><text fill="#000000" font-family="sans-serif" font-size="14" lengthAdjust="spacing" textLength="158.1016" x="13" y="96.5889">email : TEXT (UNIQUE)</text><text fill="#000000" font-family="sans-serif" font-size="14" lengthAdjust="spacing" textLength="169.4629" x="13" y="112.8857">created_at : TIMESTAMP</text><text fill="#000000" font-family="sans-serif" font-size="14" lengthAdjust="spacing" textLength="142.6934" x="13" y="129.1826">is_active : BOOLEAN</text></g><!--class posts--><g class="entity" data-entity="posts" data-source-line="13" data-uid="ent0003" id="entity_posts"><rect fill="#F1F1F1" height="162.0781" rx="2.5" ry="2.5" style="stroke:#181818;stroke-width:0.5;" width="201.2939" x="206.22" y="213.49"/><ellipse cx="283.8523" cy="229.49" fill="#C2C2C2" rx="11" ry="11" style="stroke:#181818;stroke-width:1;"/><path d="M287.9617,235.49 L280.2429,235.49 L280.2429,223.0994 L287.9617,223.0994 L287.9617,225.2556 L282.6961,225.2556 L282.6961,227.9275 L287.4617,227.9275 L287.4617,230.0837 L282.6961,230.0837 L282.6961,233.3337 L287.9617,233.3337 L287.9617,235.49 Z " fill="#000000"/><text fill="#000000" font-family="sans-serif" font-size="14" lengthAdjust="spacing" textLength="37.5293" x="304.3523" y="234.3367">posts</text><line style="stroke:#181818;stroke-width:0.5;" x1="207.22" x2="406.5139" y1="245.49" y2="245.49"/><ellipse cx="217.22" cy="259.1384" fill="#000000" rx="3" ry="3" style="stroke:#000000;stroke-width:1;"/><text fill="#000000" font-family="sans-serif" font-size="14" lengthAdjust="spacing" textLength="120.8115" x="226.22" y="262.4851">id : INTEGER (PK)</text><line style="stroke:#181818;stroke-width:1;" x1="207.22" x2="406.5139" y1="269.7869" y2="269.7869"/><text fill="#000000" font-family="sans-serif" font-size="14" lengthAdjust="spacing" textLength="76.5283" x="212.22" y="286.782">title : TEXT</text><text fill="#000000" font-family="sans-serif" font-size="14" lengthAdjust="spacing" textLength="102.7578" x="212.22" y="303.0789">content : TEXT</text><text fill="#000000" font-family="sans-serif" font-size="14" lengthAdjust="spacing" textLength="173.5576" x="212.22" y="319.3757">author_id : INTEGER (FK)</text><text fill="#000000" font-family="sans-serif" font-size="14" lengthAdjust="spacing" textLength="189.2939" x="212.22" y="335.6726">category_id : INTEGER (FK)</text><text fill="#000000" font-family="sans-serif" font-size="14" lengthAdjust="spacing" textLength="150.0488" x="212.22" y="351.9695">published : BOOLEAN</text><text fill="#000000" font-family="sans-serif" font-size="14" lengthAdjust="spacing" textLength="169.4629" x="212.22" y="368.2664">created_at : TIMESTAMP</text></g><!--class categories--><g class="entity" data-entity="categories" data-source-line="24" data-uid="ent0004" id="entity_categories"><rect fill="#F1F1F1" height="96.8906" rx="2.5" ry="2.5" style="stroke:#181818;stroke-width:0.5;" width="171.1953" x="243.27" y="23.3"/><ellipse cx="287.9258" cy="39.3" fill="#C2C2C2" rx="11" ry="11" style="stroke:#181818;stroke-width:1;"/><path d="M292.0351,45.3 L284.3164,45.3 L284.3164,32.9094 L292.0351,32.9094 L292.0351,35.0656 L286.7695,35.0656 L286.7695,37.7375 L291.5351,37.7375 L291.5351,39.8937 L286.7695,39.8937 L286.7695,43.1437 L292.0351,43.1437 L292.0351,45.3 Z " fill="#000000"/><text fill="#000000" font-family="sans-serif" font-size="14" lengthAdjust="spacing" textLength="73.3838" x="308.4258" y="44.1467">categories</text><line style="stroke:#181818;stroke-width:0.5;" x1="244.27" x2="413.4653" y1="55.3" y2="55.3"/><ellipse cx="254.27" cy="68.9484" fill="#000000" rx="3" ry="3" style="stroke:#000000;stroke-width:1;"/><text fill="#000000" font-family="sans-serif" font-size="14" lengthAdjust="spacing" textLength="120.8115" x="263.27" y="72.2951">id : INTEGER (PK)</text><line style="stroke:#181818;stroke-width:1;" x1="244.27" x2="413.4653" y1="79.5969" y2="79.5969"/><text fill="#000000" font-family="sans-serif" font-size="14" lengthAdjust="spacing" textLength="159.1953" x="249.27" y="96.592">name : TEXT (UNIQUE)</text><text fill="#000000" font-family="sans-serif" font-size="14" lengthAdjust="spacing" textLength="126.998" x="249.27" y="112.8889">description : TEXT</text></g><!--class comments--><g class="entity" data-entity="comments" data-source-line="31" data-uid="ent0005" id="entity_comments"><rect fill="#F1F1F1" height="129.4844" rx="2.5" ry="2.5" style="stroke:#181818;stroke-width:0.5;" width="185.5576" x="44.09" y="452.57"/><ellipse cx="95.715" cy="468.57" fill="#C2C2C2" rx="11" ry="11" style="stroke:#181818;stroke-width:1;"/><path d="M99.8244,474.57 L92.1056,474.57 L92.1056,462.1794 L99.8244,462.1794 L99.8244,464.3356 L94.5588,464.3356 L94.5588,467.0075 L99.3244,467.0075 L99.3244,469.1637 L94.5588,469.1637 L94.5588,472.4137 L99.8244,472.4137 L99.8244,474.57 Z " fill="#000000"/><text fill="#000000" font-family="sans-serif" font-size="14" lengthAdjust="spacing" textLength="73.8076" x="116.215" y="473.4167">comments</text><line style="stroke:#181818;stroke-width:0.5;" x1="45.09" x2="228.6476" y1="484.57" y2="484.57"/><ellipse cx="55.09" cy="498.2184" fill="#000000" rx="3" ry="3" style="stroke:#000000;stroke-width:1;"/><text fill="#000000" font-family="sans-serif" font-size="14" lengthAdjust="spacing" textLength="120.8115" x="64.09" y="501.5651">id : INTEGER (PK)</text><line style="stroke:#181818;stroke-width:1;" x1="45.09" x2="228.6476" y1="508.8669" y2="508.8669"/><text fill="#000000" font-family="sans-serif" font-size="14" lengthAdjust="spacing" textLength="157.6572" x="50.09" y="525.862">post_id : INTEGER (FK)</text><text fill="#000000" font-family="sans-serif" font-size="14" lengthAdjust="spacing" textLength="173.5576" x="50.09" y="542.1589">author_id : INTEGER (FK)</text><text fill="#000000" font-family="sans-serif" font-size="14" lengthAdjust="spacing" textLength="102.7578" x="50.09" y="558.4557">content : TEXT</text><text fill="#000000" font-family="sans-serif" font-size="14" lengthAdjust="spacing" textLength="169.4629" x="50.09" y="574.7526">created_at : TIMESTAMP</text></g><!--link users to posts--><g class="link" data-entity-1="users" data-entity-2="posts" data-source-line="40" data-uid="lnk6" id="link_users_posts"><path codeLine="40" d="M171.046,142.8425 C192.506,166.6525 199.7204,174.6481 222.3204,199.7281" fill="none" id="users-posts" style="stroke:#181818;stroke-width:1;"/><line style="stroke:#181818;stroke-width:1;" x1="165.3967" x2="171.3392" y1="142.5492" y2="137.1933"/><line style="stroke:#181818;stroke-width:1;" x1="167.4052" x2="173.3477" y1="144.7777" y2="139.4217"/><line style="stroke:#181818;stroke-width:1;" x1="171.046" x2="165.69" y1="142.8425" y2="136.9"/><line style="stroke:#181818;stroke-width:1;" x1="229.0146" x2="238.8273" y1="207.1569" y2="209.0835"/><line style="stroke:#181818;stroke-width:1;" x1="229.0146" x2="229.9127" y1="207.1569" y2="217.1165"/><line style="stroke:#181818;stroke-width:1;" x1="229.0146" x2="234.37" y1="207.1569" y2="213.1"/><ellipse cx="224.9981" cy="202.6997" fill="none" rx="4" ry="4" style="stroke:#181818;stroke-width:1;"/><text fill="#000000" font-family="sans-serif" font-size="13" lengthAdjust="spacing" textLength="61.2041" x="208.87" y="179.5569">author_id</text></g><!--link users to comments--><g class="link" data-entity-1="users" data-entity-2="comments" data-source-line="41" data-uid="lnk7" id="link_users_comments"><path codeLine="41" d="M111.7717,144.8478 C115.1617,206.1578 120.2,293.21 125.87,375.57 C127.59,400.63 128.2818,410.236 130.1818,434.276" fill="none" id="users-comments" style="stroke:#181818;stroke-width:1;"/><line style="stroke:#181818;stroke-width:1;" x1="107.5569" x2="115.5447" y1="141.0747" y2="140.6331"/><line style="stroke:#181818;stroke-width:1;" x1="107.7226" x2="115.7104" y1="144.0702" y2="143.6285"/><line style="stroke:#181818;stroke-width:1;" x1="111.7717" x2="111.33" y1="144.8478" y2="136.86"/><line style="stroke:#181818;stroke-width:1;" x1="130.9697" x2="137.5813" y1="444.2449" y2="451.7473"/><line style="stroke:#181818;stroke-width:1;" x1="130.9697" x2="125.6187" y1="444.2449" y2="452.6927"/><line style="stroke:#181818;stroke-width:1;" x1="130.9697" x2="131.6" y1="444.2449" y2="452.22"/><ellipse cx="130.497" cy="438.2635" fill="none" rx="4" ry="4" style="stroke:#181818;stroke-width:1;"/><text fill="#000000" font-family="sans-serif" font-size="13" lengthAdjust="spacing" textLength="61.2041" x="126.87" y="299.0969">author_id</text></g><!--link categories to posts--><g class="link" data-entity-1="categories" data-entity-2="posts" data-source-line="42" data-uid="lnk8" id="link_categories_posts"><path codeLine="42" d="M323.2972,128.6106 C320.6072,155.6206 319.7594,164.2092 316.6594,195.2392" fill="none" id="categories-posts" style="stroke:#181818;stroke-width:1;"/><line style="stroke:#181818;stroke-width:1;" x1="319.7133" x2="327.6739" y1="124.2339" y2="125.0267"/><line style="stroke:#181818;stroke-width:1;" x1="319.416" x2="327.3766" y1="127.2191" y2="128.012"/><line style="stroke:#181818;stroke-width:1;" x1="323.2972" x2="324.09" y1="128.6106" y2="120.65"/><line style="stroke:#181818;stroke-width:1;" x1="315.6653" x2="320.8403" y1="205.1896" y2="213.7465"/><line style="stroke:#181818;stroke-width:1;" x1="315.6653" x2="308.8997" y1="205.1896" y2="212.5535"/><line style="stroke:#181818;stroke-width:1;" x1="315.6653" x2="314.87" y1="205.1896" y2="213.15"/><ellipse cx="316.2617" cy="199.2193" fill="none" rx="4" ry="4" style="stroke:#181818;stroke-width:1;"/><text fill="#000000" font-family="sans-serif" font-size="13" lengthAdjust="spacing" textLength="75.8164" x="320.87" y="179.5569">category_id</text></g><!--link posts to comments--><g class="link" data-entity-1="posts" data-entity-2="comments" data-source-line="43" data-uid="lnk9" id="link_posts_comments"><path codeLine="43" d="M240.1285,382.1981 C220.7585,407.3481 215.5217,414.1581 197.1417,438.0281" fill="none" id="posts-comments" style="stroke:#181818;stroke-width:1;"/><line style="stroke:#181818;stroke-width:1;" x1="239.4002" x2="245.7383" y1="376.5883" y2="381.4698"/><line style="stroke:#181818;stroke-width:1;" x1="237.5697" x2="243.9078" y1="378.9651" y2="383.8466"/><line style="stroke:#181818;stroke-width:1;" x1="240.1285" x2="245.01" y1="382.1981" y2="375.86"/><line style="stroke:#181818;stroke-width:1;" x1="191.0408" x2="190.914" y1="445.9514" y2="455.9506"/><line style="stroke:#181818;stroke-width:1;" x1="191.0408" x2="181.406" y1="445.9514" y2="448.6294"/><line style="stroke:#181818;stroke-width:1;" x1="191.0408" x2="186.16" y1="445.9514" y2="452.29"/><ellipse cx="194.7013" cy="441.1974" fill="none" rx="4" ry="4" style="stroke:#181818;stroke-width:1;"/><text fill="#000000" font-family="sans-serif" font-size="13" lengthAdjust="spacing" textLength="46.4395" x="222.87" y="418.6369">post_id</text></g><!--SRC=[XL9HJyCW67pdLtpXQPhq3-nj9cWQNJUrItnhaE9ABD00rIoR_rsewzfjhNqXvBlZk3kmdq9Lr509KYlD2gCb1sTgZkm9iGNDzRTGM_YWfUK8SUM4sm6kBJSMmnu1t8B8OGvnaf87yWApzUEDdqQHNm9BKIyxXvIyfJ3R9F7pXWISIohAWJapd3gUPzG5C5wIrtInN7j0s8mo9xw2sDrgzKGM2Vhf35NQkcb3dbksRi9bMZalq0rexGfjilFpzyrvvcrjjTaDWbNzNWfRyBndRZHBp_LHLF1fwoCzvjmo8oedj6fZzFMrb7u_hHxg6qpsNoENxOtdRRuB70vHfFVDNTOpy4aRdnDQrnUShgmhfTxZOFGt7T0wXiI_]--></g></svg>