<svg xmlns="http://www.w3.org/2000/svg" xmlns:xlink="http://www.w3.org/1999/xlink" contentStyleType="text/css" data-diagram-type="DESCRIPTION" height="518px" preserveAspectRatio="none" style="width:936px;height:518px;background:#FFFFFF;" version="1.1" viewBox="0 0 936 518" width="936px" zoomAndPan="magnify"><defs/><g><!--cluster Motion Sensors--><g class="cluster" data-entity="Motion Sensors" data-source-line="4" data-uid="ent0002" id="cluster_Motion Sensors"><path d="M345.5,6 L468.7334,6 A3.75,3.75 0 0 1 471.2334,8.5 L478.2334,28.2969 L926.5,28.2969 A2.5,2.5 0 0 1 929,30.7969 L929,207.09 A2.5,2.5 0 0 1 926.5,209.59 L345.5,209.59 A2.5,2.5 0 0 1 343,207.09 L343,8.5 A2.5,2.5 0 0 1 345.5,6" fill="none" style="stroke:#000000;stroke-width:1.5;"/><line style="stroke:#000000;stroke-width:1.5;" x1="343" x2="478.2334" y1="28.2969" y2="28.2969"/><text fill="#000000" font-family="sans-serif" font-size="14" font-weight="bold" lengthAdjust="spacing" textLength="122.2334" x="347" y="20.9951">Motion Sensors</text></g><!--cluster Light Sensors--><g class="cluster" data-entity="Light Sensors" data-source-line="10" data-uid="ent0012" id="cluster_Light Sensors"><path d="M8.5,6 L117.5078,6 A3.75,3.75 0 0 1 120.0078,8.5 L127.0078,28.2969 L316.5,28.2969 A2.5,2.5 0 0 1 319,30.7969 L319,207.09 A2.5,2.5 0 0 1 316.5,209.59 L8.5,209.59 A2.5,2.5 0 0 1 6,207.09 L6,8.5 A2.5,2.5 0 0 1 8.5,6" fill="none" style="stroke:#000000;stroke-width:1.5;"/><line style="stroke:#000000;stroke-width:1.5;" x1="6" x2="127.0078" y1="28.2969" y2="28.2969"/><text fill="#000000" font-family="sans-serif" font-size="14" font-weight="bold" lengthAdjust="spacing" textLength="108.0078" x="10" y="20.9951">Light Sensors</text></g><!--entity PIR Sensor--><g class="entity" data-entity="PIR Sensor" data-source-line="5" data-uid="ent0003" id="entity_PIR Sensor"><rect fill="#F1F1F1" height="46.2969" rx="2.5" ry="2.5" style="stroke:#181818;stroke-width:0.5;" width="114.7373" x="583.63" y="41"/><rect fill="#F1F1F1" height="10" style="stroke:#181818;stroke-width:0.5;" width="15" x="678.3673" y="46"/><rect fill="#F1F1F1" height="2" style="stroke:#181818;stroke-width:0.5;" width="4" x="676.3673" y="48"/><rect fill="#F1F1F1" height="2" style="stroke:#181818;stroke-width:0.5;" width="4" x="676.3673" y="52"/><text fill="#000000" font-family="sans-serif" font-size="14" lengthAdjust="spacing" textLength="74.7373" x="598.63" y="73.9951">PIR Sensor</text></g><!--entity Movement Detection--><g class="entity" data-entity="Movement Detection" data-source-line="5" data-uid="ent0004" id="entity_Movement Detection"><rect fill="#F1F1F1" height="46.2969" rx="2.5" ry="2.5" style="stroke:#181818;stroke-width:0.5;" width="186.6172" x="547.69" y="147.29"/><rect fill="#F1F1F1" height="10" style="stroke:#181818;stroke-width:0.5;" width="15" x="714.3072" y="152.29"/><rect fill="#F1F1F1" height="2" style="stroke:#181818;stroke-width:0.5;" width="4" x="712.3072" y="154.29"/><rect fill="#F1F1F1" height="2" style="stroke:#181818;stroke-width:0.5;" width="4" x="712.3072" y="158.29"/><text fill="#000000" font-family="sans-serif" font-size="14" lengthAdjust="spacing" textLength="146.6172" x="562.69" y="180.2851">Movement Detection</text></g><!--entity Accelerometer--><g class="entity" data-entity="Accelerometer" data-source-line="6" data-uid="ent0006" id="entity_Accelerometer"><rect fill="#F1F1F1" height="46.2969" rx="2.5" ry="2.5" style="stroke:#181818;stroke-width:0.5;" width="142.5186" x="364.74" y="41"/><rect fill="#F1F1F1" height="10" style="stroke:#181818;stroke-width:0.5;" width="15" x="487.2586" y="46"/><rect fill="#F1F1F1" height="2" style="stroke:#181818;stroke-width:0.5;" width="4" x="485.2586" y="48"/><rect fill="#F1F1F1" height="2" style="stroke:#181818;stroke-width:0.5;" width="4" x="485.2586" y="52"/><text fill="#000000" font-family="sans-serif" font-size="14" lengthAdjust="spacing" textLength="102.5186" x="379.74" y="73.9951">Accelerometer</text></g><!--entity Acceleration/Tilt--><g class="entity" data-entity="Acceleration/Tilt" data-source-line="6" data-uid="ent0007" id="entity_Acceleration/Tilt"><rect fill="#F1F1F1" height="46.2969" rx="2.5" ry="2.5" style="stroke:#181818;stroke-width:0.5;" width="153.7773" x="359.11" y="147.29"/><rect fill="#F1F1F1" height="10" style="stroke:#181818;stroke-width:0.5;" width="15" x="492.8873" y="152.29"/><rect fill="#F1F1F1" height="2" style="stroke:#181818;stroke-width:0.5;" width="4" x="490.8873" y="154.29"/><rect fill="#F1F1F1" height="2" style="stroke:#181818;stroke-width:0.5;" width="4" x="490.8873" y="158.29"/><text fill="#000000" font-family="sans-serif" font-size="14" lengthAdjust="spacing" textLength="113.7773" x="374.11" y="180.2851">Acceleration/Tilt</text></g><!--entity Encoder--><g class="entity" data-entity="Encoder" data-source-line="7" data-uid="ent0009" id="entity_Encoder"><rect fill="#F1F1F1" height="46.2969" rx="2.5" ry="2.5" style="stroke:#181818;stroke-width:0.5;" width="97.2373" x="792.38" y="41"/><rect fill="#F1F1F1" height="10" style="stroke:#181818;stroke-width:0.5;" width="15" x="869.6173" y="46"/><rect fill="#F1F1F1" height="2" style="stroke:#181818;stroke-width:0.5;" width="4" x="867.6173" y="48"/><rect fill="#F1F1F1" height="2" style="stroke:#181818;stroke-width:0.5;" width="4" x="867.6173" y="52"/><text fill="#000000" font-family="sans-serif" font-size="14" lengthAdjust="spacing" textLength="57.2373" x="807.38" y="73.9951">Encoder</text></g><!--entity Position/Speed--><g class="entity" data-entity="Position/Speed" data-source-line="7" data-uid="ent0010" id="entity_Position/Speed"><rect fill="#F1F1F1" height="46.2969" rx="2.5" ry="2.5" style="stroke:#181818;stroke-width:0.5;" width="143.6123" x="769.19" y="147.29"/><rect fill="#F1F1F1" height="10" style="stroke:#181818;stroke-width:0.5;" width="15" x="892.8023" y="152.29"/><rect fill="#F1F1F1" height="2" style="stroke:#181818;stroke-width:0.5;" width="4" x="890.8023" y="154.29"/><rect fill="#F1F1F1" height="2" style="stroke:#181818;stroke-width:0.5;" width="4" x="890.8023" y="158.29"/><text fill="#000000" font-family="sans-serif" font-size="14" lengthAdjust="spacing" textLength="103.6123" x="784.19" y="180.2851">Position/Speed</text></g><!--entity Photocell--><g class="entity" data-entity="Photocell" data-source-line="11" data-uid="ent0013" id="entity_Photocell"><rect fill="#F1F1F1" height="46.2969" rx="2.5" ry="2.5" style="stroke:#181818;stroke-width:0.5;" width="104.0254" x="192.99" y="41"/><rect fill="#F1F1F1" height="10" style="stroke:#181818;stroke-width:0.5;" width="15" x="277.0154" y="46"/><rect fill="#F1F1F1" height="2" style="stroke:#181818;stroke-width:0.5;" width="4" x="275.0154" y="48"/><rect fill="#F1F1F1" height="2" style="stroke:#181818;stroke-width:0.5;" width="4" x="275.0154" y="52"/><text fill="#000000" font-family="sans-serif" font-size="14" lengthAdjust="spacing" textLength="64.0254" x="207.99" y="73.9951">Photocell</text></g><!--entity Light Level--><g class="entity" data-entity="Light Level" data-source-line="11" data-uid="ent0014" id="entity_Light Level"><rect fill="#F1F1F1" height="46.2969" rx="2.5" ry="2.5" style="stroke:#181818;stroke-width:0.5;" width="116.5898" x="186.71" y="147.29"/><rect fill="#F1F1F1" height="10" style="stroke:#181818;stroke-width:0.5;" width="15" x="283.2998" y="152.29"/><rect fill="#F1F1F1" height="2" style="stroke:#181818;stroke-width:0.5;" width="4" x="281.2998" y="154.29"/><rect fill="#F1F1F1" height="2" style="stroke:#181818;stroke-width:0.5;" width="4" x="281.2998" y="158.29"/><text fill="#000000" font-family="sans-serif" font-size="14" lengthAdjust="spacing" textLength="76.5898" x="201.71" y="180.2851">Light Level</text></g><!--entity Photodiode--><g class="entity" data-entity="Photodiode" data-source-line="12" data-uid="ent0016" id="entity_Photodiode"><rect fill="#F1F1F1" height="46.2969" rx="2.5" ry="2.5" style="stroke:#181818;stroke-width:0.5;" width="118.7773" x="27.61" y="41"/><rect fill="#F1F1F1" height="10" style="stroke:#181818;stroke-width:0.5;" width="15" x="126.3873" y="46"/><rect fill="#F1F1F1" height="2" style="stroke:#181818;stroke-width:0.5;" width="4" x="124.3873" y="48"/><rect fill="#F1F1F1" height="2" style="stroke:#181818;stroke-width:0.5;" width="4" x="124.3873" y="52"/><text fill="#000000" font-family="sans-serif" font-size="14" lengthAdjust="spacing" textLength="78.7773" x="42.61" y="73.9951">Photodiode</text></g><!--entity Precise Light--><g class="entity" data-entity="Precise Light" data-source-line="12" data-uid="ent0017" id="entity_Precise Light"><rect fill="#F1F1F1" height="46.2969" rx="2.5" ry="2.5" style="stroke:#181818;stroke-width:0.5;" width="129.6943" x="22.15" y="147.29"/><rect fill="#F1F1F1" height="10" style="stroke:#181818;stroke-width:0.5;" width="15" x="131.8443" y="152.29"/><rect fill="#F1F1F1" height="2" style="stroke:#181818;stroke-width:0.5;" width="4" x="129.8443" y="154.29"/><rect fill="#F1F1F1" height="2" style="stroke:#181818;stroke-width:0.5;" width="4" x="129.8443" y="158.29"/><text fill="#000000" font-family="sans-serif" font-size="14" lengthAdjust="spacing" textLength="89.6943" x="37.15" y="180.2851">Precise Light</text></g><!--entity Digital Signal--><g class="entity" data-entity="Digital Signal" data-source-line="15" data-uid="ent0019" id="entity_Digital Signal"><rect fill="#F1F1F1" height="46.2969" rx="2.5" ry="2.5" style="stroke:#181818;stroke-width:0.5;" width="132.8594" x="574.57" y="253.59"/><rect fill="#F1F1F1" height="10" style="stroke:#181818;stroke-width:0.5;" width="15" x="687.4294" y="258.59"/><rect fill="#F1F1F1" height="2" style="stroke:#181818;stroke-width:0.5;" width="4" x="685.4294" y="260.59"/><rect fill="#F1F1F1" height="2" style="stroke:#181818;stroke-width:0.5;" width="4" x="685.4294" y="264.59"/><text fill="#000000" font-family="sans-serif" font-size="14" lengthAdjust="spacing" textLength="92.8594" x="589.57" y="286.5851">Digital Signal</text></g><!--entity Analog Signal--><g class="entity" data-entity="Analog Signal" data-source-line="16" data-uid="ent0021" id="entity_Analog Signal"><rect fill="#F1F1F1" height="46.2969" rx="2.5" ry="2.5" style="stroke:#181818;stroke-width:0.5;" width="135.8262" x="273.09" y="253.59"/><rect fill="#F1F1F1" height="10" style="stroke:#181818;stroke-width:0.5;" width="15" x="388.9162" y="258.59"/><rect fill="#F1F1F1" height="2" style="stroke:#181818;stroke-width:0.5;" width="4" x="386.9162" y="260.59"/><rect fill="#F1F1F1" height="2" style="stroke:#181818;stroke-width:0.5;" width="4" x="386.9162" y="264.59"/><text fill="#000000" font-family="sans-serif" font-size="14" lengthAdjust="spacing" textLength="95.8262" x="288.09" y="286.5851">Analog Signal</text></g><!--entity Digital Pulses--><g class="entity" data-entity="Digital Pulses" data-source-line="17" data-uid="ent0023" id="entity_Digital Pulses"><rect fill="#F1F1F1" height="46.2969" rx="2.5" ry="2.5" style="stroke:#181818;stroke-width:0.5;" width="134.2607" x="757.87" y="253.59"/><rect fill="#F1F1F1" height="10" style="stroke:#181818;stroke-width:0.5;" width="15" x="872.1307" y="258.59"/><rect fill="#F1F1F1" height="2" style="stroke:#181818;stroke-width:0.5;" width="4" x="870.1307" y="260.59"/><rect fill="#F1F1F1" height="2" style="stroke:#181818;stroke-width:0.5;" width="4" x="870.1307" y="264.59"/><text fill="#000000" font-family="sans-serif" font-size="14" lengthAdjust="spacing" textLength="94.2607" x="772.87" y="286.5851">Digital Pulses</text></g><!--entity Microcontroller--><g class="entity" data-entity="Microcontroller" data-source-line="21" data-uid="ent0027" id="entity_Microcontroller"><rect fill="#F1F1F1" height="46.2969" rx="2.5" ry="2.5" style="stroke:#181818;stroke-width:0.5;" width="145.082" x="568.46" y="466.18"/><rect fill="#F1F1F1" height="10" style="stroke:#181818;stroke-width:0.5;" width="15" x="693.542" y="471.18"/><rect fill="#F1F1F1" height="2" style="stroke:#181818;stroke-width:0.5;" width="4" x="691.542" y="473.18"/><rect fill="#F1F1F1" height="2" style="stroke:#181818;stroke-width:0.5;" width="4" x="691.542" y="477.18"/><text fill="#000000" font-family="sans-serif" font-size="14" lengthAdjust="spacing" textLength="105.082" x="583.46" y="499.1751">Microcontroller</text></g><!--entity ADC--><g class="entity" data-entity="ADC" data-source-line="22" data-uid="ent0029" id="entity_ADC"><rect fill="#F1F1F1" height="46.2969" rx="2.5" ry="2.5" style="stroke:#181818;stroke-width:0.5;" width="70.1328" x="411.93" y="359.89"/><rect fill="#F1F1F1" height="10" style="stroke:#181818;stroke-width:0.5;" width="15" x="462.0628" y="364.89"/><rect fill="#F1F1F1" height="2" style="stroke:#181818;stroke-width:0.5;" width="4" x="460.0628" y="366.89"/><rect fill="#F1F1F1" height="2" style="stroke:#181818;stroke-width:0.5;" width="4" x="460.0628" y="370.89"/><text fill="#000000" font-family="sans-serif" font-size="14" lengthAdjust="spacing" textLength="30.1328" x="426.93" y="392.8851">ADC</text></g><!--link PIR Sensor to Movement Detection--><g class="link" data-entity-1="PIR Sensor" data-entity-2="Movement Detection" data-source-line="5" data-uid="lnk5" id="link_PIR Sensor_Movement Detection"><path d="M641,87.77 C641,105.27 641,123.37 641,140.85" fill="none" id="PIR Sensor-to-Movement Detection" style="stroke:#181818;stroke-width:1;"/><polygon fill="#181818" points="641,146.85,645,137.85,641,141.85,637,137.85,641,146.85" style="stroke:#181818;stroke-width:1;"/></g><!--link Accelerometer to Acceleration/Tilt--><g class="link" data-entity-1="Accelerometer" data-entity-2="Acceleration/Tilt" data-source-line="6" data-uid="lnk8" id="link_Accelerometer_Acceleration/Tilt"><path d="M436,87.77 C436,105.27 436,123.37 436,140.85" fill="none" id="Accelerometer-to-Acceleration/Tilt" style="stroke:#181818;stroke-width:1;"/><polygon fill="#181818" points="436,146.85,440,137.85,436,141.85,432,137.85,436,146.85" style="stroke:#181818;stroke-width:1;"/></g><!--link Encoder to Position/Speed--><g class="link" data-entity-1="Encoder" data-entity-2="Position/Speed" data-source-line="7" data-uid="lnk11" id="link_Encoder_Position/Speed"><path d="M841,87.77 C841,105.27 841,123.37 841,140.85" fill="none" id="Encoder-to-Position/Speed" style="stroke:#181818;stroke-width:1;"/><polygon fill="#181818" points="841,146.85,845,137.85,841,141.85,837,137.85,841,146.85" style="stroke:#181818;stroke-width:1;"/></g><!--link Photocell to Light Level--><g class="link" data-entity-1="Photocell" data-entity-2="Light Level" data-source-line="11" data-uid="lnk15" id="link_Photocell_Light Level"><path d="M245,87.77 C245,105.27 245,123.37 245,140.85" fill="none" id="Photocell-to-Light Level" style="stroke:#181818;stroke-width:1;"/><polygon fill="#181818" points="245,146.85,249,137.85,245,141.85,241,137.85,245,146.85" style="stroke:#181818;stroke-width:1;"/></g><!--link Photodiode to Precise Light--><g class="link" data-entity-1="Photodiode" data-entity-2="Precise Light" data-source-line="12" data-uid="lnk18" id="link_Photodiode_Precise Light"><path d="M87,87.77 C87,105.27 87,123.37 87,140.85" fill="none" id="Photodiode-to-Precise Light" style="stroke:#181818;stroke-width:1;"/><polygon fill="#181818" points="87,146.85,91,137.85,87,141.85,83,137.85,87,146.85" style="stroke:#181818;stroke-width:1;"/></g><!--link Movement Detection to Digital Signal--><g class="link" data-entity-1="Movement Detection" data-entity-2="Digital Signal" data-source-line="15" data-uid="lnk20" id="link_Movement Detection_Digital Signal"><path d="M641,194.07 C641,211.57 641,229.67 641,247.15" fill="none" id="Movement Detection-to-Digital Signal" style="stroke:#181818;stroke-width:1;"/><polygon fill="#181818" points="641,253.15,645,244.15,641,248.15,637,244.15,641,253.15" style="stroke:#181818;stroke-width:1;"/></g><!--link Acceleration/Tilt to Analog Signal--><g class="link" data-entity-1="Acceleration/Tilt" data-entity-2="Analog Signal" data-source-line="16" data-uid="lnk22" id="link_Acceleration/Tilt_Analog Signal"><path d="M415.39,194.07 C399.45,211.57 381.5415,231.2353 365.6115,248.7153" fill="none" id="Acceleration/Tilt-to-Analog Signal" style="stroke:#181818;stroke-width:1;"/><polygon fill="#181818" points="361.57,253.15,370.5887,249.1923,364.9379,249.4544,364.6757,243.8036,361.57,253.15" style="stroke:#181818;stroke-width:1;"/></g><!--link Position/Speed to Digital Pulses--><g class="link" data-entity-1="Position/Speed" data-entity-2="Digital Pulses" data-source-line="17" data-uid="lnk24" id="link_Position/Speed_Digital Pulses"><path d="M837.53,194.07 C834.84,211.57 832.0626,229.7398 829.3726,247.2198" fill="none" id="Position/Speed-to-Digital Pulses" style="stroke:#181818;stroke-width:1;"/><polygon fill="#181818" points="828.46,253.15,833.7824,244.8631,829.2205,248.2082,825.8754,243.6463,828.46,253.15" style="stroke:#181818;stroke-width:1;"/></g><!--link Light Level to Analog Signal--><g class="link" data-entity-1="Light Level" data-entity-2="Analog Signal" data-source-line="18" data-uid="lnk25" id="link_Light Level_Analog Signal"><path d="M265.83,194.07 C281.93,211.57 300.0565,231.2555 316.1465,248.7355" fill="none" id="Light Level-to-Analog Signal" style="stroke:#181818;stroke-width:1;"/><polygon fill="#181818" points="320.21,253.15,317.0578,243.8192,316.8238,249.4712,311.1717,249.2372,320.21,253.15" style="stroke:#181818;stroke-width:1;"/></g><!--link Precise Light to Analog Signal--><g class="link" data-entity-1="Precise Light" data-entity-2="Analog Signal" data-source-line="19" data-uid="lnk26" id="link_Precise Light_Analog Signal"><path d="M123.8,194.08 C137.67,202.1 153.78,210.81 169,217.59 C202.4,232.48 235.1186,244.0028 267.1886,254.1328" fill="none" id="Precise Light-to-Analog Signal" style="stroke:#181818;stroke-width:1;"/><polygon fill="#181818" points="272.91,255.94,265.5328,249.4149,268.1422,254.434,263.1231,257.0434,272.91,255.94" style="stroke:#181818;stroke-width:1;"/></g><!--link Digital Signal to Microcontroller--><g class="link" data-entity-1="Digital Signal" data-entity-2="Microcontroller" data-source-line="21" data-uid="lnk28" id="link_Digital Signal_Microcontroller"><path d="M641,300.28 C641,340.81 641,419.54 641,459.96" fill="none" id="Digital Signal-to-Microcontroller" style="stroke:#181818;stroke-width:1;"/><polygon fill="#181818" points="641,465.96,645,456.96,641,460.96,637,456.96,641,465.96" style="stroke:#181818;stroke-width:1;"/></g><!--link Analog Signal to ADC--><g class="link" data-entity-1="Analog Signal" data-entity-2="ADC" data-source-line="22" data-uid="lnk30" id="link_Analog Signal_ADC"><path d="M364,300.37 C381.78,317.86 402.0038,337.7612 419.7638,355.2412" fill="none" id="Analog Signal-to-ADC" style="stroke:#181818;stroke-width:1;"/><polygon fill="#181818" points="424.04,359.45,420.4315,350.286,420.4765,355.9427,414.8198,355.9876,424.04,359.45" style="stroke:#181818;stroke-width:1;"/></g><!--link Digital Pulses to Microcontroller--><g class="link" data-entity-1="Digital Pulses" data-entity-2="Microcontroller" data-source-line="23" data-uid="lnk31" id="link_Digital Pulses_Microcontroller"><path d="M805.31,300.28 C769.89,340.81 699.8074,421.0214 664.4974,461.4414" fill="none" id="Digital Pulses-to-Microcontroller" style="stroke:#181818;stroke-width:1;"/><polygon fill="#181818" points="660.55,465.96,669.4835,461.8136,663.8395,462.1945,663.4586,456.5504,660.55,465.96" style="stroke:#181818;stroke-width:1;"/></g><!--link ADC to Microcontroller--><g class="link" data-entity-1="ADC" data-entity-2="Microcontroller" data-source-line="24" data-uid="lnk32" id="link_ADC_Microcontroller"><path d="M482.13,402.92 C515,420.59 558.8454,444.1587 593.7554,462.9287" fill="none" id="ADC-to-Microcontroller" style="stroke:#181818;stroke-width:1;"/><polygon fill="#181818" points="599.04,465.77,593.0074,457.9849,594.6362,463.4022,589.2189,465.031,599.04,465.77" style="stroke:#181818;stroke-width:1;"/></g><!--SRC=[TP6zRiCW4CTtdkAKFUeRLAhg3fKIoQgpHHuGlk9JC6S1IOSexrwmIMgx3kFTZ_y7-1FPNZhPGSUMLUkuGmZkZC8_DhwL3V-GrV0jZKSXUgbEKYDizXo8BLHeFJk_WQk0U8xbvrUUrR3Tli9npnViq0OeCA1AT-gHV5CA3IRJW7SupsJ2NWvaGcO_hEBcGPNiQI2g7h6fnMqIQqUw3VzJjHmuIfkiC58xlA2f9qH3qULkub2HHnZGmMEjoiWMf2b80nLfAwFYIe_SBwvP_t6B9dEryXnVt4TgclQ9pYpiAYEMAVFta7Ais0R79YPEsMVtibRnNeDO9dkgaEZLtIy0]--></g></svg>