<svg xmlns="http://www.w3.org/2000/svg" xmlns:xlink="http://www.w3.org/1999/xlink" contentStyleType="text/css" data-diagram-type="MINDMAP" height="810px" preserveAspectRatio="none" style="width:577px;height:810px;background:#FFFFFF;" version="1.1" viewBox="0 0 577 810" width="577px" zoomAndPan="magnify"><defs/><g><rect fill="#F1F1F1" height="36.2969" rx="12.5" ry="12.5" style="stroke:#181818;stroke-width:1.5;" width="170.2471" x="10" y="385.9297"/><text fill="#000000" font-family="sans-serif" font-size="14" lengthAdjust="spacing" textLength="150.2471" x="20" y="408.9248">Component Selection</text><rect fill="#F1F1F1" height="36.2969" rx="12.5" ry="12.5" style="stroke:#181818;stroke-width:1.5;" width="109.4619" x="230.2471" y="104.4453"/><text fill="#000000" font-family="sans-serif" font-size="14" lengthAdjust="spacing" textLength="89.4619" x="240.2471" y="127.4404">Performance</text><rect fill="#F1F1F1" height="36.2969" rx="12.5" ry="12.5" style="stroke:#181818;stroke-width:1.5;" width="84.1621" x="389.709" y="20"/><text fill="#000000" font-family="sans-serif" font-size="14" lengthAdjust="spacing" textLength="64.1621" x="399.709" y="42.9951">Accuracy</text><path d="M339.709,122.5938 L349.709,122.5938 C364.709,122.5938 364.709,38.1484 379.709,38.1484 L389.709,38.1484" fill="none" style="stroke:#181818;stroke-width:1;"/><rect fill="#F1F1F1" height="36.2969" rx="12.5" ry="12.5" style="stroke:#181818;stroke-width:1.5;" width="63.8867" x="389.709" y="76.2969"/><text fill="#000000" font-family="sans-serif" font-size="14" lengthAdjust="spacing" textLength="43.8867" x="399.709" y="99.292">Speed</text><path d="M339.709,122.5938 L349.709,122.5938 C364.709,122.5938 364.709,94.4453 379.709,94.4453 L389.709,94.4453" fill="none" style="stroke:#181818;stroke-width:1;"/><rect fill="#F1F1F1" height="36.2969" rx="12.5" ry="12.5" style="stroke:#181818;stroke-width:1.5;" width="64.6797" x="389.709" y="132.5938"/><text fill="#000000" font-family="sans-serif" font-size="14" lengthAdjust="spacing" textLength="44.6797" x="399.709" y="155.5889">Range</text><path d="M339.709,122.5938 L349.709,122.5938 C364.709,122.5938 364.709,150.7422 379.709,150.7422 L389.709,150.7422" fill="none" style="stroke:#181818;stroke-width:1;"/><rect fill="#F1F1F1" height="36.2969" rx="12.5" ry="12.5" style="stroke:#181818;stroke-width:1.5;" width="93.7803" x="389.709" y="188.8906"/><text fill="#000000" font-family="sans-serif" font-size="14" lengthAdjust="spacing" textLength="73.7803" x="399.709" y="211.8857">Resolution</text><path d="M339.709,122.5938 L349.709,122.5938 C364.709,122.5938 364.709,207.0391 379.709,207.0391 L389.709,207.0391" fill="none" style="stroke:#181818;stroke-width:1;"/><path d="M180.2471,404.0781 L190.2471,404.0781 C205.2471,404.0781 205.2471,122.5938 220.2471,122.5938 L230.2471,122.5938" fill="none" style="stroke:#181818;stroke-width:1;"/><rect fill="#F1F1F1" height="36.2969" rx="12.5" ry="12.5" style="stroke:#181818;stroke-width:1.5;" width="51.124" x="230.2471" y="329.6328"/><text fill="#000000" font-family="sans-serif" font-size="14" lengthAdjust="spacing" textLength="31.124" x="240.2471" y="352.6279">Cost</text><rect fill="#F1F1F1" height="36.2969" rx="12.5" ry="12.5" style="stroke:#181818;stroke-width:1.5;" width="127.3174" x="331.3711" y="245.1875"/><text fill="#000000" font-family="sans-serif" font-size="14" lengthAdjust="spacing" textLength="107.3174" x="341.3711" y="268.1826">Initial Purchase</text><path d="M281.3711,347.7813 L291.3711,347.7813 C306.3711,347.7813 306.3711,263.3359 321.3711,263.3359 L331.3711,263.3359" fill="none" style="stroke:#181818;stroke-width:1;"/><rect fill="#F1F1F1" height="36.2969" rx="12.5" ry="12.5" style="stroke:#181818;stroke-width:1.5;" width="97.54" x="331.3711" y="301.4844"/><text fill="#000000" font-family="sans-serif" font-size="14" lengthAdjust="spacing" textLength="77.54" x="341.3711" y="324.4795">Installation</text><path d="M281.3711,347.7813 L291.3711,347.7813 C306.3711,347.7813 306.3711,319.6328 321.3711,319.6328 L331.3711,319.6328" fill="none" style="stroke:#181818;stroke-width:1;"/><rect fill="#F1F1F1" height="36.2969" rx="12.5" ry="12.5" style="stroke:#181818;stroke-width:1.5;" width="110.1592" x="331.3711" y="357.7813"/><text fill="#000000" font-family="sans-serif" font-size="14" lengthAdjust="spacing" textLength="90.1592" x="341.3711" y="380.7764">Maintenance</text><path d="M281.3711,347.7813 L291.3711,347.7813 C306.3711,347.7813 306.3711,375.9297 321.3711,375.9297 L331.3711,375.9297" fill="none" style="stroke:#181818;stroke-width:1;"/><rect fill="#F1F1F1" height="36.2969" rx="12.5" ry="12.5" style="stroke:#181818;stroke-width:1.5;" width="160" x="331.3711" y="414.0781"/><text fill="#000000" font-family="sans-serif" font-size="14" lengthAdjust="spacing" textLength="140" x="341.3711" y="437.0732">Power Consumption</text><path d="M281.3711,347.7813 L291.3711,347.7813 C306.3711,347.7813 306.3711,432.2266 321.3711,432.2266 L331.3711,432.2266" fill="none" style="stroke:#181818;stroke-width:1;"/><path d="M180.2471,404.0781 L190.2471,404.0781 C205.2471,404.0781 205.2471,347.7813 220.2471,347.7813 L230.2471,347.7813" fill="none" style="stroke:#181818;stroke-width:1;"/><rect fill="#F1F1F1" height="36.2969" rx="12.5" ry="12.5" style="stroke:#181818;stroke-width:1.5;" width="89.0293" x="230.2471" y="526.6719"/><text fill="#000000" font-family="sans-serif" font-size="14" lengthAdjust="spacing" textLength="69.0293" x="240.2471" y="549.667">Reliability</text><rect fill="#F1F1F1" height="36.2969" rx="12.5" ry="12.5" style="stroke:#181818;stroke-width:1.5;" width="88.3184" x="369.2764" y="470.375"/><text fill="#000000" font-family="sans-serif" font-size="14" lengthAdjust="spacing" textLength="68.3184" x="379.2764" y="493.3701">Durability</text><path d="M319.2764,544.8203 L329.2764,544.8203 C344.2764,544.8203 344.2764,488.5234 359.2764,488.5234 L369.2764,488.5234" fill="none" style="stroke:#181818;stroke-width:1;"/><rect fill="#F1F1F1" height="36.2969" rx="12.5" ry="12.5" style="stroke:#181818;stroke-width:1.5;" width="195.7588" x="369.2764" y="526.6719"/><text fill="#000000" font-family="sans-serif" font-size="14" lengthAdjust="spacing" textLength="175.7588" x="379.2764" y="549.667">Environmental Tolerance</text><path d="M319.2764,544.8203 L329.2764,544.8203 C344.2764,544.8203 344.2764,544.8203 359.2764,544.8203 L369.2764,544.8203" fill="none" style="stroke:#181818;stroke-width:1;"/><rect fill="#F1F1F1" height="36.2969" rx="12.5" ry="12.5" style="stroke:#181818;stroke-width:1.5;" width="117.542" x="369.2764" y="582.9688"/><text fill="#000000" font-family="sans-serif" font-size="14" lengthAdjust="spacing" textLength="97.542" x="379.2764" y="605.9639">Failure Modes</text><path d="M319.2764,544.8203 L329.2764,544.8203 C344.2764,544.8203 344.2764,601.1172 359.2764,601.1172 L369.2764,601.1172" fill="none" style="stroke:#181818;stroke-width:1;"/><path d="M180.2471,404.0781 L190.2471,404.0781 C205.2471,404.0781 205.2471,544.8203 220.2471,544.8203 L230.2471,544.8203" fill="none" style="stroke:#181818;stroke-width:1;"/><rect fill="#F1F1F1" height="36.2969" rx="12.5" ry="12.5" style="stroke:#181818;stroke-width:1.5;" width="97.1436" x="230.2471" y="695.5625"/><text fill="#000000" font-family="sans-serif" font-size="14" lengthAdjust="spacing" textLength="77.1436" x="240.2471" y="718.5576">Integration</text><rect fill="#F1F1F1" height="36.2969" rx="12.5" ry="12.5" style="stroke:#181818;stroke-width:1.5;" width="113.1533" x="377.3906" y="639.2656"/><text fill="#000000" font-family="sans-serif" font-size="14" lengthAdjust="spacing" textLength="93.1533" x="387.3906" y="662.2607">Compatibility</text><path d="M327.3906,713.7109 L337.3906,713.7109 C352.3906,713.7109 352.3906,657.4141 367.3906,657.4141 L377.3906,657.4141" fill="none" style="stroke:#181818;stroke-width:1;"/><rect fill="#F1F1F1" height="36.2969" rx="12.5" ry="12.5" style="stroke:#181818;stroke-width:1.5;" width="133.0664" x="377.3906" y="695.5625"/><text fill="#000000" font-family="sans-serif" font-size="14" lengthAdjust="spacing" textLength="113.0664" x="387.3906" y="718.5576">Size Constraints</text><path d="M327.3906,713.7109 L337.3906,713.7109 C352.3906,713.7109 352.3906,713.7109 367.3906,713.7109 L377.3906,713.7109" fill="none" style="stroke:#181818;stroke-width:1;"/><rect fill="#F1F1F1" height="36.2969" rx="12.5" ry="12.5" style="stroke:#181818;stroke-width:1.5;" width="185.3955" x="377.3906" y="751.8594"/><text fill="#000000" font-family="sans-serif" font-size="14" lengthAdjust="spacing" textLength="165.3955" x="387.3906" y="774.8545">Interface Requirements</text><path d="M327.3906,713.7109 L337.3906,713.7109 C352.3906,713.7109 352.3906,770.0078 367.3906,770.0078 L377.3906,770.0078" fill="none" style="stroke:#181818;stroke-width:1;"/><path d="M180.2471,404.0781 L190.2471,404.0781 C205.2471,404.0781 205.2471,713.7109 220.2471,713.7109 L230.2471,713.7109" fill="none" style="stroke:#181818;stroke-width:1;"/><!--SRC=[JP59Ry8m48Nl_XLpX4X5BA9KEL51GKL4YjZkGp9GIywOUg6YlxwJi9HRtdZotkVdiG_eGgMvhF2a4fZOwcIPEC2Q31L1MrP90ZcvWtKLSa4Y4tWlYkYmk3HYVI8gcwyLyl6wi29lJRp_Fh4-DEDFra6ZWJowuWiztOO2OGpUjXF8K7CWVgJbzeUScB2FrUdkkIAZSQ-D3bUAgG0zoGy-QsUvagj8tiOQSW-_6MeJ7K5cI_Ag8GXqTFy0TGkYdkpM-fSQWk1gE7y33z8B5YGmtr4xgjEy6fEqUMjKvGOvRBCbdCbvyOTUfz_j3plzrYOIB92XEuBUA1qCqy4hR3SJg8_RgZNFb-2jz4HGQedL-wREjbhW6M4LEUYAKfWxHBFBxeFdUwl5BajX7VSrT23OPMfA1umco5PXIyt7L19dBszgAGyNyIX-78rH4ojkxd9LVm00]--></g></svg>