<svg xmlns="http://www.w3.org/2000/svg" xmlns:xlink="http://www.w3.org/1999/xlink" contentStyleType="text/css" data-diagram-type="DESCRIPTION" height="748px" preserveAspectRatio="none" style="width:594px;height:748px;background:#FFFFFF;" version="1.1" viewBox="0 0 594 748" width="594px" zoomAndPan="magnify"><defs/><g><!--cluster Hydraulic System--><g class="cluster" data-entity="Hydraulic System" data-source-line="4" data-uid="ent0002" id="cluster_Hydraulic System"><path d="M8.5,6 L147.7705,6 A3.75,3.75 0 0 1 150.2705,8.5 L157.2705,28.2969 L387.5,28.2969 A2.5,2.5 0 0 1 390,30.7969 L390,738.58 A2.5,2.5 0 0 1 387.5,741.08 L8.5,741.08 A2.5,2.5 0 0 1 6,738.58 L6,8.5 A2.5,2.5 0 0 1 8.5,6" fill="none" style="stroke:#000000;stroke-width:1.5;"/><line style="stroke:#000000;stroke-width:1.5;" x1="6" x2="157.2705" y1="28.2969" y2="28.2969"/><text fill="#000000" font-family="sans-serif" font-size="14" font-weight="bold" lengthAdjust="spacing" textLength="138.2705" x="10" y="20.9951">Hydraulic System</text></g><!--entity Hydraulic Pump--><g class="entity" data-entity="Hydraulic Pump" data-source-line="5" data-uid="ent0003" id="entity_Hydraulic Pump"><rect fill="#F1F1F1" height="46.2969" rx="2.5" ry="2.5" style="stroke:#181818;stroke-width:0.5;" width="150.6738" x="26.66" y="359.89"/><rect fill="#F1F1F1" height="10" style="stroke:#181818;stroke-width:0.5;" width="15" x="157.3338" y="364.89"/><rect fill="#F1F1F1" height="2" style="stroke:#181818;stroke-width:0.5;" width="4" x="155.3338" y="366.89"/><rect fill="#F1F1F1" height="2" style="stroke:#181818;stroke-width:0.5;" width="4" x="155.3338" y="370.89"/><text fill="#000000" font-family="sans-serif" font-size="14" lengthAdjust="spacing" textLength="110.6738" x="41.66" y="392.8851">Hydraulic Pump</text></g><!--entity High Pressure Line--><g class="entity" data-entity="High Pressure Line" data-source-line="5" data-uid="ent0004" id="entity_High Pressure Line"><rect fill="#F1F1F1" height="46.2969" rx="2.5" ry="2.5" style="stroke:#181818;stroke-width:0.5;" width="170.8945" x="21.55" y="466.19"/><rect fill="#F1F1F1" height="10" style="stroke:#181818;stroke-width:0.5;" width="15" x="172.4445" y="471.19"/><rect fill="#F1F1F1" height="2" style="stroke:#181818;stroke-width:0.5;" width="4" x="170.4445" y="473.19"/><rect fill="#F1F1F1" height="2" style="stroke:#181818;stroke-width:0.5;" width="4" x="170.4445" y="477.19"/><text fill="#000000" font-family="sans-serif" font-size="14" lengthAdjust="spacing" textLength="130.8945" x="36.55" y="499.1851">High Pressure Line</text></g><!--entity Control Valve--><g class="entity" data-entity="Control Valve" data-source-line="6" data-uid="ent0006" id="entity_Control Valve"><rect fill="#F1F1F1" height="46.2969" rx="2.5" ry="2.5" style="stroke:#181818;stroke-width:0.5;" width="134.3086" x="160.85" y="572.49"/><rect fill="#F1F1F1" height="10" style="stroke:#181818;stroke-width:0.5;" width="15" x="275.1586" y="577.49"/><rect fill="#F1F1F1" height="2" style="stroke:#181818;stroke-width:0.5;" width="4" x="273.1586" y="579.49"/><rect fill="#F1F1F1" height="2" style="stroke:#181818;stroke-width:0.5;" width="4" x="273.1586" y="583.49"/><text fill="#000000" font-family="sans-serif" font-size="14" lengthAdjust="spacing" textLength="94.3086" x="175.85" y="605.4851">Control Valve</text></g><!--entity Hydraulic Cylinder--><g class="entity" data-entity="Hydraulic Cylinder" data-source-line="7" data-uid="ent0008" id="entity_Hydraulic Cylinder"><rect fill="#F1F1F1" height="46.2969" rx="2.5" ry="2.5" style="stroke:#181818;stroke-width:0.5;" width="168.8027" x="170.6" y="41"/><rect fill="#F1F1F1" height="10" style="stroke:#181818;stroke-width:0.5;" width="15" x="319.4027" y="46"/><rect fill="#F1F1F1" height="2" style="stroke:#181818;stroke-width:0.5;" width="4" x="317.4027" y="48"/><rect fill="#F1F1F1" height="2" style="stroke:#181818;stroke-width:0.5;" width="4" x="317.4027" y="52"/><text fill="#000000" font-family="sans-serif" font-size="14" lengthAdjust="spacing" textLength="128.8027" x="185.6" y="73.9951">Hydraulic Cylinder</text></g><!--entity Low Pressure Line--><g class="entity" data-entity="Low Pressure Line" data-source-line="8" data-uid="ent0010" id="entity_Low Pressure Line"><rect fill="#F1F1F1" height="46.2969" rx="2.5" ry="2.5" style="stroke:#181818;stroke-width:0.5;" width="166.5332" x="21.73" y="147.3"/><rect fill="#F1F1F1" height="10" style="stroke:#181818;stroke-width:0.5;" width="15" x="168.2632" y="152.3"/><rect fill="#F1F1F1" height="2" style="stroke:#181818;stroke-width:0.5;" width="4" x="166.2632" y="154.3"/><rect fill="#F1F1F1" height="2" style="stroke:#181818;stroke-width:0.5;" width="4" x="166.2632" y="158.3"/><text fill="#000000" font-family="sans-serif" font-size="14" lengthAdjust="spacing" textLength="126.5332" x="36.73" y="180.2951">Low Pressure Line</text></g><!--entity Reservoir--><g class="entity" data-entity="Reservoir" data-source-line="9" data-uid="ent0012" id="entity_Reservoir"><rect fill="#F1F1F1" height="46.2969" rx="2.5" ry="2.5" style="stroke:#181818;stroke-width:0.5;" width="106.5" x="31.75" y="253.6"/><rect fill="#F1F1F1" height="10" style="stroke:#181818;stroke-width:0.5;" width="15" x="118.25" y="258.6"/><rect fill="#F1F1F1" height="2" style="stroke:#181818;stroke-width:0.5;" width="4" x="116.25" y="260.6"/><rect fill="#F1F1F1" height="2" style="stroke:#181818;stroke-width:0.5;" width="4" x="116.25" y="264.6"/><text fill="#000000" font-family="sans-serif" font-size="14" lengthAdjust="spacing" textLength="66.5" x="46.75" y="286.5951">Reservoir</text></g><!--entity Electronic Controller--><g class="entity" data-entity="Electronic Controller" data-source-line="12" data-uid="ent0015" id="entity_Electronic Controller"><rect fill="#F1F1F1" height="46.2969" rx="2.5" ry="2.5" style="stroke:#181818;stroke-width:0.5;" width="182.9395" x="163.53" y="678.78"/><rect fill="#F1F1F1" height="10" style="stroke:#181818;stroke-width:0.5;" width="15" x="326.4695" y="683.78"/><rect fill="#F1F1F1" height="2" style="stroke:#181818;stroke-width:0.5;" width="4" x="324.4695" y="685.78"/><rect fill="#F1F1F1" height="2" style="stroke:#181818;stroke-width:0.5;" width="4" x="324.4695" y="689.78"/><text fill="#000000" font-family="sans-serif" font-size="14" lengthAdjust="spacing" textLength="142.9395" x="178.53" y="711.7751">Electronic Controller</text></g><!--entity Piston Rod--><g class="entity" data-entity="Piston Rod" data-source-line="13" data-uid="ent0017" id="entity_Piston Rod"><rect fill="#F1F1F1" height="46.2969" rx="2.5" ry="2.5" style="stroke:#181818;stroke-width:0.5;" width="114.1836" x="259.91" y="147.3"/><rect fill="#F1F1F1" height="10" style="stroke:#181818;stroke-width:0.5;" width="15" x="354.0936" y="152.3"/><rect fill="#F1F1F1" height="2" style="stroke:#181818;stroke-width:0.5;" width="4" x="352.0936" y="154.3"/><rect fill="#F1F1F1" height="2" style="stroke:#181818;stroke-width:0.5;" width="4" x="352.0936" y="158.3"/><text fill="#000000" font-family="sans-serif" font-size="14" lengthAdjust="spacing" textLength="74.1836" x="274.91" y="180.2951">Piston Rod</text></g><!--entity Load/End Effector--><g class="entity" data-entity="Load/End Effector" data-source-line="14" data-uid="ent0019" id="entity_Load/End Effector"><rect fill="#F1F1F1" height="46.2969" rx="2.5" ry="2.5" style="stroke:#181818;stroke-width:0.5;" width="164.4277" x="209.79" y="253.6"/><rect fill="#F1F1F1" height="10" style="stroke:#181818;stroke-width:0.5;" width="15" x="354.2177" y="258.6"/><rect fill="#F1F1F1" height="2" style="stroke:#181818;stroke-width:0.5;" width="4" x="352.2177" y="260.6"/><rect fill="#F1F1F1" height="2" style="stroke:#181818;stroke-width:0.5;" width="4" x="352.2177" y="264.6"/><text fill="#000000" font-family="sans-serif" font-size="14" lengthAdjust="spacing" textLength="124.4277" x="224.79" y="286.5951">Load/End Effector</text></g><g class="entity" data-entity="GMN21" data-source-line="17" data-uid="ent0022" id="entity_GMN21"><path d="M406.48,575.5 L406.48,615.7656 A0,0 0 0 0 406.48,615.7656 L436.93,615.7656 L304.65,678.32 L444.93,615.7656 L561.5235,615.7656 A0,0 0 0 0 561.5235,615.7656 L561.5235,585.5 L551.5235,575.5 L406.48,575.5 A0,0 0 0 0 406.48,575.5" fill="#FAFAFA" style="stroke:#181818;stroke-width:0.5;"/><path d="M551.5235,575.5 L551.5235,585.5 L561.5235,585.5 L551.5235,575.5" fill="#FAFAFA" style="stroke:#181818;stroke-width:0.5;"/><text fill="#000000" font-family="sans-serif" font-size="13" lengthAdjust="spacing" textLength="134.0435" x="412.48" y="592.5669">Receives commands</text><text fill="#000000" font-family="sans-serif" font-size="13" lengthAdjust="spacing" textLength="118.2822" x="412.48" y="607.6997">from main system</text></g><g class="entity" data-entity="GMN24" data-source-line="18" data-uid="ent0025" id="entity_GMN24"><path d="M406.13,51.58 L406.13,60.15 L339.61,64.15 L406.13,68.15 L406.13,76.7128 A0,0 0 0 0 406.13,76.7128 L587.878,76.7128 A0,0 0 0 0 587.878,76.7128 L587.878,61.58 L577.878,51.58 L406.13,51.58 A0,0 0 0 0 406.13,51.58" fill="#FAFAFA" style="stroke:#181818;stroke-width:0.5;"/><path d="M577.878,51.58 L577.878,61.58 L587.878,61.58 L577.878,51.58" fill="#FAFAFA" style="stroke:#181818;stroke-width:0.5;"/><text fill="#000000" font-family="sans-serif" font-size="13" lengthAdjust="spacing" textLength="160.748" x="412.13" y="68.6469">Force = Pressure &#215; Area</text></g><g class="entity" data-entity="GMN27" data-source-line="19" data-uid="ent0028" id="entity_GMN27"><path d="M406.48,362.91 L406.48,403.1756 A0,0 0 0 0 406.48,403.1756 L541.522,403.1756 A0,0 0 0 0 541.522,403.1756 L541.522,372.91 L531.522,362.91 L443.79,362.91 L331.49,300.37 L435.79,362.91 L406.48,362.91 A0,0 0 0 0 406.48,362.91" fill="#FAFAFA" style="stroke:#181818;stroke-width:0.5;"/><path d="M531.522,362.91 L531.522,372.91 L541.522,372.91 L531.522,362.91" fill="#FAFAFA" style="stroke:#181818;stroke-width:0.5;"/><text fill="#000000" font-family="sans-serif" font-size="13" lengthAdjust="spacing" textLength="114.042" x="412.48" y="379.9769">High force output</text><text fill="#000000" font-family="sans-serif" font-size="13" lengthAdjust="spacing" textLength="99.8677" x="412.48" y="395.1097">for heavy tasks</text></g><!--link Hydraulic Pump to High Pressure Line--><g class="link" data-entity-1="Hydraulic Pump" data-entity-2="High Pressure Line" data-source-line="5" data-uid="lnk5" id="link_Hydraulic Pump_High Pressure Line"><path d="M103.08,406.67 C103.92,424.17 104.792,442.2769 105.632,459.7569" fill="none" id="Hydraulic Pump-to-High Pressure Line" style="stroke:#181818;stroke-width:1;"/><polygon fill="#181818" points="105.92,465.75,109.4834,456.5684,105.68,460.7558,101.4926,456.9524,105.92,465.75" style="stroke:#181818;stroke-width:1;"/></g><!--link High Pressure Line to Control Valve--><g class="link" data-entity-1="High Pressure Line" data-entity-2="Control Valve" data-source-line="6" data-uid="lnk7" id="link_High Pressure Line_Control Valve"><path d="M133.26,512.97 C153.55,530.46 176.9643,550.6538 197.2543,568.1338" fill="none" id="High Pressure Line-to-Control Valve" style="stroke:#181818;stroke-width:1;"/><polygon fill="#181818" points="201.8,572.05,197.5922,563.1453,198.0119,568.7865,192.3706,569.2062,201.8,572.05" style="stroke:#181818;stroke-width:1;"/></g><!--link Control Valve to Hydraulic Cylinder--><g class="link" data-entity-1="Control Valve" data-entity-2="Hydraulic Cylinder" data-source-line="7" data-uid="lnk9" id="link_Control Valve_Hydraulic Cylinder"><path d="M224.9,572.23 C216.78,512.99 195.24,353.15 192,299.89 C190.75,279.35 188.7,273.9 192,253.6 C197.36,220.65 228.5001,135.4668 244.4201,93.0868" fill="none" id="Control Valve-to-Hydraulic Cylinder" style="stroke:#181818;stroke-width:1;"/><polygon fill="#181818" points="246.53,87.47,239.6206,94.4885,244.7717,92.1506,247.1096,97.3018,246.53,87.47" style="stroke:#181818;stroke-width:1;"/></g><!--link Hydraulic Cylinder to Low Pressure Line--><g class="link" data-entity-1="Hydraulic Cylinder" data-entity-2="Low Pressure Line" data-source-line="8" data-uid="lnk11" id="link_Hydraulic Cylinder_Low Pressure Line"><path d="M222.45,87.78 C197.29,105.28 167.5569,125.9557 142.4069,143.4357" fill="none" id="Hydraulic Cylinder-to-Low Pressure Line" style="stroke:#181818;stroke-width:1;"/><polygon fill="#181818" points="137.48,146.86,147.1532,145.0081,141.5857,144.0064,142.5874,138.4389,137.48,146.86" style="stroke:#181818;stroke-width:1;"/></g><!--link Low Pressure Line to Reservoir--><g class="link" data-entity-1="Low Pressure Line" data-entity-2="Reservoir" data-source-line="9" data-uid="lnk13" id="link_Low Pressure Line_Reservoir"><path d="M100.66,194.08 C97.31,211.57 93.8087,229.7771 90.4587,247.2671" fill="none" id="Low Pressure Line-to-Reservoir" style="stroke:#181818;stroke-width:1;"/><polygon fill="#181818" points="89.33,253.16,94.9517,245.0732,90.2706,248.2493,87.0945,243.5682,89.33,253.16" style="stroke:#181818;stroke-width:1;"/></g><!--link Reservoir to Hydraulic Pump--><g class="link" data-entity-1="Reservoir" data-entity-2="Hydraulic Pump" data-source-line="10" data-uid="lnk14" id="link_Reservoir_Hydraulic Pump"><path d="M88.69,300.37 C91.54,317.87 94.5045,336.0482 97.3545,353.5282" fill="none" id="Reservoir-to-Hydraulic Pump" style="stroke:#181818;stroke-width:1;"/><polygon fill="#181818" points="98.32,359.45,100.8196,349.9236,97.5154,354.5152,92.9239,351.211,98.32,359.45" style="stroke:#181818;stroke-width:1;"/></g><!--reverse link Control Valve to Electronic Controller--><g class="link" data-entity-1="Control Valve" data-entity-2="Electronic Controller" data-source-line="12" data-uid="lnk16" id="link_Control Valve_Electronic Controller"><path d="M235.3644,625.0783 C239.8944,642.5683 244.63,660.86 249.15,678.34" fill="none" id="Control Valve-backto-Electronic Controller" style="stroke:#181818;stroke-width:1;"/><polygon fill="#181818" points="233.86,619.27,232.2444,628.9854,235.1137,624.1103,239.9888,626.9796,233.86,619.27" style="stroke:#181818;stroke-width:1;"/></g><!--link Hydraulic Cylinder to Piston Rod--><g class="link" data-entity-1="Hydraulic Cylinder" data-entity-2="Piston Rod" data-source-line="13" data-uid="lnk18" id="link_Hydraulic Cylinder_Piston Rod"><path d="M268.45,87.78 C278.85,105.28 290.1143,124.2223 300.5043,141.7023" fill="none" id="Hydraulic Cylinder-to-Piston Rod" style="stroke:#181818;stroke-width:1;"/><polygon fill="#181818" points="303.57,146.86,302.4099,137.0797,301.0153,142.5619,295.533,141.1673,303.57,146.86" style="stroke:#181818;stroke-width:1;"/></g><!--link Piston Rod to Load/End Effector--><g class="link" data-entity-1="Piston Rod" data-entity-2="Load/End Effector" data-source-line="14" data-uid="lnk20" id="link_Piston Rod_Load/End Effector"><path d="M311.58,194.08 C307.38,211.57 302.9978,229.8351 298.8078,247.3251" fill="none" id="Piston Rod-to-Load/End Effector" style="stroke:#181818;stroke-width:1;"/><polygon fill="#181818" points="297.41,253.16,303.3967,245.3395,298.5749,248.2976,295.6168,243.4758,297.41,253.16" style="stroke:#181818;stroke-width:1;"/></g><!--SRC=[XLBBJiCm4BpxArQzHzmhG49L4OSUgY9nAJqizgQnQdiZhvCgGdm77yIFuIPzG5k4RvxPcPtrMZOsr1ZHW-V0kehi2L9iICcHaGeDRsrOGubEIAaQzGRN1AEdpaHidDNmt4aYFu9t1VaiJyIyyVKAYk8-WtPTmJoII1C9PZRGQbzzIGoA2OSKsS4BklPG_1lREn_RJJfdWw6uEizn90R5ZBTNerpYG_s2X6BBzc1ykfydw0TMLxFU5WKifuvq1iCkqq2x_-FEhIGEi62ph_m170P2SpCD1gPbcHjmjlnGAd3Aw-GQkFohCunXGPfiImAQlSTWv3MK-IE0Hnj0-iqEJZ4lAlLUrvAEuP6Z9hWxlU3N9pn4ma7znYbbrvtyCcrMzz-Wx2suINMJSWoEK16s7IIKZNm3]--></g></svg>