<svg xmlns="http://www.w3.org/2000/svg" xmlns:xlink="http://www.w3.org/1999/xlink" contentStyleType="text/css" data-diagram-type="ACTIVITY" height="895px" preserveAspectRatio="none" style="width:558px;height:895px;background:#FFFFFF;" version="1.1" viewBox="0 0 558 895" width="558px" zoomAndPan="magnify"><defs/><g><ellipse cx="280.989" cy="20" fill="#222222" rx="10" ry="10" style="stroke:#222222;stroke-width:1;"/><rect fill="#F1F1F1" height="33.9688" rx="12.5" ry="12.5" style="stroke:#181818;stroke-width:0.5;" width="116.8613" x="222.5583" y="50"/><text fill="#000000" font-family="sans-serif" font-size="12" lengthAdjust="spacing" textLength="96.8613" x="232.5583" y="71.1387">INPUT password</text><rect fill="#F1F1F1" height="33.9688" rx="12.5" ry="12.5" style="stroke:#181818;stroke-width:0.5;" width="190.5605" x="185.7087" y="103.9688"/><text fill="#000000" font-family="sans-serif" font-size="12" lengthAdjust="spacing" textLength="170.5605" x="195.7087" y="125.1074">length = length of password</text><rect fill="#F1F1F1" height="33.9688" rx="12.5" ry="12.5" style="stroke:#181818;stroke-width:0.5;" width="123.7754" x="219.1013" y="157.9375"/><text fill="#000000" font-family="sans-serif" font-size="12" lengthAdjust="spacing" textLength="103.7754" x="229.1013" y="179.0762">hasUpper = false</text><rect fill="#F1F1F1" height="33.9688" rx="12.5" ry="12.5" style="stroke:#181818;stroke-width:0.5;" width="115.6719" x="223.1531" y="211.9063"/><text fill="#000000" font-family="sans-serif" font-size="12" lengthAdjust="spacing" textLength="95.6719" x="233.1531" y="233.0449">hasDigit = false</text><rect fill="#F1F1F1" height="33.9688" rx="12.5" ry="12.5" style="stroke:#181818;stroke-width:0.5;" width="48.6523" x="256.6628" y="265.875"/><text fill="#000000" font-family="sans-serif" font-size="12" lengthAdjust="spacing" textLength="28.6523" x="266.6628" y="287.0137">i = 0</text><rect fill="#F1F1F1" height="33.9688" rx="12.5" ry="12.5" style="stroke:#181818;stroke-width:0.5;" width="119.8555" x="221.0613" y="423.9565"/><text fill="#000000" font-family="sans-serif" font-size="12" lengthAdjust="spacing" textLength="99.8555" x="231.0613" y="445.0952">hasUpper = true</text><polygon fill="#F1F1F1" points="181.0007,375.5542,380.9773,375.5542,392.9773,387.5542,380.9773,399.5542,181.0007,399.5542,169.0007,387.5542,181.0007,375.5542" style="stroke:#181818;stroke-width:0.5;"/><text fill="#000000" font-family="sans-serif" font-size="11" lengthAdjust="spacing" textLength="19.0083" x="284.989" y="409.7646">yes</text><text fill="#000000" font-family="sans-serif" font-size="11" lengthAdjust="spacing" textLength="199.9766" x="181.0007" y="391.3623">character at position i is uppercase?</text><polygon fill="#F1F1F1" points="280.989,477.9253,292.989,489.9253,280.989,501.9253,268.989,489.9253,280.989,477.9253" style="stroke:#181818;stroke-width:0.5;"/><rect fill="#F1F1F1" height="33.9688" rx="12.5" ry="12.5" style="stroke:#181818;stroke-width:0.5;" width="111.752" x="225.113" y="570.3276"/><text fill="#000000" font-family="sans-serif" font-size="12" lengthAdjust="spacing" textLength="91.752" x="235.113" y="591.4663">hasDigit = true</text><polygon fill="#F1F1F1" points="197.5625,521.9253,364.4155,521.9253,376.4155,533.9253,364.4155,545.9253,197.5625,545.9253,185.5625,533.9253,197.5625,521.9253" style="stroke:#181818;stroke-width:0.5;"/><text fill="#000000" font-family="sans-serif" font-size="11" lengthAdjust="spacing" textLength="19.0083" x="284.989" y="556.1357">yes</text><text fill="#000000" font-family="sans-serif" font-size="11" lengthAdjust="spacing" textLength="166.853" x="197.5625" y="537.7334">character at position i is digit?</text><polygon fill="#F1F1F1" points="280.989,624.2964,292.989,636.2964,280.989,648.2964,268.989,636.2964,280.989,624.2964" style="stroke:#181818;stroke-width:0.5;"/><rect fill="#F1F1F1" height="33.9688" rx="12.5" ry="12.5" style="stroke:#181818;stroke-width:0.5;" width="69.6699" x="246.1541" y="668.2964"/><text fill="#000000" font-family="sans-serif" font-size="12" lengthAdjust="spacing" textLength="49.6699" x="256.1541" y="689.4351">i = i + 1</text><polygon fill="#F1F1F1" points="215.8994,319.8438,346.0786,319.8438,358.0786,331.8438,346.0786,343.8438,215.8994,343.8438,203.8994,331.8438,215.8994,319.8438" style="stroke:#181818;stroke-width:0.5;"/><text fill="#000000" font-family="sans-serif" font-size="11" lengthAdjust="spacing" textLength="19.0083" x="284.989" y="354.0542">yes</text><text fill="#000000" font-family="sans-serif" font-size="11" lengthAdjust="spacing" textLength="130.1792" x="215.8994" y="335.6519">i &lt; length of password?</text><text fill="#000000" font-family="sans-serif" font-size="11" lengthAdjust="spacing" textLength="13.7017" x="190.1978" y="329.2495">no</text><polygon fill="#F1F1F1" points="125.2891,744.2651,436.689,744.2651,448.689,756.2651,436.689,768.2651,125.2891,768.2651,113.2891,756.2651,125.2891,744.2651" style="stroke:#181818;stroke-width:0.5;"/><text fill="#000000" font-family="sans-serif" font-size="11" lengthAdjust="spacing" textLength="311.3999" x="125.2891" y="760.0732">length &gt;= 8 AND hasUpper = true AND hasDigit = true?</text><text fill="#000000" font-family="sans-serif" font-size="11" lengthAdjust="spacing" textLength="19.0083" x="94.2808" y="753.6709">yes</text><text fill="#000000" font-family="sans-serif" font-size="11" lengthAdjust="spacing" textLength="13.7017" x="448.689" y="753.6709">no</text><rect fill="#F1F1F1" height="33.9688" rx="12.5" ry="12.5" style="stroke:#181818;stroke-width:0.5;" width="184.5781" x="11" y="778.2651"/><text fill="#000000" font-family="sans-serif" font-size="12" lengthAdjust="spacing" textLength="164.5781" x="21" y="799.4038">OUTPUT "Strong password"</text><rect fill="#F1F1F1" height="33.9688" rx="12.5" ry="12.5" style="stroke:#181818;stroke-width:0.5;" width="178.3086" x="369.5347" y="778.2651"/><text fill="#000000" font-family="sans-serif" font-size="12" lengthAdjust="spacing" textLength="158.3086" x="379.5347" y="799.4038">OUTPUT "Weak password"</text><polygon fill="#F1F1F1" points="280.989,818.2339,292.989,830.2339,280.989,842.2339,268.989,830.2339,280.989,818.2339" style="stroke:#181818;stroke-width:0.5;"/><ellipse cx="280.989" cy="873.2339" fill="none" rx="11" ry="11" style="stroke:#222222;stroke-width:1;"/><ellipse cx="280.989" cy="873.2339" fill="#222222" rx="6" ry="6" style="stroke:#222222;stroke-width:1;"/><line style="stroke:#181818;stroke-width:1;" x1="280.989" x2="280.989" y1="30" y2="50"/><polygon fill="#181818" points="276.989,40,280.989,50,284.989,40,280.989,44" style="stroke:#181818;stroke-width:1;"/><line style="stroke:#181818;stroke-width:1;" x1="280.989" x2="280.989" y1="83.9688" y2="103.9688"/><polygon fill="#181818" points="276.989,93.9688,280.989,103.9688,284.989,93.9688,280.989,97.9688" style="stroke:#181818;stroke-width:1;"/><line style="stroke:#181818;stroke-width:1;" x1="280.989" x2="280.989" y1="137.9375" y2="157.9375"/><polygon fill="#181818" points="276.989,147.9375,280.989,157.9375,284.989,147.9375,280.989,151.9375" style="stroke:#181818;stroke-width:1;"/><line style="stroke:#181818;stroke-width:1;" x1="280.989" x2="280.989" y1="191.9063" y2="211.9063"/><polygon fill="#181818" points="276.989,201.9063,280.989,211.9063,284.989,201.9063,280.989,205.9063" style="stroke:#181818;stroke-width:1;"/><line style="stroke:#181818;stroke-width:1;" x1="280.989" x2="280.989" y1="245.875" y2="265.875"/><polygon fill="#181818" points="276.989,255.875,280.989,265.875,284.989,255.875,280.989,259.875" style="stroke:#181818;stroke-width:1;"/><line style="stroke:#181818;stroke-width:1;" x1="280.989" x2="280.989" y1="399.5542" y2="423.9565"/><polygon fill="#181818" points="276.989,413.9565,280.989,423.9565,284.989,413.9565,280.989,417.9565" style="stroke:#181818;stroke-width:1;"/><line style="stroke:#181818;stroke-width:1;" x1="392.9773" x2="404.9773" y1="387.5542" y2="387.5542"/><polygon fill="#181818" points="400.9773,430.9409,404.9773,440.9409,408.9773,430.9409,404.9773,434.9409" style="stroke:#181818;stroke-width:1;"/><line style="stroke:#181818;stroke-width:1;" x1="404.9773" x2="404.9773" y1="387.5542" y2="489.9253"/><line style="stroke:#181818;stroke-width:1;" x1="404.9773" x2="292.989" y1="489.9253" y2="489.9253"/><polygon fill="#181818" points="302.989,485.9253,292.989,489.9253,302.989,493.9253,298.989,489.9253" style="stroke:#181818;stroke-width:1;"/><line style="stroke:#181818;stroke-width:1;" x1="280.989" x2="280.989" y1="457.9253" y2="477.9253"/><polygon fill="#181818" points="276.989,467.9253,280.989,477.9253,284.989,467.9253,280.989,471.9253" style="stroke:#181818;stroke-width:1;"/><line style="stroke:#181818;stroke-width:1;" x1="280.989" x2="280.989" y1="545.9253" y2="570.3276"/><polygon fill="#181818" points="276.989,560.3276,280.989,570.3276,284.989,560.3276,280.989,564.3276" style="stroke:#181818;stroke-width:1;"/><line style="stroke:#181818;stroke-width:1;" x1="376.4155" x2="388.4155" y1="533.9253" y2="533.9253"/><polygon fill="#181818" points="384.4155,577.312,388.4155,587.312,392.4155,577.312,388.4155,581.312" style="stroke:#181818;stroke-width:1;"/><line style="stroke:#181818;stroke-width:1;" x1="388.4155" x2="388.4155" y1="533.9253" y2="636.2964"/><line style="stroke:#181818;stroke-width:1;" x1="388.4155" x2="292.989" y1="636.2964" y2="636.2964"/><polygon fill="#181818" points="302.989,632.2964,292.989,636.2964,302.989,640.2964,298.989,636.2964" style="stroke:#181818;stroke-width:1;"/><line style="stroke:#181818;stroke-width:1;" x1="280.989" x2="280.989" y1="604.2964" y2="624.2964"/><polygon fill="#181818" points="276.989,614.2964,280.989,624.2964,284.989,614.2964,280.989,618.2964" style="stroke:#181818;stroke-width:1;"/><line style="stroke:#181818;stroke-width:1;" x1="280.989" x2="280.989" y1="501.9253" y2="521.9253"/><polygon fill="#181818" points="276.989,511.9253,280.989,521.9253,284.989,511.9253,280.989,515.9253" style="stroke:#181818;stroke-width:1;"/><line style="stroke:#181818;stroke-width:1;" x1="280.989" x2="280.989" y1="648.2964" y2="668.2964"/><polygon fill="#181818" points="276.989,658.2964,280.989,668.2964,284.989,658.2964,280.989,662.2964" style="stroke:#181818;stroke-width:1;"/><line style="stroke:#181818;stroke-width:1;" x1="280.989" x2="280.989" y1="343.8438" y2="375.5542"/><polygon fill="#181818" points="276.989,365.5542,280.989,375.5542,284.989,365.5542,280.989,369.5542" style="stroke:#181818;stroke-width:1;"/><line style="stroke:#181818;stroke-width:1;" x1="280.989" x2="280.989" y1="702.2651" y2="712.2651"/><line style="stroke:#181818;stroke-width:1;" x1="280.989" x2="416.9773" y1="712.2651" y2="712.2651"/><polygon fill="#181818" points="412.9773,530.5073,416.9773,520.5073,420.9773,530.5073,416.9773,526.5073" style="stroke:#181818;stroke-width:1;"/><line style="stroke:#181818;stroke-width:1;" x1="416.9773" x2="416.9773" y1="331.8438" y2="712.2651"/><line style="stroke:#181818;stroke-width:1;" x1="416.9773" x2="358.0786" y1="331.8438" y2="331.8438"/><polygon fill="#181818" points="368.0786,327.8438,358.0786,331.8438,368.0786,335.8438,364.0786,331.8438" style="stroke:#181818;stroke-width:1;"/><line style="stroke:#181818;stroke-width:1;" x1="203.8994" x2="157.0007" y1="331.8438" y2="331.8438"/><polygon fill="#181818" points="153.0007,516.5073,157.0007,526.5073,161.0007,516.5073,157.0007,520.5073" style="stroke:#181818;stroke-width:1;"/><line style="stroke:#181818;stroke-width:1;" x1="157.0007" x2="157.0007" y1="331.8438" y2="724.2651"/><line style="stroke:#181818;stroke-width:1;" x1="157.0007" x2="280.989" y1="724.2651" y2="724.2651"/><line style="stroke:#181818;stroke-width:1;" x1="280.989" x2="280.989" y1="724.2651" y2="744.2651"/><polygon fill="#181818" points="276.989,734.2651,280.989,744.2651,284.989,734.2651,280.989,738.2651" style="stroke:#181818;stroke-width:1;"/><line style="stroke:#181818;stroke-width:1;" x1="280.989" x2="280.989" y1="299.8438" y2="319.8438"/><polygon fill="#181818" points="276.989,309.8438,280.989,319.8438,284.989,309.8438,280.989,313.8438" style="stroke:#181818;stroke-width:1;"/><line style="stroke:#181818;stroke-width:1;" x1="113.2891" x2="103.2891" y1="756.2651" y2="756.2651"/><line style="stroke:#181818;stroke-width:1;" x1="103.2891" x2="103.2891" y1="756.2651" y2="778.2651"/><polygon fill="#181818" points="99.2891,768.2651,103.2891,778.2651,107.2891,768.2651,103.2891,772.2651" style="stroke:#181818;stroke-width:1;"/><line style="stroke:#181818;stroke-width:1;" x1="448.689" x2="458.689" y1="756.2651" y2="756.2651"/><line style="stroke:#181818;stroke-width:1;" x1="458.689" x2="458.689" y1="756.2651" y2="778.2651"/><polygon fill="#181818" points="454.689,768.2651,458.689,778.2651,462.689,768.2651,458.689,772.2651" style="stroke:#181818;stroke-width:1;"/><line style="stroke:#181818;stroke-width:1;" x1="103.2891" x2="103.2891" y1="812.2339" y2="830.2339"/><line style="stroke:#181818;stroke-width:1;" x1="103.2891" x2="268.989" y1="830.2339" y2="830.2339"/><polygon fill="#181818" points="258.989,826.2339,268.989,830.2339,258.989,834.2339,262.989,830.2339" style="stroke:#181818;stroke-width:1;"/><line style="stroke:#181818;stroke-width:1;" x1="458.689" x2="458.689" y1="812.2339" y2="830.2339"/><line style="stroke:#181818;stroke-width:1;" x1="458.689" x2="292.989" y1="830.2339" y2="830.2339"/><polygon fill="#181818" points="302.989,826.2339,292.989,830.2339,302.989,834.2339,298.989,830.2339" style="stroke:#181818;stroke-width:1;"/><line style="stroke:#181818;stroke-width:1;" x1="280.989" x2="280.989" y1="842.2339" y2="862.2339"/><polygon fill="#181818" points="276.989,852.2339,280.989,862.2339,284.989,852.2339,280.989,856.2339" style="stroke:#181818;stroke-width:1;"/><!--SRC=[XL5DQyCm3BtxLpnwIjXbkvLatHZqiaixMCFE9d5YiM0RIwNityzfq-A5mcxYINeV4ekEeghttKTpGD3C9n-xMbMZSODOR30Nli-xLdCJWecft-kHpGNQqa2IGPJgnrgTB8q61U7v3jbh2M8KFuPB1L2FehKwwbOIkHO4poJa7MWQEqwQhMQJjiGQTzi3SaiIZqaUCAwZ_d_MRh9zd_6QQCbuZaPum5Ej4ZOdTBvKazQSycM3DTvsMooiNR6SV2bVxPl3z97LfqJlXjkvLaal7VUYbOrz6VtzP-XibCM7Nm00]--></g></svg>