<svg xmlns="http://www.w3.org/2000/svg" xmlns:xlink="http://www.w3.org/1999/xlink" contentStyleType="text/css" data-diagram-type="ACTIVITY" height="591px" preserveAspectRatio="none" style="width:658px;height:591px;background:#FFFFFF;" version="1.1" viewBox="0 0 658 591" width="658px" zoomAndPan="magnify"><defs/><g><ellipse cx="333.8516" cy="20" fill="#222222" rx="10" ry="10" style="stroke:#222222;stroke-width:1;"/><rect fill="#F1F1F1" height="33.9688" rx="12.5" ry="12.5" style="stroke:#181818;stroke-width:0.5;" width="140.9551" x="263.374" y="50"/><text fill="#000000" font-family="sans-serif" font-size="12" lengthAdjust="spacing" textLength="120.9551" x="273.374" y="71.1387">INPUT studentName</text><rect fill="#F1F1F1" height="33.9688" rx="12.5" ry="12.5" style="stroke:#181818;stroke-width:0.5;" width="137.1113" x="265.2959" y="103.9688"/><text fill="#000000" font-family="sans-serif" font-size="12" lengthAdjust="spacing" textLength="117.1113" x="275.2959" y="125.1074">INPUT assignment1</text><rect fill="#F1F1F1" height="33.9688" rx="12.5" ry="12.5" style="stroke:#181818;stroke-width:0.5;" width="137.1113" x="265.2959" y="157.9375"/><text fill="#000000" font-family="sans-serif" font-size="12" lengthAdjust="spacing" textLength="117.1113" x="275.2959" y="179.0762">INPUT assignment2</text><rect fill="#F1F1F1" height="33.9688" rx="12.5" ry="12.5" style="stroke:#181818;stroke-width:0.5;" width="119.2578" x="274.2227" y="211.9063"/><text fill="#000000" font-family="sans-serif" font-size="12" lengthAdjust="spacing" textLength="99.2578" x="284.2227" y="233.0449">INPUT finalExam</text><rect fill="#F1F1F1" height="33.9688" rx="12.5" ry="12.5" style="stroke:#181818;stroke-width:0.5;" width="365.2871" x="151.208" y="265.875"/><text fill="#000000" font-family="sans-serif" font-size="12" lengthAdjust="spacing" textLength="345.2871" x="161.208" y="287.0137">average = (assignment1 + assignment2 + finalExam) / 3</text><polygon fill="#F1F1F1" points="32,319.8438,122.2935,319.8438,134.2935,331.8438,122.2935,343.8438,32,343.8438,20,331.8438,32,319.8438" style="stroke:#181818;stroke-width:0.5;"/><text fill="#000000" font-family="sans-serif" font-size="11" lengthAdjust="spacing" textLength="19.0083" x="81.1467" y="354.0542">yes</text><text fill="#000000" font-family="sans-serif" font-size="11" lengthAdjust="spacing" textLength="90.2935" x="32" y="335.6519">average &gt;= 90?</text><rect fill="#F1F1F1" height="33.9688" rx="12.5" ry="12.5" style="stroke:#181818;stroke-width:0.5;" width="91.8359" x="31.2288" y="376.6484"/><text fill="#000000" font-family="sans-serif" font-size="12" lengthAdjust="spacing" textLength="71.8359" x="41.2288" y="397.7871">grade = "A"</text><polygon fill="#F1F1F1" points="166.2935,319.8438,256.5869,319.8438,268.5869,331.8438,256.5869,343.8438,166.2935,343.8438,154.2935,331.8438,166.2935,319.8438" style="stroke:#181818;stroke-width:0.5;"/><text fill="#000000" font-family="sans-serif" font-size="11" lengthAdjust="spacing" textLength="19.0083" x="215.4402" y="354.0542">yes</text><text fill="#000000" font-family="sans-serif" font-size="11" lengthAdjust="spacing" textLength="90.2935" x="166.2935" y="335.6519">average &gt;= 80?</text><rect fill="#F1F1F1" height="33.9688" rx="12.5" ry="12.5" style="stroke:#181818;stroke-width:0.5;" width="91.8594" x="165.5105" y="376.6484"/><text fill="#000000" font-family="sans-serif" font-size="12" lengthAdjust="spacing" textLength="71.8594" x="175.5105" y="397.7871">grade = "B"</text><polygon fill="#F1F1F1" points="300.5869,319.8438,390.8804,319.8438,402.8804,331.8438,390.8804,343.8438,300.5869,343.8438,288.5869,331.8438,300.5869,319.8438" style="stroke:#181818;stroke-width:0.5;"/><text fill="#000000" font-family="sans-serif" font-size="11" lengthAdjust="spacing" textLength="19.0083" x="349.7336" y="354.0542">yes</text><text fill="#000000" font-family="sans-serif" font-size="11" lengthAdjust="spacing" textLength="90.2935" x="300.5869" y="335.6519">average &gt;= 70?</text><rect fill="#F1F1F1" height="33.9688" rx="12.5" ry="12.5" style="stroke:#181818;stroke-width:0.5;" width="92.0059" x="299.7307" y="376.6484"/><text fill="#000000" font-family="sans-serif" font-size="12" lengthAdjust="spacing" textLength="72.0059" x="309.7307" y="397.7871">grade = "C"</text><polygon fill="#F1F1F1" points="434.8804,319.8438,525.1738,319.8438,537.1738,331.8438,525.1738,343.8438,434.8804,343.8438,422.8804,331.8438,434.8804,319.8438" style="stroke:#181818;stroke-width:0.5;"/><text fill="#000000" font-family="sans-serif" font-size="11" lengthAdjust="spacing" textLength="19.0083" x="484.0271" y="354.0542">yes</text><text fill="#000000" font-family="sans-serif" font-size="11" lengthAdjust="spacing" textLength="90.2935" x="434.8804" y="335.6519">average &gt;= 60?</text><text fill="#000000" font-family="sans-serif" font-size="11" lengthAdjust="spacing" textLength="13.7017" x="537.1738" y="329.2495">no</text><rect fill="#F1F1F1" height="33.9688" rx="12.5" ry="12.5" style="stroke:#181818;stroke-width:0.5;" width="92.8672" x="433.5935" y="376.6484"/><text fill="#000000" font-family="sans-serif" font-size="12" lengthAdjust="spacing" textLength="72.8672" x="443.5935" y="397.7871">grade = "D"</text><rect fill="#F1F1F1" height="33.9688" rx="12.5" ry="12.5" style="stroke:#181818;stroke-width:0.5;" width="90.5293" x="557.1738" y="373.2461"/><text fill="#000000" font-family="sans-serif" font-size="12" lengthAdjust="spacing" textLength="70.5293" x="567.1738" y="394.3848">grade = "F"</text><rect fill="#F1F1F1" height="33.9688" rx="12.5" ry="12.5" style="stroke:#181818;stroke-width:0.5;" width="327.9746" x="169.8643" y="450.6172"/><text fill="#000000" font-family="sans-serif" font-size="12" lengthAdjust="spacing" textLength="307.9746" x="179.8643" y="471.7559">OUTPUT studentName + " earned grade: " + grade</text><rect fill="#F1F1F1" height="33.9688" rx="12.5" ry="12.5" style="stroke:#181818;stroke-width:0.5;" width="244.7305" x="211.4863" y="504.5859"/><text fill="#000000" font-family="sans-serif" font-size="12" lengthAdjust="spacing" textLength="224.7305" x="221.4863" y="525.7246">OUTPUT "Average score: " + average</text><ellipse cx="333.8516" cy="569.5547" fill="none" rx="11" ry="11" style="stroke:#222222;stroke-width:1;"/><ellipse cx="333.8516" cy="569.5547" fill="#222222" rx="6" ry="6" style="stroke:#222222;stroke-width:1;"/><line style="stroke:#181818;stroke-width:1;" x1="333.8516" x2="333.8516" y1="30" y2="50"/><polygon fill="#181818" points="329.8516,40,333.8516,50,337.8516,40,333.8516,44" style="stroke:#181818;stroke-width:1;"/><line style="stroke:#181818;stroke-width:1;" x1="333.8516" x2="333.8516" y1="83.9688" y2="103.9688"/><polygon fill="#181818" points="329.8516,93.9688,333.8516,103.9688,337.8516,93.9688,333.8516,97.9688" style="stroke:#181818;stroke-width:1;"/><line style="stroke:#181818;stroke-width:1;" x1="333.8516" x2="333.8516" y1="137.9375" y2="157.9375"/><polygon fill="#181818" points="329.8516,147.9375,333.8516,157.9375,337.8516,147.9375,333.8516,151.9375" style="stroke:#181818;stroke-width:1;"/><line style="stroke:#181818;stroke-width:1;" x1="333.8516" x2="333.8516" y1="191.9063" y2="211.9063"/><polygon fill="#181818" points="329.8516,201.9063,333.8516,211.9063,337.8516,201.9063,333.8516,205.9063" style="stroke:#181818;stroke-width:1;"/><line style="stroke:#181818;stroke-width:1;" x1="333.8516" x2="333.8516" y1="245.875" y2="265.875"/><polygon fill="#181818" points="329.8516,255.875,333.8516,265.875,337.8516,255.875,333.8516,259.875" style="stroke:#181818;stroke-width:1;"/><line style="stroke:#181818;stroke-width:1;" x1="77.1467" x2="77.1467" y1="343.8438" y2="376.6484"/><polygon fill="#181818" points="73.1467,366.6484,77.1467,376.6484,81.1467,366.6484,77.1467,370.6484" style="stroke:#181818;stroke-width:1;"/><line style="stroke:#181818;stroke-width:1;" x1="77.1467" x2="77.1467" y1="410.6172" y2="430.6172"/><polygon fill="#181818" points="73.1467,420.6172,77.1467,430.6172,81.1467,420.6172,77.1467,424.6172" style="stroke:#181818;stroke-width:1;"/><line style="stroke:#181818;stroke-width:1;" x1="211.4402" x2="211.4402" y1="343.8438" y2="376.6484"/><polygon fill="#181818" points="207.4402,366.6484,211.4402,376.6484,215.4402,366.6484,211.4402,370.6484" style="stroke:#181818;stroke-width:1;"/><line style="stroke:#181818;stroke-width:1;" x1="211.4402" x2="211.4402" y1="410.6172" y2="430.6172"/><polygon fill="#181818" points="207.4402,420.6172,211.4402,430.6172,215.4402,420.6172,211.4402,424.6172" style="stroke:#181818;stroke-width:1;"/><line style="stroke:#181818;stroke-width:1;" x1="345.7336" x2="345.7336" y1="343.8438" y2="376.6484"/><polygon fill="#181818" points="341.7336,366.6484,345.7336,376.6484,349.7336,366.6484,345.7336,370.6484" style="stroke:#181818;stroke-width:1;"/><line style="stroke:#181818;stroke-width:1;" x1="345.7336" x2="345.7336" y1="410.6172" y2="430.6172"/><polygon fill="#181818" points="341.7336,420.6172,345.7336,430.6172,349.7336,420.6172,345.7336,424.6172" style="stroke:#181818;stroke-width:1;"/><line style="stroke:#181818;stroke-width:1;" x1="480.0271" x2="480.0271" y1="343.8438" y2="376.6484"/><polygon fill="#181818" points="476.0271,366.6484,480.0271,376.6484,484.0271,366.6484,480.0271,370.6484" style="stroke:#181818;stroke-width:1;"/><line style="stroke:#181818;stroke-width:1;" x1="480.0271" x2="480.0271" y1="410.6172" y2="430.6172"/><polygon fill="#181818" points="476.0271,420.6172,480.0271,430.6172,484.0271,420.6172,480.0271,424.6172" style="stroke:#181818;stroke-width:1;"/><line style="stroke:#181818;stroke-width:1;" x1="134.2935" x2="154.2935" y1="331.8438" y2="331.8438"/><polygon fill="#181818" points="144.2935,327.8438,154.2935,331.8438,144.2935,335.8438,148.2935,331.8438" style="stroke:#181818;stroke-width:1;"/><line style="stroke:#181818;stroke-width:1;" x1="268.5869" x2="288.5869" y1="331.8438" y2="331.8438"/><polygon fill="#181818" points="278.5869,327.8438,288.5869,331.8438,278.5869,335.8438,282.5869,331.8438" style="stroke:#181818;stroke-width:1;"/><line style="stroke:#181818;stroke-width:1;" x1="402.8804" x2="422.8804" y1="331.8438" y2="331.8438"/><polygon fill="#181818" points="412.8804,327.8438,422.8804,331.8438,412.8804,335.8438,416.8804,331.8438" style="stroke:#181818;stroke-width:1;"/><line style="stroke:#181818;stroke-width:1;" x1="333.8516" x2="333.8516" y1="299.8438" y2="304.8438"/><line style="stroke:#181818;stroke-width:1;" x1="333.8516" x2="77.1467" y1="304.8438" y2="304.8438"/><line style="stroke:#181818;stroke-width:1;" x1="77.1467" x2="77.1467" y1="304.8438" y2="319.8438"/><polygon fill="#181818" points="73.1467,309.8438,77.1467,319.8438,81.1467,309.8438,77.1467,313.8438" style="stroke:#181818;stroke-width:1;"/><line style="stroke:#181818;stroke-width:1;" x1="537.1738" x2="602.4385" y1="331.8438" y2="331.8438"/><line style="stroke:#181818;stroke-width:1;" x1="602.4385" x2="602.4385" y1="331.8438" y2="373.2461"/><polygon fill="#181818" points="598.4385,363.2461,602.4385,373.2461,606.4385,363.2461,602.4385,367.2461" style="stroke:#181818;stroke-width:1;"/><line style="stroke:#181818;stroke-width:1;" x1="602.4385" x2="602.4385" y1="407.2148" y2="430.6172"/><polygon fill="#181818" points="598.4385,420.6172,602.4385,430.6172,606.4385,420.6172,602.4385,424.6172" style="stroke:#181818;stroke-width:1;"/><line style="stroke:#181818;stroke-width:1;" x1="77.1467" x2="602.4385" y1="430.6172" y2="430.6172"/><line style="stroke:#181818;stroke-width:1;" x1="333.8516" x2="333.8516" y1="430.6172" y2="450.6172"/><polygon fill="#181818" points="329.8516,440.6172,333.8516,450.6172,337.8516,440.6172,333.8516,444.6172" style="stroke:#181818;stroke-width:1;"/><line style="stroke:#181818;stroke-width:1;" x1="333.8516" x2="333.8516" y1="484.5859" y2="504.5859"/><polygon fill="#181818" points="329.8516,494.5859,333.8516,504.5859,337.8516,494.5859,333.8516,498.5859" style="stroke:#181818;stroke-width:1;"/><line style="stroke:#181818;stroke-width:1;" x1="333.8516" x2="333.8516" y1="538.5547" y2="558.5547"/><polygon fill="#181818" points="329.8516,548.5547,333.8516,558.5547,337.8516,548.5547,333.8516,552.5547" style="stroke:#181818;stroke-width:1;"/><!--SRC=[VT393e8m40RWUvzYmWd2mIrneL7ZcdX13_004ncGH8ffgz6tjsebQ0YtpZ_pDPDH6gLcmIuyn14eVKr8w10BujyCbSepKPYurv3rgopD1PutTonCWZUIc15CmQrnyElGL1Nne0C3plBKp5iwcyAaE_T0dqY0-o3bCO0WavYyldKM3cTqLlH7nYrasKn6BMJLJ8OjP6q9kAByxMnV7P7aAGlsSVHtRdCD1mYbe0JU8Z2r_tdo2ZWBkuGwbjAEsBquKxgyF040]--></g></svg>