<svg xmlns="http://www.w3.org/2000/svg" xmlns:xlink="http://www.w3.org/1999/xlink" contentStyleType="text/css" data-diagram-type="SEQUENCE" height="471px" preserveAspectRatio="none" style="width:602px;height:471px;background:#FFFFFF;" version="1.1" viewBox="0 0 602 471" width="602px" zoomAndPan="magnify"><defs/><g><g><title>Browser</title><rect fill="#000000" fill-opacity="0.00000" height="400.125" width="8" x="36.5195" y="36.2969"/><line style="stroke:#181818;stroke-width:0.5;stroke-dasharray:5.0,5.0;" x1="40" x2="40" y1="36.2969" y2="436.4219"/></g><g><title>Server</title><rect fill="#000000" fill-opacity="0.00000" height="400.125" width="8" x="397.0024" y="36.2969"/><line style="stroke:#181818;stroke-width:0.5;stroke-dasharray:5.0,5.0;" x1="400.0474" x2="400.0474" y1="36.2969" y2="436.4219"/></g><g><title>Certificate Authority</title><rect fill="#000000" fill-opacity="0.00000" height="400.125" width="8" x="514.9419" y="36.2969"/><line style="stroke:#181818;stroke-width:0.5;stroke-dasharray:5.0,5.0;" x1="517.9575" x2="517.9575" y1="36.2969" y2="436.4219"/></g><g class="participant participant-head" data-participant="B"><rect fill="#E3E3E3" height="30.2969" rx="2.5" ry="2.5" style="stroke:#181818;stroke-width:0.5;" width="71.0391" x="5" y="5"/><text fill="#000000" font-family="sans-serif" font-size="14" lengthAdjust="spacing" textLength="57.0391" x="12" y="24.9951">Browser</text></g><g class="participant participant-tail" data-participant="B"><rect fill="#E3E3E3" height="30.2969" rx="2.5" ry="2.5" style="stroke:#181818;stroke-width:0.5;" width="71.0391" x="5" y="435.4219"/><text fill="#000000" font-family="sans-serif" font-size="14" lengthAdjust="spacing" textLength="57.0391" x="12" y="455.417">Browser</text></g><g class="participant participant-head" data-participant="S"><rect fill="#E3E3E3" height="30.2969" rx="2.5" ry="2.5" style="stroke:#181818;stroke-width:0.5;" width="59.9102" x="371.0474" y="5"/><text fill="#000000" font-family="sans-serif" font-size="14" lengthAdjust="spacing" textLength="45.9102" x="378.0474" y="24.9951">Server</text></g><g class="participant participant-tail" data-participant="S"><rect fill="#E3E3E3" height="30.2969" rx="2.5" ry="2.5" style="stroke:#181818;stroke-width:0.5;" width="59.9102" x="371.0474" y="435.4219"/><text fill="#000000" font-family="sans-serif" font-size="14" lengthAdjust="spacing" textLength="45.9102" x="378.0474" y="455.417">Server</text></g><g class="participant participant-head" data-participant="CA"><rect fill="#E3E3E3" height="30.2969" rx="2.5" ry="2.5" style="stroke:#181818;stroke-width:0.5;" width="155.9688" x="440.9575" y="5"/><text fill="#000000" font-family="sans-serif" font-size="14" lengthAdjust="spacing" textLength="141.9688" x="447.9575" y="24.9951">Certificate Authority</text></g><g class="participant participant-tail" data-participant="CA"><rect fill="#E3E3E3" height="30.2969" rx="2.5" ry="2.5" style="stroke:#181818;stroke-width:0.5;" width="155.9688" x="440.9575" y="435.4219"/><text fill="#000000" font-family="sans-serif" font-size="14" lengthAdjust="spacing" textLength="141.9688" x="447.9575" y="455.417">Certificate Authority</text></g><g class="message" data-participant-1="B" data-participant-2="S"><polygon fill="#181818" points="389.0024,63.4297,399.0024,67.4297,389.0024,71.4297,393.0024,67.4297" style="stroke:#181818;stroke-width:1;"/><line style="stroke:#181818;stroke-width:1;" x1="40.5195" x2="395.0024" y1="67.4297" y2="67.4297"/><text fill="#000000" font-family="sans-serif" font-size="13" lengthAdjust="spacing" textLength="191.5659" x="47.5195" y="62.3638">1. Request HTTPS connection</text></g><g class="message" data-participant-1="S" data-participant-2="B"><polygon fill="#181818" points="51.5195,92.5625,41.5195,96.5625,51.5195,100.5625,47.5195,96.5625" style="stroke:#181818;stroke-width:1;"/><line style="stroke:#181818;stroke-width:1;" x1="45.5195" x2="400.0024" y1="96.5625" y2="96.5625"/><text fill="#000000" font-family="sans-serif" font-size="13" lengthAdjust="spacing" textLength="146.8848" x="57.5195" y="91.4966">2. Send SSL certificate</text></g><g class="message" data-participant-1="B" data-participant-2="CA"><polygon fill="#181818" points="506.9419,121.6953,516.9419,125.6953,506.9419,129.6953,510.9419,125.6953" style="stroke:#181818;stroke-width:1;"/><line style="stroke:#181818;stroke-width:1;" x1="40.5195" x2="512.9419" y1="125.6953" y2="125.6953"/><text fill="#000000" font-family="sans-serif" font-size="13" lengthAdjust="spacing" textLength="178.1978" x="47.5195" y="120.6294">3. Verify certificate with CA</text></g><g class="message" data-participant-1="CA" data-participant-2="B"><polygon fill="#181818" points="51.5195,150.8281,41.5195,154.8281,51.5195,158.8281,47.5195,154.8281" style="stroke:#181818;stroke-width:1;"/><line style="stroke:#181818;stroke-width:1;" x1="45.5195" x2="517.9419" y1="154.8281" y2="154.8281"/><text fill="#000000" font-family="sans-serif" font-size="13" lengthAdjust="spacing" textLength="215.6616" x="57.5195" y="149.7622">4. Certificate validation response</text></g><g class="message" data-participant-1="B" data-participant-2="S"><polygon fill="#181818" points="389.0024,179.9609,399.0024,183.9609,389.0024,187.9609,393.0024,183.9609" style="stroke:#181818;stroke-width:1;"/><line style="stroke:#181818;stroke-width:1;" x1="40.5195" x2="395.0024" y1="183.9609" y2="183.9609"/><text fill="#000000" font-family="sans-serif" font-size="13" lengthAdjust="spacing" textLength="269.6357" x="47.5195" y="178.895">5. Send public key encrypted session key</text></g><g class="message" data-participant-1="S" data-participant-2="B"><polygon fill="#181818" points="51.5195,209.0938,41.5195,213.0938,51.5195,217.0938,47.5195,213.0938" style="stroke:#181818;stroke-width:1;"/><line style="stroke:#181818;stroke-width:1;" x1="45.5195" x2="400.0024" y1="213.0938" y2="213.0938"/><text fill="#000000" font-family="sans-serif" font-size="13" lengthAdjust="spacing" textLength="336.4829" x="57.5195" y="208.0278">6. Acknowledge - encrypted connection established</text></g><g class="message" data-participant-1="B" data-participant-2="S"><polygon fill="#181818" points="51.5195,238.2266,41.5195,242.2266,51.5195,246.2266,47.5195,242.2266" style="stroke:#181818;stroke-width:1;"/><polygon fill="#181818" points="389.0024,238.2266,399.0024,242.2266,389.0024,246.2266,393.0024,242.2266" style="stroke:#181818;stroke-width:1;"/><line style="stroke:#181818;stroke-width:1;" x1="45.5195" x2="395.0024" y1="242.2266" y2="242.2266"/><text fill="#000000" font-family="sans-serif" font-size="13" lengthAdjust="spacing" textLength="309.48" x="57.5195" y="237.1606">7. Encrypted data exchange using session keys</text></g><path d="M45,255.2266 L45,340.2266 L255,340.2266 L255,265.2266 L245,255.2266 L45,255.2266" fill="#FAFAFA" style="stroke:#181818;stroke-width:0.5;"/><path d="M245,255.2266 L245,265.2266 L255,265.2266 L245,255.2266" fill="#FAFAFA" style="stroke:#181818;stroke-width:0.5;"/><text fill="#000000" font-family="sans-serif" font-size="13" lengthAdjust="spacing" textLength="109.0845" x="51" y="272.2935">Browser verifies:</text><text fill="#000000" font-family="sans-serif" font-size="13" lengthAdjust="spacing" textLength="126.1343" x="51" y="287.4263">- Certificate is valid</text><text fill="#000000" font-family="sans-serif" font-size="13" lengthAdjust="spacing" textLength="189.1855" x="51" y="302.5591">- Certificate matches domain</text><text fill="#000000" font-family="sans-serif" font-size="13" lengthAdjust="spacing" textLength="169.5713" x="51" y="317.6919">- Certificate is not expired</text><text fill="#000000" font-family="sans-serif" font-size="13" lengthAdjust="spacing" textLength="157.8979" x="51" y="332.8247">- CA signature is trusted</text><path d="M194,350.8906 L194,420.8906 L395,420.8906 L395,360.8906 L385,350.8906 L194,350.8906" fill="#FAFAFA" style="stroke:#181818;stroke-width:0.5;"/><path d="M385,350.8906 L385,360.8906 L395,360.8906 L385,350.8906" fill="#FAFAFA" style="stroke:#181818;stroke-width:0.5;"/><text fill="#000000" font-family="sans-serif" font-size="13" lengthAdjust="spacing" textLength="180.6035" x="200" y="367.9575">Server proves identity with:</text><text fill="#000000" font-family="sans-serif" font-size="13" lengthAdjust="spacing" textLength="110.8872" x="200" y="383.0903">- Valid certificate</text><text fill="#000000" font-family="sans-serif" font-size="13" lengthAdjust="spacing" textLength="152.9023" x="200" y="398.2231">- Private key ownership</text><text fill="#000000" font-family="sans-serif" font-size="13" lengthAdjust="spacing" textLength="117.4824" x="200" y="413.356">- CA endorsement</text><!--SRC=[RPBDZjim38JlVeh1tcEW_q1G57220ZtiOL4lzgxAT4J4bhoYR3TlNofslGdQepWavoCfERCVJ3Gz-k23TJ7qX1H7AcHJn9acpEnFQ4qdL1GQJcnvC3xXuH33B1GVO0I7UwccEArAVQySIHyjMvC8rPXSY9mkryHZLHG7xBwXtkDTYP_qEf8a_7X-VgfXW_Ta4mTVr3ddiCVx4ZNv1dNz2FlMTUbnhFRuKEA58hUNMnap9vUzZjNQvsE9MwZ9TDoOx8H8CWGlj65zMYs7yLV75cUwWBoDbo5H0o6HNANHZV5pYSgUVPWxQaw4tKtwsqJGCOqs54UDMdrTlBwK-BubAv01_RREU6qpIZx9ZPyKXG_A7lda4aAhvm3Mys3AEs2IlSPsTwEoBDF-8_GcMKU29lI6_V_gr4vv1ewqLbSGFdcJndZLzIE9WXTvMnbj1UoelVBLMhJy4GmnJ6h53VcaN-5wdmNr9RFTdJP7do9F6I8lFyoUeZWU_ZAeNOX2lVRQhFy0]--></g></svg>