<svg xmlns="http://www.w3.org/2000/svg" xmlns:xlink="http://www.w3.org/1999/xlink" contentStyleType="text/css" data-diagram-type="ACTIVITY" height="308px" preserveAspectRatio="none" style="width:418px;height:308px;background:#FFFFFF;" version="1.1" viewBox="0 0 418 308" width="418px" zoomAndPan="magnify"><defs/><g><ellipse cx="206.1875" cy="20" fill="#222222" rx="10" ry="10" style="stroke:#222222;stroke-width:1;"/><rect fill="#F1F1F1" height="33.9688" rx="12.5" ry="12.5" style="stroke:#181818;stroke-width:0.5;" width="119.8848" x="146.2451" y="50"/><text fill="#000000" font-family="sans-serif" font-size="12" lengthAdjust="spacing" textLength="99.8848" x="156.2451" y="71.1387">INPUT username</text><rect fill="#F1F1F1" height="33.9688" rx="12.5" ry="12.5" style="stroke:#181818;stroke-width:0.5;" width="116.8613" x="147.7568" y="103.9688"/><text fill="#000000" font-family="sans-serif" font-size="12" lengthAdjust="spacing" textLength="96.8613" x="157.7568" y="125.1074">INPUT password</text><polygon fill="#F1F1F1" points="194.1875,157.9375,218.1875,157.9375,230.1875,169.9375,218.1875,181.9375,194.1875,181.9375,182.1875,169.9375,194.1875,157.9375" style="stroke:#181818;stroke-width:0.5;"/><text fill="#000000" font-family="sans-serif" font-size="11" lengthAdjust="spacing" text-decoration="underline" textLength="5.5" x="195.0183" y="173.7456">_</text><text fill="#000000" font-family="sans-serif" font-size="11" lengthAdjust="spacing" text-decoration="underline" textLength="5.5" x="200.5183" y="173.7456">_</text><text fill="#000000" font-family="sans-serif" font-size="11" lengthAdjust="spacing" textLength="11.3384" x="206.0183" y="173.7456">_?</text><text fill="#000000" font-family="sans-serif" font-size="11" lengthAdjust="spacing" textLength="19.0083" x="163.1792" y="167.3433">yes</text><text fill="#000000" font-family="sans-serif" font-size="11" lengthAdjust="spacing" textLength="13.7017" x="230.1875" y="167.3433">no</text><rect fill="#F1F1F1" height="33.9688" rx="12.5" ry="12.5" style="stroke:#181818;stroke-width:0.5;" width="182.2637" x="11" y="191.9375"/><text fill="#000000" font-family="sans-serif" font-size="12" lengthAdjust="spacing" textLength="162.2637" x="21" y="213.0762">OUTPUT "Login successful"</text><rect fill="#F1F1F1" height="33.9688" rx="12.5" ry="12.5" style="stroke:#181818;stroke-width:0.5;" width="193.959" x="213.2637" y="191.9375"/><text fill="#000000" font-family="sans-serif" font-size="12" lengthAdjust="spacing" textLength="173.959" x="223.2637" y="213.0762">OUTPUT "Invalid credentials"</text><polygon fill="#F1F1F1" points="206.1875,231.9063,218.1875,243.9063,206.1875,255.9063,194.1875,243.9063,206.1875,231.9063" style="stroke:#181818;stroke-width:0.5;"/><ellipse cx="206.1875" cy="286.9063" fill="none" rx="11" ry="11" style="stroke:#222222;stroke-width:1;"/><ellipse cx="206.1875" cy="286.9063" fill="#222222" rx="6" ry="6" style="stroke:#222222;stroke-width:1;"/><line style="stroke:#181818;stroke-width:1;" x1="206.1875" x2="206.1875" y1="30" y2="50"/><polygon fill="#181818" points="202.1875,40,206.1875,50,210.1875,40,206.1875,44" style="stroke:#181818;stroke-width:1;"/><line style="stroke:#181818;stroke-width:1;" x1="206.1875" x2="206.1875" y1="83.9688" y2="103.9688"/><polygon fill="#181818" points="202.1875,93.9688,206.1875,103.9688,210.1875,93.9688,206.1875,97.9688" style="stroke:#181818;stroke-width:1;"/><line style="stroke:#181818;stroke-width:1;" x1="182.1875" x2="102.1318" y1="169.9375" y2="169.9375"/><line style="stroke:#181818;stroke-width:1;" x1="102.1318" x2="102.1318" y1="169.9375" y2="191.9375"/><polygon fill="#181818" points="98.1318,181.9375,102.1318,191.9375,106.1318,181.9375,102.1318,185.9375" style="stroke:#181818;stroke-width:1;"/><line style="stroke:#181818;stroke-width:1;" x1="230.1875" x2="310.2432" y1="169.9375" y2="169.9375"/><line style="stroke:#181818;stroke-width:1;" x1="310.2432" x2="310.2432" y1="169.9375" y2="191.9375"/><polygon fill="#181818" points="306.2432,181.9375,310.2432,191.9375,314.2432,181.9375,310.2432,185.9375" style="stroke:#181818;stroke-width:1;"/><line style="stroke:#181818;stroke-width:1;" x1="102.1318" x2="102.1318" y1="225.9063" y2="243.9063"/><line style="stroke:#181818;stroke-width:1;" x1="102.1318" x2="194.1875" y1="243.9063" y2="243.9063"/><polygon fill="#181818" points="184.1875,239.9063,194.1875,243.9063,184.1875,247.9063,188.1875,243.9063" style="stroke:#181818;stroke-width:1;"/><line style="stroke:#181818;stroke-width:1;" x1="310.2432" x2="310.2432" y1="225.9063" y2="243.9063"/><line style="stroke:#181818;stroke-width:1;" x1="310.2432" x2="218.1875" y1="243.9063" y2="243.9063"/><polygon fill="#181818" points="228.1875,239.9063,218.1875,243.9063,228.1875,247.9063,224.1875,243.9063" style="stroke:#181818;stroke-width:1;"/><line style="stroke:#181818;stroke-width:1;" x1="206.1875" x2="206.1875" y1="137.9375" y2="157.9375"/><polygon fill="#181818" points="202.1875,147.9375,206.1875,157.9375,210.1875,147.9375,206.1875,151.9375" style="stroke:#181818;stroke-width:1;"/><line style="stroke:#181818;stroke-width:1;" x1="206.1875" x2="206.1875" y1="255.9063" y2="275.9063"/><polygon fill="#181818" points="202.1875,265.9063,206.1875,275.9063,210.1875,265.9063,206.1875,269.9063" style="stroke:#181818;stroke-width:1;"/><!--SRC=[LOkn2W8n40NxVCLoLUuNBeNrWQZ5NIqXsUX2t1nvYUBVonKYJZdCeFdQp3IVBkj27LpLFzXznUQ1LwdH6KbahpyE8xKxAzatOpH4qtbTzc4ubfieeOV0GEfvS8OpcAoMlsxMfyyIALIEh4rynfvgb6JGolO1]--></g></svg>