<svg xmlns="http://www.w3.org/2000/svg" xmlns:xlink="http://www.w3.org/1999/xlink" contentStyleType="text/css" data-diagram-type="DESCRIPTION" height="596px" preserveAspectRatio="none" style="width:724px;height:596px;background:#FFFFFF;" version="1.1" viewBox="0 0 724 596" width="724px" zoomAndPan="magnify"><defs/><g><!--cluster Problem Resolution Framework--><g class="cluster" data-entity="Problem Resolution Framework" data-source-line="4" data-uid="ent0002" id="cluster_Problem Resolution Framework"><rect fill="none" height="472.48" rx="2.5" ry="2.5" style="stroke:#181818;stroke-width:1;" width="264" x="34" y="7"/><text fill="#000000" font-family="sans-serif" font-size="14" font-weight="bold" lengthAdjust="spacing" textLength="248.2676" x="41.8662" y="21.9951">Problem Resolution Framework</text></g><!--cluster Escalation Path--><g class="cluster" data-entity="Escalation Path" data-source-line="12" data-uid="ent0008" id="cluster_Escalation Path"><rect fill="none" height="472.48" rx="2.5" ry="2.5" style="stroke:#181818;stroke-width:1;" width="208" x="506" y="7"/><text fill="#000000" font-family="sans-serif" font-size="14" font-weight="bold" lengthAdjust="spacing" textLength="122.2061" x="548.897" y="21.9951">Escalation Path</text></g><!--cluster Resource Types--><g class="cluster" data-entity="Resource Types" data-source-line="20" data-uid="ent0014" id="cluster_Resource Types"><rect fill="none" height="87.3" rx="2.5" ry="2.5" style="stroke:#181818;stroke-width:1;" width="711" x="7" y="503.48"/><text fill="#000000" font-family="sans-serif" font-size="14" font-weight="bold" lengthAdjust="spacing" textLength="124.291" x="300.3545" y="518.4751">Resource Types</text></g><!--entity identify--><g class="entity" data-entity="identify" data-source-line="5" data-uid="ent0003" id="entity_identify"><rect fill="#F1F1F1" height="36.2969" rx="2.5" ry="2.5" style="stroke:#181818;stroke-width:0.5;" width="174.0342" x="72.98" y="42"/><text fill="#000000" font-family="sans-serif" font-size="14" lengthAdjust="spacing" textLength="154.0342" x="82.98" y="64.9951">Problem Identification</text></g><!--entity research--><g class="entity" data-entity="research" data-source-line="6" data-uid="ent0004" id="entity_research"><rect fill="#F1F1F1" height="36.2969" rx="2.5" ry="2.5" style="stroke:#181818;stroke-width:0.5;" width="143.8057" x="98.1" y="138.3"/><text fill="#000000" font-family="sans-serif" font-size="14" lengthAdjust="spacing" textLength="123.8057" x="108.1" y="161.2951">Internal Research</text></g><!--entity peers--><g class="entity" data-entity="peers" data-source-line="7" data-uid="ent0005" id="entity_peers"><rect fill="#F1F1F1" height="36.2969" rx="2.5" ry="2.5" style="stroke:#181818;stroke-width:0.5;" width="149.1787" x="95.41" y="234.59"/><text fill="#000000" font-family="sans-serif" font-size="14" lengthAdjust="spacing" textLength="129.1787" x="105.41" y="257.5851">Peer Collaboration</text></g><!--entity experts--><g class="entity" data-entity="experts" data-source-line="8" data-uid="ent0006" id="entity_experts"><rect fill="#F1F1F1" height="36.2969" rx="2.5" ry="2.5" style="stroke:#181818;stroke-width:0.5;" width="158.4824" x="88.76" y="330.89"/><text fill="#000000" font-family="sans-serif" font-size="14" lengthAdjust="spacing" textLength="138.4824" x="98.76" y="353.8851">Expert Consultation</text></g><!--entity external--><g class="entity" data-entity="external" data-source-line="9" data-uid="ent0007" id="entity_external"><rect fill="#F1F1F1" height="36.2969" rx="2.5" ry="2.5" style="stroke:#181818;stroke-width:0.5;" width="157.3818" x="73.31" y="427.19"/><text fill="#000000" font-family="sans-serif" font-size="14" lengthAdjust="spacing" textLength="137.3818" x="83.31" y="450.1851">External Assistance</text></g><!--entity self--><g class="entity" data-entity="self" data-source-line="13" data-uid="ent0009" id="entity_self"><rect fill="#F1F1F1" height="36.2969" rx="2.5" ry="2.5" style="stroke:#181818;stroke-width:0.5;" width="125.1504" x="547.42" y="42"/><text fill="#000000" font-family="sans-serif" font-size="14" lengthAdjust="spacing" textLength="105.1504" x="557.42" y="64.9951">Self-Resolution</text></g><!--entity team--><g class="entity" data-entity="team" data-source-line="14" data-uid="ent0010" id="entity_team"><rect fill="#F1F1F1" height="36.2969" rx="2.5" ry="2.5" style="stroke:#181818;stroke-width:0.5;" width="119.1758" x="550.41" y="138.3"/><text fill="#000000" font-family="sans-serif" font-size="14" lengthAdjust="spacing" textLength="99.1758" x="560.41" y="161.2951">Team Support</text></g><!--entity senior--><g class="entity" data-entity="senior" data-source-line="15" data-uid="ent0011" id="entity_senior"><rect fill="#F1F1F1" height="36.2969" rx="2.5" ry="2.5" style="stroke:#181818;stroke-width:0.5;" width="135.2949" x="542.35" y="234.59"/><text fill="#000000" font-family="sans-serif" font-size="14" lengthAdjust="spacing" textLength="115.2949" x="552.35" y="257.5851">Senior Guidance</text></g><!--entity mgmt--><g class="entity" data-entity="mgmt" data-source-line="16" data-uid="ent0012" id="entity_mgmt"><rect fill="#F1F1F1" height="36.2969" rx="2.5" ry="2.5" style="stroke:#181818;stroke-width:0.5;" width="176.2764" x="521.86" y="330.89"/><text fill="#000000" font-family="sans-serif" font-size="14" lengthAdjust="spacing" textLength="156.2764" x="531.86" y="353.8851">Management Decision</text></g><!--entity procure--><g class="entity" data-entity="procure" data-source-line="17" data-uid="ent0013" id="entity_procure"><rect fill="#F1F1F1" height="36.2969" rx="2.5" ry="2.5" style="stroke:#181818;stroke-width:0.5;" width="173.0977" x="523.45" y="427.19"/><text fill="#000000" font-family="sans-serif" font-size="14" lengthAdjust="spacing" textLength="153.0977" x="533.45" y="450.1851">External Procurement</text></g><!--entity docs--><g class="entity" data-entity="docs" data-source-line="21" data-uid="ent0015" id="entity_docs"><rect fill="#F1F1F1" height="36.2969" rx="2.5" ry="2.5" style="stroke:#181818;stroke-width:0.5;" width="127.9258" x="574.04" y="538.48"/><text fill="#000000" font-family="sans-serif" font-size="14" lengthAdjust="spacing" textLength="107.9258" x="584.04" y="561.4751">Documentation</text></g><!--entity forums--><g class="entity" data-entity="forums" data-source-line="22" data-uid="ent0016" id="entity_forums"><rect fill="#F1F1F1" height="36.2969" rx="2.5" ry="2.5" style="stroke:#181818;stroke-width:0.5;" width="157.6553" x="381.17" y="538.48"/><text fill="#000000" font-family="sans-serif" font-size="14" lengthAdjust="spacing" textLength="137.6553" x="391.17" y="561.4751">Community Forums</text></g><!--entity vendor--><g class="entity" data-entity="vendor" data-source-line="23" data-uid="ent0017" id="entity_vendor"><rect fill="#F1F1F1" height="36.2969" rx="2.5" ry="2.5" style="stroke:#181818;stroke-width:0.5;" width="130.0654" x="215.97" y="538.48"/><text fill="#000000" font-family="sans-serif" font-size="14" lengthAdjust="spacing" textLength="110.0654" x="225.97" y="561.4751">Vendor Support</text></g><!--entity consult--><g class="entity" data-entity="consult" data-source-line="24" data-uid="ent0018" id="entity_consult"><rect fill="#F1F1F1" height="36.2969" rx="2.5" ry="2.5" style="stroke:#181818;stroke-width:0.5;" width="157.8945" x="23.05" y="538.48"/><text fill="#000000" font-family="sans-serif" font-size="14" lengthAdjust="spacing" textLength="137.8945" x="33.05" y="561.4751">Consulting Services</text></g><!--link identify to research--><g class="link" data-entity-1="identify" data-entity-2="research" data-source-line="27" data-uid="lnk19" id="link_identify_research"><path d="M161.83,78.44 C163.63,95.35 165.7075,114.9934 167.5075,131.9734" fill="none" id="identify-to-research" style="stroke:#181818;stroke-width:1;"/><polygon fill="#181818" points="168.14,137.94,171.169,128.5685,167.6129,132.9679,163.2135,129.4118,168.14,137.94" style="stroke:#181818;stroke-width:1;"/></g><!--link research to peers--><g class="link" data-entity-1="research" data-entity-2="peers" data-source-line="28" data-uid="lnk20" id="link_research_peers"><path d="M170,174.74 C170,191.65 170,211.26 170,228.24" fill="none" id="research-to-peers" style="stroke:#181818;stroke-width:1;"/><polygon fill="#181818" points="170,234.24,174,225.24,170,229.24,166,225.24,170,234.24" style="stroke:#181818;stroke-width:1;"/></g><!--link peers to experts--><g class="link" data-entity-1="peers" data-entity-2="experts" data-source-line="29" data-uid="lnk21" id="link_peers_experts"><path d="M169.63,271.04 C169.27,287.94 168.8572,307.5513 168.4972,324.5313" fill="none" id="peers-to-experts" style="stroke:#181818;stroke-width:1;"/><polygon fill="#181818" points="168.37,330.53,172.5599,321.6168,168.476,325.5311,164.5617,321.4472,168.37,330.53" style="stroke:#181818;stroke-width:1;"/></g><!--link experts to external--><g class="link" data-entity-1="experts" data-entity-2="external" data-source-line="30" data-uid="lnk22" id="link_experts_external"><path d="M165.07,367.33 C162.2,384.24 158.8533,403.9345 155.9733,420.9145" fill="none" id="experts-to-external" style="stroke:#181818;stroke-width:1;"/><polygon fill="#181818" points="154.97,426.83,160.4187,418.6256,155.8061,421.9004,152.5313,417.2878,154.97,426.83" style="stroke:#181818;stroke-width:1;"/></g><!--link self to team--><g class="link" data-entity-1="self" data-entity-2="team" data-source-line="32" data-uid="lnk23" id="link_self_team"><path d="M610,78.44 C610,95.35 610,114.96 610,131.94" fill="none" id="self-to-team" style="stroke:#181818;stroke-width:1;"/><polygon fill="#181818" points="610,137.94,614,128.94,610,132.94,606,128.94,610,137.94" style="stroke:#181818;stroke-width:1;"/></g><!--link team to senior--><g class="link" data-entity-1="team" data-entity-2="senior" data-source-line="33" data-uid="lnk24" id="link_team_senior"><path d="M610,174.74 C610,191.65 610,211.26 610,228.24" fill="none" id="team-to-senior" style="stroke:#181818;stroke-width:1;"/><polygon fill="#181818" points="610,234.24,614,225.24,610,229.24,606,225.24,610,234.24" style="stroke:#181818;stroke-width:1;"/></g><!--link senior to mgmt--><g class="link" data-entity-1="senior" data-entity-2="mgmt" data-source-line="34" data-uid="lnk25" id="link_senior_mgmt"><path d="M610,271.04 C610,287.94 610,307.55 610,324.53" fill="none" id="senior-to-mgmt" style="stroke:#181818;stroke-width:1;"/><polygon fill="#181818" points="610,330.53,614,321.53,610,325.53,606,321.53,610,330.53" style="stroke:#181818;stroke-width:1;"/></g><!--link mgmt to procure--><g class="link" data-entity-1="mgmt" data-entity-2="procure" data-source-line="35" data-uid="lnk26" id="link_mgmt_procure"><path d="M610,367.33 C610,384.24 610,403.85 610,420.83" fill="none" id="mgmt-to-procure" style="stroke:#181818;stroke-width:1;"/><polygon fill="#181818" points="610,426.83,614,417.83,610,421.83,606,417.83,610,426.83" style="stroke:#181818;stroke-width:1;"/></g><!--link research to docs--><g class="link" data-entity-1="research" data-entity-2="docs" data-source-line="37" data-uid="lnk27" id="link_research_docs"><path d="M192.12,174.9 C211.11,190.14 238.98,213.12 262,234.59 C376.22,341.12 367.54,415.23 506,487.48 C525.95,497.89 535.23,486.81 556,495.48 C580.27,505.62 599.5797,520.3604 615.2297,534.2304" fill="none" id="research-to-docs" style="stroke:#181818;stroke-width:1;"/><polygon fill="#181818" points="619.72,538.21,615.6376,529.2471,615.9781,534.8937,610.3315,535.2342,619.72,538.21" style="stroke:#181818;stroke-width:1;"/></g><!--link peers to forums--><g class="link" data-entity-1="peers" data-entity-2="forums" data-source-line="38" data-uid="lnk28" id="link_peers_forums"><path d="M193.99,271.37 C213.8,286.35 242.25,308.87 265,330.89 C339.05,402.56 412.4259,494.2743 442.8359,533.3643" fill="none" id="peers-to-forums" style="stroke:#181818;stroke-width:1;"/><polygon fill="#181818" points="446.52,538.1,444.1509,528.5403,443.4499,534.1536,437.8366,533.4525,446.52,538.1" style="stroke:#181818;stroke-width:1;"/></g><!--link experts to vendor--><g class="link" data-entity-1="experts" data-entity-2="vendor" data-source-line="39" data-uid="lnk29" id="link_experts_vendor"><path d="M192.51,367.63 C210.45,381.77 234.01,403.18 248,427.19 C268.98,463.19 276.1495,506.5243 278.9195,532.3243" fill="none" id="experts-to-vendor" style="stroke:#181818;stroke-width:1;"/><polygon fill="#181818" points="279.56,538.29,282.5764,528.9144,279.0262,533.3186,274.6221,529.7684,279.56,538.29" style="stroke:#181818;stroke-width:1;"/></g><!--link external to consult--><g class="link" data-entity-1="external" data-entity-2="consult" data-source-line="40" data-uid="lnk30" id="link_external_consult"><path d="M143.97,463.9 C134.64,484.29 121.8385,512.285 112.5085,532.655" fill="none" id="external-to-consult" style="stroke:#181818;stroke-width:1;"/><polygon fill="#181818" points="110.01,538.11,117.3945,531.5932,112.0921,533.5641,110.1211,528.2618,110.01,538.11" style="stroke:#181818;stroke-width:1;"/></g><!--SRC=[TLBBJWCn3BplLrYzznUG42se1oH4A-uXwxOHUQpi1AWG_qxYPBkmBNl8OtPiPyRcD-C7HSg12pxe8mM742bXn-S_V5Hz-33-07jb6RkEK4Vb3nPXyKJXrQA3P-HWKpJ1mtsEmOz0RmluwY1_L-YR7dqqUwDL2Lc0OZ0LEir3DZuYUMLB2LIaZyAcThaeW4Xm5wnLhu6cv4E6USvTVmv8CRCz9nidCWf-XTuUSijiEACQ6xtYtVSVPzQibPMayAJYyOePMxJxvMIS9EECpNaxp4tOfc4858KKCt2Pp9j0y91CVtuP2pPdFYgl3kYosx12RNWixGuk_givDqudagXgQBtFD1SnYJJ2xZGWNv6yob4bnsHs7_I5qtV1kUHDFC5zeEHOY7ivpgalwFii-xSxxm9TvfGkbodU8hqRZJMjhdWHCauWB9Stqu2D1q7h7Cagzt5KsjwmDWzTQQP0qh2ooAsrfMw2YFLbgKMQjtzBYr5JvMR7xy9D-5XVi57U3m00]--></g></svg>