<svg xmlns="http://www.w3.org/2000/svg" xmlns:xlink="http://www.w3.org/1999/xlink" contentStyleType="text/css" data-diagram-type="DESCRIPTION" height="634px" preserveAspectRatio="none" style="width:1762px;height:634px;background:#FFFFFF;" version="1.1" viewBox="0 0 1762 634" width="1762px" zoomAndPan="magnify"><defs/><g><!--cluster Mobile Robot System--><g class="cluster" data-entity="Mobile Robot System" data-source-line="6" data-uid="ent0002" id="cluster_Mobile Robot System"><path d="M8.5,6 L176.96,6 A3.75,3.75 0 0 1 179.46,8.5 L186.46,28.2969 L1504.5,28.2969 A2.5,2.5 0 0 1 1507,30.7969 L1507,625.37 A2.5,2.5 0 0 1 1504.5,627.87 L8.5,627.87 A2.5,2.5 0 0 1 6,625.37 L6,8.5 A2.5,2.5 0 0 1 8.5,6" fill="none" style="stroke:#000000;stroke-width:1.5;"/><line style="stroke:#000000;stroke-width:1.5;" x1="6" x2="186.46" y1="28.2969" y2="28.2969"/><text fill="#000000" font-family="sans-serif" font-size="14" font-weight="bold" lengthAdjust="spacing" textLength="167.46" x="10" y="20.9951">Mobile Robot System</text></g><!--cluster Nav--><g class="cluster" data-entity="Nav" data-source-line="7" data-uid="ent0003" id="cluster_Nav"><rect fill="none" height="232.59" rx="2.5" ry="2.5" style="stroke:#181818;stroke-width:1;" width="358" x="1117" y="57"/><text fill="#000000" font-family="sans-serif" font-size="14" font-weight="bold" lengthAdjust="spacing" textLength="85.6338" x="1253.1831" y="71.9951">Navigation</text><text fill="#000000" font-family="sans-serif" font-size="14" font-weight="bold" lengthAdjust="spacing" textLength="86.6387" x="1252.6807" y="88.292">Subsystem</text></g><!--cluster Mobility--><g class="cluster" data-entity="Mobility" data-source-line="13" data-uid="ent0007" id="cluster_Mobility"><rect fill="none" height="232.59" rx="2.5" ry="2.5" style="stroke:#181818;stroke-width:1;" width="376" x="576" y="57"/><text fill="#000000" font-family="sans-serif" font-size="14" font-weight="bold" lengthAdjust="spacing" textLength="63.7861" x="732.1069" y="71.9951">Mobility</text><text fill="#000000" font-family="sans-serif" font-size="14" font-weight="bold" lengthAdjust="spacing" textLength="86.6387" x="720.6807" y="88.292">Subsystem</text></g><!--cluster Manip--><g class="cluster" data-entity="Manip" data-source-line="19" data-uid="ent0011" id="cluster_Manip"><rect fill="none" height="241.28" rx="2.5" ry="2.5" style="stroke:#181818;stroke-width:1;" width="270" x="644" y="354.59"/><text fill="#000000" font-family="sans-serif" font-size="14" font-weight="bold" lengthAdjust="spacing" textLength="103.4551" x="727.2725" y="369.5851">Manipulation</text><text fill="#000000" font-family="sans-serif" font-size="14" font-weight="bold" lengthAdjust="spacing" textLength="86.6387" x="735.6807" y="385.882">Subsystem</text></g><!--cluster Control--><g class="cluster" data-entity="Control" data-source-line="25" data-uid="ent0015" id="cluster_Control"><rect fill="none" height="198.8" rx="2.5" ry="2.5" style="stroke:#181818;stroke-width:1;" width="498" x="38" y="57"/><text fill="#000000" font-family="sans-serif" font-size="14" font-weight="bold" lengthAdjust="spacing" textLength="57.873" x="258.0635" y="71.9951">Control</text><text fill="#000000" font-family="sans-serif" font-size="14" font-weight="bold" lengthAdjust="spacing" textLength="86.6387" x="243.6807" y="88.292">Subsystem</text></g><!--entity NavSensors--><g class="entity" data-entity="NavSensors" data-source-line="8" data-uid="ent0004" id="entity_NavSensors"><rect fill="#F1F1F1" height="36.2969" rx="2.5" ry="2.5" style="stroke:#181818;stroke-width:0.5;" width="139.082" x="1160.46" y="116"/><text fill="#000000" font-family="sans-serif" font-size="14" lengthAdjust="spacing" textLength="119.082" x="1170.46" y="138.9951">GPS/IMU Sensors</text></g><!--entity PathPlan--><g class="entity" data-entity="PathPlan" data-source-line="9" data-uid="ent0005" id="entity_PathPlan"><rect fill="#F1F1F1" height="36.2969" rx="2.5" ry="2.5" style="stroke:#181818;stroke-width:0.5;" width="116.1406" x="1334.93" y="116"/><text fill="#000000" font-family="sans-serif" font-size="14" lengthAdjust="spacing" textLength="96.1406" x="1344.93" y="138.9951">Path Planning</text></g><!--entity ObstAvoid--><g class="entity" data-entity="ObstAvoid" data-source-line="10" data-uid="ent0006" id="entity_ObstAvoid"><rect fill="#F1F1F1" height="36.2969" rx="2.5" ry="2.5" style="stroke:#181818;stroke-width:0.5;" width="158.8857" x="1159.56" y="229.3"/><text fill="#000000" font-family="sans-serif" font-size="14" lengthAdjust="spacing" textLength="138.8857" x="1169.56" y="252.2951">Obstacle Avoidance</text></g><!--entity Motors--><g class="entity" data-entity="Motors" data-source-line="14" data-uid="ent0008" id="entity_Motors"><rect fill="#F1F1F1" height="36.2969" rx="2.5" ry="2.5" style="stroke:#181818;stroke-width:0.5;" width="141.3721" x="619.31" y="116"/><text fill="#000000" font-family="sans-serif" font-size="14" lengthAdjust="spacing" textLength="121.3721" x="629.31" y="138.9951">Motor Controllers</text></g><!--entity Encoders--><g class="entity" data-entity="Encoders" data-source-line="15" data-uid="ent0009" id="entity_Encoders"><rect fill="#F1F1F1" height="36.2969" rx="2.5" ry="2.5" style="stroke:#181818;stroke-width:0.5;" width="132.8135" x="795.59" y="116"/><text fill="#000000" font-family="sans-serif" font-size="14" lengthAdjust="spacing" textLength="112.8135" x="805.59" y="138.9951">Wheel Encoders</text></g><!--entity Drive--><g class="entity" data-entity="Drive" data-source-line="16" data-uid="ent0010" id="entity_Drive"><rect fill="#F1F1F1" height="36.2969" rx="2.5" ry="2.5" style="stroke:#181818;stroke-width:0.5;" width="98.6133" x="640.69" y="229.3"/><text fill="#000000" font-family="sans-serif" font-size="14" lengthAdjust="spacing" textLength="78.6133" x="650.69" y="252.2951">Drive Logic</text></g><!--entity Arm--><g class="entity" data-entity="Arm" data-source-line="20" data-uid="ent0012" id="entity_Arm"><rect fill="#F1F1F1" height="36.2969" rx="2.5" ry="2.5" style="stroke:#181818;stroke-width:0.5;" width="94.6553" x="687.67" y="413.59"/><text fill="#000000" font-family="sans-serif" font-size="14" lengthAdjust="spacing" textLength="74.6553" x="697.67" y="436.5851">Robot Arm</text></g><!--entity Grip--><g class="entity" data-entity="Grip" data-source-line="21" data-uid="ent0013" id="entity_Grip"><rect fill="#F1F1F1" height="36.2969" rx="2.5" ry="2.5" style="stroke:#181818;stroke-width:0.5;" width="72.6367" x="817.68" y="413.59"/><text fill="#000000" font-family="sans-serif" font-size="14" lengthAdjust="spacing" textLength="52.6367" x="827.68" y="436.5851">Gripper</text></g><!--entity Vision--><g class="entity" data-entity="Vision" data-source-line="22" data-uid="ent0014" id="entity_Vision"><rect fill="#F1F1F1" height="36.2969" rx="2.5" ry="2.5" style="stroke:#181818;stroke-width:0.5;" width="118.7451" x="687.63" y="535.57"/><text fill="#000000" font-family="sans-serif" font-size="14" lengthAdjust="spacing" textLength="98.7451" x="697.63" y="558.5651">Vision System</text></g><!--entity MainCtrl--><g class="entity" data-entity="MainCtrl" data-source-line="26" data-uid="ent0016" id="entity_MainCtrl"><rect fill="#F1F1F1" height="36.2969" rx="2.5" ry="2.5" style="stroke:#181818;stroke-width:0.5;" width="127.0439" x="384.48" y="116"/><text fill="#000000" font-family="sans-serif" font-size="14" lengthAdjust="spacing" textLength="107.0439" x="394.48" y="138.9951">Main Controller</text></g><!--entity Safety--><g class="entity" data-entity="Safety" data-source-line="27" data-uid="ent0017" id="entity_Safety"><rect fill="#F1F1F1" height="36.2969" rx="2.5" ry="2.5" style="stroke:#181818;stroke-width:0.5;" width="122.4502" x="226.77" y="116"/><text fill="#000000" font-family="sans-serif" font-size="14" lengthAdjust="spacing" textLength="102.4502" x="236.77" y="138.9951">Safety Monitor</text></g><!--entity Comm--><g class="entity" data-entity="Comm" data-source-line="28" data-uid="ent0018" id="entity_Comm"><rect fill="#F1F1F1" height="36.2969" rx="2.5" ry="2.5" style="stroke:#181818;stroke-width:0.5;" width="130.3457" x="61.83" y="116"/><text fill="#000000" font-family="sans-serif" font-size="14" lengthAdjust="spacing" textLength="110.3457" x="71.83" y="138.9951">Communication</text></g><g class="entity" data-entity="GMN25" data-source-line="40" data-uid="ent0026" id="entity_GMN25"><path d="M1522.65,388.91 L1522.65,474.5741 L1755.357,474.5741 L1755.357,398.91 L1745.357,388.91 L1522.65,388.91" fill="#FAFAFA" style="stroke:#181818;stroke-width:0.5;"/><path d="M1745.357,388.91 L1745.357,398.91 L1755.357,398.91 L1745.357,388.91" fill="#FAFAFA" style="stroke:#181818;stroke-width:1;"/><text fill="#000000" font-family="sans-serif" font-size="13" font-weight="bold" lengthAdjust="spacing" textLength="176.0903" x="1528.65" y="405.9769">Coordination principles:</text><text fill="#000000" font-family="sans-serif" font-size="13" lengthAdjust="spacing" textLength="161.6431" x="1528.65" y="421.1097">- Single control authority</text><text fill="#000000" font-family="sans-serif" font-size="13" lengthAdjust="spacing" textLength="211.707" x="1528.65" y="436.2425">- Clear communication protocols</text><text fill="#000000" font-family="sans-serif" font-size="13" lengthAdjust="spacing" textLength="208.4951" x="1528.65" y="451.3753">- Failure detection and recovery</text><text fill="#000000" font-family="sans-serif" font-size="13" lengthAdjust="spacing" textLength="130.292" x="1528.65" y="466.5081">- Modular interfaces</text></g><!--link Nav to Control--><g class="link" data-entity-1="Nav" data-entity-2="Control" data-source-line="32" data-uid="lnk19" id="link_Nav_Control"><path d="M1116.9363,136.6597 C1115.9953,136.8358 1114.9785,137.0261 1113.8895,137.2297 C1111.7114,137.637 1109.2443,138.0979 1106.5161,138.607 C1095.6034,140.6434 1080.5144,143.4506 1063.0438,146.6788 C1028.1025,153.135 983.635,161.275 944,168.3 C843.56,186.1 730.55,205.47 642.1613,220.4725 C620.0641,224.2231 599.5057,227.7008 581.0673,230.8127 C571.8481,232.3687 563.1589,233.8332 555.0723,235.1947 C551.029,235.8754 547.1363,236.5304 543.4034,237.1582 C541.5369,237.4721 539.7104,237.7792 537.925,238.0793 C537.4786,238.1543 542.9518,237.2345 542.5106,237.3086" fill="none" id="Nav-to-Control" style="stroke:#181818;stroke-width:1;"/><polygon fill="#181818" points="536.5936,238.303,546.1321,240.7561,541.5245,237.4743,544.8062,232.8667,536.5936,238.303" style="stroke:#181818;stroke-width:1;"/><text fill="#000000" font-family="sans-serif" font-size="13" lengthAdjust="spacing" textLength="123.0684" x="857" y="195.3669">Target coordinates</text></g><!--link Control to Mobility--><g class="link" data-entity-1="Control" data-entity-2="Mobility" data-source-line="33" data-uid="lnk20" id="link_Control_Mobility"><path d="M536.0039,164.926 C536.2091,164.8318 536.4142,164.7372 536.6192,164.6421 C537.0293,164.4518 537.439,164.2595 537.8484,164.0653 C541.1232,162.5119 544.3716,160.8375 547.5389,159.105 C553.8734,155.64 559.8831,151.9425 565.1288,148.515 C567.7516,146.8012 570.1834,145.155 572.3692,143.6391 C573.4622,142.8811 574.4936,142.1557 575.4568,141.4707 C575.5771,141.3851 575.6965,141.3001 575.8147,141.2158 C575.8738,141.1736 571.0504,144.6193 571.109,144.5774" fill="none" id="Control-to-Mobility" style="stroke:#181818;stroke-width:1;"/><polygon fill="#181818" points="575.9913,141.0898,566.3428,143.0664,571.9227,143.9961,570.993,149.5761,575.9913,141.0898" style="stroke:#181818;stroke-width:1;"/><text fill="#000000" font-family="sans-serif" font-size="13" lengthAdjust="spacing" textLength="144.6504" x="458" y="195.3669">Movement commands</text></g><!--link Mobility to Control--><g class="link" data-entity-1="Mobility" data-entity-2="Control" data-source-line="35" data-uid="lnk22" id="link_Mobility_Control"><path d="M575.9428,141.5873 C575.826,141.6759 575.7082,141.7652 575.5893,141.8551 C574.6381,142.5743 573.6186,143.3339 572.5371,144.1249 C570.3742,145.707 567.9638,147.4147 565.3575,149.1762 C560.145,152.6994 554.1494,156.4378 547.785,159.8167 C544.6028,161.5062 541.3284,163.1057 538.0137,164.5436 C537.5993,164.7233 537.1843,164.9005 536.7688,165.075 C536.5611,165.1623 541.8988,162.9583 541.6908,163.0443" fill="none" id="Mobility-to-Control" style="stroke:#181818;stroke-width:1;"/><polygon fill="#181818" points="536.1452,165.3348,545.9906,165.596,540.7665,163.426,542.9365,158.2019,536.1452,165.3348" style="stroke:#181818;stroke-width:1;"/><text fill="#000000" font-family="sans-serif" font-size="13" lengthAdjust="spacing" textLength="114.9307" x="329" y="195.3669">Position feedback</text></g><!--link Control to Manip--><g class="link" data-entity-1="Control" data-entity-2="Manip" data-source-line="34" data-uid="lnk21" id="link_Control_Manip"><path d="M485.2891,255.9275 C485.2394,256.0782 485.1893,256.2308 485.1389,256.3853 C484.9372,257.0033 484.7295,257.6521 484.5177,258.3298 C482.8228,263.7516 480.8581,271.0219 479.4763,279.1613 C476.7125,295.44 476.28,315.195 485,330.59 C505.99,367.655 546.7725,392.495 582.78,408.165 C600.7838,416 617.5938,421.5425 630.1391,425.1744 C633.2754,426.0823 636.1452,426.8709 638.7004,427.546 C639.9781,427.8836 641.1771,428.1928 642.2914,428.4743 C642.8486,428.6151 637.5599,427.3093 638.074,427.4364" fill="none" id="Control-to-Manip" style="stroke:#181818;stroke-width:1;"/><polygon fill="#181818" points="643.8988,428.8761,636.1215,422.8334,639.0448,427.6763,634.2019,430.5997,643.8988,428.8761" style="stroke:#181818;stroke-width:1;"/><text fill="#000000" font-family="sans-serif" font-size="13" lengthAdjust="spacing" textLength="122.2749" x="486" y="326.6569">Manipulation tasks</text></g><!--link Manip to Control--><g class="link" data-entity-1="Manip" data-entity-2="Control" data-source-line="36" data-uid="lnk23" id="link_Manip_Control"><path d="M643.9744,379.8691 C643.7804,379.099 643.582,378.3253 643.3788,377.5484 C642.5661,374.4411 641.6785,371.2834 640.7093,368.1006 C638.7708,361.7351 636.5059,355.2695 633.8608,348.9067 C628.5706,336.1813 621.76,323.8675 613,313.59 C608,307.725 577.64,291.8525 548.095,277.2438 C533.3225,269.9394 518.7538,262.9509 507.6606,257.6873 C506.9673,257.3584 506.2876,257.0361 505.6222,256.721 C505.2895,256.5634 504.9604,256.4076 504.635,256.2536 C504.4723,256.1766 509.7343,258.6658 509.5735,258.5897" fill="none" id="Manip-to-Control" style="stroke:#181818;stroke-width:1;"/><polygon fill="#181818" points="504.1497,256.024,510.5749,263.4884,508.6695,258.1621,513.9958,256.2567,504.1497,256.024" style="stroke:#181818;stroke-width:1;"/><text fill="#000000" font-family="sans-serif" font-size="13" lengthAdjust="spacing" textLength="74.2866" x="625" y="326.6569">Task status</text></g><!--link Safety to Control--><g class="link" data-entity-1="Safety" data-entity-2="Control" data-source-line="37" data-uid="lnk24" id="link_Safety_Control"><path d="M237.8,152.68 C212.18,164.35 189.4,180.88 205,199.3 C245.89,247.56 478.2301,246.4922 481.9601,246.4722" fill="none" id="Safety-to-Control" style="stroke:#181818;stroke-width:1;"/><polygon fill="#181818" points="487.96,246.44,478.9387,242.4883,482.9601,246.4668,478.9816,250.4882,487.96,246.44" style="stroke:#181818;stroke-width:1;"/><text fill="#000000" font-family="sans-serif" font-size="13" lengthAdjust="spacing" textLength="105.7583" x="206" y="195.3669">Emergency stop</text></g><!--link Control to GMN25--><g class="link" data-entity-1="Control" data-entity-2="GMN25" data-source-line="40" data-uid="lnk27" id="link_Control_GMN25"><path d="M499.1569,255.8383 C505.7881,260.0884 515.0225,265.7906 525.8925,271.9188 C547.6325,284.175 575.915,298.135 603,305.59 C648.12,318.01 661.43,308.89 708,313.59 C1001.77,343.25 1346.25,389.64 1522.37,414.2" fill="none" id="Control-GMN25" style="stroke:#181818;stroke-width:1;stroke-dasharray:7.0,7.0;"/></g><!--SRC=[TPF1ZXen38RlynGkHoJKEuTAAqfNbPOjAjlsqel96B18x56IeLfLVVTwmWpQJWSkJEmlZl_VoRkQ3Ym4NzUhbuVdnwSrE8yfLLKwipGOCK1GKNUA6WXoREbD9fsmrbyiHpYWJrHL3Rep7Wbc6zspjwgwrmoxrvGfpE1t1VQBv3BAqRApPxpm4JEh_9HTkqyzXmaiq-EZBO_RtVlFcs-m8qaQqm3towaTMymds7eKiKOBtqMwm1JzPPyoEljwk2ZNA8xAbYvS8cNFdsgifEZb_3hMCSIdnMmqQuILIexgFVLoIdHIoeyJaOUrEAq7U5XCuHyZNmYUzCYki6LzJm0ADwsV74R9JIku3lWXNa7xdvnPvAQXM93kUuhvpibElbqL8w-HE-tsdeqxxSDtt4QMDsRtqbXMEVefVeS7iibjLDW6Kl1hQ0fUQGYji2i6zhs4q7Tl_NSNUh7uSEjm2RCNZ4VAu5HZpOAPqgmQqXrwkplBxgPSA91qT0WezHWj4rh-EqR8cCu6tkgCpjzgui8TYEgzlLn3Ivt_-andi5UHMolMcp92re5CYxXNuxIPLPLe9h2haJM07WRKx9ZFLuFUxkWciZXkFANbV6xf1Uou6EhwujZcaqOkfYzWvGbZyU3cjPMmz-BKfq9yGlPj9AWfst2wlBdL3SeCZDSY6wtDeGWicU817QMAZEbQhlu2]--></g></svg>