<svg xmlns="http://www.w3.org/2000/svg" xmlns:xlink="http://www.w3.org/1999/xlink" contentStyleType="text/css" data-diagram-type="DESCRIPTION" height="676px" preserveAspectRatio="none" style="width:355px;height:676px;background:#FFFFFF;" version="1.1" viewBox="0 0 355 676" width="355px" zoomAndPan="magnify"><defs/><g><!--entity Base--><g class="entity" data-entity="Base" data-source-line="6" data-uid="ent0002" id="entity_Base"><rect fill="#F1F1F1" height="36.2969" rx="2.5" ry="2.5" style="stroke:#181818;stroke-width:0.5;" width="107.1924" x="12.27" y="30.68"/><text fill="#000000" font-family="sans-serif" font-size="14" lengthAdjust="spacing" textLength="87.1924" x="22.27" y="53.6751">Base (Fixed)</text></g><!--entity Shoulder--><g class="entity" data-entity="Shoulder" data-source-line="7" data-uid="ent0003" id="entity_Shoulder"><rect fill="#F1F1F1" height="52.5938" rx="2.5" ry="2.5" style="stroke:#181818;stroke-width:0.5;" width="117.7402" x="7" y="183.66"/><text fill="#000000" font-family="sans-serif" font-size="14" lengthAdjust="spacing" textLength="97.7402" x="17" y="206.6551">Shoulder Joint</text><text fill="#000000" font-family="sans-serif" font-size="14" lengthAdjust="spacing" textLength="70.1025" x="17" y="222.952">(Rotation)</text></g><!--entity Elbow--><g class="entity" data-entity="Elbow" data-source-line="8" data-uid="ent0004" id="entity_Elbow"><rect fill="#F1F1F1" height="52.5938" rx="2.5" ry="2.5" style="stroke:#181818;stroke-width:0.5;" width="97.0342" x="17.35" y="328.26"/><text fill="#000000" font-family="sans-serif" font-size="14" lengthAdjust="spacing" textLength="77.0342" x="27.35" y="351.2551">Elbow Joint</text><text fill="#000000" font-family="sans-serif" font-size="14" lengthAdjust="spacing" textLength="70.1025" x="27.35" y="367.552">(Rotation)</text></g><!--entity Wrist--><g class="entity" data-entity="Wrist" data-source-line="9" data-uid="ent0005" id="entity_Wrist"><rect fill="#F1F1F1" height="52.5938" rx="2.5" ry="2.5" style="stroke:#181818;stroke-width:0.5;" width="91.668" x="20.04" y="472.85"/><text fill="#000000" font-family="sans-serif" font-size="14" lengthAdjust="spacing" textLength="71.668" x="30.04" y="495.8451">Wrist Joint</text><text fill="#000000" font-family="sans-serif" font-size="14" lengthAdjust="spacing" textLength="70.1025" x="30.04" y="512.142">(Rotation)</text></g><!--entity Gripper--><g class="entity" data-entity="Gripper" data-source-line="10" data-uid="ent0006" id="entity_Gripper"><rect fill="#F1F1F1" height="52.5938" rx="2.5" ry="2.5" style="stroke:#181818;stroke-width:0.5;" width="105.8799" x="12.93" y="617.45"/><text fill="#000000" font-family="sans-serif" font-size="14" lengthAdjust="spacing" textLength="85.8799" x="22.93" y="640.4451">End Effector</text><text fill="#000000" font-family="sans-serif" font-size="14" lengthAdjust="spacing" textLength="63.5605" x="22.93" y="656.742">(Gripper)</text></g><g class="entity" data-entity="GMN11" data-source-line="18" data-uid="ent0012" id="entity_GMN11"><path d="M154.83,6 L154.83,44.83 L119.64,48.83 L154.83,52.83 L154.83,91.6641 A0,0 0 0 0 154.83,91.6641 L348.9115,91.6641 A0,0 0 0 0 348.9115,91.6641 L348.9115,16 L338.9115,6 L154.83,6 A0,0 0 0 0 154.83,6" fill="#FAFAFA" style="stroke:#181818;stroke-width:0.5;"/><path d="M338.9115,6 L338.9115,16 L348.9115,16 L338.9115,6" fill="#FAFAFA" style="stroke:#181818;stroke-width:0.5;"/><text fill="#000000" font-family="sans-serif" font-size="13" font-weight="bold" lengthAdjust="spacing" textLength="173.0815" x="160.83" y="23.0669">Workspace constraints:</text><text fill="#000000" font-family="sans-serif" font-size="13" lengthAdjust="spacing" textLength="172.3579" x="160.83" y="38.1997">- Maximum reach: 800mm</text><text fill="#000000" font-family="sans-serif" font-size="13" lengthAdjust="spacing" textLength="168.5493" x="160.83" y="53.3325">- Minimum reach: 150mm</text><text fill="#000000" font-family="sans-serif" font-size="13" lengthAdjust="spacing" textLength="125.3979" x="160.83" y="68.4653">- Payload limit: 2kg</text><text fill="#000000" font-family="sans-serif" font-size="13" lengthAdjust="spacing" textLength="140.1563" x="160.83" y="83.5981">- Speed limit: 50&#176;/sec</text></g><!--link Base to Shoulder--><g class="link" data-entity-1="Base" data-entity-2="Shoulder" data-source-line="12" data-uid="lnk7" id="link_Base_Shoulder"><path d="M65.87,67.47 C65.87,95.63 65.87,144.88 65.87,177.38" fill="none" id="Base-to-Shoulder" style="stroke:#181818;stroke-width:1;"/><polygon fill="#181818" points="65.87,183.38,69.87,174.38,65.87,178.38,61.87,174.38,65.87,183.38" style="stroke:#181818;stroke-width:1;"/><text fill="#000000" font-family="sans-serif" font-size="13" lengthAdjust="spacing" textLength="135.6875" x="66.87" y="134.7269">DOF 1: Base rotation</text><text fill="#000000" font-family="sans-serif" font-size="13" lengthAdjust="spacing" textLength="77.543" x="95.9423" y="149.8597">(0&#176; to 360&#176;)</text></g><!--link Shoulder to Elbow--><g class="link" data-entity-1="Shoulder" data-entity-2="Elbow" data-source-line="13" data-uid="lnk8" id="link_Shoulder_Elbow"><path d="M65.87,236.45 C65.87,262.25 65.87,295.92 65.87,321.8" fill="none" id="Shoulder-to-Elbow" style="stroke:#181818;stroke-width:1;"/><polygon fill="#181818" points="65.87,327.8,69.87,318.8,65.87,322.8,61.87,318.8,65.87,327.8" style="stroke:#181818;stroke-width:1;"/><text fill="#000000" font-family="sans-serif" font-size="13" lengthAdjust="spacing" textLength="143.0063" x="66.87" y="279.3269">DOF 2: Shoulder pitch</text><text fill="#000000" font-family="sans-serif" font-size="13" lengthAdjust="spacing" textLength="93.1265" x="91.8099" y="294.4597">(-90&#176; to +90&#176;)</text></g><!--link Elbow to Wrist--><g class="link" data-entity-1="Elbow" data-entity-2="Wrist" data-source-line="14" data-uid="lnk9" id="link_Elbow_Wrist"><path d="M65.87,381.05 C65.87,406.84 65.87,440.51 65.87,466.4" fill="none" id="Elbow-to-Wrist" style="stroke:#181818;stroke-width:1;"/><polygon fill="#181818" points="65.87,472.4,69.87,463.4,65.87,467.4,61.87,463.4,65.87,472.4" style="stroke:#181818;stroke-width:1;"/><text fill="#000000" font-family="sans-serif" font-size="13" lengthAdjust="spacing" textLength="124.1729" x="66.87" y="423.9169">DOF 3: Elbow bend</text><text fill="#000000" font-family="sans-serif" font-size="13" lengthAdjust="spacing" textLength="77.543" x="90.1849" y="439.0497">(0&#176; to 135&#176;)</text></g><!--link Wrist to Gripper--><g class="link" data-entity-1="Wrist" data-entity-2="Gripper" data-source-line="15" data-uid="lnk10" id="link_Wrist_Gripper"><path d="M65.87,525.64 C65.87,551.44 65.87,585.1 65.87,610.99" fill="none" id="Wrist-to-Gripper" style="stroke:#181818;stroke-width:1;"/><polygon fill="#181818" points="65.87,616.99,69.87,607.99,65.87,611.99,61.87,607.99,65.87,616.99" style="stroke:#181818;stroke-width:1;"/><text fill="#000000" font-family="sans-serif" font-size="13" lengthAdjust="spacing" textLength="137.7124" x="66.87" y="568.5169">DOF 4: Wrist rotation</text><text fill="#000000" font-family="sans-serif" font-size="13" lengthAdjust="spacing" textLength="109.6685" x="80.892" y="583.6497">(-180&#176; to +180&#176;)</text></g><!--SRC=[TP5DRi8m48NtFiKqAqWLbK2fIXQL-XEGglu9Ah7fnZYJn2An8zi8UgkUeIUh4oUGBjZPyzutCy- -I33b0c4PFtxUlorUOc05rPeGlUMYeegMK4eXMQvaYM3K3dkApcaYzrnaaD928o4AcQ4YAn2y1weH1dD-m6Je0TLG5_g6LIvtHO8AdYKNvaiCbj9GmwLmzaxk8t6naVip_aRhczUAQtF6t6Z_Eei4uZIr1QciUw5uLQ5ovlP2I1Cf2EwEkq44tjFx7CAeIGUg7M8xZ7v_m4YOtDZ3q2D7eiPTZ9OTHwTs5JSijt0mQ_7BcSCTKRCkLSjEehRN1aLo6XfEfWtbl3NLHkYuwwZjqriu26-xeSt9yaH8OqFnB3SWK_U10Bw_bcghAyeGc1JQA6gVM4U-RyK0Nkc1bxiI55AMHt0x6fMb4xZe2-6q4pxeTo5f0WKlkObWlCsQygf2F1QdTgChZOpOe52lHVu0]--></g></svg>