<svg xmlns="http://www.w3.org/2000/svg" xmlns:xlink="http://www.w3.org/1999/xlink" contentStyleType="text/css" data-diagram-type="ACTIVITY" height="787px" preserveAspectRatio="none" style="width:540px;height:787px;background:#FFFFFF;" version="1.1" viewBox="0 0 540 787" width="540px" zoomAndPan="magnify"><defs/><g><ellipse cx="265.1003" cy="20" fill="#222222" rx="10" ry="10" style="stroke:#222222;stroke-width:1;"/><path d="M346.446,40 L346.446,63.6992 L326.446,67.6992 L346.446,71.6992 L346.446,95.3984 A0,0 0 0 0 346.446,95.3984 L504.8411,95.3984 A0,0 0 0 0 504.8411,95.3984 L504.8411,50 L494.8411,40 L346.446,40 A0,0 0 0 0 346.446,40" fill="#FAFAFA" style="stroke:#181818;stroke-width:0.5;"/><path d="M494.8411,40 L494.8411,50 L504.8411,50 L494.8411,40" fill="#FAFAFA" style="stroke:#181818;stroke-width:0.5;"/><text fill="#000000" font-family="sans-serif" font-size="13" lengthAdjust="spacing" textLength="126.0137" x="352.446" y="57.0669">Stakeholder demos</text><text fill="#000000" font-family="sans-serif" font-size="13" lengthAdjust="spacing" textLength="78.8315" x="352.446" y="72.1997">User testing</text><text fill="#000000" font-family="sans-serif" font-size="13" lengthAdjust="spacing" textLength="137.395" x="352.446" y="87.3325">Surveys &amp; interviews</text><rect fill="#F1F1F1" height="33.9688" rx="12.5" ry="12.5" style="stroke:#181818;stroke-width:0.5;" width="122.6914" x="203.7546" y="50.7148"/><text fill="#000000" font-family="sans-serif" font-size="12" lengthAdjust="spacing" textLength="102.6914" x="213.7546" y="71.8535">Collect Feedback</text><rect fill="#F1F1F1" height="33.9688" rx="12.5" ry="12.5" style="stroke:#181818;stroke-width:0.5;" width="170.4277" x="179.8865" y="159.3984"/><text fill="#000000" font-family="sans-serif" font-size="12" lengthAdjust="spacing" textLength="150.4277" x="189.8865" y="180.5371">Functional Requirements</text><rect fill="#F1F1F1" height="33.9688" rx="12.5" ry="12.5" style="stroke:#181818;stroke-width:0.5;" width="112.9121" x="208.6443" y="213.3672"/><text fill="#000000" font-family="sans-serif" font-size="12" lengthAdjust="spacing" textLength="92.9121" x="218.6443" y="234.5059">Usability Issues</text><rect fill="#F1F1F1" height="33.9688" rx="12.5" ry="12.5" style="stroke:#181818;stroke-width:0.5;" width="137.0527" x="196.574" y="282.3359"/><text fill="#000000" font-family="sans-serif" font-size="12" lengthAdjust="spacing" textLength="117.0527" x="206.574" y="303.4746">Technical Concerns</text><rect fill="#F1F1F1" height="33.9688" rx="12.5" ry="12.5" style="stroke:#181818;stroke-width:0.5;" width="109.6426" x="210.2791" y="336.3047"/><text fill="#000000" font-family="sans-serif" font-size="12" lengthAdjust="spacing" textLength="89.6426" x="220.2791" y="357.4434">Business Rules</text><polygon fill="#F1F1F1" points="211.7224,115.3984,318.4783,115.3984,330.4783,127.3984,318.4783,139.3984,211.7224,139.3984,199.7224,127.3984,211.7224,115.3984" style="stroke:#181818;stroke-width:0.5;"/><text fill="#000000" font-family="sans-serif" font-size="11" lengthAdjust="spacing" textLength="106.7559" x="211.7224" y="131.2065">Categorise by Type</text><polygon fill="#F1F1F1" points="265.1003,390.2734,277.1003,402.2734,265.1003,414.2734,253.1003,402.2734,265.1003,390.2734" style="stroke:#181818;stroke-width:0.5;"/><path d="M10,424.2734 L10,479.6719 L178.1387,479.6719 L178.1387,434.2734 L168.1387,424.2734 L10,424.2734" fill="#FAFAFA" style="stroke:#181818;stroke-width:0.5;"/><path d="M168.1387,424.2734 L168.1387,434.2734 L178.1387,434.2734 L168.1387,424.2734" fill="#FAFAFA" style="stroke:#181818;stroke-width:0.5;"/><text fill="#000000" font-family="sans-serif" font-size="13" lengthAdjust="spacing" textLength="147.1387" x="16" y="441.3403">Consider development</text><text fill="#000000" font-family="sans-serif" font-size="13" lengthAdjust="spacing" textLength="141.0703" x="16" y="456.4731">cost, timeline impact,</text><text fill="#000000" font-family="sans-serif" font-size="13" lengthAdjust="spacing" textLength="124.8901" x="16" y="471.606">and business value</text><polygon fill="#F1F1F1" points="200.8701,523.6719,329.3306,523.6719,341.3306,535.6719,329.3306,547.6719,200.8701,547.6719,188.8701,535.6719,200.8701,523.6719" style="stroke:#181818;stroke-width:0.5;"/><text fill="#000000" font-family="sans-serif" font-size="11" lengthAdjust="spacing" textLength="128.4604" x="200.8701" y="539.48">High Impact + Feasible</text><text fill="#000000" font-family="sans-serif" font-size="11" lengthAdjust="spacing" textLength="130.0825" x="341.3306" y="533.0776">Low Impact or Complex</text><rect fill="#F1F1F1" height="33.9688" rx="12.5" ry="12.5" style="stroke:#181818;stroke-width:0.5;" width="188.6855" x="56.2019" y="557.6719"/><text fill="#000000" font-family="sans-serif" font-size="12" lengthAdjust="spacing" textLength="168.6855" x="66.2019" y="578.8105">Implement in Current Sprint</text><rect fill="#F1F1F1" height="33.9688" rx="12.5" ry="12.5" style="stroke:#181818;stroke-width:0.5;" width="160.3965" x="299.4578" y="557.6719"/><text fill="#000000" font-family="sans-serif" font-size="12" lengthAdjust="spacing" textLength="140.3965" x="309.4578" y="578.8105">Add to Product Backlog</text><rect fill="#F1F1F1" height="33.9688" rx="12.5" ry="12.5" style="stroke:#181818;stroke-width:0.5;" width="229.5371" x="264.8875" y="626.6406"/><text fill="#000000" font-family="sans-serif" font-size="12" lengthAdjust="spacing" textLength="209.5371" x="274.8875" y="647.7793">Document as Future Consideration</text><polygon fill="#F1F1F1" points="265.1003,666.6094,277.1003,678.6094,265.1003,690.6094,253.1003,678.6094,265.1003,666.6094" style="stroke:#181818;stroke-width:0.5;"/><polygon fill="#F1F1F1" points="190.1387,479.6719,340.062,479.6719,352.062,491.6719,340.062,503.6719,190.1387,503.6719,178.1387,491.6719,190.1387,479.6719" style="stroke:#181818;stroke-width:0.5;"/><text fill="#000000" font-family="sans-serif" font-size="11" lengthAdjust="spacing" textLength="149.9233" x="190.1387" y="495.48">Assess Impact &amp; Feasibility</text><polygon fill="#F1F1F1" points="265.1003,710.6094,277.1003,722.6094,265.1003,734.6094,253.1003,722.6094,265.1003,710.6094" style="stroke:#181818;stroke-width:0.5;"/><ellipse cx="265.1003" cy="765.6094" fill="none" rx="11" ry="11" style="stroke:#222222;stroke-width:1;"/><ellipse cx="265.1003" cy="765.6094" fill="#222222" rx="6" ry="6" style="stroke:#222222;stroke-width:1;"/><line style="stroke:#181818;stroke-width:1;" x1="265.1003" x2="265.1003" y1="30" y2="50.7148"/><polygon fill="#181818" points="261.1003,40.7148,265.1003,50.7148,269.1003,40.7148,265.1003,44.7148" style="stroke:#181818;stroke-width:1;"/><line style="stroke:#181818;stroke-width:1;" x1="265.1003" x2="265.1003" y1="193.3672" y2="213.3672"/><polygon fill="#181818" points="261.1003,203.3672,265.1003,213.3672,269.1003,203.3672,265.1003,207.3672" style="stroke:#181818;stroke-width:1;"/><line style="stroke:#181818;stroke-width:1;" x1="265.1003" x2="265.1003" y1="247.3359" y2="282.3359"/><polygon fill="#181818" points="261.1003,272.3359,265.1003,282.3359,269.1003,272.3359,265.1003,276.3359" style="stroke:#181818;stroke-width:1;"/><line style="stroke:#181818;stroke-width:1;" x1="265.1003" x2="265.1003" y1="316.3047" y2="336.3047"/><polygon fill="#181818" points="261.1003,326.3047,265.1003,336.3047,269.1003,326.3047,265.1003,330.3047" style="stroke:#181818;stroke-width:1;"/><line style="stroke:#181818;stroke-width:1;" x1="265.1003" x2="265.1003" y1="139.3984" y2="159.3984"/><polygon fill="#181818" points="261.1003,149.3984,265.1003,159.3984,269.1003,149.3984,265.1003,153.3984" style="stroke:#181818;stroke-width:1;"/><line style="stroke:#181818;stroke-width:1;" x1="330.4783" x2="360.3142" y1="127.3984" y2="127.3984"/><polygon fill="#181818" points="356.3142,254.8359,360.3142,264.8359,364.3142,254.8359,360.3142,258.8359" style="stroke:#181818;stroke-width:1;"/><line style="stroke:#181818;stroke-width:1;" x1="360.3142" x2="360.3142" y1="127.3984" y2="402.2734"/><line style="stroke:#181818;stroke-width:1;" x1="360.3142" x2="277.1003" y1="402.2734" y2="402.2734"/><polygon fill="#181818" points="287.1003,398.2734,277.1003,402.2734,287.1003,406.2734,283.1003,402.2734" style="stroke:#181818;stroke-width:1;"/><line style="stroke:#181818;stroke-width:1;" x1="265.1003" x2="265.1003" y1="370.2734" y2="390.2734"/><polygon fill="#181818" points="261.1003,380.2734,265.1003,390.2734,269.1003,380.2734,265.1003,384.2734" style="stroke:#181818;stroke-width:1;"/><line style="stroke:#181818;stroke-width:1;" x1="265.1003" x2="265.1003" y1="84.6836" y2="115.3984"/><polygon fill="#181818" points="261.1003,105.3984,265.1003,115.3984,269.1003,105.3984,265.1003,109.3984" style="stroke:#181818;stroke-width:1;"/><line style="stroke:#181818;stroke-width:1;" x1="379.656" x2="379.656" y1="591.6406" y2="626.6406"/><polygon fill="#181818" points="375.656,616.6406,379.656,626.6406,383.656,616.6406,379.656,620.6406" style="stroke:#181818;stroke-width:1;"/><line style="stroke:#181818;stroke-width:1;" x1="188.8701" x2="150.5447" y1="535.6719" y2="535.6719"/><line style="stroke:#181818;stroke-width:1;" x1="150.5447" x2="150.5447" y1="535.6719" y2="557.6719"/><polygon fill="#181818" points="146.5447,547.6719,150.5447,557.6719,154.5447,547.6719,150.5447,551.6719" style="stroke:#181818;stroke-width:1;"/><line style="stroke:#181818;stroke-width:1;" x1="341.3306" x2="379.656" y1="535.6719" y2="535.6719"/><line style="stroke:#181818;stroke-width:1;" x1="379.656" x2="379.656" y1="535.6719" y2="557.6719"/><polygon fill="#181818" points="375.656,547.6719,379.656,557.6719,383.656,547.6719,379.656,551.6719" style="stroke:#181818;stroke-width:1;"/><line style="stroke:#181818;stroke-width:1;" x1="150.5447" x2="150.5447" y1="591.6406" y2="678.6094"/><line style="stroke:#181818;stroke-width:1;" x1="150.5447" x2="253.1003" y1="678.6094" y2="678.6094"/><polygon fill="#181818" points="243.1003,674.6094,253.1003,678.6094,243.1003,682.6094,247.1003,678.6094" style="stroke:#181818;stroke-width:1;"/><line style="stroke:#181818;stroke-width:1;" x1="379.656" x2="379.656" y1="660.6094" y2="678.6094"/><line style="stroke:#181818;stroke-width:1;" x1="379.656" x2="277.1003" y1="678.6094" y2="678.6094"/><polygon fill="#181818" points="287.1003,674.6094,277.1003,678.6094,287.1003,682.6094,283.1003,678.6094" style="stroke:#181818;stroke-width:1;"/><line style="stroke:#181818;stroke-width:1;" x1="265.1003" x2="265.1003" y1="503.6719" y2="523.6719"/><polygon fill="#181818" points="261.1003,513.6719,265.1003,523.6719,269.1003,513.6719,265.1003,517.6719" style="stroke:#181818;stroke-width:1;"/><line style="stroke:#181818;stroke-width:1;" x1="352.062" x2="514.4246" y1="491.6719" y2="491.6719"/><polygon fill="#181818" points="510.4246,597.1406,514.4246,607.1406,518.4246,597.1406,514.4246,601.1406" style="stroke:#181818;stroke-width:1;"/><line style="stroke:#181818;stroke-width:1;" x1="514.4246" x2="514.4246" y1="491.6719" y2="722.6094"/><line style="stroke:#181818;stroke-width:1;" x1="514.4246" x2="277.1003" y1="722.6094" y2="722.6094"/><polygon fill="#181818" points="287.1003,718.6094,277.1003,722.6094,287.1003,726.6094,283.1003,722.6094" style="stroke:#181818;stroke-width:1;"/><line style="stroke:#181818;stroke-width:1;" x1="265.1003" x2="265.1003" y1="690.6094" y2="710.6094"/><polygon fill="#181818" points="261.1003,700.6094,265.1003,710.6094,269.1003,700.6094,265.1003,704.6094" style="stroke:#181818;stroke-width:1;"/><line style="stroke:#181818;stroke-width:1;" x1="265.1003" x2="265.1003" y1="414.2734" y2="479.6719"/><polygon fill="#181818" points="261.1003,469.6719,265.1003,479.6719,269.1003,469.6719,265.1003,473.6719" style="stroke:#181818;stroke-width:1;"/><line style="stroke:#181818;stroke-width:1;" x1="265.1003" x2="265.1003" y1="734.6094" y2="754.6094"/><polygon fill="#181818" points="261.1003,744.6094,265.1003,754.6094,269.1003,744.6094,265.1003,748.6094" style="stroke:#181818;stroke-width:1;"/><!--SRC=[JL7DJYCn3BxFK_Y4GF04xGcwga3Qmuh2hPSqSJjMC_QixRJRjzzaXXPkbZ_d-uiTYSUWOO11M6AlCY2u5kpiXbWVafo93x0FsR3hp8DwjrX9pXWTreXf5-9nsR4uWjAXzmLiF1onbvnG8U4WjkLFgxEZUUNQygRe2Iy6Tq3ig2V2itKTxU5-5HmFecG8kmjyN4Py0E-HEu35kd1q4WuPtl5l8SK1sMtPi4yBEyha5tWpApWlFp3sJB7UhuGZAi_hbsB4Q0Rl9RTBv4JxMVxPh05lmnXgkhkQBnZDn3SVFvDMNgCvvWcpZCtGbgEOFu7JWBaA0KriJriEd61t5J-5NAi6QBAlbUqg-lWbch-JLyyLp5FSsXYiYceRDwFM_bech9y3zx_bV6KHhTxQctyFCy5pIk02VrHIgVXB_RGiX-KC_f9O9l9Wi2vU56_9GcjyafXQ-khANCR_]--></g></svg>