<svg xmlns="http://www.w3.org/2000/svg" xmlns:xlink="http://www.w3.org/1999/xlink" contentStyleType="text/css" data-diagram-type="SEQUENCE" height="253.125px" preserveAspectRatio="none" style="width:510px;height:253px;" version="1.1" viewBox="0 0 510 253" width="510.4167px" zoomAndPan="magnify"><title>Cached DNS Resolution</title><defs><linearGradient id="gq6bmx5rri9z10" x1="50%" x2="50%" y1="0%" y2="100%"><stop offset="0%" stop-color="#FFFFFF"/><stop offset="100%" stop-color="#EEEEEE"/></linearGradient><linearGradient id="gq6bmx5rri9z11" x1="50%" x2="50%" y1="0%" y2="100%"><stop offset="0%" stop-color="#F18E3E"/><stop offset="100%" stop-color="#EC7211"/></linearGradient></defs><g><rect fill="url(#gq6bmx5rri9z10)" height="45.0846" rx="4.1667" ry="4.1667" style="stroke:#EEEEEE;stroke-width:1.0417;" width="295.7458" x="108.9681" y="10.4167"/><text fill="#EC7211" font-family="Verdana" font-size="20.8333" font-weight="bold" lengthAdjust="spacing" textLength="274.9125" x="119.3848" y="40.1713">Cached DNS Resolution</text><g><title>Browser</title><rect fill="#000000" fill-opacity="0.00000" height="106.1849" width="8.3333" x="80.6722" y="102.3438"/><line style="stroke:#ABB6C2;stroke-width:0.5208;stroke-dasharray:5.0,5.0;" x1="84.375" x2="84.375" y1="102.3438" y2="208.5286"/></g><g><title>DNS</title><rect fill="#000000" fill-opacity="0.00000" height="106.1849" width="8.3333" x="289.7339" y="102.3438"/><line style="stroke:#ABB6C2;stroke-width:0.5208;stroke-dasharray:5.0,5.0;" x1="292.9454" x2="292.9454" y1="102.3438" y2="208.5286"/></g><g class="participant participant-head" data-participant="Browser"><rect fill="url(#gq6bmx5rri9z11)" height="39.5508" rx="4.1667" ry="4.1667" style="stroke:#EC7211;stroke-width:0.5208;" width="75.9277" x="46.875" y="61.7513"/><text fill="#FFFFFF" font-family="Verdana" font-size="12.5" lengthAdjust="spacing" textLength="50.9277" x="59.375" y="85.8541">Browser</text></g><g class="participant participant-tail" data-participant="Browser"><rect fill="url(#gq6bmx5rri9z11)" height="39.5508" rx="4.1667" ry="4.1667" style="stroke:#EC7211;stroke-width:0.5208;" width="75.9277" x="46.875" y="207.487"/><text fill="#FFFFFF" font-family="Verdana" font-size="12.5" lengthAdjust="spacing" textLength="50.9277" x="59.375" y="231.5898">Browser</text></g><g class="participant participant-head" data-participant="DNS"><rect fill="url(#gq6bmx5rri9z11)" height="39.5508" rx="4.1667" ry="4.1667" style="stroke:#EC7211;stroke-width:0.5208;" width="51.9104" x="267.9454" y="61.7513"/><text fill="#FFFFFF" font-family="Verdana" font-size="12.5" lengthAdjust="spacing" textLength="26.9104" x="280.4454" y="85.8541">DNS</text></g><g class="participant participant-tail" data-participant="DNS"><rect fill="url(#gq6bmx5rri9z11)" height="39.5508" rx="4.1667" ry="4.1667" style="stroke:#EC7211;stroke-width:0.5208;" width="51.9104" x="267.9454" y="207.487"/><text fill="#FFFFFF" font-family="Verdana" font-size="12.5" lengthAdjust="spacing" textLength="26.9104" x="280.4454" y="231.5898">DNS</text></g><g class="message" data-participant-1="Browser" data-participant-2="DNS"><polygon fill="#EC7211" points="281.4006,139.8112,291.8172,143.9779,281.4006,148.1445,285.5672,143.9779" style="stroke:#EC7211;stroke-width:1.0417;"/><line style="stroke:#EC7211;stroke-width:3.125;" x1="84.8389" x2="287.6506" y1="143.9779" y2="143.9779"/><text fill="#4E5D6C" font-family="Verdana" font-size="12.5" lengthAdjust="spacing" textLength="137.7625" x="97.3389" y="133.7382">Resolve example.com</text></g><g class="message" data-participant-1="DNS" data-participant-2="Browser"><polygon fill="#EC7211" points="96.2972,182.487,85.8805,186.6536,96.2972,190.8203,92.1305,186.6536" style="stroke:#EC7211;stroke-width:1.0417;"/><line style="stroke:#EC7211;stroke-width:3.125;stroke-dasharray:2.0,2.0;" x1="90.0472" x2="292.8589" y1="186.6536" y2="186.6536"/><text fill="#4E5D6C" font-family="Verdana" font-size="12.5" lengthAdjust="spacing" textLength="173.645" x="107.7555" y="176.414">Cached IP (TTL not expired)</text></g><path d="M298.9583,161.6862 L298.9583,187.7279 A4.1667,4.1667 0 0 0 303.125,191.8945 L498.9583,191.8945 A4.1667,4.1667 0 0 0 503.125,187.7279 L503.125,167.9362 L492.7083,157.5195 L303.125,157.5195 A4.1667,4.1667 0 0 0 298.9583,161.6862" fill="#0073BB" style="stroke:#005C96;stroke-width:1.0417;"/><path d="M492.7083,157.5195 L492.7083,165.8529 A2.0833,2.0833 0 0 0 494.7917,167.9362 L503.125,167.9362 L492.7083,157.5195" fill="#0073BB" style="stroke:#005C96;stroke-width:1.0417;"/><text fill="#FFFFFF" font-family="Verdana" font-size="12.5" lengthAdjust="spacing" textLength="172.9065" x="310.4167" y="179.539">No network queries needed</text><!--SRC=[DOmn3i8m40Hxl-Bee30FI441D4WeGf0FMF4gjaXyoVb2U3wEW78qixlHW07abcnPNEfWD6eFEhasmDEvVj0TcVjP8oTZZi9BXf0zhAhwkXS8RpUCFVOj3sRTs1Byskh_TRdHjcckb5XBFqQ1tva288bTq8fgfWHTM9uqpP28N1WU_WC0]--></g></svg>