<svg xmlns="http://www.w3.org/2000/svg" xmlns:xlink="http://www.w3.org/1999/xlink" contentStyleType="text/css" data-diagram-type="SEQUENCE" height="797.9167px" preserveAspectRatio="none" style="width:1546px;height:797px;" version="1.1" viewBox="0 0 1546 797" width="1546.875px" zoomAndPan="magnify"><defs><linearGradient id="g17xn0ccse1jyf0" x1="50%" x2="50%" y1="0%" y2="100%"><stop offset="0%" stop-color="#F18E3E"/><stop offset="100%" stop-color="#EC7211"/></linearGradient></defs><g><g><title>User</title><rect fill="#000000" fill-opacity="0.00000" height="614.0951" width="8.3333" x="23.6206" y="92.6758"/><line style="stroke:#ABB6C2;stroke-width:0.5208;stroke-dasharray:5.0,5.0;" x1="27.0833" x2="27.0833" y1="92.6758" y2="706.7708"/></g><g><title>Browser</title><rect fill="#000000" fill-opacity="0.00000" height="614.0951" width="8.3333" x="264.915" y="92.6758"/><line style="stroke:#ABB6C2;stroke-width:0.5208;stroke-dasharray:5.0,5.0;" x1="268.6178" x2="268.6178" y1="92.6758" y2="706.7708"/></g><g><title>OS Resolver</title><rect fill="#000000" fill-opacity="0.00000" height="614.0951" width="8.3333" x="514.2537" y="92.6758"/><line style="stroke:#ABB6C2;stroke-width:0.5208;stroke-dasharray:5.0,5.0;" x1="517.9291" x2="517.9291" y1="92.6758" y2="706.7708"/></g><g><title>DNS Resolver</title><rect fill="#000000" fill-opacity="0.00000" height="614.0951" width="8.3333" x="713.5549" y="92.6758"/><line style="stroke:#ABB6C2;stroke-width:0.5208;stroke-dasharray:5.0,5.0;" x1="716.8284" x2="716.8284" y1="92.6758" y2="706.7708"/></g><g><title>Authoritative DNS</title><rect fill="#000000" fill-opacity="0.00000" height="614.0951" width="8.3333" x="931.0964" y="92.6758"/><line style="stroke:#ABB6C2;stroke-width:0.5208;stroke-dasharray:5.0,5.0;" x1="934.2397" x2="934.2397" y1="92.6758" y2="706.7708"/></g><g><title>Server IP</title><rect fill="#000000" fill-opacity="0.00000" height="614.0951" width="8.3333" x="1134.1726" y="92.6758"/><line style="stroke:#ABB6C2;stroke-width:0.5208;stroke-dasharray:5.0,5.0;" x1="1137.3281" x2="1137.3281" y1="92.6758" y2="706.7708"/></g><g><title>TLS</title><rect fill="#000000" fill-opacity="0.00000" height="614.0951" width="8.3333" x="1292.2841" y="92.6758"/><line style="stroke:#ABB6C2;stroke-width:0.5208;stroke-dasharray:5.0,5.0;" x1="1295.6004" x2="1295.6004" y1="92.6758" y2="706.7708"/></g><g><title>Web App (HTTP)</title><rect fill="#000000" fill-opacity="0.00000" height="614.0951" width="8.3333" x="1473.4578" y="92.6758"/><line style="stroke:#ABB6C2;stroke-width:0.5208;stroke-dasharray:5.0,5.0;" x1="1477.5096" x2="1477.5096" y1="92.6758" y2="706.7708"/></g><g class="participant participant-head" data-participant="u"><text fill="#4E5D6C" font-family="Verdana" font-size="12.5" lengthAdjust="spacing" textLength="28.4912" x="10.4167" y="84.5194">User</text><ellipse cx="27.7873" cy="14.0625" fill="url(#g17xn0ccse1jyf0)" rx="8.3333" ry="8.3333" style="stroke:#EC7211;stroke-width:0.5208;"/><path d="M27.7873,22.3958 L27.7873,50.5208 M14.2456,30.7292 L41.3289,30.7292 M27.7873,50.5208 L14.2456,66.1458 M27.7873,50.5208 L41.3289,66.1458" fill="none" style="stroke:#EC7211;stroke-width:0.5208;"/></g><g class="participant participant-tail" data-participant="u"><text fill="#4E5D6C" font-family="Verdana" font-size="12.5" lengthAdjust="spacing" textLength="28.4912" x="10.4167" y="722.5403">User</text><ellipse cx="27.7873" cy="739.5508" fill="url(#g17xn0ccse1jyf0)" rx="8.3333" ry="8.3333" style="stroke:#EC7211;stroke-width:0.5208;"/><path d="M27.7873,747.8841 L27.7873,776.0091 M14.2456,756.2174 L41.3289,756.2174 M27.7873,776.0091 L14.2456,791.6341 M27.7873,776.0091 L41.3289,791.6341" fill="none" style="stroke:#EC7211;stroke-width:0.5208;"/></g><g class="participant participant-head" data-participant="b"><rect fill="url(#g17xn0ccse1jyf0)" height="39.5508" rx="4.1667" ry="4.1667" style="stroke:#EC7211;stroke-width:0.5208;" width="75.9277" x="231.1178" y="52.0833"/><text fill="#FFFFFF" font-family="Verdana" font-size="12.5" lengthAdjust="spacing" textLength="50.9277" x="243.6178" y="76.1861">Browser</text></g><g class="participant participant-tail" data-participant="b"><rect fill="url(#g17xn0ccse1jyf0)" height="39.5508" rx="4.1667" ry="4.1667" style="stroke:#EC7211;stroke-width:0.5208;" width="75.9277" x="231.1178" y="705.7292"/><text fill="#FFFFFF" font-family="Verdana" font-size="12.5" lengthAdjust="spacing" textLength="50.9277" x="243.6178" y="729.8319">Browser</text></g><g class="participant participant-head" data-participant="os"><rect fill="url(#g17xn0ccse1jyf0)" height="39.5508" rx="4.1667" ry="4.1667" style="stroke:#EC7211;stroke-width:0.5208;" width="100.9827" x="467.9291" y="52.0833"/><text fill="#FFFFFF" font-family="Verdana" font-size="12.5" lengthAdjust="spacing" textLength="75.9827" x="480.4291" y="76.1861">OS Resolver</text></g><g class="participant participant-tail" data-participant="os"><rect fill="url(#g17xn0ccse1jyf0)" height="39.5508" rx="4.1667" ry="4.1667" style="stroke:#EC7211;stroke-width:0.5208;" width="100.9827" x="467.9291" y="705.7292"/><text fill="#FFFFFF" font-family="Verdana" font-size="12.5" lengthAdjust="spacing" textLength="75.9827" x="480.4291" y="729.8319">OS Resolver</text></g><g class="participant participant-head" data-participant="rdns"><rect fill="url(#g17xn0ccse1jyf0)" height="39.5508" rx="4.1667" ry="4.1667" style="stroke:#EC7211;stroke-width:0.5208;" width="110.1196" x="662.6617" y="52.0833"/><text fill="#FFFFFF" font-family="Verdana" font-size="12.5" lengthAdjust="spacing" textLength="85.1196" x="675.1617" y="76.1861">DNS Resolver</text></g><g class="participant participant-tail" data-participant="rdns"><rect fill="url(#g17xn0ccse1jyf0)" height="39.5508" rx="4.1667" ry="4.1667" style="stroke:#EC7211;stroke-width:0.5208;" width="110.1196" x="662.6617" y="705.7292"/><text fill="#FFFFFF" font-family="Verdana" font-size="12.5" lengthAdjust="spacing" textLength="85.1196" x="675.1617" y="729.8319">DNS Resolver</text></g><g class="participant participant-head" data-participant="auth"><rect fill="url(#g17xn0ccse1jyf0)" height="39.5508" rx="4.1667" ry="4.1667" style="stroke:#EC7211;stroke-width:0.5208;" width="137.4634" x="866.5314" y="52.0833"/><text fill="#FFFFFF" font-family="Verdana" font-size="12.5" lengthAdjust="spacing" textLength="112.4634" x="879.0314" y="76.1861">Authoritative DNS</text></g><g class="participant participant-tail" data-participant="auth"><rect fill="url(#g17xn0ccse1jyf0)" height="39.5508" rx="4.1667" ry="4.1667" style="stroke:#EC7211;stroke-width:0.5208;" width="137.4634" x="866.5314" y="705.7292"/><text fill="#FFFFFF" font-family="Verdana" font-size="12.5" lengthAdjust="spacing" textLength="112.4634" x="879.0314" y="729.8319">Authoritative DNS</text></g><g class="participant participant-head" data-participant="srv"><rect fill="url(#g17xn0ccse1jyf0)" height="39.5508" rx="4.1667" ry="4.1667" style="stroke:#EC7211;stroke-width:0.5208;" width="81.189" x="1097.7448" y="52.0833"/><text fill="#FFFFFF" font-family="Verdana" font-size="12.5" lengthAdjust="spacing" textLength="56.189" x="1110.2448" y="76.1861">Server IP</text></g><g class="participant participant-tail" data-participant="srv"><rect fill="url(#g17xn0ccse1jyf0)" height="39.5508" rx="4.1667" ry="4.1667" style="stroke:#EC7211;stroke-width:0.5208;" width="81.189" x="1097.7448" y="705.7292"/><text fill="#FFFFFF" font-family="Verdana" font-size="12.5" lengthAdjust="spacing" textLength="56.189" x="1110.2448" y="729.8319">Server IP</text></g><g class="participant participant-head" data-participant="tls"><rect fill="url(#g17xn0ccse1jyf0)" height="39.5508" rx="4.1667" ry="4.1667" style="stroke:#EC7211;stroke-width:0.5208;" width="47.5342" x="1272.6837" y="52.0833"/><text fill="#FFFFFF" font-family="Verdana" font-size="12.5" lengthAdjust="spacing" textLength="22.5342" x="1285.1837" y="76.1861">TLS</text></g><g class="participant participant-tail" data-participant="tls"><rect fill="url(#g17xn0ccse1jyf0)" height="39.5508" rx="4.1667" ry="4.1667" style="stroke:#EC7211;stroke-width:0.5208;" width="47.5342" x="1272.6837" y="705.7292"/><text fill="#FFFFFF" font-family="Verdana" font-size="12.5" lengthAdjust="spacing" textLength="22.5342" x="1285.1837" y="729.8319">TLS</text></g><g class="participant participant-head" data-participant="app"><rect fill="url(#g17xn0ccse1jyf0)" height="39.5508" rx="4.1667" ry="4.1667" style="stroke:#EC7211;stroke-width:0.5208;" width="127.3132" x="1413.9679" y="52.0833"/><text fill="#FFFFFF" font-family="Verdana" font-size="12.5" lengthAdjust="spacing" textLength="102.3132" x="1426.4679" y="76.1861">Web App (HTTP)</text></g><g class="participant participant-tail" data-participant="app"><rect fill="url(#g17xn0ccse1jyf0)" height="39.5508" rx="4.1667" ry="4.1667" style="stroke:#EC7211;stroke-width:0.5208;" width="127.3132" x="1413.9679" y="705.7292"/><text fill="#FFFFFF" font-family="Verdana" font-size="12.5" lengthAdjust="spacing" textLength="102.3132" x="1426.4679" y="729.8319">Web App (HTTP)</text></g><g class="message" data-participant-1="u" data-participant-2="b"><polygon fill="#EC7211" points="256.5816,130.1432,266.9983,134.3099,256.5816,138.4766,260.7483,134.3099" style="stroke:#EC7211;stroke-width:1.0417;"/><line style="stroke:#EC7211;stroke-width:3.125;" x1="27.7873" x2="262.8316" y1="134.3099" y2="134.3099"/><text fill="#4E5D6C" font-family="Verdana" font-size="12.5" lengthAdjust="spacing" textLength="205.8777" x="40.2873" y="124.0702">Enter https://www.example.com/</text></g><g class="message" data-participant-1="b" data-participant-2="os"><polygon fill="#EC7211" points="505.9204,169.694,516.3371,173.8607,505.9204,178.0273,510.0871,173.8607" style="stroke:#EC7211;stroke-width:1.0417;"/><line style="stroke:#EC7211;stroke-width:3.125;" x1="269.0816" x2="512.1704" y1="173.8607" y2="173.8607"/><text fill="#4E5D6C" font-family="Verdana" font-size="12.5" lengthAdjust="spacing" textLength="213.9221" x="281.5816" y="163.621">Resolve hostname (example.com)</text></g><g class="message" data-participant-1="os" data-participant-2="rdns"><polygon fill="#EC7211" points="705.2216,209.2448,715.6382,213.4115,705.2216,217.5781,709.3882,213.4115" style="stroke:#EC7211;stroke-width:1.0417;"/><line style="stroke:#EC7211;stroke-width:3.125;" x1="518.4204" x2="711.4716" y1="213.4115" y2="213.4115"/><text fill="#4E5D6C" font-family="Verdana" font-size="12.5" lengthAdjust="spacing" textLength="109.552" x="530.9204" y="203.1718">Query (recursive)</text></g><g class="message" data-participant-1="rdns" data-participant-2="auth"><polygon fill="#EC7211" points="922.7631,248.7956,933.1797,252.9622,922.7631,257.1289,926.9297,252.9622" style="stroke:#EC7211;stroke-width:1.0417;"/><line style="stroke:#EC7211;stroke-width:3.125;" x1="717.7216" x2="929.0131" y1="252.9622" y2="252.9622"/><text fill="#4E5D6C" font-family="Verdana" font-size="12.5" lengthAdjust="spacing" textLength="137.9761" x="730.2216" y="242.7226">Ask authoritative (NS)</text></g><g class="message" data-participant-1="auth" data-participant-2="rdns"><polygon fill="#EC7211" points="729.1799,288.3464,718.7632,292.513,729.1799,296.6797,725.0132,292.513" style="stroke:#EC7211;stroke-width:1.0417;"/><line style="stroke:#EC7211;stroke-width:3.125;stroke-dasharray:2.0,2.0;" x1="722.9299" x2="934.2214" y1="292.513" y2="292.513"/><text fill="#4E5D6C" font-family="Verdana" font-size="12.5" lengthAdjust="spacing" textLength="122.8271" x="740.6382" y="282.2734">A/AAAA records (IP)</text></g><g class="message" data-participant-1="rdns" data-participant-2="os"><polygon fill="#EC7211" points="529.8787,327.8971,519.4621,332.0638,529.8787,336.2305,525.7121,332.0638" style="stroke:#EC7211;stroke-width:1.0417;"/><line style="stroke:#EC7211;stroke-width:3.125;stroke-dasharray:2.0,2.0;" x1="523.6287" x2="716.6799" y1="332.0638" y2="332.0638"/><text fill="#4E5D6C" font-family="Verdana" font-size="12.5" lengthAdjust="spacing" textLength="110.8154" x="541.3371" y="321.8241">Return IP address</text></g><g class="message" data-participant-1="os" data-participant-2="b"><polygon fill="#EC7211" points="280.54,367.4479,270.1233,371.6146,280.54,375.7813,276.3733,371.6146" style="stroke:#EC7211;stroke-width:1.0417;"/><line style="stroke:#EC7211;stroke-width:3.125;stroke-dasharray:2.0,2.0;" x1="274.29" x2="517.3787" y1="371.6146" y2="371.6146"/><text fill="#4E5D6C" font-family="Verdana" font-size="12.5" lengthAdjust="spacing" textLength="121.051" x="291.9983" y="361.3749">IP for example.com</text></g><g class="message" data-participant-1="b" data-participant-2="srv"><polygon fill="#EC7211" points="1125.8392,406.9987,1136.2559,411.1654,1125.8392,415.332,1130.0059,411.1654" style="stroke:#EC7211;stroke-width:1.0417;"/><line style="stroke:#EC7211;stroke-width:3.125;" x1="269.0816" x2="1132.0892" y1="411.1654" y2="411.1654"/><text fill="#4E5D6C" font-family="Verdana" font-size="12.5" lengthAdjust="spacing" textLength="342.4805" x="281.5816" y="400.9257">TCP 3-way handshake (SYN/SYN-ACK/ACK) on port 443</text></g><g class="message" data-participant-1="b" data-participant-2="tls"><polygon fill="#EC7211" points="1283.9508,446.5495,1294.3675,450.7161,1283.9508,454.8828,1288.1175,450.7161" style="stroke:#EC7211;stroke-width:1.0417;"/><line style="stroke:#EC7211;stroke-width:3.125;" x1="269.0816" x2="1290.2008" y1="450.7161" y2="450.7161"/><text fill="#4E5D6C" font-family="Verdana" font-size="12.5" lengthAdjust="spacing" textLength="104.1321" x="281.5816" y="440.4765">ClientHello (TLS)</text></g><g class="message" data-participant-1="tls" data-participant-2="b"><polygon fill="#EC7211" points="280.54,486.1003,270.1233,490.2669,280.54,494.4336,276.3733,490.2669" style="stroke:#EC7211;stroke-width:1.0417;"/><line style="stroke:#EC7211;stroke-width:3.125;stroke-dasharray:2.0,2.0;" x1="274.29" x2="1295.4091" y1="490.2669" y2="490.2669"/><text fill="#4E5D6C" font-family="Verdana" font-size="12.5" lengthAdjust="spacing" textLength="156.0242" x="291.9983" y="480.0273">ServerHello + Certificate</text></g><g class="message" data-participant-1="b" data-participant-2="tls"><polygon fill="#EC7211" points="1283.9508,525.651,1294.3675,529.8177,1283.9508,533.9844,1288.1175,529.8177" style="stroke:#EC7211;stroke-width:1.0417;"/><line style="stroke:#EC7211;stroke-width:3.125;" x1="269.0816" x2="1290.2008" y1="529.8177" y2="529.8177"/><text fill="#4E5D6C" font-family="Verdana" font-size="12.5" lengthAdjust="spacing" textLength="148.4131" x="281.5816" y="519.578">Key exchange, Finished</text></g><g class="message" data-participant-1="b" data-participant-2="app"><polygon fill="#EC7211" points="1465.1245,565.2018,1475.5412,569.3685,1465.1245,573.5352,1469.2912,569.3685" style="stroke:#EC7211;stroke-width:1.0417;"/><line style="stroke:#EC7211;stroke-width:3.125;" x1="269.0816" x2="1471.3745" y1="569.3685" y2="569.3685"/><text fill="#4E5D6C" font-family="Verdana" font-size="12.5" lengthAdjust="spacing" textLength="212.6526" x="281.5816" y="559.1288">HTTPS GET / (HTTP/1.1 or HTTP/2)</text></g><g class="message" data-participant-1="app" data-participant-2="b"><polygon fill="#EC7211" points="280.54,604.7526,270.1233,608.9193,280.54,613.0859,276.3733,608.9193" style="stroke:#EC7211;stroke-width:1.0417;"/><line style="stroke:#EC7211;stroke-width:3.125;stroke-dasharray:2.0,2.0;" x1="274.29" x2="1476.5828" y1="608.9193" y2="608.9193"/><text fill="#4E5D6C" font-family="Verdana" font-size="12.5" lengthAdjust="spacing" textLength="156.842" x="291.9983" y="598.6796">Response (HTML, assets)</text></g><g class="message" data-participant-1="b" data-participant-2="app"><polygon fill="#EC7211" points="1465.1245,644.3034,1475.5412,648.4701,1465.1245,652.6367,1469.2912,648.4701" style="stroke:#EC7211;stroke-width:1.0417;"/><line style="stroke:#EC7211;stroke-width:3.125;" x1="269.0816" x2="1471.3745" y1="648.4701" y2="648.4701"/><text fill="#4E5D6C" font-family="Verdana" font-size="12.5" lengthAdjust="spacing" textLength="182.1533" x="281.5816" y="638.2304">Fetch assets (CSS/JS/images)</text></g><g class="message" data-participant-1="app" data-participant-2="b"><polygon fill="#EC7211" points="280.54,683.8542,270.1233,688.0208,280.54,692.1875,276.3733,688.0208" style="stroke:#EC7211;stroke-width:1.0417;"/><line style="stroke:#EC7211;stroke-width:3.125;stroke-dasharray:2.0,2.0;" x1="274.29" x2="1476.5828" y1="688.0208" y2="688.0208"/><text fill="#4E5D6C" font-family="Verdana" font-size="12.5" lengthAdjust="spacing" textLength="67.1082" x="291.9983" y="677.7812">Responses</text></g><!--SRC=[RLB1Rfmm4BtxAwOvWHeMfSc9GoLAaoPDkjqMggf7Bqo2jM1R7hDq_pxZPJTbLqKoikOzFy-RvtU-nHv1ZfGO9_KB2jeeRQMJFV3VgrfPgNtfTns2mzepfqCXPEsDWr-43YJ186PSkFZapCZ8HO3Mfz3t4duYcMvxW0sTuf-NPmJNw3DAFlZMEEMbLri4Fh3dIQwUyafqB08FgprERdiALq_JGT-TwV_6DUJMGdHVLQju4hTMY06IZx3Eu5PxbcszjvIbwJYE2_mhUzlXeZPzAjQ1PYWxse3MaDUIXnpDUB4m58Z1NWO_1dGxY7Y-WoDs5OjG3tYmbK5Ec_tkd-reMSOYb21vKydJdB-Gad4DGVImEkgyTUG7ftaY89l68T6-YSaL5vyvqLcBOhB2WykWAbPmdOno1wtK3RLomosKVvOfhoGl7bDUCHWDrZWFDpVNqrcURGP5fr3xU-mw0n5FFHPSFbuxXJI1xw50pk5PrTBZJE0HTznNtORdUGbtIYjgiJcqnz5a498guSjj1UaKMtgrk0Asizz_u4bndeSREHPhD64WVdkwv7W9FSLpkJlqTNi082hAClrQfggNBqZ_bIBn2W00]--></g></svg>