<svg xmlns="http://www.w3.org/2000/svg" xmlns:xlink="http://www.w3.org/1999/xlink" contentStyleType="text/css" data-diagram-type="SEQUENCE" height="489.5833px" preserveAspectRatio="none" style="width:730px;height:489px;" version="1.1" viewBox="0 0 730 489" width="730.2083px" zoomAndPan="magnify"><title>First-time DNS Resolution</title><defs><linearGradient id="gn0fzyqawhpi20" x1="50%" x2="50%" y1="0%" y2="100%"><stop offset="0%" stop-color="#FFFFFF"/><stop offset="100%" stop-color="#EEEEEE"/></linearGradient><linearGradient id="gn0fzyqawhpi21" x1="50%" x2="50%" y1="0%" y2="100%"><stop offset="0%" stop-color="#F18E3E"/><stop offset="100%" stop-color="#EC7211"/></linearGradient></defs><g><rect fill="url(#gn0fzyqawhpi20)" height="45.0846" rx="4.1667" ry="4.1667" style="stroke:#EEEEEE;stroke-width:1.0417;" width="325.765" x="222.2178" y="10.4167"/><text fill="#EC7211" font-family="Verdana" font-size="20.8333" font-weight="bold" lengthAdjust="spacing" textLength="304.9316" x="232.6345" y="40.1713">First-time DNS Resolution</text><g><title>Browser</title><rect fill="#000000" fill-opacity="0.00000" height="343.4896" width="8.3333" x="80.6722" y="102.3438"/><line style="stroke:#ABB6C2;stroke-width:0.5208;stroke-dasharray:5.0,5.0;" x1="84.375" x2="84.375" y1="102.3438" y2="445.8333"/></g><g><title>DNS</title><rect fill="#000000" fill-opacity="0.00000" height="343.4896" width="8.3333" x="253.8513" y="102.3438"/><line style="stroke:#ABB6C2;stroke-width:0.5208;stroke-dasharray:5.0,5.0;" x1="257.0628" x2="257.0628" y1="102.3438" y2="445.8333"/></g><g><title>Root</title><rect fill="#000000" fill-opacity="0.00000" height="343.4896" width="8.3333" x="402.238" y="102.3438"/><line style="stroke:#ABB6C2;stroke-width:0.5208;stroke-dasharray:5.0,5.0;" x1="405.5054" x2="405.5054" y1="102.3438" y2="445.8333"/></g><g><title>TLD</title><rect fill="#000000" fill-opacity="0.00000" height="343.4896" width="8.3333" x="547.5413" y="102.3438"/><line style="stroke:#ABB6C2;stroke-width:0.5208;stroke-dasharray:5.0,5.0;" x1="551.0539" x2="551.0539" y1="102.3438" y2="445.8333"/></g><g><title>Auth</title><rect fill="#000000" fill-opacity="0.00000" height="343.4896" width="8.3333" x="693.0522" y="102.3438"/><line style="stroke:#ABB6C2;stroke-width:0.5208;stroke-dasharray:5.0,5.0;" x1="697.1537" x2="697.1537" y1="102.3438" y2="445.8333"/></g><g class="participant participant-head" data-participant="Browser"><rect fill="url(#gn0fzyqawhpi21)" height="39.5508" rx="4.1667" ry="4.1667" style="stroke:#EC7211;stroke-width:0.5208;" width="75.9277" x="46.875" y="61.7513"/><text fill="#FFFFFF" font-family="Verdana" font-size="12.5" lengthAdjust="spacing" textLength="50.9277" x="59.375" y="85.8541">Browser</text></g><g class="participant participant-tail" data-participant="Browser"><rect fill="url(#gn0fzyqawhpi21)" height="39.5508" rx="4.1667" ry="4.1667" style="stroke:#EC7211;stroke-width:0.5208;" width="75.9277" x="46.875" y="444.7917"/><text fill="#FFFFFF" font-family="Verdana" font-size="12.5" lengthAdjust="spacing" textLength="50.9277" x="59.375" y="468.8944">Browser</text></g><g class="participant participant-head" data-participant="DNS"><rect fill="url(#gn0fzyqawhpi21)" height="39.5508" rx="4.1667" ry="4.1667" style="stroke:#EC7211;stroke-width:0.5208;" width="51.9104" x="232.0628" y="61.7513"/><text fill="#FFFFFF" font-family="Verdana" font-size="12.5" lengthAdjust="spacing" textLength="26.9104" x="244.5628" y="85.8541">DNS</text></g><g class="participant participant-tail" data-participant="DNS"><rect fill="url(#gn0fzyqawhpi21)" height="39.5508" rx="4.1667" ry="4.1667" style="stroke:#EC7211;stroke-width:0.5208;" width="51.9104" x="232.0628" y="444.7917"/><text fill="#FFFFFF" font-family="Verdana" font-size="12.5" lengthAdjust="spacing" textLength="26.9104" x="244.5628" y="468.8944">DNS</text></g><g class="participant participant-head" data-participant="Root"><rect fill="url(#gn0fzyqawhpi21)" height="39.5508" rx="4.1667" ry="4.1667" style="stroke:#EC7211;stroke-width:0.5208;" width="53.8818" x="379.4637" y="61.7513"/><text fill="#FFFFFF" font-family="Verdana" font-size="12.5" lengthAdjust="spacing" textLength="28.8818" x="391.9637" y="85.8541">Root</text></g><g class="participant participant-tail" data-participant="Root"><rect fill="url(#gn0fzyqawhpi21)" height="39.5508" rx="4.1667" ry="4.1667" style="stroke:#EC7211;stroke-width:0.5208;" width="53.8818" x="379.4637" y="444.7917"/><text fill="#FFFFFF" font-family="Verdana" font-size="12.5" lengthAdjust="spacing" textLength="28.8818" x="391.9637" y="468.8944">Root</text></g><g class="participant participant-head" data-participant="TLD"><rect fill="url(#gn0fzyqawhpi21)" height="39.5508" rx="4.1667" ry="4.1667" style="stroke:#EC7211;stroke-width:0.5208;" width="49.2249" x="527.0955" y="61.7513"/><text fill="#FFFFFF" font-family="Verdana" font-size="12.5" lengthAdjust="spacing" textLength="24.2249" x="539.5955" y="85.8541">TLD</text></g><g class="participant participant-tail" data-participant="TLD"><rect fill="url(#gn0fzyqawhpi21)" height="39.5508" rx="4.1667" ry="4.1667" style="stroke:#EC7211;stroke-width:0.5208;" width="49.2249" x="527.0955" y="444.7917"/><text fill="#FFFFFF" font-family="Verdana" font-size="12.5" lengthAdjust="spacing" textLength="24.2249" x="539.5955" y="468.8944">TLD</text></g><g class="participant participant-head" data-participant="Auth"><rect fill="url(#gn0fzyqawhpi21)" height="39.5508" rx="4.1667" ry="4.1667" style="stroke:#EC7211;stroke-width:0.5208;" width="54.2969" x="670.0704" y="61.7513"/><text fill="#FFFFFF" font-family="Verdana" font-size="12.5" lengthAdjust="spacing" textLength="29.2969" x="682.5704" y="85.8541">Auth</text></g><g class="participant participant-tail" data-participant="Auth"><rect fill="url(#gn0fzyqawhpi21)" height="39.5508" rx="4.1667" ry="4.1667" style="stroke:#EC7211;stroke-width:0.5208;" width="54.2969" x="670.0704" y="444.7917"/><text fill="#FFFFFF" font-family="Verdana" font-size="12.5" lengthAdjust="spacing" textLength="29.2969" x="682.5704" y="468.8944">Auth</text></g><g class="message" data-participant-1="Browser" data-participant-2="DNS"><polygon fill="#EC7211" points="245.518,139.8112,255.9347,143.9779,245.518,148.1445,249.6847,143.9779" style="stroke:#EC7211;stroke-width:1.0417;"/><line style="stroke:#EC7211;stroke-width:3.125;" x1="84.8389" x2="251.768" y1="143.9779" y2="143.9779"/><text fill="#4E5D6C" font-family="Verdana" font-size="12.5" lengthAdjust="spacing" textLength="137.7625" x="97.3389" y="133.7382">Resolve example.com</text></g><g class="message" data-participant-1="DNS" data-participant-2="Root"><polygon fill="#EC7211" points="393.9046,179.362,404.3213,183.5286,393.9046,187.6953,398.0713,183.5286" style="stroke:#EC7211;stroke-width:1.0417;"/><line style="stroke:#EC7211;stroke-width:3.125;" x1="258.018" x2="400.1546" y1="183.5286" y2="183.5286"/><text fill="#4E5D6C" font-family="Verdana" font-size="12.5" lengthAdjust="spacing" textLength="72.6318" x="270.518" y="173.289">Query .com</text></g><g class="message" data-participant-1="Root" data-participant-2="DNS"><polygon fill="#EC7211" points="269.4763,218.9128,259.0597,223.0794,269.4763,227.2461,265.3097,223.0794" style="stroke:#EC7211;stroke-width:1.0417;"/><line style="stroke:#EC7211;stroke-width:3.125;stroke-dasharray:2.0,2.0;" x1="263.2263" x2="405.363" y1="223.0794" y2="223.0794"/><text fill="#4E5D6C" font-family="Verdana" font-size="12.5" lengthAdjust="spacing" textLength="112.97" x="280.9347" y="212.8398">Refer to .com TLD</text></g><g class="message" data-participant-1="DNS" data-participant-2="TLD"><polygon fill="#EC7211" points="539.208,258.4635,549.6246,262.6302,539.208,266.7969,543.3746,262.6302" style="stroke:#EC7211;stroke-width:1.0417;"/><line style="stroke:#EC7211;stroke-width:3.125;" x1="258.018" x2="545.458" y1="262.6302" y2="262.6302"/><text fill="#4E5D6C" font-family="Verdana" font-size="12.5" lengthAdjust="spacing" textLength="126.6541" x="270.518" y="252.3905">Query example.com</text></g><g class="message" data-participant-1="TLD" data-participant-2="DNS"><polygon fill="#EC7211" points="269.4763,298.0143,259.0597,302.181,269.4763,306.3477,265.3097,302.181" style="stroke:#EC7211;stroke-width:1.0417;"/><line style="stroke:#EC7211;stroke-width:3.125;stroke-dasharray:2.0,2.0;" x1="263.2263" x2="550.6663" y1="302.181" y2="302.181"/><text fill="#4E5D6C" font-family="Verdana" font-size="12.5" lengthAdjust="spacing" textLength="156.0486" x="280.9347" y="291.9413">Refer to authoritative NS</text></g><g class="message" data-participant-1="DNS" data-participant-2="Auth"><polygon fill="#EC7211" points="684.7188,337.5651,695.1355,341.7318,684.7188,345.8984,688.8855,341.7318" style="stroke:#EC7211;stroke-width:1.0417;"/><line style="stroke:#EC7211;stroke-width:3.125;" x1="258.018" x2="690.9688" y1="341.7318" y2="341.7318"/><text fill="#4E5D6C" font-family="Verdana" font-size="12.5" lengthAdjust="spacing" textLength="94.9097" x="270.518" y="331.4921">Query A record</text></g><g class="message" data-participant-1="Auth" data-participant-2="DNS"><polygon fill="#EC7211" points="269.4763,377.1159,259.0597,381.2826,269.4763,385.4492,265.3097,381.2826" style="stroke:#EC7211;stroke-width:1.0417;"/><line style="stroke:#EC7211;stroke-width:3.125;stroke-dasharray:2.0,2.0;" x1="263.2263" x2="696.1772" y1="381.2826" y2="381.2826"/><text fill="#4E5D6C" font-family="Verdana" font-size="12.5" lengthAdjust="spacing" textLength="98.114" x="280.9347" y="371.0429">Return IP + TTL</text></g><g class="message" data-participant-1="DNS" data-participant-2="Browser"><polygon fill="#EC7211" points="96.2972,419.7917,85.8805,423.9583,96.2972,428.125,92.1305,423.9583" style="stroke:#EC7211;stroke-width:1.0417;"/><line style="stroke:#EC7211;stroke-width:3.125;stroke-dasharray:2.0,2.0;" x1="90.0472" x2="256.9763" y1="423.9583" y2="423.9583"/><text fill="#4E5D6C" font-family="Verdana" font-size="12.5" lengthAdjust="spacing" textLength="64.5813" x="107.7555" y="413.7187">IP address</text></g><path d="M262.5,398.9909 L262.5,425.0326 A4.1667,4.1667 0 0 0 266.6667,429.1992 L520.8333,429.1992 A4.1667,4.1667 0 0 0 525,425.0326 L525,405.2409 L514.5833,394.8242 L266.6667,394.8242 A4.1667,4.1667 0 0 0 262.5,398.9909" fill="#0073BB" style="stroke:#005C96;stroke-width:1.0417;"/><path d="M514.5833,394.8242 L514.5833,403.1576 A2.0833,2.0833 0 0 0 516.6667,405.2409 L525,405.2409 L514.5833,394.8242" fill="#0073BB" style="stroke:#005C96;stroke-width:1.0417;"/><text fill="#FFFFFF" font-family="Verdana" font-size="12.5" lengthAdjust="spacing" textLength="231.2317" x="273.9583" y="416.8437">Caching occurs at DNS resolver level</text><!--SRC=[RP1DYiCm34RtFeLcFQG7oABG7mg54gPjBc0SDJ4urY3BxSpjHquQsiNinFTu7v8-PC0HmJvIHMnZZqQy18I3voILU6NxvWeNJ1IoU8h6R9aU2HcgTK7rpEu8-6F7xu0hHwCfZl8BaTHmpiY_CEKbWEfbthH7Q6BGdlQBf-EYlRTg_8ziimp4NgnutQAvBYKRpPUM3J0wuiwKyBr3CaSuVi4djErfDXK-JwmBiLt7c9A990Zi-q4lsbat-DW3EPSvWPNfIJm_WY7W7SCV]--></g></svg>