<svg xmlns="http://www.w3.org/2000/svg" xmlns:xlink="http://www.w3.org/1999/xlink" contentStyleType="text/css" data-diagram-type="DESCRIPTION" height="740.625px" preserveAspectRatio="none" style="width:1141px;height:740px;" version="1.1" viewBox="0 0 1141 740" width="1141.6667px" zoomAndPan="magnify"><defs><linearGradient id="gkm0e7sojl9q60" x1="50%" x2="50%" y1="0%" y2="100%"><stop offset="0%" stop-color="#F18E3E"/><stop offset="100%" stop-color="#EC7211"/></linearGradient></defs><g><!--cluster DNS Resolution--><g class="cluster" data-entity="DNS Resolution" data-source-line="3" data-uid="ent0002" id="cluster_DNS Resolution"><path d="M10.4167,6.25 L128.0029,6.25 A6.25,6.25 0 0 1 132.1696,10.4167 L139.4613,37.4674 L1130.2083,37.4674 A4.1667,4.1667 0 0 1 1134.375,41.6341 L1134.375,730.0417 A4.1667,4.1667 0 0 1 1130.2083,734.2083 L10.4167,734.2083 A4.1667,4.1667 0 0 1 6.25,730.0417 L6.25,10.4167 A4.1667,4.1667 0 0 1 10.4167,6.25" fill="none" style="stroke:#4E5D6C;stroke-width:2.0833;"/><line style="stroke:#4E5D6C;stroke-width:2.0833;" x1="6.25" x2="139.4613" y1="37.4674" y2="37.4674"/><text fill="#4E5D6C" font-family="Verdana" font-size="12.5" font-weight="bold" lengthAdjust="spacing" textLength="109.2529" x="15.625" y="25.1444">DNS Resolution</text></g><!--entity User--><g class="entity" data-entity="User" data-source-line="4" data-uid="ent0003" id="entity_User"><ellipse cx="161.4539" cy="59.375" fill="url(#gkm0e7sojl9q60)" rx="8.3333" ry="8.3333" style="stroke:#EC7211;stroke-width:1.0417;"/><path d="M161.4539,67.7083 L161.4539,95.8333 M147.9123,76.0417 L174.9956,76.0417 M161.4539,95.8333 L147.9123,111.4583 M161.4539,95.8333 L174.9956,111.4583" fill="none" style="stroke:#EC7211;stroke-width:1.0417;"/><text fill="#4E5D6C" font-family="Verdana" font-size="12.5" lengthAdjust="spacing" textLength="28.4912" x="147.2083" y="130.3528">User</text></g><!--entity B--><g class="entity" data-entity="B" data-source-line="5" data-uid="ent0004" id="entity_B"><rect fill="url(#gkm0e7sojl9q60)" height="56.2174" rx="4.1667" ry="4.1667" style="stroke:#EC7211;stroke-width:1.0417;" width="103.0111" x="109.9479" y="227.0417"/><rect fill="url(#gkm0e7sojl9q60)" height="10.4167" style="stroke:#EC7211;stroke-width:1.0417;" width="15.625" x="192.1257" y="232.25"/><rect fill="url(#gkm0e7sojl9q60)" height="2.0833" style="stroke:#EC7211;stroke-width:1.0417;" width="4.1667" x="190.0423" y="234.3333"/><rect fill="url(#gkm0e7sojl9q60)" height="2.0833" style="stroke:#EC7211;stroke-width:1.0417;" width="4.1667" x="190.0423" y="238.5"/><text fill="#FFFFFF" font-family="Verdana" font-size="12.5" lengthAdjust="spacing" textLength="50.9277" x="130.7813" y="264.6861">Browser</text></g><!--entity OR--><g class="entity" data-entity="OR" data-source-line="6" data-uid="ent0005" id="entity_OR"><rect fill="url(#gkm0e7sojl9q60)" height="56.2174" rx="4.1667" ry="4.1667" style="stroke:#EC7211;stroke-width:1.0417;" width="128.066" x="226.5938" y="371.8021"/><rect fill="url(#gkm0e7sojl9q60)" height="10.4167" style="stroke:#EC7211;stroke-width:1.0417;" width="15.625" x="333.8264" y="377.0104"/><rect fill="url(#gkm0e7sojl9q60)" height="2.0833" style="stroke:#EC7211;stroke-width:1.0417;" width="4.1667" x="331.7431" y="379.0938"/><rect fill="url(#gkm0e7sojl9q60)" height="2.0833" style="stroke:#EC7211;stroke-width:1.0417;" width="4.1667" x="331.7431" y="383.2604"/><text fill="#FFFFFF" font-family="Verdana" font-size="12.5" lengthAdjust="spacing" textLength="75.9827" x="247.4271" y="409.4465">OS Resolver</text></g><!--entity RR--><g class="entity" data-entity="RR" data-source-line="7" data-uid="ent0006" id="entity_RR"><rect fill="url(#gkm0e7sojl9q60)" height="56.2174" rx="4.1667" ry="4.1667" style="stroke:#EC7211;stroke-width:1.0417;" width="245.9859" x="267.6354" y="516.5625"/><rect fill="url(#gkm0e7sojl9q60)" height="10.4167" style="stroke:#EC7211;stroke-width:1.0417;" width="15.625" x="492.788" y="521.7708"/><rect fill="url(#gkm0e7sojl9q60)" height="2.0833" style="stroke:#EC7211;stroke-width:1.0417;" width="4.1667" x="490.7047" y="523.8542"/><rect fill="url(#gkm0e7sojl9q60)" height="2.0833" style="stroke:#EC7211;stroke-width:1.0417;" width="4.1667" x="490.7047" y="528.0208"/><text fill="#FFFFFF" font-family="Verdana" font-size="12.5" lengthAdjust="spacing" textLength="193.9026" x="288.4688" y="554.2069">Recursive Resolver (ISP/Public)</text></g><!--entity ROOT--><g class="entity" data-entity="ROOT" data-source-line="8" data-uid="ent0007" id="entity_ROOT"><rect fill="url(#gkm0e7sojl9q60)" height="56.2174" rx="4.1667" ry="4.1667" style="stroke:#EC7211;stroke-width:1.0417;" width="111.849" x="87.8229" y="661.3229"/><rect fill="url(#gkm0e7sojl9q60)" height="10.4167" style="stroke:#EC7211;stroke-width:1.0417;" width="15.625" x="178.8385" y="666.5313"/><rect fill="url(#gkm0e7sojl9q60)" height="2.0833" style="stroke:#EC7211;stroke-width:1.0417;" width="4.1667" x="176.7552" y="668.6146"/><rect fill="url(#gkm0e7sojl9q60)" height="2.0833" style="stroke:#EC7211;stroke-width:1.0417;" width="4.1667" x="176.7552" y="672.7813"/><text fill="#FFFFFF" font-family="Verdana" font-size="12.5" lengthAdjust="spacing" textLength="59.7656" x="108.6563" y="698.9674">Root DNS</text></g><!--entity TLD--><g class="entity" data-entity="TLD" data-source-line="9" data-uid="ent0008" id="entity_TLD"><rect fill="url(#gkm0e7sojl9q60)" height="56.2174" rx="4.1667" ry="4.1667" style="stroke:#EC7211;stroke-width:1.0417;" width="110.9517" x="416.3958" y="661.3229"/><rect fill="url(#gkm0e7sojl9q60)" height="10.4167" style="stroke:#EC7211;stroke-width:1.0417;" width="15.625" x="506.5142" y="666.5313"/><rect fill="url(#gkm0e7sojl9q60)" height="2.0833" style="stroke:#EC7211;stroke-width:1.0417;" width="4.1667" x="504.4309" y="668.6146"/><rect fill="url(#gkm0e7sojl9q60)" height="2.0833" style="stroke:#EC7211;stroke-width:1.0417;" width="4.1667" x="504.4309" y="672.7813"/><text fill="#FFFFFF" font-family="Verdana" font-size="12.5" lengthAdjust="spacing" textLength="58.8684" x="437.2292" y="698.9674">.com TLD</text></g><!--entity AUTH--><g class="entity" data-entity="AUTH" data-source-line="10" data-uid="ent0009" id="entity_AUTH"><rect fill="url(#gkm0e7sojl9q60)" height="56.2174" rx="4.1667" ry="4.1667" style="stroke:#EC7211;stroke-width:1.0417;" width="222.3287" x="752.375" y="661.3229"/><rect fill="url(#gkm0e7sojl9q60)" height="10.4167" style="stroke:#EC7211;stroke-width:1.0417;" width="15.625" x="953.8704" y="666.5313"/><rect fill="url(#gkm0e7sojl9q60)" height="2.0833" style="stroke:#EC7211;stroke-width:1.0417;" width="4.1667" x="951.787" y="668.6146"/><rect fill="url(#gkm0e7sojl9q60)" height="2.0833" style="stroke:#EC7211;stroke-width:1.0417;" width="4.1667" x="951.787" y="672.7813"/><text fill="#FFFFFF" font-family="Verdana" font-size="12.5" lengthAdjust="spacing" textLength="170.2454" x="773.2083" y="698.9674">example.com Authoritative</text></g><!--link User to B--><g class="link" data-entity-1="User" data-entity-2="B" data-source-line="12" data-uid="lnk10" id="link_User_B"><path d="M161.4583,138.6875 C161.4583,166.7917 161.4583,196.2813 161.4583,220.4896" fill="none" id="User-to-B" style="stroke:#EC7211;stroke-width:3.125;"/><polygon fill="#EC7211" points="161.4583,226.7396,165.625,217.3646,161.4583,221.5313,157.2917,217.3646,161.4583,226.7396" style="stroke:#EC7211;stroke-width:3.125;"/><text fill="#4E5D6C" font-family="Verdana" font-size="12.5" lengthAdjust="spacing" textLength="122.0093" x="167.7083" y="187.6028">enter example.com</text></g><!--link B to OR--><g class="link" data-entity-1="B" data-entity-2="OR" data-source-line="13" data-uid="lnk11" id="link_B_OR"><path d="M125.6979,283.7292 C108.3333,300.4896 93.8333,322.1563 107.2917,340.5521 C134.3021,377.4896 178.7042,390.8208 219.9126,395.9563" fill="none" id="B-to-OR" style="stroke:#EC7211;stroke-width:3.125;"/><polygon fill="#EC7211" points="226.1146,396.7292,217.3268,391.4351,220.9462,396.0851,216.2963,399.7045,226.1146,396.7292" style="stroke:#EC7211;stroke-width:3.125;"/><text fill="#4E5D6C" font-family="Verdana" font-size="12.5" lengthAdjust="spacing" textLength="137.0422" x="113.5417" y="332.3632">check OS cache/hosts</text></g><!--link OR to B--><g class="link" data-entity-1="OR" data-entity-2="B" data-source-line="22" data-uid="lnk20" id="link_OR_B"><path d="M285.8229,371.3854 C281.5833,353.6042 273.9063,330.8125 260.4167,314.5104 C247.8333,299.3021 235.6769,290.1235 218.7603,280.9152" fill="none" id="OR-to-B" style="stroke:#EC7211;stroke-width:3.125;"/><polygon fill="#EC7211" points="213.2708,277.9271,219.5129,286.0688,217.8454,280.4172,223.497,278.7496,213.2708,277.9271" style="stroke:#EC7211;stroke-width:3.125;"/><text fill="#4E5D6C" font-family="Verdana" font-size="12.5" lengthAdjust="spacing" textLength="104.1199" x="281.25" y="332.3632">IP cached locally</text></g><!--link OR to RR--><g class="link" data-entity-1="OR" data-entity-2="RR" data-source-line="14" data-uid="lnk12" id="link_OR_RR"><path d="M261.2083,428.4479 C246.7188,445.3854 234.7083,467.25 246.875,485.3125 C255.6042,498.2708 262.3368,505.2301 275.9097,513.0634" fill="none" id="OR-to-RR" style="stroke:#EC7211;stroke-width:3.125;"/><polygon fill="#EC7211" points="281.3229,516.1875,275.2859,507.8926,276.8119,513.5841,271.1204,515.1101,281.3229,516.1875" style="stroke:#EC7211;stroke-width:3.125;"/><text fill="#4E5D6C" font-family="Verdana" font-size="12.5" lengthAdjust="spacing" textLength="97.8943" x="253.125" y="477.1236">recursive query</text></g><!--link RR to OR--><g class="link" data-entity-1="RR" data-entity-2="OR" data-source-line="21" data-uid="lnk19" id="link_RR_OR"><path d="M384.7083,516.0625 C380.0625,498.6771 372.3438,476.3646 360.4167,459.2708 C352.375,447.75 346.315,441.1597 335.5337,432.2847" fill="none" id="RR-to-OR" style="stroke:#EC7211;stroke-width:3.125;"/><polygon fill="#EC7211" points="330.7083,428.3125,335.2983,437.4877,334.7295,431.6227,340.5945,431.0539,330.7083,428.3125" style="stroke:#EC7211;stroke-width:3.125;"/><text fill="#4E5D6C" font-family="Verdana" font-size="12.5" lengthAdjust="spacing" textLength="85.8032" x="380.2083" y="477.1236">answer + TTL</text></g><!--link RR to ROOT--><g class="link" data-entity-1="RR" data-entity-2="ROOT" data-source-line="15" data-uid="lnk13" id="link_RR_ROOT"><path d="M267.2188,551.0208 C183.4583,557.5208 83.2188,571.9479 56.25,604.0313 C38.7292,624.8646 55.7411,642.8983 82.2307,658.867" fill="none" id="RR-to-ROOT" style="stroke:#EC7211;stroke-width:3.125;"/><polygon fill="#EC7211" points="87.5833,662.0938,81.7055,653.6852,83.1228,659.4048,77.4032,660.8221,87.5833,662.0938" style="stroke:#EC7211;stroke-width:3.125;"/><text fill="#4E5D6C" font-family="Verdana" font-size="12.5" lengthAdjust="spacing" textLength="93.9026" x="62.5" y="621.884">where is .com?</text></g><!--link ROOT to RR--><g class="link" data-entity-1="ROOT" data-entity-2="RR" data-source-line="16" data-uid="lnk14" id="link_ROOT_RR"><path d="M166.9896,661.0208 C183.6354,642.8229 207.4167,619.5208 232.2917,604.0313 C251.9375,591.8021 268.6892,583.7835 290.5538,575.471" fill="none" id="ROOT-to-RR" style="stroke:#EC7211;stroke-width:3.125;"/><polygon fill="#EC7211" points="296.3958,573.25,286.1521,572.6869,291.5275,575.1009,289.1135,580.4763,296.3958,573.25" style="stroke:#EC7211;stroke-width:3.125;"/><text fill="#4E5D6C" font-family="Verdana" font-size="12.5" lengthAdjust="spacing" textLength="109.4238" x="238.5417" y="621.884">refer to .com TLD</text></g><!--link RR to TLD--><g class="link" data-entity-1="RR" data-entity-2="TLD" data-source-line="17" data-uid="lnk15" id="link_RR_TLD"><path d="M372.9688,572.9792 C364.1875,590.2396 357.4271,612.5313 367.7083,630.0729 C378.4479,648.4063 391.6583,658.6992 410.3875,667.6992" fill="none" id="RR-to-TLD" style="stroke:#EC7211;stroke-width:3.125;"/><polygon fill="#EC7211" points="416.0208,670.4063,409.3755,662.5902,411.3264,668.1504,405.7661,670.1013,416.0208,670.4063" style="stroke:#EC7211;stroke-width:3.125;"/><text fill="#4E5D6C" font-family="Verdana" font-size="12.5" lengthAdjust="spacing" textLength="147.9248" x="373.9583" y="621.884">where is example.com?</text></g><!--link TLD to RR--><g class="link" data-entity-1="TLD" data-entity-2="RR" data-source-line="18" data-uid="lnk16" id="link_TLD_RR"><path d="M511.2813,660.9583 C529.7813,644.6146 545.2188,623.3438 532.2917,604.0313 C523.6354,591.1042 516.9382,584.1766 503.4277,576.3433" fill="none" id="TLD-to-RR" style="stroke:#EC7211;stroke-width:3.125;"/><polygon fill="#EC7211" points="498.0208,573.2083,504.0413,581.5153,502.5266,575.8208,508.2212,574.3061,498.0208,573.2083" style="stroke:#EC7211;stroke-width:3.125;"/><text fill="#4E5D6C" font-family="Verdana" font-size="12.5" lengthAdjust="spacing" textLength="106.5491" x="542.7083" y="621.884">refer to AUTH NS</text></g><!--link RR to AUTH--><g class="link" data-entity-1="RR" data-entity-2="AUTH" data-source-line="19" data-uid="lnk17" id="link_RR_AUTH"><path d="M513.8333,566.9167 C561.1667,576.3854 615.3646,588.875 663.5417,604.0313 C677.3854,608.3854 741.2076,635.5592 794.4472,658.4863" fill="none" id="RR-to-AUTH" style="stroke:#EC7211;stroke-width:3.125;"/><polygon fill="#EC7211" points="800.1875,660.9583,793.225,653.4234,795.4039,658.8983,789.929,661.0772,800.1875,660.9583" style="stroke:#EC7211;stroke-width:3.125;"/><text fill="#4E5D6C" font-family="Verdana" font-size="12.5" lengthAdjust="spacing" textLength="208.0566" x="733.3333" y="621.884">what's A/AAAA for example.com?</text></g><!--link AUTH to RR--><g class="link" data-entity-1="AUTH" data-entity-2="RR" data-source-line="20" data-uid="lnk18" id="link_AUTH_RR"><path d="M923.6354,660.9688 C950.4583,645.0625 972.375,624.2292 954.1667,604.0313 C925.2396,571.9583 677.0258,556.7099 520.0883,550.1265" fill="none" id="AUTH-to-RR" style="stroke:#EC7211;stroke-width:3.125;"/><polygon fill="#EC7211" points="513.8438,549.8646,523.0359,554.4205,519.0475,550.0829,523.3851,546.0945,513.8438,549.8646" style="stroke:#EC7211;stroke-width:3.125;"/><text fill="#4E5D6C" font-family="Verdana" font-size="12.5" lengthAdjust="spacing" textLength="110.8337" x="966.6667" y="621.884">return IP(s) + TTL</text></g><!--SRC=[PP31Re9048RlFCMKIpMDzTv36uc7aXWXApx0TZiA4HcwkqXDqtVlx8e2bWix-_t_lpFpO7Cy8iZMp4ZBQez1K4jra7k4SBdUW413PMCBgaBu2G2aigHXQr1peUXOKuMLXJ3IrF9b2D90D4P9btBgS2B6NA1gj2bEU9F19DwayxJvA0irzHvnxo6omFrTO99aO_pCPyXMIu_vFwRuBOzrYLwqQ6nEkh3ISWDUljXcxm4Rt8mmcxr212_0Fgu6HXP4dYQ2iSfH7O07LPAFyvoCDQnWvYJ2IVHjogy6zPcfw2XtpxpDKICK1bpwcyFkVc3VSGEMu3fQ7y35q3zeqiKu-Z_53GdhJH_YBroAj8-yW_c2FzYHle_pka6URNG5SJenKtY2B5lrYNuniZ8jltX5tKBSHkFqignFA4d9iZm7lty0]--></g></svg>