<svg xmlns="http://www.w3.org/2000/svg" xmlns:xlink="http://www.w3.org/1999/xlink" contentStyleType="text/css" data-diagram-type="DESCRIPTION" height="454px" preserveAspectRatio="none" style="width:637px;height:454px;background:#FFFFFF;" version="1.1" viewBox="0 0 637 454" width="637px" zoomAndPan="magnify"><defs/><g><!--entity PLAN--><g class="entity" data-entity="PLAN" data-source-line="6" data-uid="ent0002" id="entity_PLAN"><rect fill="#F1F1F1" height="52.5938" rx="2.5" ry="2.5" style="stroke:#181818;stroke-width:0.5;" width="129.2998" x="215.52" y="7"/><text fill="#000000" font-family="sans-serif" font-size="14" lengthAdjust="spacing" textLength="106.5381" x="225.52" y="29.9951">Sprint Planning</text><text fill="#000000" font-family="sans-serif" font-size="14" lengthAdjust="spacing" textLength="109.2998" x="225.52" y="46.292">(Start of Sprint)</text></g><!--entity DAILY--><g class="entity" data-entity="DAILY" data-source-line="7" data-uid="ent0003" id="entity_DAILY"><rect fill="#F1F1F1" height="52.5938" rx="2.5" ry="2.5" style="stroke:#181818;stroke-width:0.5;" width="118.3486" x="7" y="136.6"/><text fill="#000000" font-family="sans-serif" font-size="14" lengthAdjust="spacing" textLength="98.3486" x="17" y="159.5951">Daily Standup</text><text fill="#000000" font-family="sans-serif" font-size="14" lengthAdjust="spacing" textLength="82.8037" x="17" y="175.892">(Every Day)</text></g><!--entity REVIEW--><g class="entity" data-entity="REVIEW" data-source-line="8" data-uid="ent0004" id="entity_REVIEW"><rect fill="#F1F1F1" height="52.5938" rx="2.5" ry="2.5" style="stroke:#181818;stroke-width:0.5;" width="121.7051" x="79.32" y="266.19"/><text fill="#000000" font-family="sans-serif" font-size="14" lengthAdjust="spacing" textLength="96.8105" x="89.32" y="289.1851">Sprint Review</text><text fill="#000000" font-family="sans-serif" font-size="14" lengthAdjust="spacing" textLength="101.7051" x="89.32" y="305.482">(End of Sprint)</text></g><!--entity RETRO--><g class="entity" data-entity="RETRO" data-source-line="9" data-uid="ent0005" id="entity_RETRO"><rect fill="#F1F1F1" height="52.5938" rx="2.5" ry="2.5" style="stroke:#181818;stroke-width:0.5;" width="163.1514" x="235.6" y="395.79"/><text fill="#000000" font-family="sans-serif" font-size="14" lengthAdjust="spacing" textLength="143.1514" x="245.6" y="418.7851">Sprint Retrospective</text><text fill="#000000" font-family="sans-serif" font-size="14" lengthAdjust="spacing" textLength="101.7051" x="245.6" y="435.082">(End of Sprint)</text></g><g class="entity" data-entity="GMN11" data-source-line="17" data-uid="ent0012" id="entity_GMN11"><path d="M379.77,13.17 L379.77,29.3 L345.12,33.3 L379.77,37.3 L379.77,53.4356 A0,0 0 0 0 379.77,53.4356 L506.5791,53.4356 A0,0 0 0 0 506.5791,53.4356 L506.5791,23.17 L496.5791,13.17 L379.77,13.17 A0,0 0 0 0 379.77,13.17" fill="#FAFAFA" style="stroke:#181818;stroke-width:0.5;"/><path d="M496.5791,13.17 L496.5791,23.17 L506.5791,23.17 L496.5791,13.17" fill="#FAFAFA" style="stroke:#181818;stroke-width:0.5;"/><text fill="#000000" font-family="sans-serif" font-size="13" lengthAdjust="spacing" textLength="85.2554" x="385.77" y="30.2369">Plan work for</text><text fill="#000000" font-family="sans-serif" font-size="13" lengthAdjust="spacing" textLength="105.8091" x="385.77" y="45.3697">upcoming sprint</text></g><g class="entity" data-entity="GMN14" data-source-line="18" data-uid="ent0015" id="entity_GMN14"><path d="M283.18,142.76 L283.18,158.9 L125.72,162.9 L283.18,166.9 L283.18,183.0256 A0,0 0 0 0 283.18,183.0256 L441.1624,183.0256 A0,0 0 0 0 441.1624,183.0256 L441.1624,152.76 L431.1624,142.76 L283.18,142.76 A0,0 0 0 0 283.18,142.76" fill="#FAFAFA" style="stroke:#181818;stroke-width:0.5;"/><path d="M431.1624,142.76 L431.1624,152.76 L441.1624,152.76 L431.1624,142.76" fill="#FAFAFA" style="stroke:#181818;stroke-width:0.5;"/><text fill="#000000" font-family="sans-serif" font-size="13" lengthAdjust="spacing" textLength="92.1553" x="289.18" y="159.8269">Sync progress</text><text fill="#000000" font-family="sans-serif" font-size="13" lengthAdjust="spacing" textLength="136.9824" x="289.18" y="174.9597">and remove blockers</text></g><g class="entity" data-entity="GMN17" data-source-line="19" data-uid="ent0018" id="entity_GMN17"><path d="M236.25,272.36 L236.25,288.49 L201.21,292.49 L236.25,296.49 L236.25,312.6256 A0,0 0 0 0 236.25,312.6256 L416.0938,312.6256 A0,0 0 0 0 416.0938,312.6256 L416.0938,282.36 L406.0938,272.36 L236.25,272.36 A0,0 0 0 0 236.25,272.36" fill="#FAFAFA" style="stroke:#181818;stroke-width:0.5;"/><path d="M406.0938,272.36 L406.0938,282.36 L416.0938,282.36 L406.0938,272.36" fill="#FAFAFA" style="stroke:#181818;stroke-width:0.5;"/><text fill="#000000" font-family="sans-serif" font-size="13" lengthAdjust="spacing" textLength="111.7314" x="242.25" y="289.4269">Demo completed</text><text fill="#000000" font-family="sans-serif" font-size="13" lengthAdjust="spacing" textLength="158.8438" x="242.25" y="304.5597">features to stakeholders</text></g><g class="entity" data-entity="GMN20" data-source-line="20" data-uid="ent0021" id="entity_GMN20"><path d="M433.63,401.95 L433.63,418.08 L399.06,422.08 L433.63,426.08 L433.63,442.2156 A0,0 0 0 0 433.63,442.2156 L630.7203,442.2156 A0,0 0 0 0 630.7203,442.2156 L630.7203,411.95 L620.7203,401.95 L433.63,401.95 A0,0 0 0 0 433.63,401.95" fill="#FAFAFA" style="stroke:#181818;stroke-width:0.5;"/><path d="M620.7203,401.95 L620.7203,411.95 L630.7203,411.95 L620.7203,401.95" fill="#FAFAFA" style="stroke:#181818;stroke-width:0.5;"/><text fill="#000000" font-family="sans-serif" font-size="13" lengthAdjust="spacing" textLength="120.1611" x="439.63" y="419.0169">Reflect on process</text><text fill="#000000" font-family="sans-serif" font-size="13" lengthAdjust="spacing" textLength="176.0903" x="439.63" y="434.1497">and identify improvements</text></g><!--link PLAN to DAILY--><g class="link" data-entity-1="PLAN" data-entity-2="DAILY" data-source-line="11" data-uid="lnk6" id="link_PLAN_DAILY"><path d="M237.13,59.97 C199.9,82.16 151.5139,111.0179 114.3039,133.1979" fill="none" id="PLAN-to-DAILY" style="stroke:#181818;stroke-width:1;"/><polygon fill="#181818" points="109.15,136.27,118.9288,135.0978,113.4449,133.7099,114.8327,128.226,109.15,136.27" style="stroke:#181818;stroke-width:1;"/><text fill="#000000" font-family="sans-serif" font-size="13" lengthAdjust="spacing" textLength="86.0552" x="187.17" y="102.6669">Sprint begins</text></g><!--link DAILY to DAILY--><g class="link" data-entity-1="DAILY" data-entity-2="DAILY" data-source-line="12" data-uid="lnk7" id="link_DAILY_DAILY"><path d="M125.49,150.75 C144.9,150.81 160.35,154.86 160.35,162.9 C160.35,170.93 150.9,174.9615 131.49,175.0215" fill="none" id="DAILY-to-DAILY" style="stroke:#181818;stroke-width:1;"/><polygon fill="#181818" points="125.49,175.04,134.5023,179.0122,130.49,175.0245,134.4776,171.0122,125.49,175.04" style="stroke:#181818;stroke-width:1;"/><text fill="#000000" font-family="sans-serif" font-size="13" lengthAdjust="spacing" textLength="93.7168" x="166.35" y="167.4669">Daily progress</text></g><!--link DAILY to REVIEW--><g class="link" data-entity-1="DAILY" data-entity-2="REVIEW" data-source-line="13" data-uid="lnk8" id="link_DAILY_REVIEW"><path d="M80.97,189.41 C93.88,211.66 109.4896,238.5899 122.3896,260.8299" fill="none" id="DAILY-to-REVIEW" style="stroke:#181818;stroke-width:1;"/><polygon fill="#181818" points="125.4,266.02,124.3444,256.2279,122.8913,261.6949,117.4243,260.2418,125.4,266.02" style="stroke:#181818;stroke-width:1;"/><text fill="#000000" font-family="sans-serif" font-size="13" lengthAdjust="spacing" textLength="74.1914" x="109.17" y="232.2569">Sprint ends</text></g><!--link REVIEW to RETRO--><g class="link" data-entity-1="REVIEW" data-entity-2="RETRO" data-source-line="14" data-uid="lnk9" id="link_REVIEW_RETRO"><path d="M175.57,319 C206.34,341.18 245.8334,369.6505 276.6734,391.8905" fill="none" id="REVIEW-to-RETRO" style="stroke:#181818;stroke-width:1;"/><polygon fill="#181818" points="281.54,395.4,276.5798,386.8914,277.4845,392.4754,271.9005,393.3802,281.54,395.4" style="stroke:#181818;stroke-width:1;"/><text fill="#000000" font-family="sans-serif" font-size="13" lengthAdjust="spacing" textLength="120.7324" x="241.17" y="361.8569">Demonstrate work</text></g><!--link RETRO to PLAN--><g class="link" data-entity-1="RETRO" data-entity-2="PLAN" data-source-line="15" data-uid="lnk10" id="link_RETRO_PLAN"><path d="M358.08,395.42 C383.68,377.18 415.12,350.37 433.17,318.79 C451.06,287.5 480.35,174.92 458.17,136.6 C433.98,94.8 391.1334,70.7353 350.8834,55.3253" fill="none" id="RETRO-to-PLAN" style="stroke:#181818;stroke-width:1;"/><polygon fill="#181818" points="345.28,53.18,352.2549,60.1335,349.9495,54.9677,355.1152,52.6624,345.28,53.18" style="stroke:#181818;stroke-width:1;"/><text fill="#000000" font-family="sans-serif" font-size="13" lengthAdjust="spacing" textLength="108.1133" x="464.17" y="232.2569">Improve process</text></g><!--SRC=[TL51Ri8m4Bpx5LjExO4FSAY4IWv8552eMY7bOk9DOiLPHxOJbD_NZcaQKNhqpipEZDVMabfkU0ED9frNHZS8pdJ8x8JOYWjzbLH2mPL5nfu45f8Gtf8qUJ_ips0mTvnAvR5fjZYrHfA3e-94NfpHyybnuq0N4A6N1N0BnzrwFrDjk5G3U2Q9hlMQf4Spm8OFaRrPRtVdloOfzXAlWKxYtY1DFhV9roEDCzgsFhhiyJ_fHtfWB4I4vV8rkiFgne4Bbf8iYzCv7akqHfS6xPmGi_nkG1AMtOOHzuPX0VfpM6UuGxXgKxC81CeOPWNRng_lCPZamOEHzbmZoshyuHihVFwu00fjCkhQN3VXa7QqlzDCxGRAf_0P-Klu0pV1xA9qNgEnTyAfLOWDtg9Lw51aL21tdTy2JeDrlCPAA_587rkdM2X_3j3qKokwIu7aP360ZAKR_xJV]--></g></svg>