<svg xmlns="http://www.w3.org/2000/svg" xmlns:xlink="http://www.w3.org/1999/xlink" contentStyleType="text/css" data-diagram-type="CLASS" height="643px" preserveAspectRatio="none" style="width:1131px;height:643px;background:#FFFFFF;" version="1.1" viewBox="0 0 1131 643" width="1131px" zoomAndPan="magnify"><defs/><g><!--cluster Test Environment--><g class="cluster" data-entity="Test Environment" data-source-line="4" data-uid="ent0002" id="cluster_Test Environment"><path d="M8.5,93.26 L149.1309,93.26 A3.75,3.75 0 0 1 151.6309,95.76 L158.6309,115.5569 L486.5,115.5569 A2.5,2.5 0 0 1 489,118.0569 L489,522.88 A2.5,2.5 0 0 1 486.5,525.38 L8.5,525.38 A2.5,2.5 0 0 1 6,522.88 L6,95.76 A2.5,2.5 0 0 1 8.5,93.26" fill="none" style="stroke:#000000;stroke-width:1.5;"/><line style="stroke:#000000;stroke-width:1.5;" x1="6" x2="158.6309" y1="115.5569" y2="115.5569"/><text fill="#000000" font-family="sans-serif" font-size="14" font-weight="bold" lengthAdjust="spacing" textLength="139.6309" x="10" y="108.2551">Test Environment</text></g><!--cluster Production Environment--><g class="cluster" data-entity="Production Environment" data-source-line="32" data-uid="ent0006" id="cluster_Production Environment"><path d="M523.5,345.04 L716.207,345.04 A3.75,3.75 0 0 1 718.707,347.54 L725.707,367.3369 L1048.5,367.3369 A2.5,2.5 0 0 1 1051,369.8369 L1051,506.43 A2.5,2.5 0 0 1 1048.5,508.93 L523.5,508.93 A2.5,2.5 0 0 1 521,506.43 L521,347.54 A2.5,2.5 0 0 1 523.5,345.04" fill="none" style="stroke:#000000;stroke-width:1.5;"/><line style="stroke:#000000;stroke-width:1.5;" x1="521" x2="725.707" y1="367.3369" y2="367.3369"/><text fill="#000000" font-family="sans-serif" font-size="14" font-weight="bold" lengthAdjust="spacing" textLength="191.707" x="525" y="360.0351">Production Environment</text></g><!--class TestHarness--><g class="entity" data-entity="TestHarness" data-source-line="5" data-uid="ent0003" id="entity_TestHarness"><rect fill="#F1F1F1" height="145.7813" rx="2.5" ry="2.5" style="stroke:#181818;stroke-width:0.5;" width="298.3506" x="85.82" y="128.26"/><ellipse cx="187.3029" cy="144.26" fill="#C2C2C2" rx="11" ry="11" style="stroke:#181818;stroke-width:1;"/><path d="M190.2717,149.9006 Q189.6935,150.1975 189.0529,150.3381 Q188.4123,150.4944 187.7092,150.4944 Q185.2092,150.4944 183.881,148.8538 Q182.5685,147.1975 182.5685,144.0725 Q182.5685,140.9475 183.881,139.2913 Q185.2092,137.635 187.7092,137.635 Q188.4123,137.635 189.0529,137.7913 Q189.7092,137.9475 190.2717,138.2444 L190.2717,140.9631 Q189.6467,140.385 189.0529,140.1194 Q188.4592,139.8381 187.8342,139.8381 Q186.4904,139.8381 185.8029,140.9163 Q185.1154,141.9788 185.1154,144.0725 Q185.1154,146.1663 185.8029,147.2444 Q186.4904,148.3069 187.8342,148.3069 Q188.4592,148.3069 189.0529,148.0413 Q189.6467,147.76 190.2717,147.1819 L190.2717,149.9006 Z " fill="#000000"/><text fill="#000000" font-family="sans-serif" font-size="14" lengthAdjust="spacing" textLength="86.8848" x="207.8029" y="149.1067">TestHarness</text><line style="stroke:#181818;stroke-width:0.5;" x1="86.82" x2="383.1706" y1="160.26" y2="160.26"/><ellipse cx="96.82" cy="173.9084" fill="none" rx="3" ry="3" style="stroke:#545454;stroke-width:1;"/><text fill="#000000" font-family="sans-serif" font-size="14" lengthAdjust="spacing" textLength="122.2949" x="105.82" y="177.2551">test_devices: dict</text><ellipse cx="96.82" cy="190.2053" fill="none" rx="3" ry="3" style="stroke:#545454;stroke-width:1;"/><text fill="#000000" font-family="sans-serif" font-size="14" lengthAdjust="spacing" textLength="110.8242" x="105.82" y="193.552">test_results: list</text><line style="stroke:#181818;stroke-width:0.5;" x1="86.82" x2="383.1706" y1="200.8538" y2="200.8538"/><ellipse cx="96.82" cy="214.5022" fill="#A6A6A6" rx="3" ry="3" style="stroke:#545454;stroke-width:1;"/><text fill="#000000" font-family="sans-serif" font-size="14" lengthAdjust="spacing" textLength="247.6797" x="105.82" y="217.8489">create_mock_sensor(): MockSensor</text><ellipse cx="96.82" cy="230.7991" fill="#A6A6A6" rx="3" ry="3" style="stroke:#545454;stroke-width:1;"/><text fill="#000000" font-family="sans-serif" font-size="14" lengthAdjust="spacing" textLength="272.3506" x="105.82" y="234.1457">create_mock_actuator(): MockActuator</text><ellipse cx="96.82" cy="247.0959" fill="#A6A6A6" rx="3" ry="3" style="stroke:#545454;stroke-width:1;"/><text fill="#000000" font-family="sans-serif" font-size="14" lengthAdjust="spacing" textLength="173.373" x="105.82" y="250.4426">run_test_scenario(): void</text><ellipse cx="96.82" cy="263.3928" fill="#A6A6A6" rx="3" ry="3" style="stroke:#545454;stroke-width:1;"/><text fill="#000000" font-family="sans-serif" font-size="14" lengthAdjust="spacing" textLength="195.5215" x="105.82" y="266.7395">inject_random_faults(): void</text></g><!--class MockSensor--><g class="entity" data-entity="MockSensor" data-source-line="14" data-uid="ent0004" id="entity_MockSensor"><rect fill="#F1F1F1" height="145.7813" rx="2.5" ry="2.5" style="stroke:#181818;stroke-width:0.5;" width="218.5068" x="21.75" y="363.6"/><ellipse cx="84.5347" cy="379.6" fill="#C2C2C2" rx="11" ry="11" style="stroke:#181818;stroke-width:1;"/><path d="M87.5034,385.2406 Q86.9253,385.5375 86.2847,385.6781 Q85.644,385.8344 84.9409,385.8344 Q82.4409,385.8344 81.1128,384.1938 Q79.8003,382.5375 79.8003,379.4125 Q79.8003,376.2875 81.1128,374.6313 Q82.4409,372.975 84.9409,372.975 Q85.644,372.975 86.2847,373.1313 Q86.9409,373.2875 87.5034,373.5844 L87.5034,376.3031 Q86.8784,375.725 86.2847,375.4594 Q85.6909,375.1781 85.0659,375.1781 Q83.7222,375.1781 83.0347,376.2563 Q82.3472,377.3188 82.3472,379.4125 Q82.3472,381.5063 83.0347,382.5844 Q83.7222,383.6469 85.0659,383.6469 Q85.6909,383.6469 86.2847,383.3813 Q86.8784,383.1 87.5034,382.5219 L87.5034,385.2406 Z " fill="#000000"/><text fill="#000000" font-family="sans-serif" font-size="14" lengthAdjust="spacing" textLength="84.4375" x="105.0347" y="384.4467">MockSensor</text><line style="stroke:#181818;stroke-width:0.5;" x1="22.75" x2="239.2568" y1="395.6" y2="395.6"/><ellipse cx="32.75" cy="409.2484" fill="none" rx="3" ry="3" style="stroke:#545454;stroke-width:1;"/><text fill="#000000" font-family="sans-serif" font-size="14" lengthAdjust="spacing" textLength="155.0117" x="41.75" y="412.5951">simulated_value: float</text><ellipse cx="32.75" cy="425.5453" fill="none" rx="3" ry="3" style="stroke:#545454;stroke-width:1;"/><text fill="#000000" font-family="sans-serif" font-size="14" lengthAdjust="spacing" textLength="118.1455" x="41.75" y="428.892">noise_level: float</text><ellipse cx="32.75" cy="441.8422" fill="none" rx="3" ry="3" style="stroke:#545454;stroke-width:1;"/><text fill="#000000" font-family="sans-serif" font-size="14" lengthAdjust="spacing" textLength="127.8184" x="41.75" y="445.1889">fault_mode: string</text><line style="stroke:#181818;stroke-width:0.5;" x1="22.75" x2="239.2568" y1="452.4906" y2="452.4906"/><ellipse cx="32.75" cy="466.1391" fill="#A6A6A6" rx="3" ry="3" style="stroke:#545454;stroke-width:1;"/><text fill="#000000" font-family="sans-serif" font-size="14" lengthAdjust="spacing" textLength="126.9297" x="41.75" y="469.4857">inject_fault(): void</text><ellipse cx="32.75" cy="482.4359" fill="#A6A6A6" rx="3" ry="3" style="stroke:#545454;stroke-width:1;"/><text fill="#000000" font-family="sans-serif" font-size="14" lengthAdjust="spacing" textLength="123.0127" x="41.75" y="485.7826">clear_fault(): void</text><ellipse cx="32.75" cy="498.7328" fill="#A6A6A6" rx="3" ry="3" style="stroke:#545454;stroke-width:1;"/><text fill="#000000" font-family="sans-serif" font-size="14" lengthAdjust="spacing" textLength="192.5068" x="41.75" y="502.0795">set_simulated_value(): void</text></g><!--class MockActuator--><g class="entity" data-entity="MockActuator" data-source-line="23" data-uid="ent0005" id="entity_MockActuator"><rect fill="#F1F1F1" height="129.4844" rx="2.5" ry="2.5" style="stroke:#181818;stroke-width:0.5;" width="198.2246" x="274.89" y="371.75"/><ellipse cx="321.5145" cy="387.75" fill="#C2C2C2" rx="11" ry="11" style="stroke:#181818;stroke-width:1;"/><path d="M324.4833,393.3906 Q323.9051,393.6875 323.2645,393.8281 Q322.6239,393.9844 321.9208,393.9844 Q319.4208,393.9844 318.0926,392.3438 Q316.7801,390.6875 316.7801,387.5625 Q316.7801,384.4375 318.0926,382.7813 Q319.4208,381.125 321.9208,381.125 Q322.6239,381.125 323.2645,381.2813 Q323.9208,381.4375 324.4833,381.7344 L324.4833,384.4531 Q323.8583,383.875 323.2645,383.6094 Q322.6708,383.3281 322.0458,383.3281 Q320.702,383.3281 320.0145,384.4063 Q319.327,385.4688 319.327,387.5625 Q319.327,389.6563 320.0145,390.7344 Q320.702,391.7969 322.0458,391.7969 Q322.6708,391.7969 323.2645,391.5313 Q323.8583,391.25 324.4833,390.6719 L324.4833,393.3906 Z " fill="#000000"/><text fill="#000000" font-family="sans-serif" font-size="14" lengthAdjust="spacing" textLength="96.4756" x="342.0145" y="392.5967">MockActuator</text><line style="stroke:#181818;stroke-width:0.5;" x1="275.89" x2="472.1146" y1="403.75" y2="403.75"/><ellipse cx="285.89" cy="417.3984" fill="none" rx="3" ry="3" style="stroke:#545454;stroke-width:1;"/><text fill="#000000" font-family="sans-serif" font-size="14" lengthAdjust="spacing" textLength="172.2246" x="294.89" y="420.7451">simulated_position: float</text><ellipse cx="285.89" cy="433.6953" fill="none" rx="3" ry="3" style="stroke:#545454;stroke-width:1;"/><text fill="#000000" font-family="sans-serif" font-size="14" lengthAdjust="spacing" textLength="127.8184" x="294.89" y="437.042">fault_mode: string</text><ellipse cx="285.89" cy="449.9922" fill="none" rx="3" ry="3" style="stroke:#545454;stroke-width:1;"/><text fill="#000000" font-family="sans-serif" font-size="14" lengthAdjust="spacing" textLength="143.1445" x="294.89" y="453.3389">response_time: float</text><line style="stroke:#181818;stroke-width:0.5;" x1="275.89" x2="472.1146" y1="460.6406" y2="460.6406"/><ellipse cx="285.89" cy="474.2891" fill="#A6A6A6" rx="3" ry="3" style="stroke:#545454;stroke-width:1;"/><text fill="#000000" font-family="sans-serif" font-size="14" lengthAdjust="spacing" textLength="126.9297" x="294.89" y="477.6357">inject_fault(): void</text><ellipse cx="285.89" cy="490.5859" fill="#A6A6A6" rx="3" ry="3" style="stroke:#545454;stroke-width:1;"/><text fill="#000000" font-family="sans-serif" font-size="14" lengthAdjust="spacing" textLength="123.0127" x="294.89" y="493.9326">clear_fault(): void</text></g><!--class RealSensor--><g class="entity" data-entity="RealSensor" data-source-line="33" data-uid="ent0007" id="entity_RealSensor"><rect fill="#F1F1F1" height="96.8906" rx="2.5" ry="2.5" style="stroke:#181818;stroke-width:0.5;" width="214.2412" x="544.88" y="388.04"/><ellipse cx="608.3517" cy="404.04" fill="#C2C2C2" rx="11" ry="11" style="stroke:#181818;stroke-width:1;"/><path d="M611.3204,409.6806 Q610.7423,409.9775 610.1017,410.1181 Q609.4611,410.2744 608.7579,410.2744 Q606.2579,410.2744 604.9298,408.6337 Q603.6173,406.9775 603.6173,403.8525 Q603.6173,400.7275 604.9298,399.0712 Q606.2579,397.415 608.7579,397.415 Q609.4611,397.415 610.1017,397.5712 Q610.7579,397.7275 611.3204,398.0244 L611.3204,400.7431 Q610.6954,400.165 610.1017,399.8994 Q609.5079,399.6181 608.8829,399.6181 Q607.5392,399.6181 606.8517,400.6962 Q606.1642,401.7587 606.1642,403.8525 Q606.1642,405.9462 606.8517,407.0244 Q607.5392,408.0869 608.8829,408.0869 Q609.5079,408.0869 610.1017,407.8212 Q610.6954,407.54 611.3204,406.9619 L611.3204,409.6806 Z " fill="#000000"/><text fill="#000000" font-family="sans-serif" font-size="14" lengthAdjust="spacing" textLength="78.7979" x="628.8517" y="408.8867">RealSensor</text><line style="stroke:#181818;stroke-width:0.5;" x1="545.88" x2="758.1212" y1="420.04" y2="420.04"/><ellipse cx="555.88" cy="433.6884" fill="none" rx="3" ry="3" style="stroke:#545454;stroke-width:1;"/><text fill="#000000" font-family="sans-serif" font-size="14" lengthAdjust="spacing" textLength="188.2412" x="564.88" y="437.0351">hardware_interface: object</text><ellipse cx="555.88" cy="449.9853" fill="none" rx="3" ry="3" style="stroke:#545454;stroke-width:1;"/><text fill="#000000" font-family="sans-serif" font-size="14" lengthAdjust="spacing" textLength="147.7588" x="564.88" y="453.332">calibration_data: dict</text><line style="stroke:#181818;stroke-width:0.5;" x1="545.88" x2="758.1212" y1="460.6337" y2="460.6337"/><ellipse cx="555.88" cy="474.2822" fill="#A6A6A6" rx="3" ry="3" style="stroke:#545454;stroke-width:1;"/><text fill="#000000" font-family="sans-serif" font-size="14" lengthAdjust="spacing" textLength="156.8711" x="564.88" y="477.6289">read_hardware(): float</text></g><!--class RealActuator--><g class="entity" data-entity="RealActuator" data-source-line="39" data-uid="ent0008" id="entity_RealActuator"><rect fill="#F1F1F1" height="96.8906" rx="2.5" ry="2.5" style="stroke:#181818;stroke-width:0.5;" width="214.2412" x="793.88" y="388.04"/><ellipse cx="851.3326" cy="404.04" fill="#C2C2C2" rx="11" ry="11" style="stroke:#181818;stroke-width:1;"/><path d="M854.3014,409.6806 Q853.7233,409.9775 853.0826,410.1181 Q852.442,410.2744 851.7389,410.2744 Q849.2389,410.2744 847.9108,408.6337 Q846.5983,406.9775 846.5983,403.8525 Q846.5983,400.7275 847.9108,399.0712 Q849.2389,397.415 851.7389,397.415 Q852.442,397.415 853.0826,397.5712 Q853.7389,397.7275 854.3014,398.0244 L854.3014,400.7431 Q853.6764,400.165 853.0826,399.8994 Q852.4889,399.6181 851.8639,399.6181 Q850.5201,399.6181 849.8326,400.6962 Q849.1451,401.7587 849.1451,403.8525 Q849.1451,405.9462 849.8326,407.0244 Q850.5201,408.0869 851.8639,408.0869 Q852.4889,408.0869 853.0826,407.8212 Q853.6764,407.54 854.3014,406.9619 L854.3014,409.6806 Z " fill="#000000"/><text fill="#000000" font-family="sans-serif" font-size="14" lengthAdjust="spacing" textLength="90.8359" x="871.8326" y="408.8867">RealActuator</text><line style="stroke:#181818;stroke-width:0.5;" x1="794.88" x2="1007.1212" y1="420.04" y2="420.04"/><ellipse cx="804.88" cy="433.6884" fill="none" rx="3" ry="3" style="stroke:#545454;stroke-width:1;"/><text fill="#000000" font-family="sans-serif" font-size="14" lengthAdjust="spacing" textLength="188.2412" x="813.88" y="437.0351">hardware_interface: object</text><ellipse cx="804.88" cy="449.9853" fill="none" rx="3" ry="3" style="stroke:#545454;stroke-width:1;"/><text fill="#000000" font-family="sans-serif" font-size="14" lengthAdjust="spacing" textLength="172.1699" x="813.88" y="453.332">control_parameters: dict</text><line style="stroke:#181818;stroke-width:0.5;" x1="794.88" x2="1007.1212" y1="460.6337" y2="460.6337"/><ellipse cx="804.88" cy="474.2822" fill="#A6A6A6" rx="3" ry="3" style="stroke:#545454;stroke-width:1;"/><text fill="#000000" font-family="sans-serif" font-size="14" lengthAdjust="spacing" textLength="160.542" x="813.88" y="477.6289">send_command(): bool</text></g><!--class Sensor--><g class="entity" data-entity="Sensor" data-source-line="48" data-uid="ent0011" id="entity_Sensor"><rect fill="#F1F1F1" height="48" rx="2.5" ry="2.5" style="stroke:#181818;stroke-width:0.5;" width="79.9883" x="343.01" y="588.38"/><ellipse cx="358.01" cy="604.38" fill="#C2C2C2" rx="11" ry="11" style="stroke:#181818;stroke-width:1;"/><path d="M360.9788,610.0206 Q360.4006,610.3175 359.76,610.4581 Q359.1194,610.6144 358.4163,610.6144 Q355.9163,610.6144 354.5881,608.9738 Q353.2756,607.3175 353.2756,604.1925 Q353.2756,601.0675 354.5881,599.4113 Q355.9163,597.755 358.4163,597.755 Q359.1194,597.755 359.76,597.9113 Q360.4163,598.0675 360.9788,598.3644 L360.9788,601.0831 Q360.3538,600.505 359.76,600.2394 Q359.1663,599.9581 358.5413,599.9581 Q357.1975,599.9581 356.51,601.0363 Q355.8225,602.0988 355.8225,604.1925 Q355.8225,606.2863 356.51,607.3644 Q357.1975,608.4269 358.5413,608.4269 Q359.1663,608.4269 359.76,608.1613 Q360.3538,607.88 360.9788,607.3019 L360.9788,610.0206 Z " fill="#000000"/><text fill="#000000" font-family="sans-serif" font-size="14" lengthAdjust="spacing" textLength="47.9883" x="372.01" y="609.2267">Sensor</text><line style="stroke:#181818;stroke-width:0.5;" x1="344.01" x2="421.9983" y1="620.38" y2="620.38"/><line style="stroke:#181818;stroke-width:0.5;" x1="344.01" x2="421.9983" y1="628.38" y2="628.38"/></g><!--class Actuator--><g class="entity" data-entity="Actuator" data-source-line="49" data-uid="ent0013" id="entity_Actuator"><rect fill="#F1F1F1" height="48" rx="2.5" ry="2.5" style="stroke:#181818;stroke-width:0.5;" width="92.0264" x="646.99" y="588.38"/><ellipse cx="661.99" cy="604.38" fill="#C2C2C2" rx="11" ry="11" style="stroke:#181818;stroke-width:1;"/><path d="M664.9588,610.0206 Q664.3806,610.3175 663.74,610.4581 Q663.0994,610.6144 662.3963,610.6144 Q659.8963,610.6144 658.5681,608.9738 Q657.2556,607.3175 657.2556,604.1925 Q657.2556,601.0675 658.5681,599.4113 Q659.8963,597.755 662.3963,597.755 Q663.0994,597.755 663.74,597.9113 Q664.3963,598.0675 664.9588,598.3644 L664.9588,601.0831 Q664.3338,600.505 663.74,600.2394 Q663.1463,599.9581 662.5213,599.9581 Q661.1775,599.9581 660.49,601.0363 Q659.8025,602.0988 659.8025,604.1925 Q659.8025,606.2863 660.49,607.3644 Q661.1775,608.4269 662.5213,608.4269 Q663.1463,608.4269 663.74,608.1613 Q664.3338,607.88 664.9588,607.3019 L664.9588,610.0206 Z " fill="#000000"/><text fill="#000000" font-family="sans-serif" font-size="14" lengthAdjust="spacing" textLength="60.0264" x="675.99" y="609.2267">Actuator</text><line style="stroke:#181818;stroke-width:0.5;" x1="647.99" x2="738.0164" y1="620.38" y2="620.38"/><line style="stroke:#181818;stroke-width:0.5;" x1="647.99" x2="738.0164" y1="628.38" y2="628.38"/></g><g class="entity" data-entity="GMN17" data-source-line="53" data-uid="ent0018" id="entity_GMN17"><path d="M147.87,6 L147.87,46.2656 A0,0 0 0 0 147.87,46.2656 L231,46.2656 L235,127.87 L239,46.2656 L322.1278,46.2656 A0,0 0 0 0 322.1278,46.2656 L322.1278,16 L312.1278,6 L147.87,6 A0,0 0 0 0 147.87,6" fill="#FAFAFA" style="stroke:#181818;stroke-width:0.5;"/><path d="M312.1278,6 L312.1278,16 L322.1278,16 L312.1278,6" fill="#FAFAFA" style="stroke:#181818;stroke-width:0.5;"/><text fill="#000000" font-family="sans-serif" font-size="13" lengthAdjust="spacing" textLength="153.2578" x="153.87" y="23.0669">Enables testing without</text><text fill="#000000" font-family="sans-serif" font-size="13" lengthAdjust="spacing" textLength="119.1709" x="153.87" y="38.1997">physical hardware</text></g><g class="entity" data-entity="GMN20" data-source-line="54" data-uid="ent0021" id="entity_GMN20"><path d="M961.82,592.25 L961.82,632.5156 L1124.176,632.5156 L1124.176,602.25 L1114.176,592.25 L961.82,592.25" fill="#FAFAFA" style="stroke:#181818;stroke-width:0.5;"/><path d="M1114.176,592.25 L1114.176,602.25 L1124.176,602.25 L1114.176,592.25" fill="#FAFAFA" style="stroke:#181818;stroke-width:1;"/><text fill="#000000" font-family="sans-serif" font-size="13" lengthAdjust="spacing" textLength="141.356" x="967.82" y="609.3169">Same interfaces work</text><text fill="#000000" font-family="sans-serif" font-size="13" lengthAdjust="spacing" textLength="110.2397" x="967.82" y="624.4497">with real devices</text></g><!--link TestHarness to MockSensor--><g class="link" data-entity-1="TestHarness" data-entity-2="MockSensor" data-source-line="46" data-uid="lnk9" id="link_TestHarness_MockSensor"><path codeLine="46" d="M202.81,274.38 C190.22,302.63 178.2524,329.4696 165.6624,357.7196" fill="none" id="TestHarness-to-MockSensor" style="stroke:#181818;stroke-width:1;"/><polygon fill="#181818" points="163.22,363.2,170.5372,356.6077,165.2553,358.633,163.23,353.3511,163.22,363.2" style="stroke:#181818;stroke-width:1;"/><text fill="#000000" font-family="sans-serif" font-size="13" lengthAdjust="spacing" textLength="48.3247" x="190" y="317.1069">creates</text></g><!--link TestHarness to MockActuator--><g class="link" data-entity-1="TestHarness" data-entity-2="MockActuator" data-source-line="47" data-uid="lnk10" id="link_TestHarness_MockActuator"><path codeLine="47" d="M278.03,274.38 C296.53,305.44 314.8997,336.2751 332.8097,366.3451" fill="none" id="TestHarness-to-MockActuator" style="stroke:#181818;stroke-width:1;"/><polygon fill="#181818" points="335.88,371.5,334.7111,361.7207,333.3214,367.2042,327.8379,365.8145,335.88,371.5" style="stroke:#181818;stroke-width:1;"/><text fill="#000000" font-family="sans-serif" font-size="13" lengthAdjust="spacing" textLength="48.3247" x="305" y="317.1069">creates</text></g><!--link MockSensor to Sensor--><g class="link" data-entity-1="MockSensor" data-entity-2="Sensor" data-source-line="48" data-uid="lnk12" id="link_MockSensor_Sensor"><path codeLine="48" d="M223.19,509.82 C245.6,526.41 269.8,543.52 293,558.38 C309.03,568.65 311.5005,570.3601 327.1805,579.4801" fill="none" id="MockSensor-to-Sensor" style="stroke:#181818;stroke-width:1;"/><polygon fill="none" points="342.74,588.53,330.1971,574.2936,324.1638,584.6666,342.74,588.53" style="stroke:#181818;stroke-width:1;"/><text fill="#000000" font-family="sans-serif" font-size="13" lengthAdjust="spacing" textLength="76.9082" x="294" y="554.4469">implements</text></g><!--link MockActuator to Actuator--><g class="link" data-entity-1="MockActuator" data-entity-2="Actuator" data-source-line="49" data-uid="lnk14" id="link_MockActuator_Actuator"><path codeLine="49" d="M382.02,501.54 C387.73,522.39 397.46,543.88 414,558.38 C448.02,588.19 558.6794,601.0389 628.7894,606.7489" fill="none" id="MockActuator-to-Actuator" style="stroke:#181818;stroke-width:1;"/><polygon fill="none" points="646.73,608.21,629.2765,600.7687,628.3024,612.7291,646.73,608.21" style="stroke:#181818;stroke-width:1;"/><text fill="#000000" font-family="sans-serif" font-size="13" lengthAdjust="spacing" textLength="76.9082" x="415" y="554.4469">implements</text></g><!--link RealSensor to Sensor--><g class="link" data-entity-1="RealSensor" data-entity-2="Sensor" data-source-line="50" data-uid="lnk15" id="link_RealSensor_Sensor"><path codeLine="50" d="M598.46,485.43 C570.38,509.17 534.67,537.19 500,558.38 C475.65,573.27 463.0494,579.6792 439.8794,589.1992" fill="none" id="RealSensor-to-Sensor" style="stroke:#181818;stroke-width:1;"/><polygon fill="none" points="423.23,596.04,442.1597,594.749,437.5991,583.6494,423.23,596.04" style="stroke:#181818;stroke-width:1;"/><text fill="#000000" font-family="sans-serif" font-size="13" lengthAdjust="spacing" textLength="76.9082" x="523" y="554.4469">implements</text></g><!--link RealActuator to Actuator--><g class="link" data-entity-1="RealActuator" data-entity-2="Actuator" data-source-line="51" data-uid="lnk16" id="link_RealActuator_Actuator"><path codeLine="51" d="M843.89,485.24 C803.96,518.62 766.1799,550.205 734.8399,576.405" fill="none" id="RealActuator-to-Actuator" style="stroke:#181818;stroke-width:1;"/><polygon fill="none" points="721.03,587.95,738.6882,581.0083,730.9916,571.8017,721.03,587.95" style="stroke:#181818;stroke-width:1;"/><text fill="#000000" font-family="sans-serif" font-size="13" lengthAdjust="spacing" textLength="76.9082" x="773" y="554.4469">implements</text></g><!--link Production Environment to GMN20--><g class="link" data-entity-1="Production Environment" data-entity-2="GMN20" data-source-line="54" data-uid="lnk22" id="link_Production Environment_GMN20"><path d="M1043,508.9639 C1043,510.0041 1043,511.0473 1043,512.093 C1043,516.2757 1043,520.4974 1043,524.7181 C1043,533.1596 1043,541.5976 1043,549.7136 C1043,565.9456 1043,580.89 1043,592" fill="none" id="Production Environment-GMN20" style="stroke:#181818;stroke-width:1;stroke-dasharray:7.0,7.0;"/></g><!--SRC=[dLJ1Rjim3BtxAuIUDWpv0HyAx31Wbm73kcC1WP6OHeia6gASeEZoxwESr9ONkzZgaoK-KU-HJ-I3Ynqa22fG9BDF553br6F3OuJtOEdaufFQWMTicWxC0PvGtVr4pkfBFBf4CM3CT-gbKV8P3yogHBz2YYZ_b_toVL9PzhN5epF8hRBEvB-32RdtMOBUSHqq2I6Z3cGEcZ4ofGyVM_LDbW_3QWKA9lUG9_3dwxg2fpxguMes624vAjWZELjXNFo5HiX1j1Jq3Wh56UpSLEedLZFnx4BlXPdLH_0zjchd2MgDaHoZzdX4VniSBXLHLWvoJjAJMtu3Pe6-yGXfDSeeskVStjRsMiGLTHsnouxYVsgGpdSKfG3PXONYl5FYkJbNhlsUoFQca5ltxWy4lz2zFIHxWeJQnOnf1qOuqhPmgbc0Tzi4vG9j8SEDnyMQLh-cAaGdcRCo5nABPVut6XHp8g-7Huo2ktriyeQiDXI2MBhms1BvgM3r-zrixcj7jzVtnOkWaVC4gyvkDh_lrPZ7XSvZgVy5CnuTK5MY2bVrPZNNh7Hlv6eYPHbur2dQpGPMAzw0hKSU9b8PVYUNzzJdnzZjdzb9aySsN99iAMSA9S-gmrhr8ArGOzTOdIWT7cD9NLpXrNKi_W40]--></g></svg>