<svg xmlns="http://www.w3.org/2000/svg" xmlns:xlink="http://www.w3.org/1999/xlink" contentStyleType="text/css" data-diagram-type="CLASS" height="481px" preserveAspectRatio="none" style="width:912px;height:481px;background:#FFFFFF;" version="1.1" viewBox="0 0 912 481" width="912px" zoomAndPan="magnify"><defs/><g><!--class Sensor--><g class="entity" data-entity="Sensor" data-source-line="4" data-uid="ent0002" id="entity_Sensor"><rect fill="#F1F1F1" height="162.0781" rx="2.5" ry="2.5" style="stroke:#181818;stroke-width:0.5;" width="190.9854" x="101.27" y="106.27"/><ellipse cx="168.5185" cy="122.27" fill="#CDCDCD" rx="11" ry="11" style="stroke:#181818;stroke-width:1;"/><path d="M168.6279,117.6137 L167.4717,122.6919 L169.7998,122.6919 L168.6279,117.6137 Z M167.1435,115.3794 L170.1279,115.3794 L173.4873,127.77 L171.0342,127.77 L170.2685,124.7075 L166.9873,124.7075 L166.2373,127.77 L163.7998,127.77 L167.1435,115.3794 Z " fill="#000000"/><text fill="#000000" font-family="sans-serif" font-size="14" font-style="italic" lengthAdjust="spacing" textLength="47.9883" x="189.0185" y="127.1167">Sensor</text><line style="stroke:#181818;stroke-width:0.5;" x1="102.27" x2="291.2554" y1="138.27" y2="138.27"/><ellipse cx="112.27" cy="151.9184" fill="none" rx="3" ry="3" style="stroke:#545454;stroke-width:1;"/><text fill="#000000" font-family="sans-serif" font-size="14" lengthAdjust="spacing" textLength="89.0586" x="121.27" y="155.2651">name: string</text><ellipse cx="112.27" cy="168.2153" fill="none" rx="3" ry="3" style="stroke:#545454;stroke-width:1;"/><text fill="#000000" font-family="sans-serif" font-size="14" lengthAdjust="spacing" textLength="164.9854" x="121.27" y="171.562">last_reading_time: float</text><ellipse cx="112.27" cy="184.5122" fill="none" rx="3" ry="3" style="stroke:#545454;stroke-width:1;"/><text fill="#000000" font-family="sans-serif" font-size="14" lengthAdjust="spacing" textLength="130.5664" x="121.27" y="187.8589">is_connected: bool</text><line style="stroke:#181818;stroke-width:0.5;" x1="102.27" x2="291.2554" y1="195.1606" y2="195.1606"/><ellipse cx="112.27" cy="208.8091" fill="#A6A6A6" rx="3" ry="3" style="stroke:#545454;stroke-width:1;"/><text fill="#000000" font-family="sans-serif" font-size="14" font-style="italic" lengthAdjust="spacing" textLength="128.6182" x="121.27" y="212.1557">read_value(): float</text><ellipse cx="112.27" cy="225.1059" fill="#A6A6A6" rx="3" ry="3" style="stroke:#545454;stroke-width:1;"/><text fill="#000000" font-family="sans-serif" font-size="14" font-style="italic" lengthAdjust="spacing" textLength="124.6875" x="121.27" y="228.4526">get_units(): string</text><ellipse cx="112.27" cy="241.4028" fill="#A6A6A6" rx="3" ry="3" style="stroke:#545454;stroke-width:1;"/><text fill="#000000" font-family="sans-serif" font-size="14" lengthAdjust="spacing" textLength="119.0615" x="121.27" y="244.7495">get_status(): dict</text><ellipse cx="112.27" cy="257.6997" fill="#A6A6A6" rx="3" ry="3" style="stroke:#545454;stroke-width:1;"/><text fill="#000000" font-family="sans-serif" font-size="14" lengthAdjust="spacing" textLength="164.1309" x="121.27" y="261.0464">is_reading_fresh(): bool</text></g><!--class Actuator--><g class="entity" data-entity="Actuator" data-source-line="14" data-uid="ent0003" id="entity_Actuator"><rect fill="#F1F1F1" height="162.0781" rx="2.5" ry="2.5" style="stroke:#181818;stroke-width:0.5;" width="205.7168" x="575.91" y="106.27"/><ellipse cx="644.5052" cy="122.27" fill="#CDCDCD" rx="11" ry="11" style="stroke:#181818;stroke-width:1;"/><path d="M644.6146,117.6137 L643.4583,122.6919 L645.7865,122.6919 L644.6146,117.6137 Z M643.1302,115.3794 L646.1146,115.3794 L649.474,127.77 L647.0208,127.77 L646.2552,124.7075 L642.974,124.7075 L642.224,127.77 L639.7865,127.77 L643.1302,115.3794 Z " fill="#000000"/><text fill="#000000" font-family="sans-serif" font-size="14" font-style="italic" lengthAdjust="spacing" textLength="60.0264" x="665.0052" y="127.1167">Actuator</text><line style="stroke:#181818;stroke-width:0.5;" x1="576.91" x2="780.6268" y1="138.27" y2="138.27"/><ellipse cx="586.91" cy="151.9184" fill="none" rx="3" ry="3" style="stroke:#545454;stroke-width:1;"/><text fill="#000000" font-family="sans-serif" font-size="14" lengthAdjust="spacing" textLength="89.0586" x="595.91" y="155.2651">name: string</text><ellipse cx="586.91" cy="168.2153" fill="none" rx="3" ry="3" style="stroke:#545454;stroke-width:1;"/><text fill="#000000" font-family="sans-serif" font-size="14" lengthAdjust="spacing" textLength="168.5537" x="595.91" y="171.562">current_command: float</text><ellipse cx="586.91" cy="184.5122" fill="none" rx="3" ry="3" style="stroke:#545454;stroke-width:1;"/><text fill="#000000" font-family="sans-serif" font-size="14" lengthAdjust="spacing" textLength="113.5996" x="595.91" y="187.8589">is_enabled: bool</text><line style="stroke:#181818;stroke-width:0.5;" x1="576.91" x2="780.6268" y1="195.1606" y2="195.1606"/><ellipse cx="586.91" cy="208.8091" fill="#A6A6A6" rx="3" ry="3" style="stroke:#545454;stroke-width:1;"/><text fill="#000000" font-family="sans-serif" font-size="14" font-style="italic" lengthAdjust="spacing" textLength="162.8115" x="595.91" y="212.1557">set_output(value): bool</text><ellipse cx="586.91" cy="225.1059" fill="#A6A6A6" rx="3" ry="3" style="stroke:#545454;stroke-width:1;"/><text fill="#000000" font-family="sans-serif" font-size="14" font-style="italic" lengthAdjust="spacing" textLength="179.7168" x="595.91" y="228.4526">get_output_range(): tuple</text><ellipse cx="586.91" cy="241.4028" fill="#A6A6A6" rx="3" ry="3" style="stroke:#545454;stroke-width:1;"/><text fill="#000000" font-family="sans-serif" font-size="14" lengthAdjust="spacing" textLength="119.0615" x="595.91" y="244.7495">get_status(): dict</text><ellipse cx="586.91" cy="257.6997" fill="#A6A6A6" rx="3" ry="3" style="stroke:#545454;stroke-width:1;"/><text fill="#000000" font-family="sans-serif" font-size="14" lengthAdjust="spacing" textLength="165.9287" x="595.91" y="261.0464">emergency_stop(): void</text></g><!--class TemperatureSensor--><g class="entity" data-entity="TemperatureSensor" data-source-line="24" data-uid="ent0004" id="entity_TemperatureSensor"><rect fill="#F1F1F1" height="129.4844" rx="2.5" ry="2.5" style="stroke:#181818;stroke-width:0.5;" width="187.5332" x="7" y="336.5"/><ellipse cx="29.2791" cy="352.5" fill="#C2C2C2" rx="11" ry="11" style="stroke:#181818;stroke-width:1;"/><path d="M32.2479,358.1406 Q31.6697,358.4375 31.0291,358.5781 Q30.3885,358.7344 29.6854,358.7344 Q27.1854,358.7344 25.8572,357.0938 Q24.5447,355.4375 24.5447,352.3125 Q24.5447,349.1875 25.8572,347.5313 Q27.1854,345.875 29.6854,345.875 Q30.3885,345.875 31.0291,346.0313 Q31.6854,346.1875 32.2479,346.4844 L32.2479,349.2031 Q31.6229,348.625 31.0291,348.3594 Q30.4354,348.0781 29.8104,348.0781 Q28.4666,348.0781 27.7791,349.1563 Q27.0916,350.2188 27.0916,352.3125 Q27.0916,354.4063 27.7791,355.4844 Q28.4666,356.5469 29.8104,356.5469 Q30.4354,356.5469 31.0291,356.2813 Q31.6229,356 32.2479,355.4219 L32.2479,358.1406 Z " fill="#000000"/><text fill="#000000" font-family="sans-serif" font-size="14" lengthAdjust="spacing" textLength="139.3574" x="44.8967" y="357.3467">TemperatureSensor</text><line style="stroke:#181818;stroke-width:0.5;" x1="8" x2="193.5332" y1="368.5" y2="368.5"/><ellipse cx="18" cy="382.1484" fill="none" rx="3" ry="3" style="stroke:#545454;stroke-width:1;"/><text fill="#000000" font-family="sans-serif" font-size="14" lengthAdjust="spacing" textLength="134.0254" x="27" y="385.4951">sensor_type: string</text><ellipse cx="18" cy="398.4453" fill="none" rx="3" ry="3" style="stroke:#545454;stroke-width:1;"/><text fill="#000000" font-family="sans-serif" font-size="14" lengthAdjust="spacing" textLength="161.5332" x="27" y="401.792">calibration_offset: float</text><line style="stroke:#181818;stroke-width:0.5;" x1="8" x2="193.5332" y1="409.0938" y2="409.0938"/><ellipse cx="18" cy="422.7422" fill="#A6A6A6" rx="3" ry="3" style="stroke:#545454;stroke-width:1;"/><text fill="#000000" font-family="sans-serif" font-size="14" lengthAdjust="spacing" textLength="128.6182" x="27" y="426.0889">read_value(): float</text><ellipse cx="18" cy="439.0391" fill="#A6A6A6" rx="3" ry="3" style="stroke:#545454;stroke-width:1;"/><text fill="#000000" font-family="sans-serif" font-size="14" lengthAdjust="spacing" textLength="124.6875" x="27" y="442.3857">get_units(): string</text><ellipse cx="18" cy="455.3359" fill="#A6A6A6" rx="3" ry="3" style="stroke:#545454;stroke-width:1;"/><text fill="#000000" font-family="sans-serif" font-size="14" lengthAdjust="spacing" textLength="147.7246" x="27" y="458.6826">calibrate(temp): void</text></g><!--class ServoMotor--><g class="entity" data-entity="ServoMotor" data-source-line="32" data-uid="ent0005" id="entity_ServoMotor"><rect fill="#F1F1F1" height="145.7813" rx="2.5" ry="2.5" style="stroke:#181818;stroke-width:0.5;" width="221.043" x="444.25" y="328.35"/><ellipse cx="510.2407" cy="344.35" fill="#C2C2C2" rx="11" ry="11" style="stroke:#181818;stroke-width:1;"/><path d="M513.2095,349.9906 Q512.6313,350.2875 511.9907,350.4281 Q511.3501,350.5844 510.647,350.5844 Q508.147,350.5844 506.8188,348.9438 Q505.5063,347.2875 505.5063,344.1625 Q505.5063,341.0375 506.8188,339.3813 Q508.147,337.725 510.647,337.725 Q511.3501,337.725 511.9907,337.8813 Q512.647,338.0375 513.2095,338.3344 L513.2095,341.0531 Q512.5845,340.475 511.9907,340.2094 Q511.397,339.9281 510.772,339.9281 Q509.4282,339.9281 508.7407,341.0063 Q508.0532,342.0688 508.0532,344.1625 Q508.0532,346.2563 508.7407,347.3344 Q509.4282,348.3969 510.772,348.3969 Q511.397,348.3969 511.9907,348.1313 Q512.5845,347.85 513.2095,347.2719 L513.2095,349.9906 Z " fill="#000000"/><text fill="#000000" font-family="sans-serif" font-size="14" lengthAdjust="spacing" textLength="80.5615" x="530.7407" y="349.1967">ServoMotor</text><line style="stroke:#181818;stroke-width:0.5;" x1="445.25" x2="664.293" y1="360.35" y2="360.35"/><ellipse cx="455.25" cy="373.9984" fill="none" rx="3" ry="3" style="stroke:#545454;stroke-width:1;"/><text fill="#000000" font-family="sans-serif" font-size="14" lengthAdjust="spacing" textLength="112.8613" x="464.25" y="377.3451">min_angle: float</text><ellipse cx="455.25" cy="390.2953" fill="none" rx="3" ry="3" style="stroke:#545454;stroke-width:1;"/><text fill="#000000" font-family="sans-serif" font-size="14" lengthAdjust="spacing" textLength="116.9629" x="464.25" y="393.642">max_angle: float</text><ellipse cx="455.25" cy="406.5922" fill="none" rx="3" ry="3" style="stroke:#545454;stroke-width:1;"/><text fill="#000000" font-family="sans-serif" font-size="14" lengthAdjust="spacing" textLength="154.1299" x="464.25" y="409.9389">current_position: float</text><line style="stroke:#181818;stroke-width:0.5;" x1="445.25" x2="664.293" y1="417.2406" y2="417.2406"/><ellipse cx="455.25" cy="430.8891" fill="#A6A6A6" rx="3" ry="3" style="stroke:#545454;stroke-width:1;"/><text fill="#000000" font-family="sans-serif" font-size="14" lengthAdjust="spacing" textLength="163.4131" x="464.25" y="434.2357">set_output(angle): bool</text><ellipse cx="455.25" cy="447.1859" fill="#A6A6A6" rx="3" ry="3" style="stroke:#545454;stroke-width:1;"/><text fill="#000000" font-family="sans-serif" font-size="14" lengthAdjust="spacing" textLength="179.7168" x="464.25" y="450.5326">get_output_range(): tuple</text><ellipse cx="455.25" cy="463.4828" fill="#A6A6A6" rx="3" ry="3" style="stroke:#545454;stroke-width:1;"/><text fill="#000000" font-family="sans-serif" font-size="14" lengthAdjust="spacing" textLength="195.043" x="464.25" y="466.8295">get_current_position(): float</text></g><!--class PressureSensor--><g class="entity" data-entity="PressureSensor" data-source-line="41" data-uid="ent0006" id="entity_PressureSensor"><rect fill="#F1F1F1" height="96.8906" rx="2.5" ry="2.5" style="stroke:#181818;stroke-width:0.5;" width="179.7129" x="229.91" y="352.79"/><ellipse cx="262.4974" cy="368.79" fill="#C2C2C2" rx="11" ry="11" style="stroke:#181818;stroke-width:1;"/><path d="M265.4661,374.4306 Q264.888,374.7275 264.2474,374.8681 Q263.6067,375.0244 262.9036,375.0244 Q260.4036,375.0244 259.0755,373.3837 Q257.763,371.7275 257.763,368.6025 Q257.763,365.4775 259.0755,363.8212 Q260.4036,362.165 262.9036,362.165 Q263.6067,362.165 264.2474,362.3212 Q264.9036,362.4775 265.4661,362.7744 L265.4661,365.4931 Q264.8411,364.915 264.2474,364.6494 Q263.6536,364.3681 263.0286,364.3681 Q261.6849,364.3681 260.9974,365.4462 Q260.3099,366.5087 260.3099,368.6025 Q260.3099,370.6962 260.9974,371.7744 Q261.6849,372.8369 263.0286,372.8369 Q263.6536,372.8369 264.2474,372.5712 Q264.8411,372.29 265.4661,371.7119 L265.4661,374.4306 Z " fill="#000000"/><text fill="#000000" font-family="sans-serif" font-size="14" lengthAdjust="spacing" textLength="108.6299" x="280.4057" y="373.6367">PressureSensor</text><line style="stroke:#181818;stroke-width:0.5;" x1="230.91" x2="408.6229" y1="384.79" y2="384.79"/><ellipse cx="240.91" cy="398.4384" fill="none" rx="3" ry="3" style="stroke:#545454;stroke-width:1;"/><text fill="#000000" font-family="sans-serif" font-size="14" lengthAdjust="spacing" textLength="153.7129" x="249.91" y="401.7851">pressure_range: tuple</text><line style="stroke:#181818;stroke-width:0.5;" x1="230.91" x2="408.6229" y1="409.0869" y2="409.0869"/><ellipse cx="240.91" cy="422.7353" fill="#A6A6A6" rx="3" ry="3" style="stroke:#545454;stroke-width:1;"/><text fill="#000000" font-family="sans-serif" font-size="14" lengthAdjust="spacing" textLength="128.6182" x="249.91" y="426.082">read_value(): float</text><ellipse cx="240.91" cy="439.0322" fill="#A6A6A6" rx="3" ry="3" style="stroke:#545454;stroke-width:1;"/><text fill="#000000" font-family="sans-serif" font-size="14" lengthAdjust="spacing" textLength="124.6875" x="249.91" y="442.3789">get_units(): string</text></g><!--class StepperMotor--><g class="entity" data-entity="StepperMotor" data-source-line="47" data-uid="ent0007" id="entity_StepperMotor"><rect fill="#F1F1F1" height="113.1875" rx="2.5" ry="2.5" style="stroke:#181818;stroke-width:0.5;" width="205.7168" x="699.91" y="344.65"/><ellipse cx="750.7249" cy="360.65" fill="#C2C2C2" rx="11" ry="11" style="stroke:#181818;stroke-width:1;"/><path d="M753.6937,366.2906 Q753.1156,366.5875 752.4749,366.7281 Q751.8343,366.8844 751.1312,366.8844 Q748.6312,366.8844 747.3031,365.2438 Q745.9906,363.5875 745.9906,360.4625 Q745.9906,357.3375 747.3031,355.6813 Q748.6312,354.025 751.1312,354.025 Q751.8343,354.025 752.4749,354.1813 Q753.1312,354.3375 753.6937,354.6344 L753.6937,357.3531 Q753.0687,356.775 752.4749,356.5094 Q751.8812,356.2281 751.2562,356.2281 Q749.9124,356.2281 749.2249,357.3063 Q748.5374,358.3688 748.5374,360.4625 Q748.5374,362.5563 749.2249,363.6344 Q749.9124,364.6969 751.2562,364.6969 Q751.8812,364.6969 752.4749,364.4313 Q753.0687,364.15 753.6937,363.5719 L753.6937,366.2906 Z " fill="#000000"/><text fill="#000000" font-family="sans-serif" font-size="14" lengthAdjust="spacing" textLength="95.5869" x="771.2249" y="365.4967">StepperMotor</text><line style="stroke:#181818;stroke-width:0.5;" x1="700.91" x2="904.6268" y1="376.65" y2="376.65"/><ellipse cx="710.91" cy="390.2984" fill="none" rx="3" ry="3" style="stroke:#545454;stroke-width:1;"/><text fill="#000000" font-family="sans-serif" font-size="14" lengthAdjust="spacing" textLength="173.0518" x="719.91" y="393.6451">steps_per_revolution: int</text><ellipse cx="710.91" cy="406.5953" fill="none" rx="3" ry="3" style="stroke:#545454;stroke-width:1;"/><text fill="#000000" font-family="sans-serif" font-size="14" lengthAdjust="spacing" textLength="115.7598" x="719.91" y="409.942">current_step: int</text><line style="stroke:#181818;stroke-width:0.5;" x1="700.91" x2="904.6268" y1="417.2438" y2="417.2438"/><ellipse cx="710.91" cy="430.8922" fill="#A6A6A6" rx="3" ry="3" style="stroke:#545454;stroke-width:1;"/><text fill="#000000" font-family="sans-serif" font-size="14" lengthAdjust="spacing" textLength="162.1484" x="719.91" y="434.2389">set_output(steps): bool</text><ellipse cx="710.91" cy="447.1891" fill="#A6A6A6" rx="3" ry="3" style="stroke:#545454;stroke-width:1;"/><text fill="#000000" font-family="sans-serif" font-size="14" lengthAdjust="spacing" textLength="179.7168" x="719.91" y="450.5357">get_output_range(): tuple</text></g><g class="entity" data-entity="GMN12" data-source-line="59" data-uid="ent0013" id="entity_GMN12"><path d="M86.17,6 L86.17,46.2656 A0,0 0 0 0 86.17,46.2656 L192.77,46.2656 L196.77,105.88 L200.77,46.2656 L307.3624,46.2656 A0,0 0 0 0 307.3624,46.2656 L307.3624,16 L297.3624,6 L86.17,6 A0,0 0 0 0 86.17,6" fill="#FAFAFA" style="stroke:#181818;stroke-width:0.5;"/><path d="M297.3624,6 L297.3624,16 L307.3624,16 L297.3624,6" fill="#FAFAFA" style="stroke:#181818;stroke-width:0.5;"/><text fill="#000000" font-family="sans-serif" font-size="13" lengthAdjust="spacing" textLength="172.1802" x="92.17" y="23.0669">Abstract interface ensures</text><text fill="#000000" font-family="sans-serif" font-size="13" lengthAdjust="spacing" textLength="200.1924" x="92.17" y="38.1997">all sensors work the same way</text></g><g class="entity" data-entity="GMN15" data-source-line="60" data-uid="ent0016" id="entity_GMN15"><path d="M562.31,6 L562.31,46.2656 A0,0 0 0 0 562.31,46.2656 L674.77,46.2656 L678.77,105.88 L682.77,46.2656 L795.2329,46.2656 A0,0 0 0 0 795.2329,46.2656 L795.2329,16 L785.2329,6 L562.31,6 A0,0 0 0 0 562.31,6" fill="#FAFAFA" style="stroke:#181818;stroke-width:0.5;"/><path d="M785.2329,6 L785.2329,16 L795.2329,16 L785.2329,6" fill="#FAFAFA" style="stroke:#181818;stroke-width:0.5;"/><text fill="#000000" font-family="sans-serif" font-size="13" lengthAdjust="spacing" textLength="172.1802" x="568.31" y="23.0669">Abstract interface ensures</text><text fill="#000000" font-family="sans-serif" font-size="13" lengthAdjust="spacing" textLength="211.9229" x="568.31" y="38.1997">all actuators work the same way</text></g><!--reverse link Sensor to TemperatureSensor--><g class="link" data-entity-1="Sensor" data-entity-2="TemperatureSensor" data-source-line="54" data-uid="lnk8" id="link_Sensor_TemperatureSensor"><path codeLine="54" d="M152.9121,285.1259 C142.8321,307.3759 139.46,314.83 129.86,336.02" fill="none" id="Sensor-backto-TemperatureSensor" style="stroke:#181818;stroke-width:1;"/><polygon fill="none" points="160.34,268.73,147.4468,282.65,158.3774,287.6019,160.34,268.73" style="stroke:#181818;stroke-width:1;"/></g><!--reverse link Sensor to PressureSensor--><g class="link" data-entity-1="Sensor" data-entity-2="PressureSensor" data-source-line="55" data-uid="lnk9" id="link_Sensor_PressureSensor"><path codeLine="55" d="M252.476,284.2976 C268.856,312.5176 277.69,327.74 292.02,352.43" fill="none" id="Sensor-backto-PressureSensor" style="stroke:#181818;stroke-width:1;"/><polygon fill="none" points="243.44,268.73,247.2868,287.3096,257.6652,281.2856,243.44,268.73" style="stroke:#181818;stroke-width:1;"/></g><!--reverse link Actuator to ServoMotor--><g class="link" data-entity-1="Actuator" data-entity-2="ServoMotor" data-source-line="56" data-uid="lnk10" id="link_Actuator_ServoMotor"><path codeLine="56" d="M622.6224,284.2676 C611.2524,303.7076 608.25,308.83 597.11,327.87" fill="none" id="Actuator-backto-ServoMotor" style="stroke:#181818;stroke-width:1;"/><polygon fill="none" points="631.71,268.73,617.4432,281.2384,627.8016,287.2968,631.71,268.73" style="stroke:#181818;stroke-width:1;"/></g><!--reverse link Actuator to StepperMotor--><g class="link" data-entity-1="Actuator" data-entity-2="StepperMotor" data-source-line="57" data-uid="lnk11" id="link_Actuator_StepperMotor"><path codeLine="57" d="M734.9089,284.2668 C749.6389,309.4468 756.48,321.13 770,344.24" fill="none" id="Actuator-backto-StepperMotor" style="stroke:#181818;stroke-width:1;"/><polygon fill="none" points="725.82,268.73,729.7299,287.2964,740.0878,281.2372,725.82,268.73" style="stroke:#181818;stroke-width:1;"/></g><!--SRC=[bLJBRjim4BphAtXqKEG7Z5po0GKAfCS2n5fQoKH8hi1TsJNI_7jNiYIBKjoakcbdNpD3abzTR251C84YbST40Osa3WkU4Jv2HMSN6rE3PomAEB0aACMK7fZD2qQcPDuAezyt4o7WtcY6LemXJHER42eDMN4zNdi26M77jgGOiHIizkP0v4VWRPhqRlfgUmBVuUuXhruaDIYsYqwupyasw14Ma6w0AbSkPa-BrGdvsCF31kyRdi-bT23_PbfsAM4KvHC2n6h34oCS_7sMh6jI9sqdku7hmxt4Pawq2M8pY29Tw_4plXWmDHZBYyBKzk29NDMplPByYQ75f8K9Lxxoy6lbqcv8WtS7hN4KBTMraiXvt_Vklc5JJzo9RhHPymNJYRxJqetWebKf_Efm1VZzKNWogYLs_U8vkl1XgCrz-8huw_utvZE77thUUAjpEuQllVFE_wVaJIt1LbtDzM8DijMmNe0J-UwgWejhXVgyPNoXpT3YgzheDYFJfp-FZzk3bg6vDiLyzGRmPluQMF0iYaYYRncrXkhfZTgRv-bEAo5CDPHe5D99_2k2z-CfPtEcz6haY8RrafipNB9syzZF6yAO-a7Blm00]--></g></svg>