<svg xmlns="http://www.w3.org/2000/svg" xmlns:xlink="http://www.w3.org/1999/xlink" contentStyleType="text/css" data-diagram-type="DESCRIPTION" height="649px" preserveAspectRatio="none" style="width:745px;height:649px;background:#FFFFFF;" version="1.1" viewBox="0 0 745 649" width="745px" zoomAndPan="magnify"><defs/><g><!--cluster Front-end--><g class="cluster" data-entity="Front-end" data-source-line="4" data-uid="ent0002" id="cluster_Front-end"><path d="M8.5,6 L87.5391,6 A3.75,3.75 0 0 1 90.0391,8.5 L97.0391,28.2969 L331.5,28.2969 A2.5,2.5 0 0 1 334,30.7969 L334,100.79 A2.5,2.5 0 0 1 331.5,103.29 L8.5,103.29 A2.5,2.5 0 0 1 6,100.79 L6,8.5 A2.5,2.5 0 0 1 8.5,6" fill="none" style="stroke:#000000;stroke-width:1.5;"/><line style="stroke:#000000;stroke-width:1.5;" x1="6" x2="97.0391" y1="28.2969" y2="28.2969"/><text fill="#000000" font-family="sans-serif" font-size="14" font-weight="bold" lengthAdjust="spacing" textLength="78.0391" x="10" y="20.9951">Front-end</text></g><!--cluster Back-end--><g class="cluster" data-entity="Back-end" data-source-line="9" data-uid="ent0005" id="cluster_Back-end"><path d="M67.5,152.29 L141.5215,152.29 A3.75,3.75 0 0 1 144.0215,154.79 L151.0215,174.5869 L471.5,174.5869 A2.5,2.5 0 0 1 474,177.0869 L474,493.68 A2.5,2.5 0 0 1 471.5,496.18 L67.5,496.18 A2.5,2.5 0 0 1 65,493.68 L65,154.79 A2.5,2.5 0 0 1 67.5,152.29" fill="none" style="stroke:#000000;stroke-width:1.5;"/><line style="stroke:#000000;stroke-width:1.5;" x1="65" x2="151.0215" y1="174.5869" y2="174.5869"/><text fill="#000000" font-family="sans-serif" font-size="14" font-weight="bold" lengthAdjust="spacing" textLength="73.0215" x="69" y="167.2851">Back-end</text></g><!--cluster Infrastructure--><g class="cluster" data-entity="Infrastructure" data-source-line="16" data-uid="ent0010" id="cluster_Infrastructure"><path d="M137.5,545.18 L249.3721,545.18 A3.75,3.75 0 0 1 251.8721,547.68 L258.8721,567.4769 L735.5,567.4769 A2.5,2.5 0 0 1 738,569.9769 L738,639.98 A2.5,2.5 0 0 1 735.5,642.48 L137.5,642.48 A2.5,2.5 0 0 1 135,639.98 L135,547.68 A2.5,2.5 0 0 1 137.5,545.18" fill="none" style="stroke:#000000;stroke-width:1.5;"/><line style="stroke:#000000;stroke-width:1.5;" x1="135" x2="258.8721" y1="567.4769" y2="567.4769"/><text fill="#000000" font-family="sans-serif" font-size="14" font-weight="bold" lengthAdjust="spacing" textLength="110.8721" x="139" y="560.1751">Infrastructure</text></g><!--entity User Interface--><g class="entity" data-entity="User Interface" data-source-line="5" data-uid="ent0003" id="entity_User Interface"><rect fill="#F1F1F1" height="46.2969" rx="2.5" ry="2.5" style="stroke:#181818;stroke-width:0.5;" width="139.0391" x="178.48" y="41"/><rect fill="#F1F1F1" height="10" style="stroke:#181818;stroke-width:0.5;" width="15" x="297.5191" y="46"/><rect fill="#F1F1F1" height="2" style="stroke:#181818;stroke-width:0.5;" width="4" x="295.5191" y="48"/><rect fill="#F1F1F1" height="2" style="stroke:#181818;stroke-width:0.5;" width="4" x="295.5191" y="52"/><text fill="#000000" font-family="sans-serif" font-size="14" lengthAdjust="spacing" textLength="99.0391" x="193.48" y="73.9951">User Interface</text></g><!--entity Client Logic--><g class="entity" data-entity="Client Logic" data-source-line="6" data-uid="ent0004" id="entity_Client Logic"><rect fill="#F1F1F1" height="46.2969" rx="2.5" ry="2.5" style="stroke:#181818;stroke-width:0.5;" width="121.8193" x="22.09" y="41"/><rect fill="#F1F1F1" height="10" style="stroke:#181818;stroke-width:0.5;" width="15" x="123.9093" y="46"/><rect fill="#F1F1F1" height="2" style="stroke:#181818;stroke-width:0.5;" width="4" x="121.9093" y="48"/><rect fill="#F1F1F1" height="2" style="stroke:#181818;stroke-width:0.5;" width="4" x="121.9093" y="52"/><text fill="#000000" font-family="sans-serif" font-size="14" lengthAdjust="spacing" textLength="81.8193" x="37.09" y="73.9951">Client Logic</text></g><!--entity API Gateway--><g class="entity" data-entity="API Gateway" data-source-line="10" data-uid="ent0006" id="entity_API Gateway"><rect fill="#F1F1F1" height="46.2969" rx="2.5" ry="2.5" style="stroke:#181818;stroke-width:0.5;" width="128.4434" x="183.78" y="187.29"/><rect fill="#F1F1F1" height="10" style="stroke:#181818;stroke-width:0.5;" width="15" x="292.2234" y="192.29"/><rect fill="#F1F1F1" height="2" style="stroke:#181818;stroke-width:0.5;" width="4" x="290.2234" y="194.29"/><rect fill="#F1F1F1" height="2" style="stroke:#181818;stroke-width:0.5;" width="4" x="290.2234" y="198.29"/><text fill="#000000" font-family="sans-serif" font-size="14" lengthAdjust="spacing" textLength="88.4434" x="198.78" y="220.2851">API Gateway</text></g><!--entity Authentication Service--><g class="entity" data-entity="Authentication Service" data-source-line="11" data-uid="ent0007" id="entity_Authentication Service"><rect fill="#F1F1F1" height="46.2969" rx="2.5" ry="2.5" style="stroke:#181818;stroke-width:0.5;" width="198.9629" x="80.52" y="310.59"/><rect fill="#F1F1F1" height="10" style="stroke:#181818;stroke-width:0.5;" width="15" x="259.4829" y="315.59"/><rect fill="#F1F1F1" height="2" style="stroke:#181818;stroke-width:0.5;" width="4" x="257.4829" y="317.59"/><rect fill="#F1F1F1" height="2" style="stroke:#181818;stroke-width:0.5;" width="4" x="257.4829" y="321.59"/><text fill="#000000" font-family="sans-serif" font-size="14" lengthAdjust="spacing" textLength="158.9629" x="95.52" y="343.5851">Authentication Service</text></g><!--entity Business Logic--><g class="entity" data-entity="Business Logic" data-source-line="12" data-uid="ent0008" id="entity_Business Logic"><rect fill="#F1F1F1" height="46.2969" rx="2.5" ry="2.5" style="stroke:#181818;stroke-width:0.5;" width="143.0244" x="314.49" y="310.59"/><rect fill="#F1F1F1" height="10" style="stroke:#181818;stroke-width:0.5;" width="15" x="437.5144" y="315.59"/><rect fill="#F1F1F1" height="2" style="stroke:#181818;stroke-width:0.5;" width="4" x="435.5144" y="317.59"/><rect fill="#F1F1F1" height="2" style="stroke:#181818;stroke-width:0.5;" width="4" x="435.5144" y="321.59"/><text fill="#000000" font-family="sans-serif" font-size="14" lengthAdjust="spacing" textLength="103.0244" x="329.49" y="343.5851">Business Logic</text></g><!--entity Data Access Layer--><g class="entity" data-entity="Data Access Layer" data-source-line="13" data-uid="ent0009" id="entity_Data Access Layer"><rect fill="#F1F1F1" height="46.2969" rx="2.5" ry="2.5" style="stroke:#181818;stroke-width:0.5;" width="169.5342" x="113.23" y="433.89"/><rect fill="#F1F1F1" height="10" style="stroke:#181818;stroke-width:0.5;" width="15" x="262.7642" y="438.89"/><rect fill="#F1F1F1" height="2" style="stroke:#181818;stroke-width:0.5;" width="4" x="260.7642" y="440.89"/><rect fill="#F1F1F1" height="2" style="stroke:#181818;stroke-width:0.5;" width="4" x="260.7642" y="444.89"/><text fill="#000000" font-family="sans-serif" font-size="14" lengthAdjust="spacing" textLength="129.5342" x="128.23" y="466.8851">Data Access Layer</text></g><!--entity Database--><g class="entity" data-entity="Database" data-source-line="17" data-uid="ent0011" id="entity_Database"><rect fill="#F1F1F1" height="46.2969" rx="2.5" ry="2.5" style="stroke:#181818;stroke-width:0.5;" width="106.8008" x="150.6" y="580.18"/><rect fill="#F1F1F1" height="10" style="stroke:#181818;stroke-width:0.5;" width="15" x="237.4008" y="585.18"/><rect fill="#F1F1F1" height="2" style="stroke:#181818;stroke-width:0.5;" width="4" x="235.4008" y="587.18"/><rect fill="#F1F1F1" height="2" style="stroke:#181818;stroke-width:0.5;" width="4" x="235.4008" y="591.18"/><text fill="#000000" font-family="sans-serif" font-size="14" lengthAdjust="spacing" textLength="66.8008" x="165.6" y="613.1751">Database</text></g><!--entity File Storage--><g class="entity" data-entity="File Storage" data-source-line="18" data-uid="ent0012" id="entity_File Storage"><rect fill="#F1F1F1" height="46.2969" rx="2.5" ry="2.5" style="stroke:#181818;stroke-width:0.5;" width="123.6719" x="292.16" y="580.18"/><rect fill="#F1F1F1" height="10" style="stroke:#181818;stroke-width:0.5;" width="15" x="395.8319" y="585.18"/><rect fill="#F1F1F1" height="2" style="stroke:#181818;stroke-width:0.5;" width="4" x="393.8319" y="587.18"/><rect fill="#F1F1F1" height="2" style="stroke:#181818;stroke-width:0.5;" width="4" x="393.8319" y="591.18"/><text fill="#000000" font-family="sans-serif" font-size="14" lengthAdjust="spacing" textLength="83.6719" x="307.16" y="613.1751">File Storage</text></g><!--entity Cache--><g class="entity" data-entity="Cache" data-source-line="19" data-uid="ent0013" id="entity_Cache"><rect fill="#F1F1F1" height="46.2969" rx="2.5" ry="2.5" style="stroke:#181818;stroke-width:0.5;" width="83.5381" x="451.23" y="580.18"/><rect fill="#F1F1F1" height="10" style="stroke:#181818;stroke-width:0.5;" width="15" x="514.7681" y="585.18"/><rect fill="#F1F1F1" height="2" style="stroke:#181818;stroke-width:0.5;" width="4" x="512.7681" y="587.18"/><rect fill="#F1F1F1" height="2" style="stroke:#181818;stroke-width:0.5;" width="4" x="512.7681" y="591.18"/><text fill="#000000" font-family="sans-serif" font-size="14" lengthAdjust="spacing" textLength="43.5381" x="466.23" y="613.1751">Cache</text></g><!--entity Message Queue--><g class="entity" data-entity="Message Queue" data-source-line="20" data-uid="ent0014" id="entity_Message Queue"><rect fill="#F1F1F1" height="46.2969" rx="2.5" ry="2.5" style="stroke:#181818;stroke-width:0.5;" width="151.8018" x="570.1" y="580.18"/><rect fill="#F1F1F1" height="10" style="stroke:#181818;stroke-width:0.5;" width="15" x="701.9018" y="585.18"/><rect fill="#F1F1F1" height="2" style="stroke:#181818;stroke-width:0.5;" width="4" x="699.9018" y="587.18"/><rect fill="#F1F1F1" height="2" style="stroke:#181818;stroke-width:0.5;" width="4" x="699.9018" y="591.18"/><text fill="#000000" font-family="sans-serif" font-size="14" lengthAdjust="spacing" textLength="111.8018" x="585.1" y="613.1751">Message Queue</text></g><!--link User Interface to API Gateway--><g class="link" data-entity-1="User Interface" data-entity-2="API Gateway" data-source-line="23" data-uid="lnk15" id="link_User Interface_API Gateway"><path d="M248,87.69 C248,114.8 248,154.02 248,181.05" fill="none" id="User Interface-to-API Gateway" style="stroke:#181818;stroke-width:1;"/><polygon fill="#181818" points="248,187.05,252,178.05,248,182.05,244,178.05,248,187.05" style="stroke:#181818;stroke-width:1;"/><text fill="#000000" font-family="sans-serif" font-size="13" lengthAdjust="spacing" textLength="97.792" x="249" y="132.3569">HTTP Requests</text></g><!--link API Gateway to Authentication Service--><g class="link" data-entity-1="API Gateway" data-entity-2="Authentication Service" data-source-line="24" data-uid="lnk16" id="link_API Gateway_Authentication Service"><path d="M231.75,234.09 C225.58,243.08 218.67,253.64 213,263.59 C204.37,278.73 198.3927,291.0087 192.2127,304.7387" fill="none" id="API Gateway-to-Authentication Service" style="stroke:#181818;stroke-width:1;"/><polygon fill="#181818" points="189.75,310.21,197.0916,303.6448,191.8022,305.6506,189.7965,300.3613,189.75,310.21" style="stroke:#181818;stroke-width:1;"/><text fill="#000000" font-family="sans-serif" font-size="13" lengthAdjust="spacing" textLength="71.8809" x="214" y="276.6569">Verify User</text></g><!--link API Gateway to Business Logic--><g class="link" data-entity-1="API Gateway" data-entity-2="Business Logic" data-source-line="25" data-uid="lnk17" id="link_API Gateway_Business Logic"><path d="M273.63,233.97 C298.42,255.76 331.2538,284.6184 355.9938,306.3684" fill="none" id="API Gateway-to-Business Logic" style="stroke:#181818;stroke-width:1;"/><polygon fill="#181818" points="360.5,310.33,356.3818,301.3835,356.7448,307.0287,351.0996,307.3917,360.5,310.33" style="stroke:#181818;stroke-width:1;"/><text fill="#000000" font-family="sans-serif" font-size="13" lengthAdjust="spacing" textLength="114.1245" x="327" y="276.6569">Process Requests</text></g><!--link Business Logic to Data Access Layer--><g class="link" data-entity-1="Business Logic" data-entity-2="Data Access Layer" data-source-line="26" data-uid="lnk18" id="link_Business Logic_Data Access Layer"><path d="M314.25,354.21 C292.63,362.17 269.7,372.88 251,386.89 C234.29,399.4 223.4028,413.4363 213.9528,428.4063" fill="none" id="Business Logic-to-Data Access Layer" style="stroke:#181818;stroke-width:1;"/><polygon fill="#181818" points="210.75,433.48,218.9367,428.0047,213.419,429.252,212.1718,423.7343,210.75,433.48" style="stroke:#181818;stroke-width:1;"/><text fill="#000000" font-family="sans-serif" font-size="13" lengthAdjust="spacing" textLength="74.6802" x="252" y="399.9569">Query Data</text></g><!--link Data Access Layer to Database--><g class="link" data-entity-1="Data Access Layer" data-entity-2="Database" data-source-line="27" data-uid="lnk19" id="link_Data Access Layer_Database"><path d="M198.94,480.58 C200.06,507.69 201.6894,546.9152 202.8194,573.9452" fill="none" id="Data Access Layer-to-Database" style="stroke:#181818;stroke-width:1;"/><polygon fill="#181818" points="203.07,579.94,206.6906,570.7808,202.8612,574.9444,198.6976,571.1149,203.07,579.94" style="stroke:#181818;stroke-width:1;"/><text fill="#000000" font-family="sans-serif" font-size="13" lengthAdjust="spacing" textLength="73.5122" x="202" y="525.2469">SQL/NoSQL</text></g><!--link Business Logic to File Storage--><g class="link" data-entity-1="Business Logic" data-entity-2="File Storage" data-source-line="28" data-uid="lnk20" id="link_Business Logic_File Storage"><path d="M383.33,357.09 C377.3,407.46 363.4427,523.4025 357.4027,573.8925" fill="none" id="Business Logic-to-File Storage" style="stroke:#181818;stroke-width:1;"/><polygon fill="#181818" points="356.69,579.85,361.7307,571.3888,357.2839,574.8854,353.7873,570.4386,356.69,579.85" style="stroke:#181818;stroke-width:1;"/><text fill="#000000" font-family="sans-serif" font-size="13" lengthAdjust="spacing" textLength="68.25" x="374" y="461.5969">Store Files</text></g><!--link Business Logic to Cache--><g class="link" data-entity-1="Business Logic" data-entity-2="Cache" data-source-line="29" data-uid="lnk21" id="link_Business Logic_Cache"><path d="M403.84,357.11 C418.44,376.42 438.63,405.6 451,433.89 C472.74,483.59 483.7435,540.742 488.9135,573.822" fill="none" id="Business Logic-to-Cache" style="stroke:#181818;stroke-width:1;"/><polygon fill="#181818" points="489.84,579.75,492.4023,570.2403,489.0679,574.81,484.4983,571.4756,489.84,579.75" style="stroke:#181818;stroke-width:1;"/><text fill="#000000" font-family="sans-serif" font-size="13" lengthAdjust="spacing" textLength="89.8003" x="475" y="461.5969">Fast Retrieval</text></g><!--link Business Logic to Message Queue--><g class="link" data-entity-1="Business Logic" data-entity-2="Message Queue" data-source-line="30" data-uid="lnk22" id="link_Business Logic_Message Queue"><path d="M452.84,357.29 C492.12,373.4 540.32,398.54 573,433.89 C612.7,476.83 631.6051,538.922 639.9151,573.952" fill="none" id="Business Logic-to-Message Queue" style="stroke:#181818;stroke-width:1;"/><polygon fill="#181818" points="641.3,579.79,643.1146,570.1098,640.1459,574.925,635.3306,571.9563,641.3,579.79" style="stroke:#181818;stroke-width:1;"/><text fill="#000000" font-family="sans-serif" font-size="13" lengthAdjust="spacing" textLength="79.8599" x="616" y="461.5969">Async Tasks</text></g><!--SRC=[TP51Jm8n48Nl_HKJxyIx1vD5WvAW0K4lXiDOPjc6fSMPBcHZ_EzETn5PX4lJpBplJTzKLivla74Dw-23BJYi2I9NPEJGaG8NOUVy4d8iXOpPe5tXak1gmC777ld55NmPWFTN8OQXZyGvMfgdqbtfo4SOXQMpS_Dz1FVrSiHcuo4yOAGTrWsOLR5GqbcCBdYO4c_TthDVYVCaykkgfNkC29crJHLhukwieSyPHNFPM37j9oRc0wNr7BYIO1e3gxvzEDgYlJsfQNAPL5HHutiQ57gzssu2k877sMmCB_HPaKGntMwhFvzGqJTYbzUGffm3J_8hCERGHFyRTwffmFzRKbPZSGsfPSu93c2pAjLF9wFhvw3dXI6TJIQzNWbIzTApsbMhTA1_f1aYEzfYUK7T_GwbCgczXHdAIimF]--></g></svg>