<svg xmlns="http://www.w3.org/2000/svg" xmlns:xlink="http://www.w3.org/1999/xlink" contentStyleType="text/css" data-diagram-type="DESCRIPTION" height="228px" preserveAspectRatio="none" style="width:2736px;height:228px;background:#FFFFFF;" version="1.1" viewBox="0 0 2736 228" width="2736px" zoomAndPan="magnify"><defs/><g><!--cluster PWA Sync Architecture--><g class="cluster" data-entity="PWA Sync Architecture" data-source-line="4" data-uid="ent0002" id="cluster_PWA Sync Architecture"><rect fill="none" height="183.3" rx="2.5" ry="2.5" style="stroke:#181818;stroke-width:1;" width="2723" x="7" y="39.5659"/><text fill="#000000" font-family="sans-serif" font-size="14" font-weight="bold" lengthAdjust="spacing" textLength="182.1094" x="1277.4453" y="54.561">PWA Sync Architecture</text></g><!--cluster Client Side--><g class="cluster" data-entity="Client Side" data-source-line="6" data-uid="ent0003" id="cluster_Client Side"><rect fill="none" height="116.3" rx="2.5" ry="2.5" style="stroke:#181818;stroke-width:1;" width="1076" x="1630" y="82.5659"/><text fill="#000000" font-family="sans-serif" font-size="14" font-weight="bold" lengthAdjust="spacing" textLength="85.2988" x="2125.3506" y="97.561">Client Side</text></g><!--cluster Network Layer--><g class="cluster" data-entity="Network Layer" data-source-line="17" data-uid="ent0011" id="cluster_Network Layer"><rect fill="none" height="116.3" rx="2.5" ry="2.5" style="stroke:#181818;stroke-width:1;" width="868" x="738" y="82.5659"/><text fill="#000000" font-family="sans-serif" font-size="14" font-weight="bold" lengthAdjust="spacing" textLength="115.4385" x="1114.2808" y="97.561">Network Layer</text></g><!--cluster Server Side--><g class="cluster" data-entity="Server Side" data-source-line="27" data-uid="ent0018" id="cluster_Server Side"><rect fill="none" height="116.3" rx="2.5" ry="2.5" style="stroke:#181818;stroke-width:1;" width="683" x="31" y="82.5659"/><text fill="#000000" font-family="sans-serif" font-size="14" font-weight="bold" lengthAdjust="spacing" textLength="91.2803" x="326.8599" y="97.561">Server Side</text></g><!--entity sw--><g class="entity" data-entity="sw" data-source-line="7" data-uid="ent0004" id="entity_sw"><rect fill="#F1F1F1" height="46.2969" rx="2.5" ry="2.5" style="stroke:#181818;stroke-width:0.5;" width="146.832" x="2208.58" y="136.5659"/><rect fill="#F1F1F1" height="10" style="stroke:#181818;stroke-width:0.5;" width="15" x="2335.412" y="141.5659"/><rect fill="#F1F1F1" height="2" style="stroke:#181818;stroke-width:0.5;" width="4" x="2333.412" y="143.5659"/><rect fill="#F1F1F1" height="2" style="stroke:#181818;stroke-width:0.5;" width="4" x="2333.412" y="147.5659"/><text fill="#000000" font-family="sans-serif" font-size="14" lengthAdjust="spacing" textLength="106.832" x="2223.58" y="169.561">Service Worker</text></g><!--entity idb--><g class="entity" data-entity="idb" data-source-line="8" data-uid="ent0005" id="entity_idb"><rect fill="#F1F1F1" height="46.2969" rx="2.5" ry="2.5" style="stroke:#181818;stroke-width:0.5;" width="116.6719" x="1928.66" y="136.5659"/><rect fill="#F1F1F1" height="10" style="stroke:#181818;stroke-width:0.5;" width="15" x="2025.3319" y="141.5659"/><rect fill="#F1F1F1" height="2" style="stroke:#181818;stroke-width:0.5;" width="4" x="2023.3319" y="143.5659"/><rect fill="#F1F1F1" height="2" style="stroke:#181818;stroke-width:0.5;" width="4" x="2023.3319" y="147.5659"/><text fill="#000000" font-family="sans-serif" font-size="14" lengthAdjust="spacing" textLength="76.6719" x="1943.66" y="169.561">IndexedDB</text></g><!--entity bg_sync--><g class="entity" data-entity="bg_sync" data-source-line="9" data-uid="ent0006" id="entity_bg_sync"><rect fill="#F1F1F1" height="46.2969" rx="2.5" ry="2.5" style="stroke:#181818;stroke-width:0.5;" width="162.0215" x="2527.99" y="136.5659"/><rect fill="#F1F1F1" height="10" style="stroke:#181818;stroke-width:0.5;" width="15" x="2670.0115" y="141.5659"/><rect fill="#F1F1F1" height="2" style="stroke:#181818;stroke-width:0.5;" width="4" x="2668.0115" y="143.5659"/><rect fill="#F1F1F1" height="2" style="stroke:#181818;stroke-width:0.5;" width="4" x="2668.0115" y="147.5659"/><text fill="#000000" font-family="sans-serif" font-size="14" lengthAdjust="spacing" textLength="122.0215" x="2542.99" y="169.561">Background Sync</text></g><!--entity ui--><g class="entity" data-entity="ui" data-source-line="10" data-uid="ent0007" id="entity_ui"><rect fill="#F1F1F1" height="46.2969" rx="2.5" ry="2.5" style="stroke:#181818;stroke-width:0.5;" width="134.4795" x="1645.76" y="136.5659"/><rect fill="#F1F1F1" height="10" style="stroke:#181818;stroke-width:0.5;" width="15" x="1760.2395" y="141.5659"/><rect fill="#F1F1F1" height="2" style="stroke:#181818;stroke-width:0.5;" width="4" x="1758.2395" y="143.5659"/><rect fill="#F1F1F1" height="2" style="stroke:#181818;stroke-width:0.5;" width="4" x="1758.2395" y="147.5659"/><text fill="#000000" font-family="sans-serif" font-size="14" lengthAdjust="spacing" textLength="94.4795" x="1660.76" y="169.561">App Interface</text></g><!--entity online--><g class="entity" data-entity="online" data-source-line="18" data-uid="ent0012" id="entity_online"><rect fill="#F1F1F1" height="46.2969" rx="2.5" ry="2.5" style="stroke:#181818;stroke-width:0.5;" width="157.6191" x="754.19" y="136.5659"/><rect fill="#F1F1F1" height="10" style="stroke:#181818;stroke-width:0.5;" width="15" x="891.8091" y="141.5659"/><rect fill="#F1F1F1" height="2" style="stroke:#181818;stroke-width:0.5;" width="4" x="889.8091" y="143.5659"/><rect fill="#F1F1F1" height="2" style="stroke:#181818;stroke-width:0.5;" width="4" x="889.8091" y="147.5659"/><text fill="#000000" font-family="sans-serif" font-size="14" lengthAdjust="spacing" textLength="117.6191" x="769.19" y="169.561">Online Detection</text></g><!--entity retry--><g class="entity" data-entity="retry" data-source-line="19" data-uid="ent0013" id="entity_retry"><rect fill="#F1F1F1" height="46.2969" rx="2.5" ry="2.5" style="stroke:#181818;stroke-width:0.5;" width="119.1602" x="1111.42" y="136.5659"/><rect fill="#F1F1F1" height="10" style="stroke:#181818;stroke-width:0.5;" width="15" x="1210.5802" y="141.5659"/><rect fill="#F1F1F1" height="2" style="stroke:#181818;stroke-width:0.5;" width="4" x="1208.5802" y="143.5659"/><rect fill="#F1F1F1" height="2" style="stroke:#181818;stroke-width:0.5;" width="4" x="1208.5802" y="147.5659"/><text fill="#000000" font-family="sans-serif" font-size="14" lengthAdjust="spacing" textLength="79.1602" x="1126.42" y="169.561">Retry Logic</text></g><!--entity conflict--><g class="entity" data-entity="conflict" data-source-line="20" data-uid="ent0014" id="entity_conflict"><rect fill="#F1F1F1" height="46.2969" rx="2.5" ry="2.5" style="stroke:#181818;stroke-width:0.5;" width="171.3389" x="1418.33" y="136.5659"/><rect fill="#F1F1F1" height="10" style="stroke:#181818;stroke-width:0.5;" width="15" x="1569.6689" y="141.5659"/><rect fill="#F1F1F1" height="2" style="stroke:#181818;stroke-width:0.5;" width="4" x="1567.6689" y="143.5659"/><rect fill="#F1F1F1" height="2" style="stroke:#181818;stroke-width:0.5;" width="4" x="1567.6689" y="147.5659"/><text fill="#000000" font-family="sans-serif" font-size="14" lengthAdjust="spacing" textLength="131.3389" x="1433.33" y="169.561">Conflict Resolution</text></g><!--entity sync_api--><g class="entity" data-entity="sync_api" data-source-line="28" data-uid="ent0019" id="entity_sync_api"><rect fill="#F1F1F1" height="46.2969" rx="2.5" ry="2.5" style="stroke:#181818;stroke-width:0.5;" width="100.3408" x="46.83" y="136.5659"/><rect fill="#F1F1F1" height="10" style="stroke:#181818;stroke-width:0.5;" width="15" x="127.1708" y="141.5659"/><rect fill="#F1F1F1" height="2" style="stroke:#181818;stroke-width:0.5;" width="4" x="125.1708" y="143.5659"/><rect fill="#F1F1F1" height="2" style="stroke:#181818;stroke-width:0.5;" width="4" x="125.1708" y="147.5659"/><text fill="#000000" font-family="sans-serif" font-size="14" lengthAdjust="spacing" textLength="60.3408" x="61.83" y="169.561">Sync API</text></g><!--entity server_conflict--><g class="entity" data-entity="server_conflict" data-source-line="29" data-uid="ent0020" id="entity_server_conflict"><rect fill="#F1F1F1" height="46.2969" rx="2.5" ry="2.5" style="stroke:#181818;stroke-width:0.5;" width="152.6836" x="291.66" y="136.5659"/><rect fill="#F1F1F1" height="10" style="stroke:#181818;stroke-width:0.5;" width="15" x="424.3436" y="141.5659"/><rect fill="#F1F1F1" height="2" style="stroke:#181818;stroke-width:0.5;" width="4" x="422.3436" y="143.5659"/><rect fill="#F1F1F1" height="2" style="stroke:#181818;stroke-width:0.5;" width="4" x="422.3436" y="147.5659"/><text fill="#000000" font-family="sans-serif" font-size="14" lengthAdjust="spacing" textLength="112.6836" x="306.66" y="169.561">Conflict Handler</text></g><!--entity db--><g class="entity" data-entity="db" data-source-line="30" data-uid="ent0021" id="entity_db"><rect fill="#F1F1F1" height="46.2969" rx="2.5" ry="2.5" style="stroke:#181818;stroke-width:0.5;" width="115.1885" x="582.41" y="136.5659"/><rect fill="#F1F1F1" height="10" style="stroke:#181818;stroke-width:0.5;" width="15" x="677.5985" y="141.5659"/><rect fill="#F1F1F1" height="2" style="stroke:#181818;stroke-width:0.5;" width="4" x="675.5985" y="143.5659"/><rect fill="#F1F1F1" height="2" style="stroke:#181818;stroke-width:0.5;" width="4" x="675.5985" y="147.5659"/><text fill="#000000" font-family="sans-serif" font-size="14" lengthAdjust="spacing" textLength="75.1885" x="597.41" y="169.561">Data Store</text></g><!--link ui to idb--><g class="link" data-entity-1="ui" data-entity-2="idb" data-source-line="12" data-uid="lnk8" id="link_ui_idb"><path d="M1780.73,159.7159 C1826.05,159.7159 1879.1,159.7159 1922.4,159.7159" fill="none" id="ui-to-idb" style="stroke:#181818;stroke-width:1;"/><polygon fill="#181818" points="1928.4,159.7159,1919.4,155.7159,1923.4,159.7159,1919.4,163.7159,1928.4,159.7159" style="stroke:#181818;stroke-width:1;"/><text fill="#000000" font-family="sans-serif" font-size="13" lengthAdjust="spacing" textLength="112.7598" x="1798.45" y="152.7828">Store offline data</text></g><!--link idb to sw--><g class="link" data-entity-1="idb" data-entity-2="sw" data-source-line="13" data-uid="lnk9" id="link_idb_sw"><path d="M2045.64,159.7159 C2092.35,159.7159 2152.02,159.7159 2202.29,159.7159" fill="none" id="idb-to-sw" style="stroke:#181818;stroke-width:1;"/><polygon fill="#181818" points="2208.29,159.7159,2199.29,155.7159,2203.29,159.7159,2199.29,163.7159,2208.29,159.7159" style="stroke:#181818;stroke-width:1;"/><text fill="#000000" font-family="sans-serif" font-size="13" lengthAdjust="spacing" textLength="127.6133" x="2063.46" y="152.7828">Queue sync actions</text></g><!--link sw to bg_sync--><g class="link" data-entity-1="sw" data-entity-2="bg_sync" data-source-line="14" data-uid="lnk10" id="link_sw_bg_sync"><path d="M2355.79,159.7159 C2406.94,159.7159 2469.04,159.7159 2521.73,159.7159" fill="none" id="sw-to-bg_sync" style="stroke:#181818;stroke-width:1;"/><polygon fill="#181818" points="2527.73,159.7159,2518.73,155.7159,2522.73,159.7159,2518.73,163.7159,2527.73,159.7159" style="stroke:#181818;stroke-width:1;"/><text fill="#000000" font-family="sans-serif" font-size="13" lengthAdjust="spacing" textLength="136.0239" x="2373.7" y="152.7828">Register sync events</text></g><!--link bg_sync to online--><g class="link" data-entity-1="bg_sync" data-entity-2="online" data-source-line="22" data-uid="lnk15" id="link_bg_sync_online"><path d="M2575.42,136.2459 C2531.36,107.0159 2450.51,58.6859 2373,40.1759 C2234.78,7.1659 1232.85,9.8959 1094,40.1759 C1009.52,58.6059 924.8155,103.8966 875.6855,133.1466" fill="none" id="bg_sync-to-online" style="stroke:#181818;stroke-width:1;"/><polygon fill="#181818" points="870.53,136.2159,880.3095,135.0489,874.8262,133.6581,876.217,128.1749,870.53,136.2159" style="stroke:#181818;stroke-width:1;"/><text fill="#000000" font-family="sans-serif" font-size="13" lengthAdjust="spacing" textLength="123.6523" x="912.5" y="19.6328">Check connectivity</text></g><!--link online to retry--><g class="link" data-entity-1="online" data-entity-2="retry" data-source-line="23" data-uid="lnk16" id="link_online_retry"><path d="M912.25,159.7159 C973.03,159.7159 1049.63,159.7159 1105,159.7159" fill="none" id="online-to-retry" style="stroke:#181818;stroke-width:1;"/><polygon fill="#181818" points="1111,159.7159,1102,155.7159,1106,159.7159,1102,163.7159,1111,159.7159" style="stroke:#181818;stroke-width:1;"/><text fill="#000000" font-family="sans-serif" font-size="13" lengthAdjust="spacing" textLength="117.0889" x="953.11" y="152.7828">Network available</text></g><!--link retry to conflict--><g class="link" data-entity-1="retry" data-entity-2="conflict" data-source-line="24" data-uid="lnk17" id="link_retry_conflict"><path d="M1230.92,159.7159 C1283.07,159.7159 1353.28,159.7159 1411.95,159.7159" fill="none" id="retry-to-conflict" style="stroke:#181818;stroke-width:1;"/><polygon fill="#181818" points="1417.95,159.7159,1408.95,155.7159,1412.95,159.7159,1408.95,163.7159,1417.95,159.7159" style="stroke:#181818;stroke-width:1;"/><text fill="#000000" font-family="sans-serif" font-size="13" lengthAdjust="spacing" textLength="104.1333" x="1272.46" y="152.7828">Handle conflicts</text></g><!--link conflict to sync_api--><g class="link" data-entity-1="conflict" data-entity-2="sync_api" data-source-line="32" data-uid="lnk22" id="link_conflict_sync_api"><path d="M1467.26,136.2159 C1419.14,106.9759 1331.08,58.6159 1248,40.1759 C1142.35,16.7259 377.48,8.5059 274,40.1759 C212.66,58.9459 157.825,102.9048 125.845,132.0448" fill="none" id="conflict-to-sync_api" style="stroke:#181818;stroke-width:1;"/><polygon fill="#181818" points="121.41,136.0859,130.7566,132.9809,125.1058,132.7183,125.3684,127.0675,121.41,136.0859" style="stroke:#181818;stroke-width:1;"/><text fill="#000000" font-family="sans-serif" font-size="13" lengthAdjust="spacing" textLength="119.2661" x="1298.5" y="19.6328">Send queued data</text></g><!--link sync_api to server_conflict--><g class="link" data-entity-1="sync_api" data-entity-2="server_conflict" data-source-line="33" data-uid="lnk23" id="link_sync_api_server_conflict"><path d="M147.66,159.7159 C188.02,159.7159 239.2,159.7159 285.2,159.7159" fill="none" id="sync_api-to-server_conflict" style="stroke:#181818;stroke-width:1;"/><polygon fill="#181818" points="291.2,159.7159,282.2,155.7159,286.2,159.7159,282.2,163.7159,291.2,159.7159" style="stroke:#181818;stroke-width:1;"/><text fill="#000000" font-family="sans-serif" font-size="13" lengthAdjust="spacing" textLength="108.1196" x="165.41" y="152.7828">Process conflicts</text></g><!--link server_conflict to db--><g class="link" data-entity-1="server_conflict" data-entity-2="db" data-source-line="34" data-uid="lnk24" id="link_server_conflict_db"><path d="M444.49,159.7159 C488.17,159.7159 536.06,159.7159 576.19,159.7159" fill="none" id="server_conflict-to-db" style="stroke:#181818;stroke-width:1;"/><polygon fill="#181818" points="582.19,159.7159,573.19,155.7159,577.19,159.7159,573.19,163.7159,582.19,159.7159" style="stroke:#181818;stroke-width:1;"/><text fill="#000000" font-family="sans-serif" font-size="13" lengthAdjust="spacing" textLength="102.1846" x="462.37" y="152.7828">Persist changes</text></g><!--SRC=[TP9DRi8m48NtESKe-rwWYqhyB8g4sXGMBD5W3ub5OgUs0qKLT-_OJcW99Ql4ytdUpCjp1wLRjDX0OxGHbJKDWRSTPUvQSHLASrAwX3tMZhBCal2eoveWBpOJM9-rW8aLbV9Sw2pby9rb07-mMQr8UrWh6Ol0Zp1DQtGupTTaZqeGR8mzaCq17RZJ65feILyavzDOLt8t1gOe3gKrdPPneeZjogtZzp4wQLjOQ4zsZu8YsAaiGfs2fvVG7PvXxOqbCFjzhJI1H8yH2KLct8cHZuuwWY01ABmosaM4Qqpqueojg5IEvH99HnuYW9UHIs_aJsm1BF4SRBZpwLt7IUOKV6QnEBc9XsDqHTwUOMbAbOomuNiCpOpctOJd-PofksjBqPydIuOrUAEanGlDAXA7mEamoL7vrBklCndr61nMmYEg6dTr6ZHL6HkKc7n5BTc4uUG_Vq9EsCH7AOenB1OfF_onnLOzN3d9zM6BVRVNjKTtvlpdKnWYpSdhYRvL24Cl5r937C3Fa0lvcvbhFR2tQdobi4QGSpUxmnt7LsCi2xAEqmIYObie-NJv0G00]--></g></svg>