<svg xmlns="http://www.w3.org/2000/svg" xmlns:xlink="http://www.w3.org/1999/xlink" contentStyleType="text/css" data-diagram-type="DESCRIPTION" height="641px" preserveAspectRatio="none" style="width:889px;height:641px;background:#FFFFFF;" version="1.1" viewBox="0 0 889 641" width="889px" zoomAndPan="magnify"><defs/><g><!--cluster PID Controller--><g class="cluster" data-entity="PID Controller" data-source-line="4" data-uid="ent0002" id="cluster_PID Controller"><path d="M8.5,6 L120.5361,6 A3.75,3.75 0 0 1 123.0361,8.5 L130.0361,28.2969 L474.5,28.2969 A2.5,2.5 0 0 1 477,30.7969 L477,632.28 A2.5,2.5 0 0 1 474.5,634.78 L8.5,634.78 A2.5,2.5 0 0 1 6,632.28 L6,8.5 A2.5,2.5 0 0 1 8.5,6" fill="none" style="stroke:#000000;stroke-width:1.5;"/><line style="stroke:#000000;stroke-width:1.5;" x1="6" x2="130.0361" y1="28.2969" y2="28.2969"/><text fill="#000000" font-family="sans-serif" font-size="14" font-weight="bold" lengthAdjust="spacing" textLength="111.0361" x="10" y="20.9951">PID Controller</text></g><!--entity Setpoint--><g class="entity" data-entity="Setpoint" data-source-line="5" data-uid="ent0003" id="entity_Setpoint"><rect fill="#F1F1F1" height="46.2969" rx="2.5" ry="2.5" style="stroke:#181818;stroke-width:0.5;" width="98.6934" x="118.65" y="147.3"/><rect fill="#F1F1F1" height="10" style="stroke:#181818;stroke-width:0.5;" width="15" x="197.3434" y="152.3"/><rect fill="#F1F1F1" height="2" style="stroke:#181818;stroke-width:0.5;" width="4" x="195.3434" y="154.3"/><rect fill="#F1F1F1" height="2" style="stroke:#181818;stroke-width:0.5;" width="4" x="195.3434" y="158.3"/><text fill="#000000" font-family="sans-serif" font-size="14" lengthAdjust="spacing" textLength="58.6934" x="133.65" y="180.2951">Setpoint</text></g><!--entity Error Calculator--><g class="entity" data-entity="Error Calculator" data-source-line="5" data-uid="ent0004" id="entity_Error Calculator"><rect fill="#F1F1F1" height="46.2969" rx="2.5" ry="2.5" style="stroke:#181818;stroke-width:0.5;" width="150.2227" x="193.89" y="253.59"/><rect fill="#F1F1F1" height="10" style="stroke:#181818;stroke-width:0.5;" width="15" x="324.1127" y="258.59"/><rect fill="#F1F1F1" height="2" style="stroke:#181818;stroke-width:0.5;" width="4" x="322.1127" y="260.59"/><rect fill="#F1F1F1" height="2" style="stroke:#181818;stroke-width:0.5;" width="4" x="322.1127" y="264.59"/><text fill="#000000" font-family="sans-serif" font-size="14" lengthAdjust="spacing" textLength="110.2227" x="208.89" y="286.5851">Error Calculator</text></g><!--entity Sensor Reading--><g class="entity" data-entity="Sensor Reading" data-source-line="6" data-uid="ent0006" id="entity_Sensor Reading"><rect fill="#F1F1F1" height="46.2969" rx="2.5" ry="2.5" style="stroke:#181818;stroke-width:0.5;" width="149.8945" x="252.05" y="147.3"/><rect fill="#F1F1F1" height="10" style="stroke:#181818;stroke-width:0.5;" width="15" x="381.9445" y="152.3"/><rect fill="#F1F1F1" height="2" style="stroke:#181818;stroke-width:0.5;" width="4" x="379.9445" y="154.3"/><rect fill="#F1F1F1" height="2" style="stroke:#181818;stroke-width:0.5;" width="4" x="379.9445" y="158.3"/><text fill="#000000" font-family="sans-serif" font-size="14" lengthAdjust="spacing" textLength="109.8945" x="267.05" y="180.2951">Sensor Reading</text></g><!--entity Proportional--><g class="entity" data-entity="Proportional" data-source-line="7" data-uid="ent0008" id="entity_Proportional"><rect fill="#F1F1F1" height="46.2969" rx="2.5" ry="2.5" style="stroke:#181818;stroke-width:0.5;" width="125.2578" x="206.37" y="359.89"/><rect fill="#F1F1F1" height="10" style="stroke:#181818;stroke-width:0.5;" width="15" x="311.6278" y="364.89"/><rect fill="#F1F1F1" height="2" style="stroke:#181818;stroke-width:0.5;" width="4" x="309.6278" y="366.89"/><rect fill="#F1F1F1" height="2" style="stroke:#181818;stroke-width:0.5;" width="4" x="309.6278" y="370.89"/><text fill="#000000" font-family="sans-serif" font-size="14" lengthAdjust="spacing" textLength="85.2578" x="221.37" y="392.8851">Proportional</text></g><!--entity Integral--><g class="entity" data-entity="Integral" data-source-line="8" data-uid="ent0010" id="entity_Integral"><rect fill="#F1F1F1" height="46.2969" rx="2.5" ry="2.5" style="stroke:#181818;stroke-width:0.5;" width="94.2158" x="366.89" y="359.89"/><rect fill="#F1F1F1" height="10" style="stroke:#181818;stroke-width:0.5;" width="15" x="441.1058" y="364.89"/><rect fill="#F1F1F1" height="2" style="stroke:#181818;stroke-width:0.5;" width="4" x="439.1058" y="366.89"/><rect fill="#F1F1F1" height="2" style="stroke:#181818;stroke-width:0.5;" width="4" x="439.1058" y="370.89"/><text fill="#000000" font-family="sans-serif" font-size="14" lengthAdjust="spacing" textLength="54.2158" x="381.89" y="392.8851">Integral</text></g><!--entity Derivative--><g class="entity" data-entity="Derivative" data-source-line="9" data-uid="ent0012" id="entity_Derivative"><rect fill="#F1F1F1" height="46.2969" rx="2.5" ry="2.5" style="stroke:#181818;stroke-width:0.5;" width="112.1807" x="58.91" y="359.89"/><rect fill="#F1F1F1" height="10" style="stroke:#181818;stroke-width:0.5;" width="15" x="151.0907" y="364.89"/><rect fill="#F1F1F1" height="2" style="stroke:#181818;stroke-width:0.5;" width="4" x="149.0907" y="366.89"/><rect fill="#F1F1F1" height="2" style="stroke:#181818;stroke-width:0.5;" width="4" x="149.0907" y="370.89"/><text fill="#000000" font-family="sans-serif" font-size="14" lengthAdjust="spacing" textLength="72.1807" x="73.91" y="392.8851">Derivative</text></g><!--entity Summer--><g class="entity" data-entity="Summer" data-source-line="11" data-uid="ent0014" id="entity_Summer"><rect fill="#F1F1F1" height="46.2969" rx="2.5" ry="2.5" style="stroke:#181818;stroke-width:0.5;" width="99.4043" x="142.3" y="466.19"/><rect fill="#F1F1F1" height="10" style="stroke:#181818;stroke-width:0.5;" width="15" x="221.7043" y="471.19"/><rect fill="#F1F1F1" height="2" style="stroke:#181818;stroke-width:0.5;" width="4" x="219.7043" y="473.19"/><rect fill="#F1F1F1" height="2" style="stroke:#181818;stroke-width:0.5;" width="4" x="219.7043" y="477.19"/><text fill="#000000" font-family="sans-serif" font-size="14" lengthAdjust="spacing" textLength="59.4043" x="157.3" y="499.1851">Summer</text></g><!--entity Output Limiter--><g class="entity" data-entity="Output Limiter" data-source-line="15" data-uid="ent0018" id="entity_Output Limiter"><rect fill="#F1F1F1" height="46.2969" rx="2.5" ry="2.5" style="stroke:#181818;stroke-width:0.5;" width="142.1563" x="32.92" y="572.48"/><rect fill="#F1F1F1" height="10" style="stroke:#181818;stroke-width:0.5;" width="15" x="155.0763" y="577.48"/><rect fill="#F1F1F1" height="2" style="stroke:#181818;stroke-width:0.5;" width="4" x="153.0763" y="579.48"/><rect fill="#F1F1F1" height="2" style="stroke:#181818;stroke-width:0.5;" width="4" x="153.0763" y="583.48"/><text fill="#000000" font-family="sans-serif" font-size="14" lengthAdjust="spacing" textLength="102.1563" x="47.92" y="605.4751">Output Limiter</text></g><!--entity Plant/System--><g class="entity" data-entity="Plant/System" data-source-line="16" data-uid="ent0020" id="entity_Plant/System"><rect fill="#F1F1F1" height="46.2969" rx="2.5" ry="2.5" style="stroke:#181818;stroke-width:0.5;" width="132.1963" x="260.9" y="41"/><rect fill="#F1F1F1" height="10" style="stroke:#181818;stroke-width:0.5;" width="15" x="373.0963" y="46"/><rect fill="#F1F1F1" height="2" style="stroke:#181818;stroke-width:0.5;" width="4" x="371.0963" y="48"/><rect fill="#F1F1F1" height="2" style="stroke:#181818;stroke-width:0.5;" width="4" x="371.0963" y="52"/><text fill="#000000" font-family="sans-serif" font-size="14" lengthAdjust="spacing" textLength="92.1963" x="275.9" y="73.9951">Plant/System</text></g><g class="entity" data-entity="GMN23" data-source-line="20" data-uid="ent0024" id="entity_GMN23"><path d="M649.54,476.77 L649.54,501.9028 L738.4599,501.9028 L738.4599,486.77 L728.4599,476.77 L649.54,476.77" fill="#FAFAFA" style="stroke:#181818;stroke-width:0.5;"/><path d="M728.4599,476.77 L728.4599,486.77 L738.4599,486.77 L728.4599,476.77" fill="#FAFAFA" style="stroke:#181818;stroke-width:1;"/><text fill="#000000" font-family="sans-serif" font-size="13" lengthAdjust="spacing" textLength="67.9199" x="655.54" y="493.8369">Kp &#215; error</text></g><g class="entity" data-entity="GMN26" data-source-line="21" data-uid="ent0027" id="entity_GMN26"><path d="M773.73,476.77 L773.73,501.9028 L882.2642,501.9028 L882.2642,486.77 L872.2642,476.77 L773.73,476.77" fill="#FAFAFA" style="stroke:#181818;stroke-width:0.5;"/><path d="M872.2642,476.77 L872.2642,486.77 L882.2642,486.77 L872.2642,476.77" fill="#FAFAFA" style="stroke:#181818;stroke-width:1;"/><text fill="#000000" font-family="sans-serif" font-size="13" lengthAdjust="spacing" textLength="87.5342" x="779.73" y="493.8369">Ki &#215; &#8747;error dt</text></g><g class="entity" data-entity="GMN29" data-source-line="22" data-uid="ent0030" id="entity_GMN29"><path d="M493.3,476.77 L493.3,501.9028 L614.7009,501.9028 L614.7009,486.77 L604.7009,476.77 L493.3,476.77" fill="#FAFAFA" style="stroke:#181818;stroke-width:0.5;"/><path d="M604.7009,476.77 L604.7009,486.77 L614.7009,486.77 L604.7009,476.77" fill="#FAFAFA" style="stroke:#181818;stroke-width:1;"/><text fill="#000000" font-family="sans-serif" font-size="13" lengthAdjust="spacing" textLength="100.4009" x="499.3" y="493.8369">Kd &#215; d_error/dt</text></g><g class="entity" data-entity="GMN32" data-source-line="23" data-uid="ent0033" id="entity_GMN32"><path d="M492.93,44.01 L492.93,60.15 L393.46,64.15 L492.93,68.15 L492.93,84.2756 A0,0 0 0 0 492.93,84.2756 L699.0657,84.2756 A0,0 0 0 0 699.0657,84.2756 L699.0657,54.01 L689.0657,44.01 L492.93,44.01 A0,0 0 0 0 492.93,44.01" fill="#FAFAFA" style="stroke:#181818;stroke-width:0.5;"/><path d="M689.0657,44.01 L689.0657,54.01 L699.0657,54.01 L689.0657,44.01" fill="#FAFAFA" style="stroke:#181818;stroke-width:0.5;"/><text fill="#000000" font-family="sans-serif" font-size="13" lengthAdjust="spacing" textLength="185.1357" x="498.93" y="61.0769">The system being controlled</text><text fill="#000000" font-family="sans-serif" font-size="13" lengthAdjust="spacing" textLength="132.7041" x="498.93" y="76.2097">(motor, heater, etc.)</text></g><!--link Setpoint to Error Calculator--><g class="link" data-entity-1="Setpoint" data-entity-2="Error Calculator" data-source-line="5" data-uid="lnk5" id="link_Setpoint_Error Calculator"><path d="M189.92,194.07 C206.86,211.57 226.0257,231.3601 242.9557,248.8401" fill="none" id="Setpoint-to-Error Calculator" style="stroke:#181818;stroke-width:1;"/><polygon fill="#181818" points="247.13,253.15,243.7418,243.9023,243.6514,249.5584,237.9953,249.468,247.13,253.15" style="stroke:#181818;stroke-width:1;"/></g><!--link Sensor Reading to Error Calculator--><g class="link" data-entity-1="Sensor Reading" data-entity-2="Error Calculator" data-source-line="6" data-uid="lnk7" id="link_Sensor Reading_Error Calculator"><path d="M314.41,194.07 C304.69,211.57 294.1959,230.4262 284.4759,247.9062" fill="none" id="Sensor Reading-to-Error Calculator" style="stroke:#181818;stroke-width:1;"/><polygon fill="#181818" points="281.56,253.15,289.4297,247.2282,283.9899,248.7802,282.438,243.3404,281.56,253.15" style="stroke:#181818;stroke-width:1;"/></g><!--link Error Calculator to Proportional--><g class="link" data-entity-1="Error Calculator" data-entity-2="Proportional" data-source-line="7" data-uid="lnk9" id="link_Error Calculator_Proportional"><path d="M269,300.37 C269,317.87 269,335.97 269,353.45" fill="none" id="Error Calculator-to-Proportional" style="stroke:#181818;stroke-width:1;"/><polygon fill="#181818" points="269,359.45,273,350.45,269,354.45,265,350.45,269,359.45" style="stroke:#181818;stroke-width:1;"/></g><!--link Error Calculator to Integral--><g class="link" data-entity-1="Error Calculator" data-entity-2="Integral" data-source-line="8" data-uid="lnk11" id="link_Error Calculator_Integral"><path d="M300.46,300.37 C324.78,317.87 353.4186,338.4672 377.7286,355.9472" fill="none" id="Error Calculator-to-Integral" style="stroke:#181818;stroke-width:1;"/><polygon fill="#181818" points="382.6,359.45,377.6281,350.9482,378.5405,356.531,372.9577,357.4435,382.6,359.45" style="stroke:#181818;stroke-width:1;"/></g><!--link Error Calculator to Derivative--><g class="link" data-entity-1="Error Calculator" data-entity-2="Derivative" data-source-line="9" data-uid="lnk13" id="link_Error Calculator_Derivative"><path d="M235.58,300.37 C209.75,317.87 179.1385,338.6064 153.3185,356.0864" fill="none" id="Error Calculator-to-Derivative" style="stroke:#181818;stroke-width:1;"/><polygon fill="#181818" points="148.35,359.45,158.0452,357.7169,152.4904,356.647,153.5603,351.0922,148.35,359.45" style="stroke:#181818;stroke-width:1;"/></g><!--link Proportional to Summer--><g class="link" data-entity-1="Proportional" data-entity-2="Summer" data-source-line="11" data-uid="lnk15" id="link_Proportional_Summer"><path d="M252.29,406.67 C239.38,424.16 225.1428,443.4423 212.2428,460.9223" fill="none" id="Proportional-to-Summer" style="stroke:#181818;stroke-width:1;"/><polygon fill="#181818" points="208.68,465.75,217.2426,460.8836,211.649,461.7269,210.8057,456.1333,208.68,465.75" style="stroke:#181818;stroke-width:1;"/></g><!--link Integral to Summer--><g class="link" data-entity-1="Integral" data-entity-2="Summer" data-source-line="12" data-uid="lnk16" id="link_Integral_Summer"><path d="M366.65,406.28 C329.34,423.81 282.9605,445.5985 245.4805,463.2085" fill="none" id="Integral-to-Summer" style="stroke:#181818;stroke-width:1;"/><polygon fill="#181818" points="240.05,465.76,249.8967,465.553,244.5754,463.6337,246.4947,458.3124,240.05,465.76" style="stroke:#181818;stroke-width:1;"/></g><!--link Derivative to Summer--><g class="link" data-entity-1="Derivative" data-entity-2="Summer" data-source-line="13" data-uid="lnk17" id="link_Derivative_Summer"><path d="M131.71,406.67 C144.62,424.16 158.8572,443.4423 171.7572,460.9223" fill="none" id="Derivative-to-Summer" style="stroke:#181818;stroke-width:1;"/><polygon fill="#181818" points="175.32,465.75,173.1943,456.1333,172.351,461.7269,166.7574,460.8836,175.32,465.75" style="stroke:#181818;stroke-width:1;"/></g><!--link Summer to Output Limiter--><g class="link" data-entity-1="Summer" data-entity-2="Output Limiter" data-source-line="15" data-uid="lnk19" id="link_Summer_Output Limiter"><path d="M172.91,512.97 C158.14,530.46 141.6794,549.9744 126.9294,567.4544" fill="none" id="Summer-to-Output Limiter" style="stroke:#181818;stroke-width:1;"/><polygon fill="#181818" points="123.06,572.04,131.9212,567.7412,126.2845,568.2187,125.8071,562.582,123.06,572.04" style="stroke:#181818;stroke-width:1;"/></g><!--link Output Limiter to Plant/System--><g class="link" data-entity-1="Output Limiter" data-entity-2="Plant/System" data-source-line="16" data-uid="lnk21" id="link_Output Limiter_Plant/System"><path d="M88.95,572.05 C65.53,534.63 23,456.7 23,384.04 C23,275.74 23,275.74 23,275.74 C23,208.95 49.36,189.65 101,147.3 C147.08,109.51 206.1981,89.6883 254.6581,78.3383" fill="none" id="Output Limiter-to-Plant/System" style="stroke:#181818;stroke-width:1;"/><polygon fill="#181818" points="260.5,76.97,250.825,75.1278,255.6317,78.1102,252.6493,82.917,260.5,76.97" style="stroke:#181818;stroke-width:1;"/></g><!--link Plant/System to Sensor Reading--><g class="link" data-entity-1="Plant/System" data-entity-2="Sensor Reading" data-source-line="17" data-uid="lnk22" id="link_Plant/System_Sensor Reading"><path d="M327,87.78 C327,105.27 327,123.37 327,140.86" fill="none" id="Plant/System-to-Sensor Reading" style="stroke:#181818;stroke-width:1;"/><polygon fill="#181818" points="327,146.86,331,137.86,327,141.86,323,137.86,327,146.86" style="stroke:#181818;stroke-width:1;"/></g><!--link Proportional to GMN23--><g class="link" data-entity-1="Proportional" data-entity-2="GMN23" data-source-line="20" data-uid="lnk25" id="link_Proportional_GMN23"><path d="M331.79,401.81 C337.6,403.34 343.4,404.82 349,406.19 C473.9,436.69 508.29,431.15 632,466.19 C642.23,469.08 653.21,472.8 663.04,476.35" fill="none" id="Proportional-GMN23" style="stroke:#181818;stroke-width:1;stroke-dasharray:7.0,7.0;"/></g><!--link Integral to GMN26--><g class="link" data-entity-1="Integral" data-entity-2="GMN26" data-source-line="21" data-uid="lnk28" id="link_Integral_GMN26"><path d="M461.54,394.47 C527.82,409.23 651.6,437.62 756,466.19 C767.23,469.26 779.35,472.87 790.39,476.28" fill="none" id="Integral-GMN26" style="stroke:#181818;stroke-width:1;stroke-dasharray:7.0,7.0;"/></g><!--link Derivative to GMN29--><g class="link" data-entity-1="Derivative" data-entity-2="GMN29" data-source-line="22" data-uid="lnk31" id="link_Derivative_GMN29"><path d="M171.43,401.47 C177.34,403.13 183.28,404.74 189,406.19 C315.74,438.29 350.08,434.76 477,466.19 C489.15,469.2 502.28,472.83 514.19,476.27" fill="none" id="Derivative-GMN29" style="stroke:#181818;stroke-width:1;stroke-dasharray:7.0,7.0;"/></g><!--SRC=[XPB1JiCm38RlUGfh9v0sTj-1oyO1WSJ4k8q9PQtNHalYod674EBE6_0GF0PlmfEGhkrODpHoi_zFjd_7OMryeLaxSEGfoPaSWd29AkoKaEkKdetFOALjGAKAdQnrXj2RNazWJ5wOh4NkmQk2-EOpb8ACbmKC1fSmls8cXh6sIMcr42zQoeUOlqUTnjgdsQDqJK-P2c8nvBKzJLvxmOp_eoR8PgF5R72XQh3JeOPcfNFO3hQh-uUsLwshDlxhg9RkIYbAWLlZZEmA72GRprPx6SvUWg1hk4wgQTLThdfJofCWB4c47D3gqDe8RWhu-W2iDdF4_jgCdAcux_VFBGgf7D7xnYEVLdpwjCM7BSucowMUepFz21voXB2DO8dLrINjXQMF_inH_Au-vAZZIlg0aboS_m00]--></g></svg>