<svg xmlns="http://www.w3.org/2000/svg" xmlns:xlink="http://www.w3.org/1999/xlink" contentStyleType="text/css" data-diagram-type="STATE" height="613px" preserveAspectRatio="none" style="width:1089px;height:613px;background:#FFFFFF;" version="1.1" viewBox="0 0 1089 613" width="1089px" zoomAndPan="magnify"><defs/><g><ellipse cx="717.97" cy="328.44" fill="#222222" rx="10" ry="10" style="stroke:#222222;stroke-width:1;"/><g id="Idle"><rect fill="#F1F1F1" height="50" rx="12.5" ry="12.5" style="stroke:#181818;stroke-width:0.5;" width="50" x="650.97" y="430.44"/><line style="stroke:#181818;stroke-width:0.5;" x1="650.97" x2="700.97" y1="456.7369" y2="456.7369"/><text fill="#000000" font-family="sans-serif" font-size="14" lengthAdjust="spacing" textLength="25.5186" x="663.2107" y="448.4351">Idle</text></g><g id="Starting"><rect fill="#F1F1F1" height="50" rx="12.5" ry="12.5" style="stroke:#181818;stroke-width:0.5;" width="75.8496" x="720.05" y="557.44"/><line style="stroke:#181818;stroke-width:0.5;" x1="720.05" x2="795.8996" y1="583.7369" y2="583.7369"/><text fill="#000000" font-family="sans-serif" font-size="14" lengthAdjust="spacing" textLength="55.8496" x="730.05" y="575.4351">Starting</text></g><g id="Running"><rect fill="#F1F1F1" height="78.2031" rx="12.5" ry="12.5" style="stroke:#181818;stroke-width:0.5;" width="161.7031" x="415.12" y="7"/><line style="stroke:#181818;stroke-width:0.5;" x1="415.12" x2="576.8231" y1="33.2969" y2="33.2969"/><text fill="#000000" font-family="sans-serif" font-size="14" lengthAdjust="spacing" textLength="57.9961" x="466.9735" y="24.9951">Running</text><text fill="#000000" font-family="sans-serif" font-size="12" lengthAdjust="spacing" textLength="141.7031" x="420.12" y="49.4355">entry / enable_motors()</text><text fill="#000000" font-family="sans-serif" font-size="12" lengthAdjust="spacing" textLength="134.9648" x="420.12" y="63.4043">do / monitor_sensors()</text><text fill="#000000" font-family="sans-serif" font-size="12" lengthAdjust="spacing" textLength="134.7129" x="420.12" y="77.373">exit / disable_motors()</text></g><g id="Paused"><rect fill="#F1F1F1" height="64.2344" rx="12.5" ry="12.5" style="stroke:#181818;stroke-width:0.5;" width="152.1934" x="531.88" y="162.21"/><line style="stroke:#181818;stroke-width:0.5;" x1="531.88" x2="684.0734" y1="188.5069" y2="188.5069"/><text fill="#000000" font-family="sans-serif" font-size="14" lengthAdjust="spacing" textLength="50.6885" x="582.6324" y="180.2051">Paused</text><text fill="#000000" font-family="sans-serif" font-size="12" lengthAdjust="spacing" textLength="132.1934" x="536.88" y="204.6455">entry / hold_position()</text><text fill="#000000" font-family="sans-serif" font-size="12" lengthAdjust="spacing" textLength="131.9707" x="536.88" y="218.6143">do / flash_status_led()</text></g><g id="Stopping"><rect fill="#F1F1F1" height="50" rx="12.5" ry="12.5" style="stroke:#181818;stroke-width:0.5;" width="82.3643" x="447.79" y="303.44"/><line style="stroke:#181818;stroke-width:0.5;" x1="447.79" x2="530.1543" y1="329.7369" y2="329.7369"/><text fill="#000000" font-family="sans-serif" font-size="14" lengthAdjust="spacing" textLength="62.3643" x="457.79" y="321.4351">Stopping</text></g><g class="entity" data-entity="GMN2" data-source-line="21" data-uid="ent0003" id="entity_GMN2"><path d="M612.32,25.97 L612.32,42.1 L576.97,46.1 L612.32,50.1 L612.32,66.2356 A0,0 0 0 0 612.32,66.2356 L811.6257,66.2356 A0,0 0 0 0 811.6257,66.2356 L811.6257,35.97 L801.6257,25.97 L612.32,25.97 A0,0 0 0 0 612.32,25.97" fill="#FAFAFA" style="stroke:#181818;stroke-width:0.5;"/><path d="M801.6257,25.97 L801.6257,35.97 L811.6257,35.97 L801.6257,25.97" fill="#FAFAFA" style="stroke:#181818;stroke-width:0.5;"/><text fill="#000000" font-family="sans-serif" font-size="13" lengthAdjust="spacing" textLength="146.2246" x="618.32" y="43.0369">Main operational state</text><text fill="#000000" font-family="sans-serif" font-size="13" lengthAdjust="spacing" textLength="178.3057" x="618.32" y="58.1697">with continuous monitoring</text></g><g class="entity" data-entity="GMN5" data-source-line="22" data-uid="ent0006" id="entity_GMN5"><path d="M324.95,174.19 L324.95,214.4556 A0,0 0 0 0 324.95,214.4556 L496.9988,214.4556 A0,0 0 0 0 496.9988,214.4556 L496.9988,198.32 L531.79,194.32 L496.9988,190.32 L496.9988,184.19 L486.9988,174.19 L324.95,174.19 A0,0 0 0 0 324.95,174.19" fill="#FAFAFA" style="stroke:#181818;stroke-width:0.5;"/><path d="M486.9988,174.19 L486.9988,184.19 L496.9988,184.19 L486.9988,174.19" fill="#FAFAFA" style="stroke:#181818;stroke-width:0.5;"/><text fill="#000000" font-family="sans-serif" font-size="13" lengthAdjust="spacing" textLength="100.2041" x="330.95" y="191.2569">Temporary halt</text><text fill="#000000" font-family="sans-serif" font-size="13" lengthAdjust="spacing" textLength="151.0488" x="330.95" y="206.3897">with state preservation</text></g><!--link *start* to Idle--><g class="link" data-entity-1="*start*" data-entity-2="Idle" data-source-line="4" data-uid="lnk4" id="link_*start*_Idle"><path d="M715.42,338.23 C711.46,351.7 703.53,378.2 695.97,400.44 C692.66,410.19 690.8841,415.221 687.4241,424.461" fill="none" id="*start*-to-Idle" style="stroke:#181818;stroke-width:1;"/><polygon fill="#181818" points="685.32,430.08,692.2221,423.0543,687.0734,425.3975,684.7301,420.2488,685.32,430.08" style="stroke:#181818;stroke-width:1;"/></g><!--link Idle to Starting--><g class="link" data-entity-1="Idle" data-entity-2="Starting" data-source-line="6" data-uid="lnk6" id="link_Idle_Starting"><path d="M668.9,480.89 C666.14,495.29 665.25,513.38 672.97,527.44 C682.99,545.67 696.677,555.9699 714.227,564.6099" fill="none" id="Idle-to-Starting" style="stroke:#181818;stroke-width:1;"/><polygon fill="#181818" points="719.61,567.26,713.3022,559.6962,715.1241,565.0516,709.7687,566.8735,719.61,567.26" style="stroke:#181818;stroke-width:1;"/><text fill="#000000" font-family="sans-serif" font-size="13" lengthAdjust="spacing" textLength="139.8452" x="673.97" y="523.5069">power_on / initialize()</text></g><!--link Starting to Running--><g class="link" data-entity-1="Starting" data-entity-2="Running" data-source-line="7" data-uid="lnk8" id="link_Starting_Running"><path d="M791.43,556.99 C801.11,548.55 810.95,538.42 817.97,527.44 C835.78,499.61 839.97,489.48 839.97,456.44 C839.97,193.32 839.97,193.32 839.97,193.32 C839.97,153.48 828.79,137.8 795.97,115.21 C721.58,63.98 682.31,108.23 594.97,85.21 C589.1,83.66 588.8027,83.7045 582.7927,81.7745" fill="none" id="Starting-to-Running" style="stroke:#181818;stroke-width:1;"/><polygon fill="#181818" points="577.08,79.94,584.426,86.5002,581.8406,81.4688,586.872,78.8833,577.08,79.94" style="stroke:#181818;stroke-width:1;"/><text fill="#000000" font-family="sans-serif" font-size="13" lengthAdjust="spacing" textLength="240.3096" x="840.97" y="333.0069">startup_complete / start_main_loop()</text></g><!--link Running to Paused--><g class="link" data-entity-1="Running" data-entity-2="Paused" data-source-line="8" data-uid="lnk10" id="link_Running_Paused"><path d="M414.93,75.54 C385.81,90.26 364.08,109.83 381.97,132.21 C419.82,179.53 456.61,145.9 514.97,162.21 C520.38,163.72 520.2105,163.6114 525.7905,165.3114" fill="none" id="Running-to-Paused" style="stroke:#181818;stroke-width:1;"/><polygon fill="#181818" points="531.53,167.06,524.0864,160.6107,526.747,165.6028,521.7549,168.2635,531.53,167.06" style="stroke:#181818;stroke-width:1;"/><text fill="#000000" font-family="sans-serif" font-size="13" lengthAdjust="spacing" textLength="181.2573" x="382.97" y="128.2769">pause_button / save_state()</text></g><!--link Paused to Running--><g class="link" data-entity-1="Paused" data-entity-2="Running" data-source-line="9" data-uid="lnk11" id="link_Paused_Running"><path d="M595.35,161.81 C588.65,146.95 579.59,129.41 568.97,115.21 C561.19,104.79 556.0381,98.7855 546.5081,89.6355" fill="none" id="Paused-to-Running" style="stroke:#181818;stroke-width:1;"/><polygon fill="#181818" points="542.18,85.48,545.9018,94.5986,545.7867,88.9429,551.4424,88.8278,542.18,85.48" style="stroke:#181818;stroke-width:1;"/><text fill="#000000" font-family="sans-serif" font-size="13" lengthAdjust="spacing" textLength="207.124" x="579.97" y="128.2769">resume_button / restore_state()</text></g><!--link Running to Stopping--><g class="link" data-entity-1="Running" data-entity-2="Stopping" data-source-line="10" data-uid="lnk13" id="link_Running_Stopping"><path d="M415.01,59.01 C310.32,76.25 136.9,111.72 98.97,162.21 C6,285.96 323.6219,317.5423 441.5919,324.9823" fill="none" id="Running-to-Stopping" style="stroke:#181818;stroke-width:1;"/><polygon fill="#181818" points="447.58,325.36,438.8496,320.8015,442.5899,325.0453,438.3461,328.7856,447.58,325.36" style="stroke:#181818;stroke-width:1;"/><text fill="#000000" font-family="sans-serif" font-size="13" lengthAdjust="spacing" textLength="206.521" x="99.97" y="198.8869">stop_button / begin_shutdown()</text></g><!--link Paused to Stopping--><g class="link" data-entity-1="Paused" data-entity-2="Stopping" data-source-line="11" data-uid="lnk14" id="link_Paused_Stopping"><path d="M579.77,226.63 C558.74,249.98 534.4363,276.9725 515.0463,298.4925" fill="none" id="Paused-to-Stopping" style="stroke:#181818;stroke-width:1;"/><polygon fill="#181818" points="511.03,302.95,520.0261,298.9413,514.3769,299.2354,514.0828,293.5862,511.03,302.95" style="stroke:#181818;stroke-width:1;"/><text fill="#000000" font-family="sans-serif" font-size="13" lengthAdjust="spacing" textLength="206.521" x="552.97" y="269.5069">stop_button / begin_shutdown()</text></g><!--link Stopping to Idle--><g class="link" data-entity-1="Stopping" data-entity-2="Idle" data-source-line="12" data-uid="lnk15" id="link_Stopping_Idle"><path d="M478.78,353.78 C474.29,368.67 472.01,387.32 481.97,400.44 C502.43,427.37 596.8586,443.6033 644.6486,450.3333" fill="none" id="Stopping-to-Idle" style="stroke:#181818;stroke-width:1;"/><polygon fill="#181818" points="650.59,451.17,642.2357,445.954,645.6389,450.4728,641.1201,453.8759,650.59,451.17" style="stroke:#181818;stroke-width:1;"/><text fill="#000000" font-family="sans-serif" font-size="13" lengthAdjust="spacing" textLength="204.8896" x="482.97" y="396.5069">shutdown_complete / cleanup()</text></g><!--SRC=[ZL8zJyCm4DtpApm2KiNUWPq12L4sG9QRN6eB-yxosItmwpcxIPeoiKIsxttSlGj_EemccQ028VKsKG2LKu6EbmfRCz39uK6DnZDqtTlTXzfi7jJZuELMl-swooRb2jkgI2T8cb3TAuSkE-FT3zpSTWkaubyAuXdEzRb4tLE87Z88hJtfO1ngJnI5EyChzTaKXg4QrOFUbvoR6PiZQA7cQZQ1hgqIS0ahXjmpfGjfxRBB5EFS8SKBQGy7wOjjoH8CNblzdxGWvomhPIgle-Wz62mrWkuo1s1Etr84D7iFEf1CmQl-jseWASjMdLGq0_9V07ovB931yRL4jwGxcrZoWux4iabQZJjvZDwmRG4MrXw6Ae4ahITti5dHk8h_IHQgA48oLSfurN9_nvFBLlM4ydCKAZptBQIpb8UnAItEhn0Y9IFjMUFp9D34L9ITGZesXry0]--></g></svg>