<svg xmlns="http://www.w3.org/2000/svg" xmlns:xlink="http://www.w3.org/1999/xlink" contentStyleType="text/css" data-diagram-type="ACTIVITY" height="581px" preserveAspectRatio="none" style="width:286px;height:581px;background:#FFFFFF;" version="1.1" viewBox="0 0 286 581" width="286px" zoomAndPan="magnify"><defs/><g><ellipse cx="137.2939" cy="20" fill="#222222" rx="10" ry="10" style="stroke:#222222;stroke-width:1;"/><rect fill="#F1F1F1" height="33.9688" rx="12.5" ry="12.5" style="stroke:#181818;stroke-width:0.5;" width="143.5684" x="65.5098" y="50"/><text fill="#000000" font-family="sans-serif" font-size="12" lengthAdjust="spacing" textLength="123.5684" x="75.5098" y="71.1387">INPUT numbers (list)</text><rect fill="#F1F1F1" height="33.9688" rx="12.5" ry="12.5" style="stroke:#181818;stroke-width:0.5;" width="198.5879" x="38" y="103.9688"/><text fill="#000000" font-family="sans-serif" font-size="12" lengthAdjust="spacing" textLength="178.5879" x="48" y="125.1074">SET maximum = first number</text><rect fill="#F1F1F1" height="33.9688" rx="12.5" ry="12.5" style="stroke:#181818;stroke-width:0.5;" width="74.9961" x="99.7959" y="157.9375"/><text fill="#000000" font-family="sans-serif" font-size="12" lengthAdjust="spacing" textLength="54.9961" x="109.7959" y="179.0762">SET i = 1</text><rect fill="#F1F1F1" height="33.9688" rx="12.5" ry="12.5" style="stroke:#181818;stroke-width:0.5;" width="190.2734" x="42.1572" y="316.019"/><text fill="#000000" font-family="sans-serif" font-size="12" lengthAdjust="spacing" textLength="170.2734" x="52.1572" y="337.1577">SET maximum = numbers[i]</text><polygon fill="#F1F1F1" points="68.407,267.6167,206.1809,267.6167,218.1809,279.6167,206.1809,291.6167,68.407,291.6167,56.407,279.6167,68.407,267.6167" style="stroke:#181818;stroke-width:0.5;"/><text fill="#000000" font-family="sans-serif" font-size="11" lengthAdjust="spacing" textLength="19.0083" x="141.2939" y="301.8271">yes</text><text fill="#000000" font-family="sans-serif" font-size="11" lengthAdjust="spacing" textLength="137.7739" x="68.407" y="283.4248">numbers[i] &gt; maximum?</text><polygon fill="#F1F1F1" points="137.2939,374.3901,149.2939,386.3901,137.2939,398.3901,125.2939,386.3901,137.2939,374.3901" style="stroke:#181818;stroke-width:0.5;"/><rect fill="#F1F1F1" height="33.9688" rx="12.5" ry="12.5" style="stroke:#181818;stroke-width:0.5;" width="96.0137" x="89.2871" y="418.3901"/><text fill="#000000" font-family="sans-serif" font-size="12" lengthAdjust="spacing" textLength="76.0137" x="99.2871" y="439.5288">SET i = i + 1</text><polygon fill="#F1F1F1" points="74.0815,211.9063,200.5063,211.9063,212.5063,223.9063,200.5063,235.9063,74.0815,235.9063,62.0815,223.9063,74.0815,211.9063" style="stroke:#181818;stroke-width:0.5;"/><text fill="#000000" font-family="sans-serif" font-size="11" lengthAdjust="spacing" textLength="19.0083" x="141.2939" y="246.1167">yes</text><text fill="#000000" font-family="sans-serif" font-size="11" lengthAdjust="spacing" textLength="126.4248" x="74.0815" y="227.7144">i &lt; length of numbers?</text><text fill="#000000" font-family="sans-serif" font-size="11" lengthAdjust="spacing" textLength="13.7017" x="48.3799" y="221.312">no</text><rect fill="#F1F1F1" height="33.9688" rx="12.5" ry="12.5" style="stroke:#181818;stroke-width:0.5;" width="133.1855" x="70.7012" y="494.3589"/><text fill="#000000" font-family="sans-serif" font-size="12" lengthAdjust="spacing" textLength="113.1855" x="80.7012" y="515.4976">OUTPUT maximum</text><ellipse cx="137.2939" cy="559.3276" fill="none" rx="11" ry="11" style="stroke:#222222;stroke-width:1;"/><ellipse cx="137.2939" cy="559.3276" fill="#222222" rx="6" ry="6" style="stroke:#222222;stroke-width:1;"/><line style="stroke:#181818;stroke-width:1;" x1="137.2939" x2="137.2939" y1="30" y2="50"/><polygon fill="#181818" points="133.2939,40,137.2939,50,141.2939,40,137.2939,44" style="stroke:#181818;stroke-width:1;"/><line style="stroke:#181818;stroke-width:1;" x1="137.2939" x2="137.2939" y1="83.9688" y2="103.9688"/><polygon fill="#181818" points="133.2939,93.9688,137.2939,103.9688,141.2939,93.9688,137.2939,97.9688" style="stroke:#181818;stroke-width:1;"/><line style="stroke:#181818;stroke-width:1;" x1="137.2939" x2="137.2939" y1="137.9375" y2="157.9375"/><polygon fill="#181818" points="133.2939,147.9375,137.2939,157.9375,141.2939,147.9375,137.2939,151.9375" style="stroke:#181818;stroke-width:1;"/><line style="stroke:#181818;stroke-width:1;" x1="137.2939" x2="137.2939" y1="291.6167" y2="316.019"/><polygon fill="#181818" points="133.2939,306.019,137.2939,316.019,141.2939,306.019,137.2939,310.019" style="stroke:#181818;stroke-width:1;"/><line style="stroke:#181818;stroke-width:1;" x1="218.1809" x2="242.4307" y1="279.6167" y2="279.6167"/><polygon fill="#181818" points="238.4307,323.0034,242.4307,333.0034,246.4307,323.0034,242.4307,327.0034" style="stroke:#181818;stroke-width:1;"/><line style="stroke:#181818;stroke-width:1;" x1="242.4307" x2="242.4307" y1="279.6167" y2="386.3901"/><line style="stroke:#181818;stroke-width:1;" x1="242.4307" x2="149.2939" y1="386.3901" y2="386.3901"/><polygon fill="#181818" points="159.2939,382.3901,149.2939,386.3901,159.2939,390.3901,155.2939,386.3901" style="stroke:#181818;stroke-width:1;"/><line style="stroke:#181818;stroke-width:1;" x1="137.2939" x2="137.2939" y1="349.9878" y2="374.3901"/><polygon fill="#181818" points="133.2939,364.3901,137.2939,374.3901,141.2939,364.3901,137.2939,368.3901" style="stroke:#181818;stroke-width:1;"/><line style="stroke:#181818;stroke-width:1;" x1="137.2939" x2="137.2939" y1="398.3901" y2="418.3901"/><polygon fill="#181818" points="133.2939,408.3901,137.2939,418.3901,141.2939,408.3901,137.2939,412.3901" style="stroke:#181818;stroke-width:1;"/><line style="stroke:#181818;stroke-width:1;" x1="137.2939" x2="137.2939" y1="235.9063" y2="267.6167"/><polygon fill="#181818" points="133.2939,257.6167,137.2939,267.6167,141.2939,257.6167,137.2939,261.6167" style="stroke:#181818;stroke-width:1;"/><line style="stroke:#181818;stroke-width:1;" x1="137.2939" x2="137.2939" y1="452.3589" y2="462.3589"/><line style="stroke:#181818;stroke-width:1;" x1="137.2939" x2="260.4307" y1="462.3589" y2="462.3589"/><polygon fill="#181818" points="256.4307,359.0854,260.4307,349.0854,264.4307,359.0854,260.4307,355.0854" style="stroke:#181818;stroke-width:1;"/><line style="stroke:#181818;stroke-width:1;" x1="260.4307" x2="260.4307" y1="223.9063" y2="462.3589"/><line style="stroke:#181818;stroke-width:1;" x1="260.4307" x2="212.5063" y1="223.9063" y2="223.9063"/><polygon fill="#181818" points="222.5063,219.9063,212.5063,223.9063,222.5063,227.9063,218.5063,223.9063" style="stroke:#181818;stroke-width:1;"/><line style="stroke:#181818;stroke-width:1;" x1="62.0815" x2="24" y1="223.9063" y2="223.9063"/><polygon fill="#181818" points="20,345.0854,24,355.0854,28,345.0854,24,349.0854" style="stroke:#181818;stroke-width:1;"/><line style="stroke:#181818;stroke-width:1;" x1="24" x2="24" y1="223.9063" y2="474.3589"/><line style="stroke:#181818;stroke-width:1;" x1="24" x2="137.2939" y1="474.3589" y2="474.3589"/><line style="stroke:#181818;stroke-width:1;" x1="137.2939" x2="137.2939" y1="474.3589" y2="494.3589"/><polygon fill="#181818" points="133.2939,484.3589,137.2939,494.3589,141.2939,484.3589,137.2939,488.3589" style="stroke:#181818;stroke-width:1;"/><line style="stroke:#181818;stroke-width:1;" x1="137.2939" x2="137.2939" y1="191.9063" y2="211.9063"/><polygon fill="#181818" points="133.2939,201.9063,137.2939,211.9063,141.2939,201.9063,137.2939,205.9063" style="stroke:#181818;stroke-width:1;"/><line style="stroke:#181818;stroke-width:1;" x1="137.2939" x2="137.2939" y1="528.3276" y2="548.3276"/><polygon fill="#181818" points="133.2939,538.3276,137.2939,548.3276,141.2939,538.3276,137.2939,542.3276" style="stroke:#181818;stroke-width:1;"/><!--SRC=[NO-x3i8m34LtVyKT6p6nDZmc1XQAH3iXXY8IQgb9KECA-7jIAGM9rVVu-3fAEmYL-yEngU57TpL3HD5p5AMfFErgkFR5RdHOm_8G9KCvv3HUQdfst1iKZ1Lwu-_I8TZPjbNWf7oRg0XWYo87PxvWC-iJ9PtnNmxuE_vRqYas_iQMCZILO2oc8ccUk_YWgAoQUlehMpH52OyF]--></g></svg>