<svg xmlns="http://www.w3.org/2000/svg" xmlns:xlink="http://www.w3.org/1999/xlink" contentStyleType="text/css" data-diagram-type="ACTIVITY" height="295px" preserveAspectRatio="none" style="width:240px;height:295px;background:#FFFFFF;" version="1.1" viewBox="0 0 240 295" width="240px" zoomAndPan="magnify"><defs/><g><ellipse cx="123.5283" cy="20" fill="#222222" rx="10" ry="10" style="stroke:#222222;stroke-width:1;"/><rect fill="#F1F1F1" height="33.9688" rx="12.5" ry="12.5" style="stroke:#181818;stroke-width:0.5;" width="105.5176" x="70.7695" y="50"/><text fill="#000000" font-family="sans-serif" font-size="12" lengthAdjust="spacing" textLength="85.5176" x="80.7695" y="71.1387">SET count = 1</text><rect fill="#F1F1F1" height="33.9688" rx="12.5" ry="12.5" style="stroke:#181818;stroke-width:0.5;" width="106.5781" x="70.2393" y="164.7734"/><text fill="#000000" font-family="sans-serif" font-size="12" lengthAdjust="spacing" textLength="86.5781" x="80.2393" y="185.9121">OUTPUT count</text><rect fill="#F1F1F1" height="33.9688" rx="12.5" ry="12.5" style="stroke:#181818;stroke-width:0.5;" width="157.0566" x="45" y="227.8398"/><text fill="#000000" font-family="sans-serif" font-size="12" lengthAdjust="spacing" textLength="137.0566" x="55" y="248.9785">SET count = count + 1</text><polygon fill="#F1F1F1" points="88.8794,103.9688,158.1772,103.9688,170.1772,115.9688,158.1772,127.9688,88.8794,127.9688,76.8794,115.9688,88.8794,103.9688" style="stroke:#181818;stroke-width:0.5;"/><text fill="#000000" font-family="sans-serif" font-size="11" lengthAdjust="spacing" textLength="19.0083" x="127.5283" y="138.1792">yes</text><text fill="#000000" font-family="sans-serif" font-size="11" lengthAdjust="spacing" textLength="69.2979" x="88.8794" y="119.7769">count &lt;= 5?</text><text fill="#000000" font-family="sans-serif" font-size="11" lengthAdjust="spacing" textLength="13.7017" x="63.1777" y="113.3745">no</text><ellipse cx="24" cy="162.9688" fill="none" rx="11" ry="11" style="stroke:#222222;stroke-width:1;"/><ellipse cx="24" cy="162.9688" fill="#222222" rx="6" ry="6" style="stroke:#222222;stroke-width:1;"/><line style="stroke:#181818;stroke-width:1;" x1="123.5283" x2="123.5283" y1="30" y2="50"/><polygon fill="#181818" points="119.5283,40,123.5283,50,127.5283,40,123.5283,44" style="stroke:#181818;stroke-width:1;"/><line style="stroke:#181818;stroke-width:1;" x1="123.5283" x2="123.5283" y1="198.7422" y2="227.8398"/><polygon fill="#181818" points="119.5283,217.8398,123.5283,227.8398,127.5283,217.8398,123.5283,221.8398" style="stroke:#181818;stroke-width:1;"/><line style="stroke:#181818;stroke-width:1;" x1="123.5283" x2="123.5283" y1="127.9688" y2="164.7734"/><polygon fill="#181818" points="119.5283,154.7734,123.5283,164.7734,127.5283,154.7734,123.5283,158.7734" style="stroke:#181818;stroke-width:1;"/><line style="stroke:#181818;stroke-width:1;" x1="123.5283" x2="123.5283" y1="261.8086" y2="271.8086"/><line style="stroke:#181818;stroke-width:1;" x1="123.5283" x2="214.0566" y1="271.8086" y2="271.8086"/><polygon fill="#181818" points="210.0566,207.8398,214.0566,197.8398,218.0566,207.8398,214.0566,203.8398" style="stroke:#181818;stroke-width:1;"/><line style="stroke:#181818;stroke-width:1;" x1="214.0566" x2="214.0566" y1="115.9688" y2="271.8086"/><line style="stroke:#181818;stroke-width:1;" x1="214.0566" x2="170.1772" y1="115.9688" y2="115.9688"/><polygon fill="#181818" points="180.1772,111.9688,170.1772,115.9688,180.1772,119.9688,176.1772,115.9688" style="stroke:#181818;stroke-width:1;"/><line style="stroke:#181818;stroke-width:1;" x1="76.8794" x2="24" y1="115.9688" y2="115.9688"/><line style="stroke:#181818;stroke-width:1;" x1="24" x2="24" y1="115.9688" y2="151.9688"/><polygon fill="#181818" points="20,141.9688,24,151.9688,28,141.9688,24,145.9688" style="stroke:#181818;stroke-width:1;"/><line style="stroke:#181818;stroke-width:1;" x1="123.5283" x2="123.5283" y1="83.9688" y2="103.9688"/><polygon fill="#181818" points="119.5283,93.9688,123.5283,103.9688,127.5283,93.9688,123.5283,97.9688" style="stroke:#181818;stroke-width:1;"/><!--SRC=[Aov9B2hXiWfs3L58pY_DAr6mLJ2qvYhFoCn9LT20YDZOAfZQQofa5YjeLAOMQt8fA5ZvXuO4X49rM8C4aFL3Q6sGEQbvAL2Zyl8rkOfByWi0]--></g></svg>