<svg xmlns="http://www.w3.org/2000/svg" xmlns:xlink="http://www.w3.org/1999/xlink" contentStyleType="text/css" data-diagram-type="ACTIVITY" height="1746px" preserveAspectRatio="none" style="width:754px;height:1746px;background:#FFFFFF;" version="1.1" viewBox="0 0 754 1746" width="754px" zoomAndPan="magnify"><defs/><g><ellipse cx="391.3284" cy="20" fill="#222222" rx="10" ry="10" style="stroke:#222222;stroke-width:1;"/><rect fill="#F1F1F1" height="33.9688" rx="12.5" ry="12.5" style="stroke:#181818;stroke-width:0.5;" width="211.8066" x="285.425" y="50"/><text fill="#000000" font-family="sans-serif" font-size="12" lengthAdjust="spacing" textLength="191.8066" x="295.425" y="71.1387">OUTPUT "Enter your password:"</text><rect fill="#F1F1F1" height="33.9688" rx="12.5" ry="12.5" style="stroke:#181818;stroke-width:0.5;" width="116.8613" x="332.8977" y="103.9688"/><text fill="#000000" font-family="sans-serif" font-size="12" lengthAdjust="spacing" textLength="96.8613" x="342.8977" y="125.1074">INPUT password</text><rect fill="#F1F1F1" height="33.9688" rx="12.5" ry="12.5" style="stroke:#181818;stroke-width:0.5;" width="216.9043" x="282.8762" y="157.9375"/><text fill="#000000" font-family="sans-serif" font-size="12" lengthAdjust="spacing" textLength="196.9043" x="292.8762" y="179.0762">SET length = length of password</text><rect fill="#F1F1F1" height="33.9688" rx="12.5" ry="12.5" style="stroke:#181818;stroke-width:0.5;" width="150.1191" x="316.2688" y="211.9063"/><text fill="#000000" font-family="sans-serif" font-size="12" lengthAdjust="spacing" textLength="130.1191" x="326.2688" y="233.0449">SET hasUpper = false</text><rect fill="#F1F1F1" height="33.9688" rx="12.5" ry="12.5" style="stroke:#181818;stroke-width:0.5;" width="149.9434" x="316.3567" y="265.875"/><text fill="#000000" font-family="sans-serif" font-size="12" lengthAdjust="spacing" textLength="129.9434" x="326.3567" y="287.0137">SET hasLower = false</text><rect fill="#F1F1F1" height="33.9688" rx="12.5" ry="12.5" style="stroke:#181818;stroke-width:0.5;" width="142.0156" x="320.3206" y="319.8438"/><text fill="#000000" font-family="sans-serif" font-size="12" lengthAdjust="spacing" textLength="122.0156" x="330.3206" y="340.9824">SET hasDigit = false</text><rect fill="#F1F1F1" height="33.9688" rx="12.5" ry="12.5" style="stroke:#181818;stroke-width:0.5;" width="157.0215" x="312.8176" y="373.8125"/><text fill="#000000" font-family="sans-serif" font-size="12" lengthAdjust="spacing" textLength="137.0215" x="322.8176" y="394.9512">SET hasSpecial = false</text><rect fill="#F1F1F1" height="33.9688" rx="12.5" ry="12.5" style="stroke:#181818;stroke-width:0.5;" width="74.9961" x="353.8303" y="427.7813"/><text fill="#000000" font-family="sans-serif" font-size="12" lengthAdjust="spacing" textLength="54.9961" x="363.8303" y="448.9199">SET i = 0</text><rect fill="#F1F1F1" height="33.9688" rx="12.5" ry="12.5" style="stroke:#181818;stroke-width:0.5;" width="165.0254" x="308.8157" y="537.4604"/><text fill="#000000" font-family="sans-serif" font-size="12" lengthAdjust="spacing" textLength="145.0254" x="318.8157" y="558.5991">character = password[i]</text><polygon fill="#F1F1F1" points="48,591.4292,179.8066,591.4292,191.8066,603.4292,179.8066,615.4292,48,615.4292,36,603.4292,48,591.4292" style="stroke:#181818;stroke-width:0.5;"/><text fill="#000000" font-family="sans-serif" font-size="11" lengthAdjust="spacing" textLength="19.0083" x="117.9033" y="625.6396">yes</text><text fill="#000000" font-family="sans-serif" font-size="11" lengthAdjust="spacing" textLength="131.8066" x="48" y="607.2373">character is uppercase?</text><rect fill="#F1F1F1" height="33.9688" rx="12.5" ry="12.5" style="stroke:#181818;stroke-width:0.5;" width="146.1992" x="40.8037" y="647.1396"/><text fill="#000000" font-family="sans-serif" font-size="12" lengthAdjust="spacing" textLength="126.1992" x="50.8037" y="668.2783">SET hasUpper = true</text><polygon fill="#F1F1F1" points="223.8066,591.4292,353.4595,591.4292,365.4595,603.4292,353.4595,615.4292,223.8066,615.4292,211.8066,603.4292,223.8066,591.4292" style="stroke:#181818;stroke-width:0.5;"/><text fill="#000000" font-family="sans-serif" font-size="11" lengthAdjust="spacing" textLength="19.0083" x="292.6331" y="625.6396">yes</text><text fill="#000000" font-family="sans-serif" font-size="11" lengthAdjust="spacing" textLength="129.6528" x="223.8066" y="607.2373">character is lowercase?</text><rect fill="#F1F1F1" height="33.9688" rx="12.5" ry="12.5" style="stroke:#181818;stroke-width:0.5;" width="146.0234" x="215.6213" y="647.1396"/><text fill="#000000" font-family="sans-serif" font-size="12" lengthAdjust="spacing" textLength="126.0234" x="225.6213" y="668.2783">SET hasLower = true</text><polygon fill="#F1F1F1" points="405.1658,591.4292,503.8489,591.4292,515.8489,603.4292,503.8489,615.4292,405.1658,615.4292,393.1658,603.4292,405.1658,591.4292" style="stroke:#181818;stroke-width:0.5;"/><text fill="#000000" font-family="sans-serif" font-size="11" lengthAdjust="spacing" textLength="19.0083" x="458.5073" y="625.6396">yes</text><text fill="#000000" font-family="sans-serif" font-size="11" lengthAdjust="spacing" textLength="98.6831" x="405.1658" y="607.2373">character is digit?</text><rect fill="#F1F1F1" height="33.9688" rx="12.5" ry="12.5" style="stroke:#181818;stroke-width:0.5;" width="138.0957" x="385.4595" y="647.1396"/><text fill="#000000" font-family="sans-serif" font-size="12" lengthAdjust="spacing" textLength="118.0957" x="395.4595" y="668.2783">SET hasDigit = true</text><polygon fill="#F1F1F1" points="563.7686,591.4292,676.4434,591.4292,688.4434,603.4292,676.4434,615.4292,563.7686,615.4292,551.7686,603.4292,563.7686,591.4292" style="stroke:#181818;stroke-width:0.5;"/><text fill="#000000" font-family="sans-serif" font-size="11" lengthAdjust="spacing" textLength="19.0083" x="624.106" y="625.6396">yes</text><text fill="#000000" font-family="sans-serif" font-size="11" lengthAdjust="spacing" textLength="112.6748" x="563.7686" y="607.2373">character is special?</text><rect fill="#F1F1F1" height="33.9688" rx="12.5" ry="12.5" style="stroke:#181818;stroke-width:0.5;" width="153.1016" x="543.5552" y="647.1396"/><text fill="#000000" font-family="sans-serif" font-size="12" lengthAdjust="spacing" textLength="133.1016" x="553.5552" y="668.2783">SET hasSpecial = true</text><rect fill="#F1F1F1" height="33.9688" rx="12.5" ry="12.5" style="stroke:#181818;stroke-width:0.5;" width="96.0137" x="343.3215" y="721.1084"/><text fill="#000000" font-family="sans-serif" font-size="12" lengthAdjust="spacing" textLength="76.0137" x="353.3215" y="742.2471">SET i = i + 1</text><polygon fill="#F1F1F1" points="326.2388,481.75,456.418,481.75,468.418,493.75,456.418,505.75,326.2388,505.75,314.2388,493.75,326.2388,481.75" style="stroke:#181818;stroke-width:0.5;"/><text fill="#000000" font-family="sans-serif" font-size="11" lengthAdjust="spacing" textLength="19.0083" x="395.3284" y="515.9604">yes</text><text fill="#000000" font-family="sans-serif" font-size="11" lengthAdjust="spacing" textLength="130.1792" x="326.2388" y="497.5581">i &lt; length of password?</text><text fill="#000000" font-family="sans-serif" font-size="11" lengthAdjust="spacing" textLength="13.7017" x="300.5371" y="491.1558">no</text><rect fill="#F1F1F1" height="33.9688" rx="12.5" ry="12.5" style="stroke:#181818;stroke-width:0.5;" width="158.1055" x="312.2756" y="797.0771"/><text fill="#000000" font-family="sans-serif" font-size="12" lengthAdjust="spacing" textLength="138.1055" x="322.2756" y="818.2158">SET strengthCount = 0</text><rect fill="#F1F1F1" height="33.9688" rx="12.5" ry="12.5" style="stroke:#181818;stroke-width:0.5;" width="262.2324" x="260.2122" y="899.4482"/><text fill="#000000" font-family="sans-serif" font-size="12" lengthAdjust="spacing" textLength="242.2324" x="270.2122" y="920.5869">SET strengthCount = strengthCount + 1</text><polygon fill="#F1F1F1" points="354.6653,851.0459,427.9915,851.0459,439.9915,863.0459,427.9915,875.0459,354.6653,875.0459,342.6653,863.0459,354.6653,851.0459" style="stroke:#181818;stroke-width:0.5;"/><text fill="#000000" font-family="sans-serif" font-size="11" lengthAdjust="spacing" textLength="19.0083" x="395.3284" y="885.2563">yes</text><text fill="#000000" font-family="sans-serif" font-size="11" lengthAdjust="spacing" textLength="73.3262" x="354.6653" y="866.854">length &gt;= 8?</text><polygon fill="#F1F1F1" points="391.3284,953.417,403.3284,965.417,391.3284,977.417,379.3284,965.417,391.3284,953.417" style="stroke:#181818;stroke-width:0.5;"/><rect fill="#F1F1F1" height="33.9688" rx="12.5" ry="12.5" style="stroke:#181818;stroke-width:0.5;" width="262.2324" x="260.2122" y="1045.8193"/><text fill="#000000" font-family="sans-serif" font-size="12" lengthAdjust="spacing" textLength="242.2324" x="270.2122" y="1066.958">SET strengthCount = strengthCount + 1</text><polygon fill="#F1F1F1" points="342.6421,997.417,440.0146,997.417,452.0146,1009.417,440.0146,1021.417,342.6421,1021.417,330.6421,1009.417,342.6421,997.417" style="stroke:#181818;stroke-width:0.5;"/><text fill="#000000" font-family="sans-serif" font-size="11" lengthAdjust="spacing" textLength="19.0083" x="395.3284" y="1031.6274">yes</text><text fill="#000000" font-family="sans-serif" font-size="11" lengthAdjust="spacing" textLength="97.3726" x="342.6421" y="1013.2251">hasUpper = true?</text><polygon fill="#F1F1F1" points="391.3284,1099.7881,403.3284,1111.7881,391.3284,1123.7881,379.3284,1111.7881,391.3284,1099.7881" style="stroke:#181818;stroke-width:0.5;"/><rect fill="#F1F1F1" height="33.9688" rx="12.5" ry="12.5" style="stroke:#181818;stroke-width:0.5;" width="262.2324" x="260.2122" y="1192.1904"/><text fill="#000000" font-family="sans-serif" font-size="12" lengthAdjust="spacing" textLength="242.2324" x="270.2122" y="1213.3291">SET strengthCount = strengthCount + 1</text><polygon fill="#F1F1F1" points="342.7227,1143.7881,439.9341,1143.7881,451.9341,1155.7881,439.9341,1167.7881,342.7227,1167.7881,330.7227,1155.7881,342.7227,1143.7881" style="stroke:#181818;stroke-width:0.5;"/><text fill="#000000" font-family="sans-serif" font-size="11" lengthAdjust="spacing" textLength="19.0083" x="395.3284" y="1177.9985">yes</text><text fill="#000000" font-family="sans-serif" font-size="11" lengthAdjust="spacing" textLength="97.2114" x="342.7227" y="1159.5962">hasLower = true?</text><polygon fill="#F1F1F1" points="391.3284,1246.1592,403.3284,1258.1592,391.3284,1270.1592,379.3284,1258.1592,391.3284,1246.1592" style="stroke:#181818;stroke-width:0.5;"/><rect fill="#F1F1F1" height="33.9688" rx="12.5" ry="12.5" style="stroke:#181818;stroke-width:0.5;" width="262.2324" x="260.2122" y="1338.5615"/><text fill="#000000" font-family="sans-serif" font-size="12" lengthAdjust="spacing" textLength="242.2324" x="270.2122" y="1359.7002">SET strengthCount = strengthCount + 1</text><polygon fill="#F1F1F1" points="346.3562,1290.1592,436.3005,1290.1592,448.3005,1302.1592,436.3005,1314.1592,346.3562,1314.1592,334.3562,1302.1592,346.3562,1290.1592" style="stroke:#181818;stroke-width:0.5;"/><text fill="#000000" font-family="sans-serif" font-size="11" lengthAdjust="spacing" textLength="19.0083" x="395.3284" y="1324.3696">yes</text><text fill="#000000" font-family="sans-serif" font-size="11" lengthAdjust="spacing" textLength="89.9443" x="346.3562" y="1305.9673">hasDigit = true?</text><polygon fill="#F1F1F1" points="391.3284,1392.5303,403.3284,1404.5303,391.3284,1416.5303,379.3284,1404.5303,391.3284,1392.5303" style="stroke:#181818;stroke-width:0.5;"/><rect fill="#F1F1F1" height="33.9688" rx="12.5" ry="12.5" style="stroke:#181818;stroke-width:0.5;" width="262.2324" x="260.2122" y="1484.9326"/><text fill="#000000" font-family="sans-serif" font-size="12" lengthAdjust="spacing" textLength="242.2324" x="270.2122" y="1506.0713">SET strengthCount = strengthCount + 1</text><polygon fill="#F1F1F1" points="339.4785,1436.5303,443.1782,1436.5303,455.1782,1448.5303,443.1782,1460.5303,339.4785,1460.5303,327.4785,1448.5303,339.4785,1436.5303" style="stroke:#181818;stroke-width:0.5;"/><text fill="#000000" font-family="sans-serif" font-size="11" lengthAdjust="spacing" textLength="19.0083" x="395.3284" y="1470.7407">yes</text><text fill="#000000" font-family="sans-serif" font-size="11" lengthAdjust="spacing" textLength="103.6997" x="339.4785" y="1452.3384">hasSpecial = true?</text><polygon fill="#F1F1F1" points="391.3284,1538.9014,403.3284,1550.9014,391.3284,1562.9014,379.3284,1550.9014,391.3284,1538.9014" style="stroke:#181818;stroke-width:0.5;"/><polygon fill="#F1F1F1" points="127.0522,1582.9014,244.5557,1582.9014,256.5557,1594.9014,244.5557,1606.9014,127.0522,1606.9014,115.0522,1594.9014,127.0522,1582.9014" style="stroke:#181818;stroke-width:0.5;"/><text fill="#000000" font-family="sans-serif" font-size="11" lengthAdjust="spacing" textLength="19.0083" x="189.804" y="1617.1118">yes</text><text fill="#000000" font-family="sans-serif" font-size="11" lengthAdjust="spacing" textLength="117.5034" x="127.0522" y="1598.7095">strengthCount &gt;= 4?</text><rect fill="#F1F1F1" height="33.9688" rx="12.5" ry="12.5" style="stroke:#181818;stroke-width:0.5;" width="184.5781" x="93.5149" y="1639.7061"/><text fill="#000000" font-family="sans-serif" font-size="12" lengthAdjust="spacing" textLength="164.5781" x="103.5149" y="1660.8447">OUTPUT "Strong password"</text><polygon fill="#F1F1F1" points="335.7114,1582.9014,453.2148,1582.9014,465.2148,1594.9014,453.2148,1606.9014,335.7114,1606.9014,323.7114,1594.9014,335.7114,1582.9014" style="stroke:#181818;stroke-width:0.5;"/><text fill="#000000" font-family="sans-serif" font-size="11" lengthAdjust="spacing" textLength="19.0083" x="398.4631" y="1617.1118">yes</text><text fill="#000000" font-family="sans-serif" font-size="11" lengthAdjust="spacing" textLength="117.5034" x="335.7114" y="1598.7095">strengthCount &gt;= 2?</text><text fill="#000000" font-family="sans-serif" font-size="11" lengthAdjust="spacing" textLength="13.7017" x="465.2148" y="1592.3071">no</text><rect fill="#F1F1F1" height="33.9688" rx="12.5" ry="12.5" style="stroke:#181818;stroke-width:0.5;" width="192.7402" x="298.093" y="1639.7061"/><text fill="#000000" font-family="sans-serif" font-size="12" lengthAdjust="spacing" textLength="172.7402" x="308.093" y="1660.8447">OUTPUT "Medium password"</text><rect fill="#F1F1F1" height="33.9688" rx="12.5" ry="12.5" style="stroke:#181818;stroke-width:0.5;" width="178.3086" x="510.8333" y="1636.3037"/><text fill="#000000" font-family="sans-serif" font-size="12" lengthAdjust="spacing" textLength="158.3086" x="520.8333" y="1657.4424">OUTPUT "Weak password"</text><ellipse cx="391.3284" cy="1724.6748" fill="none" rx="11" ry="11" style="stroke:#222222;stroke-width:1;"/><ellipse cx="391.3284" cy="1724.6748" fill="#222222" rx="6" ry="6" style="stroke:#222222;stroke-width:1;"/><line style="stroke:#181818;stroke-width:1;" x1="391.3284" x2="391.3284" y1="30" y2="50"/><polygon fill="#181818" points="387.3284,40,391.3284,50,395.3284,40,391.3284,44" style="stroke:#181818;stroke-width:1;"/><line style="stroke:#181818;stroke-width:1;" x1="391.3284" x2="391.3284" y1="83.9688" y2="103.9688"/><polygon fill="#181818" points="387.3284,93.9688,391.3284,103.9688,395.3284,93.9688,391.3284,97.9688" style="stroke:#181818;stroke-width:1;"/><line style="stroke:#181818;stroke-width:1;" x1="391.3284" x2="391.3284" y1="137.9375" y2="157.9375"/><polygon fill="#181818" points="387.3284,147.9375,391.3284,157.9375,395.3284,147.9375,391.3284,151.9375" style="stroke:#181818;stroke-width:1;"/><line style="stroke:#181818;stroke-width:1;" x1="391.3284" x2="391.3284" y1="191.9063" y2="211.9063"/><polygon fill="#181818" points="387.3284,201.9063,391.3284,211.9063,395.3284,201.9063,391.3284,205.9063" style="stroke:#181818;stroke-width:1;"/><line style="stroke:#181818;stroke-width:1;" x1="391.3284" x2="391.3284" y1="245.875" y2="265.875"/><polygon fill="#181818" points="387.3284,255.875,391.3284,265.875,395.3284,255.875,391.3284,259.875" style="stroke:#181818;stroke-width:1;"/><line style="stroke:#181818;stroke-width:1;" x1="391.3284" x2="391.3284" y1="299.8438" y2="319.8438"/><polygon fill="#181818" points="387.3284,309.8438,391.3284,319.8438,395.3284,309.8438,391.3284,313.8438" style="stroke:#181818;stroke-width:1;"/><line style="stroke:#181818;stroke-width:1;" x1="391.3284" x2="391.3284" y1="353.8125" y2="373.8125"/><polygon fill="#181818" points="387.3284,363.8125,391.3284,373.8125,395.3284,363.8125,391.3284,367.8125" style="stroke:#181818;stroke-width:1;"/><line style="stroke:#181818;stroke-width:1;" x1="391.3284" x2="391.3284" y1="407.7813" y2="427.7813"/><polygon fill="#181818" points="387.3284,417.7813,391.3284,427.7813,395.3284,417.7813,391.3284,421.7813" style="stroke:#181818;stroke-width:1;"/><line style="stroke:#181818;stroke-width:1;" x1="113.9033" x2="113.9033" y1="615.4292" y2="647.1396"/><polygon fill="#181818" points="109.9033,637.1396,113.9033,647.1396,117.9033,637.1396,113.9033,641.1396" style="stroke:#181818;stroke-width:1;"/><line style="stroke:#181818;stroke-width:1;" x1="113.9033" x2="113.9033" y1="681.1084" y2="701.1084"/><polygon fill="#181818" points="109.9033,691.1084,113.9033,701.1084,117.9033,691.1084,113.9033,695.1084" style="stroke:#181818;stroke-width:1;"/><line style="stroke:#181818;stroke-width:1;" x1="288.6331" x2="288.6331" y1="615.4292" y2="647.1396"/><polygon fill="#181818" points="284.6331,637.1396,288.6331,647.1396,292.6331,637.1396,288.6331,641.1396" style="stroke:#181818;stroke-width:1;"/><line style="stroke:#181818;stroke-width:1;" x1="288.6331" x2="288.6331" y1="681.1084" y2="701.1084"/><polygon fill="#181818" points="284.6331,691.1084,288.6331,701.1084,292.6331,691.1084,288.6331,695.1084" style="stroke:#181818;stroke-width:1;"/><line style="stroke:#181818;stroke-width:1;" x1="454.5073" x2="454.5073" y1="615.4292" y2="647.1396"/><polygon fill="#181818" points="450.5073,637.1396,454.5073,647.1396,458.5073,637.1396,454.5073,641.1396" style="stroke:#181818;stroke-width:1;"/><line style="stroke:#181818;stroke-width:1;" x1="454.5073" x2="454.5073" y1="681.1084" y2="701.1084"/><polygon fill="#181818" points="450.5073,691.1084,454.5073,701.1084,458.5073,691.1084,454.5073,695.1084" style="stroke:#181818;stroke-width:1;"/><line style="stroke:#181818;stroke-width:1;" x1="620.106" x2="620.106" y1="615.4292" y2="647.1396"/><polygon fill="#181818" points="616.106,637.1396,620.106,647.1396,624.106,637.1396,620.106,641.1396" style="stroke:#181818;stroke-width:1;"/><line style="stroke:#181818;stroke-width:1;" x1="620.106" x2="620.106" y1="681.1084" y2="701.1084"/><polygon fill="#181818" points="616.106,691.1084,620.106,701.1084,624.106,691.1084,620.106,695.1084" style="stroke:#181818;stroke-width:1;"/><line style="stroke:#181818;stroke-width:1;" x1="191.8066" x2="211.8066" y1="603.4292" y2="603.4292"/><polygon fill="#181818" points="201.8066,599.4292,211.8066,603.4292,201.8066,607.4292,205.8066,603.4292" style="stroke:#181818;stroke-width:1;"/><line style="stroke:#181818;stroke-width:1;" x1="365.4595" x2="393.1658" y1="603.4292" y2="603.4292"/><polygon fill="#181818" points="383.1658,599.4292,393.1658,603.4292,383.1658,607.4292,387.1658,603.4292" style="stroke:#181818;stroke-width:1;"/><line style="stroke:#181818;stroke-width:1;" x1="515.8489" x2="551.7686" y1="603.4292" y2="603.4292"/><polygon fill="#181818" points="541.7686,599.4292,551.7686,603.4292,541.7686,607.4292,545.7686,603.4292" style="stroke:#181818;stroke-width:1;"/><line style="stroke:#181818;stroke-width:1;" x1="391.3284" x2="391.3284" y1="571.4292" y2="576.4292"/><line style="stroke:#181818;stroke-width:1;" x1="391.3284" x2="113.9033" y1="576.4292" y2="576.4292"/><line style="stroke:#181818;stroke-width:1;" x1="113.9033" x2="113.9033" y1="576.4292" y2="591.4292"/><polygon fill="#181818" points="109.9033,581.4292,113.9033,591.4292,117.9033,581.4292,113.9033,585.4292" style="stroke:#181818;stroke-width:1;"/><line style="stroke:#181818;stroke-width:1;" x1="688.4434" x2="710.6567" y1="603.4292" y2="603.4292"/><line style="stroke:#181818;stroke-width:1;" x1="710.6567" x2="710.6567" y1="603.4292" y2="701.1084"/><polygon fill="#181818" points="706.6567,691.1084,710.6567,701.1084,714.6567,691.1084,710.6567,695.1084" style="stroke:#181818;stroke-width:1;"/><line style="stroke:#181818;stroke-width:1;" x1="113.9033" x2="710.6567" y1="701.1084" y2="701.1084"/><line style="stroke:#181818;stroke-width:1;" x1="391.3284" x2="391.3284" y1="701.1084" y2="721.1084"/><polygon fill="#181818" points="387.3284,711.1084,391.3284,721.1084,395.3284,711.1084,391.3284,715.1084" style="stroke:#181818;stroke-width:1;"/><line style="stroke:#181818;stroke-width:1;" x1="391.3284" x2="391.3284" y1="505.75" y2="537.4604"/><polygon fill="#181818" points="387.3284,527.4604,391.3284,537.4604,395.3284,527.4604,391.3284,531.4604" style="stroke:#181818;stroke-width:1;"/><line style="stroke:#181818;stroke-width:1;" x1="391.3284" x2="391.3284" y1="755.0771" y2="765.0771"/><line style="stroke:#181818;stroke-width:1;" x1="391.3284" x2="728.6567" y1="765.0771" y2="765.0771"/><polygon fill="#181818" points="724.6567,652.3193,728.6567,642.3193,732.6567,652.3193,728.6567,648.3193" style="stroke:#181818;stroke-width:1;"/><line style="stroke:#181818;stroke-width:1;" x1="728.6567" x2="728.6567" y1="493.75" y2="765.0771"/><line style="stroke:#181818;stroke-width:1;" x1="728.6567" x2="468.418" y1="493.75" y2="493.75"/><polygon fill="#181818" points="478.418,489.75,468.418,493.75,478.418,497.75,474.418,493.75" style="stroke:#181818;stroke-width:1;"/><line style="stroke:#181818;stroke-width:1;" x1="314.2388" x2="24" y1="493.75" y2="493.75"/><polygon fill="#181818" points="20,638.3193,24,648.3193,28,638.3193,24,642.3193" style="stroke:#181818;stroke-width:1;"/><line style="stroke:#181818;stroke-width:1;" x1="24" x2="24" y1="493.75" y2="777.0771"/><line style="stroke:#181818;stroke-width:1;" x1="24" x2="391.3284" y1="777.0771" y2="777.0771"/><line style="stroke:#181818;stroke-width:1;" x1="391.3284" x2="391.3284" y1="777.0771" y2="797.0771"/><polygon fill="#181818" points="387.3284,787.0771,391.3284,797.0771,395.3284,787.0771,391.3284,791.0771" style="stroke:#181818;stroke-width:1;"/><line style="stroke:#181818;stroke-width:1;" x1="391.3284" x2="391.3284" y1="461.75" y2="481.75"/><polygon fill="#181818" points="387.3284,471.75,391.3284,481.75,395.3284,471.75,391.3284,475.75" style="stroke:#181818;stroke-width:1;"/><line style="stroke:#181818;stroke-width:1;" x1="391.3284" x2="391.3284" y1="875.0459" y2="899.4482"/><polygon fill="#181818" points="387.3284,889.4482,391.3284,899.4482,395.3284,889.4482,391.3284,893.4482" style="stroke:#181818;stroke-width:1;"/><line style="stroke:#181818;stroke-width:1;" x1="439.9915" x2="532.4446" y1="863.0459" y2="863.0459"/><polygon fill="#181818" points="528.4446,906.4326,532.4446,916.4326,536.4446,906.4326,532.4446,910.4326" style="stroke:#181818;stroke-width:1;"/><line style="stroke:#181818;stroke-width:1;" x1="532.4446" x2="532.4446" y1="863.0459" y2="965.417"/><line style="stroke:#181818;stroke-width:1;" x1="532.4446" x2="403.3284" y1="965.417" y2="965.417"/><polygon fill="#181818" points="413.3284,961.417,403.3284,965.417,413.3284,969.417,409.3284,965.417" style="stroke:#181818;stroke-width:1;"/><line style="stroke:#181818;stroke-width:1;" x1="391.3284" x2="391.3284" y1="933.417" y2="953.417"/><polygon fill="#181818" points="387.3284,943.417,391.3284,953.417,395.3284,943.417,391.3284,947.417" style="stroke:#181818;stroke-width:1;"/><line style="stroke:#181818;stroke-width:1;" x1="391.3284" x2="391.3284" y1="831.0459" y2="851.0459"/><polygon fill="#181818" points="387.3284,841.0459,391.3284,851.0459,395.3284,841.0459,391.3284,845.0459" style="stroke:#181818;stroke-width:1;"/><line style="stroke:#181818;stroke-width:1;" x1="391.3284" x2="391.3284" y1="1021.417" y2="1045.8193"/><polygon fill="#181818" points="387.3284,1035.8193,391.3284,1045.8193,395.3284,1035.8193,391.3284,1039.8193" style="stroke:#181818;stroke-width:1;"/><line style="stroke:#181818;stroke-width:1;" x1="452.0146" x2="532.4446" y1="1009.417" y2="1009.417"/><polygon fill="#181818" points="528.4446,1052.8037,532.4446,1062.8037,536.4446,1052.8037,532.4446,1056.8037" style="stroke:#181818;stroke-width:1;"/><line style="stroke:#181818;stroke-width:1;" x1="532.4446" x2="532.4446" y1="1009.417" y2="1111.7881"/><line style="stroke:#181818;stroke-width:1;" x1="532.4446" x2="403.3284" y1="1111.7881" y2="1111.7881"/><polygon fill="#181818" points="413.3284,1107.7881,403.3284,1111.7881,413.3284,1115.7881,409.3284,1111.7881" style="stroke:#181818;stroke-width:1;"/><line style="stroke:#181818;stroke-width:1;" x1="391.3284" x2="391.3284" y1="1079.7881" y2="1099.7881"/><polygon fill="#181818" points="387.3284,1089.7881,391.3284,1099.7881,395.3284,1089.7881,391.3284,1093.7881" style="stroke:#181818;stroke-width:1;"/><line style="stroke:#181818;stroke-width:1;" x1="391.3284" x2="391.3284" y1="977.417" y2="997.417"/><polygon fill="#181818" points="387.3284,987.417,391.3284,997.417,395.3284,987.417,391.3284,991.417" style="stroke:#181818;stroke-width:1;"/><line style="stroke:#181818;stroke-width:1;" x1="391.3284" x2="391.3284" y1="1167.7881" y2="1192.1904"/><polygon fill="#181818" points="387.3284,1182.1904,391.3284,1192.1904,395.3284,1182.1904,391.3284,1186.1904" style="stroke:#181818;stroke-width:1;"/><line style="stroke:#181818;stroke-width:1;" x1="451.9341" x2="532.4446" y1="1155.7881" y2="1155.7881"/><polygon fill="#181818" points="528.4446,1199.1748,532.4446,1209.1748,536.4446,1199.1748,532.4446,1203.1748" style="stroke:#181818;stroke-width:1;"/><line style="stroke:#181818;stroke-width:1;" x1="532.4446" x2="532.4446" y1="1155.7881" y2="1258.1592"/><line style="stroke:#181818;stroke-width:1;" x1="532.4446" x2="403.3284" y1="1258.1592" y2="1258.1592"/><polygon fill="#181818" points="413.3284,1254.1592,403.3284,1258.1592,413.3284,1262.1592,409.3284,1258.1592" style="stroke:#181818;stroke-width:1;"/><line style="stroke:#181818;stroke-width:1;" x1="391.3284" x2="391.3284" y1="1226.1592" y2="1246.1592"/><polygon fill="#181818" points="387.3284,1236.1592,391.3284,1246.1592,395.3284,1236.1592,391.3284,1240.1592" style="stroke:#181818;stroke-width:1;"/><line style="stroke:#181818;stroke-width:1;" x1="391.3284" x2="391.3284" y1="1123.7881" y2="1143.7881"/><polygon fill="#181818" points="387.3284,1133.7881,391.3284,1143.7881,395.3284,1133.7881,391.3284,1137.7881" style="stroke:#181818;stroke-width:1;"/><line style="stroke:#181818;stroke-width:1;" x1="391.3284" x2="391.3284" y1="1314.1592" y2="1338.5615"/><polygon fill="#181818" points="387.3284,1328.5615,391.3284,1338.5615,395.3284,1328.5615,391.3284,1332.5615" style="stroke:#181818;stroke-width:1;"/><line style="stroke:#181818;stroke-width:1;" x1="448.3005" x2="532.4446" y1="1302.1592" y2="1302.1592"/><polygon fill="#181818" points="528.4446,1345.5459,532.4446,1355.5459,536.4446,1345.5459,532.4446,1349.5459" style="stroke:#181818;stroke-width:1;"/><line style="stroke:#181818;stroke-width:1;" x1="532.4446" x2="532.4446" y1="1302.1592" y2="1404.5303"/><line style="stroke:#181818;stroke-width:1;" x1="532.4446" x2="403.3284" y1="1404.5303" y2="1404.5303"/><polygon fill="#181818" points="413.3284,1400.5303,403.3284,1404.5303,413.3284,1408.5303,409.3284,1404.5303" style="stroke:#181818;stroke-width:1;"/><line style="stroke:#181818;stroke-width:1;" x1="391.3284" x2="391.3284" y1="1372.5303" y2="1392.5303"/><polygon fill="#181818" points="387.3284,1382.5303,391.3284,1392.5303,395.3284,1382.5303,391.3284,1386.5303" style="stroke:#181818;stroke-width:1;"/><line style="stroke:#181818;stroke-width:1;" x1="391.3284" x2="391.3284" y1="1270.1592" y2="1290.1592"/><polygon fill="#181818" points="387.3284,1280.1592,391.3284,1290.1592,395.3284,1280.1592,391.3284,1284.1592" style="stroke:#181818;stroke-width:1;"/><line style="stroke:#181818;stroke-width:1;" x1="391.3284" x2="391.3284" y1="1460.5303" y2="1484.9326"/><polygon fill="#181818" points="387.3284,1474.9326,391.3284,1484.9326,395.3284,1474.9326,391.3284,1478.9326" style="stroke:#181818;stroke-width:1;"/><line style="stroke:#181818;stroke-width:1;" x1="455.1782" x2="532.4446" y1="1448.5303" y2="1448.5303"/><polygon fill="#181818" points="528.4446,1491.917,532.4446,1501.917,536.4446,1491.917,532.4446,1495.917" style="stroke:#181818;stroke-width:1;"/><line style="stroke:#181818;stroke-width:1;" x1="532.4446" x2="532.4446" y1="1448.5303" y2="1550.9014"/><line style="stroke:#181818;stroke-width:1;" x1="532.4446" x2="403.3284" y1="1550.9014" y2="1550.9014"/><polygon fill="#181818" points="413.3284,1546.9014,403.3284,1550.9014,413.3284,1554.9014,409.3284,1550.9014" style="stroke:#181818;stroke-width:1;"/><line style="stroke:#181818;stroke-width:1;" x1="391.3284" x2="391.3284" y1="1518.9014" y2="1538.9014"/><polygon fill="#181818" points="387.3284,1528.9014,391.3284,1538.9014,395.3284,1528.9014,391.3284,1532.9014" style="stroke:#181818;stroke-width:1;"/><line style="stroke:#181818;stroke-width:1;" x1="391.3284" x2="391.3284" y1="1416.5303" y2="1436.5303"/><polygon fill="#181818" points="387.3284,1426.5303,391.3284,1436.5303,395.3284,1426.5303,391.3284,1430.5303" style="stroke:#181818;stroke-width:1;"/><line style="stroke:#181818;stroke-width:1;" x1="185.804" x2="185.804" y1="1606.9014" y2="1639.7061"/><polygon fill="#181818" points="181.804,1629.7061,185.804,1639.7061,189.804,1629.7061,185.804,1633.7061" style="stroke:#181818;stroke-width:1;"/><line style="stroke:#181818;stroke-width:1;" x1="185.804" x2="185.804" y1="1673.6748" y2="1693.6748"/><polygon fill="#181818" points="181.804,1683.6748,185.804,1693.6748,189.804,1683.6748,185.804,1687.6748" style="stroke:#181818;stroke-width:1;"/><line style="stroke:#181818;stroke-width:1;" x1="394.4631" x2="394.4631" y1="1606.9014" y2="1639.7061"/><polygon fill="#181818" points="390.4631,1629.7061,394.4631,1639.7061,398.4631,1629.7061,394.4631,1633.7061" style="stroke:#181818;stroke-width:1;"/><line style="stroke:#181818;stroke-width:1;" x1="394.4631" x2="394.4631" y1="1673.6748" y2="1693.6748"/><polygon fill="#181818" points="390.4631,1683.6748,394.4631,1693.6748,398.4631,1683.6748,394.4631,1687.6748" style="stroke:#181818;stroke-width:1;"/><line style="stroke:#181818;stroke-width:1;" x1="256.5557" x2="323.7114" y1="1594.9014" y2="1594.9014"/><polygon fill="#181818" points="313.7114,1590.9014,323.7114,1594.9014,313.7114,1598.9014,317.7114,1594.9014" style="stroke:#181818;stroke-width:1;"/><line style="stroke:#181818;stroke-width:1;" x1="391.3284" x2="391.3284" y1="1562.9014" y2="1567.9014"/><line style="stroke:#181818;stroke-width:1;" x1="391.3284" x2="185.804" y1="1567.9014" y2="1567.9014"/><line style="stroke:#181818;stroke-width:1;" x1="185.804" x2="185.804" y1="1567.9014" y2="1582.9014"/><polygon fill="#181818" points="181.804,1572.9014,185.804,1582.9014,189.804,1572.9014,185.804,1576.9014" style="stroke:#181818;stroke-width:1;"/><line style="stroke:#181818;stroke-width:1;" x1="465.2148" x2="599.9875" y1="1594.9014" y2="1594.9014"/><line style="stroke:#181818;stroke-width:1;" x1="599.9875" x2="599.9875" y1="1594.9014" y2="1636.3037"/><polygon fill="#181818" points="595.9875,1626.3037,599.9875,1636.3037,603.9875,1626.3037,599.9875,1630.3037" style="stroke:#181818;stroke-width:1;"/><line style="stroke:#181818;stroke-width:1;" x1="599.9875" x2="599.9875" y1="1670.2725" y2="1693.6748"/><polygon fill="#181818" points="595.9875,1683.6748,599.9875,1693.6748,603.9875,1683.6748,599.9875,1687.6748" style="stroke:#181818;stroke-width:1;"/><line style="stroke:#181818;stroke-width:1;" x1="185.804" x2="599.9875" y1="1693.6748" y2="1693.6748"/><line style="stroke:#181818;stroke-width:1;" x1="391.3284" x2="391.3284" y1="1693.6748" y2="1713.6748"/><polygon fill="#181818" points="387.3284,1703.6748,391.3284,1713.6748,395.3284,1703.6748,391.3284,1707.6748" style="stroke:#181818;stroke-width:1;"/><!--SRC=[hPGzRuCm48Pt_ufJ9g8kRTMXWgOTsWoL-YKbKOSgWmK7MAKsiesY_FlQ0HCmWOaDtvsVEx-liT9KQX9-xhPVkoqirboZXAEe99HKgOEGIRY8IFZwOTCkP0ARzHOAv9dEOUK-HEfNv5Jjoj8GLv3IGk4v_2OEby8lB6Dw6DwK63DQU0bcrjSH8OUS5GW1WuSBapmjWIa8ZgYM122CSoffh4-zNSaFsqScnr88pccpgRAZnrIXOUWSUKin7EzqMbPe6MYc6t0AUzPfZfDZafDOSSOPJhj9XggL7AUSfMuvF64fQIgivWoku2OY9juepyMIr9OeBKyEF8kAwyOUEqFZo-CAxltM5_VrrwwT6UD4yuIVXzYrO1vYrv1vY7rpPc3siyQUkm7KFGqRBGNFsf_6l0hkWWqWjwEGTqnOzUT3wXlKAVj6-jihgYTMMfJ_]--></g></svg>