<svg xmlns="http://www.w3.org/2000/svg" xmlns:xlink="http://www.w3.org/1999/xlink" contentStyleType="text/css" data-diagram-type="ACTIVITY" height="244px" preserveAspectRatio="none" style="width:141px;height:244px;background:#FFFFFF;" version="1.1" viewBox="0 0 141 244" width="141px" zoomAndPan="magnify"><defs/><g><ellipse cx="70.9424" cy="20" fill="#222222" rx="10" ry="10" style="stroke:#222222;stroke-width:1;"/><rect fill="#F1F1F1" height="33.9688" rx="12.5" ry="12.5" style="stroke:#181818;stroke-width:0.5;" width="119.8848" x="11" y="50"/><text fill="#000000" font-family="sans-serif" font-size="12" lengthAdjust="spacing" textLength="99.8848" x="21" y="71.1387">INPUT username</text><rect fill="#F1F1F1" height="33.9688" rx="12.5" ry="12.5" style="stroke:#181818;stroke-width:0.5;" width="114.0723" x="13.9063" y="103.9688"/><text fill="#000000" font-family="sans-serif" font-size="12" lengthAdjust="spacing" textLength="94.0723" x="23.9063" y="125.1074">Calculate result</text><rect fill="#F1F1F1" height="33.9688" rx="12.5" ry="12.5" style="stroke:#181818;stroke-width:0.5;" width="106.9355" x="17.4746" y="157.9375"/><text fill="#000000" font-family="sans-serif" font-size="12" lengthAdjust="spacing" textLength="86.9355" x="27.4746" y="179.0762">OUTPUT result</text><ellipse cx="70.9424" cy="222.9063" fill="none" rx="11" ry="11" style="stroke:#222222;stroke-width:1;"/><ellipse cx="70.9424" cy="222.9063" fill="#222222" rx="6" ry="6" style="stroke:#222222;stroke-width:1;"/><line style="stroke:#181818;stroke-width:1;" x1="70.9424" x2="70.9424" y1="30" y2="50"/><polygon fill="#181818" points="66.9424,40,70.9424,50,74.9424,40,70.9424,44" style="stroke:#181818;stroke-width:1;"/><line style="stroke:#181818;stroke-width:1;" x1="70.9424" x2="70.9424" y1="83.9688" y2="103.9688"/><polygon fill="#181818" points="66.9424,93.9688,70.9424,103.9688,74.9424,93.9688,70.9424,97.9688" style="stroke:#181818;stroke-width:1;"/><line style="stroke:#181818;stroke-width:1;" x1="70.9424" x2="70.9424" y1="137.9375" y2="157.9375"/><polygon fill="#181818" points="66.9424,147.9375,70.9424,157.9375,74.9424,147.9375,70.9424,151.9375" style="stroke:#181818;stroke-width:1;"/><line style="stroke:#181818;stroke-width:1;" x1="70.9424" x2="70.9424" y1="191.9063" y2="211.9063"/><polygon fill="#181818" points="66.9424,201.9063,70.9424,211.9063,74.9424,201.9063,70.9424,205.9063" style="stroke:#181818;stroke-width:1;"/><!--SRC=[Aov9B2hXilBq2mWDKIWjJYtAIynDjUQoSaxCIIxDIIn9LIXABIxDAG4A-OU6W1J1-CKb-GK0]--></g></svg>