<svg xmlns="http://www.w3.org/2000/svg" xmlns:xlink="http://www.w3.org/1999/xlink" contentStyleType="text/css" data-diagram-type="ACTIVITY" height="699px" preserveAspectRatio="none" style="width:304px;height:699px;background:#FFFFFF;" version="1.1" viewBox="0 0 304 699" width="304px" zoomAndPan="magnify"><defs/><g><ellipse cx="152.3203" cy="20" fill="#222222" rx="10" ry="10" style="stroke:#222222;stroke-width:1;"/><rect fill="#F1F1F1" height="33.9688" rx="12.5" ry="12.5" style="stroke:#181818;stroke-width:0.5;" width="212.7383" x="45.9512" y="50"/><text fill="#000000" font-family="sans-serif" font-size="12" lengthAdjust="spacing" textLength="192.7383" x="55.9512" y="71.1387">OUTPUT "Enter three numbers:"</text><rect fill="#F1F1F1" height="33.9688" rx="12.5" ry="12.5" style="stroke:#181818;stroke-width:0.5;" width="94.2148" x="105.2129" y="103.9688"/><text fill="#000000" font-family="sans-serif" font-size="12" lengthAdjust="spacing" textLength="74.2148" x="115.2129" y="125.1074">INPUT num1</text><rect fill="#F1F1F1" height="33.9688" rx="12.5" ry="12.5" style="stroke:#181818;stroke-width:0.5;" width="94.2148" x="105.2129" y="157.9375"/><text fill="#000000" font-family="sans-serif" font-size="12" lengthAdjust="spacing" textLength="74.2148" x="115.2129" y="179.0762">INPUT num2</text><rect fill="#F1F1F1" height="33.9688" rx="12.5" ry="12.5" style="stroke:#181818;stroke-width:0.5;" width="94.2148" x="105.2129" y="211.9063"/><text fill="#000000" font-family="sans-serif" font-size="12" lengthAdjust="spacing" textLength="74.2148" x="115.2129" y="233.0449">INPUT num3</text><rect fill="#F1F1F1" height="33.9688" rx="12.5" ry="12.5" style="stroke:#181818;stroke-width:0.5;" width="140.1406" x="82.25" y="265.875"/><text fill="#000000" font-family="sans-serif" font-size="12" lengthAdjust="spacing" textLength="120.1406" x="92.25" y="287.0137">SET largest = num1</text><rect fill="#F1F1F1" height="33.9688" rx="12.5" ry="12.5" style="stroke:#181818;stroke-width:0.5;" width="140.1406" x="82.25" y="368.2461"/><text fill="#000000" font-family="sans-serif" font-size="12" lengthAdjust="spacing" textLength="120.1406" x="92.25" y="389.3848">SET largest = num2</text><polygon fill="#F1F1F1" points="106.4109,319.8438,198.2297,319.8438,210.2297,331.8438,198.2297,343.8438,106.4109,343.8438,94.4109,331.8438,106.4109,319.8438" style="stroke:#181818;stroke-width:0.5;"/><text fill="#000000" font-family="sans-serif" font-size="11" lengthAdjust="spacing" textLength="19.0083" x="156.3203" y="354.0542">yes</text><text fill="#000000" font-family="sans-serif" font-size="11" lengthAdjust="spacing" textLength="91.8188" x="106.4109" y="335.6519">num2 &gt; largest?</text><polygon fill="#F1F1F1" points="152.3203,422.2148,164.3203,434.2148,152.3203,446.2148,140.3203,434.2148,152.3203,422.2148" style="stroke:#181818;stroke-width:0.5;"/><rect fill="#F1F1F1" height="33.9688" rx="12.5" ry="12.5" style="stroke:#181818;stroke-width:0.5;" width="140.1406" x="82.25" y="514.6172"/><text fill="#000000" font-family="sans-serif" font-size="12" lengthAdjust="spacing" textLength="120.1406" x="92.25" y="535.7559">SET largest = num3</text><polygon fill="#F1F1F1" points="106.4109,466.2148,198.2297,466.2148,210.2297,478.2148,198.2297,490.2148,106.4109,490.2148,94.4109,478.2148,106.4109,466.2148" style="stroke:#181818;stroke-width:0.5;"/><text fill="#000000" font-family="sans-serif" font-size="11" lengthAdjust="spacing" textLength="19.0083" x="156.3203" y="500.4253">yes</text><text fill="#000000" font-family="sans-serif" font-size="11" lengthAdjust="spacing" textLength="91.8188" x="106.4109" y="482.0229">num3 &gt; largest?</text><polygon fill="#F1F1F1" points="152.3203,568.5859,164.3203,580.5859,152.3203,592.5859,140.3203,580.5859,152.3203,568.5859" style="stroke:#181818;stroke-width:0.5;"/><rect fill="#F1F1F1" height="33.9688" rx="12.5" ry="12.5" style="stroke:#181818;stroke-width:0.5;" width="282.6406" x="11" y="612.5859"/><text fill="#000000" font-family="sans-serif" font-size="12" lengthAdjust="spacing" textLength="262.6406" x="21" y="633.7246">OUTPUT "The largest number is: " + largest</text><ellipse cx="152.3203" cy="677.5547" fill="none" rx="11" ry="11" style="stroke:#222222;stroke-width:1;"/><ellipse cx="152.3203" cy="677.5547" fill="#222222" rx="6" ry="6" style="stroke:#222222;stroke-width:1;"/><line style="stroke:#181818;stroke-width:1;" x1="152.3203" x2="152.3203" y1="30" y2="50"/><polygon fill="#181818" points="148.3203,40,152.3203,50,156.3203,40,152.3203,44" style="stroke:#181818;stroke-width:1;"/><line style="stroke:#181818;stroke-width:1;" x1="152.3203" x2="152.3203" y1="83.9688" y2="103.9688"/><polygon fill="#181818" points="148.3203,93.9688,152.3203,103.9688,156.3203,93.9688,152.3203,97.9688" style="stroke:#181818;stroke-width:1;"/><line style="stroke:#181818;stroke-width:1;" x1="152.3203" x2="152.3203" y1="137.9375" y2="157.9375"/><polygon fill="#181818" points="148.3203,147.9375,152.3203,157.9375,156.3203,147.9375,152.3203,151.9375" style="stroke:#181818;stroke-width:1;"/><line style="stroke:#181818;stroke-width:1;" x1="152.3203" x2="152.3203" y1="191.9063" y2="211.9063"/><polygon fill="#181818" points="148.3203,201.9063,152.3203,211.9063,156.3203,201.9063,152.3203,205.9063" style="stroke:#181818;stroke-width:1;"/><line style="stroke:#181818;stroke-width:1;" x1="152.3203" x2="152.3203" y1="245.875" y2="265.875"/><polygon fill="#181818" points="148.3203,255.875,152.3203,265.875,156.3203,255.875,152.3203,259.875" style="stroke:#181818;stroke-width:1;"/><line style="stroke:#181818;stroke-width:1;" x1="152.3203" x2="152.3203" y1="343.8438" y2="368.2461"/><polygon fill="#181818" points="148.3203,358.2461,152.3203,368.2461,156.3203,358.2461,152.3203,362.2461" style="stroke:#181818;stroke-width:1;"/><line style="stroke:#181818;stroke-width:1;" x1="210.2297" x2="232.3906" y1="331.8438" y2="331.8438"/><polygon fill="#181818" points="228.3906,375.2305,232.3906,385.2305,236.3906,375.2305,232.3906,379.2305" style="stroke:#181818;stroke-width:1;"/><line style="stroke:#181818;stroke-width:1;" x1="232.3906" x2="232.3906" y1="331.8438" y2="434.2148"/><line style="stroke:#181818;stroke-width:1;" x1="232.3906" x2="164.3203" y1="434.2148" y2="434.2148"/><polygon fill="#181818" points="174.3203,430.2148,164.3203,434.2148,174.3203,438.2148,170.3203,434.2148" style="stroke:#181818;stroke-width:1;"/><line style="stroke:#181818;stroke-width:1;" x1="152.3203" x2="152.3203" y1="402.2148" y2="422.2148"/><polygon fill="#181818" points="148.3203,412.2148,152.3203,422.2148,156.3203,412.2148,152.3203,416.2148" style="stroke:#181818;stroke-width:1;"/><line style="stroke:#181818;stroke-width:1;" x1="152.3203" x2="152.3203" y1="299.8438" y2="319.8438"/><polygon fill="#181818" points="148.3203,309.8438,152.3203,319.8438,156.3203,309.8438,152.3203,313.8438" style="stroke:#181818;stroke-width:1;"/><line style="stroke:#181818;stroke-width:1;" x1="152.3203" x2="152.3203" y1="490.2148" y2="514.6172"/><polygon fill="#181818" points="148.3203,504.6172,152.3203,514.6172,156.3203,504.6172,152.3203,508.6172" style="stroke:#181818;stroke-width:1;"/><line style="stroke:#181818;stroke-width:1;" x1="210.2297" x2="232.3906" y1="478.2148" y2="478.2148"/><polygon fill="#181818" points="228.3906,521.6016,232.3906,531.6016,236.3906,521.6016,232.3906,525.6016" style="stroke:#181818;stroke-width:1;"/><line style="stroke:#181818;stroke-width:1;" x1="232.3906" x2="232.3906" y1="478.2148" y2="580.5859"/><line style="stroke:#181818;stroke-width:1;" x1="232.3906" x2="164.3203" y1="580.5859" y2="580.5859"/><polygon fill="#181818" points="174.3203,576.5859,164.3203,580.5859,174.3203,584.5859,170.3203,580.5859" style="stroke:#181818;stroke-width:1;"/><line style="stroke:#181818;stroke-width:1;" x1="152.3203" x2="152.3203" y1="548.5859" y2="568.5859"/><polygon fill="#181818" points="148.3203,558.5859,152.3203,568.5859,156.3203,558.5859,152.3203,562.5859" style="stroke:#181818;stroke-width:1;"/><line style="stroke:#181818;stroke-width:1;" x1="152.3203" x2="152.3203" y1="446.2148" y2="466.2148"/><polygon fill="#181818" points="148.3203,456.2148,152.3203,466.2148,156.3203,456.2148,152.3203,460.2148" style="stroke:#181818;stroke-width:1;"/><line style="stroke:#181818;stroke-width:1;" x1="152.3203" x2="152.3203" y1="592.5859" y2="612.5859"/><polygon fill="#181818" points="148.3203,602.5859,152.3203,612.5859,156.3203,602.5859,152.3203,606.5859" style="stroke:#181818;stroke-width:1;"/><line style="stroke:#181818;stroke-width:1;" x1="152.3203" x2="152.3203" y1="646.5547" y2="666.5547"/><polygon fill="#181818" points="148.3203,656.5547,152.3203,666.5547,156.3203,656.5547,152.3203,660.5547" style="stroke:#181818;stroke-width:1;"/><!--SRC=[Aov9B2hXil8F3Ga83L5GSiqhIIrIACaeIarLo2lDJKejAhPIikQoylG3IGD5394vHiWSOo0ds3L48IUnA3srk4J15geyCqr10wHMmGucPQy9j24rJq6ZChLOaqj10LCRqE3Kl9JCD9XcOr8q6yCqmtqLaf4ALmBnbK9ciPM2ae8sJDYQgxWalm00]--></g></svg>