<svg xmlns="http://www.w3.org/2000/svg" xmlns:xlink="http://www.w3.org/1999/xlink" contentStyleType="text/css" data-diagram-type="ACTIVITY" height="321px" preserveAspectRatio="none" style="width:597px;height:321px;background:#FFFFFF;" version="1.1" viewBox="0 0 597 321" width="597px" zoomAndPan="magnify"><defs/><g><ellipse cx="303.3867" cy="20" fill="#222222" rx="10" ry="10" style="stroke:#222222;stroke-width:1;"/><rect fill="#F1F1F1" height="33.9688" rx="12.5" ry="12.5" style="stroke:#181818;stroke-width:0.5;" width="92.1875" x="257.293" y="50"/><text fill="#000000" font-family="sans-serif" font-size="12" lengthAdjust="spacing" textLength="72.1875" x="267.293" y="71.1387">INPUT score</text><polygon fill="#F1F1F1" points="32,103.9688,107.061,103.9688,119.061,115.9688,107.061,127.9688,32,127.9688,20,115.9688,32,103.9688" style="stroke:#181818;stroke-width:0.5;"/><text fill="#000000" font-family="sans-serif" font-size="11" lengthAdjust="spacing" textLength="19.0083" x="73.5305" y="138.1792">yes</text><text fill="#000000" font-family="sans-serif" font-size="11" lengthAdjust="spacing" textLength="75.061" x="32" y="119.7769">score &gt;= 90?</text><rect fill="#F1F1F1" height="33.9688" rx="12.5" ry="12.5" style="stroke:#181818;stroke-width:0.5;" width="91.8359" x="23.6125" y="160.7734"/><text fill="#000000" font-family="sans-serif" font-size="12" lengthAdjust="spacing" textLength="71.8359" x="33.6125" y="181.9121">grade = "A"</text><polygon fill="#F1F1F1" points="151.061,103.9688,226.1221,103.9688,238.1221,115.9688,226.1221,127.9688,151.061,127.9688,139.061,115.9688,151.061,103.9688" style="stroke:#181818;stroke-width:0.5;"/><text fill="#000000" font-family="sans-serif" font-size="11" lengthAdjust="spacing" textLength="19.0083" x="192.5916" y="138.1792">yes</text><text fill="#000000" font-family="sans-serif" font-size="11" lengthAdjust="spacing" textLength="75.061" x="151.061" y="119.7769">score &gt;= 80?</text><rect fill="#F1F1F1" height="33.9688" rx="12.5" ry="12.5" style="stroke:#181818;stroke-width:0.5;" width="91.8594" x="142.6619" y="160.7734"/><text fill="#000000" font-family="sans-serif" font-size="12" lengthAdjust="spacing" textLength="71.8594" x="152.6619" y="181.9121">grade = "B"</text><polygon fill="#F1F1F1" points="270.1221,103.9688,345.1831,103.9688,357.1831,115.9688,345.1831,127.9688,270.1221,127.9688,258.1221,115.9688,270.1221,103.9688" style="stroke:#181818;stroke-width:0.5;"/><text fill="#000000" font-family="sans-serif" font-size="11" lengthAdjust="spacing" textLength="19.0083" x="311.6526" y="138.1792">yes</text><text fill="#000000" font-family="sans-serif" font-size="11" lengthAdjust="spacing" textLength="75.061" x="270.1221" y="119.7769">score &gt;= 70?</text><rect fill="#F1F1F1" height="33.9688" rx="12.5" ry="12.5" style="stroke:#181818;stroke-width:0.5;" width="92.0059" x="261.6497" y="160.7734"/><text fill="#000000" font-family="sans-serif" font-size="12" lengthAdjust="spacing" textLength="72.0059" x="271.6497" y="181.9121">grade = "C"</text><polygon fill="#F1F1F1" points="389.1831,103.9688,464.2441,103.9688,476.2441,115.9688,464.2441,127.9688,389.1831,127.9688,377.1831,115.9688,389.1831,103.9688" style="stroke:#181818;stroke-width:0.5;"/><text fill="#000000" font-family="sans-serif" font-size="11" lengthAdjust="spacing" textLength="19.0083" x="430.7136" y="138.1792">yes</text><text fill="#000000" font-family="sans-serif" font-size="11" lengthAdjust="spacing" textLength="75.061" x="389.1831" y="119.7769">score &gt;= 60?</text><text fill="#000000" font-family="sans-serif" font-size="11" lengthAdjust="spacing" textLength="13.7017" x="476.2441" y="113.3745">no</text><rect fill="#F1F1F1" height="33.9688" rx="12.5" ry="12.5" style="stroke:#181818;stroke-width:0.5;" width="92.8672" x="380.28" y="160.7734"/><text fill="#000000" font-family="sans-serif" font-size="12" lengthAdjust="spacing" textLength="72.8672" x="390.28" y="181.9121">grade = "D"</text><rect fill="#F1F1F1" height="33.9688" rx="12.5" ry="12.5" style="stroke:#181818;stroke-width:0.5;" width="90.5293" x="496.2441" y="157.3711"/><text fill="#000000" font-family="sans-serif" font-size="12" lengthAdjust="spacing" textLength="70.5293" x="506.2441" y="178.5098">grade = "F"</text><rect fill="#F1F1F1" height="33.9688" rx="12.5" ry="12.5" style="stroke:#181818;stroke-width:0.5;" width="107.627" x="249.5732" y="234.7422"/><text fill="#000000" font-family="sans-serif" font-size="12" lengthAdjust="spacing" textLength="87.627" x="259.5732" y="255.8809">OUTPUT grade</text><ellipse cx="303.3867" cy="299.7109" fill="none" rx="11" ry="11" style="stroke:#222222;stroke-width:1;"/><ellipse cx="303.3867" cy="299.7109" fill="#222222" rx="6" ry="6" style="stroke:#222222;stroke-width:1;"/><line style="stroke:#181818;stroke-width:1;" x1="303.3867" x2="303.3867" y1="30" y2="50"/><polygon fill="#181818" points="299.3867,40,303.3867,50,307.3867,40,303.3867,44" style="stroke:#181818;stroke-width:1;"/><line style="stroke:#181818;stroke-width:1;" x1="69.5305" x2="69.5305" y1="127.9688" y2="160.7734"/><polygon fill="#181818" points="65.5305,150.7734,69.5305,160.7734,73.5305,150.7734,69.5305,154.7734" style="stroke:#181818;stroke-width:1;"/><line style="stroke:#181818;stroke-width:1;" x1="69.5305" x2="69.5305" y1="194.7422" y2="214.7422"/><polygon fill="#181818" points="65.5305,204.7422,69.5305,214.7422,73.5305,204.7422,69.5305,208.7422" style="stroke:#181818;stroke-width:1;"/><line style="stroke:#181818;stroke-width:1;" x1="188.5916" x2="188.5916" y1="127.9688" y2="160.7734"/><polygon fill="#181818" points="184.5916,150.7734,188.5916,160.7734,192.5916,150.7734,188.5916,154.7734" style="stroke:#181818;stroke-width:1;"/><line style="stroke:#181818;stroke-width:1;" x1="188.5916" x2="188.5916" y1="194.7422" y2="214.7422"/><polygon fill="#181818" points="184.5916,204.7422,188.5916,214.7422,192.5916,204.7422,188.5916,208.7422" style="stroke:#181818;stroke-width:1;"/><line style="stroke:#181818;stroke-width:1;" x1="307.6526" x2="307.6526" y1="127.9688" y2="160.7734"/><polygon fill="#181818" points="303.6526,150.7734,307.6526,160.7734,311.6526,150.7734,307.6526,154.7734" style="stroke:#181818;stroke-width:1;"/><line style="stroke:#181818;stroke-width:1;" x1="307.6526" x2="307.6526" y1="194.7422" y2="214.7422"/><polygon fill="#181818" points="303.6526,204.7422,307.6526,214.7422,311.6526,204.7422,307.6526,208.7422" style="stroke:#181818;stroke-width:1;"/><line style="stroke:#181818;stroke-width:1;" x1="426.7136" x2="426.7136" y1="127.9688" y2="160.7734"/><polygon fill="#181818" points="422.7136,150.7734,426.7136,160.7734,430.7136,150.7734,426.7136,154.7734" style="stroke:#181818;stroke-width:1;"/><line style="stroke:#181818;stroke-width:1;" x1="426.7136" x2="426.7136" y1="194.7422" y2="214.7422"/><polygon fill="#181818" points="422.7136,204.7422,426.7136,214.7422,430.7136,204.7422,426.7136,208.7422" style="stroke:#181818;stroke-width:1;"/><line style="stroke:#181818;stroke-width:1;" x1="119.061" x2="139.061" y1="115.9688" y2="115.9688"/><polygon fill="#181818" points="129.061,111.9688,139.061,115.9688,129.061,119.9688,133.061,115.9688" style="stroke:#181818;stroke-width:1;"/><line style="stroke:#181818;stroke-width:1;" x1="238.1221" x2="258.1221" y1="115.9688" y2="115.9688"/><polygon fill="#181818" points="248.1221,111.9688,258.1221,115.9688,248.1221,119.9688,252.1221,115.9688" style="stroke:#181818;stroke-width:1;"/><line style="stroke:#181818;stroke-width:1;" x1="357.1831" x2="377.1831" y1="115.9688" y2="115.9688"/><polygon fill="#181818" points="367.1831,111.9688,377.1831,115.9688,367.1831,119.9688,371.1831,115.9688" style="stroke:#181818;stroke-width:1;"/><line style="stroke:#181818;stroke-width:1;" x1="303.3867" x2="303.3867" y1="83.9688" y2="88.9688"/><line style="stroke:#181818;stroke-width:1;" x1="303.3867" x2="69.5305" y1="88.9688" y2="88.9688"/><line style="stroke:#181818;stroke-width:1;" x1="69.5305" x2="69.5305" y1="88.9688" y2="103.9688"/><polygon fill="#181818" points="65.5305,93.9688,69.5305,103.9688,73.5305,93.9688,69.5305,97.9688" style="stroke:#181818;stroke-width:1;"/><line style="stroke:#181818;stroke-width:1;" x1="476.2441" x2="541.5088" y1="115.9688" y2="115.9688"/><line style="stroke:#181818;stroke-width:1;" x1="541.5088" x2="541.5088" y1="115.9688" y2="157.3711"/><polygon fill="#181818" points="537.5088,147.3711,541.5088,157.3711,545.5088,147.3711,541.5088,151.3711" style="stroke:#181818;stroke-width:1;"/><line style="stroke:#181818;stroke-width:1;" x1="541.5088" x2="541.5088" y1="191.3398" y2="214.7422"/><polygon fill="#181818" points="537.5088,204.7422,541.5088,214.7422,545.5088,204.7422,541.5088,208.7422" style="stroke:#181818;stroke-width:1;"/><line style="stroke:#181818;stroke-width:1;" x1="69.5305" x2="541.5088" y1="214.7422" y2="214.7422"/><line style="stroke:#181818;stroke-width:1;" x1="303.3867" x2="303.3867" y1="214.7422" y2="234.7422"/><polygon fill="#181818" points="299.3867,224.7422,303.3867,234.7422,307.3867,224.7422,303.3867,228.7422" style="stroke:#181818;stroke-width:1;"/><line style="stroke:#181818;stroke-width:1;" x1="303.3867" x2="303.3867" y1="268.7109" y2="288.7109"/><polygon fill="#181818" points="299.3867,278.7109,303.3867,288.7109,307.3867,278.7109,303.3867,282.7109" style="stroke:#181818;stroke-width:1;"/><!--SRC=[Aov9B2hXilBq2mWDKIXEpYzAjURAJ5FG03CLx6mLB0tiDHLACbBp53GgKuirkHGKhDAB4bDI5MmLb1oLhBbISufJKJHOuD7WX4s3EHuDpjWqcE7Hu0BLeA2HbuygumQIoKl9JEEoyWyD0NaNB6NDLLoINm00]--></g></svg>