<svg xmlns="http://www.w3.org/2000/svg" xmlns:xlink="http://www.w3.org/1999/xlink" contentStyleType="text/css" data-diagram-type="ACTIVITY" height="254px" preserveAspectRatio="none" style="width:348px;height:254px;background:#FFFFFF;" version="1.1" viewBox="0 0 348 254" width="348px" zoomAndPan="magnify"><defs/><g><ellipse cx="170.438" cy="20" fill="#222222" rx="10" ry="10" style="stroke:#222222;stroke-width:1;"/><rect fill="#F1F1F1" height="33.9688" rx="12.5" ry="12.5" style="stroke:#181818;stroke-width:0.5;" width="78.377" x="131.2495" y="50"/><text fill="#000000" font-family="sans-serif" font-size="12" lengthAdjust="spacing" textLength="58.377" x="141.2495" y="71.1387">Enter age</text><polygon fill="#F1F1F1" points="137.5615,103.9688,203.3145,103.9688,215.3145,115.9688,203.3145,127.9688,137.5615,127.9688,125.5615,115.9688,137.5615,103.9688" style="stroke:#181818;stroke-width:0.5;"/><text fill="#000000" font-family="sans-serif" font-size="11" lengthAdjust="spacing" textLength="65.7529" x="137.5615" y="119.7769">age &gt;= 18?</text><text fill="#000000" font-family="sans-serif" font-size="11" lengthAdjust="spacing" textLength="19.0083" x="106.5532" y="113.3745">yes</text><text fill="#000000" font-family="sans-serif" font-size="11" lengthAdjust="spacing" textLength="13.7017" x="215.3145" y="113.3745">no</text><rect fill="#F1F1F1" height="33.9688" rx="12.5" ry="12.5" style="stroke:#181818;stroke-width:0.5;" width="145.4961" x="11" y="137.9688"/><text fill="#000000" font-family="sans-serif" font-size="12" lengthAdjust="spacing" textLength="125.4961" x="21" y="159.1074">Output "Adult ticket"</text><rect fill="#F1F1F1" height="33.9688" rx="12.5" ry="12.5" style="stroke:#181818;stroke-width:0.5;" width="161.2637" x="176.4961" y="137.9688"/><text fill="#000000" font-family="sans-serif" font-size="12" lengthAdjust="spacing" textLength="141.2637" x="186.4961" y="159.1074">Output "Student ticket"</text><polygon fill="#F1F1F1" points="170.438,177.9375,182.438,189.9375,170.438,201.9375,158.438,189.9375,170.438,177.9375" style="stroke:#181818;stroke-width:0.5;"/><ellipse cx="170.438" cy="232.9375" fill="none" rx="11" ry="11" style="stroke:#222222;stroke-width:1;"/><ellipse cx="170.438" cy="232.9375" fill="#222222" rx="6" ry="6" style="stroke:#222222;stroke-width:1;"/><line style="stroke:#181818;stroke-width:1;" x1="170.438" x2="170.438" y1="30" y2="50"/><polygon fill="#181818" points="166.438,40,170.438,50,174.438,40,170.438,44" style="stroke:#181818;stroke-width:1;"/><line style="stroke:#181818;stroke-width:1;" x1="125.5615" x2="83.748" y1="115.9688" y2="115.9688"/><line style="stroke:#181818;stroke-width:1;" x1="83.748" x2="83.748" y1="115.9688" y2="137.9688"/><polygon fill="#181818" points="79.748,127.9688,83.748,137.9688,87.748,127.9688,83.748,131.9688" style="stroke:#181818;stroke-width:1;"/><line style="stroke:#181818;stroke-width:1;" x1="215.3145" x2="257.1279" y1="115.9688" y2="115.9688"/><line style="stroke:#181818;stroke-width:1;" x1="257.1279" x2="257.1279" y1="115.9688" y2="137.9688"/><polygon fill="#181818" points="253.1279,127.9688,257.1279,137.9688,261.1279,127.9688,257.1279,131.9688" style="stroke:#181818;stroke-width:1;"/><line style="stroke:#181818;stroke-width:1;" x1="83.748" x2="83.748" y1="171.9375" y2="189.9375"/><line style="stroke:#181818;stroke-width:1;" x1="83.748" x2="158.438" y1="189.9375" y2="189.9375"/><polygon fill="#181818" points="148.438,185.9375,158.438,189.9375,148.438,193.9375,152.438,189.9375" style="stroke:#181818;stroke-width:1;"/><line style="stroke:#181818;stroke-width:1;" x1="257.1279" x2="257.1279" y1="171.9375" y2="189.9375"/><line style="stroke:#181818;stroke-width:1;" x1="257.1279" x2="182.438" y1="189.9375" y2="189.9375"/><polygon fill="#181818" points="192.438,185.9375,182.438,189.9375,192.438,193.9375,188.438,189.9375" style="stroke:#181818;stroke-width:1;"/><line style="stroke:#181818;stroke-width:1;" x1="170.438" x2="170.438" y1="83.9688" y2="103.9688"/><polygon fill="#181818" points="166.438,93.9688,170.438,103.9688,174.438,93.9688,170.438,97.9688" style="stroke:#181818;stroke-width:1;"/><line style="stroke:#181818;stroke-width:1;" x1="170.438" x2="170.438" y1="201.9375" y2="221.9375"/><polygon fill="#181818" points="166.438,211.9375,170.438,221.9375,174.438,211.9375,170.438,215.9375" style="stroke:#181818;stroke-width:1;"/><!--SRC=[LSgX3eCm50LG_xxY1jNAkQLa4CJq15z0w6Cqa0UXjuA_7tAu8qxcS532swW7Xg_MaYQu2sXUU3nR3yvgSATcBq3u5Ew5gBfOLe9fN9HLBRfcXRFjTdgMgFQ_BAP9ChVz1m00]--></g></svg>