<svg xmlns="http://www.w3.org/2000/svg" xmlns:xlink="http://www.w3.org/1999/xlink" contentStyleType="text/css" data-diagram-type="ACTIVITY" height="767px" preserveAspectRatio="none" style="width:1679px;height:767px;background:#FFFFFF;" version="1.1" viewBox="0 0 1679 767" width="1679px" zoomAndPan="magnify"><defs/><g><ellipse cx="844.3132" cy="20" fill="#222222" rx="10" ry="10" style="stroke:#222222;stroke-width:1;"/><rect fill="#F1F1F1" height="33.9688" rx="12.5" ry="12.5" style="stroke:#181818;stroke-width:0.5;" width="273.0605" x="707.783" y="50"/><text fill="#000000" font-family="sans-serif" font-size="12" lengthAdjust="spacing" textLength="253.0605" x="717.783" y="71.1387">OUTPUT "Welcome to the Library System"</text><rect fill="#F1F1F1" height="33.9688" rx="12.5" ry="12.5" style="stroke:#181818;stroke-width:0.5;" width="274.1973" x="707.2146" y="103.9688"/><text fill="#000000" font-family="sans-serif" font-size="12" lengthAdjust="spacing" textLength="254.1973" x="717.2146" y="125.1074">OUTPUT "Enter your library card number:"</text><rect fill="#F1F1F1" height="33.9688" rx="12.5" ry="12.5" style="stroke:#181818;stroke-width:0.5;" width="134.3867" x="777.1199" y="157.9375"/><text fill="#000000" font-family="sans-serif" font-size="12" lengthAdjust="spacing" textLength="114.3867" x="787.1199" y="179.0762">INPUT cardNumber</text><rect fill="#F1F1F1" height="33.9688" rx="12.5" ry="12.5" style="stroke:#181818;stroke-width:0.5;" width="313.9941" x="687.3162" y="211.9063"/><text fill="#000000" font-family="sans-serif" font-size="12" lengthAdjust="spacing" textLength="293.9941" x="697.3162" y="233.0449">OUTPUT "Enter the book ID you want to borrow:"</text><rect fill="#F1F1F1" height="33.9688" rx="12.5" ry="12.5" style="stroke:#181818;stroke-width:0.5;" width="101.709" x="793.4587" y="265.875"/><text fill="#000000" font-family="sans-serif" font-size="12" lengthAdjust="spacing" textLength="81.709" x="803.4587" y="287.0137">INPUT bookID</text><rect fill="#F1F1F1" height="33.9688" rx="12.5" ry="12.5" style="stroke:#181818;stroke-width:0.5;" width="358.6426" x="664.9919" y="319.8438"/><text fill="#000000" font-family="sans-serif" font-size="12" lengthAdjust="spacing" textLength="338.6426" x="674.9919" y="340.9824">OUTPUT "Do you have any overdue books? (true/false):"</text><rect fill="#F1F1F1" height="33.9688" rx="12.5" ry="12.5" style="stroke:#181818;stroke-width:0.5;" width="168.4766" x="760.075" y="373.8125"/><text fill="#000000" font-family="sans-serif" font-size="12" lengthAdjust="spacing" textLength="148.4766" x="770.075" y="394.9512">INPUT hasOverdueBooks</text><rect fill="#F1F1F1" height="33.9688" rx="12.5" ry="12.5" style="stroke:#181818;stroke-width:0.5;" width="288.9102" x="699.8582" y="427.7813"/><text fill="#000000" font-family="sans-serif" font-size="12" lengthAdjust="spacing" textLength="268.9102" x="709.8582" y="448.9199">OUTPUT "Is the book available? (true/false):"</text><rect fill="#F1F1F1" height="33.9688" rx="12.5" ry="12.5" style="stroke:#181818;stroke-width:0.5;" width="154.1504" x="767.238" y="481.75"/><text fill="#000000" font-family="sans-serif" font-size="12" lengthAdjust="spacing" textLength="134.1504" x="777.238" y="502.8887">INPUT isBookAvailable</text><polygon fill="#F1F1F1" points="32,535.7188,336.5464,535.7188,348.5464,547.7188,336.5464,559.7188,32,559.7188,20,547.7188,32,535.7188" style="stroke:#181818;stroke-width:0.5;"/><text fill="#000000" font-family="sans-serif" font-size="11" lengthAdjust="spacing" textLength="19.0083" x="188.2732" y="569.9292">yes</text><text fill="#000000" font-family="sans-serif" font-size="11" lengthAdjust="spacing" textLength="304.5464" x="32" y="551.5269">hasOverdueBooks = false AND isBookAvailable = true?</text><rect fill="#F1F1F1" height="33.9688" rx="12.5" ry="12.5" style="stroke:#181818;stroke-width:0.5;" width="255.5879" x="56.4792" y="591.4292"/><text fill="#000000" font-family="sans-serif" font-size="12" lengthAdjust="spacing" textLength="235.5879" x="66.4792" y="612.5679">OUTPUT "Book borrowed successfully!"</text><rect fill="#F1F1F1" height="33.9688" rx="12.5" ry="12.5" style="stroke:#181818;stroke-width:0.5;" width="265.8887" x="51.3289" y="660.3979"/><text fill="#000000" font-family="sans-serif" font-size="12" lengthAdjust="spacing" textLength="245.8887" x="61.3289" y="681.5366">OUTPUT "Due date: 2 weeks from today"</text><polygon fill="#F1F1F1" points="461.321,535.7188,765.8674,535.7188,777.8674,547.7188,765.8674,559.7188,461.321,559.7188,449.321,547.7188,461.321,535.7188" style="stroke:#181818;stroke-width:0.5;"/><text fill="#000000" font-family="sans-serif" font-size="11" lengthAdjust="spacing" textLength="19.0083" x="617.5942" y="569.9292">yes</text><text fill="#000000" font-family="sans-serif" font-size="11" lengthAdjust="spacing" textLength="304.5464" x="461.321" y="551.5269">hasOverdueBooks = true AND isBookAvailable = false?</text><rect fill="#F1F1F1" height="33.9688" rx="12.5" ry="12.5" style="stroke:#181818;stroke-width:0.5;" width="510.0957" x="358.5464" y="591.4292"/><text fill="#000000" font-family="sans-serif" font-size="12" lengthAdjust="spacing" textLength="490.0957" x="368.5464" y="612.5679">OUTPUT "Cannot borrow: You have overdue books AND the book is not available"</text><polygon fill="#F1F1F1" points="1021.9077,535.7188,1166.2612,535.7188,1178.2612,547.7188,1166.2612,559.7188,1021.9077,559.7188,1009.9077,547.7188,1021.9077,535.7188" style="stroke:#181818;stroke-width:0.5;"/><text fill="#000000" font-family="sans-serif" font-size="11" lengthAdjust="spacing" textLength="19.0083" x="1098.0845" y="569.9292">yes</text><text fill="#000000" font-family="sans-serif" font-size="11" lengthAdjust="spacing" textLength="144.3535" x="1021.9077" y="551.5269">hasOverdueBooks = true?</text><text fill="#000000" font-family="sans-serif" font-size="11" lengthAdjust="spacing" textLength="13.7017" x="1178.2612" y="545.1245">no</text><rect fill="#F1F1F1" height="33.9688" rx="12.5" ry="12.5" style="stroke:#181818;stroke-width:0.5;" width="410.8848" x="888.6421" y="591.4292"/><text fill="#000000" font-family="sans-serif" font-size="12" lengthAdjust="spacing" textLength="390.8848" x="898.6421" y="612.5679">OUTPUT "Cannot borrow: Please return your overdue books first"</text><rect fill="#F1F1F1" height="33.9688" rx="12.5" ry="12.5" style="stroke:#181818;stroke-width:0.5;" width="359.0996" x="1309.5269" y="622.5112"/><text fill="#000000" font-family="sans-serif" font-size="12" lengthAdjust="spacing" textLength="339.0996" x="1319.5269" y="643.6499">OUTPUT "Cannot borrow: Book is currently checked out"</text><ellipse cx="844.3132" cy="745.3667" fill="none" rx="11" ry="11" style="stroke:#222222;stroke-width:1;"/><ellipse cx="844.3132" cy="745.3667" fill="#222222" rx="6" ry="6" style="stroke:#222222;stroke-width:1;"/><line style="stroke:#181818;stroke-width:1;" x1="844.3132" x2="844.3132" y1="30" y2="50"/><polygon fill="#181818" points="840.3132,40,844.3132,50,848.3132,40,844.3132,44" style="stroke:#181818;stroke-width:1;"/><line style="stroke:#181818;stroke-width:1;" x1="844.3132" x2="844.3132" y1="83.9688" y2="103.9688"/><polygon fill="#181818" points="840.3132,93.9688,844.3132,103.9688,848.3132,93.9688,844.3132,97.9688" style="stroke:#181818;stroke-width:1;"/><line style="stroke:#181818;stroke-width:1;" x1="844.3132" x2="844.3132" y1="137.9375" y2="157.9375"/><polygon fill="#181818" points="840.3132,147.9375,844.3132,157.9375,848.3132,147.9375,844.3132,151.9375" style="stroke:#181818;stroke-width:1;"/><line style="stroke:#181818;stroke-width:1;" x1="844.3132" x2="844.3132" y1="191.9063" y2="211.9063"/><polygon fill="#181818" points="840.3132,201.9063,844.3132,211.9063,848.3132,201.9063,844.3132,205.9063" style="stroke:#181818;stroke-width:1;"/><line style="stroke:#181818;stroke-width:1;" x1="844.3132" x2="844.3132" y1="245.875" y2="265.875"/><polygon fill="#181818" points="840.3132,255.875,844.3132,265.875,848.3132,255.875,844.3132,259.875" style="stroke:#181818;stroke-width:1;"/><line style="stroke:#181818;stroke-width:1;" x1="844.3132" x2="844.3132" y1="299.8438" y2="319.8438"/><polygon fill="#181818" points="840.3132,309.8438,844.3132,319.8438,848.3132,309.8438,844.3132,313.8438" style="stroke:#181818;stroke-width:1;"/><line style="stroke:#181818;stroke-width:1;" x1="844.3132" x2="844.3132" y1="353.8125" y2="373.8125"/><polygon fill="#181818" points="840.3132,363.8125,844.3132,373.8125,848.3132,363.8125,844.3132,367.8125" style="stroke:#181818;stroke-width:1;"/><line style="stroke:#181818;stroke-width:1;" x1="844.3132" x2="844.3132" y1="407.7813" y2="427.7813"/><polygon fill="#181818" points="840.3132,417.7813,844.3132,427.7813,848.3132,417.7813,844.3132,421.7813" style="stroke:#181818;stroke-width:1;"/><line style="stroke:#181818;stroke-width:1;" x1="844.3132" x2="844.3132" y1="461.75" y2="481.75"/><polygon fill="#181818" points="840.3132,471.75,844.3132,481.75,848.3132,471.75,844.3132,475.75" style="stroke:#181818;stroke-width:1;"/><line style="stroke:#181818;stroke-width:1;" x1="184.2732" x2="184.2732" y1="625.3979" y2="660.3979"/><polygon fill="#181818" points="180.2732,650.3979,184.2732,660.3979,188.2732,650.3979,184.2732,654.3979" style="stroke:#181818;stroke-width:1;"/><line style="stroke:#181818;stroke-width:1;" x1="184.2732" x2="184.2732" y1="559.7188" y2="591.4292"/><polygon fill="#181818" points="180.2732,581.4292,184.2732,591.4292,188.2732,581.4292,184.2732,585.4292" style="stroke:#181818;stroke-width:1;"/><line style="stroke:#181818;stroke-width:1;" x1="184.2732" x2="184.2732" y1="694.3667" y2="714.3667"/><polygon fill="#181818" points="180.2732,704.3667,184.2732,714.3667,188.2732,704.3667,184.2732,708.3667" style="stroke:#181818;stroke-width:1;"/><line style="stroke:#181818;stroke-width:1;" x1="613.5942" x2="613.5942" y1="559.7188" y2="591.4292"/><polygon fill="#181818" points="609.5942,581.4292,613.5942,591.4292,617.5942,581.4292,613.5942,585.4292" style="stroke:#181818;stroke-width:1;"/><line style="stroke:#181818;stroke-width:1;" x1="613.5942" x2="613.5942" y1="625.3979" y2="714.3667"/><polygon fill="#181818" points="609.5942,704.3667,613.5942,714.3667,617.5942,704.3667,613.5942,708.3667" style="stroke:#181818;stroke-width:1;"/><line style="stroke:#181818;stroke-width:1;" x1="1094.0845" x2="1094.0845" y1="559.7188" y2="591.4292"/><polygon fill="#181818" points="1090.0845,581.4292,1094.0845,591.4292,1098.0845,581.4292,1094.0845,585.4292" style="stroke:#181818;stroke-width:1;"/><line style="stroke:#181818;stroke-width:1;" x1="1094.0845" x2="1094.0845" y1="625.3979" y2="714.3667"/><polygon fill="#181818" points="1090.0845,704.3667,1094.0845,714.3667,1098.0845,704.3667,1094.0845,708.3667" style="stroke:#181818;stroke-width:1;"/><line style="stroke:#181818;stroke-width:1;" x1="348.5464" x2="449.321" y1="547.7188" y2="547.7188"/><polygon fill="#181818" points="439.321,543.7188,449.321,547.7188,439.321,551.7188,443.321,547.7188" style="stroke:#181818;stroke-width:1;"/><line style="stroke:#181818;stroke-width:1;" x1="777.8674" x2="1009.9077" y1="547.7188" y2="547.7188"/><polygon fill="#181818" points="999.9077,543.7188,1009.9077,547.7188,999.9077,551.7188,1003.9077,547.7188" style="stroke:#181818;stroke-width:1;"/><line style="stroke:#181818;stroke-width:1;" x1="844.3132" x2="844.3132" y1="515.7188" y2="520.7188"/><line style="stroke:#181818;stroke-width:1;" x1="844.3132" x2="184.2732" y1="520.7188" y2="520.7188"/><line style="stroke:#181818;stroke-width:1;" x1="184.2732" x2="184.2732" y1="520.7188" y2="535.7188"/><polygon fill="#181818" points="180.2732,525.7188,184.2732,535.7188,188.2732,525.7188,184.2732,529.7188" style="stroke:#181818;stroke-width:1;"/><line style="stroke:#181818;stroke-width:1;" x1="1178.2612" x2="1489.0767" y1="547.7188" y2="547.7188"/><line style="stroke:#181818;stroke-width:1;" x1="1489.0767" x2="1489.0767" y1="547.7188" y2="622.5112"/><polygon fill="#181818" points="1485.0767,612.5112,1489.0767,622.5112,1493.0767,612.5112,1489.0767,616.5112" style="stroke:#181818;stroke-width:1;"/><line style="stroke:#181818;stroke-width:1;" x1="1489.0767" x2="1489.0767" y1="656.48" y2="714.3667"/><polygon fill="#181818" points="1485.0767,704.3667,1489.0767,714.3667,1493.0767,704.3667,1489.0767,708.3667" style="stroke:#181818;stroke-width:1;"/><line style="stroke:#181818;stroke-width:1;" x1="184.2732" x2="1489.0767" y1="714.3667" y2="714.3667"/><line style="stroke:#181818;stroke-width:1;" x1="844.3132" x2="844.3132" y1="714.3667" y2="734.3667"/><polygon fill="#181818" points="840.3132,724.3667,844.3132,734.3667,848.3132,724.3667,844.3132,728.3667" style="stroke:#181818;stroke-width:1;"/><!--SRC=[ZPB1Ri8m44Jl-Oejft2gr2EeGj3q4Aa2f8Ag7ZV9Hh5mx6fjW_ptjKE0q9QsLsVcpMHiOv5jCbbjD-lj1aPl94lT4bWDjY5u4GKZUtZrnb8xcbw4pyeIWzUEGVQY4ha2vTg2U1Ab-J8gu-coE_pcZWc5rZl8iqY20oeRamlDh0y3HXJbsS2VwSxGu9u0bGUz9wxSaMPca5fsT5-ZD3GUO1eqgwDm4NK3NcukPN2FGc8XwIP7cEYVdtJJ914rf5_ey0YT4URBxAiZV8lasJYcAaWzcN42SAuJnVqAL85nPKd6r4vAVnTQ38HP-ESABKtW0Gv48RLctOODA_H1II7_vsen_aQphlNDQa-ebBQdAuBtqorStK17FWyg34JBUTS_Y_qtV2q9my1Crh4wliNh6hLWO_iuI9N-3RRegvQEcPILuJqtLEx2_jfr35M9EacCrH-V]--></g></svg>