<svg xmlns="http://www.w3.org/2000/svg" xmlns:xlink="http://www.w3.org/1999/xlink" contentStyleType="text/css" data-diagram-type="ACTIVITY" height="254px" preserveAspectRatio="none" style="width:396px;height:254px;background:#FFFFFF;" version="1.1" viewBox="0 0 396 254" width="396px" zoomAndPan="magnify"><defs/><g><ellipse cx="190.584" cy="20" fill="#222222" rx="10" ry="10" style="stroke:#222222;stroke-width:1;"/><rect fill="#F1F1F1" height="33.9688" rx="12.5" ry="12.5" style="stroke:#181818;stroke-width:0.5;" width="82.0332" x="149.5674" y="50"/><text fill="#000000" font-family="sans-serif" font-size="12" lengthAdjust="spacing" textLength="62.0332" x="159.5674" y="71.1387">INPUT age</text><polygon fill="#F1F1F1" points="157.7075,103.9688,223.4604,103.9688,235.4604,115.9688,223.4604,127.9688,157.7075,127.9688,145.7075,115.9688,157.7075,103.9688" style="stroke:#181818;stroke-width:0.5;"/><text fill="#000000" font-family="sans-serif" font-size="11" lengthAdjust="spacing" textLength="65.7529" x="157.7075" y="119.7769">age &gt;= 18?</text><text fill="#000000" font-family="sans-serif" font-size="11" lengthAdjust="spacing" textLength="19.0083" x="126.6992" y="113.3745">yes</text><text fill="#000000" font-family="sans-serif" font-size="11" lengthAdjust="spacing" textLength="13.7017" x="235.4604" y="113.3745">no</text><rect fill="#F1F1F1" height="33.9688" rx="12.5" ry="12.5" style="stroke:#181818;stroke-width:0.5;" width="161.7559" x="11" y="137.9688"/><text fill="#000000" font-family="sans-serif" font-size="12" lengthAdjust="spacing" textLength="141.7559" x="21" y="159.1074">OUTPUT "You can vote"</text><rect fill="#F1F1F1" height="33.9688" rx="12.5" ry="12.5" style="stroke:#181818;stroke-width:0.5;" width="193.0684" x="192.7559" y="137.9688"/><text fill="#000000" font-family="sans-serif" font-size="12" lengthAdjust="spacing" textLength="173.0684" x="202.7559" y="159.1074">OUTPUT "Too young to vote"</text><polygon fill="#F1F1F1" points="190.584,177.9375,202.584,189.9375,190.584,201.9375,178.584,189.9375,190.584,177.9375" style="stroke:#181818;stroke-width:0.5;"/><ellipse cx="190.584" cy="232.9375" fill="none" rx="11" ry="11" style="stroke:#222222;stroke-width:1;"/><ellipse cx="190.584" cy="232.9375" fill="#222222" rx="6" ry="6" style="stroke:#222222;stroke-width:1;"/><line style="stroke:#181818;stroke-width:1;" x1="190.584" x2="190.584" y1="30" y2="50"/><polygon fill="#181818" points="186.584,40,190.584,50,194.584,40,190.584,44" style="stroke:#181818;stroke-width:1;"/><line style="stroke:#181818;stroke-width:1;" x1="145.7075" x2="91.8779" y1="115.9688" y2="115.9688"/><line style="stroke:#181818;stroke-width:1;" x1="91.8779" x2="91.8779" y1="115.9688" y2="137.9688"/><polygon fill="#181818" points="87.8779,127.9688,91.8779,137.9688,95.8779,127.9688,91.8779,131.9688" style="stroke:#181818;stroke-width:1;"/><line style="stroke:#181818;stroke-width:1;" x1="235.4604" x2="289.29" y1="115.9688" y2="115.9688"/><line style="stroke:#181818;stroke-width:1;" x1="289.29" x2="289.29" y1="115.9688" y2="137.9688"/><polygon fill="#181818" points="285.29,127.9688,289.29,137.9688,293.29,127.9688,289.29,131.9688" style="stroke:#181818;stroke-width:1;"/><line style="stroke:#181818;stroke-width:1;" x1="91.8779" x2="91.8779" y1="171.9375" y2="189.9375"/><line style="stroke:#181818;stroke-width:1;" x1="91.8779" x2="178.584" y1="189.9375" y2="189.9375"/><polygon fill="#181818" points="168.584,185.9375,178.584,189.9375,168.584,193.9375,172.584,189.9375" style="stroke:#181818;stroke-width:1;"/><line style="stroke:#181818;stroke-width:1;" x1="289.29" x2="289.29" y1="171.9375" y2="189.9375"/><line style="stroke:#181818;stroke-width:1;" x1="289.29" x2="202.584" y1="189.9375" y2="189.9375"/><polygon fill="#181818" points="212.584,185.9375,202.584,189.9375,212.584,193.9375,208.584,189.9375" style="stroke:#181818;stroke-width:1;"/><line style="stroke:#181818;stroke-width:1;" x1="190.584" x2="190.584" y1="83.9688" y2="103.9688"/><polygon fill="#181818" points="186.584,93.9688,190.584,103.9688,194.584,93.9688,190.584,97.9688" style="stroke:#181818;stroke-width:1;"/><line style="stroke:#181818;stroke-width:1;" x1="190.584" x2="190.584" y1="201.9375" y2="221.9375"/><polygon fill="#181818" points="186.584,211.9375,190.584,221.9375,194.584,211.9375,190.584,215.9375" style="stroke:#181818;stroke-width:1;"/><!--SRC=[LSen2eD040NGVaxniLfBkw2eTHgJOYqi5nsD83CXEmhUNcs4TAzuqSBFA7ysxzOZJ5pGFCATG5KYUzGfxCC2jtDC2SXVhRzcqkcAFWWsDKuAuYKodEZVyQhOTPK9fdUKOHufcduF]--></g></svg>