<svg xmlns="http://www.w3.org/2000/svg" xmlns:xlink="http://www.w3.org/1999/xlink" contentStyleType="text/css" data-diagram-type="CLASS" height="382px" preserveAspectRatio="none" style="width:528px;height:382px;background:#FFFFFF;" version="1.1" viewBox="0 0 528 382" width="528px" zoomAndPan="magnify"><defs/><g><!--class GreenhouseMonitor--><g class="entity" data-entity="GreenhouseMonitor" data-source-line="4" data-uid="ent0002" id="entity_GreenhouseMonitor"><rect fill="#F1F1F1" height="162.0781" rx="2.5" ry="2.5" style="stroke:#181818;stroke-width:0.5;" width="276.4141" x="133.43" y="7"/><ellipse cx="198.3167" cy="23" fill="#C2C2C2" rx="11" ry="11" style="stroke:#181818;stroke-width:1;"/><path d="M201.2855,28.6406 Q200.7073,28.9375 200.0667,29.0781 Q199.4261,29.2344 198.723,29.2344 Q196.223,29.2344 194.8948,27.5938 Q193.5823,25.9375 193.5823,22.8125 Q193.5823,19.6875 194.8948,18.0313 Q196.223,16.375 198.723,16.375 Q199.4261,16.375 200.0667,16.5313 Q200.723,16.6875 201.2855,16.9844 L201.2855,19.7031 Q200.6605,19.125 200.0667,18.8594 Q199.473,18.5781 198.848,18.5781 Q197.5042,18.5781 196.8167,19.6563 Q196.1292,20.7188 196.1292,22.8125 Q196.1292,24.9063 196.8167,25.9844 Q197.5042,27.0469 198.848,27.0469 Q199.473,27.0469 200.0667,26.7813 Q200.6605,26.5 201.2855,25.9219 L201.2855,28.6406 Z " fill="#000000"/><text fill="#000000" font-family="sans-serif" font-size="14" lengthAdjust="spacing" textLength="138.1406" x="218.8167" y="27.8467">GreenhouseMonitor</text><line style="stroke:#181818;stroke-width:0.5;" x1="134.43" x2="408.8441" y1="39" y2="39"/><rect fill="none" height="6" style="stroke:#595959;stroke-width:1;" width="6" x="141.43" y="49.6484"/><text fill="#000000" font-family="sans-serif" font-size="14" lengthAdjust="spacing" textLength="88.8193" x="153.43" y="55.9951">sensors: dict</text><rect fill="none" height="6" style="stroke:#595959;stroke-width:1;" width="6" x="141.43" y="65.9453"/><text fill="#000000" font-family="sans-serif" font-size="14" lengthAdjust="spacing" textLength="99.0186" x="153.43" y="72.292">log_file: string</text><line style="stroke:#181818;stroke-width:0.5;" x1="134.43" x2="408.8441" y1="79.5938" y2="79.5938"/><ellipse cx="144.43" cy="93.2422" fill="#A6A6A6" rx="3" ry="3" style="stroke:#545454;stroke-width:1;"/><text fill="#000000" font-family="sans-serif" font-size="14" lengthAdjust="spacing" textLength="129.5957" x="153.43" y="96.5889">\_\_init\_\_(log_file)</text><ellipse cx="144.43" cy="109.5391" fill="#A6A6A6" rx="3" ry="3" style="stroke:#545454;stroke-width:1;"/><text fill="#000000" font-family="sans-serif" font-size="14" lengthAdjust="spacing" textLength="250.4141" x="153.43" y="112.8857">add_sensor(sensor_id, sensor_type)</text><ellipse cx="144.43" cy="125.8359" fill="#A6A6A6" rx="3" ry="3" style="stroke:#545454;stroke-width:1;"/><text fill="#000000" font-family="sans-serif" font-size="14" lengthAdjust="spacing" textLength="161.9365" x="153.43" y="129.1826">read_all_sensors(): dict</text><ellipse cx="144.43" cy="142.1328" fill="#A6A6A6" rx="3" ry="3" style="stroke:#545454;stroke-width:1;"/><text fill="#000000" font-family="sans-serif" font-size="14" lengthAdjust="spacing" textLength="160.8223" x="153.43" y="145.4795">log_readings(readings)</text><ellipse cx="144.43" cy="158.4297" fill="#A6A6A6" rx="3" ry="3" style="stroke:#545454;stroke-width:1;"/><text fill="#000000" font-family="sans-serif" font-size="14" lengthAdjust="spacing" textLength="247.543" x="153.43" y="161.7764">get_latest_reading(sensor_id): float</text></g><!--class SensorReading--><g class="entity" data-entity="SensorReading" data-source-line="14" data-uid="ent0003" id="entity_SensorReading"><rect fill="#F1F1F1" height="129.4844" rx="2.5" ry="2.5" style="stroke:#181818;stroke-width:0.5;" width="255.2705" x="7" y="246.08"/><ellipse cx="77.6631" cy="262.08" fill="#C2C2C2" rx="11" ry="11" style="stroke:#181818;stroke-width:1;"/><path d="M80.6318,267.7206 Q80.0537,268.0175 79.4131,268.1581 Q78.7725,268.3144 78.0693,268.3144 Q75.5693,268.3144 74.2412,266.6738 Q72.9287,265.0175 72.9287,261.8925 Q72.9287,258.7675 74.2412,257.1113 Q75.5693,255.455 78.0693,255.455 Q78.7725,255.455 79.4131,255.6113 Q80.0693,255.7675 80.6318,256.0644 L80.6318,258.7831 Q80.0068,258.205 79.4131,257.9394 Q78.8193,257.6581 78.1943,257.6581 Q76.8506,257.6581 76.1631,258.7363 Q75.4756,259.7988 75.4756,261.8925 Q75.4756,263.9863 76.1631,265.0644 Q76.8506,266.1269 78.1943,266.1269 Q78.8193,266.1269 79.4131,265.8613 Q80.0068,265.58 80.6318,265.0019 L80.6318,267.7206 Z " fill="#000000"/><text fill="#000000" font-family="sans-serif" font-size="14" lengthAdjust="spacing" textLength="105.4443" x="98.1631" y="266.9267">SensorReading</text><line style="stroke:#181818;stroke-width:0.5;" x1="8" x2="261.2705" y1="278.08" y2="278.08"/><ellipse cx="18" cy="291.7284" fill="none" rx="3" ry="3" style="stroke:#545454;stroke-width:1;"/><text fill="#000000" font-family="sans-serif" font-size="14" lengthAdjust="spacing" textLength="147.8818" x="27" y="295.0751">timestamp: datetime</text><ellipse cx="18" cy="308.0253" fill="none" rx="3" ry="3" style="stroke:#545454;stroke-width:1;"/><text fill="#000000" font-family="sans-serif" font-size="14" lengthAdjust="spacing" textLength="115.5273" x="27" y="311.372">sensor_id: string</text><ellipse cx="18" cy="324.3222" fill="none" rx="3" ry="3" style="stroke:#545454;stroke-width:1;"/><text fill="#000000" font-family="sans-serif" font-size="14" lengthAdjust="spacing" textLength="78.8594" x="27" y="327.6689">value: float</text><ellipse cx="18" cy="340.6191" fill="none" rx="3" ry="3" style="stroke:#545454;stroke-width:1;"/><text fill="#000000" font-family="sans-serif" font-size="14" lengthAdjust="spacing" textLength="76.4805" x="27" y="343.9657">unit: string</text><line style="stroke:#181818;stroke-width:0.5;" x1="8" x2="261.2705" y1="351.2675" y2="351.2675"/><ellipse cx="18" cy="364.9159" fill="#A6A6A6" rx="3" ry="3" style="stroke:#545454;stroke-width:1;"/><text fill="#000000" font-family="sans-serif" font-size="14" lengthAdjust="spacing" textLength="229.2705" x="27" y="368.2626">\_\_init\_\_(sensor_id, value, unit)</text></g><!--class CSVLogger--><g class="entity" data-entity="CSVLogger" data-source-line="22" data-uid="ent0004" id="entity_CSVLogger"><rect fill="#F1F1F1" height="129.4844" rx="2.5" ry="2.5" style="stroke:#181818;stroke-width:0.5;" width="224.625" x="297.32" y="246.08"/><ellipse cx="367.009" cy="262.08" fill="#C2C2C2" rx="11" ry="11" style="stroke:#181818;stroke-width:1;"/><path d="M369.9777,267.7206 Q369.3996,268.0175 368.759,268.1581 Q368.1183,268.3144 367.4152,268.3144 Q364.9152,268.3144 363.5871,266.6738 Q362.2746,265.0175 362.2746,261.8925 Q362.2746,258.7675 363.5871,257.1113 Q364.9152,255.455 367.4152,255.455 Q368.1183,255.455 368.759,255.6113 Q369.4152,255.7675 369.9777,256.0644 L369.9777,258.7831 Q369.3527,258.205 368.759,257.9394 Q368.1652,257.6581 367.5402,257.6581 Q366.1965,257.6581 365.509,258.7363 Q364.8215,259.7988 364.8215,261.8925 Q364.8215,263.9863 365.509,265.0644 Q366.1965,266.1269 367.5402,266.1269 Q368.1652,266.1269 368.759,265.8613 Q369.3527,265.58 369.9777,265.0019 L369.9777,267.7206 Z " fill="#000000"/><text fill="#000000" font-family="sans-serif" font-size="14" lengthAdjust="spacing" textLength="76.7471" x="387.509" y="266.9267">CSVLogger</text><line style="stroke:#181818;stroke-width:0.5;" x1="298.32" x2="520.945" y1="278.08" y2="278.08"/><rect fill="none" height="6" style="stroke:#595959;stroke-width:1;" width="6" x="305.32" y="288.7284"/><text fill="#000000" font-family="sans-serif" font-size="14" lengthAdjust="spacing" textLength="110.3799" x="317.32" y="295.0751">filename: string</text><line style="stroke:#181818;stroke-width:0.5;" x1="298.32" x2="520.945" y1="302.3769" y2="302.3769"/><ellipse cx="308.32" cy="316.0253" fill="#A6A6A6" rx="3" ry="3" style="stroke:#545454;stroke-width:1;"/><text fill="#000000" font-family="sans-serif" font-size="14" lengthAdjust="spacing" textLength="140.957" x="317.32" y="319.372">\_\_init\_\_(filename)</text><ellipse cx="308.32" cy="332.3222" fill="#A6A6A6" rx="3" ry="3" style="stroke:#545454;stroke-width:1;"/><text fill="#000000" font-family="sans-serif" font-size="14" lengthAdjust="spacing" textLength="159.0586" x="317.32" y="335.6689">write_header(headers)</text><ellipse cx="308.32" cy="348.6191" fill="#A6A6A6" rx="3" ry="3" style="stroke:#545454;stroke-width:1;"/><text fill="#000000" font-family="sans-serif" font-size="14" lengthAdjust="spacing" textLength="198.625" x="317.32" y="351.9657">write_reading(reading_data)</text><ellipse cx="308.32" cy="364.9159" fill="#A6A6A6" rx="3" ry="3" style="stroke:#545454;stroke-width:1;"/><text fill="#000000" font-family="sans-serif" font-size="14" lengthAdjust="spacing" textLength="134.3809" x="317.32" y="368.2626">read_all_data(): list</text></g><!--link GreenhouseMonitor to SensorReading--><g class="link" data-entity-1="GreenhouseMonitor" data-entity-2="SensorReading" data-source-line="30" data-uid="lnk5" id="link_GreenhouseMonitor_SensorReading"><path codeLine="30" d="M221.79,169.37 C206.18,194.52 192.3333,216.8316 177.5233,240.7016" fill="none" id="GreenhouseMonitor-to-SensorReading" style="stroke:#181818;stroke-width:1;"/><polygon fill="#181818" points="174.36,245.8,182.5038,240.2612,176.9961,241.5513,175.706,236.0435,174.36,245.8" style="stroke:#181818;stroke-width:1;"/><text fill="#000000" font-family="sans-serif" font-size="13" lengthAdjust="spacing" textLength="48.3247" x="204.64" y="212.1469">creates</text></g><!--link GreenhouseMonitor to CSVLogger--><g class="link" data-entity-1="GreenhouseMonitor" data-entity-2="CSVLogger" data-source-line="31" data-uid="lnk6" id="link_GreenhouseMonitor_CSVLogger"><path codeLine="31" d="M321.85,169.37 C337.57,194.52 351.5198,216.8421 366.4398,240.7121" fill="none" id="GreenhouseMonitor-to-CSVLogger" style="stroke:#181818;stroke-width:1;"/><polygon fill="#181818" points="369.62,245.8,368.2416,236.0481,366.9698,241.5601,361.4578,240.2883,369.62,245.8" style="stroke:#181818;stroke-width:1;"/><text fill="#000000" font-family="sans-serif" font-size="13" lengthAdjust="spacing" textLength="29.7832" x="349.64" y="212.1469">uses</text></g><!--SRC=[VL8nRiCm3Dpz2eusadp0GvSENTgb0J8540YBiONAaY7A3OgYVozjIt6QeCd2cBmx-exc3-C63DX3xvrlkk1xWXX6AlWouGwrFnlNmWajKr4q5fdX9H2vpezCRzwPw0Dy5o2_7J0vze5hqAQ9gMTzgqx6KWqSWsZDxGqSrL4POK-rp9Wg3L5hjMYLIr56RvEwYb_31HW8jK9h4vhBwchtPjuzGMGjb_bFvhOKbSL873DcNIOo9-in5Z_Pz7uUlI_0P7W3qVJ2ntwGjI8rFQR9HUh6zoVQaRBwqXebXaVfN4KmixSperhVxNb_UFLjI-iXfZ0TzWz3pvYSnpcOIAeJXnJAfV3VMOufLIMMyUuIKtCwWpKyntV_jUnsJpTnrj08Nqxn3terM8EC-1S0]--></g></svg>