<svg xmlns="http://www.w3.org/2000/svg" xmlns:xlink="http://www.w3.org/1999/xlink" contentStyleType="text/css" data-diagram-type="CLASS" height="555px" preserveAspectRatio="none" style="width:645px;height:555px;background:#FFFFFF;" version="1.1" viewBox="0 0 645 555" width="645px" zoomAndPan="magnify"><defs/><g><!--class Vehicle--><g class="entity" data-entity="Vehicle" data-source-line="1" data-uid="ent0002" id="entity_Vehicle"><rect fill="#F1F1F1" height="162.0781" rx="2.5" ry="2.5" style="stroke:#181818;stroke-width:0.5;" width="197.3633" x="245.04" y="7"/><ellipse cx="313.895" cy="23" fill="#A9DCDF" rx="11" ry="11" style="stroke:#181818;stroke-width:1;"/><path d="M314.0044,18.3438 L312.8481,23.4219 L315.1762,23.4219 L314.0044,18.3438 Z M312.52,16.1094 L315.5044,16.1094 L318.8637,28.5 L316.4106,28.5 L315.645,25.4375 L312.3637,25.4375 L311.6137,28.5 L309.1762,28.5 L312.52,16.1094 Z " fill="#000000"/><text fill="#000000" font-family="sans-serif" font-size="14" font-style="italic" lengthAdjust="spacing" textLength="51.1533" x="334.395" y="27.8467">Vehicle</text><line style="stroke:#181818;stroke-width:0.5;" x1="246.04" x2="441.4033" y1="39" y2="39"/><rect fill="none" height="6" style="stroke:#C82930;stroke-width:1;" width="6" x="253.04" y="49.6484"/><text fill="#000000" font-family="sans-serif" font-size="14" lengthAdjust="spacing" textLength="88.293" x="265.04" y="55.9951">make: string</text><rect fill="none" height="6" style="stroke:#C82930;stroke-width:1;" width="6" x="253.04" y="65.9453"/><text fill="#000000" font-family="sans-serif" font-size="14" lengthAdjust="spacing" textLength="92.9482" x="265.04" y="72.292">model: string</text><rect fill="none" height="6" style="stroke:#C82930;stroke-width:1;" width="6" x="253.04" y="82.2422"/><text fill="#000000" font-family="sans-serif" font-size="14" lengthAdjust="spacing" textLength="82.9131" x="265.04" y="88.5889">speed: float</text><line style="stroke:#181818;stroke-width:0.5;" x1="246.04" x2="441.4033" y1="95.8906" y2="95.8906"/><ellipse cx="256.04" cy="109.5391" fill="#84BE84" rx="3" ry="3" style="stroke:#038048;stroke-width:1;"/><text fill="#000000" font-family="sans-serif" font-size="14" lengthAdjust="spacing" textLength="171.3633" x="265.04" y="112.8857">\_\_init\_\_(make, model)</text><ellipse cx="256.04" cy="125.8359" fill="#84BE84" rx="3" ry="3" style="stroke:#038048;stroke-width:1;"/><text fill="#000000" font-family="sans-serif" font-size="14" lengthAdjust="spacing" textLength="108.6709" x="265.04" y="129.1826">start(): boolean</text><ellipse cx="256.04" cy="142.1328" fill="#84BE84" rx="3" ry="3" style="stroke:#038048;stroke-width:1;"/><text fill="#000000" font-family="sans-serif" font-size="14" lengthAdjust="spacing" textLength="106.2988" x="265.04" y="145.4795">stop(): boolean</text><ellipse cx="256.04" cy="158.4297" fill="#84BE84" rx="3" ry="3" style="stroke:#038048;stroke-width:1;"/><text fill="#000000" font-family="sans-serif" font-size="14" font-style="italic" lengthAdjust="spacing" textLength="123.2451" x="265.04" y="161.7764">accelerate(): void</text></g><!--class Car--><g class="entity" data-entity="Car" data-source-line="11" data-uid="ent0003" id="entity_Car"><rect fill="#F1F1F1" height="129.4844" rx="2.5" ry="2.5" style="stroke:#181818;stroke-width:0.5;" width="245.3311" x="70.05" y="229.08"/><ellipse cx="176.4104" cy="245.08" fill="#ADD1B2" rx="11" ry="11" style="stroke:#181818;stroke-width:1;"/><path d="M179.3791,250.7206 Q178.801,251.0175 178.1604,251.1581 Q177.5197,251.3144 176.8166,251.3144 Q174.3166,251.3144 172.9885,249.6737 Q171.676,248.0175 171.676,244.8925 Q171.676,241.7675 172.9885,240.1112 Q174.3166,238.455 176.8166,238.455 Q177.5197,238.455 178.1604,238.6112 Q178.8166,238.7675 179.3791,239.0644 L179.3791,241.7831 Q178.7541,241.205 178.1604,240.9394 Q177.5666,240.6581 176.9416,240.6581 Q175.5979,240.6581 174.9104,241.7362 Q174.2229,242.7987 174.2229,244.8925 Q174.2229,246.9862 174.9104,248.0644 Q175.5979,249.1269 176.9416,249.1269 Q177.5666,249.1269 178.1604,248.8612 Q178.7541,248.58 179.3791,248.0019 L179.3791,250.7206 Z " fill="#000000"/><text fill="#000000" font-family="sans-serif" font-size="14" lengthAdjust="spacing" textLength="24.1104" x="196.9104" y="249.9267">Car</text><line style="stroke:#181818;stroke-width:0.5;" x1="71.05" x2="314.3811" y1="261.08" y2="261.08"/><rect fill="none" height="6" style="stroke:#C82930;stroke-width:1;" width="6" x="78.05" y="271.7284"/><text fill="#000000" font-family="sans-serif" font-size="14" lengthAdjust="spacing" textLength="66.4863" x="90.05" y="278.0751">doors: int</text><rect fill="none" height="6" style="stroke:#C82930;stroke-width:1;" width="6" x="78.05" y="288.0253"/><text fill="#000000" font-family="sans-serif" font-size="14" lengthAdjust="spacing" textLength="107.2148" x="90.05" y="294.372">fuel_level: float</text><line style="stroke:#181818;stroke-width:0.5;" x1="71.05" x2="314.3811" y1="301.6737" y2="301.6737"/><ellipse cx="81.05" cy="315.3222" fill="#84BE84" rx="3" ry="3" style="stroke:#038048;stroke-width:1;"/><text fill="#000000" font-family="sans-serif" font-size="14" lengthAdjust="spacing" textLength="219.3311" x="90.05" y="318.6689">\_\_init\_\_(make, model, doors)</text><ellipse cx="81.05" cy="331.6191" fill="#84BE84" rx="3" ry="3" style="stroke:#038048;stroke-width:1;"/><text fill="#000000" font-family="sans-serif" font-size="14" lengthAdjust="spacing" textLength="123.2451" x="90.05" y="334.9657">accelerate(): void</text><ellipse cx="81.05" cy="347.9159" fill="#84BE84" rx="3" ry="3" style="stroke:#038048;stroke-width:1;"/><text fill="#000000" font-family="sans-serif" font-size="14" lengthAdjust="spacing" textLength="185.0283" x="90.05" y="351.2626">refuel(amount: float): void</text></g><!--class Motorcycle--><g class="entity" data-entity="Motorcycle" data-source-line="19" data-uid="ent0005" id="entity_Motorcycle"><rect fill="#F1F1F1" height="129.4844" rx="2.5" ry="2.5" style="stroke:#181818;stroke-width:0.5;" width="288.1582" x="350.64" y="229.08"/><ellipse cx="452.1503" cy="245.08" fill="#ADD1B2" rx="11" ry="11" style="stroke:#181818;stroke-width:1;"/><path d="M455.119,250.7206 Q454.5409,251.0175 453.9003,251.1581 Q453.2596,251.3144 452.5565,251.3144 Q450.0565,251.3144 448.7284,249.6737 Q447.4159,248.0175 447.4159,244.8925 Q447.4159,241.7675 448.7284,240.1112 Q450.0565,238.455 452.5565,238.455 Q453.2596,238.455 453.9003,238.6112 Q454.5565,238.7675 455.119,239.0644 L455.119,241.7831 Q454.494,241.205 453.9003,240.9394 Q453.3065,240.6581 452.6815,240.6581 Q451.3378,240.6581 450.6503,241.7362 Q449.9628,242.7987 449.9628,244.8925 Q449.9628,246.9862 450.6503,248.0644 Q451.3378,249.1269 452.6815,249.1269 Q453.3065,249.1269 453.9003,248.8612 Q454.494,248.58 455.119,248.0019 L455.119,250.7206 Z " fill="#000000"/><text fill="#000000" font-family="sans-serif" font-size="14" lengthAdjust="spacing" textLength="76.6377" x="472.6503" y="249.9267">Motorcycle</text><line style="stroke:#181818;stroke-width:0.5;" x1="351.64" x2="637.7982" y1="261.08" y2="261.08"/><rect fill="none" height="6" style="stroke:#C82930;stroke-width:1;" width="6" x="358.64" y="271.7284"/><text fill="#000000" font-family="sans-serif" font-size="14" lengthAdjust="spacing" textLength="109.3135" x="370.64" y="278.0751">engine_size: int</text><rect fill="none" height="6" style="stroke:#C82930;stroke-width:1;" width="6" x="358.64" y="288.0253"/><text fill="#000000" font-family="sans-serif" font-size="14" lengthAdjust="spacing" textLength="147.6016" x="370.64" y="294.372">has_sidecar: boolean</text><line style="stroke:#181818;stroke-width:0.5;" x1="351.64" x2="637.7982" y1="301.6737" y2="301.6737"/><ellipse cx="361.64" cy="315.3222" fill="#84BE84" rx="3" ry="3" style="stroke:#038048;stroke-width:1;"/><text fill="#000000" font-family="sans-serif" font-size="14" lengthAdjust="spacing" textLength="262.1582" x="370.64" y="318.6689">\_\_init\_\_(make, model, engine_size)</text><ellipse cx="361.64" cy="331.6191" fill="#84BE84" rx="3" ry="3" style="stroke:#038048;stroke-width:1;"/><text fill="#000000" font-family="sans-serif" font-size="14" lengthAdjust="spacing" textLength="123.2451" x="370.64" y="334.9657">accelerate(): void</text><ellipse cx="361.64" cy="347.9159" fill="#84BE84" rx="3" ry="3" style="stroke:#038048;stroke-width:1;"/><text fill="#000000" font-family="sans-serif" font-size="14" lengthAdjust="spacing" textLength="130.0059" x="370.64" y="351.2626">wheelie(): boolean</text></g><!--class ElectricCar--><g class="entity" data-entity="ElectricCar" data-source-line="27" data-uid="ent0007" id="entity_ElectricCar"><rect fill="#F1F1F1" height="129.4844" rx="2.5" ry="2.5" style="stroke:#181818;stroke-width:0.5;" width="371.4336" x="7" y="418.57"/><ellipse cx="150.4727" cy="434.57" fill="#ADD1B2" rx="11" ry="11" style="stroke:#181818;stroke-width:1;"/><path d="M153.4414,440.2106 Q152.8633,440.5075 152.2227,440.6481 Q151.582,440.8044 150.8789,440.8044 Q148.3789,440.8044 147.0508,439.1637 Q145.7383,437.5075 145.7383,434.3825 Q145.7383,431.2575 147.0508,429.6012 Q148.3789,427.945 150.8789,427.945 Q151.582,427.945 152.2227,428.1012 Q152.8789,428.2575 153.4414,428.5544 L153.4414,431.2731 Q152.8164,430.695 152.2227,430.4294 Q151.6289,430.1481 151.0039,430.1481 Q149.6602,430.1481 148.9727,431.2262 Q148.2852,432.2887 148.2852,434.3825 Q148.2852,436.4762 148.9727,437.5544 Q149.6602,438.6169 151.0039,438.6169 Q151.6289,438.6169 152.2227,438.3512 Q152.8164,438.07 153.4414,437.4919 L153.4414,440.2106 Z " fill="#000000"/><text fill="#000000" font-family="sans-serif" font-size="14" lengthAdjust="spacing" textLength="75.9883" x="170.9727" y="439.4167">ElectricCar</text><line style="stroke:#181818;stroke-width:0.5;" x1="8" x2="377.4336" y1="450.57" y2="450.57"/><rect fill="none" height="6" style="stroke:#C82930;stroke-width:1;" width="6" x="15" y="461.2184"/><text fill="#000000" font-family="sans-serif" font-size="14" lengthAdjust="spacing" textLength="132.0088" x="27" y="467.5651">battery_level: float</text><rect fill="none" height="6" style="stroke:#C82930;stroke-width:1;" width="6" x="15" y="477.5153"/><text fill="#000000" font-family="sans-serif" font-size="14" lengthAdjust="spacing" textLength="146.4941" x="27" y="483.862">charging_port: string</text><line style="stroke:#181818;stroke-width:0.5;" x1="8" x2="377.4336" y1="491.1637" y2="491.1637"/><ellipse cx="18" cy="504.8122" fill="#84BE84" rx="3" ry="3" style="stroke:#038048;stroke-width:1;"/><text fill="#000000" font-family="sans-serif" font-size="14" lengthAdjust="spacing" textLength="345.4336" x="27" y="508.1589">\_\_init\_\_(make, model, doors, battery_capacity)</text><ellipse cx="18" cy="521.1091" fill="#84BE84" rx="3" ry="3" style="stroke:#038048;stroke-width:1;"/><text fill="#000000" font-family="sans-serif" font-size="14" lengthAdjust="spacing" textLength="184.4541" x="27" y="524.4557">charge(duration: int): void</text><ellipse cx="18" cy="537.4059" fill="#84BE84" rx="3" ry="3" style="stroke:#038048;stroke-width:1;"/><text fill="#000000" font-family="sans-serif" font-size="14" lengthAdjust="spacing" textLength="122.2402" x="27" y="540.7526">get_range(): float</text></g><!--reverse link Vehicle to Car--><g class="link" data-entity-1="Vehicle" data-entity-2="Car" data-source-line="12" data-uid="lnk4" id="link_Vehicle_Car"><path d="M273.5359,183.754 C258.9359,203.464 254.2,209.85 240.24,228.69" fill="none" id="Vehicle-backto-Car" style="stroke:#181818;stroke-width:1;"/><polygon fill="none" points="284.25,169.29,268.7146,180.1827,278.3572,187.3254,284.25,169.29" style="stroke:#181818;stroke-width:1;"/></g><!--reverse link Vehicle to Motorcycle--><g class="link" data-entity-1="Vehicle" data-entity-2="Motorcycle" data-source-line="20" data-uid="lnk6" id="link_Vehicle_Motorcycle"><path d="M413.8988,183.7505 C428.5088,203.4605 433.23,209.85 447.2,228.69" fill="none" id="Vehicle-backto-Motorcycle" style="stroke:#181818;stroke-width:1;"/><polygon fill="none" points="403.18,169.29,409.0787,187.3235,418.719,180.1776,403.18,169.29" style="stroke:#181818;stroke-width:1;"/></g><!--reverse link Car to ElectricCar--><g class="link" data-entity-1="Car" data-entity-2="ElectricCar" data-source-line="28" data-uid="lnk8" id="link_Car_ElectricCar"><path d="M192.72,376.82 C192.72,396.02 192.72,399.08 192.72,418.28" fill="none" id="Car-backto-ElectricCar" style="stroke:#181818;stroke-width:1;"/><polygon fill="none" points="192.72,358.82,186.72,376.82,198.72,376.82,192.72,358.82" style="stroke:#181818;stroke-width:1;"/></g><!--SRC=[ZPBDRi8m48JlUGeVWmela6lLOwyz8KMBFIHMZJUo5rgAUFVQ-K41YcWkZiRhqJTZqoPA82rAEufHVQ2rsa6T2fM-bThH9ogLHgnl9eaDt8qMEy1KQkkOf9TUrBfUrzPRoMkPRPR3oSMu7uM2b8jARPWTo5zaxcxL4usGvpH0MiCXa22F7TYQubmK0_qh1OLlWJVtIGnpY9MoNaPXkuUh7Guvp7_0buF5nFy7nx0Ha9rBsl7UosXzH_hEma4VC-0ZOFZ6UjJH_c2EtL9Cce6cSDlTO_APrrF-hnPm5lDBk62_EUXqxtfUTFwVc3SaWd2yhtMbT4iXGJHrnq6kdi_JofSNNqqTQIl7AKHlYjBiKmxBlk_fEaq3gGFvfiypy9n_0G00]--></g></svg>