<svg xmlns="http://www.w3.org/2000/svg" xmlns:xlink="http://www.w3.org/1999/xlink" contentStyleType="text/css" data-diagram-type="CLASS" height="183px" preserveAspectRatio="none" style="width:248px;height:183px;background:#FFFFFF;" version="1.1" viewBox="0 0 248 183" width="248px" zoomAndPan="magnify"><defs/><g><!--class Student--><g class="entity" data-entity="Student" data-source-line="1" data-uid="ent0002" id="entity_Student"><rect fill="#F1F1F1" height="162.0781" rx="2.5" ry="2.5" style="stroke:#181818;stroke-width:0.5;" width="227.8311" x="7" y="7"/><ellipse cx="89.1099" cy="23" fill="#ADD1B2" rx="11" ry="11" style="stroke:#181818;stroke-width:1;"/><path d="M92.0786,28.6406 Q91.5005,28.9375 90.8599,29.0781 Q90.2192,29.2344 89.5161,29.2344 Q87.0161,29.2344 85.688,27.5938 Q84.3755,25.9375 84.3755,22.8125 Q84.3755,19.6875 85.688,18.0313 Q87.0161,16.375 89.5161,16.375 Q90.2192,16.375 90.8599,16.5313 Q91.5161,16.6875 92.0786,16.9844 L92.0786,19.7031 Q91.4536,19.125 90.8599,18.8594 Q90.2661,18.5781 89.6411,18.5781 Q88.2974,18.5781 87.6099,19.6563 Q86.9224,20.7188 86.9224,22.8125 Q86.9224,24.9063 87.6099,25.9844 Q88.2974,27.0469 89.6411,27.0469 Q90.2661,27.0469 90.8599,26.7813 Q91.4536,26.5 92.0786,25.9219 L92.0786,28.6406 Z " fill="#000000"/><text fill="#000000" font-family="sans-serif" font-size="14" lengthAdjust="spacing" textLength="55.1113" x="109.6099" y="27.8467">Student</text><line style="stroke:#181818;stroke-width:0.5;" x1="8" x2="233.8311" y1="39" y2="39"/><rect fill="none" height="6" style="stroke:#C82930;stroke-width:1;" width="6" x="15" y="49.6484"/><text fill="#000000" font-family="sans-serif" font-size="14" lengthAdjust="spacing" textLength="89.0586" x="27" y="55.9951">name: string</text><rect fill="none" height="6" style="stroke:#C82930;stroke-width:1;" width="6" x="15" y="65.9453"/><text fill="#000000" font-family="sans-serif" font-size="14" lengthAdjust="spacing" textLength="122.6504" x="27" y="72.292">student_id: string</text><rect fill="none" height="6" style="stroke:#C82930;stroke-width:1;" width="6" x="15" y="82.2422"/><text fill="#000000" font-family="sans-serif" font-size="14" lengthAdjust="spacing" textLength="77.7451" x="27" y="88.5889">grades: list</text><line style="stroke:#181818;stroke-width:0.5;" x1="8" x2="233.8311" y1="95.8906" y2="95.8906"/><ellipse cx="18" cy="109.5391" fill="#84BE84" rx="3" ry="3" style="stroke:#038048;stroke-width:1;"/><text fill="#000000" font-family="sans-serif" font-size="14" lengthAdjust="spacing" textLength="201.8311" x="27" y="112.8857">\_\_init\_\_(name, student_id)</text><ellipse cx="18" cy="125.8359" fill="#84BE84" rx="3" ry="3" style="stroke:#038048;stroke-width:1;"/><text fill="#000000" font-family="sans-serif" font-size="14" lengthAdjust="spacing" textLength="166.3389" x="27" y="129.1826">add_grade(grade: float)</text><ellipse cx="18" cy="142.1328" fill="#84BE84" rx="3" ry="3" style="stroke:#038048;stroke-width:1;"/><text fill="#000000" font-family="sans-serif" font-size="14" lengthAdjust="spacing" textLength="138.8447" x="27" y="145.4795">get_average(): float</text><ellipse cx="18" cy="158.4297" fill="#84BE84" rx="3" ry="3" style="stroke:#038048;stroke-width:1;"/><text fill="#000000" font-family="sans-serif" font-size="14" lengthAdjust="spacing" textLength="116.5254" x="27" y="161.7764">get_info(): string</text></g><!--SRC=[NOv12W8n34NtSueiEwWNw3NS3fHWCYLGCz14D-BTjPqAWraayD__dzmAci7L7yJgy9hWEnTGl7C4yogQXsIx9GdzWLoHs28KCP-wTe8bBKbKlDtGoiw7_3nCI9HwEFGTOIqR-ezczeHFhfWvp8CTaEYwDNsyylu0]--></g></svg>