<svg xmlns="http://www.w3.org/2000/svg" xmlns:xlink="http://www.w3.org/1999/xlink" contentStyleType="text/css" data-diagram-type="DESCRIPTION" height="380px" preserveAspectRatio="none" style="width:632px;height:380px;background:#FFFFFF;" version="1.1" viewBox="0 0 632 380" width="632px" zoomAndPan="magnify"><defs/><g><!--entity student--><g class="entity" data-entity="student" data-source-line="1" data-uid="ent0002" id="entity_student"><rect fill="#F1F1F1" height="36.2969" rx="2.5" ry="2.5" style="stroke:#181818;stroke-width:0.5;" width="75.1113" x="53.13" y="7"/><text fill="#000000" font-family="sans-serif" font-size="14" lengthAdjust="spacing" textLength="55.1113" x="63.13" y="29.9951">Student</text></g><!--entity teacher--><g class="entity" data-entity="teacher" data-source-line="2" data-uid="ent0003" id="entity_teacher"><rect fill="#F1F1F1" height="36.2969" rx="2.5" ry="2.5" style="stroke:#181818;stroke-width:0.5;" width="76.6836" x="309.34" y="7"/><text fill="#000000" font-family="sans-serif" font-size="14" lengthAdjust="spacing" textLength="56.6836" x="319.34" y="29.9951">Teacher</text></g><!--entity p1--><g class="entity" data-entity="p1" data-source-line="4" data-uid="ent0004" id="entity_p1"><ellipse cx="135.68" cy="181.29" fill="#F1F1F1" rx="8" ry="8" style="stroke:#181818;stroke-width:0.5;"/><text fill="#000000" font-family="sans-serif" font-size="14" lengthAdjust="spacing" textLength="8.9072" x="100.0067" y="211.2851">1</text><text fill="#000000" font-family="sans-serif" font-size="14" lengthAdjust="spacing" textLength="55.6104" x="100.0067" y="227.582">Manage</text><text fill="#000000" font-family="sans-serif" font-size="14" lengthAdjust="spacing" textLength="71.3467" x="100.0067" y="243.8789">Borrowing</text></g><!--entity p2--><g class="entity" data-entity="p2" data-source-line="5" data-uid="ent0005" id="entity_p2"><ellipse cx="347.68" cy="181.29" fill="#F1F1F1" rx="8" ry="8" style="stroke:#181818;stroke-width:0.5;"/><text fill="#000000" font-family="sans-serif" font-size="14" lengthAdjust="spacing" textLength="8.9072" x="314.2454" y="211.2851">2</text><text fill="#000000" font-family="sans-serif" font-size="14" lengthAdjust="spacing" textLength="55.6104" x="314.2454" y="227.582">Manage</text><text fill="#000000" font-family="sans-serif" font-size="14" lengthAdjust="spacing" textLength="66.8691" x="314.2454" y="243.8789">Inventory</text></g><!--entity p3--><g class="entity" data-entity="p3" data-source-line="6" data-uid="ent0006" id="entity_p3"><ellipse cx="510.68" cy="181.29" fill="#F1F1F1" rx="8" ry="8" style="stroke:#181818;stroke-width:0.5;"/><text fill="#000000" font-family="sans-serif" font-size="14" lengthAdjust="spacing" textLength="8.9072" x="477.9871" y="211.2851">3</text><text fill="#000000" font-family="sans-serif" font-size="14" lengthAdjust="spacing" textLength="65.3857" x="477.9871" y="227.582">Generate</text><text fill="#000000" font-family="sans-serif" font-size="14" lengthAdjust="spacing" textLength="54.332" x="477.9871" y="243.8789">Reports</text></g><!--entity db1--><g class="entity" data-entity="db1" data-source-line="8" data-uid="ent0007" id="entity_db1"><path d="M222.13,319.29 L263.13,319.29 A3.75,3.75 0 0 1 265.63,321.79 L272.63,340.29 L353.2238,340.29 A2.5,2.5 0 0 1 355.7238,342.79 L355.7238,371.0869 A2.5,2.5 0 0 1 353.2238,373.5869 L222.13,373.5869 A2.5,2.5 0 0 1 219.63,371.0869 L219.63,321.79 A2.5,2.5 0 0 1 222.13,319.29" fill="#F1F1F1" style="stroke:#181818;stroke-width:0.5;"/><line style="stroke:#181818;stroke-width:0.5;" x1="219.63" x2="272.63" y1="340.29" y2="340.29"/><text fill="#000000" font-family="sans-serif" font-size="14" lengthAdjust="spacing" textLength="106.0938" x="229.63" y="360.2851">Book Database</text></g><!--entity db2--><g class="entity" data-entity="db2" data-source-line="9" data-uid="ent0008" id="entity_db2"><path d="M494.6,319.29 L535.6,319.29 A3.75,3.75 0 0 1 538.1,321.79 L545.1,340.29 L622.7611,340.29 A2.5,2.5 0 0 1 625.2611,342.79 L625.2611,371.0869 A2.5,2.5 0 0 1 622.7611,373.5869 L494.6,373.5869 A2.5,2.5 0 0 1 492.1,371.0869 L492.1,321.79 A2.5,2.5 0 0 1 494.6,319.29" fill="#F1F1F1" style="stroke:#181818;stroke-width:0.5;"/><line style="stroke:#181818;stroke-width:0.5;" x1="492.1" x2="545.1" y1="340.29" y2="340.29"/><text fill="#000000" font-family="sans-serif" font-size="14" lengthAdjust="spacing" textLength="103.1611" x="502.1" y="360.2851">User Database</text></g><!--link student to p1--><g class="link" data-entity-1="student" data-entity-2="p1" data-source-line="11" data-uid="lnk9" id="link_student_p1"><path d="M52.83,40.36 C29.54,51.55 6,68.83 16.68,90.29 C40.33,137.84 96.8546,164.6835 120.6546,174.3935" fill="none" id="student-to-p1" style="stroke:#181818;stroke-width:1;"/><polygon fill="#181818" points="126.21,176.66,119.3879,169.5566,121.5805,174.7712,116.3658,176.9638,126.21,176.66" style="stroke:#181818;stroke-width:1;"/><text fill="#000000" font-family="sans-serif" font-size="13" lengthAdjust="spacing" textLength="99.3154" x="17.68" y="86.3569">borrow request</text></g><!--link p1 to student--><g class="link" data-entity-1="p1" data-entity-2="student" data-source-line="14" data-uid="lnk12" id="link_p1_student"><path d="M135.84,171.94 C135.92,153.51 134.67,108.24 121.68,73.29 C117.72,62.64 114.5248,56.8082 108.3348,48.3182" fill="none" id="p1-to-student" style="stroke:#181818;stroke-width:1;"/><polygon fill="#181818" points="104.8,43.47,106.8701,53.0989,107.7457,47.5102,113.3343,48.3858,104.8,43.47" style="stroke:#181818;stroke-width:1;"/><text fill="#000000" font-family="sans-serif" font-size="13" lengthAdjust="spacing" textLength="97.5508" x="128.68" y="86.3569">borrowed book</text></g><!--link p1 to db1--><g class="link" data-entity-1="p1" data-entity-2="db1" data-source-line="12" data-uid="lnk10" id="link_p1_db1"><path d="M129.32,190.69 C115.53,209.99 85.89,258.25 108.68,289.29 C133.93,323.68 174.2756,336.7651 213.4456,342.1351" fill="none" id="p1-to-db1" style="stroke:#181818;stroke-width:1;"/><polygon fill="#181818" points="219.39,342.95,211.0167,337.7646,214.4363,342.2709,209.9301,345.6905,219.39,342.95" style="stroke:#181818;stroke-width:1;"/><text fill="#000000" font-family="sans-serif" font-size="13" lengthAdjust="spacing" textLength="73.3472" x="109.68" y="285.3569">book query</text></g><!--link db1 to p1--><g class="link" data-entity-1="db1" data-entity-2="p1" data-source-line="13" data-uid="lnk11" id="link_db1_p1"><path d="M252.53,318.82 C241.57,309.9 229.73,299.59 219.68,289.29 C186.7,255.48 157.3651,214.1439 144.6351,195.5139" fill="none" id="db1-to-p1" style="stroke:#181818;stroke-width:1;"/><polygon fill="#181818" points="141.25,190.56,143.025,200.2476,144.0709,194.6883,149.6302,195.7342,141.25,190.56" style="stroke:#181818;stroke-width:1;"/><text fill="#000000" font-family="sans-serif" font-size="13" lengthAdjust="spacing" textLength="79.1299" x="220.68" y="285.3569">book details</text></g><!--link teacher to p2--><g class="link" data-entity-1="teacher" data-entity-2="p2" data-source-line="15" data-uid="lnk13" id="link_teacher_p2"><path d="M347.68,43.53 C347.68,76.91 347.68,142.8 347.68,166.52" fill="none" id="teacher-to-p2" style="stroke:#181818;stroke-width:1;"/><polygon fill="#181818" points="347.68,172.52,351.68,163.52,347.68,167.52,343.68,163.52,347.68,172.52" style="stroke:#181818;stroke-width:1;"/><text fill="#000000" font-family="sans-serif" font-size="13" lengthAdjust="spacing" textLength="146.9482" x="348.68" y="86.3569">book recommendation</text></g><!--link p2 to db1--><g class="link" data-entity-1="p2" data-entity-2="db1" data-source-line="16" data-uid="lnk14" id="link_p2_db1"><path d="M344.86,190.09 C338.48,207.76 322.38,252.2 308.68,289.29 C305.11,298.96 303.2634,324.9308 299.7634,334.2808" fill="none" id="p2-to-db1" style="stroke:#181818;stroke-width:1;"/><polygon fill="#181818" points="297.66,339.9,304.5613,332.8735,299.4129,335.2173,297.069,330.0689,297.66,339.9" style="stroke:#181818;stroke-width:1;"/><text fill="#000000" font-family="sans-serif" font-size="13" lengthAdjust="spacing" textLength="62.6895" x="314.68" y="285.3569">new book</text></g><!--link p3 to db1--><g class="link" data-entity-1="p3" data-entity-2="db1" data-source-line="17" data-uid="lnk15" id="link_p3_db1"><path d="M502.64,190.13 C483.4,208.64 432.84,256.04 385.68,289.29 C370.78,299.8 358.9932,328.1373 343.3732,336.9673" fill="none" id="p3-to-db1" style="stroke:#181818;stroke-width:1;"/><polygon fill="#181818" points="338.15,339.92,347.9532,338.9731,342.5027,337.4594,344.0163,332.0089,338.15,339.92" style="stroke:#181818;stroke-width:1;"/><text fill="#000000" font-family="sans-serif" font-size="13" lengthAdjust="spacing" textLength="65.1016" x="407.68" y="285.3569">book data</text></g><!--link p3 to db2--><g class="link" data-entity-1="p3" data-entity-2="db2" data-source-line="18" data-uid="lnk16" id="link_p3_db2"><path d="M513,190.16 C519.76,213.14 538.0071,296.1538 549.1771,334.1338" fill="none" id="p3-to-db2" style="stroke:#181818;stroke-width:1;"/><polygon fill="#181818" points="550.87,339.89,552.1681,330.1271,549.4592,335.0932,544.4931,332.3843,550.87,339.89" style="stroke:#181818;stroke-width:1;"/><text fill="#000000" font-family="sans-serif" font-size="13" lengthAdjust="spacing" textLength="61.769" x="542.68" y="285.3569">user data</text></g><!--SRC=[PP0nJyGm38Nt_8ee-mrDDuORJaY8WGMuhOlRc5BHSugJSkBVuoGbLy4IMVcUdv_DE4IWSKPjNkBgaABH47GejU8RVaKOtf4pZgLMQfXuIB3fw0a8Hkpev9dzTQ8nAvUcQknDyqXVukxvksXirRGTFI0XGnJLCowUOoYQLgatFpjaRKxUV-XxYD13m4nTtrHw3lB-eLQfRIDzE1mbbBxJfiz1DUFdYY4Q9Ry9YbUXCaI8P5JfQzydn664QGwrwzU- -gBJIMZKTgjYOAk1NDPVBaWEukH9VEn-Ek5rQr_QVwca1NOWUwvfwmn-0000]--></g></svg>