<svg xmlns="http://www.w3.org/2000/svg" xmlns:xlink="http://www.w3.org/1999/xlink" contentStyleType="text/css" data-diagram-type="DESCRIPTION" height="814px" preserveAspectRatio="none" style="width:1304px;height:814px;background:#FFFFFF;" version="1.1" viewBox="0 0 1304 814" width="1304px" zoomAndPan="magnify"><defs/><g><!--entity customer--><g class="entity" data-entity="customer" data-source-line="1" data-uid="ent0002" id="entity_customer"><rect fill="#F1F1F1" height="36.2969" rx="2.5" ry="2.5" style="stroke:#181818;stroke-width:0.5;" width="88.0039" x="618.46" y="7"/><text fill="#000000" font-family="sans-serif" font-size="14" lengthAdjust="spacing" textLength="68.0039" x="628.46" y="29.9951">Customer</text></g><!--entity bank--><g class="entity" data-entity="bank" data-source-line="2" data-uid="ent0003" id="entity_bank"><rect fill="#F1F1F1" height="36.2969" rx="2.5" ry="2.5" style="stroke:#181818;stroke-width:0.5;" width="111.8203" x="603.55" y="771.89"/><text fill="#000000" font-family="sans-serif" font-size="14" lengthAdjust="spacing" textLength="91.8203" x="613.55" y="794.8851">Bank System</text></g><!--entity p1--><g class="entity" data-entity="p1" data-source-line="4" data-uid="ent0004" id="entity_p1"><ellipse cx="566.46" cy="129.3" fill="#F1F1F1" rx="8" ry="8" style="stroke:#181818;stroke-width:0.5;"/><text fill="#000000" font-family="sans-serif" font-size="14" lengthAdjust="spacing" textLength="8.9072" x="537.708" y="159.2951">1</text><text fill="#000000" font-family="sans-serif" font-size="14" lengthAdjust="spacing" textLength="57.5039" x="537.708" y="175.592">Validate</text><text fill="#000000" font-family="sans-serif" font-size="14" lengthAdjust="spacing" textLength="23.0439" x="537.708" y="191.8889">PIN</text></g><!--entity p2--><g class="entity" data-entity="p2" data-source-line="5" data-uid="ent0005" id="entity_p2"><ellipse cx="367.46" cy="355.6" fill="#F1F1F1" rx="8" ry="8" style="stroke:#181818;stroke-width:0.5;"/><text fill="#000000" font-family="sans-serif" font-size="14" lengthAdjust="spacing" textLength="8.9072" x="327.8423" y="385.5951">2</text><text fill="#000000" font-family="sans-serif" font-size="14" lengthAdjust="spacing" textLength="53.6621" x="327.8423" y="401.892">Process</text><text fill="#000000" font-family="sans-serif" font-size="14" lengthAdjust="spacing" textLength="79.2354" x="327.8423" y="418.1889">Withdrawal</text></g><!--entity p3--><g class="entity" data-entity="p3" data-source-line="6" data-uid="ent0006" id="entity_p3"><ellipse cx="869.46" cy="129.3" fill="#F1F1F1" rx="8" ry="8" style="stroke:#181818;stroke-width:0.5;"/><text fill="#000000" font-family="sans-serif" font-size="14" lengthAdjust="spacing" textLength="8.9072" x="842.6289" y="159.2951">3</text><text fill="#000000" font-family="sans-serif" font-size="14" lengthAdjust="spacing" textLength="53.6621" x="842.6289" y="175.592">Process</text><text fill="#000000" font-family="sans-serif" font-size="14" lengthAdjust="spacing" textLength="53.5186" x="842.6289" y="191.8889">Deposit</text></g><!--entity p4--><g class="entity" data-entity="p4" data-source-line="7" data-uid="ent0007" id="entity_p4"><ellipse cx="913.46" cy="355.6" fill="#F1F1F1" rx="8" ry="8" style="stroke:#181818;stroke-width:0.5;"/><text fill="#000000" font-family="sans-serif" font-size="14" lengthAdjust="spacing" textLength="8.9072" x="885.542" y="385.5951">4</text><text fill="#000000" font-family="sans-serif" font-size="14" lengthAdjust="spacing" textLength="43.0664" x="885.542" y="401.892">Check</text><text fill="#000000" font-family="sans-serif" font-size="14" lengthAdjust="spacing" textLength="55.8359" x="885.542" y="418.1889">Balance</text></g><!--entity p5--><g class="entity" data-entity="p5" data-source-line="8" data-uid="ent0008" id="entity_p5"><ellipse cx="659.46" cy="502.6" fill="#F1F1F1" rx="8" ry="8" style="stroke:#181818;stroke-width:0.5;"/><text fill="#000000" font-family="sans-serif" font-size="14" lengthAdjust="spacing" textLength="8.9072" x="618.3863" y="532.5951">5</text><text fill="#000000" font-family="sans-serif" font-size="14" lengthAdjust="spacing" textLength="25.252" x="618.3863" y="548.892">Log</text><text fill="#000000" font-family="sans-serif" font-size="14" lengthAdjust="spacing" textLength="82.1475" x="618.3863" y="565.1889">Transaction</text></g><!--entity db1--><g class="entity" data-entity="db1" data-source-line="10" data-uid="ent0009" id="entity_db1"><path d="M573.95,215.3 L614.95,215.3 A3.75,3.75 0 0 1 617.45,217.8 L624.45,236.3 L726.9734,236.3 A2.5,2.5 0 0 1 729.4734,238.8 L729.4734,267.0969 A2.5,2.5 0 0 1 726.9734,269.5969 L573.95,269.5969 A2.5,2.5 0 0 1 571.45,267.0969 L571.45,217.8 A2.5,2.5 0 0 1 573.95,215.3" fill="#F1F1F1" style="stroke:#181818;stroke-width:0.5;"/><line style="stroke:#181818;stroke-width:0.5;" x1="571.45" x2="624.45" y1="236.3" y2="236.3"/><text fill="#000000" font-family="sans-serif" font-size="14" lengthAdjust="spacing" textLength="128.0234" x="581.45" y="256.2951">Account Database</text></g><!--entity db2--><g class="entity" data-entity="db2" data-source-line="11" data-uid="ent0010" id="entity_db2"><path d="M591.04,640.6 L632.04,640.6 A3.75,3.75 0 0 1 634.54,643.1 L641.54,661.6 L727.8896,661.6 A2.5,2.5 0 0 1 730.3896,664.1 L730.3896,692.3969 A2.5,2.5 0 0 1 727.8896,694.8969 L591.04,694.8969 A2.5,2.5 0 0 1 588.54,692.3969 L588.54,643.1 A2.5,2.5 0 0 1 591.04,640.6" fill="#F1F1F1" style="stroke:#181818;stroke-width:0.5;"/><line style="stroke:#181818;stroke-width:0.5;" x1="588.54" x2="641.54" y1="661.6" y2="661.6"/><text fill="#000000" font-family="sans-serif" font-size="14" lengthAdjust="spacing" textLength="111.8496" x="598.54" y="681.5951">Transaction Log</text></g><!--link customer to p1--><g class="link" data-entity-1="customer" data-entity-2="p1" data-source-line="13" data-uid="lnk11" id="link_customer_p1"><path d="M618.37,31.05 C568.78,37.58 492.85,50.98 475.46,73.3 C451.41,104.17 523.6996,120.5414 551.2896,125.6314" fill="none" id="customer-to-p1" style="stroke:#181818;stroke-width:1;"/><polygon fill="#181818" points="557.19,126.72,549.0651,121.1536,552.273,125.8129,547.6137,129.0208,557.19,126.72" style="stroke:#181818;stroke-width:1;"/><text fill="#000000" font-family="sans-serif" font-size="13" lengthAdjust="spacing" textLength="69.2656" x="476.46" y="86.3669">card + PIN</text></g><!--link p1 to customer--><g class="link" data-entity-1="p1" data-entity-2="customer" data-source-line="16" data-uid="lnk14" id="link_p1_customer"><path d="M567.72,120 C569.84,108.44 575.06,87.34 586.46,73.3 C596.35,61.13 605.0455,54.1879 618.2755,46.6579" fill="none" id="p1-to-customer" style="stroke:#181818;stroke-width:1;"/><polygon fill="#181818" points="623.49,43.69,613.6896,44.6655,619.1445,46.1633,617.6468,51.6182,623.49,43.69" style="stroke:#181818;stroke-width:1;"/><text fill="#000000" font-family="sans-serif" font-size="13" lengthAdjust="spacing" textLength="105.1997" x="587.46" y="86.3669">validation result</text></g><!--link p1 to db1--><g class="link" data-entity-1="p1" data-entity-2="db1" data-source-line="14" data-uid="lnk12" id="link_p1_db1"><path d="M560.67,138.66 C553.64,149.93 543.76,170.3 552.46,185.3 C559.54,197.51 565.3591,204.0304 577.2991,211.7904" fill="none" id="p1-to-db1" style="stroke:#181818;stroke-width:1;"/><polygon fill="#181818" points="582.33,215.06,576.9635,206.8016,578.1376,212.3353,572.604,213.5095,582.33,215.06" style="stroke:#181818;stroke-width:1;"/><text fill="#000000" font-family="sans-serif" font-size="13" lengthAdjust="spacing" textLength="99.4614" x="553.46" y="181.3669">account lookup</text></g><!--link db1 to p1--><g class="link" data-entity-1="db1" data-entity-2="p1" data-source-line="15" data-uid="lnk13" id="link_db1_p1"><path d="M660.75,236.07 C664.76,221.18 666.51,181.89 657.46,168.3 C638.76,140.23 600.9205,133.4539 581.7205,131.5439" fill="none" id="db1-to-p1" style="stroke:#181818;stroke-width:1;"/><polygon fill="#181818" points="575.75,130.95,584.3098,135.8213,580.7254,131.445,585.1018,127.8606,575.75,130.95" style="stroke:#181818;stroke-width:1;"/><text fill="#000000" font-family="sans-serif" font-size="13" lengthAdjust="spacing" textLength="99.2329" x="663.46" y="181.3669">account details</text></g><!--link customer to p2--><g class="link" data-entity-1="customer" data-entity-2="p2" data-source-line="18" data-uid="lnk15" id="link_customer_p2"><path d="M618.29,28.16 C520.74,33.03 289.75,47.02 216.46,73.3 C144.29,99.18 108.8,100.79 72.46,168.3 C6,291.77 295.052,343.3535 352.122,352.2735" fill="none" id="customer-to-p2" style="stroke:#181818;stroke-width:1;"/><polygon fill="#181818" points="358.05,353.2,349.7757,347.8582,353.11,352.4279,348.5403,355.7622,358.05,353.2" style="stroke:#181818;stroke-width:1;"/><text fill="#000000" font-family="sans-serif" font-size="13" lengthAdjust="spacing" textLength="125.1885" x="73.46" y="181.3669">withdrawal request</text></g><!--link p2 to customer--><g class="link" data-entity-1="p2" data-entity-2="customer" data-source-line="22" data-uid="lnk19" id="link_p2_customer"><path d="M357.97,353.46 C340.09,350.76 301.76,342.12 285.46,316.6 C281.39,310.23 283,306.74 285.46,299.6 C327.06,178.88 354.91,142.13 462.46,73.3 C510.09,42.82 569.4336,32.5415 612.2736,28.7315" fill="none" id="p2-to-customer" style="stroke:#181818;stroke-width:1;"/><polygon fill="#181818" points="618.25,28.2,608.931,25.013,613.2697,28.6429,609.6397,32.9815,618.25,28.2" style="stroke:#181818;stroke-width:1;"/><text fill="#000000" font-family="sans-serif" font-size="13" lengthAdjust="spacing" textLength="94.7324" x="349.46" y="181.3669">cash + receipt</text></g><!--link p2 to db1--><g class="link" data-entity-1="p2" data-entity-2="db1" data-source-line="19" data-uid="lnk16" id="link_p2_db1"><path d="M358.13,351.89 C334.71,344.67 276.79,323.81 297.46,299.6 C331.96,259.18 472.2635,247.9136 565.3535,244.7536" fill="none" id="p2-to-db1" style="stroke:#181818;stroke-width:1;"/><polygon fill="#181818" points="571.35,244.55,562.2195,240.8576,566.3529,244.7196,562.4909,248.853,571.35,244.55" style="stroke:#181818;stroke-width:1;"/><text fill="#000000" font-family="sans-serif" font-size="13" lengthAdjust="spacing" textLength="93.374" x="298.46" y="312.6669">balance check</text></g><!--link db1 to p2--><g class="link" data-entity-1="db1" data-entity-2="p2" data-source-line="20" data-uid="lnk17" id="link_db1_p2"><path d="M617.31,269.96 C596.15,285.65 567.52,304.73 539.46,316.6 C480.59,341.49 409.1694,350.4547 382.7394,353.1347" fill="none" id="db1-to-p2" style="stroke:#181818;stroke-width:1;"/><polygon fill="#181818" points="376.77,353.74,386.1276,356.8116,381.7445,353.2356,385.3206,348.8525,376.77,353.74" style="stroke:#181818;stroke-width:1;"/><text fill="#000000" font-family="sans-serif" font-size="13" lengthAdjust="spacing" textLength="102.7241" x="572.46" y="312.6669">current balance</text></g><!--link p2 to db1--><g class="link" data-entity-1="p2" data-entity-2="db1" data-source-line="21" data-uid="lnk18" id="link_p2_db1"><path d="M374.41,346.13 C384.86,333.97 405.82,311.69 428.46,299.6 C472.64,275.99 521.2095,263.108 565.1395,255.008" fill="none" id="p2-to-db1-1" style="stroke:#181818;stroke-width:1;"/><polygon fill="#181818" points="571.04,253.92,561.4639,251.6183,566.1229,254.8266,562.9145,259.4856,571.04,253.92" style="stroke:#181818;stroke-width:1;"/><text fill="#000000" font-family="sans-serif" font-size="13" lengthAdjust="spacing" textLength="101.1182" x="429.46" y="312.6669">balance update</text></g><!--link p2 to p5--><g class="link" data-entity-1="p2" data-entity-2="p5" data-source-line="23" data-uid="lnk20" id="link_p2_p5"><path d="M376.85,361.26 C420.97,383.17 602.066,473.1017 645.166,494.5017" fill="none" id="p2-to-p5" style="stroke:#181818;stroke-width:1;"/><polygon fill="#181818" points="650.54,497.17,644.2578,489.5849,646.0616,494.9464,640.7001,496.7502,650.54,497.17" style="stroke:#181818;stroke-width:1;"/><text fill="#000000" font-family="sans-serif" font-size="13" lengthAdjust="spacing" textLength="120.8784" x="470.46" y="407.6669">transaction details</text></g><!--link customer to p3--><g class="link" data-entity-1="customer" data-entity-2="p3" data-source-line="25" data-uid="lnk21" id="link_customer_p3"><path d="M677.41,43.56 C690.74,58.05 711.49,78.19 733.46,90.3 C777.05,114.32 831.0819,123.3524 854.0419,126.3924" fill="none" id="customer-to-p3" style="stroke:#181818;stroke-width:1;"/><polygon fill="#181818" points="859.99,127.18,851.5929,122.0333,855.0333,126.5237,850.5428,129.9641,859.99,127.18" style="stroke:#181818;stroke-width:1;"/><text fill="#000000" font-family="sans-serif" font-size="13" lengthAdjust="spacing" textLength="102.229" x="734.46" y="86.3669">deposit amount</text></g><!--link p3 to customer--><g class="link" data-entity-1="p3" data-entity-2="customer" data-source-line="27" data-uid="lnk23" id="link_p3_customer"><path d="M867.49,119.84 C864.22,107.68 856.47,85.41 841.46,73.3 C802.94,42.23 751.9644,32.0338 712.6944,28.3938" fill="none" id="p3-to-customer" style="stroke:#181818;stroke-width:1;"/><polygon fill="#181818" points="706.72,27.84,715.3124,32.6536,711.6987,28.3015,716.0508,24.6877,706.72,27.84" style="stroke:#181818;stroke-width:1;"/><text fill="#000000" font-family="sans-serif" font-size="13" lengthAdjust="spacing" textLength="97.519" x="855.46" y="86.3669">deposit receipt</text></g><!--link p3 to db1--><g class="link" data-entity-1="p3" data-entity-2="db1" data-source-line="26" data-uid="lnk22" id="link_p3_db1"><path d="M860.13,135.85 C842.86,146.06 804.63,168.33 771.46,185.3 C751.67,195.43 735.1605,224.3416 715.4305,233.4216" fill="none" id="p3-to-db1" style="stroke:#181818;stroke-width:1;"/><polygon fill="#181818" points="709.98,235.93,719.828,235.8011,714.5221,233.8397,716.4835,228.5337,709.98,235.93" style="stroke:#181818;stroke-width:1;"/><text fill="#000000" font-family="sans-serif" font-size="13" lengthAdjust="spacing" textLength="101.1182" x="801.46" y="181.3669">balance update</text></g><!--link p3 to p5--><g class="link" data-entity-1="p3" data-entity-2="p5" data-source-line="28" data-uid="lnk24" id="link_p3_p5"><path d="M878.65,137.25 C908.63,160.83 1000.25,240.53 975.46,316.6 C930.55,454.41 720.9153,492.6115 674.2953,499.5115" fill="none" id="p3-to-p5" style="stroke:#181818;stroke-width:1;"/><polygon fill="#181818" points="668.36,500.39,677.8487,503.0292,673.3061,499.6579,676.6774,495.1154,668.36,500.39" style="stroke:#181818;stroke-width:1;"/><text fill="#000000" font-family="sans-serif" font-size="13" lengthAdjust="spacing" textLength="120.8784" x="979.46" y="312.6669">transaction details</text></g><!--link customer to p4--><g class="link" data-entity-1="customer" data-entity-2="p4" data-source-line="30" data-uid="lnk25" id="link_customer_p4"><path d="M706.93,28.75 C779.7,33.72 920.24,46.56 961.46,73.3 C1062.07,138.58 1074.39,184.6 1108.46,299.6 C1110.61,306.84 1113.26,310.77 1108.46,316.6 C1084.33,345.88 963.6553,352.6629 928.5053,354.0529" fill="none" id="customer-to-p4" style="stroke:#181818;stroke-width:1;"/><polygon fill="#181818" points="922.51,354.29,931.661,357.9313,927.5061,354.0924,931.3449,349.9375,922.51,354.29" style="stroke:#181818;stroke-width:1;"/><text fill="#000000" font-family="sans-serif" font-size="13" lengthAdjust="spacing" textLength="100.3057" x="1069.46" y="181.3669">balance inquiry</text></g><!--link p4 to customer--><g class="link" data-entity-1="p4" data-entity-2="customer" data-source-line="33" data-uid="lnk28" id="link_p4_customer"><path d="M922.94,354.24 C961.07,352.63 1102.75,344.82 1135.46,316.6 C1294.9,179.02 1205.42,213.02 1178.46,168.3 C1131.75,90.83 1084.54,101.11 998.46,73.3 C897.43,40.66 778.0833,30.8935 712.7633,27.8035" fill="none" id="p4-to-customer" style="stroke:#181818;stroke-width:1;"/><polygon fill="#181818" points="706.77,27.52,715.5709,31.9408,711.7644,27.7563,715.949,23.9497,706.77,27.52" style="stroke:#181818;stroke-width:1;"/><text fill="#000000" font-family="sans-serif" font-size="13" lengthAdjust="spacing" textLength="101.4736" x="1195.46" y="181.3669">balance display</text></g><!--link p4 to db1--><g class="link" data-entity-1="p4" data-entity-2="db1" data-source-line="31" data-uid="lnk26" id="link_p4_db1"><path d="M904.3,354.73 C875.27,354.76 783.47,351.9 719.46,316.6 C698.98,305.3 684.7089,290.5298 672.2589,274.4898" fill="none" id="p4-to-db1" style="stroke:#181818;stroke-width:1;"/><polygon fill="#181818" points="668.58,269.75,670.9386,279.3123,671.6458,273.6998,677.2583,274.407,668.58,269.75" style="stroke:#181818;stroke-width:1;"/><text fill="#000000" font-family="sans-serif" font-size="13" lengthAdjust="spacing" textLength="105.0156" x="720.46" y="312.6669">balance request</text></g><!--link db1 to p4--><g class="link" data-entity-1="db1" data-entity-2="p4" data-source-line="32" data-uid="lnk27" id="link_db1_p4"><path d="M729.81,262.96 C761.85,272.17 798.68,284.49 830.46,299.6 C859.19,313.25 884.772,331.9959 899.542,343.5359" fill="none" id="db1-to-p4" style="stroke:#181818;stroke-width:1;"/><polygon fill="#181818" points="904.27,347.23,899.6407,338.5369,900.33,344.1516,894.7153,344.8409,904.27,347.23" style="stroke:#181818;stroke-width:1;"/><text fill="#000000" font-family="sans-serif" font-size="13" lengthAdjust="spacing" textLength="107.104" x="859.46" y="312.6669">account balance</text></g><!--link p5 to db2--><g class="link" data-entity-1="p5" data-entity-2="db2" data-source-line="35" data-uid="lnk29" id="link_p5_db2"><path d="M659.46,511.47 C659.46,534.44 659.46,617.21 659.46,655.19" fill="none" id="p5-to-db2" style="stroke:#181818;stroke-width:1;"/><polygon fill="#181818" points="659.46,661.19,663.46,652.19,659.46,656.19,655.46,652.19,659.46,661.19" style="stroke:#181818;stroke-width:1;"/><text fill="#000000" font-family="sans-serif" font-size="13" lengthAdjust="spacing" textLength="119.6089" x="660.46" y="606.6669">transaction record</text></g><!--link db2 to bank--><g class="link" data-entity-1="db2" data-entity-2="bank" data-source-line="36" data-uid="lnk30" id="link_db2_bank"><path d="M659.46,695.14 C659.46,718.38 659.46,745.56 659.46,765.62" fill="none" id="db2-to-bank" style="stroke:#181818;stroke-width:1;"/><polygon fill="#181818" points="659.46,771.62,663.46,762.62,659.46,766.62,655.46,762.62,659.46,771.62" style="stroke:#181818;stroke-width:1;"/><text fill="#000000" font-family="sans-serif" font-size="13" lengthAdjust="spacing" textLength="62.9307" x="660.46" y="737.9569">audit trail</text></g><!--SRC=[bPC_JyCm4CLtVmehA-hG95qOa6Yx8264188bozKsrAfhf_v3rM_FEKuTgmKaHllzxkxTSs85yw0_bQ3LAZXlzi9M51nbuu7O2LY2tj6Na_DYFp0RF1F2f6LHdNVw3PJau4Mddn-U1gIVPxt6MskOSAxJxz9lkOKZg4JLcMeAQYrwuwHFI9EHjjEhhM2xJYz1WMOY0Mq65fr-D9-TVhMW7J0lZKx8Wf0FexYmjBfdp0JjwHeyRC2b7dmppq1HJB7RgDUuxvWCdStkS3zwIoi6bjCR6fScU1C5R1KL6CSeOtQXhqYydkhEAXSUf7AvE8z0vYjb6crOuOBorQM5EcB7d2XYXo0SSgWKLZOfBCfYTeMJePm5QmKw6Q7VQaCVdpUhfKy6ReiPuESYP3yDxnTHz4MOUTcBDPe8ylJa5FOn6EpI_6cZkR9nRZ3vQFxfeoqdINq8qfwmJVkJaHnrJhCjttLAixqoUcx1fUiLu0I25jE8-j8gBcCiZrDIgF776-O4ZgiYALNr3G00]--></g></svg>