<svg xmlns="http://www.w3.org/2000/svg" xmlns:xlink="http://www.w3.org/1999/xlink" contentStyleType="text/css" data-diagram-type="DESCRIPTION" height="475px" preserveAspectRatio="none" style="width:1022px;height:475px;background:#FFFFFF;" version="1.1" viewBox="0 0 1022 475" width="1022px" zoomAndPan="magnify"><defs/><g><!--entity customer--><g class="entity" data-entity="customer" data-source-line="1" data-uid="ent0002" id="entity_customer"><rect fill="#F1F1F1" height="36.2969" rx="2.5" ry="2.5" style="stroke:#181818;stroke-width:0.5;" width="88.0039" x="718.5" y="7"/><text fill="#000000" font-family="sans-serif" font-size="14" lengthAdjust="spacing" textLength="68.0039" x="728.5" y="29.9951">Customer</text></g><!--entity payment--><g class="entity" data-entity="payment" data-source-line="2" data-uid="ent0003" id="entity_payment"><rect fill="#F1F1F1" height="36.2969" rx="2.5" ry="2.5" style="stroke:#181818;stroke-width:0.5;" width="148.2148" x="41.4" y="258.14"/><text fill="#000000" font-family="sans-serif" font-size="14" lengthAdjust="spacing" textLength="128.2148" x="51.4" y="281.1351">Payment Gateway</text></g><!--entity p1--><g class="entity" data-entity="p1" data-source-line="4" data-uid="ent0004" id="entity_p1"><ellipse cx="604.5" cy="129.29" fill="#F1F1F1" rx="8" ry="8" style="stroke:#181818;stroke-width:0.5;"/><text fill="#000000" font-family="sans-serif" font-size="14" lengthAdjust="spacing" textLength="8.9072" x="577.6689" y="159.2851">1</text><text fill="#000000" font-family="sans-serif" font-size="14" lengthAdjust="spacing" textLength="53.6621" x="577.6689" y="175.582">Process</text><text fill="#000000" font-family="sans-serif" font-size="14" lengthAdjust="spacing" textLength="40.0313" x="577.6689" y="191.8789">Order</text></g><!--entity p2--><g class="entity" data-entity="p2" data-source-line="5" data-uid="ent0005" id="entity_p2"><ellipse cx="857.5" cy="276.29" fill="#F1F1F1" rx="8" ry="8" style="stroke:#181818;stroke-width:0.5;"/><text fill="#000000" font-family="sans-serif" font-size="14" lengthAdjust="spacing" textLength="8.9072" x="824.0654" y="306.2851">2</text><text fill="#000000" font-family="sans-serif" font-size="14" lengthAdjust="spacing" textLength="50.7021" x="824.0654" y="322.582">Update</text><text fill="#000000" font-family="sans-serif" font-size="14" lengthAdjust="spacing" textLength="66.8691" x="824.0654" y="338.8789">Inventory</text></g><!--entity p3--><g class="entity" data-entity="p3" data-source-line="6" data-uid="ent0006" id="entity_p3"><ellipse cx="982.5" cy="276.29" fill="#F1F1F1" rx="8" ry="8" style="stroke:#181818;stroke-width:0.5;"/><text fill="#000000" font-family="sans-serif" font-size="14" lengthAdjust="spacing" textLength="8.9072" x="949.8071" y="306.2851">3</text><text fill="#000000" font-family="sans-serif" font-size="14" lengthAdjust="spacing" textLength="65.3857" x="949.8071" y="322.582">Generate</text><text fill="#000000" font-family="sans-serif" font-size="14" lengthAdjust="spacing" textLength="50.0527" x="949.8071" y="338.8789">Invoice</text></g><!--entity db1--><g class="entity" data-entity="db1" data-source-line="8" data-uid="ent0007" id="entity_db1"><path d="M600.52,414.29 L641.52,414.29 A3.75,3.75 0 0 1 644.02,416.79 L651.02,435.29 L750.4809,435.29 A2.5,2.5 0 0 1 752.9809,437.79 L752.9809,466.0869 A2.5,2.5 0 0 1 750.4809,468.5869 L600.52,468.5869 A2.5,2.5 0 0 1 598.02,466.0869 L598.02,416.79 A2.5,2.5 0 0 1 600.52,414.29" fill="#F1F1F1" style="stroke:#181818;stroke-width:0.5;"/><line style="stroke:#181818;stroke-width:0.5;" x1="598.02" x2="651.02" y1="435.29" y2="435.29"/><text fill="#000000" font-family="sans-serif" font-size="14" lengthAdjust="spacing" textLength="124.9609" x="608.02" y="455.2851">Product Database</text></g><!--entity db2--><g class="entity" data-entity="db2" data-source-line="9" data-uid="ent0008" id="entity_db2"><path d="M466.36,249.14 L507.36,249.14 A3.75,3.75 0 0 1 509.86,251.64 L516.86,270.14 L602.6422,270.14 A2.5,2.5 0 0 1 605.1422,272.64 L605.1422,300.9369 A2.5,2.5 0 0 1 602.6422,303.4369 L466.36,303.4369 A2.5,2.5 0 0 1 463.86,300.9369 L463.86,251.64 A2.5,2.5 0 0 1 466.36,249.14" fill="#F1F1F1" style="stroke:#181818;stroke-width:0.5;"/><line style="stroke:#181818;stroke-width:0.5;" x1="463.86" x2="516.86" y1="270.14" y2="270.14"/><text fill="#000000" font-family="sans-serif" font-size="14" lengthAdjust="spacing" textLength="111.2822" x="473.86" y="290.1351">Order Database</text></g><!--link customer to p1--><g class="link" data-entity-1="customer" data-entity-2="p1" data-source-line="11" data-uid="lnk9" id="link_customer_p1"><path d="M735.34,43.7 C699.17,67.09 642.07,104.0144 618.74,119.0844" fill="none" id="customer-to-p1" style="stroke:#181818;stroke-width:1;"/><polygon fill="#181818" points="613.7,122.34,623.4303,120.8166,617.9,119.627,619.0896,114.0967,613.7,122.34" style="stroke:#181818;stroke-width:1;"/><text fill="#000000" font-family="sans-serif" font-size="13" lengthAdjust="spacing" textLength="82.3354" x="688.5" y="86.3569">order details</text></g><!--link p1 to db1--><g class="link" data-entity-1="p1" data-entity-2="db1" data-source-line="12" data-uid="lnk10" id="link_p1_db1"><path d="M613.62,134.42 C625.16,140.18 644.59,151.82 653.5,168.29 C697.15,248.97 688.239,378.2318 680.869,429.1818" fill="none" id="p1-to-db1" style="stroke:#181818;stroke-width:1;"/><polygon fill="#181818" points="680.01,435.12,685.2573,426.7854,680.7258,430.1715,677.3397,425.6401,680.01,435.12" style="stroke:#181818;stroke-width:1;"/><text fill="#000000" font-family="sans-serif" font-size="13" lengthAdjust="spacing" textLength="104.1206" x="686.5" y="280.8569">product request</text></g><!--link db1 to p1--><g class="link" data-entity-1="db1" data-entity-2="p1" data-source-line="13" data-uid="lnk11" id="link_db1_p1"><path d="M597.63,438.57 C524.53,432.16 418.82,409.91 366.5,337.29 C334.81,293.3 335.27,259.62 366.5,215.29 C422.11,136.39 551.91,130.3543 589.01,130.2043" fill="none" id="db1-to-p1" style="stroke:#181818;stroke-width:1;"/><polygon fill="#181818" points="595.01,130.18,585.9939,126.2164,590.01,130.2002,586.0262,134.2164,595.01,130.18" style="stroke:#181818;stroke-width:1;"/><text fill="#000000" font-family="sans-serif" font-size="13" lengthAdjust="spacing" textLength="78.7998" x="367.5" y="280.8569">product info</text></g><!--link p1 to p2--><g class="link" data-entity-1="p1" data-entity-2="p2" data-source-line="14" data-uid="lnk12" id="link_p1_p2"><path d="M613.78,134 C630.19,140.59 665.36,154.95 694.5,168.29 C705.21,173.2 779.72,208.73 789.5,215.29 C813.55,231.44 833.9615,251.0836 845.9015,263.2736" fill="none" id="p1-to-p2" style="stroke:#181818;stroke-width:1;"/><polygon fill="#181818" points="850.1,267.56,846.6599,258.3315,846.6013,263.988,840.9447,263.9294,850.1,267.56" style="stroke:#181818;stroke-width:1;"/><text fill="#000000" font-family="sans-serif" font-size="13" lengthAdjust="spacing" textLength="91.4189" x="730.5" y="181.3569">ordered items</text></g><!--link p2 to db1--><g class="link" data-entity-1="p2" data-entity-2="db1" data-source-line="15" data-uid="lnk13" id="link_p2_db1"><path d="M848.72,285.16 C823.09,308.14 751.9573,392.9046 709.5973,430.8846" fill="none" id="p2-to-db1" style="stroke:#181818;stroke-width:1;"/><polygon fill="#181818" points="705.13,434.89,714.5012,431.8601,708.8528,431.5522,709.1607,425.9037,705.13,434.89" style="stroke:#181818;stroke-width:1;"/><text fill="#000000" font-family="sans-serif" font-size="13" lengthAdjust="spacing" textLength="84.4365" x="756.5" y="380.3569">stock update</text></g><!--link p1 to db2--><g class="link" data-entity-1="p1" data-entity-2="db2" data-source-line="16" data-uid="lnk14" id="link_p1_db2"><path d="M595.05,137.44 C586.44,144.42 573.96,155.79 566.5,168.29 C551.5,193.44 544.2061,241.2505 539.8061,263.8605" fill="none" id="p1-to-db2" style="stroke:#181818;stroke-width:1;"/><polygon fill="#181818" points="538.66,269.75,544.3055,261.6798,539.6151,264.8421,536.4528,260.1516,538.66,269.75" style="stroke:#181818;stroke-width:1;"/><text fill="#000000" font-family="sans-serif" font-size="13" lengthAdjust="spacing" textLength="81.0659" x="567.5" y="181.3569">order record</text></g><!--link p1 to p3--><g class="link" data-entity-1="p1" data-entity-2="p3" data-source-line="17" data-uid="lnk15" id="link_p1_p3"><path d="M613.68,130.82 C644.6,132.79 747.55,141.15 827.5,168.29 C838.09,171.89 907.35,208.87 916.5,215.29 C939.83,231.66 959.5714,251.1653 971.1614,263.2753" fill="none" id="p1-to-p3" style="stroke:#181818;stroke-width:1;"/><polygon fill="#181818" points="975.31,267.61,971.977,258.3423,971.8529,263.9978,966.1974,263.8737,975.31,267.61" style="stroke:#181818;stroke-width:1;"/><text fill="#000000" font-family="sans-serif" font-size="13" lengthAdjust="spacing" textLength="100.3691" x="861.5" y="181.3569">order summary</text></g><!--link p3 to customer--><g class="link" data-entity-1="p3" data-entity-2="customer" data-source-line="18" data-uid="lnk16" id="link_p3_customer"><path d="M983.63,267.33 C985.86,248.55 989.1,200.62 969.5,168.29 C931.87,106.22 861.1232,67.1734 812.4132,45.7734" fill="none" id="p3-to-customer" style="stroke:#181818;stroke-width:1;"/><polygon fill="#181818" points="806.92,43.36,813.5509,50.6422,811.4977,45.3711,816.7688,43.3179,806.92,43.36" style="stroke:#181818;stroke-width:1;"/><text fill="#000000" font-family="sans-serif" font-size="13" lengthAdjust="spacing" textLength="46.2554" x="947.5" y="133.8569">invoice</text></g><!--link p1 to payment--><g class="link" data-entity-1="p1" data-entity-2="payment" data-source-line="19" data-uid="lnk17" id="link_p1_payment"><path d="M595.29,130.27 C542.67,130.29 280.03,132.2 209.5,168.29 C169.88,188.57 142.541,228.0577 128.001,252.7877" fill="none" id="p1-to-payment" style="stroke:#181818;stroke-width:1;"/><polygon fill="#181818" points="124.96,257.96,132.9697,252.229,127.4942,253.6498,126.0734,248.1743,124.96,257.96" style="stroke:#181818;stroke-width:1;"/><text fill="#000000" font-family="sans-serif" font-size="13" lengthAdjust="spacing" textLength="111.7441" x="210.5" y="181.3569">payment request</text></g><!--link payment to p1--><g class="link" data-entity-1="payment" data-entity-2="p1" data-source-line="20" data-uid="lnk18" id="link_payment_p1"><path d="M85.93,257.79 C52.47,235.88 6,197.69 33.5,168.29 C73.55,125.49 519.0304,129.2366 589.3204,130.0966" fill="none" id="payment-to-p1" style="stroke:#181818;stroke-width:1;"/><polygon fill="#181818" points="595.32,130.17,586.3696,126.0602,590.3204,130.1088,586.2717,134.0596,595.32,130.17" style="stroke:#181818;stroke-width:1;"/><text fill="#000000" font-family="sans-serif" font-size="13" lengthAdjust="spacing" textLength="144.4473" x="34.5" y="181.3569">payment confirmation</text></g><!--SRC=[NP6zRiGW48HxdWBHNs6xIv4caKwfSaqw6WxM4OfPd0KdkhVFOcDifSCptyx-cC1cWvyJIFMof1m3a98cILi_11t0pJm2O9PNa-7NF5PktZGXh2TRe4xZZQA5b3I-awjnSzU0NkF7x3X2unl-S6sa6jKtPj1u1GJQgUWjRCmWn1WdZkLnABh5PlbgihcRj07ktZLWRV_VxddKkfkyN9vvClaaLLnH1zduAId1Ol4uh9XpRKJmlK3AIXJzgDrjZsDifNFVOi59do6KsFuSoqFOBxcijpYrF0gveUN7aJaSLbf2C7mumMBnsavC-7gmLbV_MvcrFjigkt1QfoesukWfcEmZgZy0]--></g></svg>