<svg xmlns="http://www.w3.org/2000/svg" xmlns:xlink="http://www.w3.org/1999/xlink" contentStyleType="text/css" data-diagram-type="DESCRIPTION" height="692px" preserveAspectRatio="none" style="width:637px;height:692px;background:#FFFFFF;" version="1.1" viewBox="0 0 637 692" width="637px" zoomAndPan="magnify"><defs/><g><!--entity student--><g class="entity" data-entity="student" data-source-line="5" data-uid="ent0002" id="entity_student"><rect fill="#F1F1F1" height="36.2969" rx="2.5" ry="2.5" style="stroke:#181818;stroke-width:0.5;" width="75.1113" x="366.63" y="7"/><text fill="#000000" font-family="sans-serif" font-size="14" lengthAdjust="spacing" textLength="55.1113" x="376.63" y="29.9951">Student</text></g><!--entity teacher--><g class="entity" data-entity="teacher" data-source-line="6" data-uid="ent0003" id="entity_teacher"><rect fill="#F1F1F1" height="36.2969" rx="2.5" ry="2.5" style="stroke:#181818;stroke-width:0.5;" width="76.6836" x="551.85" y="319.3"/><text fill="#000000" font-family="sans-serif" font-size="14" lengthAdjust="spacing" textLength="56.6836" x="561.85" y="342.2951">Teacher</text></g><!--entity process1--><g class="entity" data-entity="process1" data-source-line="8" data-uid="ent0004" id="entity_process1"><ellipse cx="291.19" cy="181.3" fill="#F1F1F1" rx="8" ry="8" style="stroke:#181818;stroke-width:0.5;"/><text fill="#000000" font-family="sans-serif" font-size="14" lengthAdjust="spacing" textLength="8.9072" x="252.9737" y="211.2951">1</text><text fill="#000000" font-family="sans-serif" font-size="14" lengthAdjust="spacing" textLength="53.6621" x="252.9737" y="227.592">Process</text><text fill="#000000" font-family="sans-serif" font-size="14" lengthAdjust="spacing" textLength="76.4326" x="252.9737" y="243.8889">Enrollment</text></g><!--entity process2--><g class="entity" data-entity="process2" data-source-line="9" data-uid="ent0005" id="entity_process2"><ellipse cx="202.19" cy="337.44" fill="#F1F1F1" rx="8" ry="8" style="stroke:#181818;stroke-width:0.5;"/><text fill="#000000" font-family="sans-serif" font-size="14" lengthAdjust="spacing" textLength="8.9072" x="156.4849" y="367.4351">2</text><text fill="#000000" font-family="sans-serif" font-size="14" lengthAdjust="spacing" textLength="57.5039" x="156.4849" y="383.732">Validate</text><text fill="#000000" font-family="sans-serif" font-size="14" lengthAdjust="spacing" textLength="91.4102" x="156.4849" y="400.0289">Prerequisites</text></g><!--entity process3--><g class="entity" data-entity="process3" data-source-line="10" data-uid="ent0006" id="entity_process3"><ellipse cx="499.19" cy="493.59" fill="#F1F1F1" rx="8" ry="8" style="stroke:#181818;stroke-width:0.5;"/><text fill="#000000" font-family="sans-serif" font-size="14" lengthAdjust="spacing" textLength="8.9072" x="470.92" y="523.5851">3</text><text fill="#000000" font-family="sans-serif" font-size="14" lengthAdjust="spacing" textLength="50.7021" x="470.92" y="539.882">Update</text><text fill="#000000" font-family="sans-serif" font-size="14" lengthAdjust="spacing" textLength="56.54" x="470.92" y="556.1789">Records</text></g><!--entity db1--><g class="entity" data-entity="db1" data-source-line="12" data-uid="ent0007" id="entity_db1"><path d="M423.51,631.59 L464.51,631.59 A3.75,3.75 0 0 1 467.01,634.09 L474.01,652.59 L574.8723,652.59 A2.5,2.5 0 0 1 577.3723,655.09 L577.3723,683.3869 A2.5,2.5 0 0 1 574.8723,685.8869 L423.51,685.8869 A2.5,2.5 0 0 1 421.01,683.3869 L421.01,634.09 A2.5,2.5 0 0 1 423.51,631.59" fill="#F1F1F1" style="stroke:#181818;stroke-width:0.5;"/><line style="stroke:#181818;stroke-width:0.5;" x1="421.01" x2="474.01" y1="652.59" y2="652.59"/><text fill="#000000" font-family="sans-serif" font-size="14" lengthAdjust="spacing" textLength="126.3623" x="431.01" y="672.5851">Student Database</text></g><!--entity db2--><g class="entity" data-entity="db2" data-source-line="13" data-uid="ent0008" id="entity_db2"><path d="M38.63,466.44 L79.63,466.44 A3.75,3.75 0 0 1 82.13,468.94 L89.13,487.44 L183.7579,487.44 A2.5,2.5 0 0 1 186.2579,489.94 L186.2579,518.2369 A2.5,2.5 0 0 1 183.7579,520.7369 L38.63,520.7369 A2.5,2.5 0 0 1 36.13,518.2369 L36.13,468.94 A2.5,2.5 0 0 1 38.63,466.44" fill="#F1F1F1" style="stroke:#181818;stroke-width:0.5;"/><line style="stroke:#181818;stroke-width:0.5;" x1="36.13" x2="89.13" y1="487.44" y2="487.44"/><text fill="#000000" font-family="sans-serif" font-size="14" lengthAdjust="spacing" textLength="120.1279" x="46.13" y="507.4351">Course Database</text></g><!--link student to process1--><g class="link" data-entity-1="student" data-entity-2="process1" data-source-line="15" data-uid="lnk9" id="link_student_process1"><path d="M378.68,43.73 C368.07,51.89 356.16,62.22 347.19,73.3 C320.53,106.2 303.1976,148.1861 296.1776,166.7961" fill="none" id="student-to-process1" style="stroke:#181818;stroke-width:1;"/><polygon fill="#181818" points="294.06,172.41,300.9791,165.401,295.8247,167.7318,293.4939,162.5774,294.06,172.41" style="stroke:#181818;stroke-width:1;"/><text fill="#000000" font-family="sans-serif" font-size="13" lengthAdjust="spacing" textLength="124.5918" x="348.19" y="86.3669">enrollment request</text></g><!--link process1 to process2--><g class="link" data-entity-1="process1" data-entity-2="process2" data-source-line="16" data-uid="lnk10" id="link_process1_process2"><path d="M286.65,190.15 C271.49,216.41 225.6612,295.8046 210.0412,322.8446" fill="none" id="process1-to-process2" style="stroke:#181818;stroke-width:1;"/><polygon fill="#181818" points="207.04,328.04,215.0055,322.2476,209.541,323.7105,208.0782,318.246,207.04,328.04" style="stroke:#181818;stroke-width:1;"/><text fill="#000000" font-family="sans-serif" font-size="13" lengthAdjust="spacing" textLength="97.1382" x="240.19" y="285.3669">student details</text></g><!--link process2 to db2--><g class="link" data-entity-1="process2" data-entity-2="db2" data-source-line="17" data-uid="lnk11" id="link_process2_db2"><path d="M193.15,339.45 C160.29,343.32 48.05,358.37 27.19,385.59 C6,413.24 32.2386,441.0612 62.4186,462.6312" fill="none" id="process2-to-db2" style="stroke:#181818;stroke-width:1;"/><polygon fill="#181818" points="67.3,466.12,62.3037,457.6325,63.2322,463.2127,57.652,464.1411,67.3,466.12" style="stroke:#181818;stroke-width:1;"/><text fill="#000000" font-family="sans-serif" font-size="13" lengthAdjust="spacing" textLength="120.7134" x="28.19" y="398.6569">prerequisite check</text></g><!--link db2 to process2--><g class="link" data-entity-1="db2" data-entity-2="process2" data-source-line="18" data-uid="lnk12" id="link_db2_process2"><path d="M126.82,487.12 C147.86,451.47 181.139,374.0964 194.249,351.8964" fill="none" id="db2-to-process2" style="stroke:#181818;stroke-width:1;"/><polygon fill="#181818" points="197.3,346.73,189.2793,352.4456,194.7575,351.0353,196.1678,356.5136,197.3,346.73" style="stroke:#181818;stroke-width:1;"/><text fill="#000000" font-family="sans-serif" font-size="13" lengthAdjust="spacing" textLength="135.1479" x="174.19" y="398.6569">course requirements</text></g><!--link process2 to process3--><g class="link" data-entity-1="process2" data-entity-2="process3" data-source-line="19" data-uid="lnk13" id="link_process2_process3"><path d="M211.42,341.67 C231.32,348.73 279.62,366.49 318.19,385.59 C386.88,419.62 459.6589,466.5202 485.3989,483.4702" fill="none" id="process2-to-process3" style="stroke:#181818;stroke-width:1;"/><polygon fill="#181818" points="490.41,486.77,485.0933,478.4795,486.2341,484.0201,480.6935,485.161,490.41,486.77" style="stroke:#181818;stroke-width:1;"/><text fill="#000000" font-family="sans-serif" font-size="13" lengthAdjust="spacing" textLength="105.1997" x="349.19" y="398.6569">validation result</text></g><!--link process3 to db1--><g class="link" data-entity-1="process3" data-entity-2="db1" data-source-line="20" data-uid="lnk14" id="link_process3_db1"><path d="M499.19,502.46 C499.19,525.44 499.19,608.21 499.19,646.19" fill="none" id="process3-to-db1" style="stroke:#181818;stroke-width:1;"/><polygon fill="#181818" points="499.19,652.19,503.19,643.19,499.19,647.19,495.19,643.19,499.19,652.19" style="stroke:#181818;stroke-width:1;"/><text fill="#000000" font-family="sans-serif" font-size="13" lengthAdjust="spacing" textLength="128.9463" x="500.19" y="597.6569">updated enrollment</text></g><!--link process3 to student--><g class="link" data-entity-1="process3" data-entity-2="student" data-source-line="21" data-uid="lnk15" id="link_process3_student"><path d="M501.23,484.7 C512.23,440.25 561.02,218.07 477.19,73.3 C469.25,59.59 460.7774,52.1175 447.3774,44.6275" fill="none" id="process3-to-student" style="stroke:#181818;stroke-width:1;"/><polygon fill="#181818" points="442.14,41.7,448.0444,49.5828,446.5045,44.1395,451.9477,42.5996,442.14,41.7" style="stroke:#181818;stroke-width:1;"/><text fill="#000000" font-family="sans-serif" font-size="13" lengthAdjust="spacing" textLength="82.4053" x="526.19" y="285.3669">confirmation</text></g><!--link teacher to process3--><g class="link" data-entity-1="teacher" data-entity-2="process3" data-source-line="22" data-uid="lnk16" id="link_teacher_process3"><path d="M579.93,355.83 C560.22,389.21 520.8297,455.9329 506.8297,479.6529" fill="none" id="teacher-to-process3" style="stroke:#181818;stroke-width:1;"/><polygon fill="#181818" points="503.78,484.82,511.7993,479.1025,506.3214,480.5141,504.9099,475.0362,503.78,484.82" style="stroke:#181818;stroke-width:1;"/><text fill="#000000" font-family="sans-serif" font-size="13" lengthAdjust="spacing" textLength="57.04" x="561.19" y="398.6569">approval</text></g><!--SRC=[PP6xReCm58PtFyM9zmo1hKCbb31Kgf88QDLAI95Z7rghZg6swVCNcsl8Pkpl_9V3Hc0bDKBwKQJPCNczfCVYfVW4Wzmn_QMGR0RYd9tsQPu3buOlhWz9aLpoufIbKDLAe25ahKLprmhKZWApOFlp8rGWuzze0kJwCo6ZATsL-cngZjQMEjMcLkesAZRz_Mw6erA_CoK5S-Z7qE1lAwrqQ9S3qJmGb_gjwV4CUMt47HWJicWvje43S-pAB0PKN7TtqBvkZSKr4n4oz8VjzdbA3az0SIe5FYvQHydqle0Z3uyY0XsJoava5CZEnqFDeZXqw-G_bFYdjHZlemRMe4-m5XptuEc_Vh6orjs4RTKSCnxCGvqsh5F0N6l5ZHL205r9SmkYb0p__i6ODTrNvqx_0G00]--></g></svg>