<svg xmlns="http://www.w3.org/2000/svg" xmlns:xlink="http://www.w3.org/1999/xlink" contentStyleType="text/css" data-diagram-type="CLASS" height="572px" preserveAspectRatio="none" style="width:455px;height:572px;background:#FFFFFF;" version="1.1" viewBox="0 0 455 572" width="455px" zoomAndPan="magnify"><defs/><g><!--class Customer--><g class="entity" data-entity="Customer" data-source-line="1" data-uid="ent0002" id="entity_Customer"><rect fill="#F1F1F1" height="129.4844" rx="2.5" ry="2.5" style="stroke:#181818;stroke-width:0.5;" width="251.2031" x="122.43" y="7"/><ellipse cx="209.7796" cy="23" fill="#ADD1B2" rx="11" ry="11" style="stroke:#181818;stroke-width:1;"/><path d="M212.7484,28.6406 Q212.1702,28.9375 211.5296,29.0781 Q210.889,29.2344 210.1859,29.2344 Q207.6859,29.2344 206.3577,27.5938 Q205.0452,25.9375 205.0452,22.8125 Q205.0452,19.6875 206.3577,18.0313 Q207.6859,16.375 210.1859,16.375 Q210.889,16.375 211.5296,16.5313 Q212.1859,16.6875 212.7484,16.9844 L212.7484,19.7031 Q212.1234,19.125 211.5296,18.8594 Q210.9359,18.5781 210.3109,18.5781 Q208.9671,18.5781 208.2796,19.6563 Q207.5921,20.7188 207.5921,22.8125 Q207.5921,24.9063 208.2796,25.9844 Q208.9671,27.0469 210.3109,27.0469 Q210.9359,27.0469 211.5296,26.7813 Q212.1234,26.5 212.7484,25.9219 L212.7484,28.6406 Z " fill="#000000"/><text fill="#000000" font-family="sans-serif" font-size="14" lengthAdjust="spacing" textLength="68.0039" x="230.2796" y="27.8467">Customer</text><line style="stroke:#181818;stroke-width:0.5;" x1="123.43" x2="372.6331" y1="39" y2="39"/><rect fill="none" height="6" style="stroke:#C82930;stroke-width:1;" width="6" x="130.43" y="49.6484"/><text fill="#000000" font-family="sans-serif" font-size="14" lengthAdjust="spacing" textLength="135.0576" x="142.43" y="55.9951">customer_id: string</text><rect fill="none" height="6" style="stroke:#C82930;stroke-width:1;" width="6" x="130.43" y="65.9453"/><text fill="#000000" font-family="sans-serif" font-size="14" lengthAdjust="spacing" textLength="89.0586" x="142.43" y="72.292">name: string</text><rect fill="none" height="6" style="stroke:#C82930;stroke-width:1;" width="6" x="130.43" y="82.2422"/><text fill="#000000" font-family="sans-serif" font-size="14" lengthAdjust="spacing" textLength="87.9648" x="142.43" y="88.5889">email: string</text><line style="stroke:#181818;stroke-width:0.5;" x1="123.43" x2="372.6331" y1="95.8906" y2="95.8906"/><ellipse cx="133.43" cy="109.5391" fill="#84BE84" rx="3" ry="3" style="stroke:#038048;stroke-width:1;"/><text fill="#000000" font-family="sans-serif" font-size="14" lengthAdjust="spacing" textLength="225.2031" x="142.43" y="112.8857">place_order(cart: ShoppingCart)</text><ellipse cx="133.43" cy="125.8359" fill="#84BE84" rx="3" ry="3" style="stroke:#038048;stroke-width:1;"/><text fill="#000000" font-family="sans-serif" font-size="14" lengthAdjust="spacing" textLength="142.8916" x="142.43" y="129.1826">view_order_history()</text></g><!--class ShoppingCart--><g class="entity" data-entity="ShoppingCart" data-source-line="9" data-uid="ent0003" id="entity_ShoppingCart"><rect fill="#F1F1F1" height="129.4844" rx="2.5" ry="2.5" style="stroke:#181818;stroke-width:0.5;" width="246.0557" x="7" y="221.63"/><ellipse cx="78.104" cy="237.63" fill="#ADD1B2" rx="11" ry="11" style="stroke:#181818;stroke-width:1;"/><path d="M81.0728,243.2706 Q80.4946,243.5675 79.854,243.7081 Q79.2134,243.8644 78.5103,243.8644 Q76.0103,243.8644 74.6821,242.2238 Q73.3696,240.5675 73.3696,237.4425 Q73.3696,234.3175 74.6821,232.6613 Q76.0103,231.005 78.5103,231.005 Q79.2134,231.005 79.854,231.1613 Q80.5103,231.3175 81.0728,231.6144 L81.0728,234.3331 Q80.4478,233.755 79.854,233.4894 Q79.2603,233.2081 78.6353,233.2081 Q77.2915,233.2081 76.604,234.2863 Q75.9165,235.3488 75.9165,237.4425 Q75.9165,239.5363 76.604,240.6144 Q77.2915,241.6769 78.6353,241.6769 Q79.2603,241.6769 79.854,241.4113 Q80.4478,241.13 81.0728,240.5519 L81.0728,243.2706 Z " fill="#000000"/><text fill="#000000" font-family="sans-serif" font-size="14" lengthAdjust="spacing" textLength="95.3477" x="98.604" y="242.4767">ShoppingCart</text><line style="stroke:#181818;stroke-width:0.5;" x1="8" x2="252.0557" y1="253.63" y2="253.63"/><rect fill="none" height="6" style="stroke:#C82930;stroke-width:1;" width="6" x="15" y="264.2784"/><text fill="#000000" font-family="sans-serif" font-size="14" lengthAdjust="spacing" textLength="68.6533" x="27" y="270.6251">items: list</text><rect fill="none" height="6" style="stroke:#C82930;stroke-width:1;" width="6" x="15" y="280.5753"/><text fill="#000000" font-family="sans-serif" font-size="14" lengthAdjust="spacing" textLength="72.6318" x="27" y="286.922">total: float</text><line style="stroke:#181818;stroke-width:0.5;" x1="8" x2="252.0557" y1="294.2238" y2="294.2238"/><ellipse cx="18" cy="307.8722" fill="#84BE84" rx="3" ry="3" style="stroke:#038048;stroke-width:1;"/><text fill="#000000" font-family="sans-serif" font-size="14" lengthAdjust="spacing" textLength="192.9375" x="27" y="311.2189">add_item(product: Product)</text><ellipse cx="18" cy="324.1691" fill="#84BE84" rx="3" ry="3" style="stroke:#038048;stroke-width:1;"/><text fill="#000000" font-family="sans-serif" font-size="14" lengthAdjust="spacing" textLength="220.0557" x="27" y="327.5157">remove_item(product: Product)</text><ellipse cx="18" cy="340.4659" fill="#84BE84" rx="3" ry="3" style="stroke:#038048;stroke-width:1;"/><text fill="#000000" font-family="sans-serif" font-size="14" lengthAdjust="spacing" textLength="153.8633" x="27" y="343.8126">calculate_total(): float</text></g><!--class Product--><g class="entity" data-entity="Product" data-source-line="17" data-uid="ent0004" id="entity_Product"><rect fill="#F1F1F1" height="129.4844" rx="2.5" ry="2.5" style="stroke:#181818;stroke-width:0.5;" width="216.1895" x="139.93" y="436.27"/><ellipse cx="216.9197" cy="452.27" fill="#ADD1B2" rx="11" ry="11" style="stroke:#181818;stroke-width:1;"/><path d="M219.8885,457.9106 Q219.3104,458.2075 218.6697,458.3481 Q218.0291,458.5044 217.326,458.5044 Q214.826,458.5044 213.4979,456.8638 Q212.1854,455.2075 212.1854,452.0825 Q212.1854,448.9575 213.4979,447.3013 Q214.826,445.645 217.326,445.645 Q218.0291,445.645 218.6697,445.8013 Q219.326,445.9575 219.8885,446.2544 L219.8885,448.9731 Q219.2635,448.395 218.6697,448.1294 Q218.076,447.8481 217.451,447.8481 Q216.1072,447.8481 215.4197,448.9263 Q214.7322,449.9888 214.7322,452.0825 Q214.7322,454.1763 215.4197,455.2544 Q216.1072,456.3169 217.451,456.3169 Q218.076,456.3169 218.6697,456.0513 Q219.2635,455.77 219.8885,455.1919 L219.8885,457.9106 Z " fill="#000000"/><text fill="#000000" font-family="sans-serif" font-size="14" lengthAdjust="spacing" textLength="53.71" x="237.4197" y="457.1167">Product</text><line style="stroke:#181818;stroke-width:0.5;" x1="140.93" x2="355.1195" y1="468.27" y2="468.27"/><rect fill="none" height="6" style="stroke:#C82930;stroke-width:1;" width="6" x="147.93" y="478.9184"/><text fill="#000000" font-family="sans-serif" font-size="14" lengthAdjust="spacing" textLength="123.2861" x="159.93" y="485.2651">product_id: string</text><rect fill="none" height="6" style="stroke:#C82930;stroke-width:1;" width="6" x="147.93" y="495.2153"/><text fill="#000000" font-family="sans-serif" font-size="14" lengthAdjust="spacing" textLength="89.0586" x="159.93" y="501.562">name: string</text><rect fill="none" height="6" style="stroke:#C82930;stroke-width:1;" width="6" x="147.93" y="511.5122"/><text fill="#000000" font-family="sans-serif" font-size="14" lengthAdjust="spacing" textLength="75.4619" x="159.93" y="517.8589">price: float</text><rect fill="none" height="6" style="stroke:#C82930;stroke-width:1;" width="6" x="147.93" y="527.8091"/><text fill="#000000" font-family="sans-serif" font-size="14" lengthAdjust="spacing" textLength="129.9375" x="159.93" y="534.1557">stock_quantity: int</text><line style="stroke:#181818;stroke-width:0.5;" x1="140.93" x2="355.1195" y1="541.4575" y2="541.4575"/><ellipse cx="150.93" cy="555.1059" fill="#84BE84" rx="3" ry="3" style="stroke:#038048;stroke-width:1;"/><text fill="#000000" font-family="sans-serif" font-size="14" lengthAdjust="spacing" textLength="190.1895" x="159.93" y="558.4526">update_stock(quantity: int)</text></g><!--class Order--><g class="entity" data-entity="Order" data-source-line="25" data-uid="ent0005" id="entity_Order"><rect fill="#F1F1F1" height="145.7813" rx="2.5" ry="2.5" style="stroke:#181818;stroke-width:0.5;" width="160.3945" x="287.83" y="213.48"/><ellipse cx="343.7616" cy="229.48" fill="#ADD1B2" rx="11" ry="11" style="stroke:#181818;stroke-width:1;"/><path d="M346.7304,235.1206 Q346.1523,235.4175 345.5116,235.5581 Q344.871,235.7144 344.1679,235.7144 Q341.6679,235.7144 340.3398,234.0738 Q339.0273,232.4175 339.0273,229.2925 Q339.0273,226.1675 340.3398,224.5113 Q341.6679,222.855 344.1679,222.855 Q344.871,222.855 345.5116,223.0113 Q346.1679,223.1675 346.7304,223.4644 L346.7304,226.1831 Q346.1054,225.605 345.5116,225.3394 Q344.9179,225.0581 344.2929,225.0581 Q342.9491,225.0581 342.2616,226.1363 Q341.5741,227.1988 341.5741,229.2925 Q341.5741,231.3863 342.2616,232.4644 Q342.9491,233.5269 344.2929,233.5269 Q344.9179,233.5269 345.5116,233.2613 Q346.1054,232.98 346.7304,232.4019 L346.7304,235.1206 Z " fill="#000000"/><text fill="#000000" font-family="sans-serif" font-size="14" lengthAdjust="spacing" textLength="40.0313" x="364.2616" y="234.3267">Order</text><line style="stroke:#181818;stroke-width:0.5;" x1="288.83" x2="447.2245" y1="245.48" y2="245.48"/><rect fill="none" height="6" style="stroke:#C82930;stroke-width:1;" width="6" x="295.83" y="256.1284"/><text fill="#000000" font-family="sans-serif" font-size="14" lengthAdjust="spacing" textLength="106.709" x="307.83" y="262.4751">order_id: string</text><rect fill="none" height="6" style="stroke:#C82930;stroke-width:1;" width="6" x="295.83" y="272.4253"/><text fill="#000000" font-family="sans-serif" font-size="14" lengthAdjust="spacing" textLength="103.9336" x="307.83" y="278.772">date: datetime</text><rect fill="none" height="6" style="stroke:#C82930;stroke-width:1;" width="6" x="295.83" y="288.7222"/><text fill="#000000" font-family="sans-serif" font-size="14" lengthAdjust="spacing" textLength="92.374" x="307.83" y="295.0689">status: string</text><rect fill="none" height="6" style="stroke:#C82930;stroke-width:1;" width="6" x="295.83" y="305.0191"/><text fill="#000000" font-family="sans-serif" font-size="14" lengthAdjust="spacing" textLength="133.6494" x="307.83" y="311.3657">total_amount: float</text><line style="stroke:#181818;stroke-width:0.5;" x1="288.83" x2="447.2245" y1="318.6675" y2="318.6675"/><ellipse cx="298.83" cy="332.3159" fill="#84BE84" rx="3" ry="3" style="stroke:#038048;stroke-width:1;"/><text fill="#000000" font-family="sans-serif" font-size="14" lengthAdjust="spacing" textLength="134.3945" x="307.83" y="335.6626">process_payment()</text><ellipse cx="298.83" cy="348.6128" fill="#84BE84" rx="3" ry="3" style="stroke:#038048;stroke-width:1;"/><text fill="#000000" font-family="sans-serif" font-size="14" lengthAdjust="spacing" textLength="84.4443" x="307.83" y="351.9595">ship_order()</text></g><!--link Customer to Order--><g class="link" data-entity-1="Customer" data-entity-2="Order" data-source-line="34" data-uid="lnk6" id="link_Customer_Order"><path codeLine="34" d="M288.1229,143.7965 C301.7229,167.8865 304.4828,172.7843 318.4628,197.5543" fill="none" id="Customer-Order" style="stroke:#181818;stroke-width:1;"/><line style="stroke:#181818;stroke-width:1;" x1="282.6732" x2="289.6397" y1="142.2797" y2="138.3468"/><line style="stroke:#181818;stroke-width:1;" x1="284.1481" x2="291.1146" y1="144.8921" y2="140.9592"/><line style="stroke:#181818;stroke-width:1;" x1="288.1229" x2="284.19" y1="143.7965" y2="136.83"/><line style="stroke:#181818;stroke-width:1;" x1="323.3779" x2="332.5352" y1="206.263" y2="210.2809"/><line style="stroke:#181818;stroke-width:1;" x1="323.3779" x2="322.0848" y1="206.263" y2="216.1791"/><line style="stroke:#181818;stroke-width:1;" x1="323.3779" x2="327.31" y1="206.263" y2="213.23"/><ellipse cx="320.4288" cy="201.0378" fill="none" rx="4" ry="4" style="stroke:#181818;stroke-width:1;"/><text fill="#000000" font-family="sans-serif" font-size="13" lengthAdjust="spacing" textLength="41.7485" x="309.03" y="179.5469">places</text></g><!--link Customer to ShoppingCart--><g class="link" data-entity-1="Customer" data-entity-2="ShoppingCart" data-source-line="35" data-uid="lnk7" id="link_Customer_ShoppingCart"><path codeLine="35" d="M208.5784,143.8252 C193.7184,170.6052 184.2518,187.6649 169.4018,214.4249" fill="none" id="Customer-ShoppingCart" style="stroke:#181818;stroke-width:1;"/><line style="stroke:#181818;stroke-width:1;" x1="207.0216" x2="214.0168" y1="138.3868" y2="142.2684"/><line style="stroke:#181818;stroke-width:1;" x1="205.566" x2="212.5612" y1="141.01" y2="144.8916"/><line style="stroke:#181818;stroke-width:1;" x1="208.5784" x2="212.46" y1="143.8252" y2="136.83"/><line style="stroke:#181818;stroke-width:1;" x1="170.9585" x2="163.9634" y1="219.8634" y2="215.9815"/><line style="stroke:#181818;stroke-width:1;" x1="172.4141" x2="165.419" y1="217.2402" y2="213.3584"/><line style="stroke:#181818;stroke-width:1;" x1="169.4018" x2="165.52" y1="214.4249" y2="221.42"/><text fill="#000000" font-family="sans-serif" font-size="13" lengthAdjust="spacing" textLength="22.9785" x="194.03" y="179.5469">has</text></g><!--link ShoppingCart to Product--><g class="link" data-entity-1="ShoppingCart" data-entity-2="Product" data-source-line="36" data-uid="lnk8" id="link_ShoppingCart_Product"><path codeLine="36" d="M174.3236,367.1993 C189.1836,393.9793 188.9414,393.5535 203.8014,420.3135" fill="none" id="ShoppingCart-Product" style="stroke:#181818;stroke-width:1;"/><line style="stroke:#181818;stroke-width:1;" x1="169.4716" x2="160.3436" y1="358.4552" y2="354.3712"/><line style="stroke:#181818;stroke-width:1;" x1="169.4716" x2="170.8364" y1="358.4552" y2="348.5488"/><line style="stroke:#181818;stroke-width:1;" x1="169.4716" x2="165.59" y1="358.4552" y2="351.46"/><ellipse cx="172.3828" cy="363.7017" fill="none" rx="4" ry="4" style="stroke:#181818;stroke-width:1;"/><line style="stroke:#181818;stroke-width:1;" x1="208.6562" x2="217.7855" y1="429.056" y2="433.1371"/><line style="stroke:#181818;stroke-width:1;" x1="208.6562" x2="207.2945" y1="429.056" y2="438.9629"/><line style="stroke:#181818;stroke-width:1;" x1="208.6562" x2="212.54" y1="429.056" y2="436.05"/><ellipse cx="205.7433" cy="423.8105" fill="none" rx="4" ry="4" style="stroke:#181818;stroke-width:1;"/><text fill="#000000" font-family="sans-serif" font-size="13" lengthAdjust="spacing" textLength="55.0278" x="194.03" y="402.3369">contains</text></g><!--link Order to Product--><g class="link" data-entity-1="Order" data-entity-2="Product" data-source-line="37" data-uid="lnk9" id="link_Order_Product"><path codeLine="37" d="M318.3861,375.3375 C304.3961,400.1375 306.5242,396.3426 292.9342,420.4326" fill="none" id="Order-Product" style="stroke:#181818;stroke-width:1;"/><line style="stroke:#181818;stroke-width:1;" x1="323.2994" x2="322.0042" y1="366.6278" y2="356.712"/><line style="stroke:#181818;stroke-width:1;" x1="323.2994" x2="332.4558" y1="366.6278" y2="362.608"/><line style="stroke:#181818;stroke-width:1;" x1="323.2994" x2="327.23" y1="366.6278" y2="359.66"/><ellipse cx="320.3514" cy="371.8536" fill="none" rx="4" ry="4" style="stroke:#181818;stroke-width:1;"/><line style="stroke:#181818;stroke-width:1;" x1="288.0207" x2="289.3158" y1="429.1423" y2="439.0581"/><line style="stroke:#181818;stroke-width:1;" x1="288.0207" x2="278.8642" y1="429.1423" y2="433.1619"/><line style="stroke:#181818;stroke-width:1;" x1="288.0207" x2="284.09" y1="429.1423" y2="436.11"/><ellipse cx="290.9688" cy="423.9165" fill="none" rx="4" ry="4" style="stroke:#181818;stroke-width:1;"/><text fill="#000000" font-family="sans-serif" font-size="13" lengthAdjust="spacing" textLength="53.8726" x="309.03" y="402.3369">includes</text></g><!--SRC=[ZP9DReCm48NtdCBAYgZY0cnpW5Rg0QoHcHQh_gizJXM5tBs3CIWaKbKM2CQVvxrvjZAGaZZbHDvY5DT6yDC9LGjI3xr85BNxh2iEB3wKq88skzgB20OKIXy7ZAs2IBru7tq839puxrYfiyQV1PAZPiLuQO_DhMbKSNM_OtEc2MtgXM6yLiWJiFo7yK2rBmo3dC4sH3zanUfloySg7D7wC_xDA30g6o2KHQ4zhXgRmRfXyrOx_Ikq4BN2UzSThtlr9RypED9qwOLswpmv3BEF0hGxu2wkrpd7pSkIwfEJkKzVtgGjRi90EJsGPMW9rcT7-tHvJ8KfoG0NYuxQDR0qwb2FlDZQRjKqTPs_LeEzE9JBaGvxO9hs1yxS20pjYZTVEgt1CwEy8z2EmQNzCw6TCdbWlLy0]--></g></svg>