<svg xmlns="http://www.w3.org/2000/svg" xmlns:xlink="http://www.w3.org/1999/xlink" contentStyleType="text/css" data-diagram-type="CLASS" height="686px" preserveAspectRatio="none" style="width:627px;height:686px;background:#FFFFFF;" version="1.1" viewBox="0 0 627 686" width="627px" zoomAndPan="magnify"><defs/><g><!--class User--><g class="entity" data-entity="User" data-source-line="1" data-uid="ent0002" id="entity_User"><rect fill="#F1F1F1" height="178.375" rx="2.5" ry="2.5" style="stroke:#181818;stroke-width:0.5;" width="346.2432" x="7" y="7"/><ellipse cx="159.9165" cy="23" fill="#ADD1B2" rx="11" ry="11" style="stroke:#181818;stroke-width:1;"/><path d="M162.8853,28.6406 Q162.3071,28.9375 161.6665,29.0781 Q161.0259,29.2344 160.3228,29.2344 Q157.8228,29.2344 156.4946,27.5938 Q155.1821,25.9375 155.1821,22.8125 Q155.1821,19.6875 156.4946,18.0313 Q157.8228,16.375 160.3228,16.375 Q161.0259,16.375 161.6665,16.5313 Q162.3228,16.6875 162.8853,16.9844 L162.8853,19.7031 Q162.2603,19.125 161.6665,18.8594 Q161.0728,18.5781 160.4478,18.5781 Q159.104,18.5781 158.4165,19.6563 Q157.729,20.7188 157.729,22.8125 Q157.729,24.9063 158.4165,25.9844 Q159.104,27.0469 160.4478,27.0469 Q161.0728,27.0469 161.6665,26.7813 Q162.2603,26.5 162.8853,25.9219 L162.8853,28.6406 Z " fill="#000000"/><text fill="#000000" font-family="sans-serif" font-size="14" lengthAdjust="spacing" textLength="31.9102" x="180.4165" y="27.8467">User</text><line style="stroke:#181818;stroke-width:0.5;" x1="8" x2="352.2432" y1="39" y2="39"/><rect fill="none" height="6" style="stroke:#C82930;stroke-width:1;" width="6" x="15" y="49.6484"/><text fill="#000000" font-family="sans-serif" font-size="14" lengthAdjust="spacing" textLength="99.668" x="27" y="55.9951">user_id: string</text><rect fill="none" height="6" style="stroke:#C82930;stroke-width:1;" width="6" x="15" y="65.9453"/><text fill="#000000" font-family="sans-serif" font-size="14" lengthAdjust="spacing" textLength="119.5947" x="27" y="72.292">username: string</text><rect fill="none" height="6" style="stroke:#C82930;stroke-width:1;" width="6" x="15" y="82.2422"/><text fill="#000000" font-family="sans-serif" font-size="14" lengthAdjust="spacing" textLength="87.9648" x="27" y="88.5889">email: string</text><rect fill="none" height="6" style="stroke:#C82930;stroke-width:1;" width="6" x="15" y="98.5391"/><text fill="#000000" font-family="sans-serif" font-size="14" lengthAdjust="spacing" textLength="116.0674" x="27" y="104.8857">password: string</text><line style="stroke:#181818;stroke-width:0.5;" x1="8" x2="352.2432" y1="112.1875" y2="112.1875"/><ellipse cx="18" cy="125.8359" fill="#84BE84" rx="3" ry="3" style="stroke:#038048;stroke-width:1;"/><text fill="#000000" font-family="sans-serif" font-size="14" lengthAdjust="spacing" textLength="273.2939" x="27" y="129.1826">\_\_init\_\_(username, email, password)</text><ellipse cx="18" cy="142.1328" fill="#84BE84" rx="3" ry="3" style="stroke:#038048;stroke-width:1;"/><text fill="#000000" font-family="sans-serif" font-size="14" lengthAdjust="spacing" textLength="221.7373" x="27" y="145.4795">create_post(title, content): Post</text><ellipse cx="18" cy="158.4297" fill="#84BE84" rx="3" ry="3" style="stroke:#038048;stroke-width:1;"/><text fill="#000000" font-family="sans-serif" font-size="14" lengthAdjust="spacing" textLength="320.2432" x="27" y="161.7764">add_comment(post: Post, content): Comment</text><ellipse cx="18" cy="174.7266" fill="#84BE84" rx="3" ry="3" style="stroke:#038048;stroke-width:1;"/><text fill="#000000" font-family="sans-serif" font-size="14" lengthAdjust="spacing" textLength="224.3896" x="27" y="178.0732">login(email, password): boolean</text></g><!--class Post--><g class="entity" data-entity="Post" data-source-line="12" data-uid="ent0003" id="entity_Post"><rect fill="#F1F1F1" height="194.6719" rx="2.5" ry="2.5" style="stroke:#181818;stroke-width:0.5;" width="285.6016" x="256.32" y="262.38"/><ellipse cx="379.9753" cy="278.38" fill="#ADD1B2" rx="11" ry="11" style="stroke:#181818;stroke-width:1;"/><path d="M382.944,284.0206 Q382.3659,284.3175 381.7253,284.4581 Q381.0846,284.6144 380.3815,284.6144 Q377.8815,284.6144 376.5534,282.9738 Q375.2409,281.3175 375.2409,278.1925 Q375.2409,275.0675 376.5534,273.4113 Q377.8815,271.755 380.3815,271.755 Q381.0846,271.755 381.7253,271.9113 Q382.3815,272.0675 382.944,272.3644 L382.944,275.0831 Q382.319,274.505 381.7253,274.2394 Q381.1315,273.9581 380.5065,273.9581 Q379.1628,273.9581 378.4753,275.0363 Q377.7878,276.0988 377.7878,278.1925 Q377.7878,280.2863 378.4753,281.3644 Q379.1628,282.4269 380.5065,282.4269 Q381.1315,282.4269 381.7253,282.1613 Q382.319,281.88 382.944,281.3019 L382.944,284.0206 Z " fill="#000000"/><text fill="#000000" font-family="sans-serif" font-size="14" lengthAdjust="spacing" textLength="29.791" x="400.4753" y="283.2267">Post</text><line style="stroke:#181818;stroke-width:0.5;" x1="257.32" x2="540.9216" y1="294.38" y2="294.38"/><rect fill="none" height="6" style="stroke:#C82930;stroke-width:1;" width="6" x="264.32" y="305.0284"/><text fill="#000000" font-family="sans-serif" font-size="14" lengthAdjust="spacing" textLength="99.3672" x="276.32" y="311.3751">post_id: string</text><rect fill="none" height="6" style="stroke:#C82930;stroke-width:1;" width="6" x="264.32" y="321.3253"/><text fill="#000000" font-family="sans-serif" font-size="14" lengthAdjust="spacing" textLength="76.7266" x="276.32" y="327.672">title: string</text><rect fill="none" height="6" style="stroke:#C82930;stroke-width:1;" width="6" x="264.32" y="337.6222"/><text fill="#000000" font-family="sans-serif" font-size="14" lengthAdjust="spacing" textLength="102.9561" x="276.32" y="343.9689">content: string</text><rect fill="none" height="6" style="stroke:#C82930;stroke-width:1;" width="6" x="264.32" y="353.9191"/><text fill="#000000" font-family="sans-serif" font-size="14" lengthAdjust="spacing" textLength="164.5684" x="276.32" y="360.2657">date_created: datetime</text><rect fill="none" height="6" style="stroke:#C82930;stroke-width:1;" width="6" x="264.32" y="370.2159"/><text fill="#000000" font-family="sans-serif" font-size="14" lengthAdjust="spacing" textLength="87.2129" x="276.32" y="376.5626">author: User</text><line style="stroke:#181818;stroke-width:0.5;" x1="257.32" x2="540.9216" y1="383.8644" y2="383.8644"/><ellipse cx="267.32" cy="397.5128" fill="#84BE84" rx="3" ry="3" style="stroke:#038048;stroke-width:1;"/><text fill="#000000" font-family="sans-serif" font-size="14" lengthAdjust="spacing" textLength="224.8408" x="276.32" y="400.8595">\_\_init\_\_(title, content, author)</text><ellipse cx="267.32" cy="413.8097" fill="#84BE84" rx="3" ry="3" style="stroke:#038048;stroke-width:1;"/><text fill="#000000" font-family="sans-serif" font-size="14" lengthAdjust="spacing" textLength="255.0625" x="276.32" y="417.1564">add_comment(comment: Comment)</text><ellipse cx="267.32" cy="430.1066" fill="#84BE84" rx="3" ry="3" style="stroke:#038048;stroke-width:1;"/><text fill="#000000" font-family="sans-serif" font-size="14" lengthAdjust="spacing" textLength="187.9404" x="276.32" y="433.4532">edit_content(new_content)</text><ellipse cx="267.32" cy="446.4034" fill="#84BE84" rx="3" ry="3" style="stroke:#038048;stroke-width:1;"/><text fill="#000000" font-family="sans-serif" font-size="14" lengthAdjust="spacing" textLength="259.6016" x="276.32" y="449.7501">assign_category(category: Category)</text></g><!--class Comment--><g class="entity" data-entity="Comment" data-source-line="24" data-uid="ent0004" id="entity_Comment"><rect fill="#F1F1F1" height="145.7813" rx="2.5" ry="2.5" style="stroke:#181818;stroke-width:0.5;" width="253.7051" x="82.27" y="534.05"/><ellipse cx="170.5766" cy="550.05" fill="#ADD1B2" rx="11" ry="11" style="stroke:#181818;stroke-width:1;"/><path d="M173.5454,555.6906 Q172.9673,555.9875 172.3266,556.1281 Q171.686,556.2844 170.9829,556.2844 Q168.4829,556.2844 167.1548,554.6438 Q165.8423,552.9875 165.8423,549.8625 Q165.8423,546.7375 167.1548,545.0813 Q168.4829,543.425 170.9829,543.425 Q171.686,543.425 172.3266,543.5813 Q172.9829,543.7375 173.5454,544.0344 L173.5454,546.7531 Q172.9204,546.175 172.3266,545.9094 Q171.7329,545.6281 171.1079,545.6281 Q169.7641,545.6281 169.0766,546.7063 Q168.3891,547.7688 168.3891,549.8625 Q168.3891,551.9563 169.0766,553.0344 Q169.7641,554.0969 171.1079,554.0969 Q171.7329,554.0969 172.3266,553.8313 Q172.9204,553.55 173.5454,552.9719 L173.5454,555.6906 Z " fill="#000000"/><text fill="#000000" font-family="sans-serif" font-size="14" lengthAdjust="spacing" textLength="68.5918" x="191.0766" y="554.8967">Comment</text><line style="stroke:#181818;stroke-width:0.5;" x1="83.27" x2="334.9751" y1="566.05" y2="566.05"/><rect fill="none" height="6" style="stroke:#C82930;stroke-width:1;" width="6" x="90.27" y="576.6984"/><text fill="#000000" font-family="sans-serif" font-size="14" lengthAdjust="spacing" textLength="135.6455" x="102.27" y="583.0451">comment_id: string</text><rect fill="none" height="6" style="stroke:#C82930;stroke-width:1;" width="6" x="90.27" y="592.9953"/><text fill="#000000" font-family="sans-serif" font-size="14" lengthAdjust="spacing" textLength="102.9561" x="102.27" y="599.342">content: string</text><rect fill="none" height="6" style="stroke:#C82930;stroke-width:1;" width="6" x="90.27" y="609.2922"/><text fill="#000000" font-family="sans-serif" font-size="14" lengthAdjust="spacing" textLength="164.5684" x="102.27" y="615.6389">date_created: datetime</text><rect fill="none" height="6" style="stroke:#C82930;stroke-width:1;" width="6" x="90.27" y="625.5891"/><text fill="#000000" font-family="sans-serif" font-size="14" lengthAdjust="spacing" textLength="87.2129" x="102.27" y="631.9357">author: User</text><line style="stroke:#181818;stroke-width:0.5;" x1="83.27" x2="334.9751" y1="639.2375" y2="639.2375"/><ellipse cx="93.27" cy="652.8859" fill="#84BE84" rx="3" ry="3" style="stroke:#038048;stroke-width:1;"/><text fill="#000000" font-family="sans-serif" font-size="14" lengthAdjust="spacing" textLength="227.7051" x="102.27" y="656.2326">\_\_init\_\_(content, author, post)</text><ellipse cx="93.27" cy="669.1828" fill="#84BE84" rx="3" ry="3" style="stroke:#038048;stroke-width:1;"/><text fill="#000000" font-family="sans-serif" font-size="14" lengthAdjust="spacing" textLength="187.9404" x="102.27" y="672.5295">edit_content(new_content)</text></g><!--class Category--><g class="entity" data-entity="Category" data-source-line="33" data-uid="ent0005" id="entity_Category"><rect fill="#F1F1F1" height="129.4844" rx="2.5" ry="2.5" style="stroke:#181818;stroke-width:0.5;" width="232.377" x="387.93" y="31.45"/><ellipse cx="467.8934" cy="47.45" fill="#ADD1B2" rx="11" ry="11" style="stroke:#181818;stroke-width:1;"/><path d="M470.8621,53.0906 Q470.284,53.3875 469.6434,53.5281 Q469.0028,53.6844 468.2996,53.6844 Q465.7996,53.6844 464.4715,52.0438 Q463.159,50.3875 463.159,47.2625 Q463.159,44.1375 464.4715,42.4813 Q465.7996,40.825 468.2996,40.825 Q469.0028,40.825 469.6434,40.9813 Q470.2996,41.1375 470.8621,41.4344 L470.8621,44.1531 Q470.2371,43.575 469.6434,43.3094 Q469.0496,43.0281 468.4246,43.0281 Q467.0809,43.0281 466.3934,44.1063 Q465.7059,45.1688 465.7059,47.2625 Q465.7059,49.3563 466.3934,50.4344 Q467.0809,51.4969 468.4246,51.4969 Q469.0496,51.4969 469.6434,51.2313 Q470.2371,50.95 470.8621,50.3719 L470.8621,53.0906 Z " fill="#000000"/><text fill="#000000" font-family="sans-serif" font-size="14" lengthAdjust="spacing" textLength="63.9502" x="488.3934" y="52.2967">Category</text><line style="stroke:#181818;stroke-width:0.5;" x1="388.93" x2="619.307" y1="63.45" y2="63.45"/><rect fill="none" height="6" style="stroke:#C82930;stroke-width:1;" width="6" x="395.93" y="74.0984"/><text fill="#000000" font-family="sans-serif" font-size="14" lengthAdjust="spacing" textLength="131.0039" x="407.93" y="80.4451">category_id: string</text><rect fill="none" height="6" style="stroke:#C82930;stroke-width:1;" width="6" x="395.93" y="90.3953"/><text fill="#000000" font-family="sans-serif" font-size="14" lengthAdjust="spacing" textLength="89.0586" x="407.93" y="96.742">name: string</text><rect fill="none" height="6" style="stroke:#C82930;stroke-width:1;" width="6" x="395.93" y="106.6922"/><text fill="#000000" font-family="sans-serif" font-size="14" lengthAdjust="spacing" textLength="127.1963" x="407.93" y="113.0389">description: string</text><line style="stroke:#181818;stroke-width:0.5;" x1="388.93" x2="619.307" y1="120.3406" y2="120.3406"/><ellipse cx="398.93" cy="133.9891" fill="#84BE84" rx="3" ry="3" style="stroke:#038048;stroke-width:1;"/><text fill="#000000" font-family="sans-serif" font-size="14" lengthAdjust="spacing" textLength="206.377" x="407.93" y="137.3357">\_\_init\_\_(name, description)</text><ellipse cx="398.93" cy="150.2859" fill="#84BE84" rx="3" ry="3" style="stroke:#038048;stroke-width:1;"/><text fill="#000000" font-family="sans-serif" font-size="14" lengthAdjust="spacing" textLength="143.7051" x="407.93" y="153.6326">add_post(post: Post)</text></g><!--link User to Post--><g class="link" data-entity-1="User" data-entity-2="Post" data-source-line="41" data-uid="lnk6" id="link_User_Post"><path codeLine="41" d="M259.3962,191.8635 C279.9962,216.4635 285.7736,223.3596 306.7336,248.3896" fill="none" id="User-Post" style="stroke:#181818;stroke-width:1;"/><line style="stroke:#181818;stroke-width:1;" x1="253.7613" x2="259.8948" y1="191.3648" y2="186.2287"/><line style="stroke:#181818;stroke-width:1;" x1="255.6874" x2="261.8209" y1="193.6649" y2="188.5287"/><line style="stroke:#181818;stroke-width:1;" x1="259.3962" x2="254.26" y1="191.8635" y2="185.73"/><line style="stroke:#181818;stroke-width:1;" x1="313.1538" x2="322.8901" y1="256.0565" y2="258.3379"/><line style="stroke:#181818;stroke-width:1;" x1="313.1538" x2="313.6899" y1="256.0565" y2="266.0421"/><line style="stroke:#181818;stroke-width:1;" x1="313.1538" x2="318.29" y1="256.0565" y2="262.19"/><ellipse cx="309.3017" cy="251.4564" fill="none" rx="4" ry="4" style="stroke:#181818;stroke-width:1;"/><text fill="#000000" font-family="sans-serif" font-size="13" lengthAdjust="spacing" textLength="48.3247" x="291.12" y="228.4469">creates</text></g><!--link User to Comment--><g class="link" data-entity-1="User" data-entity-2="Comment" data-source-line="42" data-uid="lnk7" id="link_User_Comment"><path codeLine="42" d="M184.322,193.5818 C187.622,266.4418 192.39,364.49 198.12,457.05 C199.67,482.01 200.2673,491.3602 202.0873,515.6902" fill="none" id="User-Comment" style="stroke:#181818;stroke-width:1;"/><line style="stroke:#181818;stroke-width:1;" x1="180.1451" x2="188.1369" y1="189.7669" y2="189.4049"/><line style="stroke:#181818;stroke-width:1;" x1="180.2808" x2="188.2726" y1="192.7638" y2="192.4018"/><line style="stroke:#181818;stroke-width:1;" x1="184.322" x2="183.96" y1="193.5818" y2="185.59"/><line style="stroke:#181818;stroke-width:1;" x1="202.8332" x2="209.4133" y1="525.6623" y2="533.1924"/><line style="stroke:#181818;stroke-width:1;" x1="202.8332" x2="197.4467" y1="525.6623" y2="534.0876"/><line style="stroke:#181818;stroke-width:1;" x1="202.8332" x2="203.43" y1="525.6623" y2="533.64"/><ellipse cx="202.3857" cy="519.679" fill="none" rx="4" ry="4" style="stroke:#181818;stroke-width:1;"/><text fill="#000000" font-family="sans-serif" font-size="13" lengthAdjust="spacing" textLength="39.457" x="199.12" y="364.2769">writes</text></g><!--link Post to Comment--><g class="link" data-entity-1="Post" data-entity-2="Comment" data-source-line="43" data-uid="lnk8" id="link_Post_Comment"><path codeLine="43" d="M319.4009,463.6044 C299.6709,489.0744 294.6413,495.5486 276.1013,519.4886" fill="none" id="Post-Comment" style="stroke:#181818;stroke-width:1;"/><line style="stroke:#181818;stroke-width:1;" x1="318.6882" x2="325.0126" y1="457.9926" y2="462.8918"/><line style="stroke:#181818;stroke-width:1;" x1="316.851" x2="323.1755" y1="460.3643" y2="465.2634"/><line style="stroke:#181818;stroke-width:1;" x1="319.4009" x2="324.3" y1="463.6044" y2="457.28"/><line style="stroke:#181818;stroke-width:1;" x1="269.9783" x2="269.8238" y1="527.395" y2="537.3938"/><line style="stroke:#181818;stroke-width:1;" x1="269.9783" x2="260.3362" y1="527.395" y2="530.0462"/><line style="stroke:#181818;stroke-width:1;" x1="269.9783" x2="265.08" y1="527.395" y2="533.72"/><ellipse cx="273.6521" cy="522.6512" fill="none" rx="4" ry="4" style="stroke:#181818;stroke-width:1;"/><text fill="#000000" font-family="sans-serif" font-size="13" lengthAdjust="spacing" textLength="22.9785" x="300.12" y="500.1169">has</text></g><!--link Category to Post--><g class="link" data-entity-1="Category" data-entity-2="Post" data-source-line="44" data-uid="lnk9" id="link_Category_Post"><path codeLine="44" d="M475.4571,168.5931 C463.2771,198.9031 458.1639,211.645 444.6639,245.285" fill="none" id="Category-Post" style="stroke:#181818;stroke-width:1;"/><line style="stroke:#181818;stroke-width:1;" x1="473.237" x2="480.6601" y1="163.3901" y2="166.373"/><line style="stroke:#181818;stroke-width:1;" x1="472.1184" x2="479.5415" y1="166.1737" y2="169.1567"/><line style="stroke:#181818;stroke-width:1;" x1="475.4571" x2="478.44" y1="168.5931" y2="161.17"/><line style="stroke:#181818;stroke-width:1;" x1="440.9395" x2="443.5283" y1="254.5655" y2="264.2246"/><line style="stroke:#181818;stroke-width:1;" x1="440.9395" x2="432.3917" y1="254.5655" y2="259.7554"/><line style="stroke:#181818;stroke-width:1;" x1="440.9395" x2="437.96" y1="254.5655" y2="261.99"/><ellipse cx="443.1741" cy="248.9972" fill="none" rx="4" ry="4" style="stroke:#181818;stroke-width:1;"/><text fill="#000000" font-family="sans-serif" font-size="13" lengthAdjust="spacing" textLength="55.0278" x="456.12" y="228.4469">contains</text></g><!--SRC=[jLExRiGW4Epz5SWLLkmVS9iVI9Fk94GmygrammauMQUx_7juh5_OIggu0NQ6sTrXBGPkBVcqqf1dGVpNaBi_CEXQOfq1rM-YYeyo2ykHmv35RbvoqcQly4OkxC90WGihdUNgf50lbofa2oEva-ochQCEtE2PGYidbQjQyk6ZoEDTnuGUHm_GG4xWbloUKEGFkWT5ywGj-T9wa5mLtqKXeYT1Pl4aA1yzYNLbCSoRHRlGIsh9YuIJWr4YoE_kgaqRN-7CgttxDVAh4mDmNNgUER83n_0-LNAQzuk6jT0h9dnTlJOFEc-y4EwgrHZKNhp1f4Tx_i6Ap8CwFipVNQwrOpjhyHWuLdyox9sqmi3DWLQ_pNQQwmrv-rHneDT1ZRN5t-_rQXhzJ6FNaZ8vPCiTE5llySb0X2F_25-vnvPkSstl2mTbony0]--></g></svg>