<svg xmlns="http://www.w3.org/2000/svg" xmlns:xlink="http://www.w3.org/1999/xlink" contentStyleType="text/css" data-diagram-type="CLASS" height="589px" preserveAspectRatio="none" style="width:511px;height:589px;background:#FFFFFF;" version="1.1" viewBox="0 0 511 589" width="511px" zoomAndPan="magnify"><defs/><g><!--class School--><g class="entity" data-entity="School" data-source-line="1" data-uid="ent0002" id="entity_School"><rect fill="#F1F1F1" height="129.4844" rx="2.5" ry="2.5" style="stroke:#181818;stroke-width:0.5;" width="254.8262" x="59.5" y="7"/><ellipse cx="159.4243" cy="23" fill="#ADD1B2" rx="11" ry="11" style="stroke:#181818;stroke-width:1;"/><path d="M162.3931,28.6406 Q161.8149,28.9375 161.1743,29.0781 Q160.5337,29.2344 159.8306,29.2344 Q157.3306,29.2344 156.0024,27.5938 Q154.6899,25.9375 154.6899,22.8125 Q154.6899,19.6875 156.0024,18.0313 Q157.3306,16.375 159.8306,16.375 Q160.5337,16.375 161.1743,16.5313 Q161.8306,16.6875 162.3931,16.9844 L162.3931,19.7031 Q161.7681,19.125 161.1743,18.8594 Q160.5806,18.5781 159.9556,18.5781 Q158.6118,18.5781 157.9243,19.6563 Q157.2368,20.7188 157.2368,22.8125 Q157.2368,24.9063 157.9243,25.9844 Q158.6118,27.0469 159.9556,27.0469 Q160.5806,27.0469 161.1743,26.7813 Q161.7681,26.5 162.3931,25.9219 L162.3931,28.6406 Z " fill="#000000"/><text fill="#000000" font-family="sans-serif" font-size="14" lengthAdjust="spacing" textLength="46.4775" x="179.9243" y="27.8467">School</text><line style="stroke:#181818;stroke-width:0.5;" x1="60.5" x2="313.3262" y1="39" y2="39"/><rect fill="none" height="6" style="stroke:#C82930;stroke-width:1;" width="6" x="67.5" y="49.6484"/><text fill="#000000" font-family="sans-serif" font-size="14" lengthAdjust="spacing" textLength="89.0586" x="79.5" y="55.9951">name: string</text><rect fill="none" height="6" style="stroke:#C82930;stroke-width:1;" width="6" x="67.5" y="65.9453"/><text fill="#000000" font-family="sans-serif" font-size="14" lengthAdjust="spacing" textLength="104.665" x="79.5" y="72.292">address: string</text><line style="stroke:#181818;stroke-width:0.5;" x1="60.5" x2="313.3262" y1="79.5938" y2="79.5938"/><ellipse cx="70.5" cy="93.2422" fill="#84BE84" rx="3" ry="3" style="stroke:#038048;stroke-width:1;"/><text fill="#000000" font-family="sans-serif" font-size="14" lengthAdjust="spacing" textLength="183.8457" x="79.5" y="96.5889">\_\_init\_\_(name, address)</text><ellipse cx="70.5" cy="109.5391" fill="#84BE84" rx="3" ry="3" style="stroke:#038048;stroke-width:1;"/><text fill="#000000" font-family="sans-serif" font-size="14" lengthAdjust="spacing" textLength="228.8262" x="79.5" y="112.8857">enroll_student(student: Student)</text><ellipse cx="70.5" cy="125.8359" fill="#84BE84" rx="3" ry="3" style="stroke:#038048;stroke-width:1;"/><text fill="#000000" font-family="sans-serif" font-size="14" lengthAdjust="spacing" textLength="195.918" x="79.5" y="129.1826">add_course(course: Course)</text></g><!--class Student--><g class="entity" data-entity="Student" data-source-line="9" data-uid="ent0003" id="entity_Student"><rect fill="#F1F1F1" height="145.7813" rx="2.5" ry="2.5" style="stroke:#181818;stroke-width:0.5;" width="227.8311" x="7" y="436.27"/><ellipse cx="89.1099" cy="452.27" fill="#ADD1B2" rx="11" ry="11" style="stroke:#181818;stroke-width:1;"/><path d="M92.0786,457.9106 Q91.5005,458.2075 90.8599,458.3481 Q90.2192,458.5044 89.5161,458.5044 Q87.0161,458.5044 85.688,456.8638 Q84.3755,455.2075 84.3755,452.0825 Q84.3755,448.9575 85.688,447.3013 Q87.0161,445.645 89.5161,445.645 Q90.2192,445.645 90.8599,445.8013 Q91.5161,445.9575 92.0786,446.2544 L92.0786,448.9731 Q91.4536,448.395 90.8599,448.1294 Q90.2661,447.8481 89.6411,447.8481 Q88.2974,447.8481 87.6099,448.9263 Q86.9224,449.9888 86.9224,452.0825 Q86.9224,454.1763 87.6099,455.2544 Q88.2974,456.3169 89.6411,456.3169 Q90.2661,456.3169 90.8599,456.0513 Q91.4536,455.77 92.0786,455.1919 L92.0786,457.9106 Z " fill="#000000"/><text fill="#000000" font-family="sans-serif" font-size="14" lengthAdjust="spacing" textLength="55.1113" x="109.6099" y="457.1167">Student</text><line style="stroke:#181818;stroke-width:0.5;" x1="8" x2="233.8311" y1="468.27" y2="468.27"/><rect fill="none" height="6" style="stroke:#C82930;stroke-width:1;" width="6" x="15" y="478.9184"/><text fill="#000000" font-family="sans-serif" font-size="14" lengthAdjust="spacing" textLength="89.0586" x="27" y="485.2651">name: string</text><rect fill="none" height="6" style="stroke:#C82930;stroke-width:1;" width="6" x="15" y="495.2153"/><text fill="#000000" font-family="sans-serif" font-size="14" lengthAdjust="spacing" textLength="122.6504" x="27" y="501.562">student_id: string</text><rect fill="none" height="6" style="stroke:#C82930;stroke-width:1;" width="6" x="15" y="511.5122"/><text fill="#000000" font-family="sans-serif" font-size="14" lengthAdjust="spacing" textLength="77.7451" x="27" y="517.8589">grades: list</text><line style="stroke:#181818;stroke-width:0.5;" x1="8" x2="233.8311" y1="525.1606" y2="525.1606"/><ellipse cx="18" cy="538.8091" fill="#84BE84" rx="3" ry="3" style="stroke:#038048;stroke-width:1;"/><text fill="#000000" font-family="sans-serif" font-size="14" lengthAdjust="spacing" textLength="201.8311" x="27" y="542.1557">\_\_init\_\_(name, student_id)</text><ellipse cx="18" cy="555.1059" fill="#84BE84" rx="3" ry="3" style="stroke:#038048;stroke-width:1;"/><text fill="#000000" font-family="sans-serif" font-size="14" lengthAdjust="spacing" textLength="166.3389" x="27" y="558.4526">add_grade(grade: float)</text><ellipse cx="18" cy="571.4028" fill="#84BE84" rx="3" ry="3" style="stroke:#038048;stroke-width:1;"/><text fill="#000000" font-family="sans-serif" font-size="14" lengthAdjust="spacing" textLength="138.8447" x="27" y="574.7495">get_average(): float</text></g><!--class Course--><g class="entity" data-entity="Course" data-source-line="18" data-uid="ent0004" id="entity_Course"><rect fill="#F1F1F1" height="145.7813" rx="2.5" ry="2.5" style="stroke:#181818;stroke-width:0.5;" width="254.8262" x="200.5" y="213.49"/><ellipse cx="299.2246" cy="229.49" fill="#ADD1B2" rx="11" ry="11" style="stroke:#181818;stroke-width:1;"/><path d="M302.1934,235.1306 Q301.6152,235.4275 300.9746,235.5681 Q300.334,235.7244 299.6309,235.7244 Q297.1309,235.7244 295.8027,234.0837 Q294.4902,232.4275 294.4902,229.3025 Q294.4902,226.1775 295.8027,224.5212 Q297.1309,222.865 299.6309,222.865 Q300.334,222.865 300.9746,223.0212 Q301.6309,223.1775 302.1934,223.4744 L302.1934,226.1931 Q301.5684,225.615 300.9746,225.3494 Q300.3809,225.0681 299.7559,225.0681 Q298.4121,225.0681 297.7246,226.1462 Q297.0371,227.2087 297.0371,229.3025 Q297.0371,231.3962 297.7246,232.4744 Q298.4121,233.5369 299.7559,233.5369 Q300.3809,233.5369 300.9746,233.2712 Q301.5684,232.99 302.1934,232.4119 L302.1934,235.1306 Z " fill="#000000"/><text fill="#000000" font-family="sans-serif" font-size="14" lengthAdjust="spacing" textLength="48.877" x="319.7246" y="234.3367">Course</text><line style="stroke:#181818;stroke-width:0.5;" x1="201.5" x2="454.3262" y1="245.49" y2="245.49"/><rect fill="none" height="6" style="stroke:#C82930;stroke-width:1;" width="6" x="208.5" y="256.1384"/><text fill="#000000" font-family="sans-serif" font-size="14" lengthAdjust="spacing" textLength="142.8574" x="220.5" y="262.4851">course_name: string</text><rect fill="none" height="6" style="stroke:#C82930;stroke-width:1;" width="6" x="208.5" y="272.4353"/><text fill="#000000" font-family="sans-serif" font-size="14" lengthAdjust="spacing" textLength="136.917" x="220.5" y="278.782">course_code: string</text><rect fill="none" height="6" style="stroke:#C82930;stroke-width:1;" width="6" x="208.5" y="288.7322"/><text fill="#000000" font-family="sans-serif" font-size="14" lengthAdjust="spacing" textLength="119.4717" x="220.5" y="295.0789">teacher: Teacher</text><line style="stroke:#181818;stroke-width:0.5;" x1="201.5" x2="454.3262" y1="302.3806" y2="302.3806"/><ellipse cx="211.5" cy="316.0291" fill="#84BE84" rx="3" ry="3" style="stroke:#038048;stroke-width:1;"/><text fill="#000000" font-family="sans-serif" font-size="14" lengthAdjust="spacing" textLength="224.8203" x="220.5" y="319.3757">\_\_init\_\_(name, code, teacher)</text><ellipse cx="211.5" cy="332.3259" fill="#84BE84" rx="3" ry="3" style="stroke:#038048;stroke-width:1;"/><text fill="#000000" font-family="sans-serif" font-size="14" lengthAdjust="spacing" textLength="228.8262" x="220.5" y="335.6726">enroll_student(student: Student)</text><ellipse cx="211.5" cy="348.6228" fill="#84BE84" rx="3" ry="3" style="stroke:#038048;stroke-width:1;"/><text fill="#000000" font-family="sans-serif" font-size="14" lengthAdjust="spacing" textLength="171.917" x="220.5" y="351.9695">get_enrolled_count(): int</text></g><!--class Teacher--><g class="entity" data-entity="Teacher" data-source-line="27" data-uid="ent0005" id="entity_Teacher"><rect fill="#F1F1F1" height="129.4844" rx="2.5" ry="2.5" style="stroke:#181818;stroke-width:0.5;" width="234.8174" x="269.51" y="444.42"/><ellipse cx="354.3269" cy="460.42" fill="#ADD1B2" rx="11" ry="11" style="stroke:#181818;stroke-width:1;"/><path d="M357.2956,466.0606 Q356.7175,466.3575 356.0769,466.4981 Q355.4363,466.6544 354.7331,466.6544 Q352.2331,466.6544 350.905,465.0137 Q349.5925,463.3575 349.5925,460.2325 Q349.5925,457.1075 350.905,455.4512 Q352.2331,453.795 354.7331,453.795 Q355.4363,453.795 356.0769,453.9512 Q356.7331,454.1075 357.2956,454.4044 L357.2956,457.1231 Q356.6706,456.545 356.0769,456.2794 Q355.4831,455.9981 354.8581,455.9981 Q353.5144,455.9981 352.8269,457.0762 Q352.1394,458.1387 352.1394,460.2325 Q352.1394,462.3262 352.8269,463.4044 Q353.5144,464.4669 354.8581,464.4669 Q355.4831,464.4669 356.0769,464.2012 Q356.6706,463.92 357.2956,463.3419 L357.2956,466.0606 Z " fill="#000000"/><text fill="#000000" font-family="sans-serif" font-size="14" lengthAdjust="spacing" textLength="56.6836" x="374.8269" y="465.2667">Teacher</text><line style="stroke:#181818;stroke-width:0.5;" x1="270.51" x2="503.3274" y1="476.42" y2="476.42"/><rect fill="none" height="6" style="stroke:#C82930;stroke-width:1;" width="6" x="277.51" y="487.0684"/><text fill="#000000" font-family="sans-serif" font-size="14" lengthAdjust="spacing" textLength="89.0586" x="289.51" y="493.4151">name: string</text><rect fill="none" height="6" style="stroke:#C82930;stroke-width:1;" width="6" x="277.51" y="503.3653"/><text fill="#000000" font-family="sans-serif" font-size="14" lengthAdjust="spacing" textLength="138.2363" x="289.51" y="509.712">employee_id: string</text><rect fill="none" height="6" style="stroke:#C82930;stroke-width:1;" width="6" x="277.51" y="519.6622"/><text fill="#000000" font-family="sans-serif" font-size="14" lengthAdjust="spacing" textLength="100.0986" x="289.51" y="526.0089">subject: string</text><line style="stroke:#181818;stroke-width:0.5;" x1="270.51" x2="503.3274" y1="533.3106" y2="533.3106"/><ellipse cx="280.51" cy="546.9591" fill="#84BE84" rx="3" ry="3" style="stroke:#038048;stroke-width:1;"/><text fill="#000000" font-family="sans-serif" font-size="14" lengthAdjust="spacing" textLength="200.9561" x="289.51" y="550.3057">\_\_init\_\_(name, id, subject)</text><ellipse cx="280.51" cy="563.2559" fill="#84BE84" rx="3" ry="3" style="stroke:#038048;stroke-width:1;"/><text fill="#000000" font-family="sans-serif" font-size="14" lengthAdjust="spacing" textLength="208.8174" x="289.51" y="566.6026">teach_course(course: Course)</text></g><!--link School to Student--><g class="link" data-entity-1="School" data-entity-2="Student" data-source-line="35" data-uid="lnk6" id="link_School_Student"><path codeLine="35" d="M157.6313,144.383 C148.9713,168.053 143.01,187.86 137.92,213.49 C123.02,288.37 119.7609,357.9101 119.5909,418.0001" fill="none" id="School-Student" style="stroke:#181818;stroke-width:1;"/><line style="stroke:#181818;stroke-width:1;" x1="155.2492" x2="162.7621" y1="139.2521" y2="142.0008"/><line style="stroke:#181818;stroke-width:1;" x1="154.2184" x2="161.7313" y1="142.0695" y2="144.8182"/><line style="stroke:#181818;stroke-width:1;" x1="157.6313" x2="160.38" y1="144.383" y2="136.87"/><line style="stroke:#181818;stroke-width:1;" x1="119.5626" x2="125.54" y1="428" y2="436.017"/><line style="stroke:#181818;stroke-width:1;" x1="119.5626" x2="113.54" y1="428" y2="435.983"/><line style="stroke:#181818;stroke-width:1;" x1="119.5626" x2="119.54" y1="428" y2="436"/><ellipse cx="119.5796" cy="422.0001" fill="none" rx="4" ry="4" style="stroke:#181818;stroke-width:1;"/><text fill="#000000" font-family="sans-serif" font-size="13" lengthAdjust="spacing" textLength="43.5322" x="138.92" y="290.9469">enrolls</text></g><!--link School to Course--><g class="link" data-entity-1="School" data-entity-2="Course" data-source-line="36" data-uid="lnk7" id="link_School_Course"><path codeLine="36" d="M233.8323,143.4966 C249.8123,167.5866 253.7031,173.458 270.1331,198.238" fill="none" id="School-Course" style="stroke:#181818;stroke-width:1;"/><line style="stroke:#181818;stroke-width:1;" x1="228.2878" x2="234.9544" y1="142.3744" y2="137.9522"/><line style="stroke:#181818;stroke-width:1;" x1="229.9462" x2="236.6128" y1="144.8744" y2="140.4521"/><line style="stroke:#181818;stroke-width:1;" x1="233.8323" x2="229.41" y1="143.4966" y2="136.83"/><line style="stroke:#181818;stroke-width:1;" x1="275.6592" x2="285.0807" y1="206.5724" y2="209.9244"/><line style="stroke:#181818;stroke-width:1;" x1="275.6592" x2="275.0793" y1="206.5724" y2="216.5556"/><line style="stroke:#181818;stroke-width:1;" x1="275.6592" x2="280.08" y1="206.5724" y2="213.24"/><ellipse cx="272.3436" cy="201.5718" fill="none" rx="4" ry="4" style="stroke:#181818;stroke-width:1;"/><text fill="#000000" font-family="sans-serif" font-size="13" lengthAdjust="spacing" textLength="37.2227" x="257.92" y="179.5569">offers</text></g><!--link Course to Teacher--><g class="link" data-entity-1="Course" data-entity-2="Teacher" data-source-line="37" data-uid="lnk8" id="link_Course_Teacher"><path codeLine="37" d="M351.8814,377.0586 C359.1814,404.3486 360.7056,410.0609 367.7756,436.5309" fill="none" id="Course-Teacher" style="stroke:#181818;stroke-width:1;"/><line style="stroke:#181818;stroke-width:1;" x1="349.2973" x2="341.4338" y1="367.3983" y2="361.2205"/><line style="stroke:#181818;stroke-width:1;" x1="349.2973" x2="353.0262" y1="367.3983" y2="358.1195"/><line style="stroke:#181818;stroke-width:1;" x1="349.2973" x2="347.23" y1="367.3983" y2="359.67"/><ellipse cx="350.8478" cy="373.1945" fill="none" rx="4" ry="4" style="stroke:#181818;stroke-width:1;"/><line style="stroke:#181818;stroke-width:1;" x1="372.6723" x2="364.9433" y1="439.3633" y2="441.4277"/><line style="stroke:#181818;stroke-width:1;" x1="371.8982" x2="364.1691" y1="436.4649" y2="438.5293"/><line style="stroke:#181818;stroke-width:1;" x1="367.7756" x2="369.84" y1="436.5309" y2="444.26"/><text fill="#000000" font-family="sans-serif" font-size="13" lengthAdjust="spacing" textLength="62.9688" x="359.92" y="402.3369">taught by</text></g><!--link Course to Student--><g class="link" data-entity-1="Course" data-entity-2="Student" data-source-line="38" data-uid="lnk9" id="link_Course_Student"><path codeLine="38" d="M247.8255,372.7983 C224.8255,397.3183 223.7841,398.4513 200.8041,422.9513" fill="none" id="Course-Student" style="stroke:#181818;stroke-width:1;"/><line style="stroke:#181818;stroke-width:1;" x1="254.6669" x2="255.7639" y1="365.5048" y2="355.5652"/><line style="stroke:#181818;stroke-width:1;" x1="254.6669" x2="264.5161" y1="365.5048" y2="363.7748"/><line style="stroke:#181818;stroke-width:1;" x1="254.6669" x2="260.14" y1="365.5048" y2="359.67"/><ellipse cx="250.5621" cy="369.8809" fill="none" rx="4" ry="4" style="stroke:#181818;stroke-width:1;"/><line style="stroke:#181818;stroke-width:1;" x1="193.963" x2="192.8662" y1="430.245" y2="440.1847"/><line style="stroke:#181818;stroke-width:1;" x1="193.963" x2="184.1138" y1="430.245" y2="431.9753"/><line style="stroke:#181818;stroke-width:1;" x1="193.963" x2="188.49" y1="430.245" y2="436.08"/><ellipse cx="198.0677" cy="425.8688" fill="none" rx="4" ry="4" style="stroke:#181818;stroke-width:1;"/><text fill="#000000" font-family="sans-serif" font-size="13" lengthAdjust="spacing" textLength="68.9927" x="230.92" y="402.3369">enrolled in</text></g><!--SRC=[bLB1ZeCW4Btx5HDFcjKVuDfFw1wR40gZqb3O06xIrFxxeg1jtTRDSc38p7lmtZ1SCUTWppjZ55mp2Ai6pSv8m7ahTPjIJ0YBpZrbF-103rHgwSTOZAng1fO9WTeQfQZplK3jYnG9xEDXXWKMvQQt3eiO2EocM6QtBEDHPAHigKpNKobMXTOoWK6zaiw_rtwdF-gQkCMq4sYKOOlg5ZrbtsXPYqMPQdUzqS0YD_gYBrId2ZTYNV78U8UMm6Syl9S-agiP_y_cZpOY5ATV2D3WHke7B-dzhTxZ-KkP2-Blvhl-U4Bk_vuTAQePF6kR76sCHfhSOQXhSrr6X40U3RbyXKYV4W2cQT26UihSJ5qFms8q03phsyx3yVA4UVKAYj2j_0S0]--></g></svg>