<svg xmlns="http://www.w3.org/2000/svg" xmlns:xlink="http://www.w3.org/1999/xlink" contentStyleType="text/css" data-diagram-type="DESCRIPTION" height="257px" preserveAspectRatio="none" style="width:588px;height:257px;background:#FFFFFF;" version="1.1" viewBox="0 0 588 257" width="588px" zoomAndPan="magnify"><defs/><g><!--entity student--><g class="entity" data-entity="student" data-source-line="1" data-uid="ent0002" id="entity_student"><rect fill="#F1F1F1" height="36.2969" rx="2.5" ry="2.5" style="stroke:#181818;stroke-width:0.5;" width="75.1113" x="225.55" y="7"/><text fill="#000000" font-family="sans-serif" font-size="14" lengthAdjust="spacing" textLength="55.1113" x="235.55" y="29.9951">Student</text></g><!--entity teacher--><g class="entity" data-entity="teacher" data-source-line="2" data-uid="ent0003" id="entity_teacher"><rect fill="#F1F1F1" height="36.2969" rx="2.5" ry="2.5" style="stroke:#181818;stroke-width:0.5;" width="76.6836" x="52.77" y="215.29"/><text fill="#000000" font-family="sans-serif" font-size="14" lengthAdjust="spacing" textLength="56.6836" x="62.77" y="238.2851">Teacher</text></g><!--entity admin--><g class="entity" data-entity="admin" data-source-line="3" data-uid="ent0004" id="entity_admin"><rect fill="#F1F1F1" height="36.2969" rx="2.5" ry="2.5" style="stroke:#181818;stroke-width:0.5;" width="115.6826" x="372.27" y="215.29"/><text fill="#000000" font-family="sans-serif" font-size="14" lengthAdjust="spacing" textLength="95.6826" x="382.27" y="238.2851">Administrator</text></g><!--entity system--><g class="entity" data-entity="system" data-source-line="5" data-uid="ent0005" id="entity_system"><ellipse cx="263.11" cy="129.29" fill="#F1F1F1" rx="8" ry="8" style="stroke:#181818;stroke-width:0.5;"/><text fill="#000000" font-family="sans-serif" font-size="14" lengthAdjust="spacing" textLength="48.9521" x="216.9982" y="159.2851">Library</text><text fill="#000000" font-family="sans-serif" font-size="14" lengthAdjust="spacing" textLength="92.2236" x="216.9982" y="175.582">Management</text><text fill="#000000" font-family="sans-serif" font-size="14" lengthAdjust="spacing" textLength="52.2061" x="216.9982" y="191.8789">System</text></g><!--link student to system--><g class="link" data-entity-1="student" data-entity-2="system" data-source-line="7" data-uid="lnk6" id="link_student_system"><path d="M225.18,40.79 C201.5,52.31 177.68,69.81 190.11,90.29 C204.19,113.5 231.7111,121.9427 247.9911,125.4027" fill="none" id="student-to-system" style="stroke:#181818;stroke-width:1;"/><polygon fill="#181818" points="253.86,126.65,245.8882,120.8664,248.9692,125.6106,244.2251,128.6916,253.86,126.65" style="stroke:#181818;stroke-width:1;"/><text fill="#000000" font-family="sans-serif" font-size="13" lengthAdjust="spacing" textLength="99.3154" x="191.11" y="86.3569">borrow request</text></g><!--link system to student--><g class="link" data-entity-1="system" data-entity-2="student" data-source-line="8" data-uid="lnk7" id="link_system_student"><path d="M272.43,120.67 C280.17,113.7 290.61,102.61 295.11,90.29 C297.7,83.2 297.33,80.52 295.11,73.29 C291.79,62.51 288.748,56.736 282.318,48.376" fill="none" id="system-to-student" style="stroke:#181818;stroke-width:1;"/><polygon fill="#181818" points="278.66,43.62,280.9763,53.1926,281.7083,47.5833,287.3176,48.3153,278.66,43.62" style="stroke:#181818;stroke-width:1;"/><text fill="#000000" font-family="sans-serif" font-size="13" lengthAdjust="spacing" textLength="108.7798" x="297.11" y="86.3569">book + due date</text></g><!--link teacher to system--><g class="link" data-entity-1="teacher" data-entity-2="system" data-source-line="9" data-uid="lnk8" id="link_teacher_system"><path d="M108.56,214.83 C123.2,200.8 145.18,181.41 167.11,168.29 C196.64,150.63 230.1189,139.7661 247.8889,134.5961" fill="none" id="teacher-to-system" style="stroke:#181818;stroke-width:1;"/><polygon fill="#181818" points="253.65,132.92,243.8909,131.5935,248.8491,134.3168,246.1257,139.275,253.65,132.92" style="stroke:#181818;stroke-width:1;"/><text fill="#000000" font-family="sans-serif" font-size="13" lengthAdjust="spacing" textLength="146.9482" x="168.11" y="181.3569">book recommendation</text></g><!--link system to teacher--><g class="link" data-entity-1="system" data-entity-2="teacher" data-source-line="10" data-uid="lnk9" id="link_system_teacher"><path d="M253.62,130.23 C212.68,130.17 51.93,132.26 21.11,168.29 C6,185.96 23.4546,200.8368 46.9646,213.1468" fill="none" id="system-to-teacher" style="stroke:#181818;stroke-width:1;"/><polygon fill="#181818" points="52.28,215.93,46.1623,208.2116,47.8505,213.6107,42.4514,215.2988,52.28,215.93" style="stroke:#181818;stroke-width:1;"/><text fill="#000000" font-family="sans-serif" font-size="13" lengthAdjust="spacing" textLength="114.772" x="22.11" y="181.3569">availability status</text></g><!--link admin to system--><g class="link" data-entity-1="admin" data-entity-2="system" data-source-line="11" data-uid="lnk10" id="link_admin_system"><path d="M450.49,214.99 C463.89,201.41 476.93,182.55 465.11,168.29 C440.05,138.08 314.8768,131.926 278.4768,130.736" fill="none" id="admin-to-system" style="stroke:#181818;stroke-width:1;"/><polygon fill="#181818" points="272.48,130.54,281.3445,134.8319,277.4773,130.7034,281.6059,126.8362,272.48,130.54" style="stroke:#181818;stroke-width:1;"/><text fill="#000000" font-family="sans-serif" font-size="13" lengthAdjust="spacing" textLength="110.1318" x="470.11" y="181.3569">new book details</text></g><!--link system to admin--><g class="link" data-entity-1="system" data-entity-2="admin" data-source-line="12" data-uid="lnk11" id="link_system_admin"><path d="M272.45,136.33 C288.31,146.56 321.59,167.88 350.11,185.29 C366.48,195.29 379.7398,203.1525 394.7798,211.9425" fill="none" id="system-to-admin" style="stroke:#181818;stroke-width:1;"/><polygon fill="#181818" points="399.96,214.97,394.2081,206.9753,395.6432,212.4471,390.1714,213.8822,399.96,214.97" style="stroke:#181818;stroke-width:1;"/><text fill="#000000" font-family="sans-serif" font-size="13" lengthAdjust="spacing" textLength="105.9932" x="351.11" y="181.3569">inventory report</text></g><!--SRC=[PO-_RW8n3CRtF8ML5V427IgnjnCTMNmN2opkdDRnWUxjQv8W2jsiVB_lJvH6GpbE175lIoAn25YWj3leG_uY74-aLRPs_vLtQMRXOegM6uItbn16rl46VF2WgEj1Fb7mIBF77sI_5gEvLTOpX5uDs-rxVuCtY4DMpLTG-bceM0nTgL0tL2gVOGDf8KXe54CV-Y_CCT-UPr_X86TvIhox7CKByeG3JsohDw4j9ORwivTCeIlKt4Jcbl8Ks0nEiLnyQjRLwx-pMlm5]--></g></svg>