<svg xmlns="http://www.w3.org/2000/svg" xmlns:xlink="http://www.w3.org/1999/xlink" contentStyleType="text/css" data-diagram-type="DESCRIPTION" height="454px" preserveAspectRatio="none" style="width:832px;height:454px;background:#FFFFFF;" version="1.1" viewBox="0 0 832 454" width="832px" zoomAndPan="magnify"><defs/><g><!--entity Battery--><g class="entity" data-entity="Battery" data-source-line="6" data-uid="ent0002" id="entity_Battery"><rect fill="#F1F1F1" height="52.5938" rx="2.5" ry="2.5" style="stroke:#181818;stroke-width:0.5;" width="79.1992" x="308.6" y="7"/><text fill="#000000" font-family="sans-serif" font-size="14" lengthAdjust="spacing" textLength="51.8164" x="318.6" y="29.9951">Battery</text><text fill="#000000" font-family="sans-serif" font-size="14" lengthAdjust="spacing" textLength="59.1992" x="318.6" y="46.292">12V 2Ah</text></g><!--entity VReg--><g class="entity" data-entity="VReg" data-source-line="7" data-uid="ent0003" id="entity_VReg"><rect fill="#F1F1F1" height="52.5938" rx="2.5" ry="2.5" style="stroke:#181818;stroke-width:0.5;" width="146.4307" x="494.99" y="136.6"/><text fill="#000000" font-family="sans-serif" font-size="14" lengthAdjust="spacing" textLength="126.4307" x="504.99" y="159.5951">Voltage Regulator</text><text fill="#000000" font-family="sans-serif" font-size="14" lengthAdjust="spacing" textLength="66.5068" x="504.99" y="175.892">12V &#8594; 5V</text></g><!--entity MCU--><g class="entity" data-entity="MCU" data-source-line="8" data-uid="ent0004" id="entity_MCU"><rect fill="#F1F1F1" height="52.5938" rx="2.5" ry="2.5" style="stroke:#181818;stroke-width:0.5;" width="125.082" x="324.66" y="266.19"/><text fill="#000000" font-family="sans-serif" font-size="14" lengthAdjust="spacing" textLength="105.082" x="334.66" y="289.1851">Microcontroller</text><text fill="#000000" font-family="sans-serif" font-size="14" lengthAdjust="spacing" textLength="18.4844" x="334.66" y="305.482">5V</text></g><!--entity Servo--><g class="entity" data-entity="Servo" data-source-line="9" data-uid="ent0005" id="entity_Servo"><rect fill="#F1F1F1" height="52.5938" rx="2.5" ry="2.5" style="stroke:#181818;stroke-width:0.5;" width="105.0117" x="111.7" y="395.79"/><text fill="#000000" font-family="sans-serif" font-size="14" lengthAdjust="spacing" textLength="85.0117" x="121.7" y="418.7851">Servo Motor</text><text fill="#000000" font-family="sans-serif" font-size="14" lengthAdjust="spacing" textLength="18.4844" x="121.7" y="435.082">6V</text></g><!--entity Sensor--><g class="entity" data-entity="Sensor" data-source-line="10" data-uid="ent0006" id="entity_Sensor"><rect fill="#F1F1F1" height="52.5938" rx="2.5" ry="2.5" style="stroke:#181818;stroke-width:0.5;" width="142.7188" x="544.84" y="395.79"/><text fill="#000000" font-family="sans-serif" font-size="14" lengthAdjust="spacing" textLength="122.7188" x="554.84" y="418.7851">Ultrasonic Sensor</text><text fill="#000000" font-family="sans-serif" font-size="14" lengthAdjust="spacing" textLength="18.4844" x="554.84" y="435.082">5V</text></g><g class="entity" data-entity="GMN16" data-source-line="25" data-uid="ent0017" id="entity_GMN16"><path d="M423.1,13.17 L423.1,29.3 L388.05,33.3 L423.1,37.3 L423.1,53.4356 A0,0 0 0 0 423.1,53.4356 L573.3002,53.4356 A0,0 0 0 0 573.3002,53.4356 L573.3002,23.17 L563.3002,13.17 L423.1,13.17 A0,0 0 0 0 423.1,13.17" fill="#FAFAFA" style="stroke:#181818;stroke-width:0.5;"/><path d="M563.3002,13.17 L563.3002,23.17 L573.3002,23.17 L563.3002,13.17" fill="#FAFAFA" style="stroke:#181818;stroke-width:0.5;"/><text fill="#000000" font-family="sans-serif" font-size="13" lengthAdjust="spacing" textLength="56.1641" x="429.1" y="30.2369">Fuse: 3A</text><text fill="#000000" font-family="sans-serif" font-size="13" lengthAdjust="spacing" textLength="129.2002" x="429.1" y="45.3697">Safety margin: 20%</text></g><!--link Battery to VReg--><g class="link" data-entity-1="Battery" data-entity-2="VReg" data-source-line="12" data-uid="lnk7" id="link_Battery_VReg"><path d="M388.3,57.56 C426.6,79.77 478.9997,110.16 518.6597,133.16" fill="none" id="Battery-to-VReg" style="stroke:#181818;stroke-width:1;"/><polygon fill="#181818" points="523.85,136.17,518.0712,128.1947,519.5247,133.6616,514.0578,135.1152,523.85,136.17" style="stroke:#181818;stroke-width:1;"/><text fill="#000000" font-family="sans-serif" font-size="13" lengthAdjust="spacing" textLength="96.7129" x="472.2" y="102.6669">12V (Red wire)</text></g><!--link Battery to Servo--><g class="link" data-entity-1="Battery" data-entity-2="Servo" data-source-line="13" data-uid="lnk8" id="link_Battery_Servo"><path d="M308.14,37.5 C263.57,42.64 190.93,55.88 138.2,89.6 C75.28,129.84 56.47,148.9 31.2,219.19 C6,289.3 74.9205,355.6097 122.4805,391.9097" fill="none" id="Battery-to-Servo" style="stroke:#181818;stroke-width:1;"/><polygon fill="#181818" points="127.25,395.55,122.5226,386.9099,123.2754,392.5164,117.6689,393.2692,127.25,395.55" style="stroke:#181818;stroke-width:1;"/><text fill="#000000" font-family="sans-serif" font-size="13" lengthAdjust="spacing" textLength="88.4419" x="32.2" y="232.2569">6V (Red wire)</text></g><!--link Battery to Servo--><g class="link" data-entity-1="Battery" data-entity-2="Servo" data-source-line="18" data-uid="lnk12" id="link_Battery_Servo"><path d="M334.03,60.07 C314.67,95.56 279.15,161.64 251.2,219.19 C223.64,275.96 217.84,290.69 193.2,348.79 C186.66,364.22 181.8568,376.0906 176.3668,389.9706" fill="none" id="Battery-to-Servo-1" style="stroke:#181818;stroke-width:1;"/><polygon fill="#181818" points="174.16,395.55,181.1899,388.6521,175.999,390.9005,173.7507,385.7097,174.16,395.55" style="stroke:#181818;stroke-width:1;"/><text fill="#000000" font-family="sans-serif" font-size="13" lengthAdjust="spacing" textLength="110.9761" x="252.2" y="232.2569">GND (Black wire)</text></g><!--link VReg to MCU--><g class="link" data-entity-1="VReg" data-entity-2="MCU" data-source-line="14" data-uid="lnk9" id="link_VReg_MCU"><path d="M532.01,189.41 C500.55,211.59 460.0843,240.1134 428.5443,262.3434" fill="none" id="VReg-to-MCU" style="stroke:#181818;stroke-width:1;"/><polygon fill="#181818" points="423.64,265.8,433.3008,263.8846,427.7269,262.9195,428.692,257.3456,423.64,265.8" style="stroke:#181818;stroke-width:1;"/><text fill="#000000" font-family="sans-serif" font-size="13" lengthAdjust="spacing" textLength="88.4419" x="489.2" y="232.2569">5V (Red wire)</text></g><!--link VReg to Sensor--><g class="link" data-entity-1="VReg" data-entity-2="Sensor" data-source-line="15" data-uid="lnk10" id="link_VReg_Sensor"><path d="M577.53,189.52 C580.64,198.78 583.89,209.36 586.2,219.19 C600.9,281.63 609.1981,350.7313 613.1581,389.3613" fill="none" id="VReg-to-Sensor" style="stroke:#181818;stroke-width:1;"/><polygon fill="#181818" points="613.77,395.33,616.8314,385.969,613.2601,390.3561,608.8731,386.7848,613.77,395.33" style="stroke:#181818;stroke-width:1;"/><text fill="#000000" font-family="sans-serif" font-size="13" lengthAdjust="spacing" textLength="88.4419" x="604.2" y="297.0569">5V (Red wire)</text></g><!--link Battery to MCU--><g class="link" data-entity-1="Battery" data-entity-2="MCU" data-source-line="17" data-uid="lnk11" id="link_Battery_MCU"><path d="M350.2,59.9 C352.8,90.7 357.87,143.93 365.2,189.19 C369.47,215.55 374.7102,239.5308 379.5802,260.1408" fill="none" id="Battery-to-MCU" style="stroke:#181818;stroke-width:1;"/><polygon fill="#181818" points="380.96,265.98,382.7832,256.3014,379.8102,261.114,374.9976,258.141,380.96,265.98" style="stroke:#181818;stroke-width:1;"/><text fill="#000000" font-family="sans-serif" font-size="13" lengthAdjust="spacing" textLength="110.9761" x="366.2" y="167.4669">GND (Black wire)</text></g><!--link Battery to Sensor--><g class="link" data-entity-1="Battery" data-entity-2="Sensor" data-source-line="19" data-uid="lnk13" id="link_Battery_Sensor"><path d="M388.22,53.52 C393.84,55.79 399.61,57.9 405.2,59.6 C518.06,93.92 584.86,45.01 659.2,136.6 C711.58,201.11 729.44,240.63 701.2,318.79 C690.3,348.97 670.5181,372.395 650.7481,391.285" fill="none" id="Battery-to-Sensor" style="stroke:#181818;stroke-width:1;"/><polygon fill="#181818" points="646.41,395.43,655.6805,392.1046,650.0251,391.9758,650.1538,386.3204,646.41,395.43" style="stroke:#181818;stroke-width:1;"/><text fill="#000000" font-family="sans-serif" font-size="13" lengthAdjust="spacing" textLength="110.9761" x="713.2" y="232.2569">GND (Black wire)</text></g><!--link MCU to Servo--><g class="link" data-entity-1="MCU" data-entity-2="Servo" data-source-line="21" data-uid="lnk14" id="link_MCU_Servo"><path d="M324.4,304.71 C290.92,312.91 250.34,326.6 219.2,348.79 C202.12,360.96 191.1335,374.9142 181.4435,390.3942" fill="none" id="MCU-to-Servo" style="stroke:#181818;stroke-width:1;"/><polygon fill="#181818" points="178.26,395.48,186.4258,389.9737,180.9129,391.2419,179.6448,385.729,178.26,395.48" style="stroke:#181818;stroke-width:1;"/><text fill="#000000" font-family="sans-serif" font-size="13" lengthAdjust="spacing" textLength="163.7188" x="220.2" y="361.8569">PWM Signal (Yellow wire)</text></g><!--link MCU to Sensor--><g class="link" data-entity-1="MCU" data-entity-2="Sensor" data-source-line="22" data-uid="lnk15" id="link_MCU_Sensor"><path d="M394.6,319.26 C400.31,334.81 409.73,353.86 424.2,365.79 C458.07,393.69 499.4397,406.4864 538.6097,413.3364" fill="none" id="MCU-to-Sensor" style="stroke:#181818;stroke-width:1;"/><polygon fill="#181818" points="544.52,414.37,536.3436,408.8794,539.5947,413.5087,534.9655,416.7598,544.52,414.37" style="stroke:#181818;stroke-width:1;"/><text fill="#000000" font-family="sans-serif" font-size="13" lengthAdjust="spacing" textLength="164.2139" x="425.2" y="361.8569">Trigger/Echo (Blue wires)</text></g><!--SRC=[XP9BJiCm54NdNiKZ4b8PL41HE-W0gIsb4rAXbWOXCR6I5yUguuTiXweRO04iaPNWV4eJyPlPlkT-1Zv9C9KQOJMVFKoMYxivn8fRovZTIlt23SyX9qrnPYX7SAR0bc8pdj1EQW4fLnOPCnWxheL22ARSEJJxPtqvY60moGBW5fh7DXUHSbpu0IWAnHsPsl7nzWx3g395NcexGXaRYaaxGqgXvnikd6tQs1hDAq58LUIeHggtDhHHpd1BMiPUqvQEQVMLiMOozFlNrH8OGr0ExAqmWPqqU1PqcBhMGwCkKtbBmCyivU4lSjtx0z5fQK8MonleJHMFjtzE-GyxD7xdM5dKoRf_364jXUOAUa-e5EqEx14zv3qOAGIQytcSKHbSOCNQCbYJG_1wve3Ihuy1S5jO7CFLn1_NF4MtXvmR8VKO1XUd37K2fPDz0W00]--></g></svg>