<svg xmlns="http://www.w3.org/2000/svg" xmlns:xlink="http://www.w3.org/1999/xlink" contentStyleType="text/css" data-diagram-type="DESCRIPTION" height="429px" preserveAspectRatio="none" style="width:693px;height:429px;background:#FFFFFF;" version="1.1" viewBox="0 0 693 429" width="693px" zoomAndPan="magnify"><defs/><g><!--entity req--><g class="entity" data-entity="req" data-source-line="1" data-uid="ent0002" id="entity_req"><rect fill="#F1F1F1" height="46.2969" rx="2.5" ry="2.5" style="stroke:#181818;stroke-width:0.5;" width="156.0742" x="221.36" y="7"/><rect fill="#F1F1F1" height="10" style="stroke:#181818;stroke-width:0.5;" width="15" x="357.4342" y="12"/><rect fill="#F1F1F1" height="2" style="stroke:#181818;stroke-width:0.5;" width="4" x="355.4342" y="14"/><rect fill="#F1F1F1" height="2" style="stroke:#181818;stroke-width:0.5;" width="4" x="355.4342" y="18"/><text fill="#000000" font-family="sans-serif" font-size="14" lengthAdjust="spacing" textLength="116.0742" x="236.36" y="39.9951">1. Requirements</text></g><!--entity resp--><g class="entity" data-entity="resp" data-source-line="2" data-uid="ent0003" id="entity_resp"><rect fill="#F1F1F1" height="46.2969" rx="2.5" ry="2.5" style="stroke:#181818;stroke-width:0.5;" width="166.793" x="7" y="130.3"/><rect fill="#F1F1F1" height="10" style="stroke:#181818;stroke-width:0.5;" width="15" x="153.793" y="135.3"/><rect fill="#F1F1F1" height="2" style="stroke:#181818;stroke-width:0.5;" width="4" x="151.793" y="137.3"/><rect fill="#F1F1F1" height="2" style="stroke:#181818;stroke-width:0.5;" width="4" x="151.793" y="141.3"/><text fill="#000000" font-family="sans-serif" font-size="14" lengthAdjust="spacing" textLength="126.793" x="22" y="163.2951">2. Responsibilities</text></g><!--entity collab--><g class="entity" data-entity="collab" data-source-line="3" data-uid="ent0004" id="entity_collab"><rect fill="#F1F1F1" height="46.2969" rx="2.5" ry="2.5" style="stroke:#181818;stroke-width:0.5;" width="158.4053" x="32.19" y="253.6"/><rect fill="#F1F1F1" height="10" style="stroke:#181818;stroke-width:0.5;" width="15" x="170.5953" y="258.6"/><rect fill="#F1F1F1" height="2" style="stroke:#181818;stroke-width:0.5;" width="4" x="168.5953" y="260.6"/><rect fill="#F1F1F1" height="2" style="stroke:#181818;stroke-width:0.5;" width="4" x="168.5953" y="264.6"/><text fill="#000000" font-family="sans-serif" font-size="14" lengthAdjust="spacing" textLength="118.4053" x="47.19" y="286.5951">3. Collaborations</text></g><!--entity impl--><g class="entity" data-entity="impl" data-source-line="4" data-uid="ent0005" id="entity_impl"><rect fill="#F1F1F1" height="46.2969" rx="2.5" ry="2.5" style="stroke:#181818;stroke-width:0.5;" width="168.9736" x="225.91" y="376.89"/><rect fill="#F1F1F1" height="10" style="stroke:#181818;stroke-width:0.5;" width="15" x="374.8836" y="381.89"/><rect fill="#F1F1F1" height="2" style="stroke:#181818;stroke-width:0.5;" width="4" x="372.8836" y="383.89"/><rect fill="#F1F1F1" height="2" style="stroke:#181818;stroke-width:0.5;" width="4" x="372.8836" y="387.89"/><text fill="#000000" font-family="sans-serif" font-size="14" lengthAdjust="spacing" textLength="128.9736" x="240.91" y="409.8851">4. Implementation</text></g><g class="entity" data-entity="GMN6" data-source-line="6" data-uid="ent0007" id="entity_GMN6"><path d="M412.44,17.58 L412.44,26.15 L377.62,30.15 L412.44,34.15 L412.44,42.7128 A0,0 0 0 0 412.44,42.7128 L660.3433,42.7128 A0,0 0 0 0 660.3433,42.7128 L660.3433,27.58 L650.3433,17.58 L412.44,17.58 A0,0 0 0 0 412.44,17.58" fill="#FEFFDD" style="stroke:#181818;stroke-width:0.5;"/><path d="M650.3433,17.58 L650.3433,27.58 L660.3433,27.58 L650.3433,17.58" fill="#FEFFDD" style="stroke:#181818;stroke-width:0.5;"/><text fill="#000000" font-family="sans-serif" font-size="13" lengthAdjust="spacing" textLength="226.9033" x="418.44" y="34.6469">What does the system need to do?</text></g><g class="entity" data-entity="GMN9" data-source-line="7" data-uid="ent0010" id="entity_GMN9"><path d="M208.88,140.88 L208.88,149.45 L174.06,153.45 L208.88,157.45 L208.88,166.0128 A0,0 0 0 0 208.88,166.0128 L455.9073,166.0128 A0,0 0 0 0 455.9073,166.0128 L455.9073,150.88 L445.9073,140.88 L208.88,140.88 A0,0 0 0 0 208.88,140.88" fill="#FEFFDD" style="stroke:#181818;stroke-width:0.5;"/><path d="M445.9073,140.88 L445.9073,150.88 L455.9073,150.88 L445.9073,140.88" fill="#FEFFDD" style="stroke:#181818;stroke-width:0.5;"/><text fill="#000000" font-family="sans-serif" font-size="13" lengthAdjust="spacing" textLength="226.0273" x="214.88" y="157.9469">What tasks need to be performed?</text></g><g class="entity" data-entity="GMN12" data-source-line="8" data-uid="ent0013" id="entity_GMN12"><path d="M225.76,264.18 L225.76,272.74 L190.85,276.74 L225.76,280.74 L225.76,289.3128 A0,0 0 0 0 225.76,289.3128 L449.0281,289.3128 A0,0 0 0 0 449.0281,289.3128 L449.0281,274.18 L439.0281,264.18 L225.76,264.18 A0,0 0 0 0 225.76,264.18" fill="#FEFFDD" style="stroke:#181818;stroke-width:0.5;"/><path d="M439.0281,264.18 L439.0281,274.18 L449.0281,274.18 L439.0281,264.18" fill="#FEFFDD" style="stroke:#181818;stroke-width:0.5;"/><text fill="#000000" font-family="sans-serif" font-size="13" lengthAdjust="spacing" textLength="202.2681" x="231.76" y="281.2469">How do objects work together?</text></g><g class="entity" data-entity="GMN15" data-source-line="9" data-uid="ent0016" id="entity_GMN15"><path d="M429.89,387.48 L429.89,396.04 L395.16,400.04 L429.89,404.04 L429.89,412.6128 A0,0 0 0 0 429.89,412.6128 L590.9066,412.6128 A0,0 0 0 0 590.9066,412.6128 L590.9066,397.48 L580.9066,387.48 L429.89,387.48 A0,0 0 0 0 429.89,387.48" fill="#FEFFDD" style="stroke:#181818;stroke-width:0.5;"/><path d="M580.9066,387.48 L580.9066,397.48 L590.9066,397.48 L580.9066,387.48" fill="#FEFFDD" style="stroke:#181818;stroke-width:0.5;"/><text fill="#000000" font-family="sans-serif" font-size="13" lengthAdjust="spacing" textLength="140.0166" x="435.89" y="404.5469">Write the actual code</text></g><!--link req to resp--><g class="link" data-entity-1="req" data-entity-2="resp" data-source-line="11" data-uid="lnk18" id="link_req_resp"><path d="M260.57,53.68 C223.15,75.4 172.0197,105.0789 134.5497,126.8189" fill="none" id="req-to-resp" style="stroke:#181818;stroke-width:1;"/><polygon fill="#181818" points="129.36,129.83,139.152,128.7732,133.6848,127.3208,135.1372,121.8536,129.36,129.83" style="stroke:#181818;stroke-width:1;"/><text fill="#000000" font-family="sans-serif" font-size="13" lengthAdjust="spacing" textLength="160.2466" x="209.4" y="96.3669">Analyze and break down</text></g><!--link resp to collab--><g class="link" data-entity-1="resp" data-entity-2="collab" data-source-line="12" data-uid="lnk19" id="link_resp_collab"><path d="M94.3,176.98 C98.07,198.77 102.7248,225.6782 106.4948,247.4182" fill="none" id="resp-to-collab" style="stroke:#181818;stroke-width:1;"/><polygon fill="#181818" points="107.52,253.33,109.9234,243.7789,106.6657,248.4035,102.0411,245.1458,107.52,253.33" style="stroke:#181818;stroke-width:1;"/><text fill="#000000" font-family="sans-serif" font-size="13" lengthAdjust="spacing" textLength="110.6904" x="103.4" y="219.6669">Assign to objects</text></g><!--link collab to impl--><g class="link" data-entity-1="collab" data-entity-2="impl" data-source-line="13" data-uid="lnk20" id="link_collab_impl"><path d="M148.36,300.28 C183.99,321.99 232.4972,351.5564 268.1672,373.3064" fill="none" id="collab-to-impl" style="stroke:#181818;stroke-width:1;"/><polygon fill="#181818" points="273.29,376.43,267.6883,368.3293,269.021,373.827,263.5234,375.1597,273.29,376.43" style="stroke:#181818;stroke-width:1;"/><text fill="#000000" font-family="sans-serif" font-size="13" lengthAdjust="spacing" textLength="126.0962" x="224.4" y="342.9569">Design interactions</text></g><!--link impl to req--><g class="link" data-entity-1="impl" data-entity-2="req" data-source-line="14" data-uid="lnk21" id="link_impl_req"><path d="M372.01,376.41 C406,360.49 445.44,335.6 466.4,299.89 C497.95,246.12 489.16,157.43 473.4,130.3 C451.91,93.32 416.4405,71.2929 379.6305,55.9929" fill="none" id="impl-to-req" style="stroke:#181818;stroke-width:1;"/><polygon fill="#181818" points="374.09,53.69,380.8654,60.838,378.7071,55.6091,383.9359,53.4507,374.09,53.69" style="stroke:#181818;stroke-width:1;"/><text fill="#000000" font-family="sans-serif" font-size="13" lengthAdjust="spacing" textLength="197.1265" x="488.4" y="219.6669">Validate against requirements</text></g><!--SRC=[PP6xRiCm34LtVGL_807wc3gq2DgXMJkqWz61jXcRZImv8WCZ_VfIYkqXNU-3zq2gxhRmGQSp9neeg7m32YGwkUe-6pB685opPsLQJ1bTzR25r-WzrZ6XieMArnJ9LOzRs0-ZBoUBNLmsoRaGbI1nrol4Gvw29_ZgKQ6D9A0zWLn4QO10r896qr_-bMHSMefob3LR4uoK3Z4DrDwshd3MUu-J7OLO_r2Z0bDCH-jsPDlfjfIPyrHYKpCSDdf6RyTQSYxJRpRF2z0keB_yMYQqK2V2eyrCmHKtnrQ2dGXt8GFF46wsScgUVAEIuQ2KR3I_iIlMTJ0_soTwRj70i4CEebbUV_8F]--></g></svg>