<svg xmlns="http://www.w3.org/2000/svg" xmlns:xlink="http://www.w3.org/1999/xlink" contentStyleType="text/css" data-diagram-type="SEQUENCE" height="353px" preserveAspectRatio="none" style="width:717px;height:353px;background:#FFFFFF;" version="1.1" viewBox="0 0 717 353" width="717px" zoomAndPan="magnify"><defs/><g><g><title>Member</title><rect fill="#000000" fill-opacity="0.00000" height="282.1953" width="8" x="36.793" y="36.2969"/><line style="stroke:#181818;stroke-width:0.5;stroke-dasharray:5.0,5.0;" x1="40" x2="40" y1="36.2969" y2="318.4922"/></g><g><title>Library</title><rect fill="#000000" fill-opacity="0.00000" height="282.1953" width="8" x="263.0293" y="36.2969"/><line style="stroke:#181818;stroke-width:0.5;stroke-dasharray:5.0,5.0;" x1="266.5532" x2="266.5532" y1="36.2969" y2="318.4922"/></g><g><title>Book</title><rect fill="#000000" fill-opacity="0.00000" height="282.1953" width="8" x="527.123" y="36.2969"/><line style="stroke:#181818;stroke-width:0.5;stroke-dasharray:5.0,5.0;" x1="530.7017" x2="530.7017" y1="36.2969" y2="318.4922"/></g><g><title>NotificationService</title><rect fill="#000000" fill-opacity="0.00000" height="282.1953" width="8" x="634.5796" y="36.2969"/><line style="stroke:#181818;stroke-width:0.5;stroke-dasharray:5.0,5.0;" x1="638.5444" x2="638.5444" y1="36.2969" y2="318.4922"/></g><g class="participant participant-head" data-participant="Member"><rect fill="#E2E2F0" height="30.2969" rx="2.5" ry="2.5" style="stroke:#181818;stroke-width:0.5;" width="71.5859" x="5" y="5"/><text fill="#000000" font-family="sans-serif" font-size="14" lengthAdjust="spacing" textLength="57.5859" x="12" y="24.9951">Member</text></g><g class="participant participant-tail" data-participant="Member"><rect fill="#E2E2F0" height="30.2969" rx="2.5" ry="2.5" style="stroke:#181818;stroke-width:0.5;" width="71.5859" x="5" y="317.4922"/><text fill="#000000" font-family="sans-serif" font-size="14" lengthAdjust="spacing" textLength="57.5859" x="12" y="337.4873">Member</text></g><g class="participant participant-head" data-participant="Library"><rect fill="#E2E2F0" height="30.2969" rx="2.5" ry="2.5" style="stroke:#181818;stroke-width:0.5;" width="62.9521" x="235.5532" y="5"/><text fill="#000000" font-family="sans-serif" font-size="14" lengthAdjust="spacing" textLength="48.9521" x="242.5532" y="24.9951">Library</text></g><g class="participant participant-tail" data-participant="Library"><rect fill="#E2E2F0" height="30.2969" rx="2.5" ry="2.5" style="stroke:#181818;stroke-width:0.5;" width="62.9521" x="235.5532" y="317.4922"/><text fill="#000000" font-family="sans-serif" font-size="14" lengthAdjust="spacing" textLength="48.9521" x="242.5532" y="337.4873">Library</text></g><g class="participant participant-head" data-participant="Book"><rect fill="#E2E2F0" height="30.2969" rx="2.5" ry="2.5" style="stroke:#181818;stroke-width:0.5;" width="48.8428" x="506.7017" y="5"/><text fill="#000000" font-family="sans-serif" font-size="14" lengthAdjust="spacing" textLength="34.8428" x="513.7017" y="24.9951">Book</text></g><g class="participant participant-tail" data-participant="Book"><rect fill="#E2E2F0" height="30.2969" rx="2.5" ry="2.5" style="stroke:#181818;stroke-width:0.5;" width="48.8428" x="506.7017" y="317.4922"/><text fill="#000000" font-family="sans-serif" font-size="14" lengthAdjust="spacing" textLength="34.8428" x="513.7017" y="337.4873">Book</text></g><g class="participant participant-head" data-participant="NotificationService"><rect fill="#E2E2F0" height="30.2969" rx="2.5" ry="2.5" style="stroke:#181818;stroke-width:0.5;" width="146.0703" x="565.5444" y="5"/><text fill="#000000" font-family="sans-serif" font-size="14" lengthAdjust="spacing" textLength="132.0703" x="572.5444" y="24.9951">NotificationService</text></g><g class="participant participant-tail" data-participant="NotificationService"><rect fill="#E2E2F0" height="30.2969" rx="2.5" ry="2.5" style="stroke:#181818;stroke-width:0.5;" width="146.0703" x="565.5444" y="317.4922"/><text fill="#000000" font-family="sans-serif" font-size="14" lengthAdjust="spacing" textLength="132.0703" x="572.5444" y="337.4873">NotificationService</text></g><g class="message" data-participant-1="Member" data-participant-2="Library"><polygon fill="#181818" points="255.0293,63.4297,265.0293,67.4297,255.0293,71.4297,259.0293,67.4297" style="stroke:#181818;stroke-width:1;"/><line style="stroke:#181818;stroke-width:1;" x1="40.793" x2="261.0293" y1="67.4297" y2="67.4297"/><text fill="#000000" font-family="sans-serif" font-size="13" lengthAdjust="spacing" textLength="202.2363" x="47.793" y="62.3638">borrow_book(member_id, isbn)</text></g><g class="message" data-participant-1="Library" data-participant-2="Member"><polygon fill="#181818" points="51.793,92.5625,41.793,96.5625,51.793,100.5625,47.793,96.5625" style="stroke:#181818;stroke-width:1;"/><line style="stroke:#181818;stroke-width:1;" x1="45.793" x2="266.0293" y1="96.5625" y2="96.5625"/><text fill="#000000" font-family="sans-serif" font-size="13" lengthAdjust="spacing" textLength="85.4775" x="57.793" y="91.4966">can_borrow()</text></g><g class="message" data-participant-1="Member" data-participant-2="Library"><polygon fill="#181818" points="255.0293,121.6953,265.0293,125.6953,255.0293,129.6953,259.0293,125.6953" style="stroke:#181818;stroke-width:1;"/><line style="stroke:#181818;stroke-width:1;stroke-dasharray:2.0,2.0;" x1="40.793" x2="261.0293" y1="125.6953" y2="125.6953"/><text fill="#000000" font-family="sans-serif" font-size="13" lengthAdjust="spacing" textLength="29.5229" x="47.793" y="120.6294">True</text></g><g class="message" data-participant-1="Library" data-participant-2="Book"><polygon fill="#181818" points="519.123,150.8281,529.123,154.8281,519.123,158.8281,523.123,154.8281" style="stroke:#181818;stroke-width:1;"/><line style="stroke:#181818;stroke-width:1;" x1="267.0293" x2="525.123" y1="154.8281" y2="154.8281"/><text fill="#000000" font-family="sans-serif" font-size="13" lengthAdjust="spacing" textLength="85.7061" x="274.0293" y="149.7622">is_available()</text></g><g class="message" data-participant-1="Book" data-participant-2="Library"><polygon fill="#181818" points="278.0293,179.9609,268.0293,183.9609,278.0293,187.9609,274.0293,183.9609" style="stroke:#181818;stroke-width:1;"/><line style="stroke:#181818;stroke-width:1;stroke-dasharray:2.0,2.0;" x1="272.0293" x2="530.123" y1="183.9609" y2="183.9609"/><text fill="#000000" font-family="sans-serif" font-size="13" lengthAdjust="spacing" textLength="29.5229" x="284.0293" y="178.895">True</text></g><g class="message" data-participant-1="Library" data-participant-2="Book"><polygon fill="#181818" points="519.123,209.0938,529.123,213.0938,519.123,217.0938,523.123,213.0938" style="stroke:#181818;stroke-width:1;"/><line style="stroke:#181818;stroke-width:1;" x1="267.0293" x2="525.123" y1="213.0938" y2="213.0938"/><text fill="#000000" font-family="sans-serif" font-size="13" lengthAdjust="spacing" textLength="240.0938" x="274.0293" y="208.0278">set_borrowed(member_id, due_date)</text></g><g class="message" data-participant-1="Library" data-participant-2="Member"><polygon fill="#181818" points="51.793,238.2266,41.793,242.2266,51.793,246.2266,47.793,242.2266" style="stroke:#181818;stroke-width:1;"/><line style="stroke:#181818;stroke-width:1;" x1="45.793" x2="266.0293" y1="242.2266" y2="242.2266"/><text fill="#000000" font-family="sans-serif" font-size="13" lengthAdjust="spacing" textLength="172.7197" x="57.793" y="237.1606">add_borrowed_book(book)</text></g><g class="message" data-participant-1="Library" data-participant-2="NotificationService"><polygon fill="#181818" points="626.5796,267.3594,636.5796,271.3594,626.5796,275.3594,630.5796,271.3594" style="stroke:#181818;stroke-width:1;"/><line style="stroke:#181818;stroke-width:1;" x1="267.0293" x2="632.5796" y1="271.3594" y2="271.3594"/><text fill="#000000" font-family="sans-serif" font-size="13" lengthAdjust="spacing" textLength="260.2158" x="274.0293" y="266.2935">schedule_due_reminder(member, book)</text></g><g class="message" data-participant-1="Library" data-participant-2="Member"><polygon fill="#181818" points="51.793,296.4922,41.793,300.4922,51.793,304.4922,47.793,300.4922" style="stroke:#181818;stroke-width:1;"/><line style="stroke:#181818;stroke-width:1;stroke-dasharray:2.0,2.0;" x1="45.793" x2="266.0293" y1="300.4922" y2="300.4922"/><text fill="#000000" font-family="sans-serif" font-size="13" lengthAdjust="spacing" textLength="113.4072" x="57.793" y="295.4263">success message</text></g><!--SRC=[ZP2x4i8W44NxV0MbcOa_aCB2McsqPnPOTSS4CWl4yUybpqcS53OKbptdBZJ0WJGrO8CuOwsGisOHdKWny6UL7PrxhOAB2tGd3O6SlIAtf37B1fdO7oQ7A8LopEujLHBiwlvUaYa4UMNpR1fBnCYMGeEL0xJBP-DAUUE8IxHRBiNa9RH05QWA4zgdVu4UmzY8PhcZYIWD1DpU4uoPgU5vtR6QtVYahau_qSGgkPEViIPhaCVUGln8beq-QetUYpeTyC0l]--></g></svg>