<svg xmlns="http://www.w3.org/2000/svg" xmlns:xlink="http://www.w3.org/1999/xlink" contentStyleType="text/css" data-diagram-type="DESCRIPTION" height="484px" preserveAspectRatio="none" style="width:127px;height:484px;background:#FFFFFF;" version="1.1" viewBox="0 0 127 484" width="127px" zoomAndPan="magnify"><defs/><g><!--entity Input Data--><g class="entity" data-entity="Input Data" data-source-line="1" data-uid="ent0002" id="entity_Input Data"><rect fill="#F1F1F1" height="46.2969" rx="2.5" ry="2.5" style="stroke:#181818;stroke-width:0.5;" width="114.1289" x="7" y="7"/><rect fill="#F1F1F1" height="10" style="stroke:#181818;stroke-width:0.5;" width="15" x="101.1289" y="12"/><rect fill="#F1F1F1" height="2" style="stroke:#181818;stroke-width:0.5;" width="4" x="99.1289" y="14"/><rect fill="#F1F1F1" height="2" style="stroke:#181818;stroke-width:0.5;" width="4" x="99.1289" y="18"/><text fill="#000000" font-family="sans-serif" font-size="14" lengthAdjust="spacing" textLength="74.1289" x="22" y="39.9951">Input Data</text></g><!--entity Validate--><g class="entity" data-entity="Validate" data-source-line="1" data-uid="ent0003" id="entity_Validate"><rect fill="#F1F1F1" height="46.2969" rx="2.5" ry="2.5" style="stroke:#181818;stroke-width:0.5;" width="97.5039" x="15.31" y="113.29"/><rect fill="#F1F1F1" height="10" style="stroke:#181818;stroke-width:0.5;" width="15" x="92.8139" y="118.29"/><rect fill="#F1F1F1" height="2" style="stroke:#181818;stroke-width:0.5;" width="4" x="90.8139" y="120.29"/><rect fill="#F1F1F1" height="2" style="stroke:#181818;stroke-width:0.5;" width="4" x="90.8139" y="124.29"/><text fill="#000000" font-family="sans-serif" font-size="14" lengthAdjust="spacing" textLength="57.5039" x="30.31" y="146.2851">Validate</text></g><!--entity Transform--><g class="entity" data-entity="Transform" data-source-line="2" data-uid="ent0005" id="entity_Transform"><rect fill="#F1F1F1" height="46.2969" rx="2.5" ry="2.5" style="stroke:#181818;stroke-width:0.5;" width="111.9414" x="8.09" y="219.59"/><rect fill="#F1F1F1" height="10" style="stroke:#181818;stroke-width:0.5;" width="15" x="100.0314" y="224.59"/><rect fill="#F1F1F1" height="2" style="stroke:#181818;stroke-width:0.5;" width="4" x="98.0314" y="226.59"/><rect fill="#F1F1F1" height="2" style="stroke:#181818;stroke-width:0.5;" width="4" x="98.0314" y="230.59"/><text fill="#000000" font-family="sans-serif" font-size="14" lengthAdjust="spacing" textLength="71.9414" x="23.09" y="252.5851">Transform</text></g><!--entity Calculate--><g class="entity" data-entity="Calculate" data-source-line="3" data-uid="ent0007" id="entity_Calculate"><rect fill="#F1F1F1" height="46.2969" rx="2.5" ry="2.5" style="stroke:#181818;stroke-width:0.5;" width="105.3857" x="11.37" y="325.89"/><rect fill="#F1F1F1" height="10" style="stroke:#181818;stroke-width:0.5;" width="15" x="96.7557" y="330.89"/><rect fill="#F1F1F1" height="2" style="stroke:#181818;stroke-width:0.5;" width="4" x="94.7557" y="332.89"/><rect fill="#F1F1F1" height="2" style="stroke:#181818;stroke-width:0.5;" width="4" x="94.7557" y="336.89"/><text fill="#000000" font-family="sans-serif" font-size="14" lengthAdjust="spacing" textLength="65.3857" x="26.37" y="358.8851">Calculate</text></g><!--entity Output--><g class="entity" data-entity="Output" data-source-line="4" data-uid="ent0009" id="entity_Output"><rect fill="#F1F1F1" height="46.2969" rx="2.5" ry="2.5" style="stroke:#181818;stroke-width:0.5;" width="88.6309" x="19.75" y="432.18"/><rect fill="#F1F1F1" height="10" style="stroke:#181818;stroke-width:0.5;" width="15" x="88.3809" y="437.18"/><rect fill="#F1F1F1" height="2" style="stroke:#181818;stroke-width:0.5;" width="4" x="86.3809" y="439.18"/><rect fill="#F1F1F1" height="2" style="stroke:#181818;stroke-width:0.5;" width="4" x="86.3809" y="443.18"/><text fill="#000000" font-family="sans-serif" font-size="14" lengthAdjust="spacing" textLength="48.6309" x="34.75" y="465.1751">Output</text></g><!--link Input Data to Validate--><g class="link" data-entity-1="Input Data" data-entity-2="Validate" data-source-line="1" data-uid="lnk4" id="link_Input Data_Validate"><path d="M64.06,53.77 C64.06,71.27 64.06,89.37 64.06,106.85" fill="none" id="Input Data-to-Validate" style="stroke:#181818;stroke-width:1;"/><polygon fill="#181818" points="64.06,112.85,68.06,103.85,64.06,107.85,60.06,103.85,64.06,112.85" style="stroke:#181818;stroke-width:1;"/></g><!--link Validate to Transform--><g class="link" data-entity-1="Validate" data-entity-2="Transform" data-source-line="2" data-uid="lnk6" id="link_Validate_Transform"><path d="M64.06,160.07 C64.06,177.57 64.06,195.67 64.06,213.15" fill="none" id="Validate-to-Transform" style="stroke:#181818;stroke-width:1;"/><polygon fill="#181818" points="64.06,219.15,68.06,210.15,64.06,214.15,60.06,210.15,64.06,219.15" style="stroke:#181818;stroke-width:1;"/></g><!--link Transform to Calculate--><g class="link" data-entity-1="Transform" data-entity-2="Calculate" data-source-line="3" data-uid="lnk8" id="link_Transform_Calculate"><path d="M64.06,266.37 C64.06,283.86 64.06,301.97 64.06,319.45" fill="none" id="Transform-to-Calculate" style="stroke:#181818;stroke-width:1;"/><polygon fill="#181818" points="64.06,325.45,68.06,316.45,64.06,320.45,60.06,316.45,64.06,325.45" style="stroke:#181818;stroke-width:1;"/></g><!--link Calculate to Output--><g class="link" data-entity-1="Calculate" data-entity-2="Output" data-source-line="4" data-uid="lnk10" id="link_Calculate_Output"><path d="M64.06,372.67 C64.06,390.16 64.06,408.26 64.06,425.74" fill="none" id="Calculate-to-Output" style="stroke:#181818;stroke-width:1;"/><polygon fill="#181818" points="64.06,431.74,68.06,422.74,64.06,426.74,60.06,422.74,64.06,431.74" style="stroke:#181818;stroke-width:1;"/></g><!--SRC=[Y_RCAoWjKN19B4cCLT3LjLE83alCoKn9B4cDvK8m8J8XHObvnMdvHRb0AGGR8kUSc9DScWFHXc13vFnBIu1sn080]--></g></svg>