<svg xmlns="http://www.w3.org/2000/svg" xmlns:xlink="http://www.w3.org/1999/xlink" contentStyleType="text/css" data-diagram-type="DESCRIPTION" height="352px" preserveAspectRatio="none" style="width:414px;height:352px;background:#FFFFFF;" version="1.1" viewBox="0 0 414 352" width="414px" zoomAndPan="magnify"><defs/><g><!--cluster Presentation Layer--><g class="cluster" data-entity="Presentation Layer" data-source-line="1" data-uid="ent0002" id="cluster_Presentation Layer"><path d="M8.5,6 L159.9385,6 A3.75,3.75 0 0 1 162.4385,8.5 L169.4385,28.2969 L360.5,28.2969 A2.5,2.5 0 0 1 363,30.7969 L363,100.8 A2.5,2.5 0 0 1 360.5,103.3 L8.5,103.3 A2.5,2.5 0 0 1 6,100.8 L6,8.5 A2.5,2.5 0 0 1 8.5,6" fill="none" style="stroke:#000000;stroke-width:1.5;"/><line style="stroke:#000000;stroke-width:1.5;" x1="6" x2="169.4385" y1="28.2969" y2="28.2969"/><text fill="#000000" font-family="sans-serif" font-size="14" font-weight="bold" lengthAdjust="spacing" textLength="150.4385" x="10" y="20.9951">Presentation Layer</text></g><!--cluster Business Logic Layer--><g class="cluster" data-entity="Business Logic Layer" data-source-line="6" data-uid="ent0005" id="cluster_Business Logic Layer"><path d="M10.5,127.3 L176.6973,127.3 A3.75,3.75 0 0 1 179.1973,129.8 L186.1973,149.5969 L370.5,149.5969 A2.5,2.5 0 0 1 373,152.0969 L373,222.09 A2.5,2.5 0 0 1 370.5,224.59 L10.5,224.59 A2.5,2.5 0 0 1 8,222.09 L8,129.8 A2.5,2.5 0 0 1 10.5,127.3" fill="none" style="stroke:#000000;stroke-width:1.5;"/><line style="stroke:#000000;stroke-width:1.5;" x1="8" x2="186.1973" y1="149.5969" y2="149.5969"/><text fill="#000000" font-family="sans-serif" font-size="14" font-weight="bold" lengthAdjust="spacing" textLength="165.1973" x="12" y="142.2951">Business Logic Layer</text></g><!--cluster Data Access Layer--><g class="cluster" data-entity="Data Access Layer" data-source-line="11" data-uid="ent0008" id="cluster_Data Access Layer"><path d="M8.5,248.59 L153.9434,248.59 A3.75,3.75 0 0 1 156.4434,251.09 L163.4434,270.8869 L404.5,270.8869 A2.5,2.5 0 0 1 407,273.3869 L407,343.39 A2.5,2.5 0 0 1 404.5,345.89 L8.5,345.89 A2.5,2.5 0 0 1 6,343.39 L6,251.09 A2.5,2.5 0 0 1 8.5,248.59" fill="none" style="stroke:#000000;stroke-width:1.5;"/><line style="stroke:#000000;stroke-width:1.5;" x1="6" x2="163.4434" y1="270.8869" y2="270.8869"/><text fill="#000000" font-family="sans-serif" font-size="14" font-weight="bold" lengthAdjust="spacing" textLength="144.4434" x="10" y="263.5851">Data Access Layer</text></g><!--entity User Interface--><g class="entity" data-entity="User Interface" data-source-line="2" data-uid="ent0003" id="entity_User Interface"><rect fill="#F1F1F1" height="46.2969" rx="2.5" ry="2.5" style="stroke:#181818;stroke-width:0.5;" width="139.0391" x="207.48" y="41"/><rect fill="#F1F1F1" height="10" style="stroke:#181818;stroke-width:0.5;" width="15" x="326.5191" y="46"/><rect fill="#F1F1F1" height="2" style="stroke:#181818;stroke-width:0.5;" width="4" x="324.5191" y="48"/><rect fill="#F1F1F1" height="2" style="stroke:#181818;stroke-width:0.5;" width="4" x="324.5191" y="52"/><text fill="#000000" font-family="sans-serif" font-size="14" lengthAdjust="spacing" textLength="99.0391" x="222.48" y="73.9951">User Interface</text></g><!--entity Input Validation--><g class="entity" data-entity="Input Validation" data-source-line="3" data-uid="ent0004" id="entity_Input Validation"><rect fill="#F1F1F1" height="46.2969" rx="2.5" ry="2.5" style="stroke:#181818;stroke-width:0.5;" width="150.9199" x="21.54" y="41"/><rect fill="#F1F1F1" height="10" style="stroke:#181818;stroke-width:0.5;" width="15" x="152.4599" y="46"/><rect fill="#F1F1F1" height="2" style="stroke:#181818;stroke-width:0.5;" width="4" x="150.4599" y="48"/><rect fill="#F1F1F1" height="2" style="stroke:#181818;stroke-width:0.5;" width="4" x="150.4599" y="52"/><text fill="#000000" font-family="sans-serif" font-size="14" lengthAdjust="spacing" textLength="110.9199" x="36.54" y="73.9951">Input Validation</text></g><!--entity Core Algorithms--><g class="entity" data-entity="Core Algorithms" data-source-line="7" data-uid="ent0006" id="entity_Core Algorithms"><rect fill="#F1F1F1" height="46.2969" rx="2.5" ry="2.5" style="stroke:#181818;stroke-width:0.5;" width="153.0186" x="203.49" y="162.3"/><rect fill="#F1F1F1" height="10" style="stroke:#181818;stroke-width:0.5;" width="15" x="336.5086" y="167.3"/><rect fill="#F1F1F1" height="2" style="stroke:#181818;stroke-width:0.5;" width="4" x="334.5086" y="169.3"/><rect fill="#F1F1F1" height="2" style="stroke:#181818;stroke-width:0.5;" width="4" x="334.5086" y="173.3"/><text fill="#000000" font-family="sans-serif" font-size="14" lengthAdjust="spacing" textLength="113.0186" x="218.49" y="195.2951">Core Algorithms</text></g><!--entity Business Rules--><g class="entity" data-entity="Business Rules" data-source-line="8" data-uid="ent0007" id="entity_Business Rules"><rect fill="#F1F1F1" height="46.2969" rx="2.5" ry="2.5" style="stroke:#181818;stroke-width:0.5;" width="144.583" x="23.71" y="162.3"/><rect fill="#F1F1F1" height="10" style="stroke:#181818;stroke-width:0.5;" width="15" x="148.293" y="167.3"/><rect fill="#F1F1F1" height="2" style="stroke:#181818;stroke-width:0.5;" width="4" x="146.293" y="169.3"/><rect fill="#F1F1F1" height="2" style="stroke:#181818;stroke-width:0.5;" width="4" x="146.293" y="173.3"/><text fill="#000000" font-family="sans-serif" font-size="14" lengthAdjust="spacing" textLength="104.583" x="38.71" y="195.2951">Business Rules</text></g><!--entity Database Operations--><g class="entity" data-entity="Database Operations" data-source-line="12" data-uid="ent0009" id="entity_Database Operations"><rect fill="#F1F1F1" height="46.2969" rx="2.5" ry="2.5" style="stroke:#181818;stroke-width:0.5;" width="188.2168" x="202.89" y="283.59"/><rect fill="#F1F1F1" height="10" style="stroke:#181818;stroke-width:0.5;" width="15" x="371.1068" y="288.59"/><rect fill="#F1F1F1" height="2" style="stroke:#181818;stroke-width:0.5;" width="4" x="369.1068" y="290.59"/><rect fill="#F1F1F1" height="2" style="stroke:#181818;stroke-width:0.5;" width="4" x="369.1068" y="294.59"/><text fill="#000000" font-family="sans-serif" font-size="14" lengthAdjust="spacing" textLength="148.2168" x="217.89" y="316.5851">Database Operations</text></g><!--entity File Operations--><g class="entity" data-entity="File Operations" data-source-line="13" data-uid="ent0010" id="entity_File Operations"><rect fill="#F1F1F1" height="46.2969" rx="2.5" ry="2.5" style="stroke:#181818;stroke-width:0.5;" width="145.8613" x="22.07" y="283.59"/><rect fill="#F1F1F1" height="10" style="stroke:#181818;stroke-width:0.5;" width="15" x="147.9313" y="288.59"/><rect fill="#F1F1F1" height="2" style="stroke:#181818;stroke-width:0.5;" width="4" x="145.9313" y="290.59"/><rect fill="#F1F1F1" height="2" style="stroke:#181818;stroke-width:0.5;" width="4" x="145.9313" y="294.59"/><text fill="#000000" font-family="sans-serif" font-size="14" lengthAdjust="spacing" textLength="105.8613" x="37.07" y="316.5851">File Operations</text></g><!--link User Interface to Core Algorithms--><g class="link" data-entity-1="User Interface" data-entity-2="Core Algorithms" data-source-line="16" data-uid="lnk11" id="link_User Interface_Core Algorithms"><path d="M277.56,87.59 C278.1,108.92 278.7479,134.8119 279.2879,156.1119" fill="none" id="User Interface-to-Core Algorithms" style="stroke:#181818;stroke-width:1;"/><polygon fill="#181818" points="279.44,162.11,283.2106,153.0115,279.3133,157.1116,275.2132,153.2143,279.44,162.11" style="stroke:#181818;stroke-width:1;"/></g><!--link Core Algorithms to Database Operations--><g class="link" data-entity-1="Core Algorithms" data-entity-2="Database Operations" data-source-line="17" data-uid="lnk12" id="link_Core Algorithms_Database Operations"><path d="M283.2,208.88 C286.24,230.21 289.9319,256.1702 292.9719,277.4602" fill="none" id="Core Algorithms-to-Database Operations" style="stroke:#181818;stroke-width:1;"/><polygon fill="#181818" points="293.82,283.4,296.5076,273.9249,293.1132,278.4502,288.588,275.0558,293.82,283.4" style="stroke:#181818;stroke-width:1;"/></g><!--link Input Validation to Business Rules--><g class="link" data-entity-1="Input Validation" data-entity-2="Business Rules" data-source-line="18" data-uid="lnk13" id="link_Input Validation_Business Rules"><path d="M96.81,87.59 C96.63,108.92 96.4207,134.8102 96.2407,156.1102" fill="none" id="Input Validation-to-Business Rules" style="stroke:#181818;stroke-width:1;"/><polygon fill="#181818" points="96.19,162.11,100.2659,153.1441,96.2323,157.1102,92.2662,153.0765,96.19,162.11" style="stroke:#181818;stroke-width:1;"/></g><!--link Business Rules to File Operations--><g class="link" data-entity-1="Business Rules" data-entity-2="File Operations" data-source-line="19" data-uid="lnk14" id="link_Business Rules_File Operations"><path d="M95.81,208.88 C95.63,230.21 95.4207,256.1102 95.2407,277.4002" fill="none" id="Business Rules-to-File Operations" style="stroke:#181818;stroke-width:1;"/><polygon fill="#181818" points="95.19,283.4,99.2659,274.4341,95.2323,278.4002,91.2662,274.3665,95.19,283.4" style="stroke:#181818;stroke-width:1;"/></g><!--SRC=[RP112i8m44NtESNGVQyWL4Ke51H1DzB56CSQZ4d8f0iHxwvDK6pizl5u-HE7yeeTGR7nn6G21cKDD7WdNy1301nsJ1vg4yYVKL8xeDguFi0UjJf5lnLF8TodDEzP6MA6ndPAZbeBwmagtLclmkN6CVRLjxqc7gUM610gAMFjfpFm8pB1sf6F4r9hfVIOlMFv0L2MiuabVoHvao_zVq2IyrDoaAnyv0i0]--></g></svg>