<svg xmlns="http://www.w3.org/2000/svg" xmlns:xlink="http://www.w3.org/1999/xlink" contentStyleType="text/css" data-diagram-type="DESCRIPTION" height="468px" preserveAspectRatio="none" style="width:2395px;height:468px;background:#FFFFFF;" version="1.1" viewBox="0 0 2395 468" width="2395px" zoomAndPan="magnify"><defs/><g><!--cluster Library Management System--><g class="cluster" data-entity="Library Management System" data-source-line="1" data-uid="ent0002" id="cluster_Library Management System"><path d="M8.5,6 L236.7402,6 A3.75,3.75 0 0 1 239.2402,8.5 L246.2402,28.2969 L2385.5,28.2969 A2.5,2.5 0 0 1 2388,30.7969 L2388,458.69 A2.5,2.5 0 0 1 2385.5,461.19 L8.5,461.19 A2.5,2.5 0 0 1 6,458.69 L6,8.5 A2.5,2.5 0 0 1 8.5,6" fill="none" style="stroke:#000000;stroke-width:1.5;"/><line style="stroke:#000000;stroke-width:1.5;" x1="6" x2="246.2402" y1="28.2969" y2="28.2969"/><text fill="#000000" font-family="sans-serif" font-size="14" font-weight="bold" lengthAdjust="spacing" textLength="227.2402" x="10" y="20.9951">Library Management System</text></g><!--cluster User Interface--><g class="cluster" data-entity="User Interface" data-source-line="4" data-uid="ent0004" id="cluster_User Interface"><path d="M513.5,218.6 L627.0742,218.6 A3.75,3.75 0 0 1 629.5742,221.1 L636.5742,240.8969 L1050.5,240.8969 A2.5,2.5 0 0 1 1053,243.3969 L1053,313.39 A2.5,2.5 0 0 1 1050.5,315.89 L513.5,315.89 A2.5,2.5 0 0 1 511,313.39 L511,221.1 A2.5,2.5 0 0 1 513.5,218.6" fill="none" style="stroke:#000000;stroke-width:1.5;"/><line style="stroke:#000000;stroke-width:1.5;" x1="511" x2="636.5742" y1="240.8969" y2="240.8969"/><text fill="#000000" font-family="sans-serif" font-size="14" font-weight="bold" lengthAdjust="spacing" textLength="112.5742" x="515" y="233.5951">User Interface</text></g><!--cluster Borrowing System--><g class="cluster" data-entity="Borrowing System" data-source-line="10" data-uid="ent0008" id="cluster_Borrowing System"><path d="M1079.5,112.3 L1225.1279,112.3 A3.75,3.75 0 0 1 1227.6279,114.8 L1234.6279,134.5969 L1972.5,134.5969 A2.5,2.5 0 0 1 1975,137.0969 L1975,313.39 A2.5,2.5 0 0 1 1972.5,315.89 L1079.5,315.89 A2.5,2.5 0 0 1 1077,313.39 L1077,114.8 A2.5,2.5 0 0 1 1079.5,112.3" fill="none" style="stroke:#000000;stroke-width:1.5;"/><line style="stroke:#000000;stroke-width:1.5;" x1="1077" x2="1234.6279" y1="134.5969" y2="134.5969"/><text fill="#000000" font-family="sans-serif" font-size="14" font-weight="bold" lengthAdjust="spacing" textLength="144.6279" x="1081" y="127.2951">Borrowing System</text></g><!--cluster Return System--><g class="cluster" data-entity="Return System" data-source-line="18" data-uid="ent0014" id="cluster_Return System"><path d="M2001.5,112.3 L2119.4971,112.3 A3.75,3.75 0 0 1 2121.9971,114.8 L2128.9971,134.5969 L2361.5,134.5969 A2.5,2.5 0 0 1 2364,137.0969 L2364,313.39 A2.5,2.5 0 0 1 2361.5,315.89 L2001.5,315.89 A2.5,2.5 0 0 1 1999,313.39 L1999,114.8 A2.5,2.5 0 0 1 2001.5,112.3" fill="none" style="stroke:#000000;stroke-width:1.5;"/><line style="stroke:#000000;stroke-width:1.5;" x1="1999" x2="2128.9971" y1="134.5969" y2="134.5969"/><text fill="#000000" font-family="sans-serif" font-size="14" font-weight="bold" lengthAdjust="spacing" textLength="116.9971" x="2003" y="127.2951">Return System</text></g><!--cluster Database Operations--><g class="cluster" data-entity="Database Operations" data-source-line="24" data-uid="ent0018" id="cluster_Database Operations"><path d="M1346.5,339.89 L1514.0576,339.89 A3.75,3.75 0 0 1 1516.5576,342.39 L1523.5576,362.1869 L2140.5,362.1869 A2.5,2.5 0 0 1 2143,364.6869 L2143,434.69 A2.5,2.5 0 0 1 2140.5,437.19 L1346.5,437.19 A2.5,2.5 0 0 1 1344,434.69 L1344,342.39 A2.5,2.5 0 0 1 1346.5,339.89" fill="none" style="stroke:#000000;stroke-width:1.5;"/><line style="stroke:#000000;stroke-width:1.5;" x1="1344" x2="1523.5576" y1="362.1869" y2="362.1869"/><text fill="#000000" font-family="sans-serif" font-size="14" font-weight="bold" lengthAdjust="spacing" textLength="166.5576" x="1348" y="354.8851">Database Operations</text></g><!--cluster Reporting--><g class="cluster" data-entity="Reporting" data-source-line="31" data-uid="ent0023" id="cluster_Reporting"><path d="M32.5,112.3 L111.7988,112.3 A3.75,3.75 0 0 1 114.2988,114.8 L121.2988,134.5969 L484.5,134.5969 A2.5,2.5 0 0 1 487,137.0969 L487,313.39 A2.5,2.5 0 0 1 484.5,315.89 L32.5,315.89 A2.5,2.5 0 0 1 30,313.39 L30,114.8 A2.5,2.5 0 0 1 32.5,112.3" fill="none" style="stroke:#000000;stroke-width:1.5;"/><line style="stroke:#000000;stroke-width:1.5;" x1="30" x2="121.2988" y1="134.5969" y2="134.5969"/><text fill="#000000" font-family="sans-serif" font-size="14" font-weight="bold" lengthAdjust="spacing" textLength="78.2988" x="34" y="127.2951">Reporting</text></g><!--entity main--><g class="entity" data-entity="main" data-source-line="2" data-uid="ent0003" id="entity_main"><rect fill="#F1F1F1" height="46.2969" rx="2.5" ry="2.5" style="stroke:#181818;stroke-width:0.5;" width="147.0439" x="693.48" y="41"/><rect fill="#F1F1F1" height="10" style="stroke:#181818;stroke-width:0.5;" width="15" x="820.5239" y="46"/><rect fill="#F1F1F1" height="2" style="stroke:#181818;stroke-width:0.5;" width="4" x="818.5239" y="48"/><rect fill="#F1F1F1" height="2" style="stroke:#181818;stroke-width:0.5;" width="4" x="818.5239" y="52"/><text fill="#000000" font-family="sans-serif" font-size="14" lengthAdjust="spacing" textLength="107.0439" x="708.48" y="73.9951">Main Controller</text></g><!--entity menu--><g class="entity" data-entity="menu" data-source-line="5" data-uid="ent0005" id="entity_menu"><rect fill="#F1F1F1" height="46.2969" rx="2.5" ry="2.5" style="stroke:#181818;stroke-width:0.5;" width="134.4932" x="526.75" y="253.6"/><rect fill="#F1F1F1" height="10" style="stroke:#181818;stroke-width:0.5;" width="15" x="641.2432" y="258.6"/><rect fill="#F1F1F1" height="2" style="stroke:#181818;stroke-width:0.5;" width="4" x="639.2432" y="260.6"/><rect fill="#F1F1F1" height="2" style="stroke:#181818;stroke-width:0.5;" width="4" x="639.2432" y="264.6"/><text fill="#000000" font-family="sans-serif" font-size="14" lengthAdjust="spacing" textLength="94.4932" x="541.75" y="286.5951">Display Menu</text></g><!--entity input--><g class="entity" data-entity="input" data-source-line="6" data-uid="ent0006" id="entity_input"><rect fill="#F1F1F1" height="46.2969" rx="2.5" ry="2.5" style="stroke:#181818;stroke-width:0.5;" width="142.0127" x="695.99" y="253.6"/><rect fill="#F1F1F1" height="10" style="stroke:#181818;stroke-width:0.5;" width="15" x="818.0027" y="258.6"/><rect fill="#F1F1F1" height="2" style="stroke:#181818;stroke-width:0.5;" width="4" x="816.0027" y="260.6"/><rect fill="#F1F1F1" height="2" style="stroke:#181818;stroke-width:0.5;" width="4" x="816.0027" y="264.6"/><text fill="#000000" font-family="sans-serif" font-size="14" lengthAdjust="spacing" textLength="102.0127" x="710.99" y="286.5951">Get User Input</text></g><!--entity display--><g class="entity" data-entity="display" data-source-line="7" data-uid="ent0007" id="entity_display"><rect fill="#F1F1F1" height="46.2969" rx="2.5" ry="2.5" style="stroke:#181818;stroke-width:0.5;" width="164.708" x="872.65" y="253.6"/><rect fill="#F1F1F1" height="10" style="stroke:#181818;stroke-width:0.5;" width="15" x="1017.358" y="258.6"/><rect fill="#F1F1F1" height="2" style="stroke:#181818;stroke-width:0.5;" width="4" x="1015.358" y="260.6"/><rect fill="#F1F1F1" height="2" style="stroke:#181818;stroke-width:0.5;" width="4" x="1015.358" y="264.6"/><text fill="#000000" font-family="sans-serif" font-size="14" lengthAdjust="spacing" textLength="124.708" x="887.65" y="286.5951">Display Messages</text></g><!--entity borrow--><g class="entity" data-entity="borrow" data-source-line="11" data-uid="ent0009" id="entity_borrow"><rect fill="#F1F1F1" height="46.2969" rx="2.5" ry="2.5" style="stroke:#181818;stroke-width:0.5;" width="169.459" x="1231.27" y="147.3"/><rect fill="#F1F1F1" height="10" style="stroke:#181818;stroke-width:0.5;" width="15" x="1380.729" y="152.3"/><rect fill="#F1F1F1" height="2" style="stroke:#181818;stroke-width:0.5;" width="4" x="1378.729" y="154.3"/><rect fill="#F1F1F1" height="2" style="stroke:#181818;stroke-width:0.5;" width="4" x="1378.729" y="158.3"/><text fill="#000000" font-family="sans-serif" font-size="14" lengthAdjust="spacing" textLength="129.459" x="1246.27" y="180.2951">Process Borrowing</text></g><!--entity validateCard--><g class="entity" data-entity="validateCard" data-source-line="12" data-uid="ent0010" id="entity_validateCard"><rect fill="#F1F1F1" height="46.2969" rx="2.5" ry="2.5" style="stroke:#181818;stroke-width:0.5;" width="134.9512" x="1572.52" y="253.6"/><rect fill="#F1F1F1" height="10" style="stroke:#181818;stroke-width:0.5;" width="15" x="1687.4712" y="258.6"/><rect fill="#F1F1F1" height="2" style="stroke:#181818;stroke-width:0.5;" width="4" x="1685.4712" y="260.6"/><rect fill="#F1F1F1" height="2" style="stroke:#181818;stroke-width:0.5;" width="4" x="1685.4712" y="264.6"/><text fill="#000000" font-family="sans-serif" font-size="14" lengthAdjust="spacing" textLength="94.9512" x="1587.52" y="286.5951">Validate Card</text></g><!--entity checkBook--><g class="entity" data-entity="checkBook" data-source-line="13" data-uid="ent0011" id="entity_checkBook"><rect fill="#F1F1F1" height="46.2969" rx="2.5" ry="2.5" style="stroke:#181818;stroke-width:0.5;" width="203.9395" x="1334.03" y="253.6"/><rect fill="#F1F1F1" height="10" style="stroke:#181818;stroke-width:0.5;" width="15" x="1517.9695" y="258.6"/><rect fill="#F1F1F1" height="2" style="stroke:#181818;stroke-width:0.5;" width="4" x="1515.9695" y="260.6"/><rect fill="#F1F1F1" height="2" style="stroke:#181818;stroke-width:0.5;" width="4" x="1515.9695" y="264.6"/><text fill="#000000" font-family="sans-serif" font-size="14" lengthAdjust="spacing" textLength="163.9395" x="1349.03" y="286.5951">Check Book Availability</text></g><!--entity checkLimits--><g class="entity" data-entity="checkLimits" data-source-line="14" data-uid="ent0012" id="entity_checkLimits"><rect fill="#F1F1F1" height="46.2969" rx="2.5" ry="2.5" style="stroke:#181818;stroke-width:0.5;" width="205.3135" x="1093.34" y="253.6"/><rect fill="#F1F1F1" height="10" style="stroke:#181818;stroke-width:0.5;" width="15" x="1278.6535" y="258.6"/><rect fill="#F1F1F1" height="2" style="stroke:#181818;stroke-width:0.5;" width="4" x="1276.6535" y="260.6"/><rect fill="#F1F1F1" height="2" style="stroke:#181818;stroke-width:0.5;" width="4" x="1276.6535" y="264.6"/><text fill="#000000" font-family="sans-serif" font-size="14" lengthAdjust="spacing" textLength="165.3135" x="1108.34" y="286.5951">Check Borrowing Limits</text></g><!--entity createRecord--><g class="entity" data-entity="createRecord" data-source-line="15" data-uid="ent0013" id="entity_createRecord"><rect fill="#F1F1F1" height="46.2969" rx="2.5" ry="2.5" style="stroke:#181818;stroke-width:0.5;" width="216.3193" x="1742.84" y="253.6"/><rect fill="#F1F1F1" height="10" style="stroke:#181818;stroke-width:0.5;" width="15" x="1939.1593" y="258.6"/><rect fill="#F1F1F1" height="2" style="stroke:#181818;stroke-width:0.5;" width="4" x="1937.1593" y="260.6"/><rect fill="#F1F1F1" height="2" style="stroke:#181818;stroke-width:0.5;" width="4" x="1937.1593" y="264.6"/><text fill="#000000" font-family="sans-serif" font-size="14" lengthAdjust="spacing" textLength="176.3193" x="1757.84" y="286.5951">Create Borrowing Record</text></g><!--entity return--><g class="entity" data-entity="return" data-source-line="19" data-uid="ent0015" id="entity_return"><rect fill="#F1F1F1" height="46.2969" rx="2.5" ry="2.5" style="stroke:#181818;stroke-width:0.5;" width="145.4443" x="2015.28" y="147.3"/><rect fill="#F1F1F1" height="10" style="stroke:#181818;stroke-width:0.5;" width="15" x="2140.7243" y="152.3"/><rect fill="#F1F1F1" height="2" style="stroke:#181818;stroke-width:0.5;" width="4" x="2138.7243" y="154.3"/><rect fill="#F1F1F1" height="2" style="stroke:#181818;stroke-width:0.5;" width="4" x="2138.7243" y="158.3"/><text fill="#000000" font-family="sans-serif" font-size="14" lengthAdjust="spacing" textLength="105.4443" x="2030.28" y="180.2951">Process Return</text></g><!--entity calcFines--><g class="entity" data-entity="calcFines" data-source-line="20" data-uid="ent0016" id="entity_calcFines"><rect fill="#F1F1F1" height="46.2969" rx="2.5" ry="2.5" style="stroke:#181818;stroke-width:0.5;" width="146.5586" x="2014.72" y="253.6"/><rect fill="#F1F1F1" height="10" style="stroke:#181818;stroke-width:0.5;" width="15" x="2141.2786" y="258.6"/><rect fill="#F1F1F1" height="2" style="stroke:#181818;stroke-width:0.5;" width="4" x="2139.2786" y="260.6"/><rect fill="#F1F1F1" height="2" style="stroke:#181818;stroke-width:0.5;" width="4" x="2139.2786" y="264.6"/><text fill="#000000" font-family="sans-serif" font-size="14" lengthAdjust="spacing" textLength="106.5586" x="2029.72" y="286.5951">Calculate Fines</text></g><!--entity updateRec--><g class="entity" data-entity="updateRec" data-source-line="21" data-uid="ent0017" id="entity_updateRec"><rect fill="#F1F1F1" height="46.2969" rx="2.5" ry="2.5" style="stroke:#181818;stroke-width:0.5;" width="151.6924" x="2196.15" y="253.6"/><rect fill="#F1F1F1" height="10" style="stroke:#181818;stroke-width:0.5;" width="15" x="2327.8424" y="258.6"/><rect fill="#F1F1F1" height="2" style="stroke:#181818;stroke-width:0.5;" width="4" x="2325.8424" y="260.6"/><rect fill="#F1F1F1" height="2" style="stroke:#181818;stroke-width:0.5;" width="4" x="2325.8424" y="264.6"/><text fill="#000000" font-family="sans-serif" font-size="14" lengthAdjust="spacing" textLength="111.6924" x="2211.15" y="286.5951">Update Records</text></g><!--entity readCard--><g class="entity" data-entity="readCard" data-source-line="25" data-uid="ent0019" id="entity_readCard"><rect fill="#F1F1F1" height="46.2969" rx="2.5" ry="2.5" style="stroke:#181818;stroke-width:0.5;" width="151.1318" x="1547.43" y="374.89"/><rect fill="#F1F1F1" height="10" style="stroke:#181818;stroke-width:0.5;" width="15" x="1678.5618" y="379.89"/><rect fill="#F1F1F1" height="2" style="stroke:#181818;stroke-width:0.5;" width="4" x="1676.5618" y="381.89"/><rect fill="#F1F1F1" height="2" style="stroke:#181818;stroke-width:0.5;" width="4" x="1676.5618" y="385.89"/><text fill="#000000" font-family="sans-serif" font-size="14" lengthAdjust="spacing" textLength="111.1318" x="1562.43" y="407.8851">Read Card Data</text></g><!--entity readBook--><g class="entity" data-entity="readBook" data-source-line="26" data-uid="ent0020" id="entity_readBook"><rect fill="#F1F1F1" height="46.2969" rx="2.5" ry="2.5" style="stroke:#181818;stroke-width:0.5;" width="152.9775" x="1359.51" y="374.89"/><rect fill="#F1F1F1" height="10" style="stroke:#181818;stroke-width:0.5;" width="15" x="1492.4875" y="379.89"/><rect fill="#F1F1F1" height="2" style="stroke:#181818;stroke-width:0.5;" width="4" x="1490.4875" y="381.89"/><rect fill="#F1F1F1" height="2" style="stroke:#181818;stroke-width:0.5;" width="4" x="1490.4875" y="385.89"/><text fill="#000000" font-family="sans-serif" font-size="14" lengthAdjust="spacing" textLength="112.9775" x="1374.51" y="407.8851">Read Book Data</text></g><!--entity writeBorrow--><g class="entity" data-entity="writeBorrow" data-source-line="27" data-uid="ent0021" id="entity_writeBorrow"><rect fill="#F1F1F1" height="46.2969" rx="2.5" ry="2.5" style="stroke:#181818;stroke-width:0.5;" width="191.2656" x="1733.37" y="374.89"/><rect fill="#F1F1F1" height="10" style="stroke:#181818;stroke-width:0.5;" width="15" x="1904.6356" y="379.89"/><rect fill="#F1F1F1" height="2" style="stroke:#181818;stroke-width:0.5;" width="4" x="1902.6356" y="381.89"/><rect fill="#F1F1F1" height="2" style="stroke:#181818;stroke-width:0.5;" width="4" x="1902.6356" y="385.89"/><text fill="#000000" font-family="sans-serif" font-size="14" lengthAdjust="spacing" textLength="151.2656" x="1748.37" y="407.8851">Write Borrowing Data</text></g><!--entity writeReturn--><g class="entity" data-entity="writeReturn" data-source-line="28" data-uid="ent0022" id="entity_writeReturn"><rect fill="#F1F1F1" height="46.2969" rx="2.5" ry="2.5" style="stroke:#181818;stroke-width:0.5;" width="167.251" x="1959.37" y="374.89"/><rect fill="#F1F1F1" height="10" style="stroke:#181818;stroke-width:0.5;" width="15" x="2106.621" y="379.89"/><rect fill="#F1F1F1" height="2" style="stroke:#181818;stroke-width:0.5;" width="4" x="2104.621" y="381.89"/><rect fill="#F1F1F1" height="2" style="stroke:#181818;stroke-width:0.5;" width="4" x="2104.621" y="385.89"/><text fill="#000000" font-family="sans-serif" font-size="14" lengthAdjust="spacing" textLength="127.251" x="1974.37" y="407.8851">Write Return Data</text></g><!--entity reports--><g class="entity" data-entity="reports" data-source-line="32" data-uid="ent0024" id="entity_reports"><rect fill="#F1F1F1" height="46.2969" rx="2.5" ry="2.5" style="stroke:#181818;stroke-width:0.5;" width="164.168" x="289.92" y="147.3"/><rect fill="#F1F1F1" height="10" style="stroke:#181818;stroke-width:0.5;" width="15" x="434.088" y="152.3"/><rect fill="#F1F1F1" height="2" style="stroke:#181818;stroke-width:0.5;" width="4" x="432.088" y="154.3"/><rect fill="#F1F1F1" height="2" style="stroke:#181818;stroke-width:0.5;" width="4" x="432.088" y="158.3"/><text fill="#000000" font-family="sans-serif" font-size="14" lengthAdjust="spacing" textLength="124.168" x="304.92" y="180.2951">Generate Reports</text></g><!--entity overdue--><g class="entity" data-entity="overdue" data-source-line="33" data-uid="ent0025" id="entity_overdue"><rect fill="#F1F1F1" height="46.2969" rx="2.5" ry="2.5" style="stroke:#181818;stroke-width:0.5;" width="198.1221" x="272.94" y="253.6"/><rect fill="#F1F1F1" height="10" style="stroke:#181818;stroke-width:0.5;" width="15" x="451.0621" y="258.6"/><rect fill="#F1F1F1" height="2" style="stroke:#181818;stroke-width:0.5;" width="4" x="449.0621" y="260.6"/><rect fill="#F1F1F1" height="2" style="stroke:#181818;stroke-width:0.5;" width="4" x="449.0621" y="264.6"/><text fill="#000000" font-family="sans-serif" font-size="14" lengthAdjust="spacing" textLength="158.1221" x="287.94" y="286.5951">Overdue Books Report</text></g><!--entity popular--><g class="entity" data-entity="popular" data-source-line="34" data-uid="ent0026" id="entity_popular"><rect fill="#F1F1F1" height="46.2969" rx="2.5" ry="2.5" style="stroke:#181818;stroke-width:0.5;" width="191.0674" x="46.47" y="253.6"/><rect fill="#F1F1F1" height="10" style="stroke:#181818;stroke-width:0.5;" width="15" x="217.5374" y="258.6"/><rect fill="#F1F1F1" height="2" style="stroke:#181818;stroke-width:0.5;" width="4" x="215.5374" y="260.6"/><rect fill="#F1F1F1" height="2" style="stroke:#181818;stroke-width:0.5;" width="4" x="215.5374" y="264.6"/><text fill="#000000" font-family="sans-serif" font-size="14" lengthAdjust="spacing" textLength="151.0674" x="61.47" y="286.5951">Popular Books Report</text></g><!--link main to menu--><g class="link" data-entity-1="main" data-entity-2="menu" data-source-line="38" data-uid="lnk27" id="link_main_menu"><path d="M748.49,87.69 C715.19,128.22 649.3883,208.3135 616.1883,248.7335" fill="none" id="main-to-menu" style="stroke:#181818;stroke-width:1;"/><polygon fill="#181818" points="612.38,253.37,621.1834,248.9541,615.5536,249.5063,615.0014,243.8764,612.38,253.37" style="stroke:#181818;stroke-width:1;"/></g><!--link main to input--><g class="link" data-entity-1="main" data-entity-2="input" data-source-line="39" data-uid="lnk28" id="link_main_input"><path d="M767,87.69 C767,128.22 767,206.95 767,247.37" fill="none" id="main-to-input" style="stroke:#181818;stroke-width:1;"/><polygon fill="#181818" points="767,253.37,771,244.37,767,248.37,763,244.37,767,253.37" style="stroke:#181818;stroke-width:1;"/></g><!--link main to borrow--><g class="link" data-entity-1="main" data-entity-2="borrow" data-source-line="40" data-uid="lnk29" id="link_main_borrow"><path d="M840.67,66.6 C952.21,69.6 1158.23,78.54 1227,104.3 C1251.93,113.64 1271.5248,128.0659 1288.3448,142.9359" fill="none" id="main-to-borrow" style="stroke:#181818;stroke-width:1;"/><polygon fill="#181818" points="1292.84,146.91,1288.7466,137.9521,1289.094,143.5983,1283.4478,143.9457,1292.84,146.91" style="stroke:#181818;stroke-width:1;"/></g><!--link main to return--><g class="link" data-entity-1="main" data-entity-2="return" data-source-line="41" data-uid="lnk30" id="link_main_return"><path d="M840.83,65.46 C1086.4,66.77 1866.41,73.35 1975,104.3 C2005.71,113.05 2031.9472,128.4998 2053.7472,143.6898" fill="none" id="main-to-return" style="stroke:#181818;stroke-width:1;"/><polygon fill="#181818" points="2058.67,147.12,2053.5726,138.6929,2054.5677,144.2615,2048.999,145.2566,2058.67,147.12" style="stroke:#181818;stroke-width:1;"/></g><!--link main to reports--><g class="link" data-entity-1="main" data-entity-2="reports" data-source-line="42" data-uid="lnk31" id="link_main_reports"><path d="M693.28,70.09 C615.73,76.06 499.31,87.46 458,104.3 C434.06,114.06 415.3912,128.2067 399.1612,142.8767" fill="none" id="main-to-reports" style="stroke:#181818;stroke-width:1;"/><polygon fill="#181818" points="394.71,146.9,404.069,143.8325,398.4193,143.5472,398.7045,137.8976,394.71,146.9" style="stroke:#181818;stroke-width:1;"/></g><!--link borrow to validateCard--><g class="link" data-entity-1="borrow" data-entity-2="validateCard" data-source-line="44" data-uid="lnk32" id="link_borrow_validateCard"><path d="M1400.96,175.24 C1447.95,179.8 1506.47,189.61 1555,210.6 C1578.38,220.71 1596.6278,234.6278 1612.6778,249.1278" fill="none" id="borrow-to-validateCard" style="stroke:#181818;stroke-width:1;"/><polygon fill="#181818" points="1617.13,253.15,1613.1332,244.1486,1613.4199,249.7982,1607.7703,250.0848,1617.13,253.15" style="stroke:#181818;stroke-width:1;"/></g><!--link borrow to checkBook--><g class="link" data-entity-1="borrow" data-entity-2="checkBook" data-source-line="45" data-uid="lnk33" id="link_borrow_checkBook"><path d="M1342.04,194.08 C1362.17,211.57 1385.3716,231.7438 1405.4816,249.2238" fill="none" id="borrow-to-checkBook" style="stroke:#181818;stroke-width:1;"/><polygon fill="#181818" points="1410.01,253.16,1405.8415,244.2368,1406.2363,249.8798,1400.5933,250.2747,1410.01,253.16" style="stroke:#181818;stroke-width:1;"/></g><!--link borrow to checkLimits--><g class="link" data-entity-1="borrow" data-entity-2="checkLimits" data-source-line="46" data-uid="lnk34" id="link_borrow_checkLimits"><path d="M1289.96,194.08 C1269.83,211.57 1246.6284,231.7438 1226.5184,249.2238" fill="none" id="borrow-to-checkLimits" style="stroke:#181818;stroke-width:1;"/><polygon fill="#181818" points="1221.99,253.16,1231.4067,250.2747,1225.7637,249.8798,1226.1585,244.2368,1221.99,253.16" style="stroke:#181818;stroke-width:1;"/></g><!--link borrow to createRecord--><g class="link" data-entity-1="borrow" data-entity-2="createRecord" data-source-line="47" data-uid="lnk35" id="link_borrow_createRecord"><path d="M1401.09,175.78 C1502.71,181.62 1666.32,193.32 1725,210.6 C1757.6,220.19 1786.528,235.2881 1811.008,250.0081" fill="none" id="borrow-to-createRecord" style="stroke:#181818;stroke-width:1;"/><polygon fill="#181818" points="1816.15,253.1,1810.4983,245.0341,1811.865,250.5234,1806.3757,251.8901,1816.15,253.1" style="stroke:#181818;stroke-width:1;"/></g><!--link borrow to display--><g class="link" data-entity-1="borrow" data-entity-2="display" data-source-line="48" data-uid="lnk36" id="link_borrow_display"><path d="M1230.78,192.9 C1229.52,193.14 1228.25,193.37 1227,193.6 C1160.97,205.5 1141.06,190.66 1077,210.6 C1045.36,220.44 1017.4815,235.4417 993.8015,250.1017" fill="none" id="borrow-to-display" style="stroke:#181818;stroke-width:1;"/><polygon fill="#181818" points="988.7,253.26,998.4578,251.9236,992.9512,250.6281,994.2467,245.1216,988.7,253.26" style="stroke:#181818;stroke-width:1;"/></g><!--link validateCard to readCard--><g class="link" data-entity-1="validateCard" data-entity-2="readCard" data-source-line="50" data-uid="lnk37" id="link_validateCard_readCard"><path d="M1636.8,300.18 C1633.76,321.51 1630.0681,347.4702 1627.0281,368.7602" fill="none" id="validateCard-to-readCard" style="stroke:#181818;stroke-width:1;"/><polygon fill="#181818" points="1626.18,374.7,1631.412,366.3558,1626.8868,369.7502,1623.4924,365.2249,1626.18,374.7" style="stroke:#181818;stroke-width:1;"/></g><!--link checkBook to readBook--><g class="link" data-entity-1="checkBook" data-entity-2="readBook" data-source-line="51" data-uid="lnk38" id="link_checkBook_readBook"><path d="M1436,300.18 C1436,321.51 1436,347.41 1436,368.7" fill="none" id="checkBook-to-readBook" style="stroke:#181818;stroke-width:1;"/><polygon fill="#181818" points="1436,374.7,1440,365.7,1436,369.7,1432,365.7,1436,374.7" style="stroke:#181818;stroke-width:1;"/></g><!--link createRecord to writeBorrow--><g class="link" data-entity-1="createRecord" data-entity-2="writeBorrow" data-source-line="52" data-uid="lnk39" id="link_createRecord_writeBorrow"><path d="M1846.86,300.18 C1842.93,321.51 1838.1392,347.5097 1834.2092,368.7997" fill="none" id="createRecord-to-writeBorrow" style="stroke:#181818;stroke-width:1;"/><polygon fill="#181818" points="1833.12,374.7,1838.6873,366.5756,1834.0276,369.7831,1830.8202,365.1234,1833.12,374.7" style="stroke:#181818;stroke-width:1;"/></g><!--link return to calcFines--><g class="link" data-entity-1="return" data-entity-2="calcFines" data-source-line="54" data-uid="lnk40" id="link_return_calcFines"><path d="M2088,194.08 C2088,211.57 2088,229.68 2088,247.16" fill="none" id="return-to-calcFines" style="stroke:#181818;stroke-width:1;"/><polygon fill="#181818" points="2088,253.16,2092,244.16,2088,248.16,2084,244.16,2088,253.16" style="stroke:#181818;stroke-width:1;"/></g><!--link return to updateRec--><g class="link" data-entity-1="return" data-entity-2="updateRec" data-source-line="55" data-uid="lnk41" id="link_return_updateRec"><path d="M2145.17,193.92 C2156.59,198.99 2168.34,204.65 2179,210.6 C2201.55,223.17 2220.5739,236.3482 2238.4639,249.7182" fill="none" id="return-to-updateRec" style="stroke:#181818;stroke-width:1;"/><polygon fill="#181818" points="2243.27,253.31,2238.4554,244.7182,2239.2649,250.3168,2233.6663,251.1263,2243.27,253.31" style="stroke:#181818;stroke-width:1;"/></g><!--link return to display--><g class="link" data-entity-1="return" data-entity-2="display" data-source-line="56" data-uid="lnk42" id="link_return_display"><path d="M2015.04,187.68 C2001.78,190.08 1988.02,192.21 1975,193.6 C1875.77,204.18 1173.58,185.45 1077,210.6 C1044.35,219.1 1015.8333,234.6395 992.2033,249.8695" fill="none" id="return-to-display" style="stroke:#181818;stroke-width:1;"/><polygon fill="#181818" points="987.16,253.12,996.8919,251.6065,991.3627,250.4113,992.5579,244.8821,987.16,253.12" style="stroke:#181818;stroke-width:1;"/></g><!--link updateRec to writeReturn--><g class="link" data-entity-1="updateRec" data-entity-2="writeReturn" data-source-line="58" data-uid="lnk43" id="link_updateRec_writeReturn"><path d="M2228.66,300.32 C2187.81,321.6 2132.2715,350.5384 2091.4915,371.7784" fill="none" id="updateRec-to-writeReturn" style="stroke:#181818;stroke-width:1;"/><polygon fill="#181818" points="2086.17,374.55,2096,373.9402,2090.6046,372.2403,2092.3044,366.8449,2086.17,374.55" style="stroke:#181818;stroke-width:1;"/></g><!--link reports to overdue--><g class="link" data-entity-1="reports" data-entity-2="overdue" data-source-line="60" data-uid="lnk44" id="link_reports_overdue"><path d="M372,194.08 C372,211.57 372,229.68 372,247.16" fill="none" id="reports-to-overdue" style="stroke:#181818;stroke-width:1;"/><polygon fill="#181818" points="372,253.16,376,244.16,372,248.16,368,244.16,372,253.16" style="stroke:#181818;stroke-width:1;"/></g><!--link reports to popular--><g class="link" data-entity-1="reports" data-entity-2="popular" data-source-line="61" data-uid="lnk45" id="link_reports_popular"><path d="M297.18,194 C282.98,198.97 268.38,204.57 255,210.6 C227.85,222.82 203.8733,236.5146 182.0233,250.0246" fill="none" id="reports-to-popular" style="stroke:#181818;stroke-width:1;"/><polygon fill="#181818" points="176.92,253.18,186.6785,251.8491,181.1727,250.5505,182.4713,245.0447,176.92,253.18" style="stroke:#181818;stroke-width:1;"/></g><!--link overdue to readBook--><g class="link" data-entity-1="overdue" data-entity-2="readBook" data-source-line="62" data-uid="lnk46" id="link_overdue_readBook"><path d="M429.65,300.36 C454.34,309.13 483.71,318.37 511,323.89 C821.05,386.66 1193.7201,396.1313 1353.3001,397.1613" fill="none" id="overdue-to-readBook" style="stroke:#181818;stroke-width:1;"/><polygon fill="#181818" points="1359.3,397.2,1350.326,393.142,1354.3001,397.1677,1350.2744,401.1418,1359.3,397.2" style="stroke:#181818;stroke-width:1;"/></g><!--link overdue to readCard--><g class="link" data-entity-1="overdue" data-entity-2="readCard" data-source-line="63" data-uid="lnk47" id="link_overdue_readCard"><path d="M426.79,300.34 C451.98,309.57 482.53,319.18 511,323.89 C566.85,333.15 1476.08,314.65 1530,331.89 C1556.48,340.36 1577.4704,355.3252 1595.0604,370.6052" fill="none" id="overdue-to-readCard" style="stroke:#181818;stroke-width:1;"/><polygon fill="#181818" points="1599.59,374.54,1595.4187,365.6181,1595.8153,371.261,1590.1724,371.6576,1599.59,374.54" style="stroke:#181818;stroke-width:1;"/></g><!--link popular to readBook--><g class="link" data-entity-1="popular" data-entity-2="readBook" data-source-line="64" data-uid="lnk48" id="link_popular_readBook"><path d="M187.62,300.34 C207.78,309.28 232.07,318.65 255,323.89 C466.4,372.23 1126.3614,390.4592 1353.3414,395.4092" fill="none" id="popular-to-readBook" style="stroke:#181818;stroke-width:1;"/><polygon fill="#181818" points="1359.34,395.54,1350.4294,391.3447,1354.3412,395.431,1350.2549,399.3428,1359.34,395.54" style="stroke:#181818;stroke-width:1;"/></g><!--SRC=[TLF1RXmX3BtFLw3SymkLaeqQLKgKQgiaXwe7B-CaQ6S10RFHgkg_5smF0xlA3R_ti1-syQ3ty8xgwi7i0eIJUWIRumFQf7wTOiB3bVexAFNx4OnL6sTJSDE4uO-2g0uP6pBfboJF4OFwOHE6Dz38D_FTEnFz13atsfalvWDJzvYKtF9p8jAKq_d567E1IFp8O5RywuhVkX3Sfx7ldV6SvMTmEYTGLK1fTXInuWKcCq92jO4m4diKf02isNoWtkSSRgzkZc0cs9d9f1EfTU4ArKiNFm_cO59SbHoBDc0fl8gtg9sOqCGnSF7SBQOvsA_UoYnb2NIKQZ3fUIe5lnih_TGPeuWbpvuwmLLPCHEKaGiJTv1W1n7LayS0oJWRgvKjmaWDLKKbLc1SEqe2QcWdMFlu6apNcYhxBCHjCq1MIajwsNPv_ddxl0ifPwr-xz6MDvGqXOfYYCwiU3fY66Sapr5af79Co0YSpoqEbohF15d9PihlKTVNt_Wtr8ZNluQofZMMQJOn6nnOI5Ytl0s-hkavA1lPmktkDVZo-uQsY3YHuTOo5QQQRKPYsYaE_2ukNHUo0TSTRC1gfh9hOfdx80qYOfbJYorJ4QxtV0xI- -H6f_mF]--></g></svg>