<svg xmlns="http://www.w3.org/2000/svg" xmlns:xlink="http://www.w3.org/1999/xlink" contentStyleType="text/css" data-diagram-type="DESCRIPTION" height="652px" preserveAspectRatio="none" style="width:1371px;height:652px;background:#FFFFFF;" version="1.1" viewBox="0 0 1371 652" width="1371px" zoomAndPan="magnify"><defs/><g><!--cluster Basic Operations--><g class="cluster" data-entity="Basic Operations" data-source-line="1" data-uid="ent0002" id="cluster_Basic Operations"><path d="M8.5,6 L143.1016,6 A3.75,3.75 0 0 1 145.6016,8.5 L152.6016,28.2969 L404.5,28.2969 A2.5,2.5 0 0 1 407,30.7969 L407,223.09 A2.5,2.5 0 0 1 404.5,225.59 L8.5,225.59 A2.5,2.5 0 0 1 6,223.09 L6,8.5 A2.5,2.5 0 0 1 8.5,6" fill="none" style="stroke:#000000;stroke-width:1.5;"/><line style="stroke:#000000;stroke-width:1.5;" x1="6" x2="152.6016" y1="28.2969" y2="28.2969"/><text fill="#000000" font-family="sans-serif" font-size="14" font-weight="bold" lengthAdjust="spacing" textLength="133.6016" x="10" y="20.9951">Basic Operations</text></g><!--cluster Advanced Operations--><g class="cluster" data-entity="Advanced Operations" data-source-line="8" data-uid="ent0007" id="cluster_Advanced Operations"><path d="M989.5,265.59 L1159.7646,265.59 A3.75,3.75 0 0 1 1162.2646,268.09 L1169.2646,287.8869 L1361.5,287.8869 A2.5,2.5 0 0 1 1364,290.3869 L1364,489.68 A2.5,2.5 0 0 1 1361.5,492.18 L989.5,492.18 A2.5,2.5 0 0 1 987,489.68 L987,268.09 A2.5,2.5 0 0 1 989.5,265.59" fill="none" style="stroke:#000000;stroke-width:1.5;"/><line style="stroke:#000000;stroke-width:1.5;" x1="987" x2="1169.2646" y1="287.8869" y2="287.8869"/><text fill="#000000" font-family="sans-serif" font-size="14" font-weight="bold" lengthAdjust="spacing" textLength="169.2646" x="991" y="280.5851">Advanced Operations</text></g><!--cluster Input/Output--><g class="cluster" data-entity="Input/Output" data-source-line="14" data-uid="ent0011" id="cluster_Input/Output"><path d="M15.5,265.59 L118.7109,265.59 A3.75,3.75 0 0 1 121.2109,268.09 L128.2109,287.8869 L424.5,287.8869 A2.5,2.5 0 0 1 427,290.3869 L427,489.68 A2.5,2.5 0 0 1 424.5,492.18 L15.5,492.18 A2.5,2.5 0 0 1 13,489.68 L13,268.09 A2.5,2.5 0 0 1 15.5,265.59" fill="none" style="stroke:#000000;stroke-width:1.5;"/><line style="stroke:#000000;stroke-width:1.5;" x1="13" x2="128.2109" y1="287.8869" y2="287.8869"/><text fill="#000000" font-family="sans-serif" font-size="14" font-weight="bold" lengthAdjust="spacing" textLength="102.2109" x="17" y="280.5851">Input/Output</text></g><!--cluster Calculator Engine--><g class="cluster" data-entity="Calculator Engine" data-source-line="20" data-uid="ent0015" id="cluster_Calculator Engine"><path d="M469.5,378.89 L609.4336,378.89 A3.75,3.75 0 0 1 611.9336,381.39 L618.9336,401.1869 L944.5,401.1869 A2.5,2.5 0 0 1 947,403.6869 L947,489.68 A2.5,2.5 0 0 1 944.5,492.18 L469.5,492.18 A2.5,2.5 0 0 1 467,489.68 L467,381.39 A2.5,2.5 0 0 1 469.5,378.89" fill="none" style="stroke:#000000;stroke-width:1.5;"/><line style="stroke:#000000;stroke-width:1.5;" x1="467" x2="618.9336" y1="401.1869" y2="401.1869"/><text fill="#000000" font-family="sans-serif" font-size="14" font-weight="bold" lengthAdjust="spacing" textLength="138.9336" x="471" y="393.8851">Calculator Engine</text></g><!--cluster Calculator Application--><g class="cluster" data-entity="Calculator Application" data-source-line="25" data-uid="ent0018" id="cluster_Calculator Application"><path d="M469.5,532.18 L644.9189,532.18 A3.75,3.75 0 0 1 647.4189,534.68 L654.4189,554.4769 L853.5,554.4769 A2.5,2.5 0 0 1 856,556.9769 L856,642.98 A2.5,2.5 0 0 1 853.5,645.48 L469.5,645.48 A2.5,2.5 0 0 1 467,642.98 L467,534.68 A2.5,2.5 0 0 1 469.5,532.18" fill="none" style="stroke:#000000;stroke-width:1.5;"/><line style="stroke:#000000;stroke-width:1.5;" x1="467" x2="654.4189" y1="554.4769" y2="554.4769"/><text fill="#000000" font-family="sans-serif" font-size="14" font-weight="bold" lengthAdjust="spacing" textLength="174.4189" x="471" y="547.1751">Calculator Application</text></g><!--entity Add Function--><g class="entity" data-entity="Add Function" data-source-line="2" data-uid="ent0003" id="entity_Add Function"><rect fill="#F1F1F1" height="46.2969" rx="2.5" ry="2.5" style="stroke:#181818;stroke-width:0.5;" width="132.1143" x="31.94" y="49"/><rect fill="#F1F1F1" height="10" style="stroke:#181818;stroke-width:0.5;" width="15" x="144.0543" y="54"/><rect fill="#F1F1F1" height="2" style="stroke:#181818;stroke-width:0.5;" width="4" x="142.0543" y="56"/><rect fill="#F1F1F1" height="2" style="stroke:#181818;stroke-width:0.5;" width="4" x="142.0543" y="60"/><text fill="#000000" font-family="sans-serif" font-size="14" lengthAdjust="spacing" textLength="92.1143" x="46.94" y="81.9951">Add Function</text></g><!--entity Subtract Function--><g class="entity" data-entity="Subtract Function" data-source-line="3" data-uid="ent0004" id="entity_Subtract Function"><rect fill="#F1F1F1" height="46.2969" rx="2.5" ry="2.5" style="stroke:#181818;stroke-width:0.5;" width="164.4209" x="198.79" y="49"/><rect fill="#F1F1F1" height="10" style="stroke:#181818;stroke-width:0.5;" width="15" x="343.2109" y="54"/><rect fill="#F1F1F1" height="2" style="stroke:#181818;stroke-width:0.5;" width="4" x="341.2109" y="56"/><rect fill="#F1F1F1" height="2" style="stroke:#181818;stroke-width:0.5;" width="4" x="341.2109" y="60"/><text fill="#000000" font-family="sans-serif" font-size="14" lengthAdjust="spacing" textLength="124.4209" x="213.79" y="81.9951">Subtract Function</text></g><!--entity Multiply Function--><g class="entity" data-entity="Multiply Function" data-source-line="4" data-uid="ent0005" id="entity_Multiply Function"><rect fill="#F1F1F1" height="46.2969" rx="2.5" ry="2.5" style="stroke:#181818;stroke-width:0.5;" width="160.0459" x="29.98" y="155.29"/><rect fill="#F1F1F1" height="10" style="stroke:#181818;stroke-width:0.5;" width="15" x="170.0259" y="160.29"/><rect fill="#F1F1F1" height="2" style="stroke:#181818;stroke-width:0.5;" width="4" x="168.0259" y="162.29"/><rect fill="#F1F1F1" height="2" style="stroke:#181818;stroke-width:0.5;" width="4" x="168.0259" y="166.29"/><text fill="#000000" font-family="sans-serif" font-size="14" lengthAdjust="spacing" textLength="120.0459" x="44.98" y="188.2851">Multiply Function</text></g><!--entity Divide Function--><g class="entity" data-entity="Divide Function" data-source-line="5" data-uid="ent0006" id="entity_Divide Function"><rect fill="#F1F1F1" height="46.2969" rx="2.5" ry="2.5" style="stroke:#181818;stroke-width:0.5;" width="149.1084" x="225.45" y="155.29"/><rect fill="#F1F1F1" height="10" style="stroke:#181818;stroke-width:0.5;" width="15" x="354.5584" y="160.29"/><rect fill="#F1F1F1" height="2" style="stroke:#181818;stroke-width:0.5;" width="4" x="352.5584" y="162.29"/><rect fill="#F1F1F1" height="2" style="stroke:#181818;stroke-width:0.5;" width="4" x="352.5584" y="166.29"/><text fill="#000000" font-family="sans-serif" font-size="14" lengthAdjust="spacing" textLength="109.1084" x="240.45" y="188.2851">Divide Function</text></g><!--entity Square Root--><g class="entity" data-entity="Square Root" data-source-line="9" data-uid="ent0008" id="entity_Square Root"><rect fill="#F1F1F1" height="46.2969" rx="2.5" ry="2.5" style="stroke:#181818;stroke-width:0.5;" width="126.3926" x="1030.8" y="308.59"/><rect fill="#F1F1F1" height="10" style="stroke:#181818;stroke-width:0.5;" width="15" x="1137.1926" y="313.59"/><rect fill="#F1F1F1" height="2" style="stroke:#181818;stroke-width:0.5;" width="4" x="1135.1926" y="315.59"/><rect fill="#F1F1F1" height="2" style="stroke:#181818;stroke-width:0.5;" width="4" x="1135.1926" y="319.59"/><text fill="#000000" font-family="sans-serif" font-size="14" lengthAdjust="spacing" textLength="86.3926" x="1045.8" y="341.5851">Square Root</text></g><!--entity Power Function--><g class="entity" data-entity="Power Function" data-source-line="10" data-uid="ent0009" id="entity_Power Function"><rect fill="#F1F1F1" height="46.2969" rx="2.5" ry="2.5" style="stroke:#181818;stroke-width:0.5;" width="147.5908" x="1192.2" y="308.59"/><rect fill="#F1F1F1" height="10" style="stroke:#181818;stroke-width:0.5;" width="15" x="1319.7908" y="313.59"/><rect fill="#F1F1F1" height="2" style="stroke:#181818;stroke-width:0.5;" width="4" x="1317.7908" y="315.59"/><rect fill="#F1F1F1" height="2" style="stroke:#181818;stroke-width:0.5;" width="4" x="1317.7908" y="319.59"/><text fill="#000000" font-family="sans-serif" font-size="14" lengthAdjust="spacing" textLength="107.5908" x="1207.2" y="341.5851">Power Function</text></g><!--entity Percentage--><g class="entity" data-entity="Percentage" data-source-line="11" data-uid="ent0010" id="entity_Percentage"><rect fill="#F1F1F1" height="46.2969" rx="2.5" ry="2.5" style="stroke:#181818;stroke-width:0.5;" width="119.5635" x="1034.22" y="421.89"/><rect fill="#F1F1F1" height="10" style="stroke:#181818;stroke-width:0.5;" width="15" x="1133.7835" y="426.89"/><rect fill="#F1F1F1" height="2" style="stroke:#181818;stroke-width:0.5;" width="4" x="1131.7835" y="428.89"/><rect fill="#F1F1F1" height="2" style="stroke:#181818;stroke-width:0.5;" width="4" x="1131.7835" y="432.89"/><text fill="#000000" font-family="sans-serif" font-size="14" lengthAdjust="spacing" textLength="79.5635" x="1049.22" y="454.8851">Percentage</text></g><!--entity Number Parser--><g class="entity" data-entity="Number Parser" data-source-line="15" data-uid="ent0012" id="entity_Number Parser"><rect fill="#F1F1F1" height="46.2969" rx="2.5" ry="2.5" style="stroke:#181818;stroke-width:0.5;" width="145.1299" x="37.44" y="308.59"/><rect fill="#F1F1F1" height="10" style="stroke:#181818;stroke-width:0.5;" width="15" x="162.5699" y="313.59"/><rect fill="#F1F1F1" height="2" style="stroke:#181818;stroke-width:0.5;" width="4" x="160.5699" y="315.59"/><rect fill="#F1F1F1" height="2" style="stroke:#181818;stroke-width:0.5;" width="4" x="160.5699" y="319.59"/><text fill="#000000" font-family="sans-serif" font-size="14" lengthAdjust="spacing" textLength="105.1299" x="52.44" y="341.5851">Number Parser</text></g><!--entity Display Formatter--><g class="entity" data-entity="Display Formatter" data-source-line="16" data-uid="ent0013" id="entity_Display Formatter"><rect fill="#F1F1F1" height="46.2969" rx="2.5" ry="2.5" style="stroke:#181818;stroke-width:0.5;" width="165.9932" x="218" y="308.59"/><rect fill="#F1F1F1" height="10" style="stroke:#181818;stroke-width:0.5;" width="15" x="363.9932" y="313.59"/><rect fill="#F1F1F1" height="2" style="stroke:#181818;stroke-width:0.5;" width="4" x="361.9932" y="315.59"/><rect fill="#F1F1F1" height="2" style="stroke:#181818;stroke-width:0.5;" width="4" x="361.9932" y="319.59"/><text fill="#000000" font-family="sans-serif" font-size="14" lengthAdjust="spacing" textLength="125.9932" x="233" y="341.5851">Display Formatter</text></g><!--entity Error Handler--><g class="entity" data-entity="Error Handler" data-source-line="17" data-uid="ent0014" id="entity_Error Handler"><rect fill="#F1F1F1" height="46.2969" rx="2.5" ry="2.5" style="stroke:#181818;stroke-width:0.5;" width="134.2539" x="42.87" y="421.89"/><rect fill="#F1F1F1" height="10" style="stroke:#181818;stroke-width:0.5;" width="15" x="157.1239" y="426.89"/><rect fill="#F1F1F1" height="2" style="stroke:#181818;stroke-width:0.5;" width="4" x="155.1239" y="428.89"/><rect fill="#F1F1F1" height="2" style="stroke:#181818;stroke-width:0.5;" width="4" x="155.1239" y="432.89"/><text fill="#000000" font-family="sans-serif" font-size="14" lengthAdjust="spacing" textLength="94.2539" x="57.87" y="454.8851">Error Handler</text></g><!--entity Expression Evaluator--><g class="entity" data-entity="Expression Evaluator" data-source-line="21" data-uid="ent0016" id="entity_Expression Evaluator"><rect fill="#F1F1F1" height="46.2969" rx="2.5" ry="2.5" style="stroke:#181818;stroke-width:0.5;" width="187.6152" x="735.19" y="421.89"/><rect fill="#F1F1F1" height="10" style="stroke:#181818;stroke-width:0.5;" width="15" x="902.8052" y="426.89"/><rect fill="#F1F1F1" height="2" style="stroke:#181818;stroke-width:0.5;" width="4" x="900.8052" y="428.89"/><rect fill="#F1F1F1" height="2" style="stroke:#181818;stroke-width:0.5;" width="4" x="900.8052" y="432.89"/><text fill="#000000" font-family="sans-serif" font-size="14" lengthAdjust="spacing" textLength="147.6152" x="750.19" y="454.8851">Expression Evaluator</text></g><!--entity Operation Dispatcher--><g class="entity" data-entity="Operation Dispatcher" data-source-line="22" data-uid="ent0017" id="entity_Operation Dispatcher"><rect fill="#F1F1F1" height="46.2969" rx="2.5" ry="2.5" style="stroke:#181818;stroke-width:0.5;" width="189.9805" x="510.01" y="421.89"/><rect fill="#F1F1F1" height="10" style="stroke:#181818;stroke-width:0.5;" width="15" x="679.9905" y="426.89"/><rect fill="#F1F1F1" height="2" style="stroke:#181818;stroke-width:0.5;" width="4" x="677.9905" y="428.89"/><rect fill="#F1F1F1" height="2" style="stroke:#181818;stroke-width:0.5;" width="4" x="677.9905" y="432.89"/><text fill="#000000" font-family="sans-serif" font-size="14" lengthAdjust="spacing" textLength="149.9805" x="525.01" y="454.8851">Operation Dispatcher</text></g><!--entity User Interface--><g class="entity" data-entity="User Interface" data-source-line="26" data-uid="ent0019" id="entity_User Interface"><rect fill="#F1F1F1" height="46.2969" rx="2.5" ry="2.5" style="stroke:#181818;stroke-width:0.5;" width="139.0391" x="692.48" y="575.18"/><rect fill="#F1F1F1" height="10" style="stroke:#181818;stroke-width:0.5;" width="15" x="811.5191" y="580.18"/><rect fill="#F1F1F1" height="2" style="stroke:#181818;stroke-width:0.5;" width="4" x="809.5191" y="582.18"/><rect fill="#F1F1F1" height="2" style="stroke:#181818;stroke-width:0.5;" width="4" x="809.5191" y="586.18"/><text fill="#000000" font-family="sans-serif" font-size="14" lengthAdjust="spacing" textLength="99.0391" x="707.48" y="608.1751">User Interface</text></g><!--entity Main Controller--><g class="entity" data-entity="Main Controller" data-source-line="27" data-uid="ent0020" id="entity_Main Controller"><rect fill="#F1F1F1" height="46.2969" rx="2.5" ry="2.5" style="stroke:#181818;stroke-width:0.5;" width="147.0439" x="510.48" y="575.18"/><rect fill="#F1F1F1" height="10" style="stroke:#181818;stroke-width:0.5;" width="15" x="637.5239" y="580.18"/><rect fill="#F1F1F1" height="2" style="stroke:#181818;stroke-width:0.5;" width="4" x="635.5239" y="582.18"/><rect fill="#F1F1F1" height="2" style="stroke:#181818;stroke-width:0.5;" width="4" x="635.5239" y="586.18"/><text fill="#000000" font-family="sans-serif" font-size="14" lengthAdjust="spacing" textLength="107.0439" x="525.48" y="608.1751">Main Controller</text></g><!--link Basic Operations to Calculator Engine--><g class="link" data-entity-1="Basic Operations" data-entity-2="Calculator Engine" data-source-line="30" data-uid="lnk21" id="link_Basic Operations_Calculator Engine"><path d="M407.1899,113.1247 C407.2848,113.5878 407.3804,114.0541 407.4766,114.5237 C407.8615,116.4018 408.2569,118.3312 408.6623,120.3092 C409.473,124.2653 410.3236,128.4156 411.2095,132.7388 C418.2972,167.3238 427.6506,212.965 437.0037,258.605 C446.3569,304.245 455.7097,349.8838 462.7961,384.4638 C463.6819,388.7863 464.5323,392.936 465.3428,396.8913 C465.7481,398.8689 466.1434,400.798 466.5282,402.6758 C466.6244,403.1452 466.72,403.6114 466.8148,404.0744 C466.8623,404.3059 465.705,398.6587 465.7521,398.8886" fill="none" id="Basic Operations-to-Calculator Engine" style="stroke:#181818;stroke-width:1;"/><polygon fill="#181818" points="466.9567,404.7665,469.0684,395.1467,465.9529,399.8683,461.2313,396.7527,466.9567,404.7665" style="stroke:#181818;stroke-width:1;"/></g><!--link Advanced Operations to Calculator Engine--><g class="link" data-entity-1="Advanced Operations" data-entity-2="Calculator Engine" data-source-line="31" data-uid="lnk22" id="link_Advanced Operations_Calculator Engine"><path d="M986.7751,332.9549 C986.242,332.9692 985.6844,332.9843 985.1028,333 C983.9396,333.0315 982.6804,333.0658 981.3286,333.1029 C978.625,333.177 975.5512,333.2622 972.1351,333.3583 C958.4709,333.7428 939.3305,334.3015 916.5036,335.0223 C870.8497,336.4641 810.4494,338.5544 749.6188,341.1963 C627.9575,346.48 504.575,353.97 494,362.89 C490.57,365.7813 487.692,369.1622 485.2827,372.8718 C484.078,374.7266 485.6333,371.277 484.6525,373.276" fill="none" id="Advanced Operations-to-Calculator Engine" style="stroke:#181818;stroke-width:1;"/><polygon fill="#181818" points="482.0097,378.6627,489.565,372.3446,484.2121,374.1738,482.3829,368.8209,482.0097,378.6627" style="stroke:#181818;stroke-width:1;"/></g><!--link Input/Output to Calculator Engine--><g class="link" data-entity-1="Input/Output" data-entity-2="Calculator Engine" data-source-line="32" data-uid="lnk23" id="link_Input/Output_Calculator Engine"><path d="M427.0643,348.7672 C427.1414,348.9204 427.2189,349.0745 427.2968,349.2293 C427.6085,349.8488 427.9269,350.4814 428.2514,351.1264 C433.4441,361.4459 440.2281,374.9281 447.0113,388.4088 C453.7944,401.8894 460.5766,415.3684 465.7655,425.6817 C466.0898,426.3263 466.4079,426.9585 466.7193,427.5776 C466.7972,427.7324 464.178,422.5264 464.255,422.6796" fill="none" id="Input/Output-to-Calculator Engine" style="stroke:#181818;stroke-width:1;"/><polygon fill="#181818" points="466.9517,428.0394,466.4799,418.2019,464.7045,423.5729,459.3335,421.7974,466.9517,428.0394" style="stroke:#181818;stroke-width:1;"/></g><!--link Calculator Engine to Calculator Application--><g class="link" data-entity-1="Calculator Engine" data-entity-2="Calculator Application" data-source-line="33" data-uid="lnk24" id="link_Calculator Engine_Calculator Application"><path d="M475,492.3429 C475,492.6091 475,492.876 475,493.1434 C475,493.6782 475,494.2153 475,494.7544 C475,503.3808 475,512.5444 475,521.7075 C475,523.9983 475,526.289 475,528.5714 C475,529.7125 475,524.8516 475,525.9875" fill="none" id="Calculator Engine-to-Calculator Application" style="stroke:#181818;stroke-width:1;"/><polygon fill="#181818" points="475,531.9875,479,522.9875,475,526.9875,471,522.9875,475,531.9875" style="stroke:#181818;stroke-width:1;"/></g><!--SRC=[VP51JiCm44NtESMe-ueR88KIH1VGY8fLbCNK7eg5Qvl9E80GTyS9AKe8oihIyy-Rxqb0zO97WjKLDaR1BX2Z6E-Q5Nnc05MkDTn4fpfMTs0V3yAeP4hleXKJxCUKNflMQ1gnhomBvu6vRj4fqlEP-zU8JF3WlVIQqhyHJyqbiI8dIJILRbs8Sh6Baex1TXzFX_HvYTmG3xMQO35rzNn2aO4Mp9xX5fss7HbRDsXLj2Zfld17usXG5- -1gMbIAIXQjB5BzAxV9q4t2qKzBoZp4AnHVNpmFgQci7MfsHCg-bam6WSRxuIzFVUh_lwp6jRhIwXcTUki-cVR2-dn6XTYSpRBZXvNVmC0]--></g></svg>