<svg xmlns="http://www.w3.org/2000/svg" xmlns:xlink="http://www.w3.org/1999/xlink" contentStyleType="text/css" data-diagram-type="DESCRIPTION" height="559px" preserveAspectRatio="none" style="width:1339px;height:559px;background:#FFFFFF;" version="1.1" viewBox="0 0 1339 559" width="1339px" zoomAndPan="magnify"><defs/><g><!--cluster Student Report System--><g class="cluster" data-entity="Student Report System" data-source-line="1" data-uid="ent0002" id="cluster_Student Report System"><path d="M8.5,6 L193.9951,6 A3.75,3.75 0 0 1 196.4951,8.5 L203.4951,28.2969 L1329.5,28.2969 A2.5,2.5 0 0 1 1332,30.7969 L1332,549.98 A2.5,2.5 0 0 1 1329.5,552.48 L8.5,552.48 A2.5,2.5 0 0 1 6,549.98 L6,8.5 A2.5,2.5 0 0 1 8.5,6" fill="none" style="stroke:#000000;stroke-width:1.5;"/><line style="stroke:#000000;stroke-width:1.5;" x1="6" x2="203.4951" y1="28.2969" y2="28.2969"/><text fill="#000000" font-family="sans-serif" font-size="14" font-weight="bold" lengthAdjust="spacing" textLength="184.4951" x="10" y="20.9951">Student Report System</text></g><!--cluster Data Management--><g class="cluster" data-entity="Data Management" data-source-line="4" data-uid="ent0004" id="cluster_Data Management"><path d="M32.5,112.29 L178.6338,112.29 A3.75,3.75 0 0 1 181.1338,114.79 L188.1338,134.5869 L231.5,134.5869 A2.5,2.5 0 0 1 234,137.0869 L234,419.68 A2.5,2.5 0 0 1 231.5,422.18 L32.5,422.18 A2.5,2.5 0 0 1 30,419.68 L30,114.79 A2.5,2.5 0 0 1 32.5,112.29" fill="none" style="stroke:#000000;stroke-width:1.5;"/><line style="stroke:#000000;stroke-width:1.5;" x1="30" x2="188.1338" y1="134.5869" y2="134.5869"/><text fill="#000000" font-family="sans-serif" font-size="14" font-weight="bold" lengthAdjust="spacing" textLength="145.1338" x="34" y="127.2851">Data Management</text></g><!--cluster Grade Calculations--><g class="cluster" data-entity="Grade Calculations" data-source-line="10" data-uid="ent0008" id="cluster_Grade Calculations"><path d="M260.5,218.59 L410.1748,218.59 A3.75,3.75 0 0 1 412.6748,221.09 L419.6748,240.8869 L643.5,240.8869 A2.5,2.5 0 0 1 646,243.3869 L646,525.98 A2.5,2.5 0 0 1 643.5,528.48 L260.5,528.48 A2.5,2.5 0 0 1 258,525.98 L258,221.09 A2.5,2.5 0 0 1 260.5,218.59" fill="none" style="stroke:#000000;stroke-width:1.5;"/><line style="stroke:#000000;stroke-width:1.5;" x1="258" x2="419.6748" y1="240.8869" y2="240.8869"/><text fill="#000000" font-family="sans-serif" font-size="14" font-weight="bold" lengthAdjust="spacing" textLength="148.6748" x="262" y="233.5851">Grade Calculations</text></g><!--cluster Report Generation--><g class="cluster" data-entity="Report Generation" data-source-line="17" data-uid="ent0013" id="cluster_Report Generation"><path d="M672.5,112.29 L819.7617,112.29 A3.75,3.75 0 0 1 822.2617,114.79 L829.2617,134.5869 L1305.5,134.5869 A2.5,2.5 0 0 1 1308,137.0869 L1308,313.39 A2.5,2.5 0 0 1 1305.5,315.89 L672.5,315.89 A2.5,2.5 0 0 1 670,313.39 L670,114.79 A2.5,2.5 0 0 1 672.5,112.29" fill="none" style="stroke:#000000;stroke-width:1.5;"/><line style="stroke:#000000;stroke-width:1.5;" x1="670" x2="829.2617" y1="134.5869" y2="134.5869"/><text fill="#000000" font-family="sans-serif" font-size="14" font-weight="bold" lengthAdjust="spacing" textLength="146.2617" x="674" y="127.2851">Report Generation</text></g><!--entity main--><g class="entity" data-entity="main" data-source-line="2" data-uid="ent0003" id="entity_main"><rect fill="#F1F1F1" height="46.2969" rx="2.5" ry="2.5" style="stroke:#181818;stroke-width:0.5;" width="137.4941" x="293.25" y="41"/><rect fill="#F1F1F1" height="10" style="stroke:#181818;stroke-width:0.5;" width="15" x="410.7441" y="46"/><rect fill="#F1F1F1" height="2" style="stroke:#181818;stroke-width:0.5;" width="4" x="408.7441" y="48"/><rect fill="#F1F1F1" height="2" style="stroke:#181818;stroke-width:0.5;" width="4" x="408.7441" y="52"/><text fill="#000000" font-family="sans-serif" font-size="14" lengthAdjust="spacing" textLength="97.4941" x="308.25" y="73.9951">Main Program</text></g><!--entity read--><g class="entity" data-entity="read" data-source-line="5" data-uid="ent0005" id="entity_read"><rect fill="#F1F1F1" height="46.2969" rx="2.5" ry="2.5" style="stroke:#181818;stroke-width:0.5;" width="171.5576" x="46.22" y="147.29"/><rect fill="#F1F1F1" height="10" style="stroke:#181818;stroke-width:0.5;" width="15" x="197.7776" y="152.29"/><rect fill="#F1F1F1" height="2" style="stroke:#181818;stroke-width:0.5;" width="4" x="195.7776" y="154.29"/><rect fill="#F1F1F1" height="2" style="stroke:#181818;stroke-width:0.5;" width="4" x="195.7776" y="158.29"/><text fill="#000000" font-family="sans-serif" font-size="14" lengthAdjust="spacing" textLength="131.5576" x="61.22" y="180.2851">Read Student Files</text></g><!--entity validate--><g class="entity" data-entity="validate" data-source-line="6" data-uid="ent0006" id="entity_validate"><rect fill="#F1F1F1" height="46.2969" rx="2.5" ry="2.5" style="stroke:#181818;stroke-width:0.5;" width="135.3818" x="64.31" y="253.59"/><rect fill="#F1F1F1" height="10" style="stroke:#181818;stroke-width:0.5;" width="15" x="179.6918" y="258.59"/><rect fill="#F1F1F1" height="2" style="stroke:#181818;stroke-width:0.5;" width="4" x="177.6918" y="260.59"/><rect fill="#F1F1F1" height="2" style="stroke:#181818;stroke-width:0.5;" width="4" x="177.6918" y="264.59"/><text fill="#000000" font-family="sans-serif" font-size="14" lengthAdjust="spacing" textLength="95.3818" x="79.31" y="286.5851">Validate Data</text></g><!--entity store--><g class="entity" data-entity="store" data-source-line="7" data-uid="ent0007" id="entity_store"><rect fill="#F1F1F1" height="46.2969" rx="2.5" ry="2.5" style="stroke:#181818;stroke-width:0.5;" width="155.9102" x="54.04" y="359.89"/><rect fill="#F1F1F1" height="10" style="stroke:#181818;stroke-width:0.5;" width="15" x="189.9502" y="364.89"/><rect fill="#F1F1F1" height="2" style="stroke:#181818;stroke-width:0.5;" width="4" x="187.9502" y="366.89"/><rect fill="#F1F1F1" height="2" style="stroke:#181818;stroke-width:0.5;" width="4" x="187.9502" y="370.89"/><text fill="#000000" font-family="sans-serif" font-size="14" lengthAdjust="spacing" textLength="115.9102" x="69.04" y="392.8851">Store in Memory</text></g><!--entity average--><g class="entity" data-entity="average" data-source-line="11" data-uid="ent0009" id="entity_average"><rect fill="#F1F1F1" height="46.2969" rx="2.5" ry="2.5" style="stroke:#181818;stroke-width:0.5;" width="175.4404" x="274.28" y="253.59"/><rect fill="#F1F1F1" height="10" style="stroke:#181818;stroke-width:0.5;" width="15" x="429.7204" y="258.59"/><rect fill="#F1F1F1" height="2" style="stroke:#181818;stroke-width:0.5;" width="4" x="427.7204" y="260.59"/><rect fill="#F1F1F1" height="2" style="stroke:#181818;stroke-width:0.5;" width="4" x="427.7204" y="264.59"/><text fill="#000000" font-family="sans-serif" font-size="14" lengthAdjust="spacing" textLength="135.4404" x="289.28" y="286.5851">Calculate Averages</text></g><!--entity letterGrade--><g class="entity" data-entity="letterGrade" data-source-line="12" data-uid="ent0010" id="entity_letterGrade"><rect fill="#F1F1F1" height="46.2969" rx="2.5" ry="2.5" style="stroke:#181818;stroke-width:0.5;" width="186.4531" x="273.77" y="359.89"/><rect fill="#F1F1F1" height="10" style="stroke:#181818;stroke-width:0.5;" width="15" x="440.2231" y="364.89"/><rect fill="#F1F1F1" height="2" style="stroke:#181818;stroke-width:0.5;" width="4" x="438.2231" y="366.89"/><rect fill="#F1F1F1" height="2" style="stroke:#181818;stroke-width:0.5;" width="4" x="438.2231" y="370.89"/><text fill="#000000" font-family="sans-serif" font-size="14" lengthAdjust="spacing" textLength="146.4531" x="288.77" y="392.8851">Assign Letter Grades</text></g><!--entity gpa--><g class="entity" data-entity="gpa" data-source-line="13" data-uid="ent0011" id="entity_gpa"><rect fill="#F1F1F1" height="46.2969" rx="2.5" ry="2.5" style="stroke:#181818;stroke-width:0.5;" width="138.7041" x="297.65" y="466.18"/><rect fill="#F1F1F1" height="10" style="stroke:#181818;stroke-width:0.5;" width="15" x="416.3541" y="471.18"/><rect fill="#F1F1F1" height="2" style="stroke:#181818;stroke-width:0.5;" width="4" x="414.3541" y="473.18"/><rect fill="#F1F1F1" height="2" style="stroke:#181818;stroke-width:0.5;" width="4" x="414.3541" y="477.18"/><text fill="#000000" font-family="sans-serif" font-size="14" lengthAdjust="spacing" textLength="98.7041" x="312.65" y="499.1751">Calculate GPA</text></g><!--entity classStats--><g class="entity" data-entity="classStats" data-source-line="14" data-uid="ent0012" id="entity_classStats"><rect fill="#F1F1F1" height="46.2969" rx="2.5" ry="2.5" style="stroke:#181818;stroke-width:0.5;" width="145.2803" x="484.36" y="253.59"/><rect fill="#F1F1F1" height="10" style="stroke:#181818;stroke-width:0.5;" width="15" x="609.6403" y="258.59"/><rect fill="#F1F1F1" height="2" style="stroke:#181818;stroke-width:0.5;" width="4" x="607.6403" y="260.59"/><rect fill="#F1F1F1" height="2" style="stroke:#181818;stroke-width:0.5;" width="4" x="607.6403" y="264.59"/><text fill="#000000" font-family="sans-serif" font-size="14" lengthAdjust="spacing" textLength="105.2803" x="499.36" y="286.5851">Class Statistics</text></g><!--entity individual--><g class="entity" data-entity="individual" data-source-line="18" data-uid="ent0014" id="entity_individual"><rect fill="#F1F1F1" height="46.2969" rx="2.5" ry="2.5" style="stroke:#181818;stroke-width:0.5;" width="166.9639" x="1125.52" y="147.29"/><rect fill="#F1F1F1" height="10" style="stroke:#181818;stroke-width:0.5;" width="15" x="1272.4839" y="152.29"/><rect fill="#F1F1F1" height="2" style="stroke:#181818;stroke-width:0.5;" width="4" x="1270.4839" y="154.29"/><rect fill="#F1F1F1" height="2" style="stroke:#181818;stroke-width:0.5;" width="4" x="1270.4839" y="158.29"/><text fill="#000000" font-family="sans-serif" font-size="14" lengthAdjust="spacing" textLength="126.9639" x="1140.52" y="180.2851">Individual Reports</text></g><!--entity classReport--><g class="entity" data-entity="classReport" data-source-line="19" data-uid="ent0015" id="entity_classReport"><rect fill="#F1F1F1" height="46.2969" rx="2.5" ry="2.5" style="stroke:#181818;stroke-width:0.5;" width="200.4258" x="889.79" y="147.29"/><rect fill="#F1F1F1" height="10" style="stroke:#181818;stroke-width:0.5;" width="15" x="1070.2158" y="152.29"/><rect fill="#F1F1F1" height="2" style="stroke:#181818;stroke-width:0.5;" width="4" x="1068.2158" y="154.29"/><rect fill="#F1F1F1" height="2" style="stroke:#181818;stroke-width:0.5;" width="4" x="1068.2158" y="158.29"/><text fill="#000000" font-family="sans-serif" font-size="14" lengthAdjust="spacing" textLength="160.4258" x="904.79" y="180.2851">Class Summary Report</text></g><!--entity summary--><g class="entity" data-entity="summary" data-source-line="20" data-uid="ent0016" id="entity_summary"><rect fill="#F1F1F1" height="46.2969" rx="2.5" ry="2.5" style="stroke:#181818;stroke-width:0.5;" width="168.8096" x="685.6" y="147.29"/><rect fill="#F1F1F1" height="10" style="stroke:#181818;stroke-width:0.5;" width="15" x="834.4096" y="152.29"/><rect fill="#F1F1F1" height="2" style="stroke:#181818;stroke-width:0.5;" width="4" x="832.4096" y="154.29"/><rect fill="#F1F1F1" height="2" style="stroke:#181818;stroke-width:0.5;" width="4" x="832.4096" y="158.29"/><text fill="#000000" font-family="sans-serif" font-size="14" lengthAdjust="spacing" textLength="128.8096" x="700.6" y="180.2851">Grade Distribution</text></g><!--entity export--><g class="entity" data-entity="export" data-source-line="21" data-uid="ent0017" id="entity_export"><rect fill="#F1F1F1" height="46.2969" rx="2.5" ry="2.5" style="stroke:#181818;stroke-width:0.5;" width="133.2285" x="1142.39" y="253.59"/><rect fill="#F1F1F1" height="10" style="stroke:#181818;stroke-width:0.5;" width="15" x="1255.6185" y="258.59"/><rect fill="#F1F1F1" height="2" style="stroke:#181818;stroke-width:0.5;" width="4" x="1253.6185" y="260.59"/><rect fill="#F1F1F1" height="2" style="stroke:#181818;stroke-width:0.5;" width="4" x="1253.6185" y="264.59"/><text fill="#000000" font-family="sans-serif" font-size="14" lengthAdjust="spacing" textLength="93.2285" x="1157.39" y="286.5851">Export to File</text></g><!--link main to read--><g class="link" data-entity-1="main" data-entity-2="read" data-source-line="25" data-uid="lnk18" id="link_main_read"><path d="M292.94,79.28 C269.75,85.37 244.16,93.6 222,104.29 C198.72,115.53 179.8054,129.0649 162.6354,143.0249" fill="none" id="main-to-read" style="stroke:#181818;stroke-width:1;"/><polygon fill="#181818" points="157.98,146.81,167.4866,144.236,161.8595,143.6558,162.4398,138.0287,157.98,146.81" style="stroke:#181818;stroke-width:1;"/></g><!--link main to average--><g class="link" data-entity-1="main" data-entity-2="average" data-source-line="26" data-uid="lnk19" id="link_main_average"><path d="M362,87.68 C362,128.21 362,206.95 362,247.36" fill="none" id="main-to-average" style="stroke:#181818;stroke-width:1;"/><polygon fill="#181818" points="362,253.36,366,244.36,362,248.36,358,244.36,362,253.36" style="stroke:#181818;stroke-width:1;"/></g><!--link main to individual--><g class="link" data-entity-1="main" data-entity-2="individual" data-source-line="27" data-uid="lnk20" id="link_main_individual"><path d="M431.18,66.74 C603.89,71.03 1044.72,83.84 1108,104.29 C1135.8,113.28 1158.6685,128.2304 1177.9685,143.2804" fill="none" id="main-to-individual" style="stroke:#181818;stroke-width:1;"/><polygon fill="#181818" points="1182.7,146.97,1178.0625,138.2813,1178.7571,143.8953,1173.143,144.59,1182.7,146.97" style="stroke:#181818;stroke-width:1;"/></g><!--link read to validate--><g class="link" data-entity-1="read" data-entity-2="validate" data-source-line="29" data-uid="lnk21" id="link_read_validate"><path d="M132,194.07 C132,211.57 132,229.67 132,247.15" fill="none" id="read-to-validate" style="stroke:#181818;stroke-width:1;"/><polygon fill="#181818" points="132,253.15,136,244.15,132,248.15,128,244.15,132,253.15" style="stroke:#181818;stroke-width:1;"/></g><!--link validate to store--><g class="link" data-entity-1="validate" data-entity-2="store" data-source-line="30" data-uid="lnk22" id="link_validate_store"><path d="M132,300.37 C132,317.86 132,335.97 132,353.45" fill="none" id="validate-to-store" style="stroke:#181818;stroke-width:1;"/><polygon fill="#181818" points="132,359.45,136,350.45,132,354.45,128,350.45,132,359.45" style="stroke:#181818;stroke-width:1;"/></g><!--link average to letterGrade--><g class="link" data-entity-1="average" data-entity-2="letterGrade" data-source-line="31" data-uid="lnk23" id="link_average_letterGrade"><path d="M363.08,300.37 C363.92,317.86 364.792,335.9769 365.632,353.4569" fill="none" id="average-to-letterGrade" style="stroke:#181818;stroke-width:1;"/><polygon fill="#181818" points="365.92,359.45,369.4834,350.2684,365.68,354.4558,361.4926,350.6524,365.92,359.45" style="stroke:#181818;stroke-width:1;"/></g><!--link letterGrade to gpa--><g class="link" data-entity-1="letterGrade" data-entity-2="gpa" data-source-line="32" data-uid="lnk24" id="link_letterGrade_gpa"><path d="M367,406.67 C367,424.16 367,442.26 367,459.74" fill="none" id="letterGrade-to-gpa" style="stroke:#181818;stroke-width:1;"/><polygon fill="#181818" points="367,465.74,371,456.74,367,460.74,363,456.74,367,465.74" style="stroke:#181818;stroke-width:1;"/></g><!--link individual to export--><g class="link" data-entity-1="individual" data-entity-2="export" data-source-line="33" data-uid="lnk25" id="link_individual_export"><path d="M1209,194.07 C1209,211.57 1209,229.67 1209,247.15" fill="none" id="individual-to-export" style="stroke:#181818;stroke-width:1;"/><polygon fill="#181818" points="1209,253.15,1213,244.15,1209,248.15,1205,244.15,1209,253.15" style="stroke:#181818;stroke-width:1;"/></g><!--link classReport to classStats--><g class="link" data-entity-1="classReport" data-entity-2="classStats" data-source-line="34" data-uid="lnk26" id="link_classReport_classStats"><path d="M889.37,191.04 C883.5,191.96 877.68,192.82 872,193.59 C782.72,205.69 755.98,183.67 670,210.59 C639.96,220 614.1892,235.0127 592.3692,249.8727" fill="none" id="classReport-to-classStats" style="stroke:#181818;stroke-width:1;"/><polygon fill="#181818" points="587.41,253.25,597.1003,251.4901,591.5427,250.4355,592.5972,244.8779,587.41,253.25" style="stroke:#181818;stroke-width:1;"/></g><!--link summary to classStats--><g class="link" data-entity-1="summary" data-entity-2="classStats" data-source-line="35" data-uid="lnk27" id="link_summary_classStats"><path d="M708.03,194.03 C695.3,199.13 682.1,204.77 670,210.59 C643.47,223.34 619.8694,236.8272 598.0194,250.0872" fill="none" id="summary-to-classStats" style="stroke:#181818;stroke-width:1;"/><polygon fill="#181818" points="592.89,253.2,602.6593,251.9503,597.1645,250.606,598.5088,245.1112,592.89,253.2" style="stroke:#181818;stroke-width:1;"/></g><!--SRC=[PP71QiCm38RlUGhHUrzXKDQj35Oe3UmoTj0I4Sni9zXEQHbzzycIawRTpVxq-zTlQS3c1pk2LPt6bdo28mrzI51VOYAtWjyAu7EFniCXz5r0zmKOmJ6ek39ChxUO4FRe-UBOHT_nooDX2vFrgx4KvNrWh88FjAR5H90Tf7OgHEjrwWC1jz-JwyD5534pBb_l8km2jWJFQ9lHOZAzZtEA2H9iJXHOhIbGBwhPn6Ww3- -K4WKGCrLP8G8UtNQ7ZKYw0Kl9OepyN-uVasdKeCami_WlSndsZZmdoPddo6- -DIVJZcZBHjJBpFYkuUWSXajHtfhgNPKwdYtd2kPxpBrqblfKDIzdYPDwMPNKwLmihXL7ptk7zVf95pZVfa7EO16pobA1ysAdWr1TPd4GiXpuuYorFEcRkQ2ISF5XmOkfbpy-u3y0]--></g></svg>