<svg xmlns="http://www.w3.org/2000/svg" xmlns:xlink="http://www.w3.org/1999/xlink" contentStyleType="text/css" data-diagram-type="DESCRIPTION" height="429px" preserveAspectRatio="none" style="width:281px;height:429px;background:#FFFFFF;" version="1.1" viewBox="0 0 281 429" width="281px" zoomAndPan="magnify"><defs/><g><!--cluster Student Management System--><g class="cluster" data-entity="Student Management System" data-source-line="1" data-uid="ent0002" id="cluster_Student Management System"><path d="M8.5,6 L243.5352,6 A3.75,3.75 0 0 1 246.0352,8.5 L253.0352,28.2969 L271.5,28.2969 A2.5,2.5 0 0 1 274,30.7969 L274,419.69 A2.5,2.5 0 0 1 271.5,422.19 L8.5,422.19 A2.5,2.5 0 0 1 6,419.69 L6,8.5 A2.5,2.5 0 0 1 8.5,6" fill="none" style="stroke:#000000;stroke-width:1.5;"/><line style="stroke:#000000;stroke-width:1.5;" x1="6" x2="253.0352" y1="28.2969" y2="28.2969"/><text fill="#000000" font-family="sans-serif" font-size="14" font-weight="bold" lengthAdjust="spacing" textLength="234.0352" x="10" y="20.9951">Student Management System</text></g><!--entity User Interface--><g class="entity" data-entity="User Interface" data-source-line="2" data-uid="ent0003" id="entity_User Interface"><rect fill="#F1F1F1" height="46.2969" rx="2.5" ry="2.5" style="stroke:#181818;stroke-width:0.5;" width="139.0391" x="22.48" y="41"/><rect fill="#F1F1F1" height="10" style="stroke:#181818;stroke-width:0.5;" width="15" x="141.5191" y="46"/><rect fill="#F1F1F1" height="2" style="stroke:#181818;stroke-width:0.5;" width="4" x="139.5191" y="48"/><rect fill="#F1F1F1" height="2" style="stroke:#181818;stroke-width:0.5;" width="4" x="139.5191" y="52"/><text fill="#000000" font-family="sans-serif" font-size="14" lengthAdjust="spacing" textLength="99.0391" x="37.48" y="73.9951">User Interface</text></g><!--entity Student Records--><g class="entity" data-entity="Student Records" data-source-line="3" data-uid="ent0004" id="entity_Student Records"><rect fill="#F1F1F1" height="46.2969" rx="2.5" ry="2.5" style="stroke:#181818;stroke-width:0.5;" width="156.1016" x="59.95" y="359.89"/><rect fill="#F1F1F1" height="10" style="stroke:#181818;stroke-width:0.5;" width="15" x="196.0516" y="364.89"/><rect fill="#F1F1F1" height="2" style="stroke:#181818;stroke-width:0.5;" width="4" x="194.0516" y="366.89"/><rect fill="#F1F1F1" height="2" style="stroke:#181818;stroke-width:0.5;" width="4" x="194.0516" y="370.89"/><text fill="#000000" font-family="sans-serif" font-size="14" lengthAdjust="spacing" textLength="116.1016" x="74.95" y="392.8851">Student Records</text></g><!--entity Grade Calculator--><g class="entity" data-entity="Grade Calculator" data-source-line="4" data-uid="ent0005" id="entity_Grade Calculator"><rect fill="#F1F1F1" height="46.2969" rx="2.5" ry="2.5" style="stroke:#181818;stroke-width:0.5;" width="158.2275" x="58.89" y="253.6"/><rect fill="#F1F1F1" height="10" style="stroke:#181818;stroke-width:0.5;" width="15" x="197.1175" y="258.6"/><rect fill="#F1F1F1" height="2" style="stroke:#181818;stroke-width:0.5;" width="4" x="195.1175" y="260.6"/><rect fill="#F1F1F1" height="2" style="stroke:#181818;stroke-width:0.5;" width="4" x="195.1175" y="264.6"/><text fill="#000000" font-family="sans-serif" font-size="14" lengthAdjust="spacing" textLength="118.2275" x="73.89" y="286.5951">Grade Calculator</text></g><!--entity Report Generator--><g class="entity" data-entity="Report Generator" data-source-line="5" data-uid="ent0006" id="entity_Report Generator"><rect fill="#F1F1F1" height="46.2969" rx="2.5" ry="2.5" style="stroke:#181818;stroke-width:0.5;" width="162.582" x="95.71" y="147.3"/><rect fill="#F1F1F1" height="10" style="stroke:#181818;stroke-width:0.5;" width="15" x="238.292" y="152.3"/><rect fill="#F1F1F1" height="2" style="stroke:#181818;stroke-width:0.5;" width="4" x="236.292" y="154.3"/><rect fill="#F1F1F1" height="2" style="stroke:#181818;stroke-width:0.5;" width="4" x="236.292" y="158.3"/><text fill="#000000" font-family="sans-serif" font-size="14" lengthAdjust="spacing" textLength="122.582" x="110.71" y="180.2951">Report Generator</text></g><!--link User Interface to Student Records--><g class="link" data-entity-1="User Interface" data-entity-2="Student Records" data-source-line="8" data-uid="lnk7" id="link_User Interface_Student Records"><path d="M78.1,87.54 C53.33,130.53 7.15,226.87 41,299.89 C52.69,325.12 71.3868,342.0681 92.4268,356.1781" fill="none" id="User Interface-to-Student Records" style="stroke:#181818;stroke-width:1;"/><polygon fill="#181818" points="97.41,359.52,92.1631,351.1851,93.2574,356.7351,87.7073,357.8293,97.41,359.52" style="stroke:#181818;stroke-width:1;"/></g><!--link User Interface to Grade Calculator--><g class="link" data-entity-1="User Interface" data-entity-2="Grade Calculator" data-source-line="9" data-uid="lnk8" id="link_User Interface_Grade Calculator"><path d="M84.03,87.55 C75.99,113.65 66.31,157.77 78,193.6 C85.4,216.26 97.6797,233.3981 111.4197,248.7581" fill="none" id="User Interface-to-Grade Calculator" style="stroke:#181818;stroke-width:1;"/><polygon fill="#181818" points="115.42,253.23,112.4009,243.8553,112.0865,249.5034,106.4383,249.189,115.42,253.23" style="stroke:#181818;stroke-width:1;"/></g><!--link User Interface to Report Generator--><g class="link" data-entity-1="User Interface" data-entity-2="Report Generator" data-source-line="10" data-uid="lnk9" id="link_User Interface_Report Generator"><path d="M110.44,87.78 C124.7,105.28 140.5488,124.7295 154.7988,142.2095" fill="none" id="User Interface-to-Report Generator" style="stroke:#181818;stroke-width:1;"/><polygon fill="#181818" points="158.59,146.86,156.0036,137.3568,155.4307,142.9846,149.8029,142.4117,158.59,146.86" style="stroke:#181818;stroke-width:1;"/></g><!--link Grade Calculator to Student Records--><g class="link" data-entity-1="Grade Calculator" data-entity-2="Student Records" data-source-line="11" data-uid="lnk10" id="link_Grade Calculator_Student Records"><path d="M138,300.38 C138,317.87 138,335.97 138,353.45" fill="none" id="Grade Calculator-to-Student Records" style="stroke:#181818;stroke-width:1;"/><polygon fill="#181818" points="138,359.45,142,350.45,138,354.45,134,350.45,138,359.45" style="stroke:#181818;stroke-width:1;"/></g><!--link Report Generator to Student Records--><g class="link" data-entity-1="Report Generator" data-entity-2="Student Records" data-source-line="12" data-uid="lnk11" id="link_Report Generator_Student Records"><path d="M199.39,193.78 C222.27,219.46 252.18,262.82 235,299.89 C223.31,325.12 204.6132,342.0681 183.5732,356.1781" fill="none" id="Report Generator-to-Student Records" style="stroke:#181818;stroke-width:1;"/><polygon fill="#181818" points="178.59,359.52,188.2927,357.8293,182.7426,356.7351,183.8369,351.1851,178.59,359.52" style="stroke:#181818;stroke-width:1;"/></g><!--link Report Generator to Grade Calculator--><g class="link" data-entity-1="Report Generator" data-entity-2="Grade Calculator" data-source-line="13" data-uid="lnk12" id="link_Report Generator_Grade Calculator"><path d="M168.54,194.08 C162,211.57 155.0797,230.0594 148.5497,247.5394" fill="none" id="Report Generator-to-Grade Calculator" style="stroke:#181818;stroke-width:1;"/><polygon fill="#181818" points="146.45,253.16,153.3466,246.1289,148.1997,248.4762,145.8525,243.3293,146.45,253.16" style="stroke:#181818;stroke-width:1;"/></g><!--SRC=[bOsn3i8m34JtV8NLlR_0mb0niBHYGXsiv62WJIh77L35lqD0J0u3c_rqTszXV-Chg1bq3OXAHuwlVoxdSC-AkQ7D4PrF6KA7g90BUunKsBVJmoS9UIoi4mwWFKz-dLYJl66F9ObIXmZvm8TpPh9jTvNDUingwZbhjjLVOjFzCsX4Jm00]--></g></svg>