<svg xmlns="http://www.w3.org/2000/svg" xmlns:xlink="http://www.w3.org/1999/xlink" contentStyleType="text/css" data-diagram-type="DESCRIPTION" height="216px" preserveAspectRatio="none" style="width:422px;height:216px;background:#FFFFFF;" version="1.1" viewBox="0 0 422 216" width="422px" zoomAndPan="magnify"><defs/><g><!--cluster Student Report System--><g class="cluster" data-entity="Student Report System" data-source-line="1" data-uid="ent0002" id="cluster_Student Report System"><path d="M8.5,6 L193.9951,6 A3.75,3.75 0 0 1 196.4951,8.5 L203.4951,28.2969 L412.5,28.2969 A2.5,2.5 0 0 1 415,30.7969 L415,207.09 A2.5,2.5 0 0 1 412.5,209.59 L8.5,209.59 A2.5,2.5 0 0 1 6,207.09 L6,8.5 A2.5,2.5 0 0 1 8.5,6" fill="none" style="stroke:#000000;stroke-width:1.5;"/><line style="stroke:#000000;stroke-width:1.5;" x1="6" x2="203.4951" y1="28.2969" y2="28.2969"/><text fill="#000000" font-family="sans-serif" font-size="14" font-weight="bold" lengthAdjust="spacing" textLength="184.4951" x="10" y="20.9951">Student Report System</text></g><!--entity Main Program--><g class="entity" data-entity="Main Program" data-source-line="2" data-uid="ent0003" id="entity_Main Program"><rect fill="#F1F1F1" height="46.2969" rx="2.5" ry="2.5" style="stroke:#181818;stroke-width:0.5;" width="137.4941" x="39.25" y="41"/><rect fill="#F1F1F1" height="10" style="stroke:#181818;stroke-width:0.5;" width="15" x="156.7441" y="46"/><rect fill="#F1F1F1" height="2" style="stroke:#181818;stroke-width:0.5;" width="4" x="154.7441" y="48"/><rect fill="#F1F1F1" height="2" style="stroke:#181818;stroke-width:0.5;" width="4" x="154.7441" y="52"/><text fill="#000000" font-family="sans-serif" font-size="14" lengthAdjust="spacing" textLength="97.4941" x="54.25" y="73.9951">Main Program</text></g><!--entity Data Management--><g class="entity" data-entity="Data Management" data-source-line="3" data-uid="ent0004" id="entity_Data Management"><rect fill="#F1F1F1" height="46.2969" rx="2.5" ry="2.5" style="stroke:#181818;stroke-width:0.5;" width="170.1016" x="211.95" y="41"/><rect fill="#F1F1F1" height="10" style="stroke:#181818;stroke-width:0.5;" width="15" x="362.0516" y="46"/><rect fill="#F1F1F1" height="2" style="stroke:#181818;stroke-width:0.5;" width="4" x="360.0516" y="48"/><rect fill="#F1F1F1" height="2" style="stroke:#181818;stroke-width:0.5;" width="4" x="360.0516" y="52"/><text fill="#000000" font-family="sans-serif" font-size="14" lengthAdjust="spacing" textLength="130.1016" x="226.95" y="73.9951">Data Management</text></g><!--entity Grade Calculations--><g class="entity" data-entity="Grade Calculations" data-source-line="4" data-uid="ent0005" id="entity_Grade Calculations"><rect fill="#F1F1F1" height="46.2969" rx="2.5" ry="2.5" style="stroke:#181818;stroke-width:0.5;" width="172.5283" x="21.74" y="147.29"/><rect fill="#F1F1F1" height="10" style="stroke:#181818;stroke-width:0.5;" width="15" x="174.2683" y="152.29"/><rect fill="#F1F1F1" height="2" style="stroke:#181818;stroke-width:0.5;" width="4" x="172.2683" y="154.29"/><rect fill="#F1F1F1" height="2" style="stroke:#181818;stroke-width:0.5;" width="4" x="172.2683" y="158.29"/><text fill="#000000" font-family="sans-serif" font-size="14" lengthAdjust="spacing" textLength="132.5283" x="36.74" y="180.2851">Grade Calculations</text></g><!--entity Report Generation--><g class="entity" data-entity="Report Generation" data-source-line="5" data-uid="ent0006" id="entity_Report Generation"><rect fill="#F1F1F1" height="46.2969" rx="2.5" ry="2.5" style="stroke:#181818;stroke-width:0.5;" width="169.5889" x="229.21" y="147.29"/><rect fill="#F1F1F1" height="10" style="stroke:#181818;stroke-width:0.5;" width="15" x="378.7989" y="152.29"/><rect fill="#F1F1F1" height="2" style="stroke:#181818;stroke-width:0.5;" width="4" x="376.7989" y="154.29"/><rect fill="#F1F1F1" height="2" style="stroke:#181818;stroke-width:0.5;" width="4" x="376.7989" y="158.29"/><text fill="#000000" font-family="sans-serif" font-size="14" lengthAdjust="spacing" textLength="129.5889" x="244.21" y="180.2851">Report Generation</text></g><!--SRC=[BSon2eD044NHtgzu-2iALa9mIx5uw22YExkCOo4X_nwpf3rmR-QySnNKmQz5r358JkO8z-aIQxmhOEovALwMLcESVj3IYPxwbF69YdN6HT3mcA-3lYKz2_z_dQXOuQdwV040]--></g></svg>