<svg xmlns="http://www.w3.org/2000/svg" xmlns:xlink="http://www.w3.org/1999/xlink" contentStyleType="text/css" data-diagram-type="DESCRIPTION" height="182px" preserveAspectRatio="none" style="width:817px;height:182px;background:#FFFFFF;" version="1.1" viewBox="0 0 817 182" width="817px" zoomAndPan="magnify"><defs/><g><!--cluster Core Services--><g class="cluster" data-entity="Core Services" data-source-line="1" data-uid="ent0002" id="cluster_Core Services"><path d="M8.5,78.29 L117.2002,78.29 A3.75,3.75 0 0 1 119.7002,80.79 L126.7002,100.5869 L807.5,100.5869 A2.5,2.5 0 0 1 810,103.0869 L810,173.09 A2.5,2.5 0 0 1 807.5,175.59 L8.5,175.59 A2.5,2.5 0 0 1 6,173.09 L6,80.79 A2.5,2.5 0 0 1 8.5,78.29" fill="none" style="stroke:#000000;stroke-width:1.5;"/><line style="stroke:#000000;stroke-width:1.5;" x1="6" x2="126.7002" y1="100.5869" y2="100.5869"/><text fill="#000000" font-family="sans-serif" font-size="14" font-weight="bold" lengthAdjust="spacing" textLength="107.7002" x="10" y="93.2851">Core Services</text></g><!--entity Authentication Service--><g class="entity" data-entity="Authentication Service" data-source-line="2" data-uid="ent0003" id="entity_Authentication Service"><rect fill="#F1F1F1" height="46.2969" rx="2.5" ry="2.5" style="stroke:#181818;stroke-width:0.5;" width="198.9629" x="595.52" y="113.29"/><rect fill="#F1F1F1" height="10" style="stroke:#181818;stroke-width:0.5;" width="15" x="774.4829" y="118.29"/><rect fill="#F1F1F1" height="2" style="stroke:#181818;stroke-width:0.5;" width="4" x="772.4829" y="120.29"/><rect fill="#F1F1F1" height="2" style="stroke:#181818;stroke-width:0.5;" width="4" x="772.4829" y="124.29"/><text fill="#000000" font-family="sans-serif" font-size="14" lengthAdjust="spacing" textLength="158.9629" x="610.52" y="146.2851">Authentication Service</text></g><!--entity Data Service--><g class="entity" data-entity="Data Service" data-source-line="3" data-uid="ent0004" id="entity_Data Service"><rect fill="#F1F1F1" height="46.2969" rx="2.5" ry="2.5" style="stroke:#181818;stroke-width:0.5;" width="129.6191" x="431.19" y="113.29"/><rect fill="#F1F1F1" height="10" style="stroke:#181818;stroke-width:0.5;" width="15" x="540.8091" y="118.29"/><rect fill="#F1F1F1" height="2" style="stroke:#181818;stroke-width:0.5;" width="4" x="538.8091" y="120.29"/><rect fill="#F1F1F1" height="2" style="stroke:#181818;stroke-width:0.5;" width="4" x="538.8091" y="124.29"/><text fill="#000000" font-family="sans-serif" font-size="14" lengthAdjust="spacing" textLength="89.6191" x="446.19" y="146.2851">Data Service</text></g><!--entity Calculation Service--><g class="entity" data-entity="Calculation Service" data-source-line="4" data-uid="ent0005" id="entity_Calculation Service"><rect fill="#F1F1F1" height="46.2969" rx="2.5" ry="2.5" style="stroke:#181818;stroke-width:0.5;" width="174.292" x="221.85" y="113.29"/><rect fill="#F1F1F1" height="10" style="stroke:#181818;stroke-width:0.5;" width="15" x="376.142" y="118.29"/><rect fill="#F1F1F1" height="2" style="stroke:#181818;stroke-width:0.5;" width="4" x="374.142" y="120.29"/><rect fill="#F1F1F1" height="2" style="stroke:#181818;stroke-width:0.5;" width="4" x="374.142" y="124.29"/><text fill="#000000" font-family="sans-serif" font-size="14" lengthAdjust="spacing" textLength="134.292" x="236.85" y="146.2851">Calculation Service</text></g><!--entity Reporting Service--><g class="entity" data-entity="Reporting Service" data-source-line="5" data-uid="ent0006" id="entity_Reporting Service"><rect fill="#F1F1F1" height="46.2969" rx="2.5" ry="2.5" style="stroke:#181818;stroke-width:0.5;" width="164.8789" x="21.56" y="113.29"/><rect fill="#F1F1F1" height="10" style="stroke:#181818;stroke-width:0.5;" width="15" x="166.4389" y="118.29"/><rect fill="#F1F1F1" height="2" style="stroke:#181818;stroke-width:0.5;" width="4" x="164.4389" y="120.29"/><rect fill="#F1F1F1" height="2" style="stroke:#181818;stroke-width:0.5;" width="4" x="164.4389" y="124.29"/><text fill="#000000" font-family="sans-serif" font-size="14" lengthAdjust="spacing" textLength="124.8789" x="36.56" y="146.2851">Reporting Service</text></g><!--entity Main Application--><g class="entity" data-entity="Main Application" data-source-line="8" data-uid="ent0007" id="entity_Main Application"><rect fill="#F1F1F1" height="46.2969" rx="2.5" ry="2.5" style="stroke:#181818;stroke-width:0.5;" width="156.0947" x="323.95" y="7"/><rect fill="#F1F1F1" height="10" style="stroke:#181818;stroke-width:0.5;" width="15" x="460.0447" y="12"/><rect fill="#F1F1F1" height="2" style="stroke:#181818;stroke-width:0.5;" width="4" x="458.0447" y="14"/><rect fill="#F1F1F1" height="2" style="stroke:#181818;stroke-width:0.5;" width="4" x="458.0447" y="18"/><text fill="#000000" font-family="sans-serif" font-size="14" lengthAdjust="spacing" textLength="116.0947" x="338.95" y="39.9951">Main Application</text></g><!--link Main Application to Authentication Service--><g class="link" data-entity-1="Main Application" data-entity-2="Authentication Service" data-source-line="8" data-uid="lnk8" id="link_Main Application_Authentication Service"><path d="M480.52,43.57 C511.48,49.76 546.99,58.5 578,70.29 C607.23,81.41 632.9386,95.6715 655.5986,109.7015" fill="none" id="Main Application-to-Authentication Service" style="stroke:#181818;stroke-width:1;"/><polygon fill="#181818" points="660.7,112.86,655.1537,104.7213,656.4489,110.2279,650.9423,111.5231,660.7,112.86" style="stroke:#181818;stroke-width:1;"/></g><!--link Main Application to Data Service--><g class="link" data-entity-1="Main Application" data-entity-2="Data Service" data-source-line="9" data-uid="lnk9" id="link_Main Application_Data Service"><path d="M422.4,53.78 C438.16,71.27 455.8737,90.9125 471.6237,108.3925" fill="none" id="Main Application-to-Data Service" style="stroke:#181818;stroke-width:1;"/><polygon fill="#181818" points="475.64,112.85,472.5872,103.4862,472.2931,109.1354,466.6439,108.8413,475.64,112.85" style="stroke:#181818;stroke-width:1;"/></g><!--link Main Application to Calculation Service--><g class="link" data-entity-1="Main Application" data-entity-2="Calculation Service" data-source-line="10" data-uid="lnk10" id="link_Main Application_Calculation Service"><path d="M381.82,53.78 C366.22,71.27 348.7237,90.8922 333.1337,108.3722" fill="none" id="Main Application-to-Calculation Service" style="stroke:#181818;stroke-width:1;"/><polygon fill="#181818" points="329.14,112.85,338.1157,108.7957,332.468,109.1185,332.1453,103.4709,329.14,112.85" style="stroke:#181818;stroke-width:1;"/></g><!--link Main Application to Reporting Service--><g class="link" data-entity-1="Main Application" data-entity-2="Reporting Service" data-source-line="11" data-uid="lnk11" id="link_Main Application_Reporting Service"><path d="M323.86,39.57 C286.6,45.34 241.98,54.85 204,70.29 C177.9,80.91 156.1232,95.0477 136.9232,109.3377" fill="none" id="Main Application-to-Reporting Service" style="stroke:#181818;stroke-width:1;"/><polygon fill="#181818" points="132.11,112.92,141.718,110.7553,136.121,109.9347,136.9416,104.3377,132.11,112.92" style="stroke:#181818;stroke-width:1;"/></g><!--SRC=[AqXCpavCJrLGSiulIbK8JYqgoqnEBLPIgEPIK8XsB2t9ICqhoKnEBCdCpuF9neAaN19B4b44d1DpaajpC1K6fHRa5vLavgKZH6kvkA9z4pFp51mB2dAWXiSgwEhQuROHbtfKP-1IXTLjk1HZEXW0]--></g></svg>