<svg xmlns="http://www.w3.org/2000/svg" xmlns:xlink="http://www.w3.org/1999/xlink" contentStyleType="text/css" data-diagram-type="DESCRIPTION" height="592px" preserveAspectRatio="none" style="width:782px;height:592px;background:#FFFFFF;" version="1.1" viewBox="0 0 782 592" width="782px" zoomAndPan="magnify"><defs/><g><!--cluster Student Report System--><g class="cluster" data-entity="Student Report System" data-source-line="1" data-uid="ent0002" id="cluster_Student Report System"><path d="M8.5,6 L193.9951,6 A3.75,3.75 0 0 1 196.4951,8.5 L203.4951,28.2969 L772.5,28.2969 A2.5,2.5 0 0 1 775,30.7969 L775,582.58 A2.5,2.5 0 0 1 772.5,585.08 L8.5,585.08 A2.5,2.5 0 0 1 6,582.58 L6,8.5 A2.5,2.5 0 0 1 8.5,6" fill="none" style="stroke:#000000;stroke-width:1.5;"/><line style="stroke:#000000;stroke-width:1.5;" x1="6" x2="203.4951" y1="28.2969" y2="28.2969"/><text fill="#000000" font-family="sans-serif" font-size="14" font-weight="bold" lengthAdjust="spacing" textLength="184.4951" x="10" y="20.9951">Student Report System</text></g><!--cluster Data Management--><g class="cluster" data-entity="Data Management" data-source-line="4" data-uid="ent0004" id="cluster_Data Management"><path d="M32.5,112.3 L178.6338,112.3 A3.75,3.75 0 0 1 181.1338,114.8 L188.1338,134.5969 L188.5,134.5969 A2.5,2.5 0 0 1 191,137.0969 L191,444.13 A2.5,2.5 0 0 1 188.5,446.63 L32.5,446.63 A2.5,2.5 0 0 1 30,444.13 L30,114.8 A2.5,2.5 0 0 1 32.5,112.3" fill="none" style="stroke:#000000;stroke-width:1.5;"/><line style="stroke:#000000;stroke-width:1.5;" x1="30" x2="188.1338" y1="134.5969" y2="134.5969"/><text fill="#000000" font-family="sans-serif" font-size="14" font-weight="bold" lengthAdjust="spacing" textLength="145.1338" x="34" y="127.2951">Data Management</text></g><!--cluster Grade Calculations--><g class="cluster" data-entity="Grade Calculations" data-source-line="10" data-uid="ent0008" id="cluster_Grade Calculations"><path d="M217.5,226.74 L367.1748,226.74 A3.75,3.75 0 0 1 369.6748,229.24 L376.6748,249.0369 L416.5,249.0369 A2.5,2.5 0 0 1 419,251.5369 L419,558.58 A2.5,2.5 0 0 1 416.5,561.08 L217.5,561.08 A2.5,2.5 0 0 1 215,558.58 L215,229.24 A2.5,2.5 0 0 1 217.5,226.74" fill="none" style="stroke:#000000;stroke-width:1.5;"/><line style="stroke:#000000;stroke-width:1.5;" x1="215" x2="376.6748" y1="249.0369" y2="249.0369"/><text fill="#000000" font-family="sans-serif" font-size="14" font-weight="bold" lengthAdjust="spacing" textLength="148.6748" x="219" y="241.7351">Grade Calculations</text></g><!--cluster Report Generation--><g class="cluster" data-entity="Report Generation" data-source-line="17" data-uid="ent0013" id="cluster_Report Generation"><path d="M445.5,112.3 L592.7617,112.3 A3.75,3.75 0 0 1 595.2617,114.8 L602.2617,134.5969 L748.5,134.5969 A2.5,2.5 0 0 1 751,137.0969 L751,329.69 A2.5,2.5 0 0 1 748.5,332.19 L445.5,332.19 A2.5,2.5 0 0 1 443,329.69 L443,114.8 A2.5,2.5 0 0 1 445.5,112.3" fill="none" style="stroke:#000000;stroke-width:1.5;"/><line style="stroke:#000000;stroke-width:1.5;" x1="443" x2="602.2617" y1="134.5969" y2="134.5969"/><text fill="#000000" font-family="sans-serif" font-size="14" font-weight="bold" lengthAdjust="spacing" textLength="146.2617" x="447" y="127.2951">Report Generation</text></g><!--entity main--><g class="entity" data-entity="main" data-source-line="2" data-uid="ent0003" id="entity_main"><rect fill="#F1F1F1" height="46.2969" rx="2.5" ry="2.5" style="stroke:#181818;stroke-width:0.5;" width="137.4941" x="196.25" y="41"/><rect fill="#F1F1F1" height="10" style="stroke:#181818;stroke-width:0.5;" width="15" x="313.7441" y="46"/><rect fill="#F1F1F1" height="2" style="stroke:#181818;stroke-width:0.5;" width="4" x="311.7441" y="48"/><rect fill="#F1F1F1" height="2" style="stroke:#181818;stroke-width:0.5;" width="4" x="311.7441" y="52"/><text fill="#000000" font-family="sans-serif" font-size="14" lengthAdjust="spacing" textLength="97.4941" x="211.25" y="73.9951">Main Program</text></g><!--entity read--><g class="entity" data-entity="read" data-source-line="5" data-uid="ent0005" id="entity_read"><rect fill="#F1F1F1" height="54.4453" rx="2.5" ry="2.5" style="stroke:#181818;stroke-width:0.5;" width="69" x="106.5" y="147.3"/><rect fill="#F1F1F1" height="10" style="stroke:#181818;stroke-width:0.5;" width="15" x="155.5" y="152.3"/><rect fill="#F1F1F1" height="2" style="stroke:#181818;stroke-width:0.5;" width="4" x="153.5" y="154.3"/><rect fill="#F1F1F1" height="2" style="stroke:#181818;stroke-width:0.5;" width="4" x="153.5" y="158.3"/><line style="stroke:#181818;stroke-width:0.5;" x1="107.5" x2="130.5" y1="175.4484" y2="175.4484"/><text fill="#000000" font-family="sans-serif" font-size="14" lengthAdjust="spacing" text-decoration="underline" textLength="7" x="130.5" y="179.7951">_</text><text fill="#000000" font-family="sans-serif" font-size="14" lengthAdjust="spacing" text-decoration="underline" textLength="7" x="137.5" y="179.7951">_</text><text fill="#000000" font-family="sans-serif" font-size="14" lengthAdjust="spacing" textLength="7" x="144.5" y="179.7951">_</text><line style="stroke:#181818;stroke-width:0.5;" x1="151.5" x2="174.5" y1="175.4484" y2="175.4484"/></g><!--entity validate--><g class="entity" data-entity="validate" data-source-line="6" data-uid="ent0006" id="entity_validate"><rect fill="#F1F1F1" height="54.4453" rx="2.5" ry="2.5" style="stroke:#181818;stroke-width:0.5;" width="69" x="106.5" y="261.74"/><rect fill="#F1F1F1" height="10" style="stroke:#181818;stroke-width:0.5;" width="15" x="155.5" y="266.74"/><rect fill="#F1F1F1" height="2" style="stroke:#181818;stroke-width:0.5;" width="4" x="153.5" y="268.74"/><rect fill="#F1F1F1" height="2" style="stroke:#181818;stroke-width:0.5;" width="4" x="153.5" y="272.74"/><line style="stroke:#181818;stroke-width:0.5;" x1="107.5" x2="130.5" y1="289.8884" y2="289.8884"/><text fill="#000000" font-family="sans-serif" font-size="14" lengthAdjust="spacing" text-decoration="underline" textLength="7" x="130.5" y="294.2351">_</text><text fill="#000000" font-family="sans-serif" font-size="14" lengthAdjust="spacing" text-decoration="underline" textLength="7" x="137.5" y="294.2351">_</text><text fill="#000000" font-family="sans-serif" font-size="14" lengthAdjust="spacing" textLength="7" x="144.5" y="294.2351">_</text><line style="stroke:#181818;stroke-width:0.5;" x1="151.5" x2="174.5" y1="289.8884" y2="289.8884"/></g><!--entity store--><g class="entity" data-entity="store" data-source-line="7" data-uid="ent0007" id="entity_store"><rect fill="#F1F1F1" height="54.4453" rx="2.5" ry="2.5" style="stroke:#181818;stroke-width:0.5;" width="69" x="106.5" y="376.19"/><rect fill="#F1F1F1" height="10" style="stroke:#181818;stroke-width:0.5;" width="15" x="155.5" y="381.19"/><rect fill="#F1F1F1" height="2" style="stroke:#181818;stroke-width:0.5;" width="4" x="153.5" y="383.19"/><rect fill="#F1F1F1" height="2" style="stroke:#181818;stroke-width:0.5;" width="4" x="153.5" y="387.19"/><line style="stroke:#181818;stroke-width:0.5;" x1="107.5" x2="130.5" y1="404.3384" y2="404.3384"/><text fill="#000000" font-family="sans-serif" font-size="14" lengthAdjust="spacing" text-decoration="underline" textLength="7" x="130.5" y="408.6851">_</text><text fill="#000000" font-family="sans-serif" font-size="14" lengthAdjust="spacing" text-decoration="underline" textLength="7" x="137.5" y="408.6851">_</text><text fill="#000000" font-family="sans-serif" font-size="14" lengthAdjust="spacing" textLength="7" x="144.5" y="408.6851">_</text><line style="stroke:#181818;stroke-width:0.5;" x1="151.5" x2="174.5" y1="404.3384" y2="404.3384"/></g><!--entity average--><g class="entity" data-entity="average" data-source-line="11" data-uid="ent0009" id="entity_average"><rect fill="#F1F1F1" height="54.4453" rx="2.5" ry="2.5" style="stroke:#181818;stroke-width:0.5;" width="69" x="230.5" y="261.74"/><rect fill="#F1F1F1" height="10" style="stroke:#181818;stroke-width:0.5;" width="15" x="279.5" y="266.74"/><rect fill="#F1F1F1" height="2" style="stroke:#181818;stroke-width:0.5;" width="4" x="277.5" y="268.74"/><rect fill="#F1F1F1" height="2" style="stroke:#181818;stroke-width:0.5;" width="4" x="277.5" y="272.74"/><line style="stroke:#181818;stroke-width:0.5;" x1="231.5" x2="254.5" y1="289.8884" y2="289.8884"/><text fill="#000000" font-family="sans-serif" font-size="14" lengthAdjust="spacing" text-decoration="underline" textLength="7" x="254.5" y="294.2351">_</text><text fill="#000000" font-family="sans-serif" font-size="14" lengthAdjust="spacing" text-decoration="underline" textLength="7" x="261.5" y="294.2351">_</text><text fill="#000000" font-family="sans-serif" font-size="14" lengthAdjust="spacing" textLength="7" x="268.5" y="294.2351">_</text><line style="stroke:#181818;stroke-width:0.5;" x1="275.5" x2="298.5" y1="289.8884" y2="289.8884"/></g><!--entity letterGrade--><g class="entity" data-entity="letterGrade" data-source-line="12" data-uid="ent0010" id="entity_letterGrade"><rect fill="#F1F1F1" height="54.4453" rx="2.5" ry="2.5" style="stroke:#181818;stroke-width:0.5;" width="69" x="230.5" y="376.19"/><rect fill="#F1F1F1" height="10" style="stroke:#181818;stroke-width:0.5;" width="15" x="279.5" y="381.19"/><rect fill="#F1F1F1" height="2" style="stroke:#181818;stroke-width:0.5;" width="4" x="277.5" y="383.19"/><rect fill="#F1F1F1" height="2" style="stroke:#181818;stroke-width:0.5;" width="4" x="277.5" y="387.19"/><line style="stroke:#181818;stroke-width:0.5;" x1="231.5" x2="254.5" y1="404.3384" y2="404.3384"/><text fill="#000000" font-family="sans-serif" font-size="14" lengthAdjust="spacing" text-decoration="underline" textLength="7" x="254.5" y="408.6851">_</text><text fill="#000000" font-family="sans-serif" font-size="14" lengthAdjust="spacing" text-decoration="underline" textLength="7" x="261.5" y="408.6851">_</text><text fill="#000000" font-family="sans-serif" font-size="14" lengthAdjust="spacing" textLength="7" x="268.5" y="408.6851">_</text><line style="stroke:#181818;stroke-width:0.5;" x1="275.5" x2="298.5" y1="404.3384" y2="404.3384"/></g><!--entity gpa--><g class="entity" data-entity="gpa" data-source-line="13" data-uid="ent0011" id="entity_gpa"><rect fill="#F1F1F1" height="54.4453" rx="2.5" ry="2.5" style="stroke:#181818;stroke-width:0.5;" width="69" x="230.5" y="490.63"/><rect fill="#F1F1F1" height="10" style="stroke:#181818;stroke-width:0.5;" width="15" x="279.5" y="495.63"/><rect fill="#F1F1F1" height="2" style="stroke:#181818;stroke-width:0.5;" width="4" x="277.5" y="497.63"/><rect fill="#F1F1F1" height="2" style="stroke:#181818;stroke-width:0.5;" width="4" x="277.5" y="501.63"/><line style="stroke:#181818;stroke-width:0.5;" x1="231.5" x2="254.5" y1="518.7784" y2="518.7784"/><text fill="#000000" font-family="sans-serif" font-size="14" lengthAdjust="spacing" text-decoration="underline" textLength="7" x="254.5" y="523.1251">_</text><text fill="#000000" font-family="sans-serif" font-size="14" lengthAdjust="spacing" text-decoration="underline" textLength="7" x="261.5" y="523.1251">_</text><text fill="#000000" font-family="sans-serif" font-size="14" lengthAdjust="spacing" textLength="7" x="268.5" y="523.1251">_</text><line style="stroke:#181818;stroke-width:0.5;" x1="275.5" x2="298.5" y1="518.7784" y2="518.7784"/></g><!--entity classStats--><g class="entity" data-entity="classStats" data-source-line="14" data-uid="ent0012" id="entity_classStats"><rect fill="#F1F1F1" height="54.4453" rx="2.5" ry="2.5" style="stroke:#181818;stroke-width:0.5;" width="69" x="334.5" y="261.74"/><rect fill="#F1F1F1" height="10" style="stroke:#181818;stroke-width:0.5;" width="15" x="383.5" y="266.74"/><rect fill="#F1F1F1" height="2" style="stroke:#181818;stroke-width:0.5;" width="4" x="381.5" y="268.74"/><rect fill="#F1F1F1" height="2" style="stroke:#181818;stroke-width:0.5;" width="4" x="381.5" y="272.74"/><line style="stroke:#181818;stroke-width:0.5;" x1="335.5" x2="358.5" y1="289.8884" y2="289.8884"/><text fill="#000000" font-family="sans-serif" font-size="14" lengthAdjust="spacing" text-decoration="underline" textLength="7" x="358.5" y="294.2351">_</text><text fill="#000000" font-family="sans-serif" font-size="14" lengthAdjust="spacing" text-decoration="underline" textLength="7" x="365.5" y="294.2351">_</text><text fill="#000000" font-family="sans-serif" font-size="14" lengthAdjust="spacing" textLength="7" x="372.5" y="294.2351">_</text><line style="stroke:#181818;stroke-width:0.5;" x1="379.5" x2="402.5" y1="289.8884" y2="289.8884"/></g><!--entity individual--><g class="entity" data-entity="individual" data-source-line="18" data-uid="ent0014" id="entity_individual"><rect fill="#F1F1F1" height="54.4453" rx="2.5" ry="2.5" style="stroke:#181818;stroke-width:0.5;" width="69" x="666.5" y="147.3"/><rect fill="#F1F1F1" height="10" style="stroke:#181818;stroke-width:0.5;" width="15" x="715.5" y="152.3"/><rect fill="#F1F1F1" height="2" style="stroke:#181818;stroke-width:0.5;" width="4" x="713.5" y="154.3"/><rect fill="#F1F1F1" height="2" style="stroke:#181818;stroke-width:0.5;" width="4" x="713.5" y="158.3"/><line style="stroke:#181818;stroke-width:0.5;" x1="667.5" x2="690.5" y1="175.4484" y2="175.4484"/><text fill="#000000" font-family="sans-serif" font-size="14" lengthAdjust="spacing" text-decoration="underline" textLength="7" x="690.5" y="179.7951">_</text><text fill="#000000" font-family="sans-serif" font-size="14" lengthAdjust="spacing" text-decoration="underline" textLength="7" x="697.5" y="179.7951">_</text><text fill="#000000" font-family="sans-serif" font-size="14" lengthAdjust="spacing" textLength="7" x="704.5" y="179.7951">_</text><line style="stroke:#181818;stroke-width:0.5;" x1="711.5" x2="734.5" y1="175.4484" y2="175.4484"/></g><!--entity classReport--><g class="entity" data-entity="classReport" data-source-line="19" data-uid="ent0015" id="entity_classReport"><rect fill="#F1F1F1" height="54.4453" rx="2.5" ry="2.5" style="stroke:#181818;stroke-width:0.5;" width="69" x="562.5" y="147.3"/><rect fill="#F1F1F1" height="10" style="stroke:#181818;stroke-width:0.5;" width="15" x="611.5" y="152.3"/><rect fill="#F1F1F1" height="2" style="stroke:#181818;stroke-width:0.5;" width="4" x="609.5" y="154.3"/><rect fill="#F1F1F1" height="2" style="stroke:#181818;stroke-width:0.5;" width="4" x="609.5" y="158.3"/><line style="stroke:#181818;stroke-width:0.5;" x1="563.5" x2="586.5" y1="175.4484" y2="175.4484"/><text fill="#000000" font-family="sans-serif" font-size="14" lengthAdjust="spacing" text-decoration="underline" textLength="7" x="586.5" y="179.7951">_</text><text fill="#000000" font-family="sans-serif" font-size="14" lengthAdjust="spacing" text-decoration="underline" textLength="7" x="593.5" y="179.7951">_</text><text fill="#000000" font-family="sans-serif" font-size="14" lengthAdjust="spacing" textLength="7" x="600.5" y="179.7951">_</text><line style="stroke:#181818;stroke-width:0.5;" x1="607.5" x2="630.5" y1="175.4484" y2="175.4484"/></g><!--entity summary--><g class="entity" data-entity="summary" data-source-line="20" data-uid="ent0016" id="entity_summary"><rect fill="#F1F1F1" height="54.4453" rx="2.5" ry="2.5" style="stroke:#181818;stroke-width:0.5;" width="69" x="458.5" y="147.3"/><rect fill="#F1F1F1" height="10" style="stroke:#181818;stroke-width:0.5;" width="15" x="507.5" y="152.3"/><rect fill="#F1F1F1" height="2" style="stroke:#181818;stroke-width:0.5;" width="4" x="505.5" y="154.3"/><rect fill="#F1F1F1" height="2" style="stroke:#181818;stroke-width:0.5;" width="4" x="505.5" y="158.3"/><line style="stroke:#181818;stroke-width:0.5;" x1="459.5" x2="482.5" y1="175.4484" y2="175.4484"/><text fill="#000000" font-family="sans-serif" font-size="14" lengthAdjust="spacing" text-decoration="underline" textLength="7" x="482.5" y="179.7951">_</text><text fill="#000000" font-family="sans-serif" font-size="14" lengthAdjust="spacing" text-decoration="underline" textLength="7" x="489.5" y="179.7951">_</text><text fill="#000000" font-family="sans-serif" font-size="14" lengthAdjust="spacing" textLength="7" x="496.5" y="179.7951">_</text><line style="stroke:#181818;stroke-width:0.5;" x1="503.5" x2="526.5" y1="175.4484" y2="175.4484"/></g><!--entity export--><g class="entity" data-entity="export" data-source-line="21" data-uid="ent0017" id="entity_export"><rect fill="#F1F1F1" height="54.4453" rx="2.5" ry="2.5" style="stroke:#181818;stroke-width:0.5;" width="69" x="666.5" y="261.74"/><rect fill="#F1F1F1" height="10" style="stroke:#181818;stroke-width:0.5;" width="15" x="715.5" y="266.74"/><rect fill="#F1F1F1" height="2" style="stroke:#181818;stroke-width:0.5;" width="4" x="713.5" y="268.74"/><rect fill="#F1F1F1" height="2" style="stroke:#181818;stroke-width:0.5;" width="4" x="713.5" y="272.74"/><line style="stroke:#181818;stroke-width:0.5;" x1="667.5" x2="690.5" y1="289.8884" y2="289.8884"/><text fill="#000000" font-family="sans-serif" font-size="14" lengthAdjust="spacing" text-decoration="underline" textLength="7" x="690.5" y="294.2351">_</text><text fill="#000000" font-family="sans-serif" font-size="14" lengthAdjust="spacing" text-decoration="underline" textLength="7" x="697.5" y="294.2351">_</text><text fill="#000000" font-family="sans-serif" font-size="14" lengthAdjust="spacing" textLength="7" x="704.5" y="294.2351">_</text><line style="stroke:#181818;stroke-width:0.5;" x1="711.5" x2="734.5" y1="289.8884" y2="289.8884"/></g><!--link main to read--><g class="link" data-entity-1="main" data-entity-2="read" data-source-line="25" data-uid="lnk18" id="link_main_read"><path d="M202.76,87.57 C194.2,92.28 185.97,97.83 179,104.3 C166.44,115.95 159.5183,127.2478 153.2383,141.3678" fill="none" id="main-to-read" style="stroke:#181818;stroke-width:1;"/><polygon fill="#181818" points="150.8,146.85,158.1122,140.2522,152.8319,142.2815,150.8026,137.0011,150.8,146.85" style="stroke:#181818;stroke-width:1;"/></g><!--link main to average--><g class="link" data-entity-1="main" data-entity-2="average" data-source-line="26" data-uid="lnk19" id="link_main_average"><path d="M265,87.74 C265,129.23 265,211.35 265,255.54" fill="none" id="main-to-average" style="stroke:#181818;stroke-width:1;"/><polygon fill="#181818" points="265,261.54,269,252.54,265,256.54,261,252.54,265,261.54" style="stroke:#181818;stroke-width:1;"/></g><!--link main to individual--><g class="link" data-entity-1="main" data-entity-2="individual" data-source-line="27" data-uid="lnk20" id="link_main_individual"><path d="M334.15,65.64 C429.84,67.42 596.78,74.81 649,104.3 C666.15,113.98 676.3442,126.693 685.1642,141.863" fill="none" id="main-to-individual" style="stroke:#181818;stroke-width:1;"/><polygon fill="#181818" points="688.18,147.05,687.1143,137.259,685.6668,142.7275,680.1983,141.28,688.18,147.05" style="stroke:#181818;stroke-width:1;"/></g><!--link read to validate--><g class="link" data-entity-1="read" data-entity-2="validate" data-source-line="29" data-uid="lnk21" id="link_read_validate"><path d="M141,202.17 C141,220.09 141,237.63 141,255.51" fill="none" id="read-to-validate" style="stroke:#181818;stroke-width:1;"/><polygon fill="#181818" points="141,261.51,145,252.51,141,256.51,137,252.51,141,261.51" style="stroke:#181818;stroke-width:1;"/></g><!--link validate to store--><g class="link" data-entity-1="validate" data-entity-2="store" data-source-line="30" data-uid="lnk22" id="link_validate_store"><path d="M141,316.61 C141,334.54 141,352.07 141,369.96" fill="none" id="validate-to-store" style="stroke:#181818;stroke-width:1;"/><polygon fill="#181818" points="141,375.96,145,366.96,141,370.96,137,366.96,141,375.96" style="stroke:#181818;stroke-width:1;"/></g><!--link average to letterGrade--><g class="link" data-entity-1="average" data-entity-2="letterGrade" data-source-line="31" data-uid="lnk23" id="link_average_letterGrade"><path d="M265,316.61 C265,334.54 265,352.07 265,369.96" fill="none" id="average-to-letterGrade" style="stroke:#181818;stroke-width:1;"/><polygon fill="#181818" points="265,375.96,269,366.96,265,370.96,261,366.96,265,375.96" style="stroke:#181818;stroke-width:1;"/></g><!--link letterGrade to gpa--><g class="link" data-entity-1="letterGrade" data-entity-2="gpa" data-source-line="32" data-uid="lnk24" id="link_letterGrade_gpa"><path d="M265,431.06 C265,448.98 265,466.52 265,484.4" fill="none" id="letterGrade-to-gpa" style="stroke:#181818;stroke-width:1;"/><polygon fill="#181818" points="265,490.4,269,481.4,265,485.4,261,481.4,265,490.4" style="stroke:#181818;stroke-width:1;"/></g><!--link individual to export--><g class="link" data-entity-1="individual" data-entity-2="export" data-source-line="33" data-uid="lnk25" id="link_individual_export"><path d="M701,202.17 C701,220.09 701,237.63 701,255.51" fill="none" id="individual-to-export" style="stroke:#181818;stroke-width:1;"/><polygon fill="#181818" points="701,261.51,705,252.51,701,256.51,697,252.51,701,261.51" style="stroke:#181818;stroke-width:1;"/></g><!--link classReport to classStats--><g class="link" data-entity-1="classReport" data-entity-2="classStats" data-source-line="34" data-uid="lnk26" id="link_classReport_classStats"><path d="M562.09,194.91 C556.49,197.5 550.67,199.89 545,201.74 C501.32,216.03 484.21,198.4 443,218.74 C422.49,228.87 407.7497,242.1056 394.2497,257.0656" fill="none" id="classReport-to-classStats" style="stroke:#181818;stroke-width:1;"/><polygon fill="#181818" points="390.23,261.52,399.2292,257.5182,393.5798,257.808,393.2899,252.1585,390.23,261.52" style="stroke:#181818;stroke-width:1;"/></g><!--SRC=[XL7BQiCm4BpxAvRSymkzj91JeCJ7KifWBKP4aesqDWqb_rv9ViIXoFL9cfaTZMTxD5UqJ8TQ1iLEwC9zvuNgMn2s1_gfY3xEq8xUVTTws4z281k1AZBzClq60PtXuiL6bsakJduzVtdOCrIP7M6qWd1P4QJpYRu_9JXvAAPNc6Om4Dsvi1i28_iuLnOO5c6VNSkYjaUPR0n2g0KI_eITIpwnYobIsDsisYazQZN0_FFOPBlJt60j_AqiuE_Pu5x5m6dBT3o-J1jRRqjrAx39LoLf1jSzBeUCJhkR7JAoxNbppbogzs6UeJdXvdSp_EZw5m00]--></g></svg>