<svg xmlns="http://www.w3.org/2000/svg" xmlns:xlink="http://www.w3.org/1999/xlink" contentStyleType="text/css" data-diagram-type="DESCRIPTION" height="453px" preserveAspectRatio="none" style="width:1551px;height:453px;background:#FFFFFF;" version="1.1" viewBox="0 0 1551 453" width="1551px" zoomAndPan="magnify"><defs/><g><!--cluster Grade Management System--><g class="cluster" data-entity="Grade Management System" data-source-line="1" data-uid="ent0002" id="cluster_Grade Management System"><path d="M8.5,6 L227.9766,6 A3.75,3.75 0 0 1 230.4766,8.5 L237.4766,28.2969 L1099.5,28.2969 A2.5,2.5 0 0 1 1102,30.7969 L1102,443.69 A2.5,2.5 0 0 1 1099.5,446.19 L8.5,446.19 A2.5,2.5 0 0 1 6,443.69 L6,8.5 A2.5,2.5 0 0 1 8.5,6" fill="none" style="stroke:#000000;stroke-width:1.5;"/><line style="stroke:#000000;stroke-width:1.5;" x1="6" x2="237.4766" y1="28.2969" y2="28.2969"/><text fill="#000000" font-family="sans-serif" font-size="14" font-weight="bold" lengthAdjust="spacing" textLength="218.4766" x="10" y="20.9951">Grade Management System</text></g><!--cluster Data Input--><g class="cluster" data-entity="Data Input" data-source-line="4" data-uid="ent0004" id="cluster_Data Input"><path d="M442.5,112.3 L527.4385,112.3 A3.75,3.75 0 0 1 529.9385,114.8 L536.9385,134.5969 L863.5,134.5969 A2.5,2.5 0 0 1 866,137.0969 L866,313.39 A2.5,2.5 0 0 1 863.5,315.89 L442.5,315.89 A2.5,2.5 0 0 1 440,313.39 L440,114.8 A2.5,2.5 0 0 1 442.5,112.3" fill="none" style="stroke:#000000;stroke-width:1.5;"/><line style="stroke:#000000;stroke-width:1.5;" x1="440" x2="536.9385" y1="134.5969" y2="134.5969"/><text fill="#000000" font-family="sans-serif" font-size="14" font-weight="bold" lengthAdjust="spacing" textLength="83.9385" x="444" y="127.2951">Data Input</text></g><!--cluster Calculations--><g class="cluster" data-entity="Calculations" data-source-line="10" data-uid="ent0008" id="cluster_Calculations"><path d="M45.5,112.3 L142.9414,112.3 A3.75,3.75 0 0 1 145.4414,114.8 L152.4414,134.5969 L413.5,134.5969 A2.5,2.5 0 0 1 416,137.0969 L416,313.39 A2.5,2.5 0 0 1 413.5,315.89 L45.5,315.89 A2.5,2.5 0 0 1 43,313.39 L43,114.8 A2.5,2.5 0 0 1 45.5,112.3" fill="none" style="stroke:#000000;stroke-width:1.5;"/><line style="stroke:#000000;stroke-width:1.5;" x1="43" x2="152.4414" y1="134.5969" y2="134.5969"/><text fill="#000000" font-family="sans-serif" font-size="14" font-weight="bold" lengthAdjust="spacing" textLength="96.4414" x="47" y="127.2951">Calculations</text></g><!--cluster Output--><g class="cluster" data-entity="Output" data-source-line="16" data-uid="ent0012" id="cluster_Output"><path d="M892.5,112.3 L948.7412,112.3 A3.75,3.75 0 0 1 951.2412,114.8 L958.2412,134.5969 L1075.5,134.5969 A2.5,2.5 0 0 1 1078,137.0969 L1078,419.69 A2.5,2.5 0 0 1 1075.5,422.19 L892.5,422.19 A2.5,2.5 0 0 1 890,419.69 L890,114.8 A2.5,2.5 0 0 1 892.5,112.3" fill="none" style="stroke:#000000;stroke-width:1.5;"/><line style="stroke:#000000;stroke-width:1.5;" x1="890" x2="958.2412" y1="134.5969" y2="134.5969"/><text fill="#000000" font-family="sans-serif" font-size="14" font-weight="bold" lengthAdjust="spacing" textLength="55.2412" x="894" y="127.2951">Output</text></g><!--entity main--><g class="entity" data-entity="main" data-source-line="2" data-uid="ent0003" id="entity_main"><rect fill="#F1F1F1" height="46.2969" rx="2.5" ry="2.5" style="stroke:#181818;stroke-width:0.5;" width="137.4941" x="596.25" y="41"/><rect fill="#F1F1F1" height="10" style="stroke:#181818;stroke-width:0.5;" width="15" x="713.7441" y="46"/><rect fill="#F1F1F1" height="2" style="stroke:#181818;stroke-width:0.5;" width="4" x="711.7441" y="48"/><rect fill="#F1F1F1" height="2" style="stroke:#181818;stroke-width:0.5;" width="4" x="711.7441" y="52"/><text fill="#000000" font-family="sans-serif" font-size="14" lengthAdjust="spacing" textLength="97.4941" x="611.25" y="73.9951">Main Program</text></g><!--entity getStudent--><g class="entity" data-entity="getStudent" data-source-line="5" data-uid="ent0005" id="entity_getStudent"><rect fill="#F1F1F1" height="46.2969" rx="2.5" ry="2.5" style="stroke:#181818;stroke-width:0.5;" width="155.459" x="694.27" y="147.3"/><rect fill="#F1F1F1" height="10" style="stroke:#181818;stroke-width:0.5;" width="15" x="829.729" y="152.3"/><rect fill="#F1F1F1" height="2" style="stroke:#181818;stroke-width:0.5;" width="4" x="827.729" y="154.3"/><rect fill="#F1F1F1" height="2" style="stroke:#181818;stroke-width:0.5;" width="4" x="827.729" y="158.3"/><text fill="#000000" font-family="sans-serif" font-size="14" lengthAdjust="spacing" textLength="115.459" x="709.27" y="180.2951">Get Student Info</text></g><!--entity getScores--><g class="entity" data-entity="getScores" data-source-line="6" data-uid="ent0006" id="entity_getScores"><rect fill="#F1F1F1" height="46.2969" rx="2.5" ry="2.5" style="stroke:#181818;stroke-width:0.5;" width="203.0918" x="456.45" y="147.3"/><rect fill="#F1F1F1" height="10" style="stroke:#181818;stroke-width:0.5;" width="15" x="639.5418" y="152.3"/><rect fill="#F1F1F1" height="2" style="stroke:#181818;stroke-width:0.5;" width="4" x="637.5418" y="154.3"/><rect fill="#F1F1F1" height="2" style="stroke:#181818;stroke-width:0.5;" width="4" x="637.5418" y="158.3"/><text fill="#000000" font-family="sans-serif" font-size="14" lengthAdjust="spacing" textLength="163.0918" x="471.45" y="180.2951">Get Assignment Scores</text></g><!--entity validate--><g class="entity" data-entity="validate" data-source-line="7" data-uid="ent0007" id="entity_validate"><rect fill="#F1F1F1" height="46.2969" rx="2.5" ry="2.5" style="stroke:#181818;stroke-width:0.5;" width="138.2051" x="702.9" y="253.6"/><rect fill="#F1F1F1" height="10" style="stroke:#181818;stroke-width:0.5;" width="15" x="821.1051" y="258.6"/><rect fill="#F1F1F1" height="2" style="stroke:#181818;stroke-width:0.5;" width="4" x="819.1051" y="260.6"/><rect fill="#F1F1F1" height="2" style="stroke:#181818;stroke-width:0.5;" width="4" x="819.1051" y="264.6"/><text fill="#000000" font-family="sans-serif" font-size="14" lengthAdjust="spacing" textLength="98.2051" x="717.9" y="286.5951">Validate Input</text></g><!--entity calcAvg--><g class="entity" data-entity="calcAvg" data-source-line="11" data-uid="ent0009" id="entity_calcAvg"><rect fill="#F1F1F1" height="46.2969" rx="2.5" ry="2.5" style="stroke:#181818;stroke-width:0.5;" width="168.1465" x="231.93" y="147.3"/><rect fill="#F1F1F1" height="10" style="stroke:#181818;stroke-width:0.5;" width="15" x="380.0765" y="152.3"/><rect fill="#F1F1F1" height="2" style="stroke:#181818;stroke-width:0.5;" width="4" x="378.0765" y="154.3"/><rect fill="#F1F1F1" height="2" style="stroke:#181818;stroke-width:0.5;" width="4" x="378.0765" y="158.3"/><text fill="#000000" font-family="sans-serif" font-size="14" lengthAdjust="spacing" textLength="128.1465" x="246.93" y="180.2951">Calculate Average</text></g><!--entity calcGrade--><g class="entity" data-entity="calcGrade" data-source-line="12" data-uid="ent0010" id="entity_calcGrade"><rect fill="#F1F1F1" height="46.2969" rx="2.5" ry="2.5" style="stroke:#181818;stroke-width:0.5;" width="207.6104" x="192.19" y="253.6"/><rect fill="#F1F1F1" height="10" style="stroke:#181818;stroke-width:0.5;" width="15" x="379.8004" y="258.6"/><rect fill="#F1F1F1" height="2" style="stroke:#181818;stroke-width:0.5;" width="4" x="377.8004" y="260.6"/><rect fill="#F1F1F1" height="2" style="stroke:#181818;stroke-width:0.5;" width="4" x="377.8004" y="264.6"/><text fill="#000000" font-family="sans-serif" font-size="14" lengthAdjust="spacing" textLength="167.6104" x="207.19" y="286.5951">Determine Letter Grade</text></g><!--entity calcGPA--><g class="entity" data-entity="calcGPA" data-source-line="13" data-uid="ent0011" id="entity_calcGPA"><rect fill="#F1F1F1" height="46.2969" rx="2.5" ry="2.5" style="stroke:#181818;stroke-width:0.5;" width="138.7041" x="58.65" y="147.3"/><rect fill="#F1F1F1" height="10" style="stroke:#181818;stroke-width:0.5;" width="15" x="177.3541" y="152.3"/><rect fill="#F1F1F1" height="2" style="stroke:#181818;stroke-width:0.5;" width="4" x="175.3541" y="154.3"/><rect fill="#F1F1F1" height="2" style="stroke:#181818;stroke-width:0.5;" width="4" x="175.3541" y="158.3"/><text fill="#000000" font-family="sans-serif" font-size="14" lengthAdjust="spacing" textLength="98.7041" x="73.65" y="180.2951">Calculate GPA</text></g><!--entity display--><g class="entity" data-entity="display" data-source-line="17" data-uid="ent0013" id="entity_display"><rect fill="#F1F1F1" height="46.2969" rx="2.5" ry="2.5" style="stroke:#181818;stroke-width:0.5;" width="147.2354" x="908.38" y="147.3"/><rect fill="#F1F1F1" height="10" style="stroke:#181818;stroke-width:0.5;" width="15" x="1035.6154" y="152.3"/><rect fill="#F1F1F1" height="2" style="stroke:#181818;stroke-width:0.5;" width="4" x="1033.6154" y="154.3"/><rect fill="#F1F1F1" height="2" style="stroke:#181818;stroke-width:0.5;" width="4" x="1033.6154" y="158.3"/><text fill="#000000" font-family="sans-serif" font-size="14" lengthAdjust="spacing" textLength="107.2354" x="923.38" y="180.2951">Display Results</text></g><!--entity report--><g class="entity" data-entity="report" data-source-line="18" data-uid="ent0014" id="entity_report"><rect fill="#F1F1F1" height="46.2969" rx="2.5" ry="2.5" style="stroke:#181818;stroke-width:0.5;" width="156.874" x="905.56" y="253.6"/><rect fill="#F1F1F1" height="10" style="stroke:#181818;stroke-width:0.5;" width="15" x="1042.434" y="258.6"/><rect fill="#F1F1F1" height="2" style="stroke:#181818;stroke-width:0.5;" width="4" x="1040.434" y="260.6"/><rect fill="#F1F1F1" height="2" style="stroke:#181818;stroke-width:0.5;" width="4" x="1040.434" y="264.6"/><text fill="#000000" font-family="sans-serif" font-size="14" lengthAdjust="spacing" textLength="116.874" x="920.56" y="286.5951">Generate Report</text></g><!--entity save--><g class="entity" data-entity="save" data-source-line="19" data-uid="ent0015" id="entity_save"><rect fill="#F1F1F1" height="46.2969" rx="2.5" ry="2.5" style="stroke:#181818;stroke-width:0.5;" width="121.7646" x="923.12" y="359.89"/><rect fill="#F1F1F1" height="10" style="stroke:#181818;stroke-width:0.5;" width="15" x="1024.8846" y="364.89"/><rect fill="#F1F1F1" height="2" style="stroke:#181818;stroke-width:0.5;" width="4" x="1022.8846" y="366.89"/><rect fill="#F1F1F1" height="2" style="stroke:#181818;stroke-width:0.5;" width="4" x="1022.8846" y="370.89"/><text fill="#000000" font-family="sans-serif" font-size="14" lengthAdjust="spacing" textLength="81.7646" x="938.12" y="392.8851">Save to File</text></g><g class="entity" data-entity="GMN26" data-source-line="35" data-uid="ent0027" id="entity_GMN26"><path d="M1117.87,51.58 L1117.87,60.15 L734.1,64.15 L1117.87,68.15 L1117.87,76.7128 A0,0 0 0 0 1117.87,76.7128 L1272.139,76.7128 A0,0 0 0 0 1272.139,76.7128 L1272.139,61.58 L1262.139,51.58 L1117.87,51.58 A0,0 0 0 0 1117.87,51.58" fill="#FEFFDD" style="stroke:#181818;stroke-width:0.5;"/><path d="M1262.139,51.58 L1262.139,61.58 L1272.139,61.58 L1262.139,51.58" fill="#FEFFDD" style="stroke:#181818;stroke-width:0.5;"/><text fill="#000000" font-family="sans-serif" font-size="13" lengthAdjust="spacing" textLength="133.269" x="1123.87" y="68.6469">Controls overall flow</text></g><g class="entity" data-entity="GMN29" data-source-line="36" data-uid="ent0030" id="entity_GMN29"><path d="M1117.7,264.18 L1117.7,289.3128 L1272.2991,289.3128 L1272.2991,274.18 L1262.2991,264.18 L1117.7,264.18" fill="#FEFFDD" style="stroke:#181818;stroke-width:0.5;"/><path d="M1262.2991,264.18 L1262.2991,274.18 L1272.2991,274.18 L1262.2991,264.18" fill="#FEFFDD" style="stroke:#181818;stroke-width:1;"/><text fill="#000000" font-family="sans-serif" font-size="13" lengthAdjust="spacing" textLength="133.5991" x="1123.7" y="281.2469">Ensures data quality</text></g><g class="entity" data-entity="GMN32" data-source-line="37" data-uid="ent0033" id="entity_GMN32"><path d="M1307.4,264.18 L1307.4,289.3128 L1544.6075,289.3128 L1544.6075,274.18 L1534.6075,264.18 L1307.4,264.18" fill="#FEFFDD" style="stroke:#181818;stroke-width:0.5;"/><path d="M1534.6075,264.18 L1534.6075,274.18 L1544.6075,274.18 L1534.6075,264.18" fill="#FEFFDD" style="stroke:#181818;stroke-width:1;"/><text fill="#000000" font-family="sans-serif" font-size="13" lengthAdjust="spacing" textLength="216.2075" x="1313.4" y="281.2469">Uses average to determine letter</text></g><!--link main to getStudent--><g class="link" data-entity-1="main" data-entity-2="getStudent" data-source-line="23" data-uid="lnk16" id="link_main_getStudent"><path d="M688.22,87.78 C706.16,105.28 726.5926,125.1928 744.5326,142.6728" fill="none" id="main-to-getStudent" style="stroke:#181818;stroke-width:1;"/><polygon fill="#181818" points="748.83,146.86,745.1754,137.7143,745.2489,143.3707,739.5925,143.4441,748.83,146.86" style="stroke:#181818;stroke-width:1;"/></g><!--link main to getScores--><g class="link" data-entity-1="main" data-entity-2="getScores" data-source-line="24" data-uid="lnk17" id="link_main_getScores"><path d="M641.78,87.78 C623.84,105.28 603.4074,125.1928 585.4674,142.6728" fill="none" id="main-to-getScores" style="stroke:#181818;stroke-width:1;"/><polygon fill="#181818" points="581.17,146.86,590.4075,143.4441,584.7511,143.3707,584.8246,137.7143,581.17,146.86" style="stroke:#181818;stroke-width:1;"/></g><!--link main to calcAvg--><g class="link" data-entity-1="main" data-entity-2="calcAvg" data-source-line="25" data-uid="lnk18" id="link_main_calcAvg"><path d="M595.93,71.53 C550.69,77.07 490.77,87.02 440,104.3 C408.69,114.95 380.8113,129.6105 356.7213,143.8905" fill="none" id="main-to-calcAvg" style="stroke:#181818;stroke-width:1;"/><polygon fill="#181818" points="351.56,146.95,361.3417,145.8016,355.8611,144.4004,357.2623,138.9198,351.56,146.95" style="stroke:#181818;stroke-width:1;"/></g><!--link main to calcGrade--><g class="link" data-entity-1="main" data-entity-2="calcGrade" data-source-line="26" data-uid="lnk19" id="link_main_calcGrade"><path d="M595.92,66.98 C437.43,71.5 59.76,84.32 41,104.3 C13.83,133.23 17.63,161.52 41,193.6 C75.44,240.87 131.6469,260.5624 185.9569,269.3424" fill="none" id="main-to-calcGrade" style="stroke:#181818;stroke-width:1;"/><polygon fill="#181818" points="191.88,270.3,183.6337,264.9149,186.9441,269.502,182.357,272.8124,191.88,270.3" style="stroke:#181818;stroke-width:1;"/></g><!--link main to display--><g class="link" data-entity-1="main" data-entity-2="display" data-source-line="27" data-uid="lnk20" id="link_main_display"><path d="M733.93,73.03 C773.43,78.9 823.45,88.67 866,104.3 C895.38,115.09 921.0779,129.5047 943.5479,143.7047" fill="none" id="main-to-display" style="stroke:#181818;stroke-width:1;"/><polygon fill="#181818" points="948.62,146.91,943.1488,138.7206,944.3933,144.2389,938.875,145.4834,948.62,146.91" style="stroke:#181818;stroke-width:1;"/></g><!--link getStudent to validate--><g class="link" data-entity-1="getStudent" data-entity-2="validate" data-source-line="29" data-uid="lnk21" id="link_getStudent_validate"><path d="M772,194.08 C772,211.57 772,229.68 772,247.16" fill="none" id="getStudent-to-validate" style="stroke:#181818;stroke-width:1;"/><polygon fill="#181818" points="772,253.16,776,244.16,772,248.16,768,244.16,772,253.16" style="stroke:#181818;stroke-width:1;"/></g><!--link getScores to validate--><g class="link" data-entity-1="getScores" data-entity-2="validate" data-source-line="30" data-uid="lnk22" id="link_getScores_validate"><path d="M604.43,194.08 C640.33,211.57 684.3861,233.0522 720.2661,250.5322" fill="none" id="getScores-to-validate" style="stroke:#181818;stroke-width:1;"/><polygon fill="#181818" points="725.66,253.16,719.321,245.6223,721.1651,250.9702,715.8172,252.8142,725.66,253.16" style="stroke:#181818;stroke-width:1;"/></g><!--link calcAvg to calcGrade--><g class="link" data-entity-1="calcAvg" data-entity-2="calcGrade" data-source-line="31" data-uid="lnk23" id="link_calcAvg_calcGrade"><path d="M311.66,194.08 C308.31,211.57 304.8093,229.7872 301.4593,247.2672" fill="none" id="calcAvg-to-calcGrade" style="stroke:#181818;stroke-width:1;"/><polygon fill="#181818" points="300.33,253.16,305.9525,245.0738,301.2711,248.2494,298.0955,243.568,300.33,253.16" style="stroke:#181818;stroke-width:1;"/></g><!--link display to report--><g class="link" data-entity-1="display" data-entity-2="report" data-source-line="32" data-uid="lnk24" id="link_display_report"><path d="M982.43,194.08 C982.77,211.57 983.1133,229.6811 983.4533,247.1611" fill="none" id="display-to-report" style="stroke:#181818;stroke-width:1;"/><polygon fill="#181818" points="983.57,253.16,987.3942,244.0839,983.4728,248.1609,979.3957,244.2395,983.57,253.16" style="stroke:#181818;stroke-width:1;"/></g><!--link report to save--><g class="link" data-entity-1="report" data-entity-2="save" data-source-line="33" data-uid="lnk25" id="link_report_save"><path d="M984,300.38 C984,317.87 984,335.97 984,353.45" fill="none" id="report-to-save" style="stroke:#181818;stroke-width:1;"/><polygon fill="#181818" points="984,359.45,988,350.45,984,354.45,980,350.45,984,359.45" style="stroke:#181818;stroke-width:1;"/></g><!--link validate to GMN29--><g class="link" data-entity-1="validate" data-entity-2="GMN29" data-source-line="36" data-uid="lnk31" id="link_validate_GMN29"><path d="M819.3,253.15 C844.75,241.77 877.08,229.35 907.5,223.6 C974.32,210.96 993.7,210.88 1060.5,223.6 C1100.7,231.25 1144.24,250.71 1170.56,263.83" fill="none" id="validate-GMN29" style="stroke:#181818;stroke-width:1;stroke-dasharray:7.0,7.0;"/></g><!--link calcGrade to GMN32--><g class="link" data-entity-1="calcGrade" data-entity-2="GMN32" data-source-line="37" data-uid="lnk34" id="link_calcGrade_GMN32"><path d="M352.82,253.13 C383.28,241.74 421.8,229.32 457.5,223.6 C636.33,194.93 1093.9,193.55 1272.5,223.6 C1317.69,231.2 1367.36,250.56 1397.61,263.7" fill="none" id="calcGrade-GMN32" style="stroke:#181818;stroke-width:1;stroke-dasharray:7.0,7.0;"/></g><!--SRC=[PLB1JiCm3BttAwpTzmCSaAeDfabCL9lWWZXOhLSYqgGaRj64-7VSfCtMSchoylpy_EeMoq-i2LOxXnN10OtS6Z8CfujdQbRmam6y7L0PA9oj7JRlW1uQ0J9vQQVwBJB2thGTnn8fsf6eS5SDQdjpjg6m9XwnAodtNjKcTYsj8v-OuHQ9hwXLXKonIM3q8oI4tvcP3UgoqyZA6f_iJ211tfCJNj0e1StxEbAsnEGQPGYUYEK88PN42xUbsAx8huGY_-VbkUFRKBRAjnelS2JVQOwJLX6R0Z7YJeIFr5eN1tNX6DzFs1EmXKUbepClGEWgVOVV0klr_MtCCom6cg1f-XaGnqpGv2wxQWOyfPzqv_2elP0TrG8wZXK_0GcpPCRA-4xL7mps75ODxc1Z3JkhFTZXxsaDPss_5zIfjz0VZEy6IzMmbr-TFF1bmKwcXFxYXOjnBuPqgxG9Ecp27m00]--></g></svg>