<svg xmlns="http://www.w3.org/2000/svg" xmlns:xlink="http://www.w3.org/1999/xlink" contentStyleType="text/css" data-diagram-type="DESCRIPTION" height="688px" preserveAspectRatio="none" style="width:1004px;height:688px;background:#FFFFFF;" version="1.1" viewBox="0 0 1004 688" width="1004px" zoomAndPan="magnify"><defs/><g><!--cluster Online Shopping System--><g class="cluster" data-entity="Online Shopping System" data-source-line="1" data-uid="ent0002" id="cluster_Online Shopping System"><path d="M8.5,6 L202.9912,6 A3.75,3.75 0 0 1 205.4912,8.5 L212.4912,28.2969 L994.5,28.2969 A2.5,2.5 0 0 1 997,30.7969 L997,678.98 A2.5,2.5 0 0 1 994.5,681.48 L8.5,681.48 A2.5,2.5 0 0 1 6,678.98 L6,8.5 A2.5,2.5 0 0 1 8.5,6" fill="none" style="stroke:#000000;stroke-width:1.5;"/><line style="stroke:#000000;stroke-width:1.5;" x1="6" x2="212.4912" y1="28.2969" y2="28.2969"/><text fill="#000000" font-family="sans-serif" font-size="14" font-weight="bold" lengthAdjust="spacing" textLength="193.4912" x="10" y="20.9951">Online Shopping System</text></g><!--cluster User Management--><g class="cluster" data-entity="User Management" data-source-line="2" data-uid="ent0003" id="cluster_User Management"><path d="M476.5,57 L621.5264,57 A3.75,3.75 0 0 1 624.0264,59.5 L631.0264,79.2969 L869.5,79.2969 A2.5,2.5 0 0 1 872,81.7969 L872,274.09 A2.5,2.5 0 0 1 869.5,276.59 L476.5,276.59 A2.5,2.5 0 0 1 474,274.09 L474,59.5 A2.5,2.5 0 0 1 476.5,57" fill="none" style="stroke:#000000;stroke-width:1.5;"/><line style="stroke:#000000;stroke-width:1.5;" x1="474" x2="631.0264" y1="79.2969" y2="79.2969"/><text fill="#000000" font-family="sans-serif" font-size="14" font-weight="bold" lengthAdjust="spacing" textLength="144.0264" x="478" y="71.9951">User Management</text></g><!--cluster Product Catalog--><g class="cluster" data-entity="Product Catalog" data-source-line="8" data-uid="ent0007" id="cluster_Product Catalog"><path d="M40.5,57 L168.4365,57 A3.75,3.75 0 0 1 170.9365,59.5 L177.9365,79.2969 L431.5,79.2969 A2.5,2.5 0 0 1 434,81.7969 L434,274.09 A2.5,2.5 0 0 1 431.5,276.59 L40.5,276.59 A2.5,2.5 0 0 1 38,274.09 L38,59.5 A2.5,2.5 0 0 1 40.5,57" fill="none" style="stroke:#000000;stroke-width:1.5;"/><line style="stroke:#000000;stroke-width:1.5;" x1="38" x2="177.9365" y1="79.2969" y2="79.2969"/><text fill="#000000" font-family="sans-serif" font-size="14" font-weight="bold" lengthAdjust="spacing" textLength="126.9365" x="42" y="71.9951">Product Catalog</text></g><!--cluster Shopping Cart--><g class="cluster" data-entity="Shopping Cart" data-source-line="14" data-uid="ent0011" id="cluster_Shopping Cart"><path d="M40.5,316.59 L154.1904,316.59 A3.75,3.75 0 0 1 156.6904,319.09 L163.6904,338.8869 L463.5,338.8869 A2.5,2.5 0 0 1 466,341.3869 L466,540.68 A2.5,2.5 0 0 1 463.5,543.18 L40.5,543.18 A2.5,2.5 0 0 1 38,540.68 L38,319.09 A2.5,2.5 0 0 1 40.5,316.59" fill="none" style="stroke:#000000;stroke-width:1.5;"/><line style="stroke:#000000;stroke-width:1.5;" x1="38" x2="163.6904" y1="338.8869" y2="338.8869"/><text fill="#000000" font-family="sans-serif" font-size="14" font-weight="bold" lengthAdjust="spacing" textLength="112.6904" x="42" y="331.5851">Shopping Cart</text></g><!--cluster Order Processing--><g class="cluster" data-entity="Order Processing" data-source-line="20" data-uid="ent0015" id="cluster_Order Processing"><path d="M508.5,429.89 L645.6309,429.89 A3.75,3.75 0 0 1 648.1309,432.39 L655.1309,452.1869 L962.5,452.1869 A2.5,2.5 0 0 1 965,454.6869 L965,646.98 A2.5,2.5 0 0 1 962.5,649.48 L508.5,649.48 A2.5,2.5 0 0 1 506,646.98 L506,432.39 A2.5,2.5 0 0 1 508.5,429.89" fill="none" style="stroke:#000000;stroke-width:1.5;"/><line style="stroke:#000000;stroke-width:1.5;" x1="506" x2="655.1309" y1="452.1869" y2="452.1869"/><text fill="#000000" font-family="sans-serif" font-size="14" font-weight="bold" lengthAdjust="spacing" textLength="136.1309" x="510" y="444.8851">Order Processing</text></g><!--entity Login/Registration--><g class="entity" data-entity="Login/Registration" data-source-line="3" data-uid="ent0004" id="entity_Login/Registration"><rect fill="#F1F1F1" height="46.2969" rx="2.5" ry="2.5" style="stroke:#181818;stroke-width:0.5;" width="167.7842" x="498.11" y="100"/><rect fill="#F1F1F1" height="10" style="stroke:#181818;stroke-width:0.5;" width="15" x="645.8942" y="105"/><rect fill="#F1F1F1" height="2" style="stroke:#181818;stroke-width:0.5;" width="4" x="643.8942" y="107"/><rect fill="#F1F1F1" height="2" style="stroke:#181818;stroke-width:0.5;" width="4" x="643.8942" y="111"/><text fill="#000000" font-family="sans-serif" font-size="14" lengthAdjust="spacing" textLength="127.7842" x="513.11" y="132.9951">Login/Registration</text></g><!--entity User Profiles--><g class="entity" data-entity="User Profiles" data-source-line="4" data-uid="ent0005" id="entity_User Profiles"><rect fill="#F1F1F1" height="46.2969" rx="2.5" ry="2.5" style="stroke:#181818;stroke-width:0.5;" width="127.7393" x="701.13" y="100"/><rect fill="#F1F1F1" height="10" style="stroke:#181818;stroke-width:0.5;" width="15" x="808.8693" y="105"/><rect fill="#F1F1F1" height="2" style="stroke:#181818;stroke-width:0.5;" width="4" x="806.8693" y="107"/><rect fill="#F1F1F1" height="2" style="stroke:#181818;stroke-width:0.5;" width="4" x="806.8693" y="111"/><text fill="#000000" font-family="sans-serif" font-size="14" lengthAdjust="spacing" textLength="87.7393" x="716.13" y="132.9951">User Profiles</text></g><!--entity Authentication--><g class="entity" data-entity="Authentication" data-source-line="5" data-uid="ent0006" id="entity_Authentication"><rect fill="#F1F1F1" height="46.2969" rx="2.5" ry="2.5" style="stroke:#181818;stroke-width:0.5;" width="142.7715" x="503.61" y="206.29"/><rect fill="#F1F1F1" height="10" style="stroke:#181818;stroke-width:0.5;" width="15" x="626.3815" y="211.29"/><rect fill="#F1F1F1" height="2" style="stroke:#181818;stroke-width:0.5;" width="4" x="624.3815" y="213.29"/><rect fill="#F1F1F1" height="2" style="stroke:#181818;stroke-width:0.5;" width="4" x="624.3815" y="217.29"/><text fill="#000000" font-family="sans-serif" font-size="14" lengthAdjust="spacing" textLength="102.7715" x="518.61" y="239.2851">Authentication</text></g><!--entity Product Search--><g class="entity" data-entity="Product Search" data-source-line="9" data-uid="ent0008" id="entity_Product Search"><rect fill="#F1F1F1" height="46.2969" rx="2.5" ry="2.5" style="stroke:#181818;stroke-width:0.5;" width="146.5654" x="61.72" y="100"/><rect fill="#F1F1F1" height="10" style="stroke:#181818;stroke-width:0.5;" width="15" x="188.2854" y="105"/><rect fill="#F1F1F1" height="2" style="stroke:#181818;stroke-width:0.5;" width="4" x="186.2854" y="107"/><rect fill="#F1F1F1" height="2" style="stroke:#181818;stroke-width:0.5;" width="4" x="186.2854" y="111"/><text fill="#000000" font-family="sans-serif" font-size="14" lengthAdjust="spacing" textLength="106.5654" x="76.72" y="132.9951">Product Search</text></g><!--entity Product Details--><g class="entity" data-entity="Product Details" data-source-line="10" data-uid="ent0009" id="entity_Product Details"><rect fill="#F1F1F1" height="46.2969" rx="2.5" ry="2.5" style="stroke:#181818;stroke-width:0.5;" width="146.6953" x="243.65" y="100"/><rect fill="#F1F1F1" height="10" style="stroke:#181818;stroke-width:0.5;" width="15" x="370.3453" y="105"/><rect fill="#F1F1F1" height="2" style="stroke:#181818;stroke-width:0.5;" width="4" x="368.3453" y="107"/><rect fill="#F1F1F1" height="2" style="stroke:#181818;stroke-width:0.5;" width="4" x="368.3453" y="111"/><text fill="#000000" font-family="sans-serif" font-size="14" lengthAdjust="spacing" textLength="106.6953" x="258.65" y="132.9951">Product Details</text></g><!--entity Inventory Management--><g class="entity" data-entity="Inventory Management" data-source-line="11" data-uid="ent0010" id="entity_Inventory Management"><rect fill="#F1F1F1" height="46.2969" rx="2.5" ry="2.5" style="stroke:#181818;stroke-width:0.5;" width="203.543" x="62.23" y="206.29"/><rect fill="#F1F1F1" height="10" style="stroke:#181818;stroke-width:0.5;" width="15" x="245.773" y="211.29"/><rect fill="#F1F1F1" height="2" style="stroke:#181818;stroke-width:0.5;" width="4" x="243.773" y="213.29"/><rect fill="#F1F1F1" height="2" style="stroke:#181818;stroke-width:0.5;" width="4" x="243.773" y="217.29"/><text fill="#000000" font-family="sans-serif" font-size="14" lengthAdjust="spacing" textLength="163.543" x="77.23" y="239.2851">Inventory Management</text></g><!--entity Add/Remove Items--><g class="entity" data-entity="Add/Remove Items" data-source-line="15" data-uid="ent0012" id="entity_Add/Remove Items"><rect fill="#F1F1F1" height="46.2969" rx="2.5" ry="2.5" style="stroke:#181818;stroke-width:0.5;" width="173.123" x="62.44" y="359.59"/><rect fill="#F1F1F1" height="10" style="stroke:#181818;stroke-width:0.5;" width="15" x="215.563" y="364.59"/><rect fill="#F1F1F1" height="2" style="stroke:#181818;stroke-width:0.5;" width="4" x="213.563" y="366.59"/><rect fill="#F1F1F1" height="2" style="stroke:#181818;stroke-width:0.5;" width="4" x="213.563" y="370.59"/><text fill="#000000" font-family="sans-serif" font-size="14" lengthAdjust="spacing" textLength="133.123" x="77.44" y="392.5851">Add/Remove Items</text></g><!--entity Calculate Totals--><g class="entity" data-entity="Calculate Totals" data-source-line="16" data-uid="ent0013" id="entity_Calculate Totals"><rect fill="#F1F1F1" height="46.2969" rx="2.5" ry="2.5" style="stroke:#181818;stroke-width:0.5;" width="152.2051" x="270.9" y="359.59"/><rect fill="#F1F1F1" height="10" style="stroke:#181818;stroke-width:0.5;" width="15" x="403.1051" y="364.59"/><rect fill="#F1F1F1" height="2" style="stroke:#181818;stroke-width:0.5;" width="4" x="401.1051" y="366.59"/><rect fill="#F1F1F1" height="2" style="stroke:#181818;stroke-width:0.5;" width="4" x="401.1051" y="370.59"/><text fill="#000000" font-family="sans-serif" font-size="14" lengthAdjust="spacing" textLength="112.2051" x="285.9" y="392.5851">Calculate Totals</text></g><!--entity Apply Discounts--><g class="entity" data-entity="Apply Discounts" data-source-line="17" data-uid="ent0014" id="entity_Apply Discounts"><rect fill="#F1F1F1" height="46.2969" rx="2.5" ry="2.5" style="stroke:#181818;stroke-width:0.5;" width="152.7314" x="72.63" y="472.89"/><rect fill="#F1F1F1" height="10" style="stroke:#181818;stroke-width:0.5;" width="15" x="205.3614" y="477.89"/><rect fill="#F1F1F1" height="2" style="stroke:#181818;stroke-width:0.5;" width="4" x="203.3614" y="479.89"/><rect fill="#F1F1F1" height="2" style="stroke:#181818;stroke-width:0.5;" width="4" x="203.3614" y="483.89"/><text fill="#000000" font-family="sans-serif" font-size="14" lengthAdjust="spacing" textLength="112.7314" x="87.63" y="505.8851">Apply Discounts</text></g><!--entity Payment Processing--><g class="entity" data-entity="Payment Processing" data-source-line="21" data-uid="ent0016" id="entity_Payment Processing"><rect fill="#F1F1F1" height="46.2969" rx="2.5" ry="2.5" style="stroke:#181818;stroke-width:0.5;" width="181.6816" x="530.16" y="472.89"/><rect fill="#F1F1F1" height="10" style="stroke:#181818;stroke-width:0.5;" width="15" x="691.8416" y="477.89"/><rect fill="#F1F1F1" height="2" style="stroke:#181818;stroke-width:0.5;" width="4" x="689.8416" y="479.89"/><rect fill="#F1F1F1" height="2" style="stroke:#181818;stroke-width:0.5;" width="4" x="689.8416" y="483.89"/><text fill="#000000" font-family="sans-serif" font-size="14" lengthAdjust="spacing" textLength="141.6816" x="545.16" y="505.8851">Payment Processing</text></g><!--entity Order Confirmation--><g class="entity" data-entity="Order Confirmation" data-source-line="22" data-uid="ent0017" id="entity_Order Confirmation"><rect fill="#F1F1F1" height="46.2969" rx="2.5" ry="2.5" style="stroke:#181818;stroke-width:0.5;" width="175.3037" x="746.35" y="472.89"/><rect fill="#F1F1F1" height="10" style="stroke:#181818;stroke-width:0.5;" width="15" x="901.6537" y="477.89"/><rect fill="#F1F1F1" height="2" style="stroke:#181818;stroke-width:0.5;" width="4" x="899.6537" y="479.89"/><rect fill="#F1F1F1" height="2" style="stroke:#181818;stroke-width:0.5;" width="4" x="899.6537" y="483.89"/><text fill="#000000" font-family="sans-serif" font-size="14" lengthAdjust="spacing" textLength="135.3037" x="761.35" y="505.8851">Order Confirmation</text></g><!--entity Shipping Management--><g class="entity" data-entity="Shipping Management" data-source-line="23" data-uid="ent0018" id="entity_Shipping Management"><rect fill="#F1F1F1" height="46.2969" rx="2.5" ry="2.5" style="stroke:#181818;stroke-width:0.5;" width="197.7461" x="530.13" y="579.18"/><rect fill="#F1F1F1" height="10" style="stroke:#181818;stroke-width:0.5;" width="15" x="707.8761" y="584.18"/><rect fill="#F1F1F1" height="2" style="stroke:#181818;stroke-width:0.5;" width="4" x="705.8761" y="586.18"/><rect fill="#F1F1F1" height="2" style="stroke:#181818;stroke-width:0.5;" width="4" x="705.8761" y="590.18"/><text fill="#000000" font-family="sans-serif" font-size="14" lengthAdjust="spacing" textLength="157.7461" x="545.13" y="612.1751">Shipping Management</text></g><!--link User Management to Shopping Cart--><g class="link" data-entity-1="User Management" data-entity-2="Shopping Cart" data-source-line="27" data-uid="lnk19" id="link_User Management_Shopping Cart"><path d="M872.0665,170.2054 C872.2657,172.1807 872.4501,174.1961 872.6165,176.2466 C872.9493,180.3477 873.21,184.5894 873.3725,188.9325 C874.6725,223.6775 869.685,264.915 845,292.59 C815.855,325.26 720.3825,347.455 631.565,361.5275 C587.1563,368.5638 544.4113,373.5694 512.4528,376.8384 C496.4736,378.473 483.191,379.6734 473.7454,380.4764 C471.384,380.6771 469.2624,380.853 467.3985,381.0047 C466.9325,381.0426 472.4633,380.5977 472.0298,380.6326" fill="none" id="User Management-to-Shopping Cart" style="stroke:#181818;stroke-width:1;"/><polygon fill="#181818" points="466.0491,381.1139,475.341,384.379,471.033,380.7128,474.6992,376.4048,466.0491,381.1139" style="stroke:#181818;stroke-width:1;"/></g><!--link Product Catalog to Shopping Cart--><g class="link" data-entity-1="Product Catalog" data-entity-2="Shopping Cart" data-source-line="28" data-uid="lnk20" id="link_Product Catalog_Shopping Cart"><path d="M434.0261,188.7563 C434.0802,189.1922 434.1346,189.6295 434.189,190.0681 C434.4069,191.8225 434.6274,193.5974 434.8502,195.3911 C435.2958,198.9785 435.7507,202.641 436.213,206.3633 C438.0625,221.2529 440.0313,237.1022 442,252.9513 C443.9688,268.8003 445.9375,284.6491 447.787,299.5378 C448.2493,303.2599 448.7042,306.922 449.1498,310.5092 C449.3726,312.3027 449.5931,314.0775 449.811,315.8317 C449.8382,316.051 449.1258,332.6126 449.1529,332.8312" fill="none" id="Product Catalog-to-Shopping Cart" style="stroke:#181818;stroke-width:1;"/><polygon fill="#181818" points="449.8926,338.7855,452.7526,329.361,449.2762,333.8236,444.8136,330.3472,449.8926,338.7855" style="stroke:#181818;stroke-width:1;"/></g><!--link Shopping Cart to Order Processing--><g class="link" data-entity-1="Shopping Cart" data-entity-2="Order Processing" data-source-line="29" data-uid="lnk21" id="link_Shopping Cart_Order Processing"><path d="M466.289,383.6765 C466.5447,383.6749 466.8061,383.6732 467.0729,383.6716 C468.1403,383.6649 469.2962,383.658 470.5372,383.6512 C473.0193,383.6375 475.8425,383.6238 478.9817,383.6114 C491.5386,383.562 509.1524,383.5333 530.2255,383.6078 C572.3716,383.7569 628.3544,384.3188 685.3912,385.9525 C799.465,389.22 917.755,396.775 938,413.89 C941.425,416.785 944.2991,420.1688 946.7054,423.8804 C947.9086,425.7363 946.355,444.5829 947.3347,446.5826" fill="none" id="Shopping Cart-to-Order Processing" style="stroke:#181818;stroke-width:1;"/><polygon fill="#181818" points="949.9745,451.9707,949.6069,442.1287,947.7747,447.4806,942.4228,445.6484,949.9745,451.9707" style="stroke:#181818;stroke-width:1;"/></g><!--SRC=[TL7BQiCm4BpxAvRSG_-W49nBe2MbRaz6XqNUo4jbIKXom9J-UvKgTXI77dTtHlEGG_c5Yc1pD9eDGTDRvzWeQAOGQTZ0TmNWPj1d80-lQD8ma8dv2j2-MCNcwPqKX-WniZKY7_u8RzwUM5EuxdPZx1EPvGBygKgH1Ez66Q76YDggHMJUDuHUzk9-kQU8h6U9Wpad1UkdmkoZq9ArHd_Bikkwb6ImPu93Qc1-iaOjHusHuCCcNqiOv_G4UmxIZYQ6Hv6Zxt85aa98OhSuE5ri5QVhavbHMtDYFvHbDZrdl-jGIR5TVOs0xVRvGYaYYgfTTViFwdxEc7KEyGi0]--></g></svg>