<svg xmlns="http://www.w3.org/2000/svg" xmlns:xlink="http://www.w3.org/1999/xlink" contentStyleType="text/css" data-diagram-type="DESCRIPTION" height="378px" preserveAspectRatio="none" style="width:98px;height:378px;background:#FFFFFF;" version="1.1" viewBox="0 0 98 378" width="98px" zoomAndPan="magnify"><defs/><g><!--entity Step 1--><g class="entity" data-entity="Step 1" data-source-line="1" data-uid="ent0002" id="entity_Step 1"><rect fill="#F1F1F1" height="46.2969" rx="2.5" ry="2.5" style="stroke:#181818;stroke-width:0.5;" width="85.2334" x="7" y="7"/><rect fill="#F1F1F1" height="10" style="stroke:#181818;stroke-width:0.5;" width="15" x="72.2334" y="12"/><rect fill="#F1F1F1" height="2" style="stroke:#181818;stroke-width:0.5;" width="4" x="70.2334" y="14"/><rect fill="#F1F1F1" height="2" style="stroke:#181818;stroke-width:0.5;" width="4" x="70.2334" y="18"/><text fill="#000000" font-family="sans-serif" font-size="14" lengthAdjust="spacing" textLength="45.2334" x="22" y="39.9951">Step 1</text></g><!--entity Step 2--><g class="entity" data-entity="Step 2" data-source-line="1" data-uid="ent0003" id="entity_Step 2"><rect fill="#F1F1F1" height="46.2969" rx="2.5" ry="2.5" style="stroke:#181818;stroke-width:0.5;" width="85.2334" x="7" y="113.3"/><rect fill="#F1F1F1" height="10" style="stroke:#181818;stroke-width:0.5;" width="15" x="72.2334" y="118.3"/><rect fill="#F1F1F1" height="2" style="stroke:#181818;stroke-width:0.5;" width="4" x="70.2334" y="120.3"/><rect fill="#F1F1F1" height="2" style="stroke:#181818;stroke-width:0.5;" width="4" x="70.2334" y="124.3"/><text fill="#000000" font-family="sans-serif" font-size="14" lengthAdjust="spacing" textLength="45.2334" x="22" y="146.2951">Step 2</text></g><!--entity Step 3--><g class="entity" data-entity="Step 3" data-source-line="2" data-uid="ent0005" id="entity_Step 3"><rect fill="#F1F1F1" height="46.2969" rx="2.5" ry="2.5" style="stroke:#181818;stroke-width:0.5;" width="85.2334" x="7" y="219.6"/><rect fill="#F1F1F1" height="10" style="stroke:#181818;stroke-width:0.5;" width="15" x="72.2334" y="224.6"/><rect fill="#F1F1F1" height="2" style="stroke:#181818;stroke-width:0.5;" width="4" x="70.2334" y="226.6"/><rect fill="#F1F1F1" height="2" style="stroke:#181818;stroke-width:0.5;" width="4" x="70.2334" y="230.6"/><text fill="#000000" font-family="sans-serif" font-size="14" lengthAdjust="spacing" textLength="45.2334" x="22" y="252.5951">Step 3</text></g><!--entity Step 4--><g class="entity" data-entity="Step 4" data-source-line="3" data-uid="ent0007" id="entity_Step 4"><rect fill="#F1F1F1" height="46.2969" rx="2.5" ry="2.5" style="stroke:#181818;stroke-width:0.5;" width="85.2334" x="7" y="325.89"/><rect fill="#F1F1F1" height="10" style="stroke:#181818;stroke-width:0.5;" width="15" x="72.2334" y="330.89"/><rect fill="#F1F1F1" height="2" style="stroke:#181818;stroke-width:0.5;" width="4" x="70.2334" y="332.89"/><rect fill="#F1F1F1" height="2" style="stroke:#181818;stroke-width:0.5;" width="4" x="70.2334" y="336.89"/><text fill="#000000" font-family="sans-serif" font-size="14" lengthAdjust="spacing" textLength="45.2334" x="22" y="358.8851">Step 4</text></g><!--link Step 1 to Step 2--><g class="link" data-entity-1="Step 1" data-entity-2="Step 2" data-source-line="1" data-uid="lnk4" id="link_Step 1_Step 2"><path d="M49.62,53.78 C49.62,71.28 49.62,89.38 49.62,106.86" fill="none" id="Step 1-to-Step 2" style="stroke:#181818;stroke-width:1;"/><polygon fill="#181818" points="49.62,112.86,53.62,103.86,49.62,107.86,45.62,103.86,49.62,112.86" style="stroke:#181818;stroke-width:1;"/></g><!--link Step 2 to Step 3--><g class="link" data-entity-1="Step 2" data-entity-2="Step 3" data-source-line="2" data-uid="lnk6" id="link_Step 2_Step 3"><path d="M49.62,160.08 C49.62,177.57 49.62,195.68 49.62,213.16" fill="none" id="Step 2-to-Step 3" style="stroke:#181818;stroke-width:1;"/><polygon fill="#181818" points="49.62,219.16,53.62,210.16,49.62,214.16,45.62,210.16,49.62,219.16" style="stroke:#181818;stroke-width:1;"/></g><!--link Step 3 to Step 4--><g class="link" data-entity-1="Step 3" data-entity-2="Step 4" data-source-line="3" data-uid="lnk8" id="link_Step 3_Step 4"><path d="M49.62,266.38 C49.62,283.87 49.62,301.97 49.62,319.45" fill="none" id="Step 3-to-Step 4" style="stroke:#181818;stroke-width:1;"/><polygon fill="#181818" points="49.62,325.45,53.62,316.45,49.62,320.45,45.62,316.45,49.62,325.45" style="stroke:#181818;stroke-width:1;"/></g><!--SRC=[YmukIIrGC8nLqDMrKuW6SunYkM0C955ZcAWnigX9B000]--></g></svg>