<svg xmlns="http://www.w3.org/2000/svg" xmlns:xlink="http://www.w3.org/1999/xlink" contentStyleType="text/css" data-diagram-type="CLASS" height="218px" preserveAspectRatio="none" style="width:738px;height:218px;background:#FFFFFF;" version="1.1" viewBox="0 0 738 218" width="738px" zoomAndPan="magnify"><defs/><g><!--class Student Assignment Tracker--><g class="entity" data-entity="Student Assignment Tracker" data-source-line="6" data-uid="ent0002" id="entity_Student Assignment Tracker"><rect fill="#F1F1F1" height="48" rx="2.5" ry="2.5" style="stroke:#181818;stroke-width:0.5;" width="231.5" x="249.91" y="7"/><ellipse cx="264.91" cy="23" fill="#C2C2C2" rx="11" ry="11" style="stroke:#181818;stroke-width:1;"/><path d="M267.8787,28.6406 Q267.3006,28.9375 266.66,29.0781 Q266.0194,29.2344 265.3162,29.2344 Q262.8162,29.2344 261.4881,27.5938 Q260.1756,25.9375 260.1756,22.8125 Q260.1756,19.6875 261.4881,18.0313 Q262.8162,16.375 265.3162,16.375 Q266.0194,16.375 266.66,16.5313 Q267.3162,16.6875 267.8787,16.9844 L267.8787,19.7031 Q267.2537,19.125 266.66,18.8594 Q266.0662,18.5781 265.4412,18.5781 Q264.0975,18.5781 263.41,19.6563 Q262.7225,20.7188 262.7225,22.8125 Q262.7225,24.9063 263.41,25.9844 Q264.0975,27.0469 265.4412,27.0469 Q266.0662,27.0469 266.66,26.7813 Q267.2537,26.5 267.8787,25.9219 L267.8787,28.6406 Z " fill="#000000"/><text fill="#000000" font-family="sans-serif" font-size="14" lengthAdjust="spacing" textLength="199.5" x="278.91" y="27.8467">Student Assignment Tracker</text><line style="stroke:#181818;stroke-width:0.5;" x1="250.91" x2="480.41" y1="39" y2="39"/><line style="stroke:#181818;stroke-width:0.5;" x1="250.91" x2="480.41" y1="47" y2="47"/></g><!--class User Interface--><g class="entity" data-entity="User Interface" data-source-line="9" data-uid="ent0003" id="entity_User Interface"><rect fill="#F1F1F1" height="96.8906" rx="2.5" ry="2.5" style="stroke:#181818;stroke-width:0.5;" width="155.3154" x="7" y="115"/><ellipse cx="32.9244" cy="131" fill="#C2C2C2" rx="11" ry="11" style="stroke:#181818;stroke-width:1;"/><path d="M35.8931,136.6406 Q35.315,136.9375 34.6744,137.0781 Q34.0337,137.2344 33.3306,137.2344 Q30.8306,137.2344 29.5025,135.5938 Q28.19,133.9375 28.19,130.8125 Q28.19,127.6875 29.5025,126.0313 Q30.8306,124.375 33.3306,124.375 Q34.0337,124.375 34.6744,124.5313 Q35.3306,124.6875 35.8931,124.9844 L35.8931,127.7031 Q35.2681,127.125 34.6744,126.8594 Q34.0806,126.5781 33.4556,126.5781 Q32.1119,126.5781 31.4244,127.6563 Q30.7369,128.7188 30.7369,130.8125 Q30.7369,132.9063 31.4244,133.9844 Q32.1119,135.0469 33.4556,135.0469 Q34.0806,135.0469 34.6744,134.7813 Q35.2681,134.5 35.8931,133.9219 L35.8931,136.6406 Z " fill="#000000"/><text fill="#000000" font-family="sans-serif" font-size="14" lengthAdjust="spacing" textLength="99.0391" x="49.352" y="135.8467">User Interface</text><line style="stroke:#181818;stroke-width:0.5;" x1="8" x2="161.3154" y1="147" y2="147"/><rect fill="none" height="6" style="stroke:#595959;stroke-width:1;" width="6" x="15" y="157.6484"/><text fill="#000000" font-family="sans-serif" font-size="14" lengthAdjust="spacing" textLength="76.7266" x="27" y="163.9951">Mobile app</text><rect fill="none" height="6" style="stroke:#595959;stroke-width:1;" width="6" x="15" y="173.9453"/><text fill="#000000" font-family="sans-serif" font-size="14" lengthAdjust="spacing" textLength="110.0996" x="27" y="180.292">Web dashboard</text><rect fill="none" height="6" style="stroke:#595959;stroke-width:1;" width="6" x="15" y="190.2422"/><text fill="#000000" font-family="sans-serif" font-size="14" lengthAdjust="spacing" textLength="129.3154" x="27" y="196.5889">Email notifications</text><line style="stroke:#181818;stroke-width:0.5;" x1="8" x2="161.3154" y1="203.8906" y2="203.8906"/></g><!--class Data Storage--><g class="entity" data-entity="Data Storage" data-source-line="15" data-uid="ent0004" id="entity_Data Storage"><rect fill="#F1F1F1" height="96.8906" rx="2.5" ry="2.5" style="stroke:#181818;stroke-width:0.5;" width="159.5195" x="196.9" y="115"/><ellipse cx="227.5894" cy="131" fill="#C2C2C2" rx="11" ry="11" style="stroke:#181818;stroke-width:1;"/><path d="M230.5581,136.6406 Q229.98,136.9375 229.3394,137.0781 Q228.6987,137.2344 227.9956,137.2344 Q225.4956,137.2344 224.1675,135.5938 Q222.855,133.9375 222.855,130.8125 Q222.855,127.6875 224.1675,126.0313 Q225.4956,124.375 227.9956,124.375 Q228.6987,124.375 229.3394,124.5313 Q229.9956,124.6875 230.5581,124.9844 L230.5581,127.7031 Q229.9331,127.125 229.3394,126.8594 Q228.7456,126.5781 228.1206,126.5781 Q226.7769,126.5781 226.0894,127.6563 Q225.4019,128.7188 225.4019,130.8125 Q225.4019,132.9063 226.0894,133.9844 Q226.7769,135.0469 228.1206,135.0469 Q228.7456,135.0469 229.3394,134.7813 Q229.9331,134.5 230.5581,133.9219 L230.5581,136.6406 Z " fill="#000000"/><text fill="#000000" font-family="sans-serif" font-size="14" lengthAdjust="spacing" textLength="92.6543" x="245.0759" y="135.8467">Data Storage</text><line style="stroke:#181818;stroke-width:0.5;" x1="197.9" x2="355.4195" y1="147" y2="147"/><rect fill="none" height="6" style="stroke:#595959;stroke-width:1;" width="6" x="204.9" y="157.6484"/><text fill="#000000" font-family="sans-serif" font-size="14" lengthAdjust="spacing" textLength="133.5195" x="216.9" y="163.9951">Assignment details</text><rect fill="none" height="6" style="stroke:#595959;stroke-width:1;" width="6" x="204.9" y="173.9453"/><text fill="#000000" font-family="sans-serif" font-size="14" lengthAdjust="spacing" textLength="71.5791" x="216.9" y="180.292">Due dates</text><rect fill="none" height="6" style="stroke:#595959;stroke-width:1;" width="6" x="204.9" y="190.2422"/><text fill="#000000" font-family="sans-serif" font-size="14" lengthAdjust="spacing" textLength="122.3359" x="216.9" y="196.5889">Progress tracking</text><line style="stroke:#181818;stroke-width:0.5;" x1="197.9" x2="355.4195" y1="203.8906" y2="203.8906"/></g><!--class Integration--><g class="entity" data-entity="Integration" data-source-line="21" data-uid="ent0005" id="entity_Integration"><rect fill="#F1F1F1" height="96.8906" rx="2.5" ry="2.5" style="stroke:#181818;stroke-width:0.5;" width="127.1992" x="391.06" y="115"/><ellipse cx="414.185" cy="131" fill="#C2C2C2" rx="11" ry="11" style="stroke:#181818;stroke-width:1;"/><path d="M417.1538,136.6406 Q416.5757,136.9375 415.935,137.0781 Q415.2944,137.2344 414.5913,137.2344 Q412.0913,137.2344 410.7632,135.5938 Q409.4507,133.9375 409.4507,130.8125 Q409.4507,127.6875 410.7632,126.0313 Q412.0913,124.375 414.5913,124.375 Q415.2944,124.375 415.935,124.5313 Q416.5913,124.6875 417.1538,124.9844 L417.1538,127.7031 Q416.5288,127.125 415.935,126.8594 Q415.3413,126.5781 414.7163,126.5781 Q413.3725,126.5781 412.685,127.6563 Q411.9975,128.7188 411.9975,130.8125 Q411.9975,132.9063 412.685,133.9844 Q413.3725,135.0469 414.7163,135.0469 Q415.3413,135.0469 415.935,134.7813 Q416.5288,134.5 417.1538,133.9219 L417.1538,136.6406 Z " fill="#000000"/><text fill="#000000" font-family="sans-serif" font-size="14" lengthAdjust="spacing" textLength="77.1436" x="429.9906" y="135.8467">Integration</text><line style="stroke:#181818;stroke-width:0.5;" x1="392.06" x2="517.2592" y1="147" y2="147"/><rect fill="none" height="6" style="stroke:#595959;stroke-width:1;" width="6" x="399.06" y="157.6484"/><text fill="#000000" font-family="sans-serif" font-size="14" lengthAdjust="spacing" textLength="79.6934" x="411.06" y="163.9951">School LMS</text><rect fill="none" height="6" style="stroke:#595959;stroke-width:1;" width="6" x="399.06" y="173.9453"/><text fill="#000000" font-family="sans-serif" font-size="14" lengthAdjust="spacing" textLength="101.0488" x="411.06" y="180.292">Calendar apps</text><rect fill="none" height="6" style="stroke:#595959;stroke-width:1;" width="6" x="399.06" y="190.2422"/><text fill="#000000" font-family="sans-serif" font-size="14" lengthAdjust="spacing" textLength="101.1992" x="411.06" y="196.5889">Email systems</text><line style="stroke:#181818;stroke-width:0.5;" x1="392.06" x2="517.2592" y1="203.8906" y2="203.8906"/></g><!--class Features--><g class="entity" data-entity="Features" data-source-line="27" data-uid="ent0006" id="entity_Features"><rect fill="#F1F1F1" height="96.8906" rx="2.5" ry="2.5" style="stroke:#181818;stroke-width:0.5;" width="178.4482" x="553.43" y="115"/><ellipse cx="607.7689" cy="131" fill="#C2C2C2" rx="11" ry="11" style="stroke:#181818;stroke-width:1;"/><path d="M610.7376,136.6406 Q610.1595,136.9375 609.5189,137.0781 Q608.8782,137.2344 608.1751,137.2344 Q605.6751,137.2344 604.347,135.5938 Q603.0345,133.9375 603.0345,130.8125 Q603.0345,127.6875 604.347,126.0313 Q605.6751,124.375 608.1751,124.375 Q608.8782,124.375 609.5189,124.5313 Q610.1751,124.6875 610.7376,124.9844 L610.7376,127.7031 Q610.1126,127.125 609.5189,126.8594 Q608.9251,126.5781 608.3001,126.5781 Q606.9564,126.5781 606.2689,127.6563 Q605.5814,128.7188 605.5814,130.8125 Q605.5814,132.9063 606.2689,133.9844 Q606.9564,135.0469 608.3001,135.0469 Q608.9251,135.0469 609.5189,134.7813 Q610.1126,134.5 610.7376,133.9219 L610.7376,136.6406 Z " fill="#000000"/><text fill="#000000" font-family="sans-serif" font-size="14" lengthAdjust="spacing" textLength="61.2705" x="628.2689" y="135.8467">Features</text><line style="stroke:#181818;stroke-width:0.5;" x1="554.43" x2="730.8782" y1="147" y2="147"/><rect fill="none" height="6" style="stroke:#595959;stroke-width:1;" width="6" x="561.43" y="157.6484"/><text fill="#000000" font-family="sans-serif" font-size="14" lengthAdjust="spacing" textLength="106.1963" x="573.43" y="163.9951">Deadline alerts</text><rect fill="none" height="6" style="stroke:#595959;stroke-width:1;" width="6" x="561.43" y="173.9453"/><text fill="#000000" font-family="sans-serif" font-size="14" lengthAdjust="spacing" textLength="152.4482" x="573.43" y="180.292">Progress visualisation</text><rect fill="none" height="6" style="stroke:#595959;stroke-width:1;" width="6" x="561.43" y="190.2422"/><text fill="#000000" font-family="sans-serif" font-size="14" lengthAdjust="spacing" textLength="131.5576" x="573.43" y="196.5889">Collaboration tools</text><line style="stroke:#181818;stroke-width:0.5;" x1="554.43" x2="730.8782" y1="203.8906" y2="203.8906"/></g><!--link Student Assignment Tracker to User Interface--><g class="link" data-entity-1="Student Assignment Tracker" data-entity-2="User Interface" data-source-line="33" data-uid="lnk7" id="link_Student Assignment Tracker_User Interface"><path codeLine="33" d="M311.66,55.36 C274.38,71.66 223.78,94.15 179.66,115 C174.16,117.6 173.8984,117.7014 168.2084,120.4614" fill="none" id="Student Assignment Tracker-to-User Interface" style="stroke:#181818;stroke-width:1;"/><polygon fill="#181818" points="162.81,123.08,172.6534,122.7511,167.3087,120.8979,169.1619,115.5532,162.81,123.08" style="stroke:#181818;stroke-width:1;"/></g><!--link Student Assignment Tracker to Data Storage--><g class="link" data-entity-1="Student Assignment Tracker" data-entity-2="Data Storage" data-source-line="34" data-uid="lnk8" id="link_Student Assignment Tracker_Data Storage"><path codeLine="34" d="M349.75,55.32 C338.5,71.81 326.4022,89.5341 312.5822,109.7841" fill="none" id="Student Assignment Tracker-to-Data Storage" style="stroke:#181818;stroke-width:1;"/><polygon fill="#181818" points="309.2,114.74,317.5772,109.561,312.0185,110.6101,310.9694,105.0514,309.2,114.74" style="stroke:#181818;stroke-width:1;"/></g><!--link Student Assignment Tracker to Integration--><g class="link" data-entity-1="Student Assignment Tracker" data-entity-2="Integration" data-source-line="35" data-uid="lnk9" id="link_Student Assignment Tracker_Integration"><path codeLine="35" d="M381.57,55.32 C392.82,71.81 404.9194,89.533 418.7294,109.783" fill="none" id="Student Assignment Tracker-to-Integration" style="stroke:#181818;stroke-width:1;"/><polygon fill="#181818" points="422.11,114.74,420.3438,105.0508,419.2929,110.6092,413.7345,109.5582,422.11,114.74" style="stroke:#181818;stroke-width:1;"/></g><!--link Student Assignment Tracker to Features--><g class="link" data-entity-1="Student Assignment Tracker" data-entity-2="Features" data-source-line="36" data-uid="lnk10" id="link_Student Assignment Tracker_Features"><path codeLine="36" d="M415.5,55.47 C453.74,73.48 502.1019,96.2535 547.7519,117.7535" fill="none" id="Student Assignment Tracker-to-Features" style="stroke:#181818;stroke-width:1;"/><polygon fill="#181818" points="553.18,120.31,546.7422,112.8565,548.6566,118.1796,543.3335,120.094,553.18,120.31" style="stroke:#181818;stroke-width:1;"/></g><!--SRC=[ZP7TJiCm38Nl-nHczti5f6aR26aWH8UuTXktZPR6a-s24EBTIJDjR4L2kuj_SiwN4ztvk4V17dgEN7V2FO79G8MU9jgXumyVMsWmA1N5ZQF6HuANzNAxUBhVhA4Eg5eKlurPQOEZQB1GzMtin-DMiDwHpE2h-BxOVLKIU8X6qc1DunnW3ezS-K20-tqktwW2XzfLZE9oPzsZ3n3PVEDhDCzH9y8hD8JIMB0zoPu1ERAaeBcz6YZ96nsgP-5MI3L5aPZJqoV28smhsVEeMzOTSu3DOvdB9GQA3cNarpDS_LIZVWfwHsX3CZoAhGXT62DEAc8JfdUl0mQlsVvWnY5WnGSWiCIH3VxzXFdyza_oLzouYFIA_VEahbW_1V43]--></g></svg>