<svg xmlns="http://www.w3.org/2000/svg" xmlns:xlink="http://www.w3.org/1999/xlink" contentStyleType="text/css" data-diagram-type="CLASS" height="1024px" preserveAspectRatio="none" style="width:704px;height:1024px;background:#FFFFFF;" version="1.1" viewBox="0 0 704 1024" width="704px" zoomAndPan="magnify"><defs/><g><!--cluster REQ--><g class="cluster" data-entity="REQ" data-source-line="8" data-uid="ent0002" id="cluster_REQ"><rect fill="none" height="431" rx="2.5" ry="2.5" style="stroke:#181818;stroke-width:1;" width="177" x="7" y="7"/><text fill="#000000" font-family="sans-serif" font-size="14" font-weight="bold" lengthAdjust="spacing" textLength="161.1504" x="14.9248" y="21.9951">Requirements Stage</text></g><!--cluster DES--><g class="cluster" data-entity="DES" data-source-line="18" data-uid="ent0009" id="cluster_DES"><rect fill="none" height="262" rx="2.5" ry="2.5" style="stroke:#181818;stroke-width:1;" width="137" x="224" y="313"/><text fill="#000000" font-family="sans-serif" font-size="14" font-weight="bold" lengthAdjust="spacing" textLength="104.8496" x="240.0752" y="327.9951">Design Stage</text></g><!--cluster DEV--><g class="cluster" data-entity="DEV" data-source-line="26" data-uid="ent0014" id="cluster_DEV"><rect fill="none" height="363" rx="2.5" ry="2.5" style="stroke:#181818;stroke-width:1;" width="171" x="355" y="655"/><text fill="#000000" font-family="sans-serif" font-size="14" font-weight="bold" lengthAdjust="spacing" textLength="155.5313" x="362.7344" y="669.9951">Development Stage</text></g><!--entity S1--><g class="entity" data-entity="S1" data-source-line="9" data-uid="ent0003" id="entity_S1"><ellipse cx="103" cy="79" fill="#F1F1F1" rx="8" ry="8" style="stroke:#181818;stroke-width:0.5;"/><text fill="#000000" font-family="sans-serif" font-size="14" lengthAdjust="spacing" textLength="55.1387" x="75.4307" y="108.9951">Sprint 1</text></g><!--entity S2--><g class="entity" data-entity="S2" data-source-line="10" data-uid="ent0004" id="entity_S2"><ellipse cx="103" cy="198" fill="#F1F1F1" rx="8" ry="8" style="stroke:#181818;stroke-width:0.5;"/><text fill="#000000" font-family="sans-serif" font-size="14" lengthAdjust="spacing" textLength="55.1387" x="75.4307" y="227.9951">Sprint 2</text></g><!--entity S3--><g class="entity" data-entity="S3" data-source-line="11" data-uid="ent0005" id="entity_S3"><ellipse cx="103" cy="385" fill="#F1F1F1" rx="8" ry="8" style="stroke:#181818;stroke-width:0.5;"/><text fill="#000000" font-family="sans-serif" font-size="14" lengthAdjust="spacing" textLength="55.1387" x="75.4307" y="414.9951">Sprint 3</text></g><!--entity S4--><g class="entity" data-entity="S4" data-source-line="19" data-uid="ent0010" id="entity_S4"><ellipse cx="283" cy="385" fill="#F1F1F1" rx="8" ry="8" style="stroke:#181818;stroke-width:0.5;"/><text fill="#000000" font-family="sans-serif" font-size="14" lengthAdjust="spacing" textLength="55.1387" x="255.4307" y="414.9951">Sprint 4</text></g><!--entity S5--><g class="entity" data-entity="S5" data-source-line="20" data-uid="ent0011" id="entity_S5"><ellipse cx="283" cy="522" fill="#F1F1F1" rx="8" ry="8" style="stroke:#181818;stroke-width:0.5;"/><text fill="#000000" font-family="sans-serif" font-size="14" lengthAdjust="spacing" textLength="55.1387" x="255.4307" y="551.9951">Sprint 5</text></g><!--entity S6--><g class="entity" data-entity="S6" data-source-line="27" data-uid="ent0015" id="entity_S6"><ellipse cx="467" cy="727" fill="#F1F1F1" rx="8" ry="8" style="stroke:#181818;stroke-width:0.5;"/><text fill="#000000" font-family="sans-serif" font-size="14" lengthAdjust="spacing" textLength="55.1387" x="439.4307" y="756.9951">Sprint 6</text></g><!--entity S7--><g class="entity" data-entity="S7" data-source-line="28" data-uid="ent0016" id="entity_S7"><ellipse cx="467" cy="846" fill="#F1F1F1" rx="8" ry="8" style="stroke:#181818;stroke-width:0.5;"/><text fill="#000000" font-family="sans-serif" font-size="14" lengthAdjust="spacing" textLength="55.1387" x="439.4307" y="875.9951">Sprint 7</text></g><!--entity S8--><g class="entity" data-entity="S8" data-source-line="29" data-uid="ent0017" id="entity_S8"><ellipse cx="467" cy="965" fill="#F1F1F1" rx="8" ry="8" style="stroke:#181818;stroke-width:0.5;"/><text fill="#000000" font-family="sans-serif" font-size="14" lengthAdjust="spacing" textLength="55.1387" x="439.4307" y="994.9951">Sprint 8</text></g><g class="entity" data-entity="G1" data-uid="ent0008" id="entity_G1"><polygon fill="#F1F1F1" points="231,186,243,198,231,210,219,198,231,186" style="stroke:#181818;stroke-width:0.5;"/></g><g class="entity" data-entity="G2" data-uid="ent0013" id="entity_G2"><polygon fill="#F1F1F1" points="397,510,409,522,397,534,385,522,397,510" style="stroke:#181818;stroke-width:0.5;"/></g><g class="entity" data-entity="GMN24" data-source-line="39" data-uid="ent0025" id="entity_GMN24"><path d="M210.94,51.3 L210.94,106.6984 L363.0635,106.6984 L363.0635,61.3 L353.0635,51.3 L210.94,51.3" fill="#FAFAFA" style="stroke:#181818;stroke-width:0.5;"/><path d="M353.0635,51.3 L353.0635,61.3 L363.0635,61.3 L353.0635,51.3" fill="#FAFAFA" style="stroke:#181818;stroke-width:1;"/><text fill="#000000" font-family="sans-serif" font-size="13" lengthAdjust="spacing" textLength="124.9282" x="216.94" y="68.3669">Agile refinement of</text><text fill="#000000" font-family="sans-serif" font-size="13" lengthAdjust="spacing" textLength="131.1235" x="216.94" y="83.4997">requirements within</text><text fill="#000000" font-family="sans-serif" font-size="13" lengthAdjust="spacing" textLength="120.2183" x="216.94" y="98.6325">waterfall structure</text></g><g class="entity" data-entity="GMN27" data-source-line="40" data-uid="ent0028" id="entity_GMN27"><path d="M388.57,364.87 L388.57,405.1356 L549.4216,405.1356 L549.4216,374.87 L539.4216,364.87 L388.57,364.87" fill="#FAFAFA" style="stroke:#181818;stroke-width:0.5;"/><path d="M539.4216,364.87 L539.4216,374.87 L549.4216,374.87 L539.4216,364.87" fill="#FAFAFA" style="stroke:#181818;stroke-width:1;"/><text fill="#000000" font-family="sans-serif" font-size="13" lengthAdjust="spacing" textLength="134.5195" x="394.57" y="381.9369">Iterative prototyping</text><text fill="#000000" font-family="sans-serif" font-size="13" lengthAdjust="spacing" textLength="139.8516" x="394.57" y="397.0697">and design validation</text></g><g class="entity" data-entity="GMN30" data-source-line="41" data-uid="ent0031" id="entity_GMN30"><path d="M550.15,699.3 L550.15,754.6984 L697.8429,754.6984 L697.8429,709.3 L687.8429,699.3 L550.15,699.3" fill="#FAFAFA" style="stroke:#181818;stroke-width:0.5;"/><path d="M687.8429,699.3 L687.8429,709.3 L697.8429,709.3 L687.8429,699.3" fill="#FAFAFA" style="stroke:#181818;stroke-width:1;"/><text fill="#000000" font-family="sans-serif" font-size="13" lengthAdjust="spacing" textLength="122.2559" x="556.15" y="716.3669">Agile development</text><text fill="#000000" font-family="sans-serif" font-size="13" lengthAdjust="spacing" textLength="126.6929" x="556.15" y="731.4997">sprints with regular</text><text fill="#000000" font-family="sans-serif" font-size="13" lengthAdjust="spacing" textLength="79.1108" x="556.15" y="746.6325">deliverables</text></g><!--link S1 to S2--><g class="link" data-entity-1="S1" data-entity-2="S2" data-source-line="12" data-uid="lnk6" id="link_S1_S2"><path codeLine="12" d="M103,87.68 C103,108.83 103,161.78 103,183.14" fill="none" id="S1-to-S2" style="stroke:#181818;stroke-width:1;"/><polygon fill="#181818" points="103,189.14,107,180.14,103,184.14,99,180.14,103,189.14" style="stroke:#181818;stroke-width:1;"/></g><!--link S2 to S3--><g class="link" data-entity-1="S2" data-entity-2="S3" data-source-line="13" data-uid="lnk7" id="link_S2_S3"><path codeLine="13" d="M103,206.95 C103,237.38 103,340.26 103,370.29" fill="none" id="S2-to-S3" style="stroke:#181818;stroke-width:1;"/><polygon fill="#181818" points="103,376.29,107,367.29,103,371.29,99,367.29,103,376.29" style="stroke:#181818;stroke-width:1;"/></g><!--link S4 to S5--><g class="link" data-entity-1="S4" data-entity-2="S5" data-source-line="21" data-uid="lnk12" id="link_S4_S5"><path codeLine="21" d="M283,393.64 C283,417.29 283,483.11 283,507.1" fill="none" id="S4-to-S5" style="stroke:#181818;stroke-width:1;"/><polygon fill="#181818" points="283,513.1,287,504.1,283,508.1,279,504.1,283,513.1" style="stroke:#181818;stroke-width:1;"/></g><!--link S6 to S7--><g class="link" data-entity-1="S6" data-entity-2="S7" data-source-line="30" data-uid="lnk18" id="link_S6_S7"><path codeLine="30" d="M467,735.68 C467,756.83 467,809.78 467,831.14" fill="none" id="S6-to-S7" style="stroke:#181818;stroke-width:1;"/><polygon fill="#181818" points="467,837.14,471,828.14,467,832.14,463,828.14,467,837.14" style="stroke:#181818;stroke-width:1;"/></g><!--link S7 to S8--><g class="link" data-entity-1="S7" data-entity-2="S8" data-source-line="31" data-uid="lnk19" id="link_S7_S8"><path codeLine="31" d="M467,854.68 C467,875.83 467,928.78 467,950.14" fill="none" id="S7-to-S8" style="stroke:#181818;stroke-width:1;"/><polygon fill="#181818" points="467,956.14,471,947.14,467,951.14,463,947.14,467,956.14" style="stroke:#181818;stroke-width:1;"/></g><!--link REQ to G1--><g class="link" data-entity-1="REQ" data-entity-2="G1" data-source-line="34" data-uid="lnk20" id="link_REQ_G1"><path codeLine="34" d="M184.0849,97.1962 C184.2151,97.4732 184.3465,97.7527 184.4791,98.0347 C185.0092,99.1626 185.5579,100.3298 186.1231,101.5324 C187.2536,103.9375 188.4505,106.4837 189.6986,109.1389 C192.1947,114.4493 194.8956,120.1953 197.68,126.1187 C208.8175,149.8125 218.7368,170.9153 224.7768,183.7603" fill="none" id="REQ-to-G1" style="stroke:#181818;stroke-width:1;"/><polygon fill="#181818" points="227.33,189.19,227.1201,179.3434,225.2024,184.6653,219.8805,182.7476,227.33,189.19" style="stroke:#181818;stroke-width:1;"/></g><!--link G1 to DES--><g class="link" data-entity-1="G1" data-entity-2="DES" data-source-line="35" data-uid="lnk21" id="link_G1_DES"><path codeLine="35" d="M238.12,203.5 C257.06,215.88 308.94,252.47 334,297 C336.3513,301.1763 338.4117,305.6169 340.2173,310.1966 C340.443,310.7691 340.6648,311.3437 340.8826,311.9203 C340.9915,312.2086 339.0183,306.8698 339.1252,307.159" fill="none" id="G1-to-DES" style="stroke:#181818;stroke-width:1;"/><polygon fill="#181818" points="341.2064,312.7865,341.8363,302.9579,339.4721,308.097,334.333,305.7327,341.2064,312.7865" style="stroke:#181818;stroke-width:1;"/><text fill="#000000" font-family="sans-serif" font-size="13" lengthAdjust="spacing" textLength="91.2476" x="329" y="270.0669">Requirements</text><text fill="#000000" font-family="sans-serif" font-size="13" lengthAdjust="spacing" textLength="62.6387" x="343.3044" y="285.1997">Approved</text></g><!--link DES to G2--><g class="link" data-entity-1="DES" data-entity-2="G2" data-source-line="36" data-uid="lnk22" id="link_DES_G2"><path codeLine="36" d="M361.0619,419.4513 C361.091,419.5632 361.1201,419.6752 361.1493,419.7873 C361.2077,420.0115 361.2663,420.2362 361.3252,420.4615 C362.2667,424.065 363.2651,427.7927 364.308,431.5614 C366.3938,439.0988 368.6575,446.8 371,454 C378.02,475.59 385.8578,494.826 391.1578,507.326" fill="none" id="DES-to-G2" style="stroke:#181818;stroke-width:1;"/><polygon fill="#181818" points="393.5,512.85,393.6694,503.0026,391.5482,508.2467,386.3041,506.1255,393.5,512.85" style="stroke:#181818;stroke-width:1;"/></g><!--link G2 to DEV--><g class="link" data-entity-1="G2" data-entity-2="DEV" data-source-line="37" data-uid="lnk23" id="link_G2_DEV"><path codeLine="37" d="M397,534.5 C397,555.635 397,602.355 397,644.355 C397,646.98 397,649.5866 397,652.1673 C397,652.8125 397,647.456 397,648.0979" fill="none" id="G2-to-DEV" style="stroke:#181818;stroke-width:1;"/><polygon fill="#181818" points="397,654.0979,401,645.0979,397,649.0979,393,645.0979,397,654.0979" style="stroke:#181818;stroke-width:1;"/><text fill="#000000" font-family="sans-serif" font-size="13" lengthAdjust="spacing" textLength="44.8843" x="406.8772" y="612.0669">Design</text><text fill="#000000" font-family="sans-serif" font-size="13" lengthAdjust="spacing" textLength="62.6387" x="398" y="627.1997">Approved</text></g><!--link REQ to GMN24--><g class="link" data-entity-1="REQ" data-entity-2="GMN24" data-source-line="39" data-uid="lnk26" id="link_REQ_GMN24"><path d="M184.0301,79 C184.0745,79 184.119,79 184.1634,79 C184.2523,79 184.3412,79 184.43,79 C184.6078,79 184.7855,79 184.9633,79 C187.8072,79 190.6506,79 193.4938,79 C199.18,79 204.865,79 210.55,79" fill="none" id="REQ-GMN24" style="stroke:#181818;stroke-width:1;stroke-dasharray:7.0,7.0;"/></g><!--link DES to GMN27--><g class="link" data-entity-1="DES" data-entity-2="GMN27" data-source-line="40" data-uid="lnk29" id="link_DES_GMN27"><path d="M361.0547,385 C361.4168,385 361.7789,385 362.1409,385 C365.0375,385 367.9338,385 370.83,385 C376.6225,385 382.415,385 388.21,385" fill="none" id="DES-GMN27" style="stroke:#181818;stroke-width:1;stroke-dasharray:7.0,7.0;"/></g><!--link DEV to GMN30--><g class="link" data-entity-1="DEV" data-entity-2="GMN30" data-source-line="41" data-uid="lnk32" id="link_DEV_GMN30"><path d="M403.2107,654.8468 C403.3306,654.4758 403.4524,654.1055 403.5761,653.7361 C404.0711,652.2582 404.597,650.7931 405.1557,649.3449 C406.2729,646.4486 407.5211,643.6197 408.9142,640.8906 C414.4869,629.9744 422.38,620.655 433.5,615 C496.94,582.74 568.46,656.04 603.05,698.86" fill="none" id="DEV-GMN30" style="stroke:#181818;stroke-width:1;stroke-dasharray:7.0,7.0;"/></g><!--SRC=[RP9FRzim3CNl-XHSxZtO-OiU1WHeOFGoT76Gao-QnJZ25CcLb0J3iEy-IcnJD-vDzk-9xuba-ArjBxqymSbPrnwzEo54VqOHRYGSfN9NRJiuI1DGY6yA3zeYrBjrjG6FRPIsCtZxNwrt6r1QKadr8NxPFl_OGQjzIrB1ToTRV3rhZoUqCK0TPOSJa06scv_mLy3xfKdTUsqZ51dMnPYKJCencJAP9bB0myFtDrN9vwdu9qGEFAbaH2WQk-vxxoxIv8jLSSlwX45tTf3oQLD_bNB6ZhCncJEP9p9Z__cTVtdlNmxyBsXSdthrASJ-gn0BjbgCoPB9SanMJ5Q9B3XULYtvl4fHqsJI5_MbudQcBZp2S93lJq0b4ipoKbJbctnFSkxbG2YiezTxtHqZk4DUW4TOTzhGpxn0-Tdkq5W_N9chZaTDTQxKEq_hQI3GzhRnxF6k8iTy9fcC-e90lj75FptjTMEbLQ1ulDHuhKZYxAZ0_XP9VOoYiI5tZxDGsEvif6-iGaCsNluo6Fu3]--></g></svg>