<svg xmlns="http://www.w3.org/2000/svg" xmlns:xlink="http://www.w3.org/1999/xlink" contentStyleType="text/css" data-diagram-type="SEQUENCE" height="913px" preserveAspectRatio="none" style="width:1136px;height:913px;background:#FFFFFF;" version="1.1" viewBox="0 0 1136 913" width="1136px" zoomAndPan="magnify"><defs/><g><g><title>Client Browser</title><rect fill="#000000" fill-opacity="0.00000" height="808.9844" width="8" x="59.0098" y="52.5938"/><line style="stroke:#181818;stroke-width:0.5;stroke-dasharray:5.0,5.0;" x1="63" x2="63" y1="52.5938" y2="861.5781"/></g><g><title>Web Server</title><rect fill="#000000" fill-opacity="0.00000" height="808.9844" width="8" x="196.1885" y="52.5938"/><line style="stroke:#181818;stroke-width:0.5;stroke-dasharray:5.0,5.0;" x1="199.8511" x2="199.8511" y1="52.5938" y2="861.5781"/></g><g><title>WSGI Server</title><rect fill="#000000" fill-opacity="0.00000" height="808.9844" width="8" x="386.7002" y="52.5938"/><line style="stroke:#181818;stroke-width:0.5;stroke-dasharray:5.0,5.0;" x1="389.9019" x2="389.9019" y1="52.5938" y2="861.5781"/></g><g><title>Flask Application</title><rect fill="#000000" fill-opacity="0.00000" height="808.9844" width="8" x="562.041" y="52.5938"/><line style="stroke:#181818;stroke-width:0.5;stroke-dasharray:5.0,5.0;" x1="565.7427" x2="565.7427" y1="52.5938" y2="861.5781"/></g><g><title>Database</title><rect fill="#000000" fill-opacity="0.00000" height="808.9844" width="8" x="823.1196" y="52.5938"/><line style="stroke:#181818;stroke-width:0.5;stroke-dasharray:5.0,5.0;" x1="827.0737" x2="827.0737" y1="52.5938" y2="861.5781"/></g><g><title>External API</title><rect fill="#000000" fill-opacity="0.00000" height="808.9844" width="8" x="960.6304" y="52.5938"/><line style="stroke:#181818;stroke-width:0.5;stroke-dasharray:5.0,5.0;" x1="964.1655" x2="964.1655" y1="52.5938" y2="861.5781"/></g><g class="participant participant-head" data-participant="client"><rect fill="#E3E3E3" height="30.2969" rx="2.5" ry="2.5" style="stroke:#181818;stroke-width:0.5;" width="116.0195" x="5" y="21.2969"/><text fill="#000000" font-family="sans-serif" font-size="14" lengthAdjust="spacing" textLength="102.0195" x="12" y="41.292">Client Browser</text></g><g class="participant participant-tail" data-participant="client"><rect fill="#E3E3E3" height="30.2969" rx="2.5" ry="2.5" style="stroke:#181818;stroke-width:0.5;" width="116.0195" x="5" y="860.5781"/><text fill="#000000" font-family="sans-serif" font-size="14" lengthAdjust="spacing" textLength="102.0195" x="12" y="880.5732">Client Browser</text></g><g class="participant participant-head" data-participant="webserver"><rect fill="#E3E3E3" height="46.5938" rx="2.5" ry="2.5" style="stroke:#181818;stroke-width:0.5;" width="120.6748" x="139.8511" y="5"/><text fill="#000000" font-family="sans-serif" font-size="14" lengthAdjust="spacing" textLength="81.7031" x="159.3369" y="24.9951">Web Server</text><text fill="#000000" font-family="sans-serif" font-size="14" lengthAdjust="spacing" textLength="106.6748" x="146.8511" y="41.292">(nginx/Apache)</text></g><g class="participant participant-tail" data-participant="webserver"><rect fill="#E3E3E3" height="46.5938" rx="2.5" ry="2.5" style="stroke:#181818;stroke-width:0.5;" width="120.6748" x="139.8511" y="860.5781"/><text fill="#000000" font-family="sans-serif" font-size="14" lengthAdjust="spacing" textLength="81.7031" x="159.3369" y="880.5732">Web Server</text><text fill="#000000" font-family="sans-serif" font-size="14" lengthAdjust="spacing" textLength="106.6748" x="146.8511" y="896.8701">(nginx/Apache)</text></g><g class="participant participant-head" data-participant="wsgi"><rect fill="#E3E3E3" height="46.5938" rx="2.5" ry="2.5" style="stroke:#181818;stroke-width:0.5;" width="139.5967" x="320.9019" y="5"/><text fill="#000000" font-family="sans-serif" font-size="14" lengthAdjust="spacing" textLength="88.0674" x="346.6665" y="24.9951">WSGI Server</text><text fill="#000000" font-family="sans-serif" font-size="14" lengthAdjust="spacing" textLength="125.5967" x="327.9019" y="41.292">(Gunicorn/uWSGI)</text></g><g class="participant participant-tail" data-participant="wsgi"><rect fill="#E3E3E3" height="46.5938" rx="2.5" ry="2.5" style="stroke:#181818;stroke-width:0.5;" width="139.5967" x="320.9019" y="860.5781"/><text fill="#000000" font-family="sans-serif" font-size="14" lengthAdjust="spacing" textLength="88.0674" x="346.6665" y="880.5732">WSGI Server</text><text fill="#000000" font-family="sans-serif" font-size="14" lengthAdjust="spacing" textLength="125.5967" x="327.9019" y="896.8701">(Gunicorn/uWSGI)</text></g><g class="participant participant-head" data-participant="flask"><rect fill="#E3E3E3" height="30.2969" rx="2.5" ry="2.5" style="stroke:#181818;stroke-width:0.5;" width="132.5967" x="499.7427" y="21.2969"/><text fill="#000000" font-family="sans-serif" font-size="14" lengthAdjust="spacing" textLength="118.5967" x="506.7427" y="41.292">Flask Application</text></g><g class="participant participant-tail" data-participant="flask"><rect fill="#E3E3E3" height="30.2969" rx="2.5" ry="2.5" style="stroke:#181818;stroke-width:0.5;" width="132.5967" x="499.7427" y="860.5781"/><text fill="#000000" font-family="sans-serif" font-size="14" lengthAdjust="spacing" textLength="118.5967" x="506.7427" y="880.5732">Flask Application</text></g><g class="participant participant-head" data-participant="db"><rect fill="#E3E3E3" height="46.5938" rx="2.5" ry="2.5" style="stroke:#181818;stroke-width:0.5;" width="156.0918" x="749.0737" y="5"/><text fill="#000000" font-family="sans-serif" font-size="14" lengthAdjust="spacing" textLength="66.8008" x="793.7192" y="24.9951">Database</text><text fill="#000000" font-family="sans-serif" font-size="14" lengthAdjust="spacing" textLength="142.0918" x="756.0737" y="41.292">(SQLite/PostgreSQL)</text></g><g class="participant participant-tail" data-participant="db"><rect fill="#E3E3E3" height="46.5938" rx="2.5" ry="2.5" style="stroke:#181818;stroke-width:0.5;" width="156.0918" x="749.0737" y="860.5781"/><text fill="#000000" font-family="sans-serif" font-size="14" lengthAdjust="spacing" textLength="66.8008" x="793.7192" y="880.5732">Database</text><text fill="#000000" font-family="sans-serif" font-size="14" lengthAdjust="spacing" textLength="142.0918" x="756.0737" y="896.8701">(SQLite/PostgreSQL)</text></g><g class="participant participant-head" data-participant="api"><rect fill="#E3E3E3" height="30.2969" rx="2.5" ry="2.5" style="stroke:#181818;stroke-width:0.5;" width="98.9297" x="915.1655" y="21.2969"/><text fill="#000000" font-family="sans-serif" font-size="14" lengthAdjust="spacing" textLength="84.9297" x="922.1655" y="41.292">External API</text></g><g class="participant participant-tail" data-participant="api"><rect fill="#E3E3E3" height="30.2969" rx="2.5" ry="2.5" style="stroke:#181818;stroke-width:0.5;" width="98.9297" x="915.1655" y="860.5781"/><text fill="#000000" font-family="sans-serif" font-size="14" lengthAdjust="spacing" textLength="84.9297" x="922.1655" y="880.5732">External API</text></g><g class="message" data-participant-1="client" data-participant-2="webserver"><polygon fill="#181818" points="188.1885,97.8594,198.1885,101.8594,188.1885,105.8594,192.1885,101.8594" style="stroke:#181818;stroke-width:1;"/><line style="stroke:#181818;stroke-width:1;" x1="63.0098" x2="194.1885" y1="101.8594" y2="101.8594"/><text fill="#000000" font-family="sans-serif" font-size="13" lengthAdjust="spacing" textLength="91.019" x="70.0098" y="81.6606">HTTP Request</text><text fill="#000000" font-family="sans-serif" font-size="13" lengthAdjust="spacing" textLength="109.2051" x="70.0098" y="96.7935">(GET /users/123)</text></g><path d="M205,67.5938 L205,107.5938 L345,107.5938 L345,77.5938 L335,67.5938 L205,67.5938" fill="#FAFAFA" style="stroke:#181818;stroke-width:0.5;"/><path d="M335,67.5938 L335,77.5938 L345,77.5938 L335,67.5938" fill="#FAFAFA" style="stroke:#181818;stroke-width:0.5;"/><text fill="#000000" font-family="sans-serif" font-size="13" lengthAdjust="spacing" textLength="119.7358" x="211" y="84.6606">Socket connection</text><text fill="#000000" font-family="sans-serif" font-size="13" lengthAdjust="spacing" textLength="74.5723" x="211" y="99.7935">established</text><g class="message" data-participant-1="webserver" data-participant-2="webserver"><line style="stroke:#181818;stroke-width:1;" x1="200.1885" x2="242.1885" y1="149.125" y2="149.125"/><line style="stroke:#181818;stroke-width:1;" x1="242.1885" x2="242.1885" y1="149.125" y2="162.125"/><line style="stroke:#181818;stroke-width:1;" x1="201.1885" x2="242.1885" y1="162.125" y2="162.125"/><polygon fill="#181818" points="211.1885,158.125,201.1885,162.125,211.1885,166.125,207.1885,162.125" style="stroke:#181818;stroke-width:1;"/><text fill="#000000" font-family="sans-serif" font-size="13" lengthAdjust="spacing" textLength="110.519" x="207.1885" y="128.9263">Check static files</text><text fill="#000000" font-family="sans-serif" font-size="13" lengthAdjust="spacing" textLength="111.6045" x="207.1885" y="144.0591">(CSS, JS, images)</text></g><path d="M330.6045,128.9258 L330.6045,153.9258 L493.6045,153.9258 L493.6045,138.9258 L483.6045,128.9258 L330.6045,128.9258" fill="#FAFAFA" style="stroke:#181818;stroke-width:0.5;"/><path d="M483.6045,128.9258 L483.6045,138.9258 L493.6045,138.9258 L483.6045,128.9258" fill="#FAFAFA" style="stroke:#181818;stroke-width:0.5;"/><text fill="#000000" font-family="sans-serif" font-size="13" lengthAdjust="spacing" textLength="142.3208" x="336.6045" y="145.9927">Serve directly if static</text><g class="message" data-participant-1="webserver" data-participant-2="wsgi"><polygon fill="#181818" points="378.7002,197.8242,388.7002,201.8242,378.7002,205.8242,382.7002,201.8242" style="stroke:#181818;stroke-width:1;"/><line style="stroke:#181818;stroke-width:1;" x1="200.1885" x2="384.7002" y1="201.8242" y2="201.8242"/><text fill="#000000" font-family="sans-serif" font-size="13" lengthAdjust="spacing" textLength="166.5117" x="207.1885" y="196.7583">Forward dynamic request</text></g><path d="M395,175.125 L395,215.125 L532,215.125 L532,185.125 L522,175.125 L395,175.125" fill="#FAFAFA" style="stroke:#181818;stroke-width:0.5;"/><path d="M522,175.125 L522,185.125 L532,185.125 L522,175.125" fill="#FAFAFA" style="stroke:#181818;stroke-width:0.5;"/><text fill="#000000" font-family="sans-serif" font-size="13" lengthAdjust="spacing" textLength="111.0903" x="401" y="192.1919">Reverse proxy to</text><text fill="#000000" font-family="sans-serif" font-size="13" lengthAdjust="spacing" textLength="116.9937" x="401" y="207.3247">application server</text><g class="message" data-participant-1="wsgi" data-participant-2="flask"><polygon fill="#181818" points="554.041,255.6563,564.041,259.6563,554.041,263.6563,558.041,259.6563" style="stroke:#181818;stroke-width:1;"/><line style="stroke:#181818;stroke-width:1;" x1="390.7002" x2="560.041" y1="259.6563" y2="259.6563"/><text fill="#000000" font-family="sans-serif" font-size="13" lengthAdjust="spacing" textLength="93.1963" x="397.7002" y="239.4575">WSGI call with</text><text fill="#000000" font-family="sans-serif" font-size="13" lengthAdjust="spacing" textLength="77.3208" x="397.7002" y="254.5903">environ dict</text></g><path d="M571,225.3906 L571,265.3906 L691,265.3906 L691,235.3906 L681,225.3906 L571,225.3906" fill="#FAFAFA" style="stroke:#181818;stroke-width:0.5;"/><path d="M681,225.3906 L681,235.3906 L691,235.3906 L681,225.3906" fill="#FAFAFA" style="stroke:#181818;stroke-width:0.5;"/><text fill="#000000" font-family="sans-serif" font-size="13" lengthAdjust="spacing" textLength="99.3599" x="577" y="242.4575">Python callable</text><text fill="#000000" font-family="sans-serif" font-size="13" lengthAdjust="spacing" textLength="57.9795" x="577" y="257.5903">interface</text><g class="message" data-participant-1="flask" data-participant-2="flask"><line style="stroke:#181818;stroke-width:1;" x1="566.041" x2="608.041" y1="306.9219" y2="306.9219"/><line style="stroke:#181818;stroke-width:1;" x1="608.041" x2="608.041" y1="306.9219" y2="319.9219"/><line style="stroke:#181818;stroke-width:1;" x1="567.041" x2="608.041" y1="319.9219" y2="319.9219"/><polygon fill="#181818" points="577.041,315.9219,567.041,319.9219,577.041,323.9219,573.041,319.9219" style="stroke:#181818;stroke-width:1;"/><text fill="#000000" font-family="sans-serif" font-size="13" lengthAdjust="spacing" textLength="103.6699" x="573.041" y="286.7231">Route matching</text><text fill="#000000" font-family="sans-serif" font-size="13" lengthAdjust="spacing" textLength="181.2065" x="573.041" y="301.856">(@app.route('/users/&lt;id&gt;'))</text></g><path d="M766.2065,279.1563 L766.2065,319.1563 L885.2065,319.1563 L885.2065,289.1563 L875.2065,279.1563 L766.2065,279.1563" fill="#FAFAFA" style="stroke:#181818;stroke-width:0.5;"/><path d="M875.2065,279.1563 L875.2065,289.1563 L885.2065,289.1563 L875.2065,279.1563" fill="#FAFAFA" style="stroke:#181818;stroke-width:0.5;"/><text fill="#000000" font-family="sans-serif" font-size="13" lengthAdjust="spacing" textLength="98.6045" x="772.2065" y="296.2231">URL dispatcher</text><text fill="#000000" font-family="sans-serif" font-size="13" lengthAdjust="spacing" textLength="85.2363" x="772.2065" y="311.356">finds handler</text><g class="message" data-participant-1="flask" data-participant-2="flask"><line style="stroke:#181818;stroke-width:1;" x1="566.041" x2="608.041" y1="364.1875" y2="364.1875"/><line style="stroke:#181818;stroke-width:1;" x1="608.041" x2="608.041" y1="364.1875" y2="377.1875"/><line style="stroke:#181818;stroke-width:1;" x1="567.041" x2="608.041" y1="377.1875" y2="377.1875"/><polygon fill="#181818" points="577.041,373.1875,567.041,377.1875,577.041,381.1875,573.041,377.1875" style="stroke:#181818;stroke-width:1;"/><text fill="#000000" font-family="sans-serif" font-size="13" lengthAdjust="spacing" textLength="149.3604" x="573.041" y="343.9888">Middleware processing</text><text fill="#000000" font-family="sans-serif" font-size="13" lengthAdjust="spacing" textLength="140.9814" x="573.041" y="359.1216">(auth, CORS, logging)</text></g><path d="M734.3604,343.9883 L734.3604,368.9883 L904.3604,368.9883 L904.3604,353.9883 L894.3604,343.9883 L734.3604,343.9883" fill="#FAFAFA" style="stroke:#181818;stroke-width:0.5;"/><path d="M894.3604,343.9883 L894.3604,353.9883 L904.3604,353.9883 L894.3604,343.9883" fill="#FAFAFA" style="stroke:#181818;stroke-width:0.5;"/><text fill="#000000" font-family="sans-serif" font-size="13" lengthAdjust="spacing" textLength="149.4619" x="740.3604" y="361.0552">Request preprocessing</text><g class="message" data-participant-1="flask" data-participant-2="flask"><line style="stroke:#181818;stroke-width:1;" x1="566.041" x2="608.041" y1="421.4531" y2="421.4531"/><line style="stroke:#181818;stroke-width:1;" x1="608.041" x2="608.041" y1="421.4531" y2="434.4531"/><line style="stroke:#181818;stroke-width:1;" x1="567.041" x2="608.041" y1="434.4531" y2="434.4531"/><polygon fill="#181818" points="577.041,430.4531,567.041,434.4531,577.041,438.4531,573.041,434.4531" style="stroke:#181818;stroke-width:1;"/><text fill="#000000" font-family="sans-serif" font-size="13" lengthAdjust="spacing" textLength="108.4243" x="573.041" y="401.2544">Handler function</text><text fill="#000000" font-family="sans-serif" font-size="13" lengthAdjust="spacing" textLength="63.978" x="573.041" y="416.3872">execution</text></g><path d="M693.4243,393.6875 L693.4243,433.6875 L806.4243,433.6875 L806.4243,403.6875 L796.4243,393.6875 L693.4243,393.6875" fill="#FAFAFA" style="stroke:#181818;stroke-width:0.5;"/><path d="M796.4243,393.6875 L796.4243,403.6875 L806.4243,403.6875 L796.4243,393.6875" fill="#FAFAFA" style="stroke:#181818;stroke-width:0.5;"/><text fill="#000000" font-family="sans-serif" font-size="13" lengthAdjust="spacing" textLength="92.0347" x="699.4243" y="410.7544">Business logic</text><text fill="#000000" font-family="sans-serif" font-size="13" lengthAdjust="spacing" textLength="70.3447" x="699.4243" y="425.8872">processing</text><g class="message" data-participant-1="flask" data-participant-2="db"><polygon fill="#181818" points="815.1196,477.7188,825.1196,481.7188,815.1196,485.7188,819.1196,481.7188" style="stroke:#181818;stroke-width:1;"/><line style="stroke:#181818;stroke-width:1;" x1="566.041" x2="821.1196" y1="481.7188" y2="481.7188"/><text fill="#000000" font-family="sans-serif" font-size="13" lengthAdjust="spacing" textLength="69.3672" x="573.041" y="461.52">SQL Query</text><text fill="#000000" font-family="sans-serif" font-size="13" lengthAdjust="spacing" textLength="237.0786" x="573.041" y="476.6528">(SELECT * FROM users WHERE id=?)</text></g><path d="M832,447.4531 L832,487.4531 L989,487.4531 L989,457.4531 L979,447.4531 L832,447.4531" fill="#FAFAFA" style="stroke:#181818;stroke-width:0.5;"/><path d="M979,447.4531 L979,457.4531 L989,457.4531 L979,447.4531" fill="#FAFAFA" style="stroke:#181818;stroke-width:0.5;"/><text fill="#000000" font-family="sans-serif" font-size="13" lengthAdjust="spacing" textLength="136.5635" x="838" y="464.52">Parameterized query</text><text fill="#000000" font-family="sans-serif" font-size="13" lengthAdjust="spacing" textLength="62.1118" x="838" y="479.6528">for safety</text><g class="message" data-participant-1="db" data-participant-2="flask"><polygon fill="#181818" points="577.041,520.418,567.041,524.418,577.041,528.418,573.041,524.418" style="stroke:#181818;stroke-width:1;"/><line style="stroke:#181818;stroke-width:1;" x1="571.041" x2="826.1196" y1="524.418" y2="524.418"/><text fill="#000000" font-family="sans-serif" font-size="13" lengthAdjust="spacing" textLength="64.7524" x="583.041" y="519.3521">Result set</text></g><path d="M832,497.7188 L832,537.7188 L934,537.7188 L934,507.7188 L924,497.7188 L832,497.7188" fill="#FAFAFA" style="stroke:#181818;stroke-width:0.5;"/><path d="M924,497.7188 L924,507.7188 L934,507.7188 L924,497.7188" fill="#FAFAFA" style="stroke:#181818;stroke-width:0.5;"/><text fill="#000000" font-family="sans-serif" font-size="13" lengthAdjust="spacing" textLength="78.4761" x="838" y="514.7856">Raw data or</text><text fill="#000000" font-family="sans-serif" font-size="13" lengthAdjust="spacing" textLength="81.4468" x="838" y="529.9185">ORM objects</text><g class="message" data-participant-1="flask" data-participant-2="api"><polygon fill="#181818" points="952.6304,578.25,962.6304,582.25,952.6304,586.25,956.6304,582.25" style="stroke:#181818;stroke-width:1;"/><line style="stroke:#181818;stroke-width:1;" x1="566.041" x2="958.6304" y1="582.25" y2="582.25"/><text fill="#000000" font-family="sans-serif" font-size="13" lengthAdjust="spacing" textLength="131.333" x="573.041" y="562.0513">External service call</text><text fill="#000000" font-family="sans-serif" font-size="13" lengthAdjust="spacing" textLength="71.2017" x="573.041" y="577.1841">(if needed)</text></g><path d="M969,547.9844 L969,587.9844 L1129,587.9844 L1129,557.9844 L1119,547.9844 L969,547.9844" fill="#FAFAFA" style="stroke:#181818;stroke-width:0.5;"/><path d="M1119,547.9844 L1119,557.9844 L1129,557.9844 L1119,547.9844" fill="#FAFAFA" style="stroke:#181818;stroke-width:0.5;"/><text fill="#000000" font-family="sans-serif" font-size="13" lengthAdjust="spacing" textLength="111.9727" x="975" y="565.0513">REST API request</text><text fill="#000000" font-family="sans-serif" font-size="13" lengthAdjust="spacing" textLength="139.5405" x="975" y="580.1841">or service integration</text><g class="message" data-participant-1="api" data-participant-2="flask"><polygon fill="#181818" points="577.041,620.9492,567.041,624.9492,577.041,628.9492,573.041,624.9492" style="stroke:#181818;stroke-width:1;"/><line style="stroke:#181818;stroke-width:1;" x1="571.041" x2="963.6304" y1="624.9492" y2="624.9492"/><text fill="#000000" font-family="sans-serif" font-size="13" lengthAdjust="spacing" textLength="87.7183" x="583.041" y="619.8833">API Response</text></g><path d="M969,598.25 L969,638.25 L1085,638.25 L1085,608.25 L1075,598.25 L969,598.25" fill="#FAFAFA" style="stroke:#181818;stroke-width:0.5;"/><path d="M1075,598.25 L1075,608.25 L1085,608.25 L1075,598.25" fill="#FAFAFA" style="stroke:#181818;stroke-width:0.5;"/><text fill="#000000" font-family="sans-serif" font-size="13" lengthAdjust="spacing" textLength="82.8877" x="975" y="615.3169">JSON data or</text><text fill="#000000" font-family="sans-serif" font-size="13" lengthAdjust="spacing" textLength="95.4497" x="975" y="630.4497">error response</text><g class="message" data-participant-1="flask" data-participant-2="flask"><line style="stroke:#181818;stroke-width:1;" x1="566.041" x2="608.041" y1="679.7813" y2="679.7813"/><line style="stroke:#181818;stroke-width:1;" x1="608.041" x2="608.041" y1="679.7813" y2="692.7813"/><line style="stroke:#181818;stroke-width:1;" x1="567.041" x2="608.041" y1="692.7813" y2="692.7813"/><polygon fill="#181818" points="577.041,688.7813,567.041,692.7813,577.041,696.7813,573.041,692.7813" style="stroke:#181818;stroke-width:1;"/><text fill="#000000" font-family="sans-serif" font-size="13" lengthAdjust="spacing" textLength="128.9399" x="573.041" y="659.5825">Template rendering</text><text fill="#000000" font-family="sans-serif" font-size="13" lengthAdjust="spacing" textLength="120.1548" x="573.041" y="674.7153">(Jinja2 processing)</text></g><path d="M713.9399,652.0156 L713.9399,692.0156 L875.9399,692.0156 L875.9399,662.0156 L865.9399,652.0156 L713.9399,652.0156" fill="#FAFAFA" style="stroke:#181818;stroke-width:0.5;"/><path d="M865.9399,652.0156 L865.9399,662.0156 L875.9399,662.0156 L865.9399,652.0156" fill="#FAFAFA" style="stroke:#181818;stroke-width:0.5;"/><text fill="#000000" font-family="sans-serif" font-size="13" lengthAdjust="spacing" textLength="101.0229" x="719.9399" y="669.0825">Generate HTML</text><text fill="#000000" font-family="sans-serif" font-size="13" lengthAdjust="spacing" textLength="141.7939" x="719.9399" y="684.2153">from template + data</text><g class="message" data-participant-1="flask" data-participant-2="wsgi"><polygon fill="#181818" points="401.7002,736.0469,391.7002,740.0469,401.7002,744.0469,397.7002,740.0469" style="stroke:#181818;stroke-width:1;"/><line style="stroke:#181818;stroke-width:1;" x1="395.7002" x2="565.041" y1="740.0469" y2="740.0469"/><text fill="#000000" font-family="sans-serif" font-size="13" lengthAdjust="spacing" textLength="98.4775" x="407.7002" y="719.8481">WSGI response</text><text fill="#000000" font-family="sans-serif" font-size="13" lengthAdjust="spacing" textLength="151.3408" x="407.7002" y="734.981">(status, headers, body)</text></g><path d="M571,705.7813 L571,745.7813 L699,745.7813 L699,715.7813 L689,705.7813 L571,705.7813" fill="#FAFAFA" style="stroke:#181818;stroke-width:0.5;"/><path d="M689,705.7813 L689,715.7813 L699,715.7813 L689,705.7813" fill="#FAFAFA" style="stroke:#181818;stroke-width:0.5;"/><text fill="#000000" font-family="sans-serif" font-size="13" lengthAdjust="spacing" textLength="98.5156" x="577" y="722.8481">Standard WSGI</text><text fill="#000000" font-family="sans-serif" font-size="13" lengthAdjust="spacing" textLength="107.0659" x="577" y="737.981">response format</text><g class="message" data-participant-1="wsgi" data-participant-2="webserver"><polygon fill="#181818" points="211.1885,778.7461,201.1885,782.7461,211.1885,786.7461,207.1885,782.7461" style="stroke:#181818;stroke-width:1;"/><line style="stroke:#181818;stroke-width:1;" x1="205.1885" x2="389.7002" y1="782.7461" y2="782.7461"/><text fill="#000000" font-family="sans-serif" font-size="13" lengthAdjust="spacing" textLength="96.9604" x="217.1885" y="777.6802">HTTP response</text></g><path d="M395,756.0469 L395,796.0469 L533,796.0469 L533,766.0469 L523,756.0469 L395,756.0469" fill="#FAFAFA" style="stroke:#181818;stroke-width:0.5;"/><path d="M523,756.0469 L523,766.0469 L533,766.0469 L523,756.0469" fill="#FAFAFA" style="stroke:#181818;stroke-width:0.5;"/><text fill="#000000" font-family="sans-serif" font-size="13" lengthAdjust="spacing" textLength="117.9204" x="401" y="773.1138">Application server</text><text fill="#000000" font-family="sans-serif" font-size="13" lengthAdjust="spacing" textLength="89.3496" x="401" y="788.2466">to web server</text><g class="message" data-participant-1="webserver" data-participant-2="client"><polygon fill="#181818" points="74.0098,836.5781,64.0098,840.5781,74.0098,844.5781,70.0098,840.5781" style="stroke:#181818;stroke-width:1;"/><line style="stroke:#181818;stroke-width:1;" x1="68.0098" x2="199.1885" y1="840.5781" y2="840.5781"/><text fill="#000000" font-family="sans-serif" font-size="13" lengthAdjust="spacing" textLength="100.6484" x="80.0098" y="820.3794">HTTP Response</text><text fill="#000000" font-family="sans-serif" font-size="13" lengthAdjust="spacing" textLength="113.1787" x="80.0098" y="835.5122">(200 OK + HTML)</text></g><path d="M205,806.3125 L205,846.3125 L352,846.3125 L352,816.3125 L342,806.3125 L205,806.3125" fill="#FAFAFA" style="stroke:#181818;stroke-width:0.5;"/><path d="M342,806.3125 L342,816.3125 L352,816.3125 L342,806.3125" fill="#FAFAFA" style="stroke:#181818;stroke-width:0.5;"/><text fill="#000000" font-family="sans-serif" font-size="13" lengthAdjust="spacing" textLength="126.1152" x="211" y="823.3794">Complete response</text><text fill="#000000" font-family="sans-serif" font-size="13" lengthAdjust="spacing" textLength="84.2842" x="211" y="838.5122">with headers</text><!--SRC=[RLJBTjem4DtxA-Paaz2c9KrtFMrQGabe2eNOz6J3HaXZMy58ZYG7wDTt930FamK7aERUkRhpi7EfIcRO0XPQQPuRlK1mfiB8xcvipeHUIfL1oWgBKKJ7Jd9PCkNWh5j8fEzRevSMpHam2pmS7OSzuGmIDAzefkf2PLAjsfsIyHnR0RB4cGst3LHo_siFkw-KvDgeTkNFjq2RoMFCNS7i73fbMKZEdDGgnAN-z3Zm9tDinYmIS_8ua0xROsrTPf3-RSZ5x1ZHMpaqYXNG6VyA0QoKKRHvBdousRy2la1_CXb3Z2yLMkUrzoRGhkZMjZzTVsv5IZi48xFSKMoY-HmTSAqKSYzvgWZ5PeMqEOeeslCsadHpv7EWKD88gIpGKgfkabp20ttaWcLecxay5eGqbAbOWqoty6OMyfMYxxHPCYD0h1LRK0wpUT0nPOm4iWYbqQirE3rLREy-REiQ1KPY3fKWLAWjPqK1I-boUh5wbORYXUGD_l7QvNJXOyaJgfTKL8UKSUh53Ti1RQmhWYwOupcrBDdnWyHyDFxqudnRWQzIt9ot6iRyZGUKsvOUwTijbKfOo9aIXPT_acWe1TsGE-7X7AtTv6ELoo-XEugf0eNEgDMpLjElO2B1S8zy8qD_anlIIjLTiK9U-P_7XBSLCH2DpoVvLBt9AcQ- -ey3UApGh7tJzmQzxWJUmLqy6a9m1fxwlRW7Kdpxtj0yzgi0oNRv3mMyR2XIRS2o5DqwYeZ-i0fegy9HxPkjmfOWQEv0ayEZU0XwzaoDQ0zqqanHu6xKVFj8Zg7w99hwLI4A54rFUyd4ZsNTeLFbjMsnlbyo4zenYZp_WLAF8RMbLhJQZYWVaj6VlLWqXXXD7NbQhGakoe9vF2f1FeLcU93gcLqVD4X3zZqIiGVr9yC16Khx5rnDz3vaFqYr7SemERKIIk87kBANa2EZnFHZfiMwEVQEcibFiWTFLOq6AY7DoduwJrQOUTERpic0JvNJ7hsVzyDrijsHkxMuqtvzTGMZt_HKRq13SrUJ4HWShUFzggZV6Vq7]--></g></svg>