<svg xmlns="http://www.w3.org/2000/svg" xmlns:xlink="http://www.w3.org/1999/xlink" contentStyleType="text/css" data-diagram-type="DESCRIPTION" height="495px" preserveAspectRatio="none" style="width:1767px;height:495px;background:#FFFFFF;" version="1.1" viewBox="0 0 1767 495" width="1767px" zoomAndPan="magnify"><defs/><g><!--cluster Monolithic Architecture--><g class="cluster" data-entity="Monolithic Architecture" data-source-line="4" data-uid="ent0002" id="cluster_Monolithic Architecture"><path d="M8.5,6 L195.2119,6 A3.75,3.75 0 0 1 197.7119,8.5 L204.7119,28.2969 L227.5,28.2969 A2.5,2.5 0 0 1 230,30.7969 L230,485.69 A2.5,2.5 0 0 1 227.5,488.19 L8.5,488.19 A2.5,2.5 0 0 1 6,485.69 L6,8.5 A2.5,2.5 0 0 1 8.5,6" fill="none" style="stroke:#000000;stroke-width:1.5;"/><line style="stroke:#000000;stroke-width:1.5;" x1="6" x2="204.7119" y1="28.2969" y2="28.2969"/><text fill="#000000" font-family="sans-serif" font-size="14" font-weight="bold" lengthAdjust="spacing" textLength="185.7119" x="10" y="20.9951">Monolithic Architecture</text></g><!--cluster mono--><g class="cluster" data-entity="mono" data-source-line="5" data-uid="ent0003" id="cluster_mono"><rect fill="none" height="415.19" rx="2.5" ry="2.5" style="stroke:#181818;stroke-width:1;" width="176" x="30" y="49"/><text fill="#000000" font-family="sans-serif" font-size="14" font-weight="bold" lengthAdjust="spacing" textLength="143.3359" x="46.332" y="63.9951">Single Application</text></g><!--cluster Microservices Architecture--><g class="cluster" data-entity="Microservices Architecture" data-source-line="16" data-uid="ent0011" id="cluster_Microservices Architecture"><path d="M256.5,49 L469.0586,49 A3.75,3.75 0 0 1 471.5586,51.5 L478.5586,71.2969 L1149.5,71.2969 A2.5,2.5 0 0 1 1152,73.7969 L1152,274.1 A2.5,2.5 0 0 1 1149.5,276.6 L256.5,276.6 A2.5,2.5 0 0 1 254,274.1 L254,51.5 A2.5,2.5 0 0 1 256.5,49" fill="none" style="stroke:#000000;stroke-width:1.5;"/><line style="stroke:#000000;stroke-width:1.5;" x1="254" x2="478.5586" y1="71.2969" y2="71.2969"/><text fill="#000000" font-family="sans-serif" font-size="14" font-weight="bold" lengthAdjust="spacing" textLength="211.5586" x="258" y="63.9951">Microservices Architecture</text></g><!--cluster user_svc--><g class="cluster" data-entity="user_svc" data-source-line="17" data-uid="ent0012" id="cluster_user_svc"><rect fill="none" height="97.3" rx="2.5" ry="2.5" style="stroke:#181818;stroke-width:1;" width="242" x="278" y="155.3"/><text fill="#000000" font-family="sans-serif" font-size="14" font-weight="bold" lengthAdjust="spacing" textLength="99.1758" x="349.4121" y="170.2951">User Service</text></g><!--cluster order_svc--><g class="cluster" data-entity="order_svc" data-source-line="22" data-uid="ent0015" id="cluster_order_svc"><rect fill="none" height="97.3" rx="2.5" ry="2.5" style="stroke:#181818;stroke-width:1;" width="258" x="544" y="155.3"/><text fill="#000000" font-family="sans-serif" font-size="14" font-weight="bold" lengthAdjust="spacing" textLength="108.3018" x="618.8491" y="170.2951">Order Service</text></g><!--cluster payment_svc--><g class="cluster" data-entity="payment_svc" data-source-line="27" data-uid="ent0018" id="cluster_payment_svc"><rect fill="none" height="97.3" rx="2.5" ry="2.5" style="stroke:#181818;stroke-width:1;" width="302" x="826" y="155.3"/><text fill="#000000" font-family="sans-serif" font-size="14" font-weight="bold" lengthAdjust="spacing" textLength="132.6514" x="910.6743" y="170.2951">Payment Service</text></g><!--cluster Serverless Architecture--><g class="cluster" data-entity="Serverless Architecture" data-source-line="38" data-uid="ent0025" id="cluster_Serverless Architecture"><path d="M1178.5,49 L1365.6904,49 A3.75,3.75 0 0 1 1368.1904,51.5 L1375.1904,71.2969 L1757.5,71.2969 A2.5,2.5 0 0 1 1760,73.7969 L1760,355.89 A2.5,2.5 0 0 1 1757.5,358.39 L1178.5,358.39 A2.5,2.5 0 0 1 1176,355.89 L1176,51.5 A2.5,2.5 0 0 1 1178.5,49" fill="none" style="stroke:#000000;stroke-width:1.5;"/><line style="stroke:#000000;stroke-width:1.5;" x1="1176" x2="1375.1904" y1="71.2969" y2="71.2969"/><text fill="#000000" font-family="sans-serif" font-size="14" font-weight="bold" lengthAdjust="spacing" textLength="186.1904" x="1180" y="63.9951">Serverless Architecture</text></g><!--cluster Function Platform--><g class="cluster" data-entity="Function Platform" data-source-line="39" data-uid="ent0026" id="cluster_Function Platform"><path d="M1210.9822,164.1451 C1222.6488,146.3288 1240.8045,145.4835 1249.904,166.7045 C1260.8874,150.7831 1272.1038,146.2233 1284.9398,164.8245 C1295.9724,146.7404 1312.4523,146.006 1322.5616,165.743 C1335.7647,147.3651 1349.1396,147.4481 1360.9993,167.1008 C1372.3695,149.0703 1388.3376,150.6825 1399.94,166.8364 C1406.864,150.2112 1422.4367,152.5596 1431.2684,164.7634 C1443.6852,145.0821 1457.6948,146.1747 1469.6582,165.2129 C1478.6394,146.6924 1497.3477,144.3242 1507.9936,163.5209 C1522.0473,146.885 1533.9108,145.392 1544.8137,166.5874 C1553.8672,149.2496 1571.4968,147.9666 1583.5754,162.9608 C1594.4525,144.7138 1611.2714,148.7682 1619.5909,165.5876 C1631.6231,150.8738 1644.5211,150.8537 1654.5069,167.8415 C1665.109,145.4738 1685.5399,150.1324 1696.5145,167.4471 C1707.9385,147.5671 1720.6159,150.5654 1733.0387,166.4264 C1755.5471,175.0147 1759.9583,188.2606 1742.4804,206.314 C1758.3111,224.0941 1753.1072,240.4189 1730.1178,246.1524 C1720.1637,264.8043 1705.7445,267.3654 1693.5624,248.3125 C1685.7918,265.092 1669.8123,271.1226 1657.4147,253.1214 C1649.3953,273.3292 1630.6638,275.3949 1619.4727,256.1735 C1606.6261,273.1616 1594.9,278.3423 1580.4758,257.8133 C1570.6599,272.7076 1558.7761,274.7885 1548.8166,257.9565 C1537.4434,278.6148 1519.9833,272.6351 1510.2219,256.2759 C1499.9208,275.203 1488.5889,276.7224 1474.0248,260.6898 C1459.8172,280.9499 1444.7943,277.6751 1433.2704,257.9541 C1421.7581,273.4283 1408.8293,271.4833 1399.6003,255.5095 C1389.0586,271.5473 1370.1538,274.5065 1359.9026,255.1833 C1349.663,272.0806 1332.4498,271.8576 1324.8451,252.6265 C1314.2049,269.4574 1299.909,270.0328 1287.883,254.1945 C1275.4892,270.624 1259.7272,270.4512 1250.054,251.3019 C1237.2754,267.8052 1219.433,267.1953 1208.6661,248.9087 C1185.6875,238.907 1184.81,225.7434 1203.404,210.1042 C1182.5175,192.7213 1187.5368,174.2181 1210.9822,164.1451" fill="none" style="stroke:#181818;stroke-width:1;"/><text fill="#000000" font-family="sans-serif" font-size="14" font-weight="bold" lengthAdjust="spacing" textLength="142.1465" x="1396.9268" y="181.2951">Function Platform</text></g><!--entity User Interface--><g class="entity" data-entity="User Interface" data-source-line="6" data-uid="ent0004" id="entity_User Interface"><rect fill="#F1F1F1" height="46.2969" rx="2.5" ry="2.5" style="stroke:#181818;stroke-width:0.5;" width="139.0391" x="48.48" y="84"/><rect fill="#F1F1F1" height="10" style="stroke:#181818;stroke-width:0.5;" width="15" x="167.5191" y="89"/><rect fill="#F1F1F1" height="2" style="stroke:#181818;stroke-width:0.5;" width="4" x="165.5191" y="91"/><rect fill="#F1F1F1" height="2" style="stroke:#181818;stroke-width:0.5;" width="4" x="165.5191" y="95"/><text fill="#000000" font-family="sans-serif" font-size="14" lengthAdjust="spacing" textLength="99.0391" x="63.48" y="116.9951">User Interface</text></g><!--entity Business Logic--><g class="entity" data-entity="Business Logic" data-source-line="7" data-uid="ent0005" id="entity_Business Logic"><rect fill="#F1F1F1" height="46.2969" rx="2.5" ry="2.5" style="stroke:#181818;stroke-width:0.5;" width="143.0244" x="46.49" y="190.3"/><rect fill="#F1F1F1" height="10" style="stroke:#181818;stroke-width:0.5;" width="15" x="169.5144" y="195.3"/><rect fill="#F1F1F1" height="2" style="stroke:#181818;stroke-width:0.5;" width="4" x="167.5144" y="197.3"/><rect fill="#F1F1F1" height="2" style="stroke:#181818;stroke-width:0.5;" width="4" x="167.5144" y="201.3"/><text fill="#000000" font-family="sans-serif" font-size="14" lengthAdjust="spacing" textLength="103.0244" x="61.49" y="223.2951">Business Logic</text></g><!--entity Data Access--><g class="entity" data-entity="Data Access" data-source-line="8" data-uid="ent0006" id="entity_Data Access"><rect fill="#F1F1F1" height="46.2969" rx="2.5" ry="2.5" style="stroke:#181818;stroke-width:0.5;" width="126.0508" x="54.97" y="296.6"/><rect fill="#F1F1F1" height="10" style="stroke:#181818;stroke-width:0.5;" width="15" x="161.0208" y="301.6"/><rect fill="#F1F1F1" height="2" style="stroke:#181818;stroke-width:0.5;" width="4" x="159.0208" y="303.6"/><rect fill="#F1F1F1" height="2" style="stroke:#181818;stroke-width:0.5;" width="4" x="159.0208" y="307.6"/><text fill="#000000" font-family="sans-serif" font-size="14" lengthAdjust="spacing" textLength="86.0508" x="69.97" y="329.5951">Data Access</text></g><!--entity Single Database--><g class="entity" data-entity="Single Database" data-source-line="9" data-uid="ent0007" id="entity_Single Database"><path d="M50.85,412.89 C50.85,402.89 117.995,402.89 117.995,402.89 C117.995,402.89 185.14,402.89 185.14,412.89 L185.14,438.1869 C185.14,448.1869 117.995,448.1869 117.995,448.1869 C117.995,448.1869 50.85,448.1869 50.85,438.1869 L50.85,412.89" fill="#F1F1F1" style="stroke:#181818;stroke-width:0.5;"/><path d="M50.85,412.89 C50.85,422.89 117.995,422.89 117.995,422.89 C117.995,422.89 185.14,422.89 185.14,412.89" fill="none" style="stroke:#181818;stroke-width:0.5;"/><text fill="#000000" font-family="sans-serif" font-size="14" lengthAdjust="spacing" textLength="114.29" x="60.85" y="439.8851">Single Database</text></g><!--entity API Gateway--><g class="entity" data-entity="API Gateway" data-source-line="32" data-uid="ent0021" id="entity_API Gateway"><rect fill="#F1F1F1" height="46.2969" rx="2.5" ry="2.5" style="stroke:#181818;stroke-width:0.5;" width="128.4434" x="668.78" y="84"/><rect fill="#F1F1F1" height="10" style="stroke:#181818;stroke-width:0.5;" width="15" x="777.2234" y="89"/><rect fill="#F1F1F1" height="2" style="stroke:#181818;stroke-width:0.5;" width="4" x="775.2234" y="91"/><rect fill="#F1F1F1" height="2" style="stroke:#181818;stroke-width:0.5;" width="4" x="775.2234" y="95"/><text fill="#000000" font-family="sans-serif" font-size="14" lengthAdjust="spacing" textLength="88.4434" x="683.78" y="116.9951">API Gateway</text></g><!--entity User API--><g class="entity" data-entity="User API" data-source-line="18" data-uid="ent0013" id="entity_User API"><rect fill="#F1F1F1" height="46.2969" rx="2.5" ry="2.5" style="stroke:#181818;stroke-width:0.5;" width="98.5088" x="405.75" y="190.3"/><rect fill="#F1F1F1" height="10" style="stroke:#181818;stroke-width:0.5;" width="15" x="484.2588" y="195.3"/><rect fill="#F1F1F1" height="2" style="stroke:#181818;stroke-width:0.5;" width="4" x="482.2588" y="197.3"/><rect fill="#F1F1F1" height="2" style="stroke:#181818;stroke-width:0.5;" width="4" x="482.2588" y="201.3"/><text fill="#000000" font-family="sans-serif" font-size="14" lengthAdjust="spacing" textLength="58.5088" x="420.75" y="223.2951">User API</text></g><!--entity User DB--><g class="entity" data-entity="User DB" data-source-line="19" data-uid="ent0014" id="entity_User DB"><path d="M293.63,200.8 C293.63,190.8 332.0026,190.8 332.0026,190.8 C332.0026,190.8 370.3751,190.8 370.3751,200.8 L370.3751,226.0969 C370.3751,236.0969 332.0026,236.0969 332.0026,236.0969 C332.0026,236.0969 293.63,236.0969 293.63,226.0969 L293.63,200.8" fill="#F1F1F1" style="stroke:#181818;stroke-width:0.5;"/><path d="M293.63,200.8 C293.63,210.8 332.0026,210.8 332.0026,210.8 C332.0026,210.8 370.3751,210.8 370.3751,200.8" fill="none" style="stroke:#181818;stroke-width:0.5;"/><text fill="#000000" font-family="sans-serif" font-size="14" lengthAdjust="spacing" textLength="56.7451" x="303.63" y="227.7951">User DB</text></g><!--entity Order API--><g class="entity" data-entity="Order API" data-source-line="23" data-uid="ent0016" id="entity_Order API"><rect fill="#F1F1F1" height="46.2969" rx="2.5" ry="2.5" style="stroke:#181818;stroke-width:0.5;" width="106.6299" x="679.69" y="190.3"/><rect fill="#F1F1F1" height="10" style="stroke:#181818;stroke-width:0.5;" width="15" x="766.3199" y="195.3"/><rect fill="#F1F1F1" height="2" style="stroke:#181818;stroke-width:0.5;" width="4" x="764.3199" y="197.3"/><rect fill="#F1F1F1" height="2" style="stroke:#181818;stroke-width:0.5;" width="4" x="764.3199" y="201.3"/><text fill="#000000" font-family="sans-serif" font-size="14" lengthAdjust="spacing" textLength="66.6299" x="694.69" y="223.2951">Order API</text></g><!--entity Order DB--><g class="entity" data-entity="Order DB" data-source-line="24" data-uid="ent0017" id="entity_Order DB"><path d="M559.57,200.8 C559.57,190.8 602.0031,190.8 602.0031,190.8 C602.0031,190.8 644.4362,190.8 644.4362,200.8 L644.4362,226.0969 C644.4362,236.0969 602.0031,236.0969 602.0031,236.0969 C602.0031,236.0969 559.57,236.0969 559.57,226.0969 L559.57,200.8" fill="#F1F1F1" style="stroke:#181818;stroke-width:0.5;"/><path d="M559.57,200.8 C559.57,210.8 602.0031,210.8 602.0031,210.8 C602.0031,210.8 644.4362,210.8 644.4362,200.8" fill="none" style="stroke:#181818;stroke-width:0.5;"/><text fill="#000000" font-family="sans-serif" font-size="14" lengthAdjust="spacing" textLength="64.8662" x="569.57" y="227.7951">Order DB</text></g><!--entity Payment API--><g class="entity" data-entity="Payment API" data-source-line="28" data-uid="ent0019" id="entity_Payment API"><rect fill="#F1F1F1" height="46.2969" rx="2.5" ry="2.5" style="stroke:#181818;stroke-width:0.5;" width="128.5186" x="983.74" y="190.3"/><rect fill="#F1F1F1" height="10" style="stroke:#181818;stroke-width:0.5;" width="15" x="1092.2586" y="195.3"/><rect fill="#F1F1F1" height="2" style="stroke:#181818;stroke-width:0.5;" width="4" x="1090.2586" y="197.3"/><rect fill="#F1F1F1" height="2" style="stroke:#181818;stroke-width:0.5;" width="4" x="1090.2586" y="201.3"/><text fill="#000000" font-family="sans-serif" font-size="14" lengthAdjust="spacing" textLength="88.5186" x="998.74" y="223.2951">Payment API</text></g><!--entity Payment DB--><g class="entity" data-entity="Payment DB" data-source-line="29" data-uid="ent0020" id="entity_Payment DB"><path d="M841.62,200.8 C841.62,190.8 894.9974,190.8 894.9974,190.8 C894.9974,190.8 948.3749,190.8 948.3749,200.8 L948.3749,226.0969 C948.3749,236.0969 894.9974,236.0969 894.9974,236.0969 C894.9974,236.0969 841.62,236.0969 841.62,226.0969 L841.62,200.8" fill="#F1F1F1" style="stroke:#181818;stroke-width:0.5;"/><path d="M841.62,200.8 C841.62,210.8 894.9974,210.8 894.9974,210.8 C894.9974,210.8 948.3749,210.8 948.3749,200.8" fill="none" style="stroke:#181818;stroke-width:0.5;"/><text fill="#000000" font-family="sans-serif" font-size="14" lengthAdjust="spacing" textLength="86.7549" x="851.62" y="227.7951">Payment DB</text></g><!--entity Event Triggers--><g class="entity" data-entity="Event Triggers" data-source-line="45" data-uid="ent0030" id="entity_Event Triggers"><rect fill="#F1F1F1" height="46.2969" rx="2.5" ry="2.5" style="stroke:#181818;stroke-width:0.5;" width="142.1904" x="1406.9" y="84"/><rect fill="#F1F1F1" height="10" style="stroke:#181818;stroke-width:0.5;" width="15" x="1529.0904" y="89"/><rect fill="#F1F1F1" height="2" style="stroke:#181818;stroke-width:0.5;" width="4" x="1527.0904" y="91"/><rect fill="#F1F1F1" height="2" style="stroke:#181818;stroke-width:0.5;" width="4" x="1527.0904" y="95"/><text fill="#000000" font-family="sans-serif" font-size="14" lengthAdjust="spacing" textLength="102.1904" x="1421.9" y="116.9951">Event Triggers</text></g><!--entity Managed Database--><g class="entity" data-entity="Managed Database" data-source-line="46" data-uid="ent0031" id="entity_Managed Database"><path d="M1400.13,307.1 C1400.13,297.1 1478.004,297.1 1478.004,297.1 C1478.004,297.1 1555.878,297.1 1555.878,307.1 L1555.878,332.3969 C1555.878,342.3969 1478.004,342.3969 1478.004,342.3969 C1478.004,342.3969 1400.13,342.3969 1400.13,332.3969 L1400.13,307.1" fill="#F1F1F1" style="stroke:#181818;stroke-width:0.5;"/><path d="M1400.13,307.1 C1400.13,317.1 1478.004,317.1 1478.004,317.1 C1478.004,317.1 1555.878,317.1 1555.878,307.1" fill="none" style="stroke:#181818;stroke-width:0.5;"/><text fill="#000000" font-family="sans-serif" font-size="14" lengthAdjust="spacing" textLength="135.748" x="1410.13" y="334.0951">Managed Database</text></g><!--entity Auth Function--><g class="entity" data-entity="Auth Function" data-source-line="40" data-uid="ent0027" id="entity_Auth Function"><rect fill="#F1F1F1" height="46.2969" rx="2.5" ry="2.5" style="stroke:#181818;stroke-width:0.5;" width="137.5762" x="1582.21" y="190.3"/><rect fill="#F1F1F1" height="10" style="stroke:#181818;stroke-width:0.5;" width="15" x="1699.7862" y="195.3"/><rect fill="#F1F1F1" height="2" style="stroke:#181818;stroke-width:0.5;" width="4" x="1697.7862" y="197.3"/><rect fill="#F1F1F1" height="2" style="stroke:#181818;stroke-width:0.5;" width="4" x="1697.7862" y="201.3"/><text fill="#000000" font-family="sans-serif" font-size="14" lengthAdjust="spacing" textLength="97.5762" x="1597.21" y="223.2951">Auth Function</text></g><!--entity Data Function--><g class="entity" data-entity="Data Function" data-source-line="41" data-uid="ent0028" id="entity_Data Function"><rect fill="#F1F1F1" height="46.2969" rx="2.5" ry="2.5" style="stroke:#181818;stroke-width:0.5;" width="138.1914" x="1408.9" y="190.3"/><rect fill="#F1F1F1" height="10" style="stroke:#181818;stroke-width:0.5;" width="15" x="1527.0914" y="195.3"/><rect fill="#F1F1F1" height="2" style="stroke:#181818;stroke-width:0.5;" width="4" x="1525.0914" y="197.3"/><rect fill="#F1F1F1" height="2" style="stroke:#181818;stroke-width:0.5;" width="4" x="1525.0914" y="201.3"/><text fill="#000000" font-family="sans-serif" font-size="14" lengthAdjust="spacing" textLength="98.1914" x="1423.9" y="223.2951">Data Function</text></g><!--entity Process Function--><g class="entity" data-entity="Process Function" data-source-line="42" data-uid="ent0029" id="entity_Process Function"><rect fill="#F1F1F1" height="46.2969" rx="2.5" ry="2.5" style="stroke:#181818;stroke-width:0.5;" width="158.4258" x="1215.79" y="190.3"/><rect fill="#F1F1F1" height="10" style="stroke:#181818;stroke-width:0.5;" width="15" x="1354.2158" y="195.3"/><rect fill="#F1F1F1" height="2" style="stroke:#181818;stroke-width:0.5;" width="4" x="1352.2158" y="197.3"/><rect fill="#F1F1F1" height="2" style="stroke:#181818;stroke-width:0.5;" width="4" x="1352.2158" y="201.3"/><text fill="#000000" font-family="sans-serif" font-size="14" lengthAdjust="spacing" textLength="118.4258" x="1230.79" y="223.2951">Process Function</text></g><!--link User Interface to Business Logic--><g class="link" data-entity-1="User Interface" data-entity-2="Business Logic" data-source-line="11" data-uid="lnk8" id="link_User Interface_Business Logic"><path d="M118,130.78 C118,148.28 118,166.38 118,183.86" fill="none" id="User Interface-to-Business Logic" style="stroke:#181818;stroke-width:1;"/><polygon fill="#181818" points="118,189.86,122,180.86,118,184.86,114,180.86,118,189.86" style="stroke:#181818;stroke-width:1;"/></g><!--link Business Logic to Data Access--><g class="link" data-entity-1="Business Logic" data-entity-2="Data Access" data-source-line="12" data-uid="lnk9" id="link_Business Logic_Data Access"><path d="M118,237.08 C118,254.57 118,272.68 118,290.16" fill="none" id="Business Logic-to-Data Access" style="stroke:#181818;stroke-width:1;"/><polygon fill="#181818" points="118,296.16,122,287.16,118,291.16,114,287.16,118,296.16" style="stroke:#181818;stroke-width:1;"/></g><!--link Data Access to Single Database--><g class="link" data-entity-1="Data Access" data-entity-2="Single Database" data-source-line="13" data-uid="lnk10" id="link_Data Access_Single Database"><path d="M118,343.27 C118,360.8 118,378.99 118,396.42" fill="none" id="Data Access-to-Single Database" style="stroke:#181818;stroke-width:1;"/><polygon fill="#181818" points="118,402.42,122,393.42,118,397.42,114,393.42,118,402.42" style="stroke:#181818;stroke-width:1;"/></g><!--link API Gateway to User API--><g class="link" data-entity-1="API Gateway" data-entity-2="User API" data-source-line="33" data-uid="lnk22" id="link_API Gateway_User API"><path d="M668.34,114.6 C630.82,120.02 583.35,129.82 544,147.3 C520.2,157.87 501.1539,171.7286 484.2339,186.0186" fill="none" id="API Gateway-to-User API" style="stroke:#181818;stroke-width:1;"/><polygon fill="#181818" points="479.65,189.89,489.1068,187.1388,483.4699,186.6638,483.9449,181.027,479.65,189.89" style="stroke:#181818;stroke-width:1;"/></g><!--link API Gateway to Order API--><g class="link" data-entity-1="API Gateway" data-entity-2="Order API" data-source-line="34" data-uid="lnk23" id="link_API Gateway_Order API"><path d="M733,130.78 C733,148.28 733,166.38 733,183.86" fill="none" id="API Gateway-to-Order API" style="stroke:#181818;stroke-width:1;"/><polygon fill="#181818" points="733,189.86,737,180.86,733,184.86,729,180.86,733,189.86" style="stroke:#181818;stroke-width:1;"/></g><!--link API Gateway to Payment API--><g class="link" data-entity-1="API Gateway" data-entity-2="Payment API" data-source-line="35" data-uid="lnk24" id="link_API Gateway_Payment API"><path d="M797.54,110.33 C845.76,113.99 912.32,123.4 966,147.3 C988.76,157.43 1006.2662,171.2727 1021.6962,185.7627" fill="none" id="API Gateway-to-Payment API" style="stroke:#181818;stroke-width:1;"/><polygon fill="#181818" points="1026.07,189.87,1022.2476,180.7932,1022.4252,186.4472,1016.7711,186.6249,1026.07,189.87" style="stroke:#181818;stroke-width:1;"/></g><!--link Event Triggers to Auth Function--><g class="link" data-entity-1="Event Triggers" data-entity-2="Auth Function" data-source-line="48" data-uid="lnk32" id="link_Event Triggers_Auth Function"><path d="M1533.25,130.75 C1544.01,135.77 1555.03,141.38 1565,147.3 C1586.1,159.82 1603.4744,172.8051 1619.9444,186.1951" fill="none" id="Event Triggers-to-Auth Function" style="stroke:#181818;stroke-width:1;"/><polygon fill="#181818" points="1624.6,189.98,1620.14,181.1989,1620.7204,186.8259,1615.0934,187.4063,1624.6,189.98" style="stroke:#181818;stroke-width:1;"/></g><!--link Event Triggers to Data Function--><g class="link" data-entity-1="Event Triggers" data-entity-2="Data Function" data-source-line="49" data-uid="lnk33" id="link_Event Triggers_Data Function"><path d="M1478,130.78 C1478,148.28 1478,166.38 1478,183.86" fill="none" id="Event Triggers-to-Data Function" style="stroke:#181818;stroke-width:1;"/><polygon fill="#181818" points="1478,189.86,1482,180.86,1478,184.86,1474,180.86,1478,189.86" style="stroke:#181818;stroke-width:1;"/></g><!--link Event Triggers to Process Function--><g class="link" data-entity-1="Event Triggers" data-entity-2="Process Function" data-source-line="50" data-uid="lnk34" id="link_Event Triggers_Process Function"><path d="M1423.91,130.74 C1412.85,135.84 1401.41,141.48 1391,147.3 C1368.14,160.07 1348.6162,173.1738 1330.1362,186.4238" fill="none" id="Event Triggers-to-Process Function" style="stroke:#181818;stroke-width:1;"/><polygon fill="#181818" points="1325.26,189.92,1334.905,187.9265,1329.3235,187.0065,1330.2435,181.425,1325.26,189.92" style="stroke:#181818;stroke-width:1;"/></g><!--link Auth Function to Managed Database--><g class="link" data-entity-1="Auth Function" data-entity-2="Managed Database" data-source-line="52" data-uid="lnk35" id="link_Auth Function_Managed Database"><path d="M1627.66,236.87 C1611.15,251.84 1587.95,271.17 1565,284.6 C1557.44,289.02 1554.6775,290.6736 1546.3775,294.3436" fill="none" id="Auth Function-to-Managed Database" style="stroke:#181818;stroke-width:1;"/><polygon fill="#181818" points="1540.89,296.77,1550.7388,296.7887,1545.4629,294.748,1547.5036,289.4721,1540.89,296.77" style="stroke:#181818;stroke-width:1;"/></g><!--link Data Function to Managed Database--><g class="link" data-entity-1="Data Function" data-entity-2="Managed Database" data-source-line="53" data-uid="lnk36" id="link_Data Function_Managed Database"><path d="M1478,237.08 C1478,254.81 1478,273.34 1478,290.87" fill="none" id="Data Function-to-Managed Database" style="stroke:#181818;stroke-width:1;"/><polygon fill="#181818" points="1478,296.87,1482,287.87,1478,291.87,1474,287.87,1478,296.87" style="stroke:#181818;stroke-width:1;"/></g><!--link Process Function to Managed Database--><g class="link" data-entity-1="Process Function" data-entity-2="Managed Database" data-source-line="54" data-uid="lnk37" id="link_Process Function_Managed Database"><path d="M1321.88,237 C1340.47,251.84 1366.22,270.98 1391,284.6 C1398.82,288.89 1401.7949,290.5338 1410.2849,294.2138" fill="none" id="Process Function-to-Managed Database" style="stroke:#181818;stroke-width:1;"/><polygon fill="#181818" points="1415.79,296.6,1409.1231,289.3506,1411.2024,294.6115,1405.9416,296.6908,1415.79,296.6" style="stroke:#181818;stroke-width:1;"/></g><!--SRC=[ZPDHQuCm4CVV_HI7x_qA0qktKLYPqEsfoBZ5L4CraIIsbD7llcYqZQdfveF1kz_vl_oJKmV66vHOGosu8AKKDGKjMngfQqQLc8iJumNiiL8qYXea1omen1jJKp5TCWA992NJbEXMqXX-8Z2FD9_8YygGMzQlITDKZA1cWiU0gXSTuEuXecu4frn3_AceX3NNLEwHq7WEMRQASQeKl8c2aLbaXHeX8SHGjtnkWj-eRbsjXe15BlrxDsqWWyNY2NPJoSoINj2IZlA0kH7BUF9PT76zPKGAqyEHcOg_xEsRtLguDxOrWIzr90_CJTBrd2TzRhKSlV2LtcNkIOak4jQo1G4ncmohfNYkkx-uUesDXHN7ee3ccFPKdH-OGdX5JKzujiZEYGndDrgOXO3hleE4q-VqwBlTKbbrLshkt4absXpYbvQJRf0WhL3lXQpZUJkILfSmmk4fUKYaKdJtreFkdNi-Tik7P4L1vJ1oD-StoCt-ScVUh3NJgi6TITlP0t3I_IFGtqGso4-LBEktwixm_z0xjH1z-GK0]--></g></svg>