<svg xmlns="http://www.w3.org/2000/svg" xmlns:xlink="http://www.w3.org/1999/xlink" contentStyleType="text/css" data-diagram-type="ACTIVITY" height="452px" preserveAspectRatio="none" style="width:1351px;height:452px;background:#FFFFFF;" version="1.1" viewBox="0 0 1351 452" width="1351px" zoomAndPan="magnify"><defs/><g><ellipse cx="675.3723" cy="15" fill="#FFFFFF" rx="10" ry="10" style="stroke:#000000;stroke-width:1;"/><path d="M754.2278,41.8516 L754.2278,57.9844 L734.2278,61.9844 L754.2278,65.9844 L754.2278,82.1172 A0,0 0 0 0 754.2278,82.1172 L947.4143,82.1172 A0,0 0 0 0 947.4143,82.1172 L947.4143,51.8516 L937.4143,41.8516 L754.2278,41.8516 A0,0 0 0 0 754.2278,41.8516" fill="#FFFFFF" style="stroke:#000000;stroke-width:1;"/><path d="M937.4143,41.8516 L937.4143,51.8516 L947.4143,51.8516 L937.4143,41.8516" fill="#FFFFFF" style="stroke:#000000;stroke-width:1;"/><text fill="#000000" font-family="Arial" font-size="13" lengthAdjust="spacing" textLength="146.377" x="760.2278" y="58.9185">Identify attack vectors</text><text fill="#000000" font-family="Arial" font-size="13" lengthAdjust="spacing" textLength="172.1865" x="760.2278" y="74.0513">and security requirements</text><rect fill="#FFFFFF" height="33.9688" rx="12.5" ry="12.5" style="stroke:#000000;stroke-width:1;" width="117.7109" x="616.5168" y="45"/><text fill="#000000" font-family="Arial" font-size="12" lengthAdjust="spacing" textLength="97.7109" x="626.5168" y="66.1387">Threat Modeling</text><path d="M749.1565,98.9688 L749.1565,115.1016 L729.1565,119.1016 L749.1565,123.1016 L749.1565,139.2344 A0,0 0 0 0 749.1565,139.2344 L914.9275,139.2344 A0,0 0 0 0 914.9275,139.2344 L914.9275,108.9688 L904.9275,98.9688 L749.1565,98.9688 A0,0 0 0 0 749.1565,98.9688" fill="#FFFFFF" style="stroke:#000000;stroke-width:1;"/><path d="M904.9275,98.9688 L904.9275,108.9688 L914.9275,108.9688 L904.9275,98.9688" fill="#FFFFFF" style="stroke:#000000;stroke-width:1;"/><text fill="#000000" font-family="Arial" font-size="13" lengthAdjust="spacing" textLength="80.6914" x="755.1565" y="116.0356">Code review</text><text fill="#000000" font-family="Arial" font-size="13" lengthAdjust="spacing" textLength="144.771" x="755.1565" y="131.1685">Vulnerability scanning</text><rect fill="#FFFFFF" height="33.9688" rx="12.5" ry="12.5" style="stroke:#000000;stroke-width:1;" width="107.5684" x="621.5881" y="102.1172"/><text fill="#000000" font-family="Arial" font-size="12" lengthAdjust="spacing" textLength="87.5684" x="631.5881" y="123.2559">Static Analysis</text><rect fill="#FFFFFF" height="33.9688" rx="12.5" ry="12.5" style="stroke:#000000;stroke-width:1;" width="120.9629" x="614.8909" y="159.2344"/><text fill="#000000" font-family="Arial" font-size="12" lengthAdjust="spacing" textLength="100.9629" x="624.8909" y="180.373">Dynamic Testing</text><line style="stroke:#000000;stroke-width:1.5;" x1="84.0654" x2="1093.3447" y1="213.2031" y2="213.2031"/><path d="M182.1309,230.0547 L182.1309,246.1875 L162.1309,250.1875 L182.1309,254.1875 L182.1309,270.3203 A0,0 0 0 0 182.1309,270.3203 L343.9473,270.3203 A0,0 0 0 0 343.9473,270.3203 L343.9473,240.0547 L333.9473,230.0547 L182.1309,230.0547 A0,0 0 0 0 182.1309,230.0547" fill="#FFFFFF" style="stroke:#000000;stroke-width:1;"/><path d="M333.9473,230.0547 L333.9473,240.0547 L343.9473,240.0547 L333.9473,230.0547" fill="#FFFFFF" style="stroke:#000000;stroke-width:1;"/><text fill="#000000" font-family="Arial" font-size="13" lengthAdjust="spacing" textLength="107.7959" x="188.1309" y="247.1216">Token validation</text><text fill="#000000" font-family="Arial" font-size="13" lengthAdjust="spacing" textLength="140.8164" x="188.1309" y="262.2544">Session management</text><rect fill="#FFFFFF" height="33.9688" rx="12.5" ry="12.5" style="stroke:#000000;stroke-width:1;" width="156.1309" x="6" y="233.2031"/><text fill="#000000" font-family="Arial" font-size="12" lengthAdjust="spacing" textLength="136.1309" x="16" y="254.3418">Authentication Testing</text><path d="M522.3613,230.0547 L522.3613,246.1875 L502.3613,250.1875 L522.3613,254.1875 L522.3613,270.3203 A0,0 0 0 0 522.3613,270.3203 L669.8193,270.3203 A0,0 0 0 0 669.8193,270.3203 L669.8193,240.0547 L659.8193,230.0547 L522.3613,230.0547 A0,0 0 0 0 522.3613,230.0547" fill="#FFFFFF" style="stroke:#000000;stroke-width:1;"/><path d="M659.8193,230.0547 L659.8193,240.0547 L669.8193,240.0547 L659.8193,230.0547" fill="#FFFFFF" style="stroke:#000000;stroke-width:1;"/><text fill="#000000" font-family="Arial" font-size="13" lengthAdjust="spacing" textLength="100.9849" x="528.3613" y="247.1216">Access controls</text><text fill="#000000" font-family="Arial" font-size="13" lengthAdjust="spacing" textLength="126.458" x="528.3613" y="262.2544">Privilege escalation</text><rect fill="#FFFFFF" height="33.9688" rx="12.5" ry="12.5" style="stroke:#000000;stroke-width:1;" width="148.4141" x="353.9473" y="233.2031"/><text fill="#000000" font-family="Arial" font-size="12" lengthAdjust="spacing" textLength="128.4141" x="363.9473" y="254.3418">Authorization Testing</text><path d="M880.9346,230.0547 L880.9346,246.1875 L860.9346,250.1875 L880.9346,254.1875 L880.9346,270.3203 A0,0 0 0 0 880.9346,270.3203 L1009.375,270.3203 A0,0 0 0 0 1009.375,270.3203 L1009.375,240.0547 L999.375,230.0547 L880.9346,230.0547 A0,0 0 0 0 880.9346,230.0547" fill="#FFFFFF" style="stroke:#000000;stroke-width:1;"/><path d="M999.375,230.0547 L999.375,240.0547 L1009.375,240.0547 L999.375,230.0547" fill="#FFFFFF" style="stroke:#000000;stroke-width:1;"/><text fill="#000000" font-family="Arial" font-size="13" lengthAdjust="spacing" textLength="107.4404" x="886.9346" y="247.1216">Injection attacks</text><text fill="#000000" font-family="Arial" font-size="13" lengthAdjust="spacing" textLength="99.1758" x="886.9346" y="262.2544">Data validation</text><rect fill="#FFFFFF" height="33.9688" rx="12.5" ry="12.5" style="stroke:#000000;stroke-width:1;" width="163.1152" x="697.8193" y="233.2031"/><text fill="#000000" font-family="Arial" font-size="12" lengthAdjust="spacing" textLength="143.1152" x="707.8193" y="254.3418">Input Validation Testing</text><path d="M1187.3145,230.0547 L1187.3145,246.1875 L1167.3145,250.1875 L1187.3145,254.1875 L1187.3145,270.3203 A0,0 0 0 0 1187.3145,270.3203 L1344.7446,270.3203 A0,0 0 0 0 1344.7446,270.3203 L1344.7446,240.0547 L1334.7446,230.0547 L1187.3145,230.0547 A0,0 0 0 0 1187.3145,230.0547" fill="#FFFFFF" style="stroke:#000000;stroke-width:1;"/><path d="M1334.7446,230.0547 L1334.7446,240.0547 L1344.7446,240.0547 L1334.7446,230.0547" fill="#FFFFFF" style="stroke:#000000;stroke-width:1;"/><text fill="#000000" font-family="Arial" font-size="13" lengthAdjust="spacing" textLength="97.043" x="1193.3145" y="247.1216">DoS protection</text><text fill="#000000" font-family="Arial" font-size="13" lengthAdjust="spacing" textLength="136.4302" x="1193.3145" y="262.2544">Resource exhaustion</text><rect fill="#FFFFFF" height="33.9688" rx="12.5" ry="12.5" style="stroke:#000000;stroke-width:1;" width="147.9395" x="1019.375" y="233.2031"/><text fill="#000000" font-family="Arial" font-size="12" lengthAdjust="spacing" textLength="127.9395" x="1029.375" y="254.3418">Rate Limiting Testing</text><line style="stroke:#000000;stroke-width:1.5;" x1="84.0654" x2="1093.3447" y1="290.3203" y2="290.3203"/><path d="M764.1858,307.1719 L764.1858,323.3047 L744.1858,327.3047 L764.1858,331.3047 L764.1858,347.4375 A0,0 0 0 0 764.1858,347.4375 L920.2195,347.4375 A0,0 0 0 0 920.2195,347.4375 L920.2195,317.1719 L910.2195,307.1719 L764.1858,307.1719 A0,0 0 0 0 764.1858,307.1719" fill="#FFFFFF" style="stroke:#000000;stroke-width:1;"/><path d="M910.2195,307.1719 L910.2195,317.1719 L920.2195,317.1719 L910.2195,307.1719" fill="#FFFFFF" style="stroke:#000000;stroke-width:1;"/><text fill="#000000" font-family="Arial" font-size="13" lengthAdjust="spacing" textLength="128.4575" x="770.1858" y="324.2388">Manual exploitation</text><text fill="#000000" font-family="Arial" font-size="13" lengthAdjust="spacing" textLength="135.0337" x="770.1858" y="339.3716">Real-world scenarios</text><rect fill="#FFFFFF" height="33.9688" rx="12.5" ry="12.5" style="stroke:#000000;stroke-width:1;" width="137.627" x="606.5588" y="310.3203"/><text fill="#000000" font-family="Arial" font-size="12" lengthAdjust="spacing" textLength="117.627" x="616.5588" y="331.459">Penetration Testing</text><path d="M789.1584,364.2891 L789.1584,380.4219 L769.1584,384.4219 L789.1584,388.4219 L789.1584,404.5547 A0,0 0 0 0 789.1584,404.5547 L938.3557,404.5547 A0,0 0 0 0 938.3557,404.5547 L938.3557,374.2891 L928.3557,364.2891 L789.1584,364.2891 A0,0 0 0 0 789.1584,364.2891" fill="#FFFFFF" style="stroke:#000000;stroke-width:1;"/><path d="M928.3557,364.2891 L928.3557,374.2891 L938.3557,374.2891 L928.3557,364.2891" fill="#FFFFFF" style="stroke:#000000;stroke-width:1;"/><text fill="#000000" font-family="Arial" font-size="13" lengthAdjust="spacing" textLength="128.1973" x="795.1584" y="381.356">Automated security</text><text fill="#000000" font-family="Arial" font-size="13" lengthAdjust="spacing" textLength="60.8169" x="795.1584" y="396.4888">test suite</text><rect fill="#FFFFFF" height="33.9688" rx="12.5" ry="12.5" style="stroke:#000000;stroke-width:1;" width="187.5723" x="581.5862" y="367.4375"/><text fill="#000000" font-family="Arial" font-size="12" lengthAdjust="spacing" textLength="167.5723" x="591.5862" y="388.5762">Security Regression Testing</text><ellipse cx="675.3723" cy="435.5547" fill="none" rx="11" ry="11" style="stroke:#000000;stroke-width:1;"/><ellipse cx="675.3723" cy="435.5547" fill="#FFFFFF" rx="6" ry="6" style="stroke:#000000;stroke-width:1;"/><line style="stroke:#000000;stroke-width:1;" x1="675.3723" x2="675.3723" y1="25" y2="45"/><polygon fill="#000000" points="671.3723,35,675.3723,45,679.3723,35,675.3723,39" style="stroke:#000000;stroke-width:1;"/><line style="stroke:#000000;stroke-width:1;" x1="675.3723" x2="675.3723" y1="78.9688" y2="102.1172"/><polygon fill="#000000" points="671.3723,92.1172,675.3723,102.1172,679.3723,92.1172,675.3723,96.1172" style="stroke:#000000;stroke-width:1;"/><line style="stroke:#000000;stroke-width:1;" x1="675.3723" x2="675.3723" y1="136.0859" y2="159.2344"/><polygon fill="#000000" points="671.3723,149.2344,675.3723,159.2344,679.3723,149.2344,675.3723,153.2344" style="stroke:#000000;stroke-width:1;"/><line style="stroke:#000000;stroke-width:1;" x1="84.0654" x2="84.0654" y1="214.7031" y2="233.2031"/><polygon fill="#000000" points="80.0654,223.2031,84.0654,233.2031,88.0654,223.2031,84.0654,227.2031" style="stroke:#000000;stroke-width:1;"/><line style="stroke:#000000;stroke-width:1;" x1="428.1543" x2="428.1543" y1="214.7031" y2="233.2031"/><polygon fill="#000000" points="424.1543,223.2031,428.1543,233.2031,432.1543,223.2031,428.1543,227.2031" style="stroke:#000000;stroke-width:1;"/><line style="stroke:#000000;stroke-width:1;" x1="779.377" x2="779.377" y1="214.7031" y2="233.2031"/><polygon fill="#000000" points="775.377,223.2031,779.377,233.2031,783.377,223.2031,779.377,227.2031" style="stroke:#000000;stroke-width:1;"/><line style="stroke:#000000;stroke-width:1;" x1="1093.3447" x2="1093.3447" y1="214.7031" y2="233.2031"/><polygon fill="#000000" points="1089.3447,223.2031,1093.3447,233.2031,1097.3447,223.2031,1093.3447,227.2031" style="stroke:#000000;stroke-width:1;"/><line style="stroke:#000000;stroke-width:1;" x1="84.0654" x2="84.0654" y1="267.1719" y2="290.3203"/><polygon fill="#000000" points="80.0654,280.3203,84.0654,290.3203,88.0654,280.3203,84.0654,284.3203" style="stroke:#000000;stroke-width:1;"/><line style="stroke:#000000;stroke-width:1;" x1="428.1543" x2="428.1543" y1="267.1719" y2="290.3203"/><polygon fill="#000000" points="424.1543,280.3203,428.1543,290.3203,432.1543,280.3203,428.1543,284.3203" style="stroke:#000000;stroke-width:1;"/><line style="stroke:#000000;stroke-width:1;" x1="779.377" x2="779.377" y1="267.1719" y2="290.3203"/><polygon fill="#000000" points="775.377,280.3203,779.377,290.3203,783.377,280.3203,779.377,284.3203" style="stroke:#000000;stroke-width:1;"/><line style="stroke:#000000;stroke-width:1;" x1="1093.3447" x2="1093.3447" y1="267.1719" y2="290.3203"/><polygon fill="#000000" points="1089.3447,280.3203,1093.3447,290.3203,1097.3447,280.3203,1093.3447,284.3203" style="stroke:#000000;stroke-width:1;"/><line style="stroke:#000000;stroke-width:1;" x1="675.3723" x2="675.3723" y1="193.2031" y2="213.2031"/><polygon fill="#000000" points="671.3723,203.2031,675.3723,213.2031,679.3723,203.2031,675.3723,207.2031" style="stroke:#000000;stroke-width:1;"/><line style="stroke:#000000;stroke-width:1;" x1="675.3723" x2="675.3723" y1="291.8203" y2="310.3203"/><polygon fill="#000000" points="671.3723,300.3203,675.3723,310.3203,679.3723,300.3203,675.3723,304.3203" style="stroke:#000000;stroke-width:1;"/><line style="stroke:#000000;stroke-width:1;" x1="675.3723" x2="675.3723" y1="344.2891" y2="367.4375"/><polygon fill="#000000" points="671.3723,357.4375,675.3723,367.4375,679.3723,357.4375,675.3723,361.4375" style="stroke:#000000;stroke-width:1;"/><line style="stroke:#000000;stroke-width:1;" x1="675.3723" x2="675.3723" y1="401.4063" y2="424.5547"/><polygon fill="#000000" points="671.3723,414.5547,675.3723,424.5547,679.3723,414.5547,675.3723,418.5547" style="stroke:#000000;stroke-width:1;"/><!--SRC=[VPB1RXin34Jl-Wesz_x0zcJ4A62WAGBRoCaNHiliijPI6ugoutnzkUkaSOscLudpE1hD5-jf81WJieIoPnbHSO17ZFjESvNsDgUiSEpPwEA-fIUioRvdiP_e-fk5CgQR48gXMcYslH8QtEMM4altBKWs0kMkjmPMBOdnqmdGpFV0WQ9bBJj1QQ5GhCfs0gNdokhcn4e8pSRGEC92C9qAbx-9jxx71GUcuquUQX9IVEGqOKf44RVWYEL9S736behDfihe8m6WMLIFmJr5tv7bOm3WSiisxqdWW8dRUMud6ofb4WmesCrMpqp0RihpZPoLN_yBNiJe88YUfkRaGTmh7pXHHq3kFytYQ_9AnchmyCVDP_2L_F9yfu5pt8vVek75Ewx9QtJr3nvumds6NUODZEe7yHp5cagk6jtnIu-rp5oQ_dFEE3Jt96HwvVGIU8TICRbyJ9aDtwcOlXwp9WT54bJESndUIxAcJj_-u9zGZpyF_foFNkt4V11AdGhjTSrZ-0q0]--></g></svg>