<svg xmlns="http://www.w3.org/2000/svg" xmlns:xlink="http://www.w3.org/1999/xlink" contentStyleType="text/css" data-diagram-type="SEQUENCE" height="416px" preserveAspectRatio="none" style="width:651px;height:416px;background:#FFFFFF;" version="1.1" viewBox="0 0 651 416" width="651px" zoomAndPan="magnify"><defs/><g><g><title>Client</title><rect fill="#000000" fill-opacity="0.00000" height="253.0625" width="8" x="29.2651" y="82.2969"/><line style="stroke:#000000;stroke-width:1;" x1="33" x2="33" y1="82.2969" y2="335.3594"/></g><g><title>API Gateway</title><rect fill="#000000" fill-opacity="0.00000" height="253.0625" width="8" x="224.4805" y="82.2969"/><line style="stroke:#000000;stroke-width:1;" x1="228.2588" x2="228.2588" y1="82.2969" y2="335.3594"/></g><g><title>Auth Service</title><rect fill="#000000" fill-opacity="0.00000" height="253.0625" width="8" x="387.7036" y="82.2969"/><line style="stroke:#000000;stroke-width:1;" x1="391.2017" x2="391.2017" y1="82.2969" y2="335.3594"/></g><g><title>API Service</title><rect fill="#000000" fill-opacity="0.00000" height="253.0625" width="8" x="515.3755" y="82.2969"/><line style="stroke:#000000;stroke-width:1;" x1="519.2056" x2="519.2056" y1="82.2969" y2="335.3594"/></g><g><title>User DB</title><rect fill="#000000" fill-opacity="0.00000" height="253.0625" width="8" x="612.918" y="82.2969"/><line style="stroke:#000000;stroke-width:1;" x1="616.5454" x2="616.5454" y1="82.2969" y2="335.3594"/></g><g class="participant participant-head" data-participant="Client"><text fill="#000000" font-family="Arial" font-size="14" lengthAdjust="spacing" textLength="40.5303" x="10" y="78.9951">Client</text><ellipse cx="33.2651" cy="14" fill="#FFFFFF" rx="8" ry="8" style="stroke:#000000;stroke-width:1;"/><path d="M33.2651,22 L33.2651,49 M20.2651,30 L46.2651,30 M33.2651,49 L20.2651,64 M33.2651,49 L46.2651,64" fill="none" style="stroke:#000000;stroke-width:1;"/></g><g class="participant participant-tail" data-participant="Client"><text fill="#000000" font-family="Arial" font-size="14" lengthAdjust="spacing" textLength="40.5303" x="10" y="347.3545">Client</text><ellipse cx="33.2651" cy="359.6563" fill="#FFFFFF" rx="8" ry="8" style="stroke:#000000;stroke-width:1;"/><path d="M33.2651,367.6563 L33.2651,394.6563 M20.2651,375.6563 L46.2651,375.6563 M33.2651,394.6563 L20.2651,409.6563 M33.2651,394.6563 L46.2651,409.6563" fill="none" style="stroke:#000000;stroke-width:1;"/></g><g class="participant participant-head" data-participant="Gateway"><rect fill="#FFFFFF" height="30.2969" rx="2.5" ry="2.5" style="stroke:#000000;stroke-width:1;" width="102.4434" x="177.2588" y="51"/><text fill="#000000" font-family="Arial" font-size="14" lengthAdjust="spacing" textLength="88.4434" x="184.2588" y="70.9951">API Gateway</text></g><g class="participant participant-tail" data-participant="Gateway"><rect fill="#FFFFFF" height="30.2969" rx="2.5" ry="2.5" style="stroke:#000000;stroke-width:1;" width="102.4434" x="177.2588" y="334.3594"/><text fill="#000000" font-family="Arial" font-size="14" lengthAdjust="spacing" textLength="88.4434" x="184.2588" y="354.3545">API Gateway</text></g><g class="participant participant-head" data-participant="Auth"><rect fill="#FFFFFF" height="30.2969" rx="2.5" ry="2.5" style="stroke:#000000;stroke-width:1;" width="103.0039" x="340.2017" y="51"/><text fill="#000000" font-family="Arial" font-size="14" lengthAdjust="spacing" textLength="89.0039" x="347.2017" y="70.9951">Auth Service</text></g><g class="participant participant-tail" data-participant="Auth"><rect fill="#FFFFFF" height="30.2969" rx="2.5" ry="2.5" style="stroke:#000000;stroke-width:1;" width="103.0039" x="340.2017" y="334.3594"/><text fill="#000000" font-family="Arial" font-size="14" lengthAdjust="spacing" textLength="89.0039" x="347.2017" y="354.3545">Auth Service</text></g><g class="participant participant-head" data-participant="API"><rect fill="#FFFFFF" height="30.2969" rx="2.5" ry="2.5" style="stroke:#000000;stroke-width:1;" width="92.3398" x="473.2056" y="51"/><text fill="#000000" font-family="Arial" font-size="14" lengthAdjust="spacing" textLength="78.3398" x="480.2056" y="70.9951">API Service</text></g><g class="participant participant-tail" data-participant="API"><rect fill="#FFFFFF" height="30.2969" rx="2.5" ry="2.5" style="stroke:#000000;stroke-width:1;" width="92.3398" x="473.2056" y="334.3594"/><text fill="#000000" font-family="Arial" font-size="14" lengthAdjust="spacing" textLength="78.3398" x="480.2056" y="354.3545">API Service</text></g><g class="participant participant-head" data-participant="DB"><text fill="#000000" font-family="Arial" font-size="14" lengthAdjust="spacing" textLength="56.7451" x="585.5454" y="78.9951">User DB</text><path d="M598.918,30 C598.918,20 616.918,20 616.918,20 C616.918,20 634.918,20 634.918,30 L634.918,56 C634.918,66 616.918,66 616.918,66 C616.918,66 598.918,66 598.918,56 L598.918,30" fill="#FFFFFF" style="stroke:#000000;stroke-width:1.5;"/><path d="M598.918,30 C598.918,40 616.918,40 616.918,40 C616.918,40 634.918,40 634.918,30" fill="none" style="stroke:#000000;stroke-width:1.5;"/></g><g class="participant participant-tail" data-participant="DB"><text fill="#000000" font-family="Arial" font-size="14" lengthAdjust="spacing" textLength="56.7451" x="585.5454" y="347.3545">User DB</text><path d="M598.918,360.6563 C598.918,350.6563 616.918,350.6563 616.918,350.6563 C616.918,350.6563 634.918,350.6563 634.918,360.6563 L634.918,386.6563 C634.918,396.6563 616.918,396.6563 616.918,396.6563 C616.918,396.6563 598.918,396.6563 598.918,386.6563 L598.918,360.6563" fill="#FFFFFF" style="stroke:#000000;stroke-width:1.5;"/><path d="M598.918,360.6563 C598.918,370.6563 616.918,370.6563 616.918,370.6563 C616.918,370.6563 634.918,370.6563 634.918,360.6563" fill="none" style="stroke:#000000;stroke-width:1.5;"/></g><g class="message" data-participant-1="Client" data-participant-2="Gateway"><polygon fill="#000000" points="216.4805,109.4297,226.4805,113.4297,216.4805,117.4297,220.4805,113.4297" style="stroke:#000000;stroke-width:1;"/><line style="stroke:#000000;stroke-width:1;" x1="33.2651" x2="222.4805" y1="113.4297" y2="113.4297"/><text fill="#000000" font-family="Arial" font-size="13" lengthAdjust="spacing" textLength="171.2153" x="40.2651" y="108.3638">API Request + Credentials</text></g><g class="message" data-participant-1="Gateway" data-participant-2="Auth"><polygon fill="#000000" points="379.7036,138.5625,389.7036,142.5625,379.7036,146.5625,383.7036,142.5625" style="stroke:#000000;stroke-width:1;"/><line style="stroke:#000000;stroke-width:1;" x1="228.4805" x2="385.7036" y1="142.5625" y2="142.5625"/><text fill="#000000" font-family="Arial" font-size="13" lengthAdjust="spacing" textLength="83.624" x="235.4805" y="137.4966">Authenticate</text></g><g class="message" data-participant-1="Auth" data-participant-2="DB"><polygon fill="#000000" points="604.918,167.6953,614.918,171.6953,604.918,175.6953,608.918,171.6953" style="stroke:#000000;stroke-width:1;"/><line style="stroke:#000000;stroke-width:1;" x1="391.7036" x2="610.918" y1="171.6953" y2="171.6953"/><text fill="#000000" font-family="Arial" font-size="13" lengthAdjust="spacing" textLength="131.498" x="398.7036" y="166.6294">Validate Credentials</text></g><g class="message" data-participant-1="DB" data-participant-2="Auth"><polygon fill="#000000" points="402.7036,196.8281,392.7036,200.8281,402.7036,204.8281,398.7036,200.8281" style="stroke:#000000;stroke-width:1;"/><line style="stroke:#000000;stroke-width:1;" x1="396.7036" x2="615.918" y1="200.8281" y2="200.8281"/><text fill="#000000" font-family="Arial" font-size="13" lengthAdjust="spacing" textLength="58.3667" x="408.7036" y="195.7622">User Info</text></g><g class="message" data-participant-1="Auth" data-participant-2="Gateway"><polygon fill="#000000" points="239.4805,225.9609,229.4805,229.9609,239.4805,233.9609,235.4805,229.9609" style="stroke:#000000;stroke-width:1;"/><line style="stroke:#000000;stroke-width:1;" x1="233.4805" x2="390.7036" y1="229.9609" y2="229.9609"/><text fill="#000000" font-family="Arial" font-size="13" lengthAdjust="spacing" textLength="139.2231" x="245.4805" y="224.895">Authentication Token</text></g><g class="message" data-participant-1="Gateway" data-participant-2="API"><polygon fill="#000000" points="507.3755,255.0938,517.3755,259.0938,507.3755,263.0938,511.3755,259.0938" style="stroke:#000000;stroke-width:1;"/><line style="stroke:#000000;stroke-width:1;" x1="228.4805" x2="513.3755" y1="259.0938" y2="259.0938"/><text fill="#000000" font-family="Arial" font-size="13" lengthAdjust="spacing" textLength="127.9751" x="235.4805" y="254.0278">Authorized Request</text></g><g class="message" data-participant-1="API" data-participant-2="Gateway"><polygon fill="#000000" points="239.4805,284.2266,229.4805,288.2266,239.4805,292.2266,235.4805,288.2266" style="stroke:#000000;stroke-width:1;"/><line style="stroke:#000000;stroke-width:1;" x1="233.4805" x2="518.3755" y1="288.2266" y2="288.2266"/><text fill="#000000" font-family="Arial" font-size="13" lengthAdjust="spacing" textLength="63.0195" x="245.4805" y="283.1606">Response</text></g><g class="message" data-participant-1="Gateway" data-participant-2="Client"><polygon fill="#000000" points="44.2651,313.3594,34.2651,317.3594,44.2651,321.3594,40.2651,317.3594" style="stroke:#000000;stroke-width:1;"/><line style="stroke:#000000;stroke-width:1;" x1="38.2651" x2="227.4805" y1="317.3594" y2="317.3594"/><text fill="#000000" font-family="Arial" font-size="13" lengthAdjust="spacing" textLength="87.7183" x="50.2651" y="312.2935">API Response</text></g><!--SRC=[POz1JuGm48Nl_HKZL-CVu62oG3HSDcHNlS_2h4pejjWERlJNsy8Ye9TcqlUzUM_kfAKBGQ-HZV8TcnuTNk24TVVkx62Qt6hhuDgoq4flw8o3bYThP8_1d-mSeqwKmbe2dcic8ogmmZNtQ2GGLGdFA7J5hmJGp_CVQ90MZkG-kQQHYX__zso8gbGD2fxGXnwldXmKsQWKcL9J4tXudFFIQ803VGpa1UuXTzG48hJtweP4EkQcunl5EWXgx1Qa8alX3JM7KDhOYsnnZZrASxQ_jYL_MShMm8ljo6oYgtA2hEDlQkQkAlPUxpcGxwtnjFPEvyuttlGV]--></g></svg>