<svg xmlns="http://www.w3.org/2000/svg" xmlns:xlink="http://www.w3.org/1999/xlink" contentStyleType="text/css" data-diagram-type="SEQUENCE" height="533px" preserveAspectRatio="none" style="width:622px;height:533px;background:#FFFFFF;" version="1.1" viewBox="0 0 622 533" width="622px" zoomAndPan="magnify"><defs/><g><g><title>Client</title><rect fill="#000000" fill-opacity="0.00000" height="462.125" width="8" x="52.2651" y="36.2969"/><line style="stroke:#000000;stroke-width:1;" x1="56" x2="56" y1="36.2969" y2="498.4219"/></g><g><title>API Gateway</title><rect fill="#000000" fill-opacity="0.00000" height="462.125" width="8" x="300.1533" y="36.2969"/><line style="stroke:#000000;stroke-width:1;" x1="303.9316" x2="303.9316" y1="36.2969" y2="498.4219"/></g><g><title>Session Store</title><rect fill="#000000" fill-opacity="0.00000" height="462.125" width="8" x="435.9634" y="36.2969"/><line style="stroke:#000000;stroke-width:1;" x1="439.375" x2="439.375" y1="36.2969" y2="498.4219"/></g><g><title>API Service</title><rect fill="#000000" fill-opacity="0.00000" height="462.125" width="8" x="566.7217" y="36.2969"/><line style="stroke:#000000;stroke-width:1;" x1="570.5518" x2="570.5518" y1="36.2969" y2="498.4219"/></g><g class="participant participant-head" data-participant="Client"><rect fill="#FFFFFF" height="30.2969" rx="2.5" ry="2.5" style="stroke:#000000;stroke-width:1;" width="54.5303" x="29" y="5"/><text fill="#000000" font-family="Arial" font-size="14" lengthAdjust="spacing" textLength="40.5303" x="36" y="24.9951">Client</text></g><g class="participant participant-tail" data-participant="Client"><rect fill="#FFFFFF" height="30.2969" rx="2.5" ry="2.5" style="stroke:#000000;stroke-width:1;" width="54.5303" x="29" y="497.4219"/><text fill="#000000" font-family="Arial" font-size="14" lengthAdjust="spacing" textLength="40.5303" x="36" y="517.417">Client</text></g><g class="participant participant-head" data-participant="Gateway"><rect fill="#FFFFFF" height="30.2969" rx="2.5" ry="2.5" style="stroke:#000000;stroke-width:1;" width="102.4434" x="252.9316" y="5"/><text fill="#000000" font-family="Arial" font-size="14" lengthAdjust="spacing" textLength="88.4434" x="259.9316" y="24.9951">API Gateway</text></g><g class="participant participant-tail" data-participant="Gateway"><rect fill="#FFFFFF" height="30.2969" rx="2.5" ry="2.5" style="stroke:#000000;stroke-width:1;" width="102.4434" x="252.9316" y="497.4219"/><text fill="#000000" font-family="Arial" font-size="14" lengthAdjust="spacing" textLength="88.4434" x="259.9316" y="517.417">API Gateway</text></g><g class="participant participant-head" data-participant="Session"><rect fill="#FFFFFF" height="30.2969" rx="2.5" ry="2.5" style="stroke:#000000;stroke-width:1;" width="109.1768" x="385.375" y="5"/><text fill="#000000" font-family="Arial" font-size="14" lengthAdjust="spacing" textLength="95.1768" x="392.375" y="24.9951">Session Store</text></g><g class="participant participant-tail" data-participant="Session"><rect fill="#FFFFFF" height="30.2969" rx="2.5" ry="2.5" style="stroke:#000000;stroke-width:1;" width="109.1768" x="385.375" y="497.4219"/><text fill="#000000" font-family="Arial" font-size="14" lengthAdjust="spacing" textLength="95.1768" x="392.375" y="517.417">Session Store</text></g><g class="participant participant-head" data-participant="API"><rect fill="#FFFFFF" height="30.2969" rx="2.5" ry="2.5" style="stroke:#000000;stroke-width:1;" width="92.3398" x="524.5518" y="5"/><text fill="#000000" font-family="Arial" font-size="14" lengthAdjust="spacing" textLength="78.3398" x="531.5518" y="24.9951">API Service</text></g><g class="participant participant-tail" data-participant="API"><rect fill="#FFFFFF" height="30.2969" rx="2.5" ry="2.5" style="stroke:#000000;stroke-width:1;" width="92.3398" x="524.5518" y="497.4219"/><text fill="#000000" font-family="Arial" font-size="14" lengthAdjust="spacing" textLength="78.3398" x="531.5518" y="517.417">API Service</text></g><g class="message" data-participant-1="Client" data-participant-2="Gateway"><polygon fill="#000000" points="292.1533,63.4297,302.1533,67.4297,292.1533,71.4297,296.1533,67.4297" style="stroke:#000000;stroke-width:1;"/><line style="stroke:#000000;stroke-width:1;" x1="56.2651" x2="298.1533" y1="67.4297" y2="67.4297"/><text fill="#000000" font-family="Arial" font-size="13" lengthAdjust="spacing" textLength="92.8218" x="63.2651" y="62.3638">Login Request</text></g><g class="message" data-participant-1="Gateway" data-participant-2="Session"><polygon fill="#000000" points="427.9634,92.5625,437.9634,96.5625,427.9634,100.5625,431.9634,96.5625" style="stroke:#000000;stroke-width:1;"/><line style="stroke:#000000;stroke-width:1;" x1="304.1533" x2="433.9634" y1="96.5625" y2="96.5625"/><text fill="#000000" font-family="Arial" font-size="13" lengthAdjust="spacing" textLength="97.2144" x="311.1533" y="91.4966">Create Session</text></g><g class="message" data-participant-1="Session" data-participant-2="Gateway"><polygon fill="#000000" points="315.1533,121.6953,305.1533,125.6953,315.1533,129.6953,311.1533,125.6953" style="stroke:#000000;stroke-width:1;"/><line style="stroke:#000000;stroke-width:1;" x1="309.1533" x2="438.9634" y1="125.6953" y2="125.6953"/><text fill="#000000" font-family="Arial" font-size="13" lengthAdjust="spacing" textLength="67.5771" x="321.1533" y="120.6294">Session ID</text></g><g class="message" data-participant-1="Gateway" data-participant-2="Client"><polygon fill="#000000" points="67.2651,150.8281,57.2651,154.8281,67.2651,158.8281,63.2651,154.8281" style="stroke:#000000;stroke-width:1;"/><line style="stroke:#000000;stroke-width:1;" x1="61.2651" x2="303.1533" y1="154.8281" y2="154.8281"/><text fill="#000000" font-family="Arial" font-size="13" lengthAdjust="spacing" textLength="223.8882" x="73.2651" y="149.7622">Session Token (HTTP-Only Cookie)</text></g><path d="M10,167.8281 L10,192.8281 L351,192.8281 L351,177.8281 L341,167.8281 L10,167.8281" fill="#FFFFFF" style="stroke:#000000;stroke-width:1;"/><path d="M341,167.8281 L341,177.8281 L351,177.8281 L341,167.8281" fill="#FFFFFF" style="stroke:#000000;stroke-width:1;"/><text fill="#000000" font-family="Arial" font-size="13" lengthAdjust="spacing" textLength="166.334" x="93.0205" y="184.895">Subsequent API Requests</text><g class="message" data-participant-1="Client" data-participant-2="Gateway"><polygon fill="#000000" points="292.1533,215.0938,302.1533,219.0938,292.1533,223.0938,296.1533,219.0938" style="stroke:#000000;stroke-width:1;"/><line style="stroke:#000000;stroke-width:1;" x1="56.2651" x2="298.1533" y1="219.0938" y2="219.0938"/><text fill="#000000" font-family="Arial" font-size="13" lengthAdjust="spacing" textLength="195.1016" x="63.2651" y="214.0278">API Request + Session Cookie</text></g><g class="message" data-participant-1="Gateway" data-participant-2="Session"><polygon fill="#000000" points="427.9634,244.2266,437.9634,248.2266,427.9634,252.2266,431.9634,248.2266" style="stroke:#000000;stroke-width:1;"/><line style="stroke:#000000;stroke-width:1;" x1="304.1533" x2="433.9634" y1="248.2266" y2="248.2266"/><text fill="#000000" font-family="Arial" font-size="13" lengthAdjust="spacing" textLength="107.1294" x="311.1533" y="243.1606">Validate Session</text></g><g class="message" data-participant-1="Session" data-participant-2="Gateway"><polygon fill="#000000" points="315.1533,273.3594,305.1533,277.3594,315.1533,281.3594,311.1533,277.3594" style="stroke:#000000;stroke-width:1;"/><line style="stroke:#000000;stroke-width:1;" x1="309.1533" x2="438.9634" y1="277.3594" y2="277.3594"/><text fill="#000000" font-family="Arial" font-size="13" lengthAdjust="spacing" textLength="84.7729" x="321.1533" y="272.2935">Session Data</text></g><g class="message" data-participant-1="Gateway" data-participant-2="API"><polygon fill="#000000" points="558.7217,302.4922,568.7217,306.4922,558.7217,310.4922,562.7217,306.4922" style="stroke:#000000;stroke-width:1;"/><line style="stroke:#000000;stroke-width:1;" x1="304.1533" x2="564.7217" y1="306.4922" y2="306.4922"/><text fill="#000000" font-family="Arial" font-size="13" lengthAdjust="spacing" textLength="127.9751" x="311.1533" y="301.4263">Authorized Request</text></g><g class="message" data-participant-1="API" data-participant-2="Gateway"><polygon fill="#000000" points="315.1533,331.625,305.1533,335.625,315.1533,339.625,311.1533,335.625" style="stroke:#000000;stroke-width:1;"/><line style="stroke:#000000;stroke-width:1;" x1="309.1533" x2="569.7217" y1="335.625" y2="335.625"/><text fill="#000000" font-family="Arial" font-size="13" lengthAdjust="spacing" textLength="63.0195" x="321.1533" y="330.5591">Response</text></g><g class="message" data-participant-1="Gateway" data-participant-2="Client"><polygon fill="#000000" points="67.2651,360.7578,57.2651,364.7578,67.2651,368.7578,63.2651,364.7578" style="stroke:#000000;stroke-width:1;"/><line style="stroke:#000000;stroke-width:1;" x1="61.2651" x2="303.1533" y1="364.7578" y2="364.7578"/><text fill="#000000" font-family="Arial" font-size="13" lengthAdjust="spacing" textLength="87.7183" x="73.2651" y="359.6919">API Response</text></g><path d="M243,377.7578 L243,402.7578 L499,402.7578 L499,387.7578 L489,377.7578 L243,377.7578" fill="#FFFFFF" style="stroke:#000000;stroke-width:1;"/><path d="M489,377.7578 L489,387.7578 L499,387.7578 L489,377.7578" fill="#FFFFFF" style="stroke:#000000;stroke-width:1;"/><text fill="#000000" font-family="Arial" font-size="13" lengthAdjust="spacing" textLength="168.1431" x="282.7385" y="394.8247">Session Security Features</text><path d="M217,412.8906 L217,482.8906 L390,482.8906 L390,422.8906 L380,412.8906 L217,412.8906" fill="#FFFFFF" style="stroke:#000000;stroke-width:1;"/><path d="M380,412.8906 L380,422.8906 L390,422.8906 L380,412.8906" fill="#FFFFFF" style="stroke:#000000;stroke-width:1;"/><text fill="#000000" font-family="Arial" font-size="13" lengthAdjust="spacing" textLength="113.0771" x="223" y="429.9575">- CSRF Protection</text><text fill="#000000" font-family="Arial" font-size="13" lengthAdjust="spacing" textLength="108.8306" x="223" y="445.0903">- Secure Cookies</text><text fill="#000000" font-family="Arial" font-size="13" lengthAdjust="spacing" textLength="117.5078" x="223" y="460.2231">- Session Rotation</text><text fill="#000000" font-family="Arial" font-size="13" lengthAdjust="spacing" textLength="152.0962" x="223" y="475.356">- Timeout Management</text><!--SRC=[ZL9BRy8m3BxtLtWzRHhz0nmceI8sf3rGM-sqYsazY5hYBWyG-_KBIreomM6tnFvUTd9ZjhGZw3iKCj6ja3qgtC4QwtQZsCecvuuL7BR2KDHlw1DjPnOipIiwVZfJ0hiqILpRY5hqA0tadI1f_fJIsMe9ZsZeWCSKK0_dlw2Ij1OieJIiw1SMAfTQ9Qczg3t8tPF4cqBsC4XFuPatGa91NvQqIKBvX0YgKyWLkUheClZ78aDjEOyLlDkvMt5B4cwVgcgLlSdk23bpA-WkIIGx0zwJ2fn996tN-XJEnJwD58BggxD40BWVRRtBrT7UiHFDVuURey5OnRavIskshCGtDUCEJobYVa6wPwdfscfyuj2FrX2WatFKyTcfjagO8opSgrX5-f8rXGpoibZ0IhbMRHpjGsQUIM4TsbUyPi461rGbTiJMm0jAtBZVx_xe3m00]--></g></svg>