<svg xmlns="http://www.w3.org/2000/svg" xmlns:xlink="http://www.w3.org/1999/xlink" contentStyleType="text/css" data-diagram-type="DESCRIPTION" height="798px" preserveAspectRatio="none" style="width:596px;height:798px;background:#FFFFFF;" version="1.1" viewBox="0 0 596 798" width="596px" zoomAndPan="magnify"><defs/><g><!--cluster Client Layer--><g class="cluster" data-entity="Client Layer" data-source-line="5" data-uid="ent0002" id="cluster_Client Layer"><path d="M14.5,11 L110.2939,11 A3.75,3.75 0 0 1 112.7939,13.5 L119.7939,33.2969 L482.5,33.2969 A2.5,2.5 0 0 1 485,35.7969 L485,105.8 A2.5,2.5 0 0 1 482.5,108.3 L14.5,108.3 A2.5,2.5 0 0 1 12,105.8 L12,13.5 A2.5,2.5 0 0 1 14.5,11" fill="#FFFFFF" style="stroke:#000000;stroke-width:1;"/><line style="stroke:#000000;stroke-width:1;" x1="12" x2="119.7939" y1="33.2969" y2="33.2969"/><text fill="#000000" font-family="Arial" font-size="14" font-weight="bold" lengthAdjust="spacing" textLength="94.7939" x="16" y="25.9951">Client Layer</text></g><!--cluster Security Layer--><g class="cluster" data-entity="Security Layer" data-source-line="11" data-uid="ent0006" id="cluster_Security Layer"><path d="M186.5,132.3 L301.6328,132.3 A3.75,3.75 0 0 1 304.1328,134.8 L311.1328,154.5969 L357.5,154.5969 A2.5,2.5 0 0 1 360,157.0969 L360,545.99 A2.5,2.5 0 0 1 357.5,548.49 L186.5,548.49 A2.5,2.5 0 0 1 184,545.99 L184,134.8 A2.5,2.5 0 0 1 186.5,132.3" fill="#FFFFFF" style="stroke:#000000;stroke-width:1;"/><line style="stroke:#000000;stroke-width:1;" x1="184" x2="311.1328" y1="154.5969" y2="154.5969"/><text fill="#000000" font-family="Arial" font-size="14" font-weight="bold" lengthAdjust="spacing" textLength="114.1328" x="188" y="147.2951">Security Layer</text></g><!--cluster API Layer--><g class="cluster" data-entity="API Layer" data-source-line="18" data-uid="ent0011" id="cluster_API Layer"><path d="M13.5,572.49 L89.5723,572.49 A3.75,3.75 0 0 1 92.0723,574.99 L99.0723,594.7869 L537.5,594.7869 A2.5,2.5 0 0 1 540,597.2869 L540,667.28 A2.5,2.5 0 0 1 537.5,669.78 L13.5,669.78 A2.5,2.5 0 0 1 11,667.28 L11,574.99 A2.5,2.5 0 0 1 13.5,572.49" fill="#FFFFFF" style="stroke:#000000;stroke-width:1;"/><line style="stroke:#000000;stroke-width:1;" x1="11" x2="99.0723" y1="594.7869" y2="594.7869"/><text fill="#000000" font-family="Arial" font-size="14" font-weight="bold" lengthAdjust="spacing" textLength="75.0723" x="15" y="587.4851">API Layer</text></g><!--cluster Data Layer--><g class="cluster" data-entity="Data Layer" data-source-line="24" data-uid="ent0015" id="cluster_Data Layer"><path d="M44.5,693.78 L131.4756,693.78 A3.75,3.75 0 0 1 133.9756,696.28 L140.9756,716.0769 L586.5,716.0769 A2.5,2.5 0 0 1 589,718.5769 L589,788.58 A2.5,2.5 0 0 1 586.5,791.08 L44.5,791.08 A2.5,2.5 0 0 1 42,788.58 L42,696.28 A2.5,2.5 0 0 1 44.5,693.78" fill="#FFFFFF" style="stroke:#000000;stroke-width:1;"/><line style="stroke:#000000;stroke-width:1;" x1="42" x2="140.9756" y1="716.0769" y2="716.0769"/><text fill="#000000" font-family="Arial" font-size="14" font-weight="bold" lengthAdjust="spacing" textLength="85.9756" x="46" y="708.7751">Data Layer</text></g><!--entity Web App--><g class="entity" data-entity="Web App" data-source-line="6" data-uid="ent0003" id="entity_Web App"><rect fill="#FFFFFF" height="46.2969" rx="2.5" ry="2.5" style="stroke:#000000;stroke-width:1;" width="103.1436" x="365.43" y="46"/><rect fill="#FFFFFF" height="10" style="stroke:#000000;stroke-width:1;" width="15" x="448.5736" y="51"/><rect fill="#FFFFFF" height="2" style="stroke:#000000;stroke-width:1;" width="4" x="446.5736" y="53"/><rect fill="#FFFFFF" height="2" style="stroke:#000000;stroke-width:1;" width="4" x="446.5736" y="57"/><text fill="#000000" font-family="Arial" font-size="14" lengthAdjust="spacing" textLength="63.1436" x="380.43" y="78.9951">Web App</text></g><!--entity Mobile App--><g class="entity" data-entity="Mobile App" data-source-line="7" data-uid="ent0004" id="entity_Mobile App"><rect fill="#FFFFFF" height="46.2969" rx="2.5" ry="2.5" style="stroke:#000000;stroke-width:1;" width="117.7246" x="213.14" y="46"/><rect fill="#FFFFFF" height="10" style="stroke:#000000;stroke-width:1;" width="15" x="310.8646" y="51"/><rect fill="#FFFFFF" height="2" style="stroke:#000000;stroke-width:1;" width="4" x="308.8646" y="53"/><rect fill="#FFFFFF" height="2" style="stroke:#000000;stroke-width:1;" width="4" x="308.8646" y="57"/><text fill="#000000" font-family="Arial" font-size="14" lengthAdjust="spacing" textLength="77.7246" x="228.14" y="78.9951">Mobile App</text></g><!--entity Third-party App--><g class="entity" data-entity="Third-party App" data-source-line="8" data-uid="ent0005" id="entity_Third-party App"><rect fill="#FFFFFF" height="46.2969" rx="2.5" ry="2.5" style="stroke:#000000;stroke-width:1;" width="149.8057" x="28.1" y="46"/><rect fill="#FFFFFF" height="10" style="stroke:#000000;stroke-width:1;" width="15" x="157.9057" y="51"/><rect fill="#FFFFFF" height="2" style="stroke:#000000;stroke-width:1;" width="4" x="155.9057" y="53"/><rect fill="#FFFFFF" height="2" style="stroke:#000000;stroke-width:1;" width="4" x="155.9057" y="57"/><text fill="#000000" font-family="Arial" font-size="14" lengthAdjust="spacing" textLength="109.8057" x="43.1" y="78.9951">Third-party App</text></g><!--entity RL--><g class="entity" data-entity="RL" data-source-line="12" data-uid="ent0007" id="entity_RL"><rect fill="#FFFFFF" height="46.2969" rx="2.5" ry="2.5" style="stroke:#000000;stroke-width:1;" width="125.9346" x="209.03" y="167.3"/><rect fill="#FFFFFF" height="10" style="stroke:#000000;stroke-width:1;" width="15" x="314.9646" y="172.3"/><rect fill="#FFFFFF" height="2" style="stroke:#000000;stroke-width:1;" width="4" x="312.9646" y="174.3"/><rect fill="#FFFFFF" height="2" style="stroke:#000000;stroke-width:1;" width="4" x="312.9646" y="178.3"/><text fill="#000000" font-family="Arial" font-size="14" lengthAdjust="spacing" textLength="85.9346" x="224.03" y="200.2951">Rate Limiter</text></g><!--entity CORS--><g class="entity" data-entity="CORS" data-source-line="13" data-uid="ent0008" id="entity_CORS"><rect fill="#FFFFFF" height="46.2969" rx="2.5" ry="2.5" style="stroke:#000000;stroke-width:1;" width="138.9844" x="202.51" y="273.6"/><rect fill="#FFFFFF" height="10" style="stroke:#000000;stroke-width:1;" width="15" x="321.4944" y="278.6"/><rect fill="#FFFFFF" height="2" style="stroke:#000000;stroke-width:1;" width="4" x="319.4944" y="280.6"/><rect fill="#FFFFFF" height="2" style="stroke:#000000;stroke-width:1;" width="4" x="319.4944" y="284.6"/><text fill="#000000" font-family="Arial" font-size="14" lengthAdjust="spacing" textLength="98.9844" x="217.51" y="306.5951">CORS Handler</text></g><!--entity Auth--><g class="entity" data-entity="Auth" data-source-line="14" data-uid="ent0009" id="entity_Auth"><rect fill="#FFFFFF" height="46.2969" rx="2.5" ry="2.5" style="stroke:#000000;stroke-width:1;" width="142.7715" x="200.61" y="379.89"/><rect fill="#FFFFFF" height="10" style="stroke:#000000;stroke-width:1;" width="15" x="323.3815" y="384.89"/><rect fill="#FFFFFF" height="2" style="stroke:#000000;stroke-width:1;" width="4" x="321.3815" y="386.89"/><rect fill="#FFFFFF" height="2" style="stroke:#000000;stroke-width:1;" width="4" x="321.3815" y="390.89"/><text fill="#000000" font-family="Arial" font-size="14" lengthAdjust="spacing" textLength="102.7715" x="215.61" y="412.8851">Authentication</text></g><!--entity Validator--><g class="entity" data-entity="Validator" data-source-line="15" data-uid="ent0010" id="entity_Validator"><rect fill="#FFFFFF" height="46.2969" rx="2.5" ry="2.5" style="stroke:#000000;stroke-width:1;" width="143.9131" x="200.04" y="486.19"/><rect fill="#FFFFFF" height="10" style="stroke:#000000;stroke-width:1;" width="15" x="323.9531" y="491.19"/><rect fill="#FFFFFF" height="2" style="stroke:#000000;stroke-width:1;" width="4" x="321.9531" y="493.19"/><rect fill="#FFFFFF" height="2" style="stroke:#000000;stroke-width:1;" width="4" x="321.9531" y="497.19"/><text fill="#000000" font-family="Arial" font-size="14" lengthAdjust="spacing" textLength="103.9131" x="215.04" y="519.1851">Input Validator</text></g><!--entity User Controller--><g class="entity" data-entity="User Controller" data-source-line="19" data-uid="ent0012" id="entity_User Controller"><rect fill="#FFFFFF" height="46.2969" rx="2.5" ry="2.5" style="stroke:#000000;stroke-width:1;" width="145.5332" x="378.23" y="607.49"/><rect fill="#FFFFFF" height="10" style="stroke:#000000;stroke-width:1;" width="15" x="503.7632" y="612.49"/><rect fill="#FFFFFF" height="2" style="stroke:#000000;stroke-width:1;" width="4" x="501.7632" y="614.49"/><rect fill="#FFFFFF" height="2" style="stroke:#000000;stroke-width:1;" width="4" x="501.7632" y="618.49"/><text fill="#000000" font-family="Arial" font-size="14" lengthAdjust="spacing" textLength="105.5332" x="393.23" y="640.4851">User Controller</text></g><!--entity Post Controller--><g class="entity" data-entity="Post Controller" data-source-line="20" data-uid="ent0013" id="entity_Post Controller"><rect fill="#FFFFFF" height="46.2969" rx="2.5" ry="2.5" style="stroke:#000000;stroke-width:1;" width="143.4141" x="200.29" y="607.49"/><rect fill="#FFFFFF" height="10" style="stroke:#000000;stroke-width:1;" width="15" x="323.7041" y="612.49"/><rect fill="#FFFFFF" height="2" style="stroke:#000000;stroke-width:1;" width="4" x="321.7041" y="614.49"/><rect fill="#FFFFFF" height="2" style="stroke:#000000;stroke-width:1;" width="4" x="321.7041" y="618.49"/><text fill="#000000" font-family="Arial" font-size="14" lengthAdjust="spacing" textLength="103.4141" x="215.29" y="640.4851">Post Controller</text></g><!--entity File Controller--><g class="entity" data-entity="File Controller" data-source-line="21" data-uid="ent0014" id="entity_File Controller"><rect fill="#FFFFFF" height="46.2969" rx="2.5" ry="2.5" style="stroke:#000000;stroke-width:1;" width="138.0684" x="26.97" y="607.49"/><rect fill="#FFFFFF" height="10" style="stroke:#000000;stroke-width:1;" width="15" x="145.0384" y="612.49"/><rect fill="#FFFFFF" height="2" style="stroke:#000000;stroke-width:1;" width="4" x="143.0384" y="614.49"/><rect fill="#FFFFFF" height="2" style="stroke:#000000;stroke-width:1;" width="4" x="143.0384" y="618.49"/><text fill="#000000" font-family="Arial" font-size="14" lengthAdjust="spacing" textLength="98.0684" x="41.97" y="640.4851">File Controller</text></g><!--entity Session Store--><g class="entity" data-entity="Session Store" data-source-line="25" data-uid="ent0016" id="entity_Session Store"><rect fill="#FFFFFF" height="46.2969" rx="2.5" ry="2.5" style="stroke:#000000;stroke-width:1;" width="135.1768" x="437.41" y="728.78"/><rect fill="#FFFFFF" height="10" style="stroke:#000000;stroke-width:1;" width="15" x="552.5868" y="733.78"/><rect fill="#FFFFFF" height="2" style="stroke:#000000;stroke-width:1;" width="4" x="550.5868" y="735.78"/><rect fill="#FFFFFF" height="2" style="stroke:#000000;stroke-width:1;" width="4" x="550.5868" y="739.78"/><text fill="#000000" font-family="Arial" font-size="14" lengthAdjust="spacing" textLength="95.1768" x="452.41" y="761.7751">Session Store</text></g><!--entity User Database--><g class="entity" data-entity="User Database" data-source-line="26" data-uid="ent0017" id="entity_User Database"><rect fill="#FFFFFF" height="46.2969" rx="2.5" ry="2.5" style="stroke:#000000;stroke-width:1;" width="143.1611" x="259.42" y="728.78"/><rect fill="#FFFFFF" height="10" style="stroke:#000000;stroke-width:1;" width="15" x="382.5811" y="733.78"/><rect fill="#FFFFFF" height="2" style="stroke:#000000;stroke-width:1;" width="4" x="380.5811" y="735.78"/><rect fill="#FFFFFF" height="2" style="stroke:#000000;stroke-width:1;" width="4" x="380.5811" y="739.78"/><text fill="#000000" font-family="Arial" font-size="14" lengthAdjust="spacing" textLength="103.1611" x="274.42" y="761.7751">User Database</text></g><!--entity Content Database--><g class="entity" data-entity="Content Database" data-source-line="27" data-uid="ent0018" id="entity_Content Database"><rect fill="#FFFFFF" height="46.2969" rx="2.5" ry="2.5" style="stroke:#000000;stroke-width:1;" width="166.9297" x="57.54" y="728.78"/><rect fill="#FFFFFF" height="10" style="stroke:#000000;stroke-width:1;" width="15" x="204.4697" y="733.78"/><rect fill="#FFFFFF" height="2" style="stroke:#000000;stroke-width:1;" width="4" x="202.4697" y="735.78"/><rect fill="#FFFFFF" height="2" style="stroke:#000000;stroke-width:1;" width="4" x="202.4697" y="739.78"/><text fill="#000000" font-family="Arial" font-size="14" lengthAdjust="spacing" textLength="126.9297" x="72.54" y="761.7751">Content Database</text></g><!--link Web App to RL--><g class="link" data-entity-1="Web App" data-entity-2="RL" data-source-line="30" data-uid="lnk19" id="link_Web App_RL"><path d="M389.73,92.59 C363.8,113.92 329.6627,141.9971 303.7827,163.2971" fill="none" id="Web App-to-RL" style="stroke:#000000;stroke-width:1;"/><polygon fill="#000000" points="299.15,167.11,308.641,164.4792,303.0106,163.9326,303.5572,158.3022,299.15,167.11" style="stroke:#000000;stroke-width:1;"/></g><!--link Mobile App to RL--><g class="link" data-entity-1="Mobile App" data-entity-2="RL" data-source-line="31" data-uid="lnk20" id="link_Mobile App_RL"><path d="M272,92.59 C272,113.92 272,139.81 272,161.11" fill="none" id="Mobile App-to-RL" style="stroke:#000000;stroke-width:1;"/><polygon fill="#000000" points="272,167.11,276,158.11,272,162.11,268,158.11,272,167.11" style="stroke:#000000;stroke-width:1;"/></g><!--link Third-party App to RL--><g class="link" data-entity-1="Third-party App" data-entity-2="RL" data-source-line="32" data-uid="lnk21" id="link_Third-party App_RL"><path d="M134.79,92.59 C164.91,113.85 204.9985,142.1495 235.1685,163.4495" fill="none" id="Third-party App-to-RL" style="stroke:#000000;stroke-width:1;"/><polygon fill="#000000" points="240.07,166.91,235.0247,158.4516,235.9854,164.0263,230.4107,164.987,240.07,166.91" style="stroke:#000000;stroke-width:1;"/></g><!--link RL to CORS--><g class="link" data-entity-1="RL" data-entity-2="CORS" data-source-line="34" data-uid="lnk22" id="link_RL_CORS"><path d="M272,214.08 C272,231.57 272,249.67 272,267.16" fill="none" id="RL-to-CORS" style="stroke:#000000;stroke-width:1;"/><polygon fill="#000000" points="272,273.16,276,264.16,272,268.16,268,264.16,272,273.16" style="stroke:#000000;stroke-width:1;"/></g><!--link CORS to Auth--><g class="link" data-entity-1="CORS" data-entity-2="Auth" data-source-line="35" data-uid="lnk23" id="link_CORS_Auth"><path d="M272,320.37 C272,337.87 272,355.97 272,373.45" fill="none" id="CORS-to-Auth" style="stroke:#000000;stroke-width:1;"/><polygon fill="#000000" points="272,379.45,276,370.45,272,374.45,268,370.45,272,379.45" style="stroke:#000000;stroke-width:1;"/></g><!--link Auth to Validator--><g class="link" data-entity-1="Auth" data-entity-2="Validator" data-source-line="36" data-uid="lnk24" id="link_Auth_Validator"><path d="M272,426.67 C272,444.17 272,462.27 272,479.75" fill="none" id="Auth-to-Validator" style="stroke:#000000;stroke-width:1;"/><polygon fill="#000000" points="272,485.75,276,476.75,272,480.75,268,476.75,272,485.75" style="stroke:#000000;stroke-width:1;"/></g><!--link Validator to User Controller--><g class="link" data-entity-1="Validator" data-entity-2="User Controller" data-source-line="37" data-uid="lnk25" id="link_Validator_User Controller"><path d="M310.53,532.86 C326.35,542.35 344.73,553.67 361,564.49 C381.4,578.05 398.8893,590.6177 416.1893,603.4377" fill="none" id="Validator-to-User Controller" style="stroke:#000000;stroke-width:1;"/><polygon fill="#000000" points="421.01,607.01,416.1606,598.4378,416.9928,604.0331,411.3975,604.8653,421.01,607.01" style="stroke:#000000;stroke-width:1;"/></g><!--link Validator to Post Controller--><g class="link" data-entity-1="Validator" data-entity-2="Post Controller" data-source-line="38" data-uid="lnk26" id="link_Validator_Post Controller"><path d="M272,532.78 C272,554.11 272,580 272,601.3" fill="none" id="Validator-to-Post Controller" style="stroke:#000000;stroke-width:1;"/><polygon fill="#000000" points="272,607.3,276,598.3,272,602.3,268,598.3,272,607.3" style="stroke:#000000;stroke-width:1;"/></g><!--link Validator to File Controller--><g class="link" data-entity-1="Validator" data-entity-2="File Controller" data-source-line="39" data-uid="lnk27" id="link_Validator_File Controller"><path d="M233.38,532.73 C217.55,542.2 199.18,553.54 183,564.49 C162.99,578.02 145.9923,590.6372 129.2423,603.5472" fill="none" id="Validator-to-File Controller" style="stroke:#000000;stroke-width:1;"/><polygon fill="#000000" points="124.49,607.21,134.0603,604.884,128.4502,604.1577,129.1765,598.5476,124.49,607.21" style="stroke:#000000;stroke-width:1;"/></g><!--link User Controller to Session Store--><g class="link" data-entity-1="User Controller" data-entity-2="Session Store" data-source-line="41" data-uid="lnk28" id="link_User Controller_Session Store"><path d="M461.16,654.07 C470.81,675.4 482.7751,701.8342 492.4151,723.1242" fill="none" id="User Controller-to-Session Store" style="stroke:#000000;stroke-width:1;"/><polygon fill="#000000" points="494.89,728.59,494.8215,718.7414,492.8276,724.0352,487.5338,722.0412,494.89,728.59" style="stroke:#000000;stroke-width:1;"/></g><!--link User Controller to User Database--><g class="link" data-entity-1="User Controller" data-entity-2="User Database" data-source-line="42" data-uid="lnk29" id="link_User Controller_User Database"><path d="M428.43,654.07 C406.97,675.4 379.1455,703.0703 357.7255,724.3603" fill="none" id="User Controller-to-User Database" style="stroke:#000000;stroke-width:1;"/><polygon fill="#000000" points="353.47,728.59,362.6731,725.0825,357.0163,725.0652,357.0335,719.4084,353.47,728.59" style="stroke:#000000;stroke-width:1;"/></g><!--link Post Controller to Content Database--><g class="link" data-entity-1="Post Controller" data-entity-2="Content Database" data-source-line="43" data-uid="lnk30" id="link_Post Controller_Content Database"><path d="M247.36,654.07 C223.94,675.4 193.3463,703.2603 169.9663,724.5503" fill="none" id="Post Controller-to-Content Database" style="stroke:#000000;stroke-width:1;"/><polygon fill="#000000" points="165.53,728.59,174.8776,725.4879,169.2269,725.2236,169.4913,719.5729,165.53,728.59" style="stroke:#000000;stroke-width:1;"/></g><!--link File Controller to Content Database--><g class="link" data-entity-1="File Controller" data-entity-2="Content Database" data-source-line="44" data-uid="lnk31" id="link_File Controller_Content Database"><path d="M104.46,654.07 C112.51,675.4 122.4226,701.686 130.4526,722.976" fill="none" id="File Controller-to-Content Database" style="stroke:#000000;stroke-width:1;"/><polygon fill="#000000" points="132.57,728.59,133.1365,718.7574,130.8055,723.9117,125.6512,721.5807,132.57,728.59" style="stroke:#000000;stroke-width:1;"/></g><!--SRC=[TP3TJiCm38Nl-nHczti5fAfeObA1gUNd0kt2NSqMBKkgn1MQ4EzEd4BNDU8cYiznZftlXWzq8kWqAfFvep8TEZn1WxlZtjdUj8NLri7dGJ5D_9O-iDUyieOVCRnVv4wXNcHP5nxYFWY5LcGOIZoJMy1N1l3-HWtaNRUL-uDjbAQnV3uerov3Dfy7xNiILTEkToeuqx0AcQ1Kfx2Nsm9wg4gHYwUgXdiqhVwLHH0ZxyDF3QiTih8cMYA9jJPTp_2AMhN8TdWsLbURv9lrrH8ldXmK0OApMWQAjh6UvzfA_ZhLfg5to7YLMfFtOKUemtZQZdEahq4_A18cV2zYY1m9mt9vAq2cc4TjplhFoAeoNYEno56g24cEM5smZBUefoHcVa9bvYU4iYHoQ9p1-QTh1YmPFtIb49Cz_cly0G00]--></g></svg>