<svg xmlns="http://www.w3.org/2000/svg" xmlns:xlink="http://www.w3.org/1999/xlink" contentStyleType="text/css" data-diagram-type="SEQUENCE" height="745px" preserveAspectRatio="none" style="width:565px;height:745px;background:#FFFFFF;" version="1.1" viewBox="0 0 565 745" width="565px" zoomAndPan="magnify"><defs/><g><rect fill="#FFFFFF" height="309.3984" style="stroke:#000000;stroke-width:1;" width="486.0713" x="30" y="367.1875"/><rect fill="#FFFFFF" height="130.3359" style="stroke:none;stroke-width:1;" width="486.0713" x="30" y="546.25"/><g><title>Web Browser</title><rect fill="#000000" fill-opacity="0.00000" height="640.9922" width="8" x="99.416" y="52.5938"/><line style="stroke:#000000;stroke-width:1;" x1="103" x2="103" y1="52.5938" y2="693.5859"/></g><g><title>Client App</title><rect fill="#000000" fill-opacity="0.00000" height="640.9922" width="8" x="266.9531" y="52.5938"/><line style="stroke:#000000;stroke-width:1;" x1="270.0635" x2="270.0635" y1="52.5938" y2="693.5859"/></g><g><title>API Server</title><rect fill="#000000" fill-opacity="0.00000" height="640.9922" width="8" x="424.457" y="52.5938"/><line style="stroke:#000000;stroke-width:1;" x1="427.8428" x2="427.8428" y1="52.5938" y2="693.5859"/></g><g class="participant participant-head" data-participant="Browser"><rect fill="#FFFFFF" height="30.2969" rx="2.5" ry="2.5" style="stroke:#000000;stroke-width:1;" width="106.832" x="50" y="21.2969"/><text fill="#000000" font-family="Arial" font-size="14" lengthAdjust="spacing" textLength="92.832" x="57" y="41.292">Web Browser</text></g><g class="participant participant-tail" data-participant="Browser"><rect fill="#FFFFFF" height="30.2969" rx="2.5" ry="2.5" style="stroke:#000000;stroke-width:1;" width="106.832" x="50" y="692.5859"/><text fill="#000000" font-family="Arial" font-size="14" lengthAdjust="spacing" textLength="92.832" x="57" y="712.5811">Web Browser</text></g><g class="participant participant-head" data-participant="Client"><rect fill="#FFFFFF" height="46.5938" rx="2.5" ry="2.5" style="stroke:#000000;stroke-width:1;" width="119.7793" x="211.0635" y="5"/><text fill="#000000" font-family="Arial" font-size="14" lengthAdjust="spacing" textLength="72.3311" x="234.7876" y="24.9951">Client App</text><text fill="#000000" font-family="Arial" font-size="14" lengthAdjust="spacing" textLength="105.7793" x="218.0635" y="41.292">(example.com)</text></g><g class="participant participant-tail" data-participant="Client"><rect fill="#FFFFFF" height="46.5938" rx="2.5" ry="2.5" style="stroke:#000000;stroke-width:1;" width="119.7793" x="211.0635" y="692.5859"/><text fill="#000000" font-family="Arial" font-size="14" lengthAdjust="spacing" textLength="72.3311" x="234.7876" y="712.5811">Client App</text><text fill="#000000" font-family="Arial" font-size="14" lengthAdjust="spacing" textLength="105.7793" x="218.0635" y="728.8779">(example.com)</text></g><g class="participant participant-head" data-participant="API"><rect fill="#FFFFFF" height="46.5938" rx="2.5" ry="2.5" style="stroke:#000000;stroke-width:1;" width="135.2285" x="360.8428" y="5"/><text fill="#000000" font-family="Arial" font-size="14" lengthAdjust="spacing" textLength="72.5088" x="392.2026" y="24.9951">API Server</text><text fill="#000000" font-family="Arial" font-size="14" lengthAdjust="spacing" textLength="121.2285" x="367.8428" y="41.292">(api.service.com)</text></g><g class="participant participant-tail" data-participant="API"><rect fill="#FFFFFF" height="46.5938" rx="2.5" ry="2.5" style="stroke:#000000;stroke-width:1;" width="135.2285" x="360.8428" y="692.5859"/><text fill="#000000" font-family="Arial" font-size="14" lengthAdjust="spacing" textLength="72.5088" x="392.2026" y="712.5811">API Server</text><text fill="#000000" font-family="Arial" font-size="14" lengthAdjust="spacing" textLength="121.2285" x="367.8428" y="728.8779">(api.service.com)</text></g><g class="message" data-participant-1="Browser" data-participant-2="Client"><polygon fill="#000000" points="258.9531,79.7266,268.9531,83.7266,258.9531,87.7266,262.9531,83.7266" style="stroke:#000000;stroke-width:1;"/><line style="stroke:#000000;stroke-width:1;" x1="103.416" x2="264.9531" y1="83.7266" y2="83.7266"/><text fill="#000000" font-family="Arial" font-size="13" lengthAdjust="spacing" textLength="107.2563" x="110.416" y="78.6606">Load application</text></g><g class="message" data-participant-1="Client" data-participant-2="Browser"><polygon fill="#000000" points="114.416,123.9922,104.416,127.9922,114.416,131.9922,110.416,127.9922" style="stroke:#000000;stroke-width:1;"/><line style="stroke:#000000;stroke-width:1;" x1="108.416" x2="269.9531" y1="127.9922" y2="127.9922"/><text fill="#000000" font-family="Arial" font-size="13" lengthAdjust="spacing" textLength="130.4253" x="120.416" y="107.7935">Make API request to</text><text fill="#000000" font-family="Arial" font-size="13" lengthAdjust="spacing" textLength="96.8398" x="120.416" y="122.9263">different origin</text></g><path d="M10,140.9922 L10,165.9922 L197,165.9922 L197,150.9922 L187,140.9922 L10,140.9922" fill="#FFFFFF" style="stroke:#000000;stroke-width:1;"/><path d="M187,140.9922 L187,150.9922 L197,150.9922 L187,140.9922" fill="#FFFFFF" style="stroke:#000000;stroke-width:1;"/><text fill="#000000" font-family="Arial" font-size="13" lengthAdjust="spacing" textLength="166.9751" x="16" y="158.0591">Same-Origin Policy Check</text><g class="message" data-participant-1="Browser" data-participant-2="Browser"><line style="stroke:#000000;stroke-width:1;" x1="103.416" x2="145.416" y1="222.5234" y2="222.5234"/><line style="stroke:#000000;stroke-width:1;" x1="145.416" x2="145.416" y1="222.5234" y2="235.5234"/><line style="stroke:#000000;stroke-width:1;" x1="104.416" x2="145.416" y1="235.5234" y2="235.5234"/><polygon fill="#000000" points="114.416,231.5234,104.416,235.5234,114.416,239.5234,110.416,235.5234" style="stroke:#000000;stroke-width:1;"/><text fill="#000000" font-family="Arial" font-size="13" lengthAdjust="spacing" textLength="135.8843" x="110.416" y="187.1919">Origin: example.com</text><text fill="#000000" font-family="Arial" font-size="13" lengthAdjust="spacing" textLength="153.5371" x="110.416" y="202.3247">Target: api.service.com</text><text fill="#000000" font-family="Arial" font-size="13" lengthAdjust="spacing" textLength="120.7261" x="110.416" y="217.4575">(Different origins!)</text></g><g class="message" data-participant-1="Browser" data-participant-2="API"><polygon fill="#000000" points="416.457,290.9219,426.457,294.9219,416.457,298.9219,420.457,294.9219" style="stroke:#000000;stroke-width:1;"/><line style="stroke:#000000;stroke-width:1;" x1="103.416" x2="422.457" y1="294.9219" y2="294.9219"/><text fill="#000000" font-family="Arial" font-size="13" lengthAdjust="spacing" textLength="120.104" x="110.416" y="259.5903">Preflight REQUEST</text><text fill="#000000" font-family="Arial" font-size="13" lengthAdjust="spacing" textLength="120.0596" x="110.416" y="274.7231">OPTIONS /api/data</text><text fill="#000000" font-family="Arial" font-size="13" lengthAdjust="spacing" textLength="135.8843" x="110.416" y="289.856">Origin: example.com</text></g><g class="message" data-participant-1="API" data-participant-2="API"><line style="stroke:#000000;stroke-width:1;" x1="428.457" x2="470.457" y1="339.1875" y2="339.1875"/><line style="stroke:#000000;stroke-width:1;" x1="470.457" x2="470.457" y1="339.1875" y2="352.1875"/><line style="stroke:#000000;stroke-width:1;" x1="429.457" x2="470.457" y1="352.1875" y2="352.1875"/><polygon fill="#000000" points="439.457,348.1875,429.457,352.1875,439.457,356.1875,435.457,352.1875" style="stroke:#000000;stroke-width:1;"/><text fill="#000000" font-family="Arial" font-size="13" lengthAdjust="spacing" textLength="123.1191" x="435.457" y="318.9888">Check CORS policy</text><text fill="#000000" font-family="Arial" font-size="13" lengthAdjust="spacing" textLength="110.0874" x="435.457" y="334.1216">for example.com</text></g><path d="M30,367.1875 L94.4429,367.1875 L94.4429,374.3203 L84.4429,384.3203 L30,384.3203 L30,367.1875" fill="#FFFFFF" style="stroke:#000000;stroke-width:1;"/><rect fill="none" height="309.3984" style="stroke:#000000;stroke-width:1;" width="486.0713" x="30" y="367.1875"/><text fill="#000000" font-family="Arial" font-size="13" font-weight="bold" lengthAdjust="spacing" textLength="19.4429" x="45" y="380.2544">alt</text><text fill="#000000" font-family="Arial" font-size="11" font-weight="bold" lengthAdjust="spacing" textLength="96.8086" x="109.4429" y="379.3979">[CORS Allowed]</text><g class="message" data-participant-1="API" data-participant-2="Browser"><polygon fill="#000000" points="114.416,431.7188,104.416,435.7188,114.416,439.7188,110.416,435.7188" style="stroke:#000000;stroke-width:1;"/><line style="stroke:#000000;stroke-width:1;" x1="108.416" x2="427.457" y1="435.7188" y2="435.7188"/><text fill="#000000" font-family="Arial" font-size="13" lengthAdjust="spacing" textLength="47.7026" x="120.416" y="400.3872">200 OK</text><text fill="#000000" font-family="Arial" font-size="13" lengthAdjust="spacing" textLength="276.6689" x="120.416" y="415.52">Access-Control-Allow-Origin: example.com</text><text fill="#000000" font-family="Arial" font-size="13" lengthAdjust="spacing" textLength="273.584" x="120.416" y="430.6528">Access-Control-Allow-Methods: GET, POST</text></g><g class="message" data-participant-1="Browser" data-participant-2="API"><polygon fill="#000000" points="416.457,475.9844,426.457,479.9844,416.457,483.9844,420.457,479.9844" style="stroke:#000000;stroke-width:1;"/><line style="stroke:#000000;stroke-width:1;" x1="103.416" x2="422.457" y1="479.9844" y2="479.9844"/><text fill="#000000" font-family="Arial" font-size="13" lengthAdjust="spacing" textLength="106.4883" x="110.416" y="459.7856">Actual REQUEST</text><text fill="#000000" font-family="Arial" font-size="13" lengthAdjust="spacing" textLength="88.2324" x="110.416" y="474.9185">GET /api/data</text></g><g class="message" data-participant-1="API" data-participant-2="Browser"><polygon fill="#000000" points="114.416,505.1172,104.416,509.1172,114.416,513.1172,110.416,509.1172" style="stroke:#000000;stroke-width:1;"/><line style="stroke:#000000;stroke-width:1;" x1="108.416" x2="427.457" y1="509.1172" y2="509.1172"/><text fill="#000000" font-family="Arial" font-size="13" lengthAdjust="spacing" textLength="97.8999" x="120.416" y="504.0513">200 OK + Data</text></g><g class="message" data-participant-1="Browser" data-participant-2="Client"><polygon fill="#000000" points="258.9531,534.25,268.9531,538.25,258.9531,542.25,262.9531,538.25" style="stroke:#000000;stroke-width:1;"/><line style="stroke:#000000;stroke-width:1;" x1="103.416" x2="264.9531" y1="538.25" y2="538.25"/><text fill="#000000" font-family="Arial" font-size="13" lengthAdjust="spacing" textLength="115.7939" x="110.416" y="533.1841">Success response</text></g><line style="stroke:#000000;stroke-width:1;stroke-dasharray:2.0,2.0;" x1="30" x2="516.0713" y1="547.25" y2="547.25"/><text fill="#000000" font-family="Arial" font-size="11" font-weight="bold" lengthAdjust="spacing" textLength="91.228" x="35" y="557.4604">[CORS Denied]</text><g class="message" data-participant-1="API" data-participant-2="Browser"><polygon fill="#000000" points="114.416,593.3203,104.416,597.3203,114.416,601.3203,110.416,597.3203" style="stroke:#000000;stroke-width:1;"/><line style="stroke:#000000;stroke-width:1;" x1="108.416" x2="427.457" y1="597.3203" y2="597.3203"/><text fill="#000000" font-family="Arial" font-size="13" lengthAdjust="spacing" textLength="94.3262" x="120.416" y="577.1216">403 Forbidden</text><text fill="#000000" font-family="Arial" font-size="13" lengthAdjust="spacing" textLength="125.252" x="120.416" y="592.2544">(No CORS headers)</text></g><g class="message" data-participant-1="Browser" data-participant-2="Browser"><line style="stroke:#000000;stroke-width:1;" x1="103.416" x2="145.416" y1="626.4531" y2="626.4531"/><line style="stroke:#000000;stroke-width:1;" x1="145.416" x2="145.416" y1="626.4531" y2="639.4531"/><line style="stroke:#000000;stroke-width:1;" x1="104.416" x2="145.416" y1="639.4531" y2="639.4531"/><polygon fill="#000000" points="114.416,635.4531,104.416,639.4531,114.416,643.4531,110.416,639.4531" style="stroke:#000000;stroke-width:1;"/><text fill="#000000" font-family="Arial" font-size="13" lengthAdjust="spacing" textLength="98.6235" x="110.416" y="621.3872">Block response</text></g><g class="message" data-participant-1="Browser" data-participant-2="Client"><polygon fill="#000000" points="258.9531,664.5859,268.9531,668.5859,258.9531,672.5859,262.9531,668.5859" style="stroke:#000000;stroke-width:1;"/><line style="stroke:#000000;stroke-width:1;" x1="103.416" x2="264.9531" y1="668.5859" y2="668.5859"/><text fill="#000000" font-family="Arial" font-size="13" lengthAdjust="spacing" textLength="72.9282" x="110.416" y="663.52">CORS Error</text></g><!--SRC=[VL9BSzem4BxhLsmubMb9cBOd3frnW7GoRJ29wVJYos8jM8FGgf88xR_lOjwKb8iPx_TSxqsgQKdWBHgdui8uZm6NCCLgCG-yShhFbWEiQvFePAvfXYkR7jYb4Gg_bGM3jgMKZ9EfZ4UNeFMJfd0VU1qfj03Z_lyvg6yDoJFpldJlw3SklQNRYfVjXhATdZEoyICK55uf20EzkHNDLrETi0IXrCuDEbzsAZtupgW1lRUcmcJOgPsvG7Re7ZpXWZO24EZNYcA2nANJPZQZi85oC7DPbNAS25Wo79c5RAAJDtCOitZyWNvDrU8qoG6ynVNWf77f9XZc93alIadDmKM0UDC-QoY1Up0EDBDcNYTu6Jx_61QJqkNZoMC-Ak1E9Eyq9fHN_pehjIcybsb2Gpz_AS0tDKetaniumwDDMqHcBQz9Av3VJkJGyMEt2_ctqcLLHJ5s-d8jWMsdeNIkBk0gyebIpJhsuEjmyW76UJ5ft2xRPrLQeJrM5_Inzd_omNiOx15NRgPODPda7A9d5qcHZRJjFY1dtgZ-kVi97ZXCZTRavFkDU4kf2JM5sBvqEn3lBSlo3sPlX6gqXY5mKEIq-Wi0]--></g></svg>