<svg xmlns="http://www.w3.org/2000/svg" xmlns:xlink="http://www.w3.org/1999/xlink" contentStyleType="text/css" data-diagram-type="DESCRIPTION" height="346px" preserveAspectRatio="none" style="width:1855px;height:346px;background:#FFFFFF;" version="1.1" viewBox="0 0 1855 346" width="1855px" zoomAndPan="magnify"><defs/><g><!--cluster Grade Processing System--><g class="cluster" data-entity="Grade Processing System" data-source-line="1" data-uid="ent0002" id="cluster_Grade Processing System"><path d="M8.5,6 L210.9551,6 A3.75,3.75 0 0 1 213.4551,8.5 L220.4551,28.2969 L1845.5,28.2969 A2.5,2.5 0 0 1 1848,30.7969 L1848,337.39 A2.5,2.5 0 0 1 1845.5,339.89 L8.5,339.89 A2.5,2.5 0 0 1 6,337.39 L6,8.5 A2.5,2.5 0 0 1 8.5,6" fill="none" style="stroke:#000000;stroke-width:1.5;"/><line style="stroke:#000000;stroke-width:1.5;" x1="6" x2="220.4551" y1="28.2969" y2="28.2969"/><text fill="#000000" font-family="sans-serif" font-size="14" font-weight="bold" lengthAdjust="spacing" textLength="201.4551" x="10" y="20.9951">Grade Processing System</text></g><!--cluster Functions (Return Values)--><g class="cluster" data-entity="Functions (Return Values)" data-source-line="3" data-uid="ent0003" id="cluster_Functions (Return Values)"><rect fill="none" height="203.59" rx="2.5" ry="2.5" style="stroke:#181818;stroke-width:1;" width="553" x="30" y="112.3"/><text fill="#000000" font-family="sans-serif" font-size="14" font-weight="bold" lengthAdjust="spacing" textLength="206.4316" x="203.2842" y="127.2951">Functions (Return Values)</text></g><!--cluster Procedures (Perform Actions)--><g class="cluster" data-entity="Procedures (Perform Actions)" data-source-line="10" data-uid="ent0008" id="cluster_Procedures (Perform Actions)"><rect fill="none" height="97.29" rx="2.5" ry="2.5" style="stroke:#181818;stroke-width:1;" width="1217" x="607" y="112.3"/><text fill="#000000" font-family="sans-serif" font-size="14" font-weight="bold" lengthAdjust="spacing" textLength="234.2471" x="1098.3765" y="127.2951">Procedures (Perform Actions)</text></g><!--entity Main Program--><g class="entity" data-entity="Main Program" data-source-line="17" data-uid="ent0013" id="entity_Main Program"><rect fill="#F1F1F1" height="46.2969" rx="2.5" ry="2.5" style="stroke:#181818;stroke-width:0.5;" width="137.4941" x="818.25" y="41"/><rect fill="#F1F1F1" height="10" style="stroke:#181818;stroke-width:0.5;" width="15" x="935.7441" y="46"/><rect fill="#F1F1F1" height="2" style="stroke:#181818;stroke-width:0.5;" width="4" x="933.7441" y="48"/><rect fill="#F1F1F1" height="2" style="stroke:#181818;stroke-width:0.5;" width="4" x="933.7441" y="52"/><text fill="#000000" font-family="sans-serif" font-size="14" lengthAdjust="spacing" textLength="97.4941" x="833.25" y="73.9951">Main Program</text></g><!--entity CalculateAverage(scores)--><g class="entity" data-entity="CalculateAverage(scores)" data-source-line="4" data-uid="ent0004" id="entity_CalculateAverage(scores)"><rect fill="#F1F1F1" height="46.2969" rx="2.5" ry="2.5" style="stroke:#181818;stroke-width:0.5;" width="219.8398" x="347.08" y="147.3"/><rect fill="#F1F1F1" height="10" style="stroke:#181818;stroke-width:0.5;" width="15" x="546.9198" y="152.3"/><rect fill="#F1F1F1" height="2" style="stroke:#181818;stroke-width:0.5;" width="4" x="544.9198" y="154.3"/><rect fill="#F1F1F1" height="2" style="stroke:#181818;stroke-width:0.5;" width="4" x="544.9198" y="158.3"/><text fill="#000000" font-family="sans-serif" font-size="14" lengthAdjust="spacing" textLength="179.8398" x="362.08" y="180.2951">CalculateAverage(scores)</text></g><!--entity DetermineLetterGrade(average)--><g class="entity" data-entity="DetermineLetterGrade(average)" data-source-line="5" data-uid="ent0005" id="entity_DetermineLetterGrade(average)"><rect fill="#F1F1F1" height="46.2969" rx="2.5" ry="2.5" style="stroke:#181818;stroke-width:0.5;" width="266.9463" x="45.53" y="147.3"/><rect fill="#F1F1F1" height="10" style="stroke:#181818;stroke-width:0.5;" width="15" x="292.4763" y="152.3"/><rect fill="#F1F1F1" height="2" style="stroke:#181818;stroke-width:0.5;" width="4" x="290.4763" y="154.3"/><rect fill="#F1F1F1" height="2" style="stroke:#181818;stroke-width:0.5;" width="4" x="290.4763" y="158.3"/><text fill="#000000" font-family="sans-serif" font-size="14" lengthAdjust="spacing" textLength="226.9463" x="60.53" y="180.2951">DetermineLetterGrade(average)</text></g><!--entity CalculateGPA(letterGrade)--><g class="entity" data-entity="CalculateGPA(letterGrade)" data-source-line="6" data-uid="ent0006" id="entity_CalculateGPA(letterGrade)"><rect fill="#F1F1F1" height="46.2969" rx="2.5" ry="2.5" style="stroke:#181818;stroke-width:0.5;" width="225.7119" x="66.14" y="253.59"/><rect fill="#F1F1F1" height="10" style="stroke:#181818;stroke-width:0.5;" width="15" x="271.8519" y="258.59"/><rect fill="#F1F1F1" height="2" style="stroke:#181818;stroke-width:0.5;" width="4" x="269.8519" y="260.59"/><rect fill="#F1F1F1" height="2" style="stroke:#181818;stroke-width:0.5;" width="4" x="269.8519" y="264.59"/><text fill="#000000" font-family="sans-serif" font-size="14" lengthAdjust="spacing" textLength="185.7119" x="81.14" y="286.5851">CalculateGPA(letterGrade)</text></g><!--entity ValidateScore(score)--><g class="entity" data-entity="ValidateScore(score)" data-source-line="7" data-uid="ent0007" id="entity_ValidateScore(score)"><rect fill="#F1F1F1" height="46.2969" rx="2.5" ry="2.5" style="stroke:#181818;stroke-width:0.5;" width="185.8721" x="364.06" y="253.59"/><rect fill="#F1F1F1" height="10" style="stroke:#181818;stroke-width:0.5;" width="15" x="529.9321" y="258.59"/><rect fill="#F1F1F1" height="2" style="stroke:#181818;stroke-width:0.5;" width="4" x="527.9321" y="260.59"/><rect fill="#F1F1F1" height="2" style="stroke:#181818;stroke-width:0.5;" width="4" x="527.9321" y="264.59"/><text fill="#000000" font-family="sans-serif" font-size="14" lengthAdjust="spacing" textLength="145.8721" x="379.06" y="286.5851">ValidateScore(score)</text></g><!--entity DisplayStudentReport(student, grades)--><g class="entity" data-entity="DisplayStudentReport(student, grades)" data-source-line="11" data-uid="ent0009" id="entity_DisplayStudentReport(student, grades)"><rect fill="#F1F1F1" height="46.2969" rx="2.5" ry="2.5" style="stroke:#181818;stroke-width:0.5;" width="315.1123" x="1492.44" y="147.3"/><rect fill="#F1F1F1" height="10" style="stroke:#181818;stroke-width:0.5;" width="15" x="1787.5523" y="152.3"/><rect fill="#F1F1F1" height="2" style="stroke:#181818;stroke-width:0.5;" width="4" x="1785.5523" y="154.3"/><rect fill="#F1F1F1" height="2" style="stroke:#181818;stroke-width:0.5;" width="4" x="1785.5523" y="158.3"/><text fill="#000000" font-family="sans-serif" font-size="14" lengthAdjust="spacing" textLength="275.1123" x="1507.44" y="180.2951">DisplayStudentReport(student, grades)</text></g><!--entity SaveGradesToFile(filename, data)--><g class="entity" data-entity="SaveGradesToFile(filename, data)" data-source-line="12" data-uid="ent0010" id="entity_SaveGradesToFile(filename, data)"><rect fill="#F1F1F1" height="46.2969" rx="2.5" ry="2.5" style="stroke:#181818;stroke-width:0.5;" width="278.2871" x="1178.86" y="147.3"/><rect fill="#F1F1F1" height="10" style="stroke:#181818;stroke-width:0.5;" width="15" x="1437.1471" y="152.3"/><rect fill="#F1F1F1" height="2" style="stroke:#181818;stroke-width:0.5;" width="4" x="1435.1471" y="154.3"/><rect fill="#F1F1F1" height="2" style="stroke:#181818;stroke-width:0.5;" width="4" x="1435.1471" y="158.3"/><text fill="#000000" font-family="sans-serif" font-size="14" lengthAdjust="spacing" textLength="238.2871" x="1193.86" y="180.2951">SaveGradesToFile(filename, data)</text></g><!--entity PrintTranscript(student)--><g class="entity" data-entity="PrintTranscript(student)" data-source-line="13" data-uid="ent0011" id="entity_PrintTranscript(student)"><rect fill="#F1F1F1" height="46.2969" rx="2.5" ry="2.5" style="stroke:#181818;stroke-width:0.5;" width="207.665" x="936.17" y="147.3"/><rect fill="#F1F1F1" height="10" style="stroke:#181818;stroke-width:0.5;" width="15" x="1123.835" y="152.3"/><rect fill="#F1F1F1" height="2" style="stroke:#181818;stroke-width:0.5;" width="4" x="1121.835" y="154.3"/><rect fill="#F1F1F1" height="2" style="stroke:#181818;stroke-width:0.5;" width="4" x="1121.835" y="158.3"/><text fill="#000000" font-family="sans-serif" font-size="14" lengthAdjust="spacing" textLength="167.665" x="951.17" y="180.2951">PrintTranscript(student)</text></g><!--entity UpdateDatabase(student, grades)--><g class="entity" data-entity="UpdateDatabase(student, grades)" data-source-line="14" data-uid="ent0012" id="entity_UpdateDatabase(student, grades)"><rect fill="#F1F1F1" height="46.2969" rx="2.5" ry="2.5" style="stroke:#181818;stroke-width:0.5;" width="278.8613" x="622.57" y="147.3"/><rect fill="#F1F1F1" height="10" style="stroke:#181818;stroke-width:0.5;" width="15" x="881.4313" y="152.3"/><rect fill="#F1F1F1" height="2" style="stroke:#181818;stroke-width:0.5;" width="4" x="879.4313" y="154.3"/><rect fill="#F1F1F1" height="2" style="stroke:#181818;stroke-width:0.5;" width="4" x="879.4313" y="158.3"/><text fill="#000000" font-family="sans-serif" font-size="14" lengthAdjust="spacing" textLength="238.8613" x="637.57" y="180.2951">UpdateDatabase(student, grades)</text></g><!--link Main Program to CalculateAverage(scores)--><g class="link" data-entity-1="Main Program" data-entity-2="CalculateAverage(scores)" data-source-line="17" data-uid="lnk14" id="link_Main Program_CalculateAverage(scores)"><path d="M818.04,69.56 C760.7,74.47 677.4,84.48 607,104.3 C569.83,114.76 535.2113,129.8568 505.8713,144.1868" fill="none" id="Main Program-to-CalculateAverage(scores)" style="stroke:#181818;stroke-width:1;"/><polygon fill="#181818" points="500.48,146.82,510.3224,146.4644,504.9728,144.6257,506.8115,139.276,500.48,146.82" style="stroke:#181818;stroke-width:1;"/></g><!--link Main Program to DetermineLetterGrade(average)--><g class="link" data-entity-1="Main Program" data-entity-2="DetermineLetterGrade(average)" data-source-line="18" data-uid="lnk15" id="link_Main Program_DetermineLetterGrade(average)"><path d="M817.92,67.11 C689.92,71.21 420.66,82.23 330,104.3 C291.44,113.68 255.6026,129.3888 225.9926,144.2488" fill="none" id="Main Program-to-DetermineLetterGrade(average)" style="stroke:#181818;stroke-width:1;"/><polygon fill="#181818" points="220.63,146.94,230.468,146.4782,225.0988,144.6973,226.8797,139.3281,220.63,146.94" style="stroke:#181818;stroke-width:1;"/></g><!--link Main Program to DisplayStudentReport(student, grades)--><g class="link" data-entity-1="Main Program" data-entity-2="DisplayStudentReport(student, grades)" data-source-line="19" data-uid="lnk16" id="link_Main Program_DisplayStudentReport(student, grades)"><path d="M956.17,67.24 C1089.58,71.7 1377.84,83.44 1475,104.3 C1518.9,113.72 1561.0073,129.6415 1595.4773,144.4515" fill="none" id="Main Program-to-DisplayStudentReport(student, grades)" style="stroke:#181818;stroke-width:1;"/><polygon fill="#181818" points="1600.99,146.82,1594.2999,139.5921,1596.3961,144.8462,1591.1419,146.9423,1600.99,146.82" style="stroke:#181818;stroke-width:1;"/></g><!--link Main Program to SaveGradesToFile(filename, data)--><g class="link" data-entity-1="Main Program" data-entity-2="SaveGradesToFile(filename, data)" data-source-line="20" data-uid="lnk17" id="link_Main Program_SaveGradesToFile(filename, data)"><path d="M956.1,70.18 C1012.1,75.41 1092.65,85.55 1161,104.3 C1199.71,114.91 1236.1585,130.1021 1266.9185,144.3921" fill="none" id="Main Program-to-SaveGradesToFile(filename, data)" style="stroke:#181818;stroke-width:1;"/><polygon fill="#181818" points="1272.36,146.92,1265.8831,139.5005,1267.8254,144.8134,1262.5125,146.7558,1272.36,146.92" style="stroke:#181818;stroke-width:1;"/></g><!--link CalculateAverage(scores) to ValidateScore(score)--><g class="link" data-entity-1="CalculateAverage(scores)" data-entity-2="ValidateScore(score)" data-source-line="22" data-uid="lnk18" id="link_CalculateAverage(scores)_ValidateScore(score)"><path d="M457,194.08 C457,211.57 457,229.67 457,247.15" fill="none" id="CalculateAverage(scores)-to-ValidateScore(score)" style="stroke:#181818;stroke-width:1;"/><polygon fill="#181818" points="457,253.15,461,244.15,457,248.15,453,244.15,457,253.15" style="stroke:#181818;stroke-width:1;"/></g><!--link DetermineLetterGrade(average) to CalculateGPA(letterGrade)--><g class="link" data-entity-1="DetermineLetterGrade(average)" data-entity-2="CalculateGPA(letterGrade)" data-source-line="23" data-uid="lnk19" id="link_DetermineLetterGrade(average)_CalculateGPA(letterGrade)"><path d="M179,194.08 C179,211.57 179,229.67 179,247.15" fill="none" id="DetermineLetterGrade(average)-to-CalculateGPA(letterGrade)" style="stroke:#181818;stroke-width:1;"/><polygon fill="#181818" points="179,253.15,183,244.15,179,248.15,175,244.15,179,253.15" style="stroke:#181818;stroke-width:1;"/></g><!--SRC=[ZLB1QeD04Btx5KDEMqX-eI2LvDA2nBINaCDqdSYITLTcrq8e-VUEYWcaDjQ3AE_DUs_UReFwX1N1OiDO4kJiDOLWN0N5EKIg5_2T901CEgAhh13NhTFHU1T0RIcsxE03RKlXgQE2FFiNjBgr62dz8XPn5RHd8Hm6EAD8N1j7hnJbgpTME517pbLYawVAtdWZBfQc5BZeb0Vz7hhSXUttALjn1vKJ7ptNa0xnRtap4ngBvoAs9RcufSPpL67uMqBL-Lx35nAqJn9sVcqigQEy7DQq1Cc38ordu-AEqGNDfhcgZV1xquNFPE0J0qrwzPlitz2uxb04g0-mMZq_RdUAFrltvD1_AvaQdkyeUNHB1f6_JdXcdxkEVb-Vomy0]--></g></svg>