<svg xmlns="http://www.w3.org/2000/svg" xmlns:xlink="http://www.w3.org/1999/xlink" contentStyleType="text/css" data-diagram-type="DESCRIPTION" height="468px" preserveAspectRatio="none" style="width:2592px;height:468px;background:#FFFFFF;" version="1.1" viewBox="0 0 2592 468" width="2592px" zoomAndPan="magnify"><defs/><g><!--cluster Library Management System--><g class="cluster" data-entity="Library Management System" data-source-line="1" data-uid="ent0002" id="cluster_Library Management System"><path d="M8.5,6 L236.7402,6 A3.75,3.75 0 0 1 239.2402,8.5 L246.2402,28.2969 L2582.5,28.2969 A2.5,2.5 0 0 1 2585,30.7969 L2585,458.69 A2.5,2.5 0 0 1 2582.5,461.19 L8.5,461.19 A2.5,2.5 0 0 1 6,458.69 L6,8.5 A2.5,2.5 0 0 1 8.5,6" fill="none" style="stroke:#000000;stroke-width:1.5;"/><line style="stroke:#000000;stroke-width:1.5;" x1="6" x2="246.2402" y1="28.2969" y2="28.2969"/><text fill="#000000" font-family="sans-serif" font-size="14" font-weight="bold" lengthAdjust="spacing" textLength="227.2402" x="10" y="20.9951">Library Management System</text></g><!--cluster User Interface--><g class="cluster" data-entity="User Interface" data-source-line="4" data-uid="ent0004" id="cluster_User Interface"><path d="M32.5,112.3 L146.0742,112.3 A3.75,3.75 0 0 1 148.5742,114.8 L155.5742,134.5969 L980.5,134.5969 A2.5,2.5 0 0 1 983,137.0969 L983,434.69 A2.5,2.5 0 0 1 980.5,437.19 L32.5,437.19 A2.5,2.5 0 0 1 30,434.69 L30,114.8 A2.5,2.5 0 0 1 32.5,112.3" fill="none" style="stroke:#000000;stroke-width:1.5;"/><line style="stroke:#000000;stroke-width:1.5;" x1="30" x2="155.5742" y1="134.5969" y2="134.5969"/><text fill="#000000" font-family="sans-serif" font-size="14" font-weight="bold" lengthAdjust="spacing" textLength="112.5742" x="34" y="127.2951">User Interface</text></g><!--cluster Validation Functions--><g class="cluster" data-entity="Validation Functions" data-source-line="16" data-uid="ent0014" id="cluster_Validation Functions"><path d="M1009.5,112.3 L1173.0039,112.3 A3.75,3.75 0 0 1 1175.5039,114.8 L1182.5039,134.5969 L1682.5,134.5969 A2.5,2.5 0 0 1 1685,137.0969 L1685,207.1 A2.5,2.5 0 0 1 1682.5,209.6 L1009.5,209.6 A2.5,2.5 0 0 1 1007,207.1 L1007,114.8 A2.5,2.5 0 0 1 1009.5,112.3" fill="none" style="stroke:#000000;stroke-width:1.5;"/><line style="stroke:#000000;stroke-width:1.5;" x1="1007" x2="1182.5039" y1="134.5969" y2="134.5969"/><text fill="#000000" font-family="sans-serif" font-size="14" font-weight="bold" lengthAdjust="spacing" textLength="162.5039" x="1011" y="127.2951">Validation Functions</text></g><!--cluster Business Logic--><g class="cluster" data-entity="Business Logic" data-source-line="22" data-uid="ent0018" id="cluster_Business Logic"><path d="M1711.5,112.3 L1828.9297,112.3 A3.75,3.75 0 0 1 1831.4297,114.8 L1838.4297,134.5969 L2558.5,134.5969 A2.5,2.5 0 0 1 2561,137.0969 L2561,207.1 A2.5,2.5 0 0 1 2558.5,209.6 L1711.5,209.6 A2.5,2.5 0 0 1 1709,207.1 L1709,114.8 A2.5,2.5 0 0 1 1711.5,112.3" fill="none" style="stroke:#000000;stroke-width:1.5;"/><line style="stroke:#000000;stroke-width:1.5;" x1="1709" x2="1838.4297" y1="134.5969" y2="134.5969"/><text fill="#000000" font-family="sans-serif" font-size="14" font-weight="bold" lengthAdjust="spacing" textLength="116.4297" x="1713" y="127.2951">Business Logic</text></g><!--cluster Data Access--><g class="cluster" data-entity="Data Access" data-source-line="29" data-uid="ent0023" id="cluster_Data Access"><path d="M1610.5,233.6 L1707.1758,233.6 A3.75,3.75 0 0 1 1709.6758,236.1 L1716.6758,255.8969 L2432.5,255.8969 A2.5,2.5 0 0 1 2435,258.3969 L2435,328.39 A2.5,2.5 0 0 1 2432.5,330.89 L1610.5,330.89 A2.5,2.5 0 0 1 1608,328.39 L1608,236.1 A2.5,2.5 0 0 1 1610.5,233.6" fill="none" style="stroke:#000000;stroke-width:1.5;"/><line style="stroke:#000000;stroke-width:1.5;" x1="1608" x2="1716.6758" y1="255.8969" y2="255.8969"/><text fill="#000000" font-family="sans-serif" font-size="14" font-weight="bold" lengthAdjust="spacing" textLength="95.6758" x="1612" y="248.5951">Data Access</text></g><!--entity main--><g class="entity" data-entity="main" data-source-line="2" data-uid="ent0003" id="entity_main"><rect fill="#F1F1F1" height="46.2969" rx="2.5" ry="2.5" style="stroke:#181818;stroke-width:0.5;" width="147.0439" x="875.48" y="41"/><rect fill="#F1F1F1" height="10" style="stroke:#181818;stroke-width:0.5;" width="15" x="1002.5239" y="46"/><rect fill="#F1F1F1" height="2" style="stroke:#181818;stroke-width:0.5;" width="4" x="1000.5239" y="48"/><rect fill="#F1F1F1" height="2" style="stroke:#181818;stroke-width:0.5;" width="4" x="1000.5239" y="52"/><text fill="#000000" font-family="sans-serif" font-size="14" lengthAdjust="spacing" textLength="107.0439" x="890.48" y="73.9951">Main Controller</text></g><!--entity DisplayMainMenu()--><g class="entity" data-entity="DisplayMainMenu()" data-source-line="5" data-uid="ent0005" id="entity_DisplayMainMenu()"><rect fill="#F1F1F1" height="46.2969" rx="2.5" ry="2.5" style="stroke:#181818;stroke-width:0.5;" width="174.3877" x="236.81" y="147.3"/><rect fill="#F1F1F1" height="10" style="stroke:#181818;stroke-width:0.5;" width="15" x="391.1977" y="152.3"/><rect fill="#F1F1F1" height="2" style="stroke:#181818;stroke-width:0.5;" width="4" x="389.1977" y="154.3"/><rect fill="#F1F1F1" height="2" style="stroke:#181818;stroke-width:0.5;" width="4" x="389.1977" y="158.3"/><text fill="#000000" font-family="sans-serif" font-size="14" lengthAdjust="spacing" textLength="134.3877" x="251.81" y="180.2951">DisplayMainMenu()</text></g><!--entity GetUserChoice()--><g class="entity" data-entity="GetUserChoice()" data-source-line="6" data-uid="ent0006" id="entity_GetUserChoice()"><rect fill="#F1F1F1" height="46.2969" rx="2.5" ry="2.5" style="stroke:#181818;stroke-width:0.5;" width="155.1992" x="46.4" y="147.3"/><rect fill="#F1F1F1" height="10" style="stroke:#181818;stroke-width:0.5;" width="15" x="181.5992" y="152.3"/><rect fill="#F1F1F1" height="2" style="stroke:#181818;stroke-width:0.5;" width="4" x="179.5992" y="154.3"/><rect fill="#F1F1F1" height="2" style="stroke:#181818;stroke-width:0.5;" width="4" x="179.5992" y="158.3"/><text fill="#000000" font-family="sans-serif" font-size="14" lengthAdjust="spacing" textLength="115.1992" x="61.4" y="180.2951">GetUserChoice()</text></g><!--entity GetCardNumber()--><g class="entity" data-entity="GetCardNumber()" data-source-line="7" data-uid="ent0007" id="entity_GetCardNumber()"><rect fill="#F1F1F1" height="46.2969" rx="2.5" ry="2.5" style="stroke:#181818;stroke-width:0.5;" width="165.1113" x="446.44" y="147.3"/><rect fill="#F1F1F1" height="10" style="stroke:#181818;stroke-width:0.5;" width="15" x="591.5513" y="152.3"/><rect fill="#F1F1F1" height="2" style="stroke:#181818;stroke-width:0.5;" width="4" x="589.5513" y="154.3"/><rect fill="#F1F1F1" height="2" style="stroke:#181818;stroke-width:0.5;" width="4" x="589.5513" y="158.3"/><text fill="#000000" font-family="sans-serif" font-size="14" lengthAdjust="spacing" textLength="125.1113" x="461.44" y="180.2951">GetCardNumber()</text></g><!--entity GetBookID()--><g class="entity" data-entity="GetBookID()" data-source-line="8" data-uid="ent0008" id="entity_GetBookID()"><rect fill="#F1F1F1" height="46.2969" rx="2.5" ry="2.5" style="stroke:#181818;stroke-width:0.5;" width="125.627" x="646.19" y="147.3"/><rect fill="#F1F1F1" height="10" style="stroke:#181818;stroke-width:0.5;" width="15" x="751.817" y="152.3"/><rect fill="#F1F1F1" height="2" style="stroke:#181818;stroke-width:0.5;" width="4" x="749.817" y="154.3"/><rect fill="#F1F1F1" height="2" style="stroke:#181818;stroke-width:0.5;" width="4" x="749.817" y="158.3"/><text fill="#000000" font-family="sans-serif" font-size="14" lengthAdjust="spacing" textLength="85.627" x="661.19" y="180.2951">GetBookID()</text></g><!--entity GetSearchTerm()--><g class="entity" data-entity="GetSearchTerm()" data-source-line="9" data-uid="ent0009" id="entity_GetSearchTerm()"><rect fill="#F1F1F1" height="46.2969" rx="2.5" ry="2.5" style="stroke:#181818;stroke-width:0.5;" width="160.8389" x="806.58" y="147.3"/><rect fill="#F1F1F1" height="10" style="stroke:#181818;stroke-width:0.5;" width="15" x="947.4189" y="152.3"/><rect fill="#F1F1F1" height="2" style="stroke:#181818;stroke-width:0.5;" width="4" x="945.4189" y="154.3"/><rect fill="#F1F1F1" height="2" style="stroke:#181818;stroke-width:0.5;" width="4" x="945.4189" y="158.3"/><text fill="#000000" font-family="sans-serif" font-size="14" lengthAdjust="spacing" textLength="120.8389" x="821.58" y="180.2951">GetSearchTerm()</text></g><!--entity DisplaySuccessMessage()--><g class="entity" data-entity="DisplaySuccessMessage()" data-source-line="10" data-uid="ent0010" id="entity_DisplaySuccessMessage()"><rect fill="#F1F1F1" height="46.2969" rx="2.5" ry="2.5" style="stroke:#181818;stroke-width:0.5;" width="220.2432" x="301.88" y="268.6"/><rect fill="#F1F1F1" height="10" style="stroke:#181818;stroke-width:0.5;" width="15" x="502.1232" y="273.6"/><rect fill="#F1F1F1" height="2" style="stroke:#181818;stroke-width:0.5;" width="4" x="500.1232" y="275.6"/><rect fill="#F1F1F1" height="2" style="stroke:#181818;stroke-width:0.5;" width="4" x="500.1232" y="279.6"/><text fill="#000000" font-family="sans-serif" font-size="14" lengthAdjust="spacing" textLength="180.2432" x="316.88" y="301.5951">DisplaySuccessMessage()</text></g><!--entity DisplayErrorMessage()--><g class="entity" data-entity="DisplayErrorMessage()" data-source-line="11" data-uid="ent0011" id="entity_DisplayErrorMessage()"><rect fill="#F1F1F1" height="46.2969" rx="2.5" ry="2.5" style="stroke:#181818;stroke-width:0.5;" width="198.5664" x="556.72" y="268.6"/><rect fill="#F1F1F1" height="10" style="stroke:#181818;stroke-width:0.5;" width="15" x="735.2864" y="273.6"/><rect fill="#F1F1F1" height="2" style="stroke:#181818;stroke-width:0.5;" width="4" x="733.2864" y="275.6"/><rect fill="#F1F1F1" height="2" style="stroke:#181818;stroke-width:0.5;" width="4" x="733.2864" y="279.6"/><text fill="#000000" font-family="sans-serif" font-size="14" lengthAdjust="spacing" textLength="158.5664" x="571.72" y="301.5951">DisplayErrorMessage()</text></g><!--entity DisplayFineNotice()--><g class="entity" data-entity="DisplayFineNotice()" data-source-line="12" data-uid="ent0012" id="entity_DisplayFineNotice()"><rect fill="#F1F1F1" height="46.2969" rx="2.5" ry="2.5" style="stroke:#181818;stroke-width:0.5;" width="176.6846" x="790.66" y="268.6"/><rect fill="#F1F1F1" height="10" style="stroke:#181818;stroke-width:0.5;" width="15" x="947.3446" y="273.6"/><rect fill="#F1F1F1" height="2" style="stroke:#181818;stroke-width:0.5;" width="4" x="945.3446" y="275.6"/><rect fill="#F1F1F1" height="2" style="stroke:#181818;stroke-width:0.5;" width="4" x="945.3446" y="279.6"/><text fill="#000000" font-family="sans-serif" font-size="14" lengthAdjust="spacing" textLength="136.6846" x="805.66" y="301.5951">DisplayFineNotice()</text></g><!--entity DisplaySearchResults()--><g class="entity" data-entity="DisplaySearchResults()" data-source-line="13" data-uid="ent0013" id="entity_DisplaySearchResults()"><rect fill="#F1F1F1" height="46.2969" rx="2.5" ry="2.5" style="stroke:#181818;stroke-width:0.5;" width="202.1143" x="310.94" y="374.89"/><rect fill="#F1F1F1" height="10" style="stroke:#181818;stroke-width:0.5;" width="15" x="493.0543" y="379.89"/><rect fill="#F1F1F1" height="2" style="stroke:#181818;stroke-width:0.5;" width="4" x="491.0543" y="381.89"/><rect fill="#F1F1F1" height="2" style="stroke:#181818;stroke-width:0.5;" width="4" x="491.0543" y="385.89"/><text fill="#000000" font-family="sans-serif" font-size="14" lengthAdjust="spacing" textLength="162.1143" x="325.94" y="407.8851">DisplaySearchResults()</text></g><!--entity ValidateLibraryCard()--><g class="entity" data-entity="ValidateLibraryCard()" data-source-line="17" data-uid="ent0015" id="entity_ValidateLibraryCard()"><rect fill="#F1F1F1" height="46.2969" rx="2.5" ry="2.5" style="stroke:#181818;stroke-width:0.5;" width="190.377" x="1478.81" y="147.3"/><rect fill="#F1F1F1" height="10" style="stroke:#181818;stroke-width:0.5;" width="15" x="1649.187" y="152.3"/><rect fill="#F1F1F1" height="2" style="stroke:#181818;stroke-width:0.5;" width="4" x="1647.187" y="154.3"/><rect fill="#F1F1F1" height="2" style="stroke:#181818;stroke-width:0.5;" width="4" x="1647.187" y="158.3"/><text fill="#000000" font-family="sans-serif" font-size="14" lengthAdjust="spacing" textLength="150.377" x="1493.81" y="180.2951">ValidateLibraryCard()</text></g><!--entity CheckBookAvailability()--><g class="entity" data-entity="CheckBookAvailability()" data-source-line="18" data-uid="ent0016" id="entity_CheckBookAvailability()"><rect fill="#F1F1F1" height="46.2969" rx="2.5" ry="2.5" style="stroke:#181818;stroke-width:0.5;" width="205.9629" x="1238.02" y="147.3"/><rect fill="#F1F1F1" height="10" style="stroke:#181818;stroke-width:0.5;" width="15" x="1423.9829" y="152.3"/><rect fill="#F1F1F1" height="2" style="stroke:#181818;stroke-width:0.5;" width="4" x="1421.9829" y="154.3"/><rect fill="#F1F1F1" height="2" style="stroke:#181818;stroke-width:0.5;" width="4" x="1421.9829" y="158.3"/><text fill="#000000" font-family="sans-serif" font-size="14" lengthAdjust="spacing" textLength="165.9629" x="1253.02" y="180.2951">CheckBookAvailability()</text></g><!--entity FindBorrowRecord()--><g class="entity" data-entity="FindBorrowRecord()" data-source-line="19" data-uid="ent0017" id="entity_FindBorrowRecord()"><rect fill="#F1F1F1" height="46.2969" rx="2.5" ry="2.5" style="stroke:#181818;stroke-width:0.5;" width="179.5693" x="1023.22" y="147.3"/><rect fill="#F1F1F1" height="10" style="stroke:#181818;stroke-width:0.5;" width="15" x="1182.7893" y="152.3"/><rect fill="#F1F1F1" height="2" style="stroke:#181818;stroke-width:0.5;" width="4" x="1180.7893" y="154.3"/><rect fill="#F1F1F1" height="2" style="stroke:#181818;stroke-width:0.5;" width="4" x="1180.7893" y="158.3"/><text fill="#000000" font-family="sans-serif" font-size="14" lengthAdjust="spacing" textLength="139.5693" x="1038.22" y="180.2951">FindBorrowRecord()</text></g><!--entity ProcessBookBorrowing()--><g class="entity" data-entity="ProcessBookBorrowing()" data-source-line="23" data-uid="ent0019" id="entity_ProcessBookBorrowing()"><rect fill="#F1F1F1" height="46.2969" rx="2.5" ry="2.5" style="stroke:#181818;stroke-width:0.5;" width="210.7754" x="2334.61" y="147.3"/><rect fill="#F1F1F1" height="10" style="stroke:#181818;stroke-width:0.5;" width="15" x="2525.3854" y="152.3"/><rect fill="#F1F1F1" height="2" style="stroke:#181818;stroke-width:0.5;" width="4" x="2523.3854" y="154.3"/><rect fill="#F1F1F1" height="2" style="stroke:#181818;stroke-width:0.5;" width="4" x="2523.3854" y="158.3"/><text fill="#000000" font-family="sans-serif" font-size="14" lengthAdjust="spacing" textLength="170.7754" x="2349.61" y="180.2951">ProcessBookBorrowing()</text></g><!--entity ProcessBookReturn()--><g class="entity" data-entity="ProcessBookReturn()" data-source-line="24" data-uid="ent0020" id="entity_ProcessBookReturn()"><rect fill="#F1F1F1" height="46.2969" rx="2.5" ry="2.5" style="stroke:#181818;stroke-width:0.5;" width="186.7607" x="2112.62" y="147.3"/><rect fill="#F1F1F1" height="10" style="stroke:#181818;stroke-width:0.5;" width="15" x="2279.3807" y="152.3"/><rect fill="#F1F1F1" height="2" style="stroke:#181818;stroke-width:0.5;" width="4" x="2277.3807" y="154.3"/><rect fill="#F1F1F1" height="2" style="stroke:#181818;stroke-width:0.5;" width="4" x="2277.3807" y="158.3"/><text fill="#000000" font-family="sans-serif" font-size="14" lengthAdjust="spacing" textLength="146.7607" x="2127.62" y="180.2951">ProcessBookReturn()</text></g><!--entity CalculateLateFine()--><g class="entity" data-entity="CalculateLateFine()" data-source-line="25" data-uid="ent0021" id="entity_CalculateLateFine()"><rect fill="#F1F1F1" height="46.2969" rx="2.5" ry="2.5" style="stroke:#181818;stroke-width:0.5;" width="176.2197" x="1901.89" y="147.3"/><rect fill="#F1F1F1" height="10" style="stroke:#181818;stroke-width:0.5;" width="15" x="2058.1097" y="152.3"/><rect fill="#F1F1F1" height="2" style="stroke:#181818;stroke-width:0.5;" width="4" x="2056.1097" y="154.3"/><rect fill="#F1F1F1" height="2" style="stroke:#181818;stroke-width:0.5;" width="4" x="2056.1097" y="158.3"/><text fill="#000000" font-family="sans-serif" font-size="14" lengthAdjust="spacing" textLength="136.2197" x="1916.89" y="180.2951">CalculateLateFine()</text></g><!--entity SearchBooks()--><g class="entity" data-entity="SearchBooks()" data-source-line="26" data-uid="ent0022" id="entity_SearchBooks()"><rect fill="#F1F1F1" height="46.2969" rx="2.5" ry="2.5" style="stroke:#181818;stroke-width:0.5;" width="141.4658" x="1725.27" y="147.3"/><rect fill="#F1F1F1" height="10" style="stroke:#181818;stroke-width:0.5;" width="15" x="1846.7358" y="152.3"/><rect fill="#F1F1F1" height="2" style="stroke:#181818;stroke-width:0.5;" width="4" x="1844.7358" y="154.3"/><rect fill="#F1F1F1" height="2" style="stroke:#181818;stroke-width:0.5;" width="4" x="1844.7358" y="158.3"/><text fill="#000000" font-family="sans-serif" font-size="14" lengthAdjust="spacing" textLength="101.4658" x="1740.27" y="180.2951">SearchBooks()</text></g><!--entity ReadCardData()--><g class="entity" data-entity="ReadCardData()" data-source-line="30" data-uid="ent0024" id="entity_ReadCardData()"><rect fill="#F1F1F1" height="46.2969" rx="2.5" ry="2.5" style="stroke:#181818;stroke-width:0.5;" width="153.1553" x="1814.42" y="268.6"/><rect fill="#F1F1F1" height="10" style="stroke:#181818;stroke-width:0.5;" width="15" x="1947.5753" y="273.6"/><rect fill="#F1F1F1" height="2" style="stroke:#181818;stroke-width:0.5;" width="4" x="1945.5753" y="275.6"/><rect fill="#F1F1F1" height="2" style="stroke:#181818;stroke-width:0.5;" width="4" x="1945.5753" y="279.6"/><text fill="#000000" font-family="sans-serif" font-size="14" lengthAdjust="spacing" textLength="113.1553" x="1829.42" y="301.5951">ReadCardData()</text></g><!--entity ReadBookData()--><g class="entity" data-entity="ReadBookData()" data-source-line="31" data-uid="ent0025" id="entity_ReadBookData()"><rect fill="#F1F1F1" height="46.2969" rx="2.5" ry="2.5" style="stroke:#181818;stroke-width:0.5;" width="155.001" x="1624.5" y="268.6"/><rect fill="#F1F1F1" height="10" style="stroke:#181818;stroke-width:0.5;" width="15" x="1759.501" y="273.6"/><rect fill="#F1F1F1" height="2" style="stroke:#181818;stroke-width:0.5;" width="4" x="1757.501" y="275.6"/><rect fill="#F1F1F1" height="2" style="stroke:#181818;stroke-width:0.5;" width="4" x="1757.501" y="279.6"/><text fill="#000000" font-family="sans-serif" font-size="14" lengthAdjust="spacing" textLength="115.001" x="1639.5" y="301.5951">ReadBookData()</text></g><!--entity UpdateBorrowRecord()--><g class="entity" data-entity="UpdateBorrowRecord()" data-source-line="32" data-uid="ent0026" id="entity_UpdateBorrowRecord()"><rect fill="#F1F1F1" height="46.2969" rx="2.5" ry="2.5" style="stroke:#181818;stroke-width:0.5;" width="200.5693" x="2218.72" y="268.6"/><rect fill="#F1F1F1" height="10" style="stroke:#181818;stroke-width:0.5;" width="15" x="2399.2893" y="273.6"/><rect fill="#F1F1F1" height="2" style="stroke:#181818;stroke-width:0.5;" width="4" x="2397.2893" y="275.6"/><rect fill="#F1F1F1" height="2" style="stroke:#181818;stroke-width:0.5;" width="4" x="2397.2893" y="279.6"/><text fill="#000000" font-family="sans-serif" font-size="14" lengthAdjust="spacing" textLength="160.5693" x="2233.72" y="301.5951">UpdateBorrowRecord()</text></g><!--entity UpdateBookStatus()--><g class="entity" data-entity="UpdateBookStatus()" data-source-line="33" data-uid="ent0027" id="entity_UpdateBookStatus()"><rect fill="#F1F1F1" height="46.2969" rx="2.5" ry="2.5" style="stroke:#181818;stroke-width:0.5;" width="181.0801" x="2002.46" y="268.6"/><rect fill="#F1F1F1" height="10" style="stroke:#181818;stroke-width:0.5;" width="15" x="2163.5401" y="273.6"/><rect fill="#F1F1F1" height="2" style="stroke:#181818;stroke-width:0.5;" width="4" x="2161.5401" y="275.6"/><rect fill="#F1F1F1" height="2" style="stroke:#181818;stroke-width:0.5;" width="4" x="2161.5401" y="279.6"/><text fill="#000000" font-family="sans-serif" font-size="14" lengthAdjust="spacing" textLength="141.0801" x="2017.46" y="301.5951">UpdateBookStatus()</text></g><!--link main to DisplayMainMenu()--><g class="link" data-entity-1="main" data-entity-2="DisplayMainMenu()" data-source-line="37" data-uid="lnk28" id="link_main_DisplayMainMenu()"><path d="M875.06,66.4 C751.78,69.19 509.8,77.95 429,104.3 C400.65,113.54 376.9543,128.3926 356.8043,143.2926" fill="none" id="main-to-DisplayMainMenu()" style="stroke:#181818;stroke-width:1;"/><polygon fill="#181818" points="351.98,146.86,361.5947,144.7252,356.0003,143.8872,356.8382,138.2928,351.98,146.86" style="stroke:#181818;stroke-width:1;"/></g><!--link main to GetUserChoice()--><g class="link" data-entity-1="main" data-entity-2="GetUserChoice()" data-source-line="38" data-uid="lnk29" id="link_main_GetUserChoice()"><path d="M875.29,66.84 C702.24,71.14 279.92,83.61 219,104.3 C192.49,113.3 171.1683,128.0976 153.1183,143.1476" fill="none" id="main-to-GetUserChoice()" style="stroke:#181818;stroke-width:1;"/><polygon fill="#181818" points="148.51,146.99,157.984,144.2986,152.3502,143.788,152.8608,138.1543,148.51,146.99" style="stroke:#181818;stroke-width:1;"/></g><!--link main to ValidateLibraryCard()--><g class="link" data-entity-1="main" data-entity-2="ValidateLibraryCard()" data-source-line="39" data-uid="lnk30" id="link_main_ValidateLibraryCard()"><path d="M1022.69,66.77 C1144.24,70.12 1381.25,79.66 1461,104.3 C1491.07,113.59 1516.8436,128.6185 1538.6536,143.4985" fill="none" id="main-to-ValidateLibraryCard()" style="stroke:#181818;stroke-width:1;"/><polygon fill="#181818" points="1543.61,146.88,1538.4298,138.5035,1539.4797,144.0621,1533.9211,145.112,1543.61,146.88" style="stroke:#181818;stroke-width:1;"/></g><!--link main to ProcessBookBorrowing()--><g class="link" data-entity-1="main" data-entity-2="ProcessBookBorrowing()" data-source-line="40" data-uid="lnk31" id="link_main_ProcessBookBorrowing()"><path d="M1022.66,65.3 C1288.85,66.11 2191.86,71.3 2317,104.3 C2349.83,112.96 2378.6077,128.5193 2402.4677,143.6993" fill="none" id="main-to-ProcessBookBorrowing()" style="stroke:#181818;stroke-width:1;"/><polygon fill="#181818" points="2407.53,146.92,2402.0837,138.7141,2403.3114,144.2361,2397.7894,145.4638,2407.53,146.92" style="stroke:#181818;stroke-width:1;"/></g><!--link ValidateLibraryCard() to ReadCardData()--><g class="link" data-entity-1="ValidateLibraryCard()" data-entity-2="ReadCardData()" data-source-line="42" data-uid="lnk32" id="link_ValidateLibraryCard()_ReadCardData()"><path d="M1630.3,194.05 C1654.2,202.77 1682.59,211.97 1709,217.6 C1747.41,225.78 1760.09,212.19 1797,225.6 C1822.94,235.02 1843.8043,249.5765 1861.6843,264.4265" fill="none" id="ValidateLibraryCard()-to-ReadCardData()" style="stroke:#181818;stroke-width:1;"/><polygon fill="#181818" points="1866.3,268.26,1861.9322,259.4327,1862.4536,265.0654,1856.8208,265.5869,1866.3,268.26" style="stroke:#181818;stroke-width:1;"/></g><!--link CheckBookAvailability() to ReadBookData()--><g class="link" data-entity-1="CheckBookAvailability()" data-entity-2="ReadBookData()" data-source-line="43" data-uid="lnk33" id="link_CheckBookAvailability()_ReadBookData()"><path d="M1397.16,194.01 C1417.19,201.8 1440,210.38 1461,217.6 C1515.07,236.17 1571.0101,253.1696 1618.4501,267.0096" fill="none" id="CheckBookAvailability()-to-ReadBookData()" style="stroke:#181818;stroke-width:1;"/><polygon fill="#181818" points="1624.21,268.69,1616.6904,262.3295,1619.4101,267.2897,1614.4499,270.0094,1624.21,268.69" style="stroke:#181818;stroke-width:1;"/></g><!--link ProcessBookBorrowing() to UpdateBorrowRecord()--><g class="link" data-entity-1="ProcessBookBorrowing()" data-entity-2="UpdateBorrowRecord()" data-source-line="44" data-uid="lnk34" id="link_ProcessBookBorrowing()_UpdateBorrowRecord()"><path d="M2417.24,193.89 C2395.61,215.22 2367.5322,242.8971 2345.9322,264.1971" fill="none" id="ProcessBookBorrowing()-to-UpdateBorrowRecord()" style="stroke:#181818;stroke-width:1;"/><polygon fill="#181818" points="2341.66,268.41,2350.8769,264.9388,2345.2202,264.8993,2345.2597,259.2426,2341.66,268.41" style="stroke:#181818;stroke-width:1;"/></g><!--link ProcessBookBorrowing() to UpdateBookStatus()--><g class="link" data-entity-1="ProcessBookBorrowing()" data-entity-2="UpdateBookStatus()" data-source-line="45" data-uid="lnk35" id="link_ProcessBookBorrowing()_UpdateBookStatus()"><path d="M2389.83,194.04 C2367.91,202.92 2341.63,212.25 2317,217.6 C2266.5,228.57 2250.28,210.04 2201,225.6 C2171.98,234.76 2147.5022,249.6784 2126.7422,264.5984" fill="none" id="ProcessBookBorrowing()-to-UpdateBookStatus()" style="stroke:#181818;stroke-width:1;"/><polygon fill="#181818" points="2121.87,268.1,2131.5128,266.0957,2125.9302,265.182,2126.8439,259.5994,2121.87,268.1" style="stroke:#181818;stroke-width:1;"/></g><!--link ProcessBookReturn() to UpdateBorrowRecord()--><g class="link" data-entity-1="ProcessBookReturn()" data-entity-2="UpdateBorrowRecord()" data-source-line="46" data-uid="lnk36" id="link_ProcessBookReturn()_UpdateBorrowRecord()"><path d="M2227.25,193.89 C2247.46,215.22 2273.5445,242.7534 2293.7145,264.0534" fill="none" id="ProcessBookReturn()-to-UpdateBorrowRecord()" style="stroke:#181818;stroke-width:1;"/><polygon fill="#181818" points="2297.84,268.41,2294.5562,259.1247,2294.4021,264.7795,2288.7473,264.6254,2297.84,268.41" style="stroke:#181818;stroke-width:1;"/></g><!--link ProcessBookReturn() to UpdateBookStatus()--><g class="link" data-entity-1="ProcessBookReturn()" data-entity-2="UpdateBookStatus()" data-source-line="47" data-uid="lnk37" id="link_ProcessBookReturn()_UpdateBookStatus()"><path d="M2184.75,193.89 C2164.54,215.22 2138.4555,242.7534 2118.2855,264.0534" fill="none" id="ProcessBookReturn()-to-UpdateBookStatus()" style="stroke:#181818;stroke-width:1;"/><polygon fill="#181818" points="2114.16,268.41,2123.2527,264.6254,2117.5979,264.7795,2117.4438,259.1247,2114.16,268.41" style="stroke:#181818;stroke-width:1;"/></g><!--SRC=[ZLBBRi8m4Bpp5HQdzi0lL89Ggag0ggJqKd5Od2rOE7RaHwkewh_NIy0nZqWSB2KxdfdTyTR0zx15DfoBZG7Ji0Mey5-XSgnehCDgo7u7Z7qkG2YMQUMCbXBDce5bLQWD0bYVH5OM3NjL3iqNS6oPWJiLjfRGaCG2bNzuNBVr5tJ4o7PQS4oh6PXowQiDchGwqNh_Eaqh1OBXktSqLQmUlGhFELgx22TqTea-6wDD3pOJ2fVQfHsTD0zkELeldMt1lxFnFq2A4fpGYisyulHXOmX748z1quZH8DiXtzDuusyG4ZP22jT4D7HKJdHe-IT7ha-qS-k9jw5lQzbSRmMFfcz6KmmatIe8jOsw2PYZyqPr_O3aNbApuL0W4Map8ChD1ARWW8qFqSSUSeIIfYKiwb2HLCwAgve2kXurWVI-SE1yD0_sj8LiD7gwkMSTUBLi7TJpDDs5lXW7FTIMTJbuxpDtrzD8-bpRsxUpke-JXdXp2-wrw24a-ly0]--></g></svg>