<svg xmlns="http://www.w3.org/2000/svg" xmlns:xlink="http://www.w3.org/1999/xlink" contentStyleType="text/css" data-diagram-type="DESCRIPTION" height="255px" preserveAspectRatio="none" style="width:2414px;height:255px;background:#FFFFFF;" version="1.1" viewBox="0 0 2414 255" width="2414px" zoomAndPan="magnify"><defs/><g><!--cluster Performance Optimization Flow--><g class="cluster" data-entity="Performance Optimization Flow" data-source-line="4" data-uid="ent0002" id="cluster_Performance Optimization Flow"><rect fill="none" height="183.3" rx="2.5" ry="2.5" style="stroke:#181818;stroke-width:1;" width="2401" x="7" y="66.46"/><text fill="#000000" font-family="sans-serif" font-size="14" font-weight="bold" lengthAdjust="spacing" textLength="249.2041" x="1082.8979" y="81.4551">Performance Optimization Flow</text></g><!--cluster Request Processing--><g class="cluster" data-entity="Request Processing" data-source-line="6" data-uid="ent0003" id="cluster_Request Processing"><rect fill="none" height="116.3" rx="2.5" ry="2.5" style="stroke:#181818;stroke-width:1;" width="1169" x="1215" y="109.46"/><text fill="#000000" font-family="sans-serif" font-size="14" font-weight="bold" lengthAdjust="spacing" textLength="155.6885" x="1721.6558" y="124.4551">Request Processing</text></g><!--cluster Response Optimization--><g class="cluster" data-entity="Response Optimization" data-source-line="17" data-uid="ent0011" id="cluster_Response Optimization"><rect fill="none" height="116.3" rx="2.5" ry="2.5" style="stroke:#181818;stroke-width:1;" width="510" x="681" y="109.46"/><text fill="#000000" font-family="sans-serif" font-size="14" font-weight="bold" lengthAdjust="spacing" textLength="182.3896" x="844.8052" y="124.4551">Response Optimization</text></g><!--cluster Delivery--><g class="cluster" data-entity="Delivery" data-source-line="27" data-uid="ent0018" id="cluster_Delivery"><rect fill="none" height="116.3" rx="2.5" ry="2.5" style="stroke:#181818;stroke-width:1;" width="626" x="31" y="109.46"/><text fill="#000000" font-family="sans-serif" font-size="14" font-weight="bold" lengthAdjust="spacing" textLength="65.3652" x="311.3174" y="124.4551">Delivery</text></g><!--entity browser--><g class="entity" data-entity="browser" data-source-line="7" data-uid="ent0004" id="entity_browser"><rect fill="#F1F1F1" height="46.2969" rx="2.5" ry="2.5" style="stroke:#181818;stroke-width:0.5;" width="158.9863" x="1230.51" y="163.46"/><rect fill="#F1F1F1" height="10" style="stroke:#181818;stroke-width:0.5;" width="15" x="1369.4963" y="168.46"/><rect fill="#F1F1F1" height="2" style="stroke:#181818;stroke-width:0.5;" width="4" x="1367.4963" y="170.46"/><rect fill="#F1F1F1" height="2" style="stroke:#181818;stroke-width:0.5;" width="4" x="1367.4963" y="174.46"/><text fill="#000000" font-family="sans-serif" font-size="14" lengthAdjust="spacing" textLength="118.9863" x="1245.51" y="196.4551">Browser Request</text></g><!--entity cdn--><g class="entity" data-entity="cdn" data-source-line="8" data-uid="ent0005" id="entity_cdn"><rect fill="#F1F1F1" height="46.2969" rx="2.5" ry="2.5" style="stroke:#181818;stroke-width:0.5;" width="118.5449" x="2249.73" y="163.46"/><rect fill="#F1F1F1" height="10" style="stroke:#181818;stroke-width:0.5;" width="15" x="2348.2749" y="168.46"/><rect fill="#F1F1F1" height="2" style="stroke:#181818;stroke-width:0.5;" width="4" x="2346.2749" y="170.46"/><rect fill="#F1F1F1" height="2" style="stroke:#181818;stroke-width:0.5;" width="4" x="2346.2749" y="174.46"/><text fill="#000000" font-family="sans-serif" font-size="14" lengthAdjust="spacing" textLength="78.5449" x="2264.73" y="196.4551">CDN Check</text></g><!--entity cache--><g class="entity" data-entity="cache" data-source-line="9" data-uid="ent0006" id="entity_cache"><rect fill="#F1F1F1" height="46.2969" rx="2.5" ry="2.5" style="stroke:#181818;stroke-width:0.5;" width="131.0547" x="1675.47" y="163.46"/><rect fill="#F1F1F1" height="10" style="stroke:#181818;stroke-width:0.5;" width="15" x="1786.5247" y="168.46"/><rect fill="#F1F1F1" height="2" style="stroke:#181818;stroke-width:0.5;" width="4" x="1784.5247" y="170.46"/><rect fill="#F1F1F1" height="2" style="stroke:#181818;stroke-width:0.5;" width="4" x="1784.5247" y="174.46"/><text fill="#000000" font-family="sans-serif" font-size="14" lengthAdjust="spacing" textLength="91.0547" x="1690.47" y="196.4551">Cache Check</text></g><!--entity app--><g class="entity" data-entity="app" data-source-line="10" data-uid="ent0007" id="entity_app"><rect fill="#F1F1F1" height="46.2969" rx="2.5" ry="2.5" style="stroke:#181818;stroke-width:0.5;" width="159.5127" x="2055.24" y="163.46"/><rect fill="#F1F1F1" height="10" style="stroke:#181818;stroke-width:0.5;" width="15" x="2194.7527" y="168.46"/><rect fill="#F1F1F1" height="2" style="stroke:#181818;stroke-width:0.5;" width="4" x="2192.7527" y="170.46"/><rect fill="#F1F1F1" height="2" style="stroke:#181818;stroke-width:0.5;" width="4" x="2192.7527" y="174.46"/><text fill="#000000" font-family="sans-serif" font-size="14" lengthAdjust="spacing" textLength="119.5127" x="2070.24" y="196.4551">Application Logic</text></g><!--entity compress--><g class="entity" data-entity="compress" data-source-line="18" data-uid="ent0012" id="entity_compress"><rect fill="#F1F1F1" height="46.2969" rx="2.5" ry="2.5" style="stroke:#181818;stroke-width:0.5;" width="131.1504" x="1043.42" y="163.46"/><rect fill="#F1F1F1" height="10" style="stroke:#181818;stroke-width:0.5;" width="15" x="1154.5704" y="168.46"/><rect fill="#F1F1F1" height="2" style="stroke:#181818;stroke-width:0.5;" width="4" x="1152.5704" y="170.46"/><rect fill="#F1F1F1" height="2" style="stroke:#181818;stroke-width:0.5;" width="4" x="1152.5704" y="174.46"/><text fill="#000000" font-family="sans-serif" font-size="14" lengthAdjust="spacing" textLength="91.1504" x="1058.42" y="196.4551">Compression</text></g><!--entity bundle--><g class="entity" data-entity="bundle" data-source-line="19" data-uid="ent0013" id="entity_bundle"><rect fill="#F1F1F1" height="46.2969" rx="2.5" ry="2.5" style="stroke:#181818;stroke-width:0.5;" width="144.4941" x="863.75" y="163.46"/><rect fill="#F1F1F1" height="10" style="stroke:#181818;stroke-width:0.5;" width="15" x="988.2441" y="168.46"/><rect fill="#F1F1F1" height="2" style="stroke:#181818;stroke-width:0.5;" width="4" x="986.2441" y="170.46"/><rect fill="#F1F1F1" height="2" style="stroke:#181818;stroke-width:0.5;" width="4" x="986.2441" y="174.46"/><text fill="#000000" font-family="sans-serif" font-size="14" lengthAdjust="spacing" textLength="104.4941" x="878.75" y="196.4551">Asset Bundling</text></g><!--entity lazy--><g class="entity" data-entity="lazy" data-source-line="20" data-uid="ent0014" id="entity_lazy"><rect fill="#F1F1F1" height="46.2969" rx="2.5" ry="2.5" style="stroke:#181818;stroke-width:0.5;" width="131.9434" x="697.03" y="163.46"/><rect fill="#F1F1F1" height="10" style="stroke:#181818;stroke-width:0.5;" width="15" x="808.9734" y="168.46"/><rect fill="#F1F1F1" height="2" style="stroke:#181818;stroke-width:0.5;" width="4" x="806.9734" y="170.46"/><rect fill="#F1F1F1" height="2" style="stroke:#181818;stroke-width:0.5;" width="4" x="806.9734" y="174.46"/><text fill="#000000" font-family="sans-serif" font-size="14" lengthAdjust="spacing" textLength="91.9434" x="712.03" y="196.4551">Lazy Loading</text></g><!--entity response--><g class="entity" data-entity="response" data-source-line="28" data-uid="ent0019" id="entity_response"><rect fill="#F1F1F1" height="46.2969" rx="2.5" ry="2.5" style="stroke:#181818;stroke-width:0.5;" width="199.6396" x="441.18" y="163.46"/><rect fill="#F1F1F1" height="10" style="stroke:#181818;stroke-width:0.5;" width="15" x="620.8196" y="168.46"/><rect fill="#F1F1F1" height="2" style="stroke:#181818;stroke-width:0.5;" width="4" x="618.8196" y="170.46"/><rect fill="#F1F1F1" height="2" style="stroke:#181818;stroke-width:0.5;" width="4" x="618.8196" y="174.46"/><text fill="#000000" font-family="sans-serif" font-size="14" lengthAdjust="spacing" textLength="159.6396" x="456.18" y="196.4551">Compressed Response</text></g><!--entity cached--><g class="entity" data-entity="cached" data-source-line="29" data-uid="ent0020" id="entity_cached"><rect fill="#F1F1F1" height="46.2969" rx="2.5" ry="2.5" style="stroke:#181818;stroke-width:0.5;" width="142.4365" x="263.78" y="163.46"/><rect fill="#F1F1F1" height="10" style="stroke:#181818;stroke-width:0.5;" width="15" x="386.2165" y="168.46"/><rect fill="#F1F1F1" height="2" style="stroke:#181818;stroke-width:0.5;" width="4" x="384.2165" y="170.46"/><rect fill="#F1F1F1" height="2" style="stroke:#181818;stroke-width:0.5;" width="4" x="384.2165" y="174.46"/><text fill="#000000" font-family="sans-serif" font-size="14" lengthAdjust="spacing" textLength="102.4365" x="278.78" y="196.4551">Cached Assets</text></g><!--entity progressive--><g class="entity" data-entity="progressive" data-source-line="30" data-uid="ent0021" id="entity_progressive"><rect fill="#F1F1F1" height="46.2969" rx="2.5" ry="2.5" style="stroke:#181818;stroke-width:0.5;" width="181.3262" x="47.34" y="163.46"/><rect fill="#F1F1F1" height="10" style="stroke:#181818;stroke-width:0.5;" width="15" x="208.6662" y="168.46"/><rect fill="#F1F1F1" height="2" style="stroke:#181818;stroke-width:0.5;" width="4" x="206.6662" y="170.46"/><rect fill="#F1F1F1" height="2" style="stroke:#181818;stroke-width:0.5;" width="4" x="206.6662" y="174.46"/><text fill="#000000" font-family="sans-serif" font-size="14" lengthAdjust="spacing" textLength="141.3262" x="62.34" y="196.4551">Progressive Loading</text></g><!--link browser to cdn--><g class="link" data-entity-1="browser" data-entity-2="cdn" data-source-line="12" data-uid="lnk8" id="link_browser_cdn"><path d="M1361.07,163.06 C1427.69,133.74 1548.68,85.32 1658,67.07 C1783.81,46.06 2120.02,6 2232,67.07 C2269.28,87.4 2289.1732,128.7399 2299.5632,157.3699" fill="none" id="browser-to-cdn" style="stroke:#181818;stroke-width:1;"/><polygon fill="#181818" points="2301.61,163.01,2302.2998,153.1853,2299.9043,158.3099,2294.7797,155.9144,2301.61,163.01" style="stroke:#181818;stroke-width:1;"/><text fill="#000000" font-family="sans-serif" font-size="13" lengthAdjust="spacing" textLength="82.6846" x="1390" y="46.5269">Static assets</text></g><!--link browser to cache--><g class="link" data-entity-1="browser" data-entity-2="cache" data-source-line="13" data-uid="lnk9" id="link_browser_cache"><path d="M1389.81,186.61 C1471.93,186.61 1592.39,186.61 1669.04,186.61" fill="none" id="browser-to-cache" style="stroke:#181818;stroke-width:1;"/><polygon fill="#181818" points="1675.04,186.61,1666.04,182.61,1670.04,186.61,1666.04,190.61,1675.04,186.61" style="stroke:#181818;stroke-width:1;"/><text fill="#000000" font-family="sans-serif" font-size="13" lengthAdjust="spacing" textLength="111.2363" x="1476.98" y="179.6769">Dynamic content</text></g><!--link cache to app--><g class="link" data-entity-1="cache" data-entity-2="app" data-source-line="14" data-uid="lnk10" id="link_cache_app"><path d="M1806.95,186.61 C1875.19,186.61 1975.82,186.61 2048.87,186.61" fill="none" id="cache-to-app" style="stroke:#181818;stroke-width:1;"/><polygon fill="#181818" points="2054.87,186.61,2045.87,182.61,2049.87,186.61,2045.87,190.61,2054.87,186.61" style="stroke:#181818;stroke-width:1;"/><text fill="#000000" font-family="sans-serif" font-size="13" lengthAdjust="spacing" textLength="74.3818" x="1893.89" y="179.6769">Cache miss</text></g><!--link app to compress--><g class="link" data-entity-1="app" data-entity-2="compress" data-source-line="22" data-uid="lnk15" id="link_app_compress"><path d="M2089.66,163.07 C2030.45,133.78 1922.68,85.38 1824,67.07 C1690.94,42.38 1338.42,11.56 1215,67.07 C1171.24,86.76 1141.2314,129.2463 1124.4214,158.0863" fill="none" id="app-to-compress" style="stroke:#181818;stroke-width:1;"/><polygon fill="#181818" points="1121.4,163.27,1129.388,157.5087,1123.9179,158.9502,1122.4763,153.4801,1121.4,163.27" style="stroke:#181818;stroke-width:1;"/><text fill="#000000" font-family="sans-serif" font-size="13" lengthAdjust="spacing" textLength="96.4336" x="1959" y="46.5269">Response data</text></g><!--link app to bundle--><g class="link" data-entity-1="app" data-entity-2="bundle" data-source-line="23" data-uid="lnk16" id="link_app_bundle"><path d="M2089.66,163.07 C2030.45,133.78 1922.68,85.38 1824,67.07 C1736.82,50.89 1105.34,27.49 1026,67.07 C985.78,87.13 961.3335,129.2219 948.0835,157.9419" fill="none" id="app-to-bundle" style="stroke:#181818;stroke-width:1;"/><polygon fill="#181818" points="945.57,163.39,952.9724,156.8935,947.6646,158.8499,945.7082,153.5421,945.57,163.39" style="stroke:#181818;stroke-width:1;"/><text fill="#000000" font-family="sans-serif" font-size="13" lengthAdjust="spacing" textLength="72.7505" x="1160" y="46.5269">CSS/JS files</text></g><!--link app to lazy--><g class="link" data-entity-1="app" data-entity-2="lazy" data-source-line="24" data-uid="lnk17" id="link_app_lazy"><path d="M2089.66,163.07 C2030.45,133.78 1922.68,85.38 1824,67.07 C1717.16,47.24 942.29,16.7 846,67.07 C807.27,87.33 785.2451,129.244 773.5651,157.894" fill="none" id="app-to-lazy" style="stroke:#181818;stroke-width:1;"/><polygon fill="#181818" points="771.3,163.45,778.4016,156.626,773.1876,158.82,770.9936,153.6059,771.3,163.45" style="stroke:#181818;stroke-width:1;"/><text fill="#000000" font-family="sans-serif" font-size="13" lengthAdjust="spacing" textLength="141.8511" x="1810.5" y="46.5269">Non-critical resources</text></g><!--link compress to response--><g class="link" data-entity-1="compress" data-entity-2="response" data-source-line="32" data-uid="lnk22" id="link_compress_response"><path d="M1101.86,163.03 C1089.58,127.61 1060.62,62.74 1008.5,43.46 C976.2,31.51 730.8,31.51 698.5,43.46 C635.6,66.73 586.2986,124.144 560.8486,158.394" fill="none" id="compress-to-response" style="stroke:#181818;stroke-width:1;"/><polygon fill="#181818" points="557.27,163.21,565.8485,158.3718,560.2522,159.1967,559.4272,153.6003,557.27,163.21" style="stroke:#181818;stroke-width:1;"/></g><!--link bundle to cached--><g class="link" data-entity-1="bundle" data-entity-2="cached" data-source-line="33" data-uid="lnk23" id="link_bundle_cached"><path d="M927.77,163.14 C913.85,127.87 881.84,63.2 828.5,43.46 C788.17,28.54 481.83,28.54 441.5,43.46 C388.34,63.13 358.9295,122.236 345.2395,157.536" fill="none" id="bundle-to-cached" style="stroke:#181818;stroke-width:1;"/><polygon fill="#181818" points="343.07,163.13,350.0536,156.1852,344.8779,158.4683,342.5948,153.2926,343.07,163.13" style="stroke:#181818;stroke-width:1;"/></g><!--link lazy to progressive--><g class="link" data-entity-1="lazy" data-entity-2="progressive" data-source-line="34" data-uid="lnk24" id="link_lazy_progressive"><path d="M752.2,163.13 C734.52,128.15 695.68,64.25 639.5,43.46 C600.32,28.97 302.68,28.97 263.5,43.46 C206.93,64.39 170.0041,122.9046 151.8741,157.8346" fill="none" id="lazy-to-progressive" style="stroke:#181818;stroke-width:1;"/><polygon fill="#181818" points="149.11,163.16,156.8064,157.0146,151.4134,158.7222,149.7059,153.3292,149.11,163.16" style="stroke:#181818;stroke-width:1;"/></g><!--SRC=[VPB1Ri8m38RlVGghTxGxXqa3jCE465gV84jD6v4cMPo2OEBTvwIb58h6gN4-RF-VGdjbdF2YWSOQAsjl6uJWMynekA5QbFQeJ0KxeGcppACCmbGQ8T-YtrdV22CHFbrGZJgBeAo1TssFEVnc6S08_yAV5Yd0rbk9HDmpCi0_QHjd3Pe0-SBR8w677iv147ntjKTqkTh0iaQvJv0ipGGGiiOn4i-Fq9jpMibkxxMjb4oeS2vBP3yRPgzn0ioX2CnAPWW3JP0qSGwhan4DKzAQm5EwcUcE8UxDIBTSeoWskKnK4Uz7zrgVs5hofuykusrCs9yd8UEsi6XDgPFsA3KU9ZRMudnY3QAyOfeBdOcuTepOZ-08mvQb26BCTBrZoA9u-IXWfpJI68XT-NfZpKnwnJw5vlXaMo_ncOyLQdL0V_f70PR3Fcbntn-UFeeIaX6wFOloaUDNMYMr1xmJucxrRFXF4iAvxeRs5gxFefkGadDft2RclVm1]--></g></svg>