<svg xmlns="http://www.w3.org/2000/svg" xmlns:xlink="http://www.w3.org/1999/xlink" contentStyleType="text/css" data-diagram-type="CLASS" height="491px" preserveAspectRatio="none" style="width:689px;height:491px;background:#FFFFFF;" version="1.1" viewBox="0 0 689 491" width="689px" zoomAndPan="magnify"><defs/><g><!--class automation--><g class="entity" data-entity="automation" data-source-line="4" data-uid="ent0002" id="entity_automation"><rect fill="#F1F1F1" height="96.8906" rx="2.5" ry="2.5" style="stroke:#181818;stroke-width:0.5;" width="222.417" x="200.83" y="7"/><ellipse cx="239.3298" cy="23" fill="#ADD1B2" rx="11" ry="11" style="stroke:#181818;stroke-width:1;"/><path d="M242.2985,28.6406 Q241.7204,28.9375 241.0798,29.0781 Q240.4391,29.2344 239.736,29.2344 Q237.236,29.2344 235.9079,27.5938 Q234.5954,25.9375 234.5954,22.8125 Q234.5954,19.6875 235.9079,18.0313 Q237.236,16.375 239.736,16.375 Q240.4391,16.375 241.0798,16.5313 Q241.736,16.6875 242.2985,16.9844 L242.2985,19.7031 Q241.6735,19.125 241.0798,18.8594 Q240.486,18.5781 239.861,18.5781 Q238.5173,18.5781 237.8298,19.6563 Q237.1423,20.7188 237.1423,22.8125 Q237.1423,24.9063 237.8298,25.9844 Q238.5173,27.0469 239.861,27.0469 Q240.486,27.0469 241.0798,26.7813 Q241.6735,26.5 242.2985,25.9219 L242.2985,28.6406 Z " fill="#000000"/><text fill="#000000" font-family="sans-serif" font-size="14" lengthAdjust="spacing" textLength="138.1953" x="258.5519" y="27.8467">Automation System</text><line style="stroke:#181818;stroke-width:0.5;" x1="201.83" x2="422.247" y1="39" y2="39"/><ellipse cx="211.83" cy="52.6484" fill="none" rx="3" ry="3" style="stroke:#038048;stroke-width:1;"/><text fill="#000000" font-family="sans-serif" font-size="14" lengthAdjust="spacing" textLength="196.417" x="220.83" y="55.9951">Technology Implementation</text><ellipse cx="211.83" cy="68.9453" fill="none" rx="3" ry="3" style="stroke:#038048;stroke-width:1;"/><text fill="#000000" font-family="sans-serif" font-size="14" lengthAdjust="spacing" textLength="127.75" x="220.83" y="72.292">Deployment Scale</text><ellipse cx="211.83" cy="85.2422" fill="none" rx="3" ry="3" style="stroke:#038048;stroke-width:1;"/><text fill="#000000" font-family="sans-serif" font-size="14" lengthAdjust="spacing" textLength="124.2432" x="220.83" y="88.5889">Integration Scope</text><line style="stroke:#181818;stroke-width:0.5;" x1="201.83" x2="422.247" y1="95.8906" y2="95.8906"/></g><!--class individual--><g class="entity" data-entity="individual" data-source-line="10" data-uid="ent0003" id="entity_individual"><rect fill="#F1F1F1" height="113.1875" rx="2.5" ry="2.5" style="stroke:#181818;stroke-width:0.5;" width="180.0684" x="7" y="180.89"/><ellipse cx="34.1579" cy="196.89" fill="#ADD1B2" rx="11" ry="11" style="stroke:#181818;stroke-width:1;"/><path d="M37.1267,202.5306 Q36.5485,202.8275 35.9079,202.9681 Q35.2673,203.1244 34.5642,203.1244 Q32.0642,203.1244 30.736,201.4838 Q29.4235,199.8275 29.4235,196.7025 Q29.4235,193.5775 30.736,191.9213 Q32.0642,190.265 34.5642,190.265 Q35.2673,190.265 35.9079,190.4213 Q36.5642,190.5775 37.1267,190.8744 L37.1267,193.5931 Q36.5017,193.015 35.9079,192.7494 Q35.3142,192.4681 34.6892,192.4681 Q33.3454,192.4681 32.6579,193.5463 Q31.9704,194.6088 31.9704,196.7025 Q31.9704,198.7963 32.6579,199.8744 Q33.3454,200.9369 34.6892,200.9369 Q35.3142,200.9369 35.9079,200.6713 Q36.5017,200.39 37.1267,199.8119 L37.1267,202.5306 Z " fill="#000000"/><text fill="#000000" font-family="sans-serif" font-size="14" lengthAdjust="spacing" textLength="121.0508" x="50.8597" y="201.7367">Individual Impact</text><line style="stroke:#181818;stroke-width:0.5;" x1="8" x2="186.0684" y1="212.89" y2="212.89"/><ellipse cx="18" cy="226.5384" fill="none" rx="3" ry="3" style="stroke:#038048;stroke-width:1;"/><text fill="#000000" font-family="sans-serif" font-size="14" lengthAdjust="spacing" textLength="99.873" x="27" y="229.8851">Worker Safety</text><ellipse cx="18" cy="242.8353" fill="none" rx="3" ry="3" style="stroke:#038048;stroke-width:1;"/><text fill="#000000" font-family="sans-serif" font-size="14" lengthAdjust="spacing" textLength="86.3926" x="27" y="246.182">Accessibility</text><ellipse cx="18" cy="259.1322" fill="none" rx="3" ry="3" style="stroke:#038048;stroke-width:1;"/><text fill="#000000" font-family="sans-serif" font-size="14" lengthAdjust="spacing" textLength="154.0684" x="27" y="262.4789">Employment Changes</text><ellipse cx="18" cy="275.4291" fill="none" rx="3" ry="3" style="stroke:#038048;stroke-width:1;"/><text fill="#000000" font-family="sans-serif" font-size="14" lengthAdjust="spacing" textLength="131.3799" x="27" y="278.7757">Skill Requirements</text><line style="stroke:#181818;stroke-width:0.5;" x1="8" x2="186.0684" y1="286.0775" y2="286.0775"/></g><!--class society--><g class="entity" data-entity="society" data-source-line="17" data-uid="ent0004" id="entity_society"><rect fill="#F1F1F1" height="113.1875" rx="2.5" ry="2.5" style="stroke:#181818;stroke-width:0.5;" width="179.8975" x="222.09" y="180.89"/><ellipse cx="254.8281" cy="196.89" fill="#ADD1B2" rx="11" ry="11" style="stroke:#181818;stroke-width:1;"/><path d="M257.7968,202.5306 Q257.2187,202.8275 256.5781,202.9681 Q255.9375,203.1244 255.2343,203.1244 Q252.7343,203.1244 251.4062,201.4838 Q250.0937,199.8275 250.0937,196.7025 Q250.0937,193.5775 251.4062,191.9213 Q252.7343,190.265 255.2343,190.265 Q255.9375,190.265 256.5781,190.4213 Q257.2343,190.5775 257.7968,190.8744 L257.7968,193.5931 Q257.1718,193.015 256.5781,192.7494 Q255.9843,192.4681 255.3593,192.4681 Q254.0156,192.4681 253.3281,193.5463 Q252.6406,194.6088 252.6406,196.7025 Q252.6406,198.7963 253.3281,199.8744 Q254.0156,200.9369 255.3593,200.9369 Q255.9843,200.9369 256.5781,200.6713 Q257.1718,200.39 257.7968,199.8119 L257.7968,202.5306 Z " fill="#000000"/><text fill="#000000" font-family="sans-serif" font-size="14" lengthAdjust="spacing" textLength="108.4795" x="272.7699" y="201.7367">Societal Impact</text><line style="stroke:#181818;stroke-width:0.5;" x1="223.09" x2="400.9875" y1="212.89" y2="212.89"/><ellipse cx="233.09" cy="226.5384" fill="none" rx="3" ry="3" style="stroke:#038048;stroke-width:1;"/><text fill="#000000" font-family="sans-serif" font-size="14" lengthAdjust="spacing" textLength="99.9551" x="242.09" y="229.8851">Labor Markets</text><ellipse cx="233.09" cy="242.8353" fill="none" rx="3" ry="3" style="stroke:#038048;stroke-width:1;"/><text fill="#000000" font-family="sans-serif" font-size="14" lengthAdjust="spacing" textLength="153.8975" x="242.09" y="246.182">Economic Distribution</text><ellipse cx="233.09" cy="259.1322" fill="none" rx="3" ry="3" style="stroke:#038048;stroke-width:1;"/><text fill="#000000" font-family="sans-serif" font-size="14" lengthAdjust="spacing" textLength="90.2275" x="242.09" y="262.4789">Social Equity</text><ellipse cx="233.09" cy="275.4291" fill="none" rx="3" ry="3" style="stroke:#038048;stroke-width:1;"/><text fill="#000000" font-family="sans-serif" font-size="14" lengthAdjust="spacing" textLength="113.1758" x="242.09" y="278.7757">Cultural Change</text><line style="stroke:#181818;stroke-width:0.5;" x1="223.09" x2="400.9875" y1="286.0775" y2="286.0775"/></g><!--class environment--><g class="entity" data-entity="environment" data-source-line="24" data-uid="ent0005" id="entity_environment"><rect fill="#F1F1F1" height="113.1875" rx="2.5" ry="2.5" style="stroke:#181818;stroke-width:0.5;" width="187.0391" x="436.51" y="180.89"/><ellipse cx="451.51" cy="196.89" fill="#ADD1B2" rx="11" ry="11" style="stroke:#181818;stroke-width:1;"/><path d="M454.4788,202.5306 Q453.9006,202.8275 453.26,202.9681 Q452.6194,203.1244 451.9163,203.1244 Q449.4163,203.1244 448.0881,201.4838 Q446.7756,199.8275 446.7756,196.7025 Q446.7756,193.5775 448.0881,191.9213 Q449.4163,190.265 451.9163,190.265 Q452.6194,190.265 453.26,190.4213 Q453.9163,190.5775 454.4788,190.8744 L454.4788,193.5931 Q453.8538,193.015 453.26,192.7494 Q452.6663,192.4681 452.0413,192.4681 Q450.6975,192.4681 450.01,193.5463 Q449.3225,194.6088 449.3225,196.7025 Q449.3225,198.7963 450.01,199.8744 Q450.6975,200.9369 452.0413,200.9369 Q452.6663,200.9369 453.26,200.6713 Q453.8538,200.39 454.4788,199.8119 L454.4788,202.5306 Z " fill="#000000"/><text fill="#000000" font-family="sans-serif" font-size="14" lengthAdjust="spacing" textLength="155.0391" x="465.51" y="201.7367">Environmental Impact</text><line style="stroke:#181818;stroke-width:0.5;" x1="437.51" x2="622.5491" y1="212.89" y2="212.89"/><ellipse cx="447.51" cy="226.5384" fill="none" rx="3" ry="3" style="stroke:#038048;stroke-width:1;"/><text fill="#000000" font-family="sans-serif" font-size="14" lengthAdjust="spacing" textLength="137.2383" x="456.51" y="229.8851">Resource Efficiency</text><ellipse cx="447.51" cy="242.8353" fill="none" rx="3" ry="3" style="stroke:#038048;stroke-width:1;"/><text fill="#000000" font-family="sans-serif" font-size="14" lengthAdjust="spacing" textLength="123.3066" x="456.51" y="246.182">Waste Production</text><ellipse cx="447.51" cy="259.1322" fill="none" rx="3" ry="3" style="stroke:#038048;stroke-width:1;"/><text fill="#000000" font-family="sans-serif" font-size="14" lengthAdjust="spacing" textLength="146.4326" x="456.51" y="262.4789">Energy Consumption</text><ellipse cx="447.51" cy="275.4291" fill="none" rx="3" ry="3" style="stroke:#038048;stroke-width:1;"/><text fill="#000000" font-family="sans-serif" font-size="14" lengthAdjust="spacing" textLength="94.7939" x="456.51" y="278.7757">Sustainability</text><line style="stroke:#181818;stroke-width:0.5;" x1="437.51" x2="622.5491" y1="286.0775" y2="286.0775"/></g><!--class framework--><g class="entity" data-entity="framework" data-source-line="31" data-uid="ent0006" id="entity_framework"><rect fill="#F1F1F1" height="113.1875" rx="2.5" ry="2.5" style="stroke:#181818;stroke-width:0.5;" width="202.1621" x="210.95" y="371.08"/><ellipse cx="227.3967" cy="387.08" fill="#ADD1B2" rx="11" ry="11" style="stroke:#181818;stroke-width:1;"/><path d="M230.3654,392.7206 Q229.7873,393.0175 229.1467,393.1581 Q228.5061,393.3144 227.8029,393.3144 Q225.3029,393.3144 223.9748,391.6738 Q222.6623,390.0175 222.6623,386.8925 Q222.6623,383.7675 223.9748,382.1113 Q225.3029,380.455 227.8029,380.455 Q228.5061,380.455 229.1467,380.6113 Q229.8029,380.7675 230.3654,381.0644 L230.3654,383.7831 Q229.7404,383.205 229.1467,382.9394 Q228.5529,382.6581 227.9279,382.6581 Q226.5842,382.6581 225.8967,383.7363 Q225.2092,384.7988 225.2092,386.8925 Q225.2092,388.9863 225.8967,390.0644 Q226.5842,391.1269 227.9279,391.1269 Q228.5529,391.1269 229.1467,390.8613 Q229.7404,390.58 230.3654,390.0019 L230.3654,392.7206 Z " fill="#000000"/><text fill="#000000" font-family="sans-serif" font-size="14" lengthAdjust="spacing" textLength="166.9473" x="241.7182" y="391.9267">Assessment Framework</text><line style="stroke:#181818;stroke-width:0.5;" x1="211.95" x2="412.1121" y1="403.08" y2="403.08"/><ellipse cx="221.95" cy="416.7284" fill="none" rx="3" ry="3" style="stroke:#038048;stroke-width:1;"/><text fill="#000000" font-family="sans-serif" font-size="14" lengthAdjust="spacing" textLength="149.29" x="230.95" y="420.0751">Impact Measurement</text><ellipse cx="221.95" cy="433.0253" fill="none" rx="3" ry="3" style="stroke:#038048;stroke-width:1;"/><text fill="#000000" font-family="sans-serif" font-size="14" lengthAdjust="spacing" textLength="146.3916" x="230.95" y="436.372">Stakeholder Analysis</text><ellipse cx="221.95" cy="449.3222" fill="none" rx="3" ry="3" style="stroke:#038048;stroke-width:1;"/><text fill="#000000" font-family="sans-serif" font-size="14" lengthAdjust="spacing" textLength="145.5781" x="230.95" y="452.6689">Mitigation Strategies</text><ellipse cx="221.95" cy="465.6191" fill="none" rx="3" ry="3" style="stroke:#038048;stroke-width:1;"/><text fill="#000000" font-family="sans-serif" font-size="14" lengthAdjust="spacing" textLength="176.1621" x="230.95" y="468.9657">Policy Recommendations</text><line style="stroke:#181818;stroke-width:0.5;" x1="211.95" x2="412.1121" y1="476.2675" y2="476.2675"/></g><g class="entity" data-entity="GMN13" data-source-line="46" data-uid="ent0014" id="entity_GMN13"><path d="M448.04,399.98 L448.04,423.68 L413.33,427.68 L448.04,431.68 L448.04,455.3784 A0,0 0 0 0 448.04,455.3784 L682.0229,455.3784 A0,0 0 0 0 682.0229,455.3784 L682.0229,409.98 L672.0229,399.98 L448.04,399.98 A0,0 0 0 0 448.04,399.98" fill="#FEFFDD" style="stroke:#181818;stroke-width:0.5;"/><path d="M672.0229,399.98 L672.0229,409.98 L682.0229,409.98 L672.0229,399.98" fill="#FEFFDD" style="stroke:#181818;stroke-width:0.5;"/><text fill="#000000" font-family="sans-serif" font-size="13" lengthAdjust="spacing" textLength="208.457" x="454.04" y="417.0469">Systematic assessment enables</text><text fill="#000000" font-family="sans-serif" font-size="13" lengthAdjust="spacing" textLength="212.9829" x="454.04" y="432.1797">evidence-based decision making</text><text fill="#000000" font-family="sans-serif" font-size="13" lengthAdjust="spacing" textLength="198.3198" x="454.04" y="447.3125">about automation deployment</text></g><!--link automation to individual--><g class="link" data-entity-1="automation" data-entity-2="individual" data-source-line="38" data-uid="lnk7" id="link_automation_individual"><path codeLine="38" d="M254.98,104.22 C226.99,127.66 197.6995,152.1871 168.4995,176.6471" fill="none" id="automation-to-individual" style="stroke:#181818;stroke-width:1;"/><polygon fill="#181818" points="163.9,180.5,173.3678,177.787,167.7329,177.2893,168.2307,171.6544,163.9,180.5" style="stroke:#181818;stroke-width:1;"/><text fill="#000000" font-family="sans-serif" font-size="13" lengthAdjust="spacing" textLength="45.062" x="219.03" y="146.9569">Affects</text></g><!--link automation to society--><g class="link" data-entity-1="automation" data-entity-2="society" data-source-line="39" data-uid="lnk8" id="link_automation_society"><path codeLine="39" d="M312.03,104.22 C312.03,127.66 312.03,150.04 312.03,174.5" fill="none" id="automation-to-society" style="stroke:#181818;stroke-width:1;"/><polygon fill="#181818" points="312.03,180.5,316.03,171.5,312.03,175.5,308.03,171.5,312.03,180.5" style="stroke:#181818;stroke-width:1;"/><text fill="#000000" font-family="sans-serif" font-size="13" lengthAdjust="spacing" textLength="66.6567" x="313.03" y="146.9569">Influences</text></g><!--link automation to environment--><g class="link" data-entity-1="automation" data-entity-2="environment" data-source-line="40" data-uid="lnk9" id="link_automation_environment"><path codeLine="40" d="M369.88,104.22 C398.26,127.66 428.0042,152.2188 457.6142,176.6788" fill="none" id="automation-to-environment" style="stroke:#181818;stroke-width:1;"/><polygon fill="#181818" points="462.24,180.5,457.8488,171.6843,458.3852,177.3156,452.7538,177.852,462.24,180.5" style="stroke:#181818;stroke-width:1;"/><text fill="#000000" font-family="sans-serif" font-size="13" lengthAdjust="spacing" textLength="51.7334" x="422.03" y="146.9569">Impacts</text></g><!--link individual to framework--><g class="link" data-entity-1="individual" data-entity-2="framework" data-source-line="41" data-uid="lnk10" id="link_individual_framework"><path codeLine="41" d="M160.96,294.44 C188.44,318.49 215.975,342.5984 243.465,366.6584" fill="none" id="individual-to-framework" style="stroke:#181818;stroke-width:1;"/><polygon fill="#181818" points="247.98,370.61,243.842,361.6726,244.2175,367.317,238.5732,367.6926,247.98,370.61" style="stroke:#181818;stroke-width:1;"/><text fill="#000000" font-family="sans-serif" font-size="13" lengthAdjust="spacing" textLength="49.3848" x="212.03" y="337.1469">Informs</text></g><!--link society to framework--><g class="link" data-entity-1="society" data-entity-2="framework" data-source-line="42" data-uid="lnk11" id="link_society_framework"><path codeLine="42" d="M312.03,294.44 C312.03,318.49 312.03,340.55 312.03,364.61" fill="none" id="society-to-framework" style="stroke:#181818;stroke-width:1;"/><polygon fill="#181818" points="312.03,370.61,316.03,361.61,312.03,365.61,308.03,361.61,312.03,370.61" style="stroke:#181818;stroke-width:1;"/><text fill="#000000" font-family="sans-serif" font-size="13" lengthAdjust="spacing" textLength="44.9478" x="313.03" y="337.1469">Guides</text></g><!--link environment to framework--><g class="link" data-entity-1="environment" data-entity-2="framework" data-source-line="43" data-uid="lnk12" id="link_environment_framework"><path codeLine="43" d="M465.22,294.44 C437.35,318.49 409.3917,342.6292 381.5217,366.6892" fill="none" id="environment-to-framework" style="stroke:#181818;stroke-width:1;"/><polygon fill="#181818" points="376.98,370.61,386.4064,367.7566,380.7648,367.3426,381.1787,361.701,376.98,370.61" style="stroke:#181818;stroke-width:1;"/><text fill="#000000" font-family="sans-serif" font-size="13" lengthAdjust="spacing" textLength="47.4805" x="429.03" y="337.1469">Shapes</text></g><!--SRC=[PLD1Rjim4Bph5QolXJ-GGm73KGC3SH5O0NAcoPMyCCbrkMGAeUZVkw9aItQE6WrcPcUNtooq640TwktxvjVBQwsCqynLDGEhJKxaTK8AgkavWLyfpKhFwDzAgU_g7SmfaAEkLpj_SU0XfFA__7s6YwD-m5HZj8C2xaA2BaxIXYvG_RjptWMBdsYpTeEaDgauuuoEpXyKpn1Lerj8VK4snW0p7j7XXDJ-vhyzwT015xWvetFg0BypnfAO7o8qP13IVG0kM3-vl-eZHRNNaY6DehMXG1wDUaPE4O_vriAW9bgrs4svjjcb70KRKpsur-4J8uLIvLq4c7zCCGx0bAC1LRSjIhvWHeCFBIjJRv5iDhSSTO0eUzfIuEmlSxpCIMFGKs_tMJRCqcbn_1crXp_IUidINh-c96DCjGVDUInr54_w32ToLbQr2ThrZ6DTUqpOJKUGv1gWmsaxR-JGz3AQ8Iywjf3AXXRNjrx_M9x4aoHjMp29Lu-iwzwUXijgNPQEW5VgaRRiTg2MSKHjOJBGvh57FOfUI5UFBuoNZ5RSggNw5r9pqfU1L0MIfKNiJabHEtEabV49IbeZtTys0h8qLre3YJWCjZvg1gii6EHXCg_F63eXoBdcj7o-zlOq9PnLWtNr7m00]--></g></svg>