<svg xmlns="http://www.w3.org/2000/svg" xmlns:xlink="http://www.w3.org/1999/xlink" contentStyleType="text/css" data-diagram-type="DESCRIPTION" height="689px" preserveAspectRatio="none" style="width:709px;height:689px;background:#FFFFFF;" version="1.1" viewBox="0 0 709 689" width="709px" zoomAndPan="magnify"><defs/><g><!--entity Setpoint--><g class="entity" data-entity="Setpoint" data-source-line="5" data-uid="ent0002" id="entity_Setpoint"><rect fill="#FFFFFF" height="46.2969" rx="2.5" ry="2.5" style="stroke:#000000;stroke-width:1;" width="98.6934" x="292.97" y="12"/><rect fill="#FFFFFF" height="10" style="stroke:#000000;stroke-width:1;" width="15" x="371.6634" y="17"/><rect fill="#FFFFFF" height="2" style="stroke:#000000;stroke-width:1;" width="4" x="369.6634" y="19"/><rect fill="#FFFFFF" height="2" style="stroke:#000000;stroke-width:1;" width="4" x="369.6634" y="23"/><text fill="#000000" font-family="Verdana" font-size="14" lengthAdjust="spacing" textLength="58.6934" x="307.97" y="44.9951">Setpoint</text></g><!--entity Controller--><g class="entity" data-entity="Controller" data-source-line="5" data-uid="ent0003" id="entity_Controller"><rect fill="#FFFFFF" height="46.2969" rx="2.5" ry="2.5" style="stroke:#000000;stroke-width:1;" width="109.1729" x="287.73" y="139.84"/><rect fill="#FFFFFF" height="10" style="stroke:#000000;stroke-width:1;" width="15" x="376.9029" y="144.84"/><rect fill="#FFFFFF" height="2" style="stroke:#000000;stroke-width:1;" width="4" x="374.9029" y="146.84"/><rect fill="#FFFFFF" height="2" style="stroke:#000000;stroke-width:1;" width="4" x="374.9029" y="150.84"/><text fill="#000000" font-family="Verdana" font-size="14" lengthAdjust="spacing" textLength="69.1729" x="302.73" y="172.8351">Controller</text></g><!--entity Sensor--><g class="entity" data-entity="Sensor" data-source-line="6" data-uid="ent0005" id="entity_Sensor"><rect fill="#FFFFFF" height="46.2969" rx="2.5" ry="2.5" style="stroke:#000000;stroke-width:1;" width="87.9883" x="298.32" y="637.58"/><rect fill="#FFFFFF" height="10" style="stroke:#000000;stroke-width:1;" width="15" x="366.3083" y="642.58"/><rect fill="#FFFFFF" height="2" style="stroke:#000000;stroke-width:1;" width="4" x="364.3083" y="644.58"/><rect fill="#FFFFFF" height="2" style="stroke:#000000;stroke-width:1;" width="4" x="364.3083" y="648.58"/><text fill="#000000" font-family="Verdana" font-size="14" lengthAdjust="spacing" textLength="47.9883" x="313.32" y="670.5751">Sensor</text></g><!--entity Actuator--><g class="entity" data-entity="Actuator" data-source-line="7" data-uid="ent0007" id="entity_Actuator"><rect fill="#FFFFFF" height="46.2969" rx="2.5" ry="2.5" style="stroke:#000000;stroke-width:1;" width="100.0264" x="171.3" y="267.69"/><rect fill="#FFFFFF" height="10" style="stroke:#000000;stroke-width:1;" width="15" x="251.3264" y="272.69"/><rect fill="#FFFFFF" height="2" style="stroke:#000000;stroke-width:1;" width="4" x="249.3264" y="274.69"/><rect fill="#FFFFFF" height="2" style="stroke:#000000;stroke-width:1;" width="4" x="249.3264" y="278.69"/><text fill="#000000" font-family="Verdana" font-size="14" lengthAdjust="spacing" textLength="60.0264" x="186.3" y="300.6851">Actuator</text></g><!--entity Process--><g class="entity" data-entity="Process" data-source-line="8" data-uid="ent0009" id="entity_Process"><rect fill="#FFFFFF" height="46.2969" rx="2.5" ry="2.5" style="stroke:#000000;stroke-width:1;" width="93.6621" x="165.48" y="390.99"/><rect fill="#FFFFFF" height="10" style="stroke:#000000;stroke-width:1;" width="15" x="239.1421" y="395.99"/><rect fill="#FFFFFF" height="2" style="stroke:#000000;stroke-width:1;" width="4" x="237.1421" y="397.99"/><rect fill="#FFFFFF" height="2" style="stroke:#000000;stroke-width:1;" width="4" x="237.1421" y="401.99"/><text fill="#000000" font-family="Verdana" font-size="14" lengthAdjust="spacing" textLength="53.6621" x="180.48" y="423.9851">Process</text></g><!--entity Output--><g class="entity" data-entity="Output" data-source-line="9" data-uid="ent0011" id="entity_Output"><rect fill="#FFFFFF" height="46.2969" rx="2.5" ry="2.5" style="stroke:#000000;stroke-width:1;" width="88.6309" x="12" y="514.29"/><rect fill="#FFFFFF" height="10" style="stroke:#000000;stroke-width:1;" width="15" x="80.6309" y="519.29"/><rect fill="#FFFFFF" height="2" style="stroke:#000000;stroke-width:1;" width="4" x="78.6309" y="521.29"/><rect fill="#FFFFFF" height="2" style="stroke:#000000;stroke-width:1;" width="4" x="78.6309" y="525.29"/><text fill="#000000" font-family="Verdana" font-size="14" lengthAdjust="spacing" textLength="48.6309" x="27" y="547.2851">Output</text></g><g class="entity" data-entity="GMN15" data-source-line="13" data-uid="ent0016" id="entity_GMN15"><path d="M431.74,135.29 L431.74,158.99 L397.2,162.99 L431.74,166.99 L431.74,190.6884 A0,0 0 0 0 431.74,190.6884 L566.8899,190.6884 A0,0 0 0 0 566.8899,190.6884 L566.8899,145.29 L556.8899,135.29 L431.74,135.29 A0,0 0 0 0 431.74,135.29" fill="#FFFFFF" style="stroke:#000000;stroke-width:1;"/><path d="M556.8899,135.29 L556.8899,145.29 L566.8899,145.29 L556.8899,135.29" fill="#FFFFFF" style="stroke:#000000;stroke-width:1;"/><text fill="#000000" font-family="Verdana" font-size="13" lengthAdjust="spacing" textLength="106.9263" x="437.74" y="152.3569">Error calculation</text><text fill="#000000" font-family="Verdana" font-size="13" lengthAdjust="spacing" textLength="114.1499" x="437.74" y="167.4897">Control algorithm</text><text fill="#000000" font-family="Verdana" font-size="13" lengthAdjust="spacing" textLength="97.9888" x="437.74" y="182.6225">Output limiting</text></g><g class="entity" data-entity="GMN18" data-source-line="14" data-uid="ent0019" id="entity_GMN18"><path d="M135.45,517.3 L135.45,557.5656 A0,0 0 0 0 135.45,557.5656 L289.1858,557.5656 A0,0 0 0 0 289.1858,557.5656 L289.1858,527.3 L279.1858,517.3 L216.32,517.3 L212.32,437.67 L208.32,517.3 L135.45,517.3 A0,0 0 0 0 135.45,517.3" fill="#FFFFFF" style="stroke:#000000;stroke-width:1;"/><path d="M279.1858,517.3 L279.1858,527.3 L289.1858,527.3 L279.1858,517.3" fill="#FFFFFF" style="stroke:#000000;stroke-width:1;"/><text fill="#000000" font-family="Verdana" font-size="13" lengthAdjust="spacing" textLength="132.7358" x="141.45" y="534.3669">The physical system</text><text fill="#000000" font-family="Verdana" font-size="13" lengthAdjust="spacing" textLength="105.6948" x="141.45" y="549.4997">being controlled</text></g><!--link Setpoint to Controller--><g class="link" data-entity-1="Setpoint" data-entity-2="Controller" data-source-line="5" data-uid="lnk4" id="link_Setpoint_Controller"><path d="M342.32,58.64 C342.32,81.55 342.32,110.85 342.32,133.69" fill="none" id="Setpoint-to-Controller" style="stroke:#000000;stroke-width:1;"/><polygon fill="#000000" points="342.32,139.69,346.32,130.69,342.32,134.69,338.32,130.69,342.32,139.69" style="stroke:#000000;stroke-width:1;"/><text fill="#000000" font-family="Verdana" font-size="13" lengthAdjust="spacing" textLength="79.3965" x="343.32" y="101.3569">target value</text></g><!--link Sensor to Controller--><g class="link" data-entity-1="Sensor" data-entity-2="Controller" data-source-line="6" data-uid="lnk6" id="link_Sensor_Controller"><path d="M342.32,637.38 C342.32,613.04 342.32,572.97 342.32,538.43 C342.32,289.84 342.32,289.84 342.32,289.84 C342.32,253.57 342.32,217.42 342.32,192.27" fill="none" id="Sensor-to-Controller" style="stroke:#000000;stroke-width:1;"/><polygon fill="#000000" points="342.32,186.27,338.32,195.27,342.32,191.27,346.32,195.27,342.32,186.27" style="stroke:#000000;stroke-width:1;"/><text fill="#000000" font-family="Verdana" font-size="13" lengthAdjust="spacing" textLength="104.876" x="343.32" y="418.7069">measured value</text></g><!--link Sensor to Controller--><g class="link" data-entity-1="Sensor" data-entity-2="Controller" data-source-line="11" data-uid="lnk14" id="link_Sensor_Controller"><path d="M386.73,649.74 C438.87,635.08 518.32,602.26 518.32,538.43 C518.32,289.84 518.32,289.84 518.32,289.84 C518.32,258.01 446.5013,215.8932 394.3613,189.2132" fill="none" id="Sensor-to-Controller-1" style="stroke:#000000;stroke-width:1;stroke-dasharray:7.0,7.0;"/><polygon fill="#000000" points="389.02,186.48,395.2099,194.1406,393.4711,188.7576,398.8541,187.0188,389.02,186.48" style="stroke:#000000;stroke-width:1;"/><text fill="#000000" font-family="Verdana" font-size="13" lengthAdjust="spacing" textLength="182.3555" x="519.32" y="418.7069">error = setpoint - measured</text></g><!--link Controller to Actuator--><g class="link" data-entity-1="Controller" data-entity-2="Actuator" data-source-line="7" data-uid="lnk8" id="link_Controller_Actuator"><path d="M287.51,175.94 C263.23,184.23 236.91,198.02 222.32,220.69 C213.54,234.32 212.8552,246.8756 215.0052,261.2956" fill="none" id="Controller-to-Actuator" style="stroke:#000000;stroke-width:1;"/><polygon fill="#000000" points="215.89,267.23,218.5191,257.7385,215.1527,262.2847,210.6065,258.9183,215.89,267.23" style="stroke:#000000;stroke-width:1;"/><text fill="#000000" font-family="Verdana" font-size="13" lengthAdjust="spacing" textLength="92.3584" x="223.32" y="233.7569">control output</text></g><!--link Actuator to Process--><g class="link" data-entity-1="Actuator" data-entity-2="Process" data-source-line="8" data-uid="lnk10" id="link_Actuator_Process"><path d="M219.64,314.37 C218.03,336.16 216.0329,362.9964 214.4229,384.7464" fill="none" id="Actuator-to-Process" style="stroke:#000000;stroke-width:1;"/><polygon fill="#000000" points="213.98,390.73,218.6335,382.0498,214.3491,385.7436,210.6553,381.4593,213.98,390.73" style="stroke:#000000;stroke-width:1;"/><text fill="#000000" font-family="Verdana" font-size="13" lengthAdjust="spacing" textLength="33.4395" x="219.32" y="357.0569">input</text></g><!--link Process to Output--><g class="link" data-entity-1="Process" data-entity-2="Output" data-source-line="9" data-uid="lnk12" id="link_Process_Output"><path d="M165.02,433.26 C146.19,441.85 125.06,453.31 108.32,467.29 C92.52,480.47 81.9599,494.2936 72.5699,508.9936" fill="none" id="Process-to-Output" style="stroke:#000000;stroke-width:1;"/><polygon fill="#000000" points="69.34,514.05,77.5559,508.6186,72.0316,509.8363,70.8139,504.3121,69.34,514.05" style="stroke:#000000;stroke-width:1;"/><text fill="#000000" font-family="Verdana" font-size="13" lengthAdjust="spacing" textLength="94.0088" x="109.32" y="480.3569">system output</text></g><!--link Output to Sensor--><g class="link" data-entity-1="Output" data-entity-2="Sensor" data-source-line="10" data-uid="lnk13" id="link_Output_Sensor"><path d="M101,557.39 C154.73,580.17 238.8263,615.8372 292.4163,638.5672" fill="none" id="Output-to-Sensor" style="stroke:#000000;stroke-width:1;"/><polygon fill="#000000" points="297.94,640.91,291.2164,633.7133,293.3369,638.9576,288.0926,641.0782,297.94,640.91" style="stroke:#000000;stroke-width:1;"/><text fill="#000000" font-family="Verdana" font-size="13" lengthAdjust="spacing" textLength="59.7188" x="218.32" y="603.6469">feedback</text></g><!--SRC=[RP5DJiGm34RtFOKvGES08p4IGgn1Wjrq5cxgQQ99uifnGNDxqlI72jZcFN_nbpoefK0mU7InIZSN1nGC43YoiS8PgOoq8ybYnrykzd15dwYgpk-a0xke5wZh4voVEQgmzoGNE8AYzAJmYJwdP3Kcbd_5G9X6eMvLzxJeJqP7L2wocI7mgCEerOuLzKtOK4gJcTUUXEsayDSoDk5qJqfXorb1iTPbZt0bwbeqjvy2XyEV0YJ20e-GbkU0UkjKLP6LG5nl5VZwU_AbJ1hqPlIeZcCJ5m7GzonERMZYl1ju5vpcvvyZMrRbK39tfJzi_b5xJovdBXMRsDBqQMQzkVi6]--></g></svg>