<svg xmlns="http://www.w3.org/2000/svg" xmlns:xlink="http://www.w3.org/1999/xlink" contentStyleType="text/css" data-diagram-type="CLASS" height="379px" preserveAspectRatio="none" style="width:874px;height:379px;background:#FFFFFF;" version="1.1" viewBox="0 0 874 379" width="874px" zoomAndPan="magnify"><defs/><g><!--class RobotArmController--><g class="entity" data-entity="RobotArmController" data-source-line="5" data-uid="ent0002" id="entity_RobotArmController"><rect fill="#FFFFFF" height="174.375" rx="2.5" ry="2.5" style="stroke:#000000;stroke-width:1;" width="221.4492" x="376.2" y="12"/><ellipse cx="413.5321" cy="26" fill="#FFFFFF" rx="9" ry="9" style="stroke:#000000;stroke-width:1;"/><path d="M416.9383,27.9688 C416.2196,28.6406 414.9227,29.8125 413.1727,29.8125 C410.954,29.8125 409.9852,27.875 409.9852,25.9219 C409.9852,23.5313 411.4696,22.2656 413.1102,22.2656 C415.1258,22.2656 415.3446,23.7813 415.5165,24.875 L416.9383,24.6875 C416.8446,24.1094 416.7665,23.5313 416.7665,22.5625 C416.7665,21.8906 416.8133,21.3438 416.8446,20.9219 L415.4383,20.9219 L415.329,21.875 C414.7352,21.3438 414.0946,20.7969 412.8758,20.7969 C410.829,20.7969 408.4227,22.625 408.4227,25.9375 C408.4227,28.875 410.1883,31.2656 413.1883,31.2656 C415.6258,31.2656 417.329,29.6406 417.9227,29.0625 L416.9383,27.9688 Z " fill="#000000"/><text fill="#000000" font-family="Verdana" font-size="14" lengthAdjust="spacing" textLength="139.3779" x="430.9392" y="30.8467">RobotArmController</text><line style="stroke:#000000;stroke-width:1;" x1="377.2" x2="596.6492" y1="40" y2="40"/><rect fill="none" height="6" style="stroke:#000000;stroke-width:1;" width="6" x="384.2" y="50.6484"/><text fill="#000000" font-family="Verdana" font-size="14" lengthAdjust="spacing" textLength="197.4492" x="394.2" y="56.9951">pid_controller: PIDController</text><rect fill="none" height="6" style="stroke:#000000;stroke-width:1;" width="6" x="384.2" y="66.9453"/><text fill="#000000" font-family="Verdana" font-size="14" lengthAdjust="spacing" textLength="137.5186" x="394.2" y="73.292">current_angle: float</text><rect fill="none" height="6" style="stroke:#000000;stroke-width:1;" width="6" x="384.2" y="83.2422"/><text fill="#000000" font-family="Verdana" font-size="14" lengthAdjust="spacing" textLength="129.2744" x="394.2" y="89.5889">target_angle: float</text><rect fill="none" height="6" style="stroke:#000000;stroke-width:1;" width="6" x="384.2" y="99.5391"/><text fill="#000000" font-family="Verdana" font-size="14" lengthAdjust="spacing" textLength="132.9043" x="394.2" y="105.8857">motor_power: float</text><line style="stroke:#000000;stroke-width:1;" x1="377.2" x2="596.6492" y1="113.1875" y2="113.1875"/><ellipse cx="387.2" cy="126.8359" fill="#FFFFFF" rx="3" ry="3" style="stroke:#000000;stroke-width:1;"/><text fill="#000000" font-family="Verdana" font-size="14" lengthAdjust="spacing" textLength="166.8174" x="394.2" y="130.1826">set_target_angle(angle)</text><ellipse cx="387.2" cy="143.1328" fill="#FFFFFF" rx="3" ry="3" style="stroke:#000000;stroke-width:1;"/><text fill="#000000" font-family="Verdana" font-size="14" lengthAdjust="spacing" textLength="141.9961" x="394.2" y="146.4795">read_angle_sensor()</text><ellipse cx="387.2" cy="159.4297" fill="#FFFFFF" rx="3" ry="3" style="stroke:#000000;stroke-width:1;"/><text fill="#000000" font-family="Verdana" font-size="14" lengthAdjust="spacing" textLength="152.9951" x="394.2" y="162.7764">update_control_loop()</text><ellipse cx="387.2" cy="175.7266" fill="#FFFFFF" rx="3" ry="3" style="stroke:#000000;stroke-width:1;"/><text fill="#000000" font-family="Verdana" font-size="14" lengthAdjust="spacing" textLength="192.0078" x="394.2" y="179.0732">apply_motor_power(power)</text></g><!--class AngleSensor--><g class="entity" data-entity="AngleSensor" data-source-line="16" data-uid="ent0003" id="entity_AngleSensor"><rect fill="#FFFFFF" height="109.1875" rx="2.5" ry="2.5" style="stroke:#000000;stroke-width:1;" width="207.8525" x="12" y="263.37"/><ellipse cx="68.2622" cy="277.37" fill="#FFFFFF" rx="9" ry="9" style="stroke:#000000;stroke-width:1;"/><path d="M71.6685,279.3388 C70.9497,280.0106 69.6528,281.1825 67.9028,281.1825 C65.6841,281.1825 64.7153,279.245 64.7153,277.2919 C64.7153,274.9013 66.1997,273.6356 67.8403,273.6356 C69.856,273.6356 70.0747,275.1513 70.2466,276.245 L71.6685,276.0575 C71.5747,275.4794 71.4966,274.9013 71.4966,273.9325 C71.4966,273.2606 71.5435,272.7138 71.5747,272.2919 L70.1685,272.2919 L70.0591,273.245 C69.4653,272.7138 68.8247,272.1669 67.606,272.1669 C65.5591,272.1669 63.1528,273.995 63.1528,277.3075 C63.1528,280.245 64.9185,282.6356 67.9185,282.6356 C70.356,282.6356 72.0591,281.0106 72.6528,280.4325 L71.6685,279.3388 Z " fill="#000000"/><text fill="#000000" font-family="Verdana" font-size="14" lengthAdjust="spacing" textLength="87.8281" x="85.7622" y="282.2167">AngleSensor</text><line style="stroke:#000000;stroke-width:1;" x1="13" x2="218.8525" y1="291.37" y2="291.37"/><rect fill="none" height="6" style="stroke:#000000;stroke-width:1;" width="6" x="20" y="302.0184"/><text fill="#000000" font-family="Verdana" font-size="14" lengthAdjust="spacing" textLength="118.1455" x="30" y="308.3651">noise_level: float</text><rect fill="none" height="6" style="stroke:#000000;stroke-width:1;" width="6" x="20" y="318.3153"/><text fill="#000000" font-family="Verdana" font-size="14" lengthAdjust="spacing" textLength="183.8525" x="30" y="324.662">measurement_delay: float</text><line style="stroke:#000000;stroke-width:1;" x1="13" x2="218.8525" y1="331.9638" y2="331.9638"/><ellipse cx="23" cy="345.6122" fill="#FFFFFF" rx="3" ry="3" style="stroke:#000000;stroke-width:1;"/><text fill="#000000" font-family="Verdana" font-size="14" lengthAdjust="spacing" textLength="129.2197" x="30" y="348.9589">read_angle(): float</text><ellipse cx="23" cy="361.9091" fill="#FFFFFF" rx="3" ry="3" style="stroke:#000000;stroke-width:1;"/><text fill="#000000" font-family="Verdana" font-size="14" lengthAdjust="spacing" textLength="72.3037" x="30" y="365.2557">calibrate()</text></g><!--class ServoMotor--><g class="entity" data-entity="ServoMotor" data-source-line="23" data-uid="ent0004" id="entity_ServoMotor"><rect fill="#FFFFFF" height="109.1875" rx="2.5" ry="2.5" style="stroke:#000000;stroke-width:1;" width="219.043" x="254.4" y="263.37"/><ellipse cx="319.8907" cy="277.37" fill="#FFFFFF" rx="9" ry="9" style="stroke:#000000;stroke-width:1;"/><path d="M323.297,279.3388 C322.5782,280.0106 321.2813,281.1825 319.5313,281.1825 C317.3126,281.1825 316.3438,279.245 316.3438,277.2919 C316.3438,274.9013 317.8282,273.6356 319.4688,273.6356 C321.4845,273.6356 321.7032,275.1513 321.8751,276.245 L323.297,276.0575 C323.2032,275.4794 323.1251,274.9013 323.1251,273.9325 C323.1251,273.2606 323.172,272.7138 323.2032,272.2919 L321.797,272.2919 L321.6876,273.245 C321.0938,272.7138 320.4532,272.1669 319.2345,272.1669 C317.1876,272.1669 314.7813,273.995 314.7813,277.3075 C314.7813,280.245 316.547,282.6356 319.547,282.6356 C321.9845,282.6356 323.6876,281.0106 324.2813,280.4325 L323.297,279.3388 Z " fill="#000000"/><text fill="#000000" font-family="Verdana" font-size="14" lengthAdjust="spacing" textLength="80.5615" x="337.3907" y="282.2167">ServoMotor</text><line style="stroke:#000000;stroke-width:1;" x1="255.4" x2="472.443" y1="291.37" y2="291.37"/><rect fill="none" height="6" style="stroke:#000000;stroke-width:1;" width="6" x="262.4" y="302.0184"/><text fill="#000000" font-family="Verdana" font-size="14" lengthAdjust="spacing" textLength="121.6865" x="272.4" y="308.3651">power_limit: float</text><rect fill="none" height="6" style="stroke:#000000;stroke-width:1;" width="6" x="262.4" y="318.3153"/><text fill="#000000" font-family="Verdana" font-size="14" lengthAdjust="spacing" textLength="143.1445" x="272.4" y="324.662">response_time: float</text><line style="stroke:#000000;stroke-width:1;" x1="255.4" x2="472.443" y1="331.9638" y2="331.9638"/><ellipse cx="265.4" cy="345.6122" fill="#FFFFFF" rx="3" ry="3" style="stroke:#000000;stroke-width:1;"/><text fill="#000000" font-family="Verdana" font-size="14" lengthAdjust="spacing" textLength="186.792" x="272.4" y="348.9589">set_power(power_percent)</text><ellipse cx="265.4" cy="361.9091" fill="#FFFFFF" rx="3" ry="3" style="stroke:#000000;stroke-width:1;"/><text fill="#000000" font-family="Verdana" font-size="14" lengthAdjust="spacing" textLength="195.043" x="272.4" y="365.2557">get_current_position(): float</text></g><!--class Disturbance--><g class="entity" data-entity="Disturbance" data-source-line="30" data-uid="ent0005" id="entity_Disturbance"><rect fill="#FFFFFF" height="92.8906" rx="2.5" ry="2.5" style="stroke:#000000;stroke-width:1;" width="203.9082" x="507.97" y="271.52"/><ellipse cx="563.8084" cy="285.52" fill="#FFFFFF" rx="9" ry="9" style="stroke:#000000;stroke-width:1;"/><path d="M567.2146,287.4888 C566.4959,288.1606 565.199,289.3325 563.449,289.3325 C561.2303,289.3325 560.2615,287.395 560.2615,285.4419 C560.2615,283.0513 561.7459,281.7856 563.3865,281.7856 C565.4021,281.7856 565.6209,283.3013 565.7928,284.395 L567.2146,284.2075 C567.1209,283.6294 567.0428,283.0513 567.0428,282.0825 C567.0428,281.4106 567.0896,280.8638 567.1209,280.4419 L565.7146,280.4419 L565.6053,281.395 C565.0115,280.8638 564.3709,280.3169 563.1521,280.3169 C561.1053,280.3169 558.699,282.145 558.699,285.4575 C558.699,288.395 560.4646,290.7856 563.4646,290.7856 C565.9021,290.7856 567.6053,289.1606 568.199,288.5825 L567.2146,287.4888 Z " fill="#000000"/><text fill="#000000" font-family="Verdana" font-size="14" lengthAdjust="spacing" textLength="84.7314" x="581.3084" y="290.3667">Disturbance</text><line style="stroke:#000000;stroke-width:1;" x1="508.97" x2="710.8782" y1="299.52" y2="299.52"/><rect fill="none" height="6" style="stroke:#000000;stroke-width:1;" width="6" x="515.97" y="310.1684"/><text fill="#000000" font-family="Verdana" font-size="14" lengthAdjust="spacing" textLength="158.9082" x="525.97" y="316.5151">force_magnitude: float</text><rect fill="none" height="6" style="stroke:#000000;stroke-width:1;" width="6" x="515.97" y="326.4653"/><text fill="#000000" font-family="Verdana" font-size="14" lengthAdjust="spacing" textLength="111.1455" x="525.97" y="332.812">frequency: float</text><line style="stroke:#000000;stroke-width:1;" x1="508.97" x2="710.8782" y1="340.1138" y2="340.1138"/><ellipse cx="518.97" cy="353.7622" fill="#FFFFFF" rx="3" ry="3" style="stroke:#000000;stroke-width:1;"/><text fill="#000000" font-family="Verdana" font-size="14" lengthAdjust="spacing" textLength="179.9082" x="525.97" y="357.1089">apply_disturbance(): float</text></g><!--class PIDController--><g class="entity" data-entity="PIDController" data-source-line="36" data-uid="ent0006" id="entity_PIDController"><rect fill="#FFFFFF" height="44" rx="2.5" ry="2.5" style="stroke:#000000;stroke-width:1;" width="120.5244" x="746.66" y="295.97"/><ellipse cx="759.66" cy="309.97" fill="#FFFFFF" rx="9" ry="9" style="stroke:#000000;stroke-width:1;"/><path d="M763.0663,311.9387 C762.3475,312.6106 761.0506,313.7825 759.3006,313.7825 C757.0819,313.7825 756.1131,311.845 756.1131,309.8919 C756.1131,307.5012 757.5975,306.2356 759.2381,306.2356 C761.2538,306.2356 761.4725,307.7512 761.6444,308.845 L763.0663,308.6575 C762.9725,308.0794 762.8944,307.5012 762.8944,306.5325 C762.8944,305.8606 762.9413,305.3137 762.9725,304.8919 L761.5663,304.8919 L761.4569,305.845 C760.8631,305.3137 760.2225,304.7669 759.0038,304.7669 C756.9569,304.7669 754.5506,306.595 754.5506,309.9075 C754.5506,312.845 756.3163,315.2356 759.3163,315.2356 C761.7538,315.2356 763.4569,313.6106 764.0506,313.0325 L763.0663,311.9387 Z " fill="#000000"/><text fill="#000000" font-family="Verdana" font-size="14" lengthAdjust="spacing" textLength="92.5244" x="771.66" y="314.8167">PIDController</text><line style="stroke:#000000;stroke-width:1;" x1="747.66" x2="866.1844" y1="323.97" y2="323.97"/><line style="stroke:#000000;stroke-width:1;" x1="747.66" x2="866.1844" y1="331.97" y2="331.97"/></g><!--link RobotArmController to PIDController--><g class="link" data-entity-1="RobotArmController" data-entity-2="PIDController" data-source-line="36" data-uid="lnk7" id="link_RobotArmController_PIDController"><path codeLine="36" d="M597.9,174.72 C639.1,202.47 686.2,234.29 728.93,263.37 C744.41,273.91 756.6278,282.2879 770.9078,292.1179" fill="none" id="RobotArmController-to-PIDController" style="stroke:#000000;stroke-width:1;"/><polygon fill="#000000" points="775.85,295.52,770.7047,287.122,771.7315,292.6849,766.1686,293.7117,775.85,295.52" style="stroke:#000000;stroke-width:1;"/></g><!--link RobotArmController to AngleSensor--><g class="link" data-entity-1="RobotArmController" data-entity-2="AngleSensor" data-source-line="37" data-uid="lnk8" id="link_RobotArmController_AngleSensor"><path codeLine="37" d="M375.87,165.08 C322.39,196.33 264.2008,230.3335 213.4108,260.0035" fill="none" id="RobotArmController-to-AngleSensor" style="stroke:#000000;stroke-width:1;"/><polygon fill="#000000" points="208.23,263.03,218.0188,261.9442,212.5473,260.5079,213.9835,255.0365,208.23,263.03" style="stroke:#000000;stroke-width:1;"/></g><!--link RobotArmController to ServoMotor--><g class="link" data-entity-1="RobotArmController" data-entity-2="ServoMotor" data-source-line="38" data-uid="lnk9" id="link_RobotArmController_ServoMotor"><path codeLine="38" d="M437.78,186.8 C423.2,212.51 410.6,234.7009 397.55,257.7109" fill="none" id="RobotArmController-to-ServoMotor" style="stroke:#000000;stroke-width:1;"/><polygon fill="#000000" points="394.59,262.93,402.5093,257.0747,397.0566,258.5808,395.5506,253.1281,394.59,262.93" style="stroke:#000000;stroke-width:1;"/></g><!--link RobotArmController to Disturbance--><g class="link" data-entity-1="RobotArmController" data-entity-2="Disturbance" data-source-line="39" data-uid="lnk10" id="link_RobotArmController_Disturbance"><path codeLine="39" d="M536.07,186.8 C552.46,215.69 567.1195,241.5213 581.0295,266.0413" fill="none" id="RobotArmController-to-Disturbance" style="stroke:#000000;stroke-width:1;stroke-dasharray:7.0,7.0;"/><polygon fill="#000000" points="583.99,271.26,583.0283,261.4582,581.5229,266.9111,576.07,265.4056,583.99,271.26" style="stroke:#000000;stroke-width:1;"/><text fill="#000000" font-family="Verdana" font-size="13" lengthAdjust="spacing" textLength="73.6899" x="560.93" y="229.4369">affected by</text></g><!--SRC=[TP9DRi8m48NtEOMx2whW02oGKDbqKQag1x0czYHOjJtks06XgdUl0-IFqYoyy7kP-UQDdz817OfWmVWYVXeVWC49HvxKWIbBYLkSAF40cax6Dw866x4eb8KOnGTLbBRiNiWd9ckHnNSXyhSKmMYfXkkrU7_TZQwRHxNCw9C4trXSYzeIf9kKW1jyg3XAn3BGgQiw2iyYPl_qj_9oBcug8-ZhlOpe8t7PAstGaB27bPOe31g4OCzoqhAyd8lYfuzWsvNSNoeEitio4QN58zexTeJOSeu-3wtHmda-mSXOBkQA0cigpfZbfFKU-KXl7TkOUaSdhN4cpJipna0-KoNZy6zkazbaG5OPi8-WoxDVLA1eaY4_uWqmEnDJonLuXGDDJRcITD1uarfzjyUQyQj5h-uok2QknsgpNWyUt7AvkNjS_vWcc_hFCYRwoB5QRMPZhWNKDQg4MbJdNm00]--></g></svg>