<svg xmlns="http://www.w3.org/2000/svg" xmlns:xlink="http://www.w3.org/1999/xlink" contentStyleType="text/css" data-diagram-type="DESCRIPTION" height="885px" preserveAspectRatio="none" style="width:883px;height:885px;background:#FFFFFF;" version="1.1" viewBox="0 0 883 885" width="883px" zoomAndPan="magnify"><defs/><g><!--cluster Development Process--><g class="cluster" data-entity="Development Process" data-source-line="4" data-uid="ent0002" id="cluster_Development Process"><rect fill="none" height="472.48" rx="2.5" ry="2.5" style="stroke:#181818;stroke-width:1;" width="187" x="7" y="7"/><text fill="#000000" font-family="sans-serif" font-size="14" font-weight="bold" lengthAdjust="spacing" textLength="171.0352" x="14.9824" y="21.9951">Development Process</text></g><!--cluster Quality Gates--><g class="cluster" data-entity="Quality Gates" data-source-line="12" data-uid="ent0008" id="cluster_Quality Gates"><rect fill="none" height="87.3" rx="2.5" ry="2.5" style="stroke:#181818;stroke-width:1;" width="659" x="218" y="295.89"/><text fill="#000000" font-family="sans-serif" font-size="14" font-weight="bold" lengthAdjust="spacing" textLength="107.0645" x="493.9678" y="310.8851">Quality Gates</text></g><!--cluster Environments--><g class="cluster" data-entity="Environments" data-source-line="19" data-uid="ent0013" id="cluster_Environments"><rect fill="none" height="376.19" rx="2.5" ry="2.5" style="stroke:#181818;stroke-width:1;" width="146" x="46" y="503.48"/><text fill="#000000" font-family="sans-serif" font-size="14" font-weight="bold" lengthAdjust="spacing" textLength="109.0195" x="64.4902" y="518.4751">Environments</text></g><!--entity plan--><g class="entity" data-entity="plan" data-source-line="5" data-uid="ent0003" id="entity_plan"><rect fill="#F1F1F1" height="36.2969" rx="2.5" ry="2.5" style="stroke:#181818;stroke-width:0.5;" width="80.3066" x="71.85" y="42"/><text fill="#000000" font-family="sans-serif" font-size="14" lengthAdjust="spacing" textLength="60.3066" x="81.85" y="64.9951">Planning</text></g><!--entity impl--><g class="entity" data-entity="impl" data-source-line="6" data-uid="ent0004" id="entity_impl"><rect fill="#F1F1F1" height="36.2969" rx="2.5" ry="2.5" style="stroke:#181818;stroke-width:0.5;" width="131.166" x="46.42" y="138.3"/><text fill="#000000" font-family="sans-serif" font-size="14" lengthAdjust="spacing" textLength="111.166" x="56.42" y="161.2951">Implementation</text></g><!--entity quality--><g class="entity" data-entity="quality" data-source-line="7" data-uid="ent0005" id="entity_quality"><rect fill="#F1F1F1" height="36.2969" rx="2.5" ry="2.5" style="stroke:#181818;stroke-width:0.5;" width="117.542" x="60.23" y="234.59"/><text fill="#000000" font-family="sans-serif" font-size="14" lengthAdjust="spacing" textLength="97.542" x="70.23" y="257.5851">Quality Check</text></g><!--entity integ--><g class="entity" data-entity="integ" data-source-line="8" data-uid="ent0006" id="entity_integ"><rect fill="#F1F1F1" height="36.2969" rx="2.5" ry="2.5" style="stroke:#181818;stroke-width:0.5;" width="97.1436" x="70.43" y="330.89"/><text fill="#000000" font-family="sans-serif" font-size="14" lengthAdjust="spacing" textLength="77.1436" x="80.43" y="353.8851">Integration</text></g><!--entity deploy--><g class="entity" data-entity="deploy" data-source-line="9" data-uid="ent0007" id="entity_deploy"><rect fill="#F1F1F1" height="36.2969" rx="2.5" ry="2.5" style="stroke:#181818;stroke-width:0.5;" width="105.6338" x="66.18" y="427.19"/><text fill="#000000" font-family="sans-serif" font-size="14" lengthAdjust="spacing" textLength="85.6338" x="76.18" y="450.1851">Deployment</text></g><!--entity review--><g class="entity" data-entity="review" data-source-line="13" data-uid="ent0009" id="entity_review"><rect fill="#F1F1F1" height="36.2969" rx="2.5" ry="2.5" style="stroke:#181818;stroke-width:0.5;" width="110.8701" x="750.56" y="330.89"/><text fill="#000000" font-family="sans-serif" font-size="14" lengthAdjust="spacing" textLength="90.8701" x="760.56" y="353.8851">Code Review</text></g><!--entity tests--><g class="entity" data-entity="tests" data-source-line="14" data-uid="ent0010" id="entity_tests"><rect fill="#F1F1F1" height="36.2969" rx="2.5" ry="2.5" style="stroke:#181818;stroke-width:0.5;" width="139.4033" x="576.3" y="330.89"/><text fill="#000000" font-family="sans-serif" font-size="14" lengthAdjust="spacing" textLength="119.4033" x="586.3" y="353.8851">Automated Tests</text></g><!--entity perf--><g class="entity" data-entity="perf" data-source-line="15" data-uid="ent0011" id="entity_perf"><rect fill="#F1F1F1" height="36.2969" rx="2.5" ry="2.5" style="stroke:#181818;stroke-width:0.5;" width="156.9785" x="384.51" y="330.89"/><text fill="#000000" font-family="sans-serif" font-size="14" lengthAdjust="spacing" textLength="136.9785" x="394.51" y="353.8851">Performance Check</text></g><!--entity security--><g class="entity" data-entity="security" data-source-line="16" data-uid="ent0012" id="entity_security"><rect fill="#F1F1F1" height="36.2969" rx="2.5" ry="2.5" style="stroke:#181818;stroke-width:0.5;" width="115.9766" x="234.01" y="330.89"/><text fill="#000000" font-family="sans-serif" font-size="14" lengthAdjust="spacing" textLength="95.9766" x="244.01" y="353.8851">Security Scan</text></g><!--entity dev--><g class="entity" data-entity="dev" data-source-line="20" data-uid="ent0014" id="entity_dev"><rect fill="#F1F1F1" height="36.2969" rx="2.5" ry="2.5" style="stroke:#181818;stroke-width:0.5;" width="114.2471" x="61.88" y="538.48"/><text fill="#000000" font-family="sans-serif" font-size="14" lengthAdjust="spacing" textLength="94.2471" x="71.88" y="561.4751">Development</text></g><!--entity test--><g class="entity" data-entity="test" data-source-line="21" data-uid="ent0015" id="entity_test"><rect fill="#F1F1F1" height="36.2969" rx="2.5" ry="2.5" style="stroke:#181818;stroke-width:0.5;" width="71.5977" x="83.2" y="634.78"/><text fill="#000000" font-family="sans-serif" font-size="14" lengthAdjust="spacing" textLength="51.5977" x="93.2" y="657.7751">Testing</text></g><!--entity stage--><g class="entity" data-entity="stage" data-source-line="22" data-uid="ent0016" id="entity_stage"><rect fill="#F1F1F1" height="36.2969" rx="2.5" ry="2.5" style="stroke:#181818;stroke-width:0.5;" width="73.4912" x="82.25" y="731.08"/><text fill="#000000" font-family="sans-serif" font-size="14" lengthAdjust="spacing" textLength="53.4912" x="92.25" y="754.0751">Staging</text></g><!--entity prod--><g class="entity" data-entity="prod" data-source-line="23" data-uid="ent0017" id="entity_prod"><rect fill="#F1F1F1" height="36.2969" rx="2.5" ry="2.5" style="stroke:#181818;stroke-width:0.5;" width="95.0381" x="71.48" y="827.37"/><text fill="#000000" font-family="sans-serif" font-size="14" lengthAdjust="spacing" textLength="75.0381" x="81.48" y="850.3651">Production</text></g><!--link plan to impl--><g class="link" data-entity-1="plan" data-entity-2="impl" data-source-line="26" data-uid="lnk18" id="link_plan_impl"><path d="M112,78.44 C112,95.35 112,114.96 112,131.94" fill="none" id="plan-to-impl" style="stroke:#181818;stroke-width:1;"/><polygon fill="#181818" points="112,137.94,116,128.94,112,132.94,108,128.94,112,137.94" style="stroke:#181818;stroke-width:1;"/></g><!--link impl to quality--><g class="link" data-entity-1="impl" data-entity-2="quality" data-source-line="27" data-uid="lnk19" id="link_impl_quality"><path d="M113.28,174.74 C114.54,191.65 115.996,211.2765 117.256,228.2565" fill="none" id="impl-to-quality" style="stroke:#181818;stroke-width:1;"/><polygon fill="#181818" points="117.7,234.24,121.023,224.9687,117.33,229.2537,113.045,225.5607,117.7,234.24" style="stroke:#181818;stroke-width:1;"/></g><!--link quality to integ--><g class="link" data-entity-1="quality" data-entity-2="integ" data-source-line="28" data-uid="lnk20" id="link_quality_integ"><path d="M119,271.04 C119,287.94 119,307.55 119,324.53" fill="none" id="quality-to-integ" style="stroke:#181818;stroke-width:1;"/><polygon fill="#181818" points="119,330.53,123,321.53,119,325.53,115,321.53,119,330.53" style="stroke:#181818;stroke-width:1;"/></g><!--link integ to deploy--><g class="link" data-entity-1="integ" data-entity-2="deploy" data-source-line="29" data-uid="lnk21" id="link_integ_deploy"><path d="M119,367.33 C119,384.24 119,403.85 119,420.83" fill="none" id="integ-to-deploy" style="stroke:#181818;stroke-width:1;"/><polygon fill="#181818" points="119,426.83,123,417.83,119,421.83,115,417.83,119,426.83" style="stroke:#181818;stroke-width:1;"/></g><!--link quality to review--><g class="link" data-entity-1="quality" data-entity-2="review" data-source-line="31" data-uid="lnk22" id="link_quality_review"><path d="M178.17,254.94 C322.06,258.14 682.25,268.07 733,287.89 C756.1,296.91 773.2146,311.8632 786.7646,326.1732" fill="none" id="quality-to-review" style="stroke:#181818;stroke-width:1;"/><polygon fill="#181818" points="790.89,330.53,787.6064,321.2446,787.4522,326.8994,781.7974,326.7451,790.89,330.53" style="stroke:#181818;stroke-width:1;"/></g><!--link quality to tests--><g class="link" data-entity-1="quality" data-entity-2="tests" data-source-line="32" data-uid="lnk23" id="link_quality_tests"><path d="M177.98,254.52 C281.26,256.52 490.41,263.53 559,287.89 C585.13,297.17 606.1458,312.5237 622.7358,326.7537" fill="none" id="quality-to-tests" style="stroke:#181818;stroke-width:1;"/><polygon fill="#181818" points="627.29,330.66,623.0629,321.7644,623.4948,327.4047,617.8545,327.8366,627.29,330.66" style="stroke:#181818;stroke-width:1;"/></g><!--link quality to perf--><g class="link" data-entity-1="quality" data-entity-2="perf" data-source-line="33" data-uid="lnk24" id="link_quality_perf"><path d="M178.04,254.92 C229.37,257.56 305.01,265.38 367,287.89 C394.55,297.89 417.746,313.0354 436.336,326.9454" fill="none" id="quality-to-perf" style="stroke:#181818;stroke-width:1;"/><polygon fill="#181818" points="441.14,330.54,436.3304,321.9454,437.1366,327.5445,431.5375,328.3508,441.14,330.54" style="stroke:#181818;stroke-width:1;"/></g><!--link quality to security--><g class="link" data-entity-1="quality" data-entity-2="security" data-source-line="34" data-uid="lnk25" id="link_quality_security"><path d="M159.92,271.27 C171.11,276.36 183.14,282.11 194,287.89 C218.85,301.11 241.0172,314.7589 260.4372,327.2789" fill="none" id="quality-to-security" style="stroke:#181818;stroke-width:1;"/><polygon fill="#181818" points="265.48,330.53,260.0831,322.2914,261.2776,327.8207,255.7483,329.0152,265.48,330.53" style="stroke:#181818;stroke-width:1;"/></g><!--link deploy to dev--><g class="link" data-entity-1="deploy" data-entity-2="dev" data-source-line="36" data-uid="lnk26" id="link_deploy_dev"><path d="M119,463.89 C119,484.29 119,511.74 119,532.11" fill="none" id="deploy-to-dev" style="stroke:#181818;stroke-width:1;"/><polygon fill="#181818" points="119,538.11,123,529.11,119,533.11,115,529.11,119,538.11" style="stroke:#181818;stroke-width:1;"/></g><!--link dev to test--><g class="link" data-entity-1="dev" data-entity-2="test" data-source-line="37" data-uid="lnk27" id="link_dev_test"><path d="M119,574.93 C119,591.83 119,611.44 119,628.42" fill="none" id="dev-to-test" style="stroke:#181818;stroke-width:1;"/><polygon fill="#181818" points="119,634.42,123,625.42,119,629.42,115,625.42,119,634.42" style="stroke:#181818;stroke-width:1;"/></g><!--link test to stage--><g class="link" data-entity-1="test" data-entity-2="stage" data-source-line="38" data-uid="lnk28" id="link_test_stage"><path d="M119,671.22 C119,688.13 119,707.74 119,724.72" fill="none" id="test-to-stage" style="stroke:#181818;stroke-width:1;"/><polygon fill="#181818" points="119,730.72,123,721.72,119,725.72,115,721.72,119,730.72" style="stroke:#181818;stroke-width:1;"/></g><!--link stage to prod--><g class="link" data-entity-1="stage" data-entity-2="prod" data-source-line="39" data-uid="lnk29" id="link_stage_prod"><path d="M119,767.52 C119,784.43 119,804.04 119,821.02" fill="none" id="stage-to-prod" style="stroke:#181818;stroke-width:1;"/><polygon fill="#181818" points="119,827.02,123,818.02,119,822.02,115,818.02,119,827.02" style="stroke:#181818;stroke-width:1;"/></g><!--SRC=[RLBBRiCW4Bpp5IZt_4AbAgcgtjAcFx326nk5Lm4xYgh-Us6nBOBZmvePZuQTNOUhD0uyQAwjiMBmLYEFVaGMrYzXWCxUfEdv1LH0nZoA2APNo7T7d51Pfz54Vl9MO0Wx_ijuUYhLIO4noM378N2NG2luq4vXDe4ehI6PJ5Gh-nn1oNZdXm75bLG_XTducOYzhymoRaL7TChUywsawGYoluTyoutl4F5PieFja7_X9F569fwEhUfrZ5OdXuv_OuY1b36VDeD2Vx5UWn5OXNI9RPLd5AFFdPq5b8nXPfe4RsQItfeSyrc0Qe7p5APMadjUbfUxthGIeL- -XtJ6JIflkr6iot09vYRpZy3t-vUowbm8BIkTtqL1-wDAUDxLWsOUVKsL6TSCZR8crgcnuZdRJmbEgmVBfSWf7zNYbxFy0m00]--></g></svg>