<svg xmlns="http://www.w3.org/2000/svg" xmlns:xlink="http://www.w3.org/1999/xlink" contentStyleType="text/css" data-diagram-type="DESCRIPTION" height="719px" preserveAspectRatio="none" style="width:491px;height:719px;background:#FFFFFF;" version="1.1" viewBox="0 0 491 719" width="491px" zoomAndPan="magnify"><defs/><g><!--cluster Requirements Gathering Process--><g class="cluster" data-entity="Requirements Gathering Process" data-source-line="5" data-uid="ent0002" id="cluster_Requirements Gathering Process"><path d="M13.5,11 L274.8125,11 A3.75,3.75 0 0 1 277.3125,13.5 L284.3125,33.2969 L481.5,33.2969 A2.5,2.5 0 0 1 484,35.7969 L484,709.98 A2.5,2.5 0 0 1 481.5,712.48 L13.5,712.48 A2.5,2.5 0 0 1 11,709.98 L11,13.5 A2.5,2.5 0 0 1 13.5,11" fill="#FFFFFF" style="stroke:#000000;stroke-width:1;"/><line style="stroke:#000000;stroke-width:1;" x1="11" x2="284.3125" y1="33.2969" y2="33.2969"/><text fill="#000000" font-family="Verdana" font-size="14" font-weight="bold" lengthAdjust="spacing" textLength="260.3125" x="15" y="25.9951">Requirements Gathering Process</text></g><!--entity Stakeholder Identification--><g class="entity" data-entity="Stakeholder Identification" data-source-line="6" data-uid="ent0003" id="entity_Stakeholder Identification"><rect fill="#FFFFFF" height="46.2969" rx="2.5" ry="2.5" style="stroke:#000000;stroke-width:1;" width="220.5029" x="26.75" y="58.11"/><rect fill="#FFFFFF" height="10" style="stroke:#000000;stroke-width:1;" width="15" x="227.2529" y="63.11"/><rect fill="#FFFFFF" height="2" style="stroke:#000000;stroke-width:1;" width="4" x="225.2529" y="65.11"/><rect fill="#FFFFFF" height="2" style="stroke:#000000;stroke-width:1;" width="4" x="225.2529" y="69.11"/><text fill="#000000" font-family="Verdana" font-size="14" lengthAdjust="spacing" textLength="180.5029" x="41.75" y="91.1051">Stakeholder Identification</text></g><!--entity Needs Assessment--><g class="entity" data-entity="Needs Assessment" data-source-line="6" data-uid="ent0004" id="entity_Needs Assessment"><rect fill="#FFFFFF" height="46.2969" rx="2.5" ry="2.5" style="stroke:#000000;stroke-width:1;" width="172.3096" x="54.85" y="176.53"/><rect fill="#FFFFFF" height="10" style="stroke:#000000;stroke-width:1;" width="15" x="207.1596" y="181.53"/><rect fill="#FFFFFF" height="2" style="stroke:#000000;stroke-width:1;" width="4" x="205.1596" y="183.53"/><rect fill="#FFFFFF" height="2" style="stroke:#000000;stroke-width:1;" width="4" x="205.1596" y="187.53"/><text fill="#000000" font-family="Verdana" font-size="14" lengthAdjust="spacing" textLength="132.3096" x="69.85" y="209.5251">Needs Assessment</text></g><!--entity Market Research--><g class="entity" data-entity="Market Research" data-source-line="7" data-uid="ent0006" id="entity_Market Research"><rect fill="#FFFFFF" height="46.2969" rx="2.5" ry="2.5" style="stroke:#000000;stroke-width:1;" width="158.2275" x="68.89" y="294.94"/><rect fill="#FFFFFF" height="10" style="stroke:#000000;stroke-width:1;" width="15" x="207.1175" y="299.94"/><rect fill="#FFFFFF" height="2" style="stroke:#000000;stroke-width:1;" width="4" x="205.1175" y="301.94"/><rect fill="#FFFFFF" height="2" style="stroke:#000000;stroke-width:1;" width="4" x="205.1175" y="305.94"/><text fill="#000000" font-family="Verdana" font-size="14" lengthAdjust="spacing" textLength="118.2275" x="83.89" y="327.9351">Market Research</text></g><!--entity Requirements Documentation--><g class="entity" data-entity="Requirements Documentation" data-source-line="8" data-uid="ent0008" id="entity_Requirements Documentation"><rect fill="#FFFFFF" height="46.2969" rx="2.5" ry="2.5" style="stroke:#000000;stroke-width:1;" width="250.6426" x="26.68" y="413.36"/><rect fill="#FFFFFF" height="10" style="stroke:#000000;stroke-width:1;" width="15" x="257.3226" y="418.36"/><rect fill="#FFFFFF" height="2" style="stroke:#000000;stroke-width:1;" width="4" x="255.3226" y="420.36"/><rect fill="#FFFFFF" height="2" style="stroke:#000000;stroke-width:1;" width="4" x="255.3226" y="424.36"/><text fill="#000000" font-family="Verdana" font-size="14" lengthAdjust="spacing" textLength="210.6426" x="41.68" y="446.3551">Requirements Documentation</text></g><!--entity Feasibility Analysis--><g class="entity" data-entity="Feasibility Analysis" data-source-line="9" data-uid="ent0010" id="entity_Feasibility Analysis"><rect fill="#FFFFFF" height="46.2969" rx="2.5" ry="2.5" style="stroke:#000000;stroke-width:1;" width="172.8906" x="65.55" y="531.77"/><rect fill="#FFFFFF" height="10" style="stroke:#000000;stroke-width:1;" width="15" x="218.4406" y="536.77"/><rect fill="#FFFFFF" height="2" style="stroke:#000000;stroke-width:1;" width="4" x="216.4406" y="538.77"/><rect fill="#FFFFFF" height="2" style="stroke:#000000;stroke-width:1;" width="4" x="216.4406" y="542.77"/><text fill="#000000" font-family="Verdana" font-size="14" lengthAdjust="spacing" textLength="132.8906" x="80.55" y="564.7651">Feasibility Analysis</text></g><!--entity Scope Definition--><g class="entity" data-entity="Scope Definition" data-source-line="10" data-uid="ent0012" id="entity_Scope Definition"><rect fill="#FFFFFF" height="46.2969" rx="2.5" ry="2.5" style="stroke:#000000;stroke-width:1;" width="154.8916" x="74.55" y="650.18"/><rect fill="#FFFFFF" height="10" style="stroke:#000000;stroke-width:1;" width="15" x="209.4416" y="655.18"/><rect fill="#FFFFFF" height="2" style="stroke:#000000;stroke-width:1;" width="4" x="207.4416" y="657.18"/><rect fill="#FFFFFF" height="2" style="stroke:#000000;stroke-width:1;" width="4" x="207.4416" y="661.18"/><text fill="#000000" font-family="Verdana" font-size="14" lengthAdjust="spacing" textLength="114.8916" x="89.55" y="683.1751">Scope Definition</text></g><g class="entity" data-entity="GMN14" data-source-line="13" data-uid="ent0015" id="entity_GMN14"><path d="M281.97,46 L281.97,77.26 L247.63,81.26 L281.97,85.26 L281.97,116.5313 A0,0 0 0 0 281.97,116.5313 L468.0281,116.5313 A0,0 0 0 0 468.0281,116.5313 L468.0281,56 L458.0281,46 L281.97,46 A0,0 0 0 0 281.97,46" fill="#FFFFFF" style="stroke:#000000;stroke-width:1;"/><path d="M458.0281,46 L458.0281,56 L468.0281,56 L458.0281,46" fill="#FFFFFF" style="stroke:#000000;stroke-width:1;"/><text fill="#000000" font-family="Verdana" font-size="13" lengthAdjust="spacing" textLength="101.5244" x="287.97" y="63.0669">&#8226; Primary users</text><text fill="#000000" font-family="Verdana" font-size="13" lengthAdjust="spacing" textLength="156.7935" x="287.97" y="78.1997">&#8226; Business stakeholders</text><text fill="#000000" font-family="Verdana" font-size="13" lengthAdjust="spacing" textLength="118.333" x="287.97" y="93.3325">&#8226; Technical teams</text><text fill="#000000" font-family="Verdana" font-size="13" lengthAdjust="spacing" textLength="129.9619" x="287.97" y="108.4653">&#8226; Regulatory bodies</text></g><g class="entity" data-entity="GMN17" data-source-line="20" data-uid="ent0018" id="entity_GMN17"><path d="M261.69,282.82 L261.69,314.09 L227.28,318.09 L261.69,322.09 L261.69,353.3513 A0,0 0 0 0 261.69,353.3513 L430.3111,353.3513 A0,0 0 0 0 430.3111,353.3513 L430.3111,292.82 L420.3111,282.82 L261.69,282.82 A0,0 0 0 0 261.69,282.82" fill="#FFFFFF" style="stroke:#000000;stroke-width:1;"/><path d="M420.3111,282.82 L420.3111,292.82 L430.3111,292.82 L420.3111,282.82" fill="#FFFFFF" style="stroke:#000000;stroke-width:1;"/><text fill="#000000" font-family="Verdana" font-size="13" lengthAdjust="spacing" textLength="147.6211" x="267.69" y="299.8869">&#8226; Competitive analysis</text><text fill="#000000" font-family="Verdana" font-size="13" lengthAdjust="spacing" textLength="96.0781" x="267.69" y="315.0197">&#8226; User surveys</text><text fill="#000000" font-family="Verdana" font-size="13" lengthAdjust="spacing" textLength="111.1094" x="267.69" y="330.1525">&#8226; Industry trends</text><text fill="#000000" font-family="Verdana" font-size="13" lengthAdjust="spacing" textLength="94.8594" x="267.69" y="345.2853">&#8226; Gap analysis</text></g><g class="entity" data-entity="GMN20" data-source-line="27" data-uid="ent0021" id="entity_GMN20"><path d="M273.94,519.65 L273.94,550.92 L238.91,554.92 L273.94,558.92 L273.94,590.1813 A0,0 0 0 0 273.94,590.1813 L442.0533,590.1813 A0,0 0 0 0 442.0533,590.1813 L442.0533,529.65 L432.0533,519.65 L273.94,519.65 A0,0 0 0 0 273.94,519.65" fill="#FFFFFF" style="stroke:#000000;stroke-width:1;"/><path d="M432.0533,519.65 L432.0533,529.65 L442.0533,529.65 L432.0533,519.65" fill="#FFFFFF" style="stroke:#000000;stroke-width:1;"/><text fill="#000000" font-family="Verdana" font-size="13" lengthAdjust="spacing" textLength="140.6387" x="279.94" y="536.7169">&#8226; Technical feasibility</text><text fill="#000000" font-family="Verdana" font-size="13" lengthAdjust="spacing" textLength="124.9536" x="279.94" y="551.8497">&#8226; Financial viability</text><text fill="#000000" font-family="Verdana" font-size="13" lengthAdjust="spacing" textLength="143.8506" x="279.94" y="566.9825">&#8226; Timeline constraints</text><text fill="#000000" font-family="Verdana" font-size="13" lengthAdjust="spacing" textLength="147.1133" x="279.94" y="582.1153">&#8226; Resource availability</text></g><!--link Stakeholder Identification to Needs Assessment--><g class="link" data-entity-1="Stakeholder Identification" data-entity-2="Needs Assessment" data-source-line="6" data-uid="lnk5" id="link_Stakeholder Identification_Needs Assessment"><path d="M137.77,104.71 C138.48,125.32 139.3132,149.7136 140.0232,170.3036" fill="none" id="Stakeholder Identification-to-Needs Assessment" style="stroke:#000000;stroke-width:1;"/><polygon fill="#000000" points="140.23,176.3,143.9175,167.1675,140.0577,171.303,135.9222,167.4432,140.23,176.3" style="stroke:#000000;stroke-width:1;"/></g><!--link Needs Assessment to Market Research--><g class="link" data-entity-1="Needs Assessment" data-entity-2="Market Research" data-source-line="7" data-uid="lnk7" id="link_Needs Assessment_Market Research"><path d="M142.35,223.12 C143.59,243.74 145.0622,268.1307 146.2922,288.7207" fill="none" id="Needs Assessment-to-Market Research" style="stroke:#000000;stroke-width:1;"/><polygon fill="#000000" points="146.65,294.71,150.1062,285.4875,146.3518,289.7189,142.1204,285.9645,146.65,294.71" style="stroke:#000000;stroke-width:1;"/></g><!--link Market Research to Requirements Documentation--><g class="link" data-entity-1="Market Research" data-entity-2="Requirements Documentation" data-source-line="8" data-uid="lnk9" id="link_Market Research_Requirements Documentation"><path d="M148.77,341.54 C149.48,362.15 150.3133,386.5336 151.0233,407.1336" fill="none" id="Market Research-to-Requirements Documentation" style="stroke:#000000;stroke-width:1;"/><polygon fill="#000000" points="151.23,413.13,154.9176,403.9976,151.0578,408.133,146.9224,404.2731,151.23,413.13" style="stroke:#000000;stroke-width:1;"/></g><!--link Requirements Documentation to Feasibility Analysis--><g class="link" data-entity-1="Requirements Documentation" data-entity-2="Feasibility Analysis" data-source-line="9" data-uid="lnk11" id="link_Requirements Documentation_Feasibility Analysis"><path d="M152,459.95 C152,480.56 152,504.95 152,525.54" fill="none" id="Requirements Documentation-to-Feasibility Analysis" style="stroke:#000000;stroke-width:1;"/><polygon fill="#000000" points="152,531.54,156,522.54,152,526.54,148,522.54,152,531.54" style="stroke:#000000;stroke-width:1;"/></g><!--link Feasibility Analysis to Scope Definition--><g class="link" data-entity-1="Feasibility Analysis" data-entity-2="Scope Definition" data-source-line="10" data-uid="lnk13" id="link_Feasibility Analysis_Scope Definition"><path d="M152,578.36 C152,598.98 152,623.36 152,643.95" fill="none" id="Feasibility Analysis-to-Scope Definition" style="stroke:#000000;stroke-width:1;"/><polygon fill="#000000" points="152,649.95,156,640.95,152,644.95,148,640.95,152,649.95" style="stroke:#000000;stroke-width:1;"/></g><!--SRC=[VLDBJiCm4Dtt50Dxhe04L5HTW50Bguh5u4oQKHqxUEoW225n5ex6IPZMvUEsr2lBxpFFp_99RAWbw2oo6ycANOS1MsYzywO9Ng4O4lr1fC7Alx1RGerMQ3JgqAnmIN0we-V4GTrS59YW6eSrxIvuGoAdy3e2NOjvn1KrtbOKO5efcMis6DcxHpWxEuV5BL4bS26YghNPOzRj7MVs3OOLHPYH40RJRCcxfvbR91nxazQxF3hBZX2ompMXy1DRZWDSEBI3i6or1w6icXlV4OofPiTvsaRYV2G8l6mY-FfeCHlwUds-VsYXt68O80a5AP3B9Eoq7f1VAm4eEFTa6gU-5Y9XM-fdj4mMerVp9rynPPHSjObwCFJ1-h_zhdpRKTGhzmIuhQGWFEWLG5BeQIY1gQkIHCqHWuuliGbsfTlHWF-_s7uZzI-tO5opGsTO6JtZ0VoUMxBQF1ZlDBL-fRXRhFWKZBRG8zk_5Z_Ptxu0]--></g></svg>