<svg xmlns="http://www.w3.org/2000/svg" xmlns:xlink="http://www.w3.org/1999/xlink" contentStyleType="text/css" data-diagram-type="DESCRIPTION" height="653px" preserveAspectRatio="none" style="width:1303px;height:653px;background:#FFFFFF;" version="1.1" viewBox="0 0 1303 653" width="1303px" zoomAndPan="magnify"><defs/><g><!--cluster Project Scope Definition--><g class="cluster" data-entity="Project Scope Definition" data-source-line="5" data-uid="ent0002" id="cluster_Project Scope Definition"><path d="M13.5,84.64 L205.6807,84.64 A3.75,3.75 0 0 1 208.1807,87.14 L215.1807,106.9369 L928.5,106.9369 A2.5,2.5 0 0 1 931,109.4369 L931,644.33 A2.5,2.5 0 0 1 928.5,646.83 L13.5,646.83 A2.5,2.5 0 0 1 11,644.33 L11,87.14 A2.5,2.5 0 0 1 13.5,84.64" fill="#FFFFFF" style="stroke:#000000;stroke-width:1;"/><line style="stroke:#000000;stroke-width:1;" x1="11" x2="215.1807" y1="106.9369" y2="106.9369"/><text fill="#000000" font-family="Verdana" font-size="14" font-weight="bold" lengthAdjust="spacing" textLength="191.1807" x="15" y="99.6351">Project Scope Definition</text></g><!--cluster In Scope--><g class="cluster" data-entity="In Scope" data-source-line="6" data-uid="ent0003" id="cluster_In Scope"><rect fill="#FFFFFF" height="219.6" rx="2.5" ry="2.5" style="stroke:#000000;stroke-width:1;" width="381" x="518" y="135.64"/><text fill="#000000" font-family="Verdana" font-size="14" font-weight="bold" lengthAdjust="spacing" textLength="67.5664" x="674.7168" y="150.6351">In Scope</text></g><!--cluster Out of Scope--><g class="cluster" data-entity="Out of Scope" data-source-line="13" data-uid="ent0008" id="cluster_Out of Scope"><rect fill="#FFFFFF" height="219.6" rx="2.5" ry="2.5" style="stroke:#000000;stroke-width:1;" width="435" x="43" y="135.64"/><text fill="#000000" font-family="Verdana" font-size="14" font-weight="bold" lengthAdjust="spacing" textLength="101.5342" x="209.7329" y="150.6351">Out of Scope</text></g><!--cluster Future Scope--><g class="cluster" data-entity="Future Scope" data-source-line="20" data-uid="ent0013" id="cluster_Future Scope"><rect fill="#FFFFFF" height="219.59" rx="2.5" ry="2.5" style="stroke:#000000;stroke-width:1;" width="491" x="408" y="395.24"/><text fill="#000000" font-family="Verdana" font-size="14" font-weight="bold" lengthAdjust="spacing" textLength="104.9795" x="601.0103" y="410.2351">Future Scope</text></g><!--entity Core Features--><g class="entity" data-entity="Core Features" data-source-line="7" data-uid="ent0004" id="entity_Core Features"><rect fill="#FFFFFF" height="46.2969" rx="2.5" ry="2.5" style="stroke:#000000;stroke-width:1;" width="138.4307" x="561.78" y="178.64"/><rect fill="#FFFFFF" height="10" style="stroke:#000000;stroke-width:1;" width="15" x="680.2107" y="183.64"/><rect fill="#FFFFFF" height="2" style="stroke:#000000;stroke-width:1;" width="4" x="678.2107" y="185.64"/><rect fill="#FFFFFF" height="2" style="stroke:#000000;stroke-width:1;" width="4" x="678.2107" y="189.64"/><text fill="#000000" font-family="Verdana" font-size="14" lengthAdjust="spacing" textLength="98.4307" x="576.78" y="211.6351">Core Features</text></g><!--entity Primary Users--><g class="entity" data-entity="Primary Users" data-source-line="8" data-uid="ent0005" id="entity_Primary Users"><rect fill="#FFFFFF" height="46.2969" rx="2.5" ry="2.5" style="stroke:#000000;stroke-width:1;" width="138" x="735" y="178.64"/><rect fill="#FFFFFF" height="10" style="stroke:#000000;stroke-width:1;" width="15" x="853" y="183.64"/><rect fill="#FFFFFF" height="2" style="stroke:#000000;stroke-width:1;" width="4" x="851" y="185.64"/><rect fill="#FFFFFF" height="2" style="stroke:#000000;stroke-width:1;" width="4" x="851" y="189.64"/><text fill="#000000" font-family="Verdana" font-size="14" lengthAdjust="spacing" textLength="98" x="750" y="211.6351">Primary Users</text></g><!--entity Essential Data--><g class="entity" data-entity="Essential Data" data-source-line="9" data-uid="ent0006" id="entity_Essential Data"><rect fill="#FFFFFF" height="46.2969" rx="2.5" ry="2.5" style="stroke:#000000;stroke-width:1;" width="140.6455" x="549.68" y="284.94"/><rect fill="#FFFFFF" height="10" style="stroke:#000000;stroke-width:1;" width="15" x="670.3255" y="289.94"/><rect fill="#FFFFFF" height="2" style="stroke:#000000;stroke-width:1;" width="4" x="668.3255" y="291.94"/><rect fill="#FFFFFF" height="2" style="stroke:#000000;stroke-width:1;" width="4" x="668.3255" y="295.94"/><text fill="#000000" font-family="Verdana" font-size="14" lengthAdjust="spacing" textLength="100.6455" x="564.68" y="317.9351">Essential Data</text></g><!--entity Target Platform--><g class="entity" data-entity="Target Platform" data-source-line="10" data-uid="ent0007" id="entity_Target Platform"><rect fill="#FFFFFF" height="46.2969" rx="2.5" ry="2.5" style="stroke:#000000;stroke-width:1;" width="149.6143" x="725.19" y="284.94"/><rect fill="#FFFFFF" height="10" style="stroke:#000000;stroke-width:1;" width="15" x="854.8043" y="289.94"/><rect fill="#FFFFFF" height="2" style="stroke:#000000;stroke-width:1;" width="4" x="852.8043" y="291.94"/><rect fill="#FFFFFF" height="2" style="stroke:#000000;stroke-width:1;" width="4" x="852.8043" y="295.94"/><text fill="#000000" font-family="Verdana" font-size="14" lengthAdjust="spacing" textLength="109.6143" x="740.19" y="317.9351">Target Platform</text></g><!--entity Advanced Features--><g class="entity" data-entity="Advanced Features" data-source-line="14" data-uid="ent0009" id="entity_Advanced Features"><rect fill="#FFFFFF" height="46.2969" rx="2.5" ry="2.5" style="stroke:#000000;stroke-width:1;" width="175.1191" x="86.44" y="178.64"/><rect fill="#FFFFFF" height="10" style="stroke:#000000;stroke-width:1;" width="15" x="241.5591" y="183.64"/><rect fill="#FFFFFF" height="2" style="stroke:#000000;stroke-width:1;" width="4" x="239.5591" y="185.64"/><rect fill="#FFFFFF" height="2" style="stroke:#000000;stroke-width:1;" width="4" x="239.5591" y="189.64"/><text fill="#000000" font-family="Verdana" font-size="14" lengthAdjust="spacing" textLength="135.1191" x="101.44" y="211.6351">Advanced Features</text></g><!--entity Secondary Users--><g class="entity" data-entity="Secondary Users" data-source-line="15" data-uid="ent0010" id="entity_Secondary Users"><rect fill="#FFFFFF" height="46.2969" rx="2.5" ry="2.5" style="stroke:#000000;stroke-width:1;" width="157.7969" x="296.1" y="178.64"/><rect fill="#FFFFFF" height="10" style="stroke:#000000;stroke-width:1;" width="15" x="433.8969" y="183.64"/><rect fill="#FFFFFF" height="2" style="stroke:#000000;stroke-width:1;" width="4" x="431.8969" y="185.64"/><rect fill="#FFFFFF" height="2" style="stroke:#000000;stroke-width:1;" width="4" x="431.8969" y="189.64"/><text fill="#000000" font-family="Verdana" font-size="14" lengthAdjust="spacing" textLength="117.7969" x="311.1" y="211.6351">Secondary Users</text></g><!--entity Legacy Data--><g class="entity" data-entity="Legacy Data" data-source-line="16" data-uid="ent0011" id="entity_Legacy Data"><rect fill="#FFFFFF" height="46.2969" rx="2.5" ry="2.5" style="stroke:#000000;stroke-width:1;" width="127.7393" x="109.13" y="284.94"/><rect fill="#FFFFFF" height="10" style="stroke:#000000;stroke-width:1;" width="15" x="216.8693" y="289.94"/><rect fill="#FFFFFF" height="2" style="stroke:#000000;stroke-width:1;" width="4" x="214.8693" y="291.94"/><rect fill="#FFFFFF" height="2" style="stroke:#000000;stroke-width:1;" width="4" x="214.8693" y="295.94"/><text fill="#000000" font-family="Verdana" font-size="14" lengthAdjust="spacing" textLength="87.7393" x="124.13" y="317.9351">Legacy Data</text></g><!--entity Additional Platforms--><g class="entity" data-entity="Additional Platforms" data-source-line="17" data-uid="ent0012" id="entity_Additional Platforms"><rect fill="#FFFFFF" height="46.2969" rx="2.5" ry="2.5" style="stroke:#000000;stroke-width:1;" width="181.5586" x="272.22" y="284.94"/><rect fill="#FFFFFF" height="10" style="stroke:#000000;stroke-width:1;" width="15" x="433.7786" y="289.94"/><rect fill="#FFFFFF" height="2" style="stroke:#000000;stroke-width:1;" width="4" x="431.7786" y="291.94"/><rect fill="#FFFFFF" height="2" style="stroke:#000000;stroke-width:1;" width="4" x="431.7786" y="295.94"/><text fill="#000000" font-family="Verdana" font-size="14" lengthAdjust="spacing" textLength="141.5586" x="287.22" y="317.9351">Additional Platforms</text></g><!--entity Phase 2 Features--><g class="entity" data-entity="Phase 2 Features" data-source-line="21" data-uid="ent0014" id="entity_Phase 2 Features"><rect fill="#FFFFFF" height="46.2969" rx="2.5" ry="2.5" style="stroke:#000000;stroke-width:1;" width="160.8799" x="478.56" y="438.24"/><rect fill="#FFFFFF" height="10" style="stroke:#000000;stroke-width:1;" width="15" x="619.4399" y="443.24"/><rect fill="#FFFFFF" height="2" style="stroke:#000000;stroke-width:1;" width="4" x="617.4399" y="445.24"/><rect fill="#FFFFFF" height="2" style="stroke:#000000;stroke-width:1;" width="4" x="617.4399" y="449.24"/><text fill="#000000" font-family="Verdana" font-size="14" lengthAdjust="spacing" textLength="120.8799" x="493.56" y="471.2351">Phase 2 Features</text></g><!--entity Integration Expansion--><g class="entity" data-entity="Integration Expansion" data-source-line="22" data-uid="ent0015" id="entity_Integration Expansion"><rect fill="#FFFFFF" height="46.2969" rx="2.5" ry="2.5" style="stroke:#000000;stroke-width:1;" width="193.6855" x="674.16" y="438.24"/><rect fill="#FFFFFF" height="10" style="stroke:#000000;stroke-width:1;" width="15" x="847.8455" y="443.24"/><rect fill="#FFFFFF" height="2" style="stroke:#000000;stroke-width:1;" width="4" x="845.8455" y="445.24"/><rect fill="#FFFFFF" height="2" style="stroke:#000000;stroke-width:1;" width="4" x="845.8455" y="449.24"/><text fill="#000000" font-family="Verdana" font-size="14" lengthAdjust="spacing" textLength="153.6855" x="689.16" y="471.2351">Integration Expansion</text></g><!--entity Performance Optimization--><g class="entity" data-entity="Performance Optimization" data-source-line="23" data-uid="ent0016" id="entity_Performance Optimization"><rect fill="#FFFFFF" height="46.2969" rx="2.5" ry="2.5" style="stroke:#000000;stroke-width:1;" width="223.4697" x="440.27" y="544.53"/><rect fill="#FFFFFF" height="10" style="stroke:#000000;stroke-width:1;" width="15" x="643.7397" y="549.53"/><rect fill="#FFFFFF" height="2" style="stroke:#000000;stroke-width:1;" width="4" x="641.7397" y="551.53"/><rect fill="#FFFFFF" height="2" style="stroke:#000000;stroke-width:1;" width="4" x="641.7397" y="555.53"/><text fill="#000000" font-family="Verdana" font-size="14" lengthAdjust="spacing" textLength="183.4697" x="455.27" y="577.5251">Performance Optimization</text></g><!--entity Mobile Applications--><g class="entity" data-entity="Mobile Applications" data-source-line="24" data-uid="ent0017" id="entity_Mobile Applications"><rect fill="#FFFFFF" height="46.2969" rx="2.5" ry="2.5" style="stroke:#000000;stroke-width:1;" width="175.8916" x="699.05" y="544.53"/><rect fill="#FFFFFF" height="10" style="stroke:#000000;stroke-width:1;" width="15" x="854.9416" y="549.53"/><rect fill="#FFFFFF" height="2" style="stroke:#000000;stroke-width:1;" width="4" x="852.9416" y="551.53"/><rect fill="#FFFFFF" height="2" style="stroke:#000000;stroke-width:1;" width="4" x="852.9416" y="555.53"/><text fill="#000000" font-family="Verdana" font-size="14" lengthAdjust="spacing" textLength="135.8916" x="714.05" y="577.5251">Mobile Applications</text></g><g class="entity" data-entity="GMN18" data-source-line="29" data-uid="ent0019" id="entity_GMN18"><path d="M947.35,181.66 L947.35,221.9256 L1108.6586,221.9256 L1108.6586,191.66 L1098.6586,181.66 L947.35,181.66" fill="#FFFFFF" style="stroke:#000000;stroke-width:1;"/><path d="M1098.6586,181.66 L1098.6586,191.66 L1108.6586,191.66 L1098.6586,181.66" fill="#FFFFFF" style="stroke:#000000;stroke-width:1;"/><text fill="#000000" font-family="Verdana" font-size="13" lengthAdjust="spacing" textLength="132.5835" x="953.35" y="198.7269">Must be delivered in</text><text fill="#000000" font-family="Verdana" font-size="13" lengthAdjust="spacing" textLength="140.3086" x="953.35" y="213.8597">current project phase</text></g><g class="entity" data-entity="GMN21" data-source-line="34" data-uid="ent0022" id="entity_GMN21"><path d="M1143.69,181.66 L1143.69,221.9256 L1296.3087,221.9256 L1296.3087,191.66 L1286.3087,181.66 L1143.69,181.66" fill="#FFFFFF" style="stroke:#000000;stroke-width:1;"/><path d="M1286.3087,181.66 L1286.3087,191.66 L1296.3087,191.66 L1286.3087,181.66" fill="#FFFFFF" style="stroke:#000000;stroke-width:1;"/><text fill="#000000" font-family="Verdana" font-size="13" lengthAdjust="spacing" textLength="121.8687" x="1149.69" y="198.7269">Explicitly excluded</text><text fill="#000000" font-family="Verdana" font-size="13" lengthAdjust="spacing" textLength="131.6187" x="1149.69" y="213.8597">from current project</text></g><g class="entity" data-entity="GMN24" data-source-line="39" data-uid="ent0025" id="entity_GMN24"><path d="M947.28,441.25 L947.28,481.5156 L1126.7175,481.5156 L1126.7175,451.25 L1116.7175,441.25 L947.28,441.25" fill="#FFFFFF" style="stroke:#000000;stroke-width:1;"/><path d="M1116.7175,441.25 L1116.7175,451.25 L1126.7175,451.25 L1116.7175,441.25" fill="#FFFFFF" style="stroke:#000000;stroke-width:1;"/><text fill="#000000" font-family="Verdana" font-size="13" lengthAdjust="spacing" textLength="158.4375" x="953.28" y="458.3169">Planned for later phases</text><text fill="#000000" font-family="Verdana" font-size="13" lengthAdjust="spacing" textLength="131.1362" x="953.28" y="473.4497">or separate projects</text></g><!--link In Scope to GMN18--><g class="link" data-entity-1="In Scope" data-entity-2="GMN18" data-source-line="29" data-uid="lnk20" id="link_In Scope_GMN18"><path d="M517.9258,160.5948 C517.8682,160.134 517.8115,159.6707 517.7556,159.2053 C517.6439,158.2745 517.5357,157.3347 517.4314,156.3867 C516.5973,148.8027 516.0156,140.6919 515.9075,132.4025 C515.475,99.245 522.62,63.23 551.5,46.64 C613.55,11 807.42,19.19 873.5,46.64 C940.02,74.28 992.72,146.01 1015.61,181.42" fill="none" id="In Scope-GMN18" style="stroke:#000000;stroke-width:1;stroke-dasharray:7.0,7.0;"/></g><!--link Out of Scope to GMN21--><g class="link" data-entity-1="Out of Scope" data-entity-2="GMN21" data-source-line="34" data-uid="lnk23" id="link_Out of Scope_GMN21"><path d="M46.3339,134.9089 C46.3475,134.6515 46.3616,134.3938 46.3761,134.1359 C46.4052,133.6201 46.436,133.1035 46.4688,132.5863 C48.5625,99.48 58.225,63.455 87.5,46.64 C136.69,18.39 1058.03,20.76 1108.5,46.64 C1164.28,75.25 1198.47,146.18 1212.55,181.35" fill="none" id="Out of Scope-GMN21" style="stroke:#000000;stroke-width:1;stroke-dasharray:7.0,7.0;"/></g><!--link Future Scope to GMN24--><g class="link" data-entity-1="Future Scope" data-entity-2="GMN24" data-source-line="39" data-uid="lnk26" id="link_Future Scope_GMN24"><path d="M414.9268,395.0717 C415.0162,394.8201 415.1073,394.5693 415.2001,394.3193 C415.3856,393.8192 415.5778,393.3221 415.777,392.8282 C416.1753,391.8404 416.6011,390.8656 417.0561,389.9058 C418.8758,386.0666 421.16,382.4675 424,379.24 C429.27,373.25 433.57,376.13 441.5,375.24 C465.35,372.55 849.65,372.55 873.5,375.24 C927.7,381.35 982.02,417.33 1012.39,440.82" fill="none" id="Future Scope-GMN24" style="stroke:#000000;stroke-width:1;stroke-dasharray:7.0,7.0;"/></g><!--SRC=[TPBRJiCm38Rl-nHcZy0RJ6n8aq1C6bmXBapYje7KYPnqC13lZfDnA51oLVbtVty-dEIU1eBeqN6J7Xr751nW21nCBq6bB2DDbDIZ3K-EEsZH9sgQYEOHEuB5Li83cGmx4oB1Ybh7Bhl02tXjG9-eYDnvJTtmCUjJAk_sB0Z1EM4UXTBTTtmhRa0vm4qYcSRNAH5dXnvMc74YNADqb67hCRT1XgForlo6k1epX7O6P6dto8Ri7CoEJ60xXtD17Ph3aGMcPhPEGJ4_WT9_HETZAJT3jEqn4PpE0MquKoTOIi3wEI8d_PfEZwJKB0t1LSnkS2yrUP9o6UwTbb_6w9sfuXUXCdB81EAwlaxhUtKrut9C6Uu9B7ct9z6PwHaLmOmYkXs87qSHImSDiONYzyVrnowgWVQYD2xx0z2pyQCbM-Ej7kLlz_zzVqoq_gzBO5PE7GheFaYEQAcA6ajKxbnDFhpJb_ax]--></g></svg>