<svg xmlns="http://www.w3.org/2000/svg" xmlns:xlink="http://www.w3.org/1999/xlink" contentStyleType="text/css" data-diagram-type="DESCRIPTION" height="478px" preserveAspectRatio="none" style="width:505px;height:478px;background:#FFFFFF;" version="1.1" viewBox="0 0 505 478" width="505px" zoomAndPan="magnify"><defs/><g><!--cluster Web Application--><g class="cluster" data-entity="Web Application" data-source-line="4" data-uid="ent0002" id="cluster_Web Application"><rect fill="none" height="376.78" rx="2.5" ry="2.5" style="stroke:#181818;stroke-width:1;" width="328" x="7" y="7"/><text fill="#000000" font-family="sans-serif" font-size="14" font-weight="bold" lengthAdjust="spacing" textLength="129.1309" x="106.4346" y="21.9951">Web Application</text></g><!--entity html--><g class="entity" data-entity="html" data-source-line="5" data-uid="ent0003" id="entity_html"><rect fill="#F1F1F1" height="62.5938" rx="2.5" ry="2.5" style="stroke:#181818;stroke-width:0.5;" width="106.6025" x="186.7" y="42"/><rect fill="#F1F1F1" height="10" style="stroke:#181818;stroke-width:0.5;" width="15" x="273.3025" y="47"/><rect fill="#F1F1F1" height="2" style="stroke:#181818;stroke-width:0.5;" width="4" x="271.3025" y="49"/><rect fill="#F1F1F1" height="2" style="stroke:#181818;stroke-width:0.5;" width="4" x="271.3025" y="53"/><text fill="#000000" font-family="sans-serif" font-size="14" lengthAdjust="spacing" textLength="38.958" x="201.7" y="74.9951">HTML</text><text fill="#000000" font-family="sans-serif" font-size="14" lengthAdjust="spacing" textLength="66.6025" x="201.7" y="91.292">(Content)</text></g><!--entity css--><g class="entity" data-entity="css" data-source-line="6" data-uid="ent0004" id="entity_css"><rect fill="#F1F1F1" height="62.5938" rx="2.5" ry="2.5" style="stroke:#181818;stroke-width:0.5;" width="139.4014" x="179.3" y="181.6"/><rect fill="#F1F1F1" height="10" style="stroke:#181818;stroke-width:0.5;" width="15" x="298.7014" y="186.6"/><rect fill="#F1F1F1" height="2" style="stroke:#181818;stroke-width:0.5;" width="4" x="296.7014" y="188.6"/><rect fill="#F1F1F1" height="2" style="stroke:#181818;stroke-width:0.5;" width="4" x="296.7014" y="192.6"/><text fill="#000000" font-family="sans-serif" font-size="14" lengthAdjust="spacing" textLength="27.5488" x="194.3" y="214.5951">CSS</text><text fill="#000000" font-family="sans-serif" font-size="14" lengthAdjust="spacing" textLength="99.4014" x="194.3" y="230.892">(Presentation)</text></g><!--entity js--><g class="entity" data-entity="js" data-source-line="7" data-uid="ent0005" id="entity_js"><rect fill="#F1F1F1" height="62.5938" rx="2.5" ry="2.5" style="stroke:#181818;stroke-width:0.5;" width="121.9629" x="105.02" y="305.19"/><rect fill="#F1F1F1" height="10" style="stroke:#181818;stroke-width:0.5;" width="15" x="206.9829" y="310.19"/><rect fill="#F1F1F1" height="2" style="stroke:#181818;stroke-width:0.5;" width="4" x="204.9829" y="312.19"/><rect fill="#F1F1F1" height="2" style="stroke:#181818;stroke-width:0.5;" width="4" x="204.9829" y="316.19"/><text fill="#000000" font-family="sans-serif" font-size="14" lengthAdjust="spacing" textLength="70.1777" x="120.02" y="338.1851">JavaScript</text><text fill="#000000" font-family="sans-serif" font-size="14" lengthAdjust="spacing" textLength="81.9629" x="120.02" y="354.482">(Behaviour)</text></g><g class="entity" data-entity="GMN8" data-source-line="13" data-uid="ent0009" id="entity_GMN8"><path d="M353.31,192.76 L353.31,233.0256 A0,0 0 0 0 353.31,233.0256 L498.6987,233.0256 A0,0 0 0 0 498.6987,233.0256 L498.6987,202.76 L488.6987,192.76 L403.48,192.76 L281.28,104.84 L395.48,192.76 L353.31,192.76 A0,0 0 0 0 353.31,192.76" fill="#FAFAFA" style="stroke:#181818;stroke-width:0.5;"/><path d="M488.6987,192.76 L488.6987,202.76 L498.6987,202.76 L488.6987,192.76" fill="#FAFAFA" style="stroke:#181818;stroke-width:0.5;"/><text fill="#000000" font-family="sans-serif" font-size="13" lengthAdjust="spacing" textLength="124.3887" x="359.31" y="209.8269">Semantic structure</text><text fill="#000000" font-family="sans-serif" font-size="13" lengthAdjust="spacing" textLength="122.332" x="359.31" y="224.9597">Accessible markup</text></g><g class="entity" data-entity="GMN11" data-source-line="14" data-uid="ent0012" id="entity_GMN11"><path d="M350.99,316.35 L350.99,356.6156 A0,0 0 0 0 350.99,356.6156 L491.0086,356.6156 A0,0 0 0 0 491.0086,356.6156 L491.0086,326.35 L481.0086,316.35 L397.23,316.35 L292.4,244.58 L389.23,316.35 L350.99,316.35 A0,0 0 0 0 350.99,316.35" fill="#FAFAFA" style="stroke:#181818;stroke-width:0.5;"/><path d="M481.0086,316.35 L481.0086,326.35 L491.0086,326.35 L481.0086,316.35" fill="#FAFAFA" style="stroke:#181818;stroke-width:0.5;"/><text fill="#000000" font-family="sans-serif" font-size="13" lengthAdjust="spacing" textLength="86.3535" x="356.99" y="333.4169">Visual design</text><text fill="#000000" font-family="sans-serif" font-size="13" lengthAdjust="spacing" textLength="119.0186" x="356.99" y="348.5497">Responsive layout</text></g><g class="entity" data-entity="GMN14" data-source-line="15" data-uid="ent0015" id="entity_GMN14"><path d="M98.48,430.78 L98.48,471.0456 A0,0 0 0 0 98.48,471.0456 L233.522,471.0456 A0,0 0 0 0 233.522,471.0456 L233.522,440.78 L223.522,430.78 L170,430.78 L166,368.21 L162,430.78 L98.48,430.78 A0,0 0 0 0 98.48,430.78" fill="#FAFAFA" style="stroke:#181818;stroke-width:0.5;"/><path d="M223.522,430.78 L223.522,440.78 L233.522,440.78 L223.522,430.78" fill="#FAFAFA" style="stroke:#181818;stroke-width:0.5;"/><text fill="#000000" font-family="sans-serif" font-size="13" lengthAdjust="spacing" textLength="110.8428" x="104.48" y="447.8469">User interactions</text><text fill="#000000" font-family="sans-serif" font-size="13" lengthAdjust="spacing" textLength="114.042" x="104.48" y="462.9797">Dynamic updates</text></g><!--link html to css--><!--link html to css--><g class="link" data-entity-1="html" data-entity-2="css" data-source-line="17" data-uid="lnk17" id="link_html_css"><path d="M210.89,105.02 C201.29,118.86 194.34,135.65 200,151.6 C203.79,162.27 206.6006,167.7719 213.7306,176.6019" fill="none" id="html-to-css" style="stroke:#181818;stroke-width:1;stroke-dasharray:7.0,7.0;"/><polygon fill="#181818" points="217.5,181.27,214.958,171.7548,214.3588,177.3799,208.7338,176.7807,217.5,181.27" style="stroke:#181818;stroke-width:1;"/><text fill="#000000" font-family="sans-serif" font-size="13" lengthAdjust="spacing" textLength="59.5029" x="201" y="147.6669">styled by</text></g><!--link css to js--><!--link html to js--><g class="link" data-entity-1="html" data-entity-2="js" data-source-line="18" data-uid="lnk18" id="link_html_js"><path d="M186.28,93.37 C147.94,110.14 99.22,138.65 76,181.6 C62.77,206.07 65.45,218.45 76,244.19 C85.79,268.08 100.6508,285.1363 118.9408,300.9463" fill="none" id="html-to-js" style="stroke:#181818;stroke-width:1;stroke-dasharray:7.0,7.0;"/><polygon fill="#181818" points="123.48,304.87,119.287,295.9583,119.6973,301.6002,114.0554,302.0106,123.48,304.87" style="stroke:#181818;stroke-width:1;"/><text fill="#000000" font-family="sans-serif" font-size="13" lengthAdjust="spacing" textLength="84.1572" x="77" y="217.4569">enhanced by</text></g><!--SRC=[NP3DJiCm48JlVefLJd1e7w07f58E286423y7mc7ZR1ktyJhoheiYnBlZfForn_L-CvvPsJdkCQ877pZODWPFe36HaT-DjDY4TySRM6CdP4magyYRZg1ueHgMVTyvY-e25_1X06pmVM1YXUBwyUwsuhDLOCtpUG4eqAhlZgbLMMReFfBaSJ8wa5Ra6Bp1FPOskbupVqajxbr8yG1lnMHuD8VPQ-kQXlXjzcCXylynev_6S522EgW63s5zK2wW98-ipeBaCrXDaIfUMaiYhiwDFSPTwa-re_y2dfqaxA0XSHkk-84avnQt9-Xm24bFLTjHz2GKmUNpHBHZSwduQc3qEK7g6rJAjQPey_d5zp-YGqSDrCFVOh8YRf7jjFa2]--></g></svg>