<svg xmlns="http://www.w3.org/2000/svg" xmlns:xlink="http://www.w3.org/1999/xlink" contentStyleType="text/css" data-diagram-type="DESCRIPTION" height="607px" preserveAspectRatio="none" style="width:396px;height:607px;background:#FFFFFF;" version="1.1" viewBox="0 0 396 607" width="396px" zoomAndPan="magnify"><defs/><g><!--cluster UI/UX Design Principles--><g class="cluster" data-entity="UI/UX Design Principles" data-source-line="4" data-uid="ent0002" id="cluster_UI/UX Design Principles"><path d="M8.5,6 L195.0137,6 A3.75,3.75 0 0 1 197.5137,8.5 L204.5137,28.2969 L204.5,28.2969 A2.5,2.5 0 0 1 207,30.7969 L207,493.44 A2.5,2.5 0 0 1 204.5,495.94 L8.5,495.94 A2.5,2.5 0 0 1 6,493.44 L6,8.5 A2.5,2.5 0 0 1 8.5,6" fill="none" style="stroke:#000000;stroke-width:1.5;"/><line style="stroke:#000000;stroke-width:1.5;" x1="6" x2="204.5137" y1="28.2969" y2="28.2969"/><text fill="#000000" font-family="sans-serif" font-size="14" font-weight="bold" lengthAdjust="spacing" textLength="185.5137" x="10" y="20.9951">UI/UX Design Principles</text></g><!--entity visual--><g class="entity" data-entity="visual" data-source-line="5" data-uid="ent0003" id="entity_visual"><rect fill="#F1F1F1" height="46.2969" rx="2.5" ry="2.5" style="stroke:#181818;stroke-width:0.5;" width="154.5293" x="36.74" y="41"/><rect fill="#F1F1F1" height="10" style="stroke:#181818;stroke-width:0.5;" width="15" x="171.2693" y="46"/><rect fill="#F1F1F1" height="2" style="stroke:#181818;stroke-width:0.5;" width="4" x="169.2693" y="48"/><rect fill="#F1F1F1" height="2" style="stroke:#181818;stroke-width:0.5;" width="4" x="169.2693" y="52"/><text fill="#000000" font-family="sans-serif" font-size="14" lengthAdjust="spacing" textLength="114.5293" x="51.74" y="73.9951">Visual Hierarchy</text></g><!--entity consistency--><g class="entity" data-entity="consistency" data-source-line="6" data-uid="ent0004" id="entity_consistency"><rect fill="#F1F1F1" height="46.2969" rx="2.5" ry="2.5" style="stroke:#181818;stroke-width:0.5;" width="124.6494" x="63.68" y="168.85"/><rect fill="#F1F1F1" height="10" style="stroke:#181818;stroke-width:0.5;" width="15" x="168.3294" y="173.85"/><rect fill="#F1F1F1" height="2" style="stroke:#181818;stroke-width:0.5;" width="4" x="166.3294" y="175.85"/><rect fill="#F1F1F1" height="2" style="stroke:#181818;stroke-width:0.5;" width="4" x="166.3294" y="179.85"/><text fill="#000000" font-family="sans-serif" font-size="14" lengthAdjust="spacing" textLength="84.6494" x="78.68" y="201.8451">Consistency</text></g><!--entity feedback--><g class="entity" data-entity="feedback" data-source-line="7" data-uid="ent0005" id="entity_feedback"><rect fill="#F1F1F1" height="46.2969" rx="2.5" ry="2.5" style="stroke:#181818;stroke-width:0.5;" width="107.4365" x="72.28" y="301.25"/><rect fill="#F1F1F1" height="10" style="stroke:#181818;stroke-width:0.5;" width="15" x="159.7165" y="306.25"/><rect fill="#F1F1F1" height="2" style="stroke:#181818;stroke-width:0.5;" width="4" x="157.7165" y="308.25"/><rect fill="#F1F1F1" height="2" style="stroke:#181818;stroke-width:0.5;" width="4" x="157.7165" y="312.25"/><text fill="#000000" font-family="sans-serif" font-size="14" lengthAdjust="spacing" textLength="67.4365" x="87.28" y="334.2451">Feedback</text></g><!--entity accessibility--><g class="entity" data-entity="accessibility" data-source-line="8" data-uid="ent0006" id="entity_accessibility"><rect fill="#F1F1F1" height="46.2969" rx="2.5" ry="2.5" style="stroke:#181818;stroke-width:0.5;" width="126.3926" x="60.8" y="433.64"/><rect fill="#F1F1F1" height="10" style="stroke:#181818;stroke-width:0.5;" width="15" x="167.1926" y="438.64"/><rect fill="#F1F1F1" height="2" style="stroke:#181818;stroke-width:0.5;" width="4" x="165.1926" y="440.64"/><rect fill="#F1F1F1" height="2" style="stroke:#181818;stroke-width:0.5;" width="4" x="165.1926" y="444.64"/><text fill="#000000" font-family="sans-serif" font-size="14" lengthAdjust="spacing" textLength="86.3926" x="75.8" y="466.6351">Accessibility</text></g><g class="entity" data-entity="GMN7" data-source-line="11" data-uid="ent0008" id="entity_GMN7"><path d="M222.89,164.3 L222.89,219.6984 A0,0 0 0 0 222.89,219.6984 L359.1063,219.6984 A0,0 0 0 0 359.1063,219.6984 L359.1063,174.3 L349.1063,164.3 L256.86,164.3 L145.64,87.65 L248.86,164.3 L222.89,164.3 A0,0 0 0 0 222.89,164.3" fill="#FAFAFA" style="stroke:#181818;stroke-width:0.5;"/><path d="M349.1063,164.3 L349.1063,174.3 L359.1063,174.3 L349.1063,164.3" fill="#FAFAFA" style="stroke:#181818;stroke-width:0.5;"/><text fill="#000000" font-family="sans-serif" font-size="13" lengthAdjust="spacing" textLength="115.2163" x="228.89" y="181.3669">Typography scale</text><text fill="#000000" font-family="sans-serif" font-size="13" lengthAdjust="spacing" textLength="91.6919" x="228.89" y="196.4997">Color contrast</text><text fill="#000000" font-family="sans-serif" font-size="13" lengthAdjust="spacing" textLength="109.624" x="228.89" y="211.6325">Spacing systems</text></g><g class="entity" data-entity="GMN10" data-source-line="12" data-uid="ent0011" id="entity_GMN10"><path d="M222.54,296.69 L222.54,352.0884 A0,0 0 0 0 222.54,352.0884 L365.4531,352.0884 A0,0 0 0 0 365.4531,352.0884 L365.4531,306.69 L355.4531,296.69 L263.1,296.69 L154.88,215.41 L255.1,296.69 L222.54,296.69 A0,0 0 0 0 222.54,296.69" fill="#FAFAFA" style="stroke:#181818;stroke-width:0.5;"/><path d="M355.4531,296.69 L355.4531,306.69 L365.4531,306.69 L355.4531,296.69" fill="#FAFAFA" style="stroke:#181818;stroke-width:0.5;"/><text fill="#000000" font-family="sans-serif" font-size="13" lengthAdjust="spacing" textLength="103.7842" x="228.54" y="313.7569">Design patterns</text><text fill="#000000" font-family="sans-serif" font-size="13" lengthAdjust="spacing" textLength="121.9131" x="228.54" y="328.8897">Interaction models</text><text fill="#000000" font-family="sans-serif" font-size="13" lengthAdjust="spacing" textLength="103.7524" x="228.54" y="344.0225">Visual language</text></g><g class="entity" data-entity="GMN13" data-source-line="13" data-uid="ent0014" id="entity_GMN13"><path d="M222.68,429.09 L222.68,484.4884 A0,0 0 0 0 222.68,484.4884 L389.3206,484.4884 A0,0 0 0 0 389.3206,484.4884 L389.3206,439.09 L379.3206,429.09 L272.61,429.09 L156.94,347.81 L264.61,429.09 L222.68,429.09 A0,0 0 0 0 222.68,429.09" fill="#FAFAFA" style="stroke:#181818;stroke-width:0.5;"/><path d="M379.3206,429.09 L379.3206,439.09 L389.3206,439.09 L379.3206,429.09" fill="#FAFAFA" style="stroke:#181818;stroke-width:0.5;"/><text fill="#000000" font-family="sans-serif" font-size="13" lengthAdjust="spacing" textLength="95.3545" x="228.68" y="446.1569">Loading states</text><text fill="#000000" font-family="sans-serif" font-size="13" lengthAdjust="spacing" textLength="101.5308" x="228.68" y="461.2897">Error messages</text><text fill="#000000" font-family="sans-serif" font-size="13" lengthAdjust="spacing" textLength="145.6406" x="228.68" y="476.4225">Success confirmations</text></g><g class="entity" data-entity="GMN16" data-source-line="14" data-uid="ent0017" id="entity_GMN16"><path d="M46.13,545.49 L46.13,600.8884 A0,0 0 0 0 46.13,600.8884 L201.878,600.8884 A0,0 0 0 0 201.878,600.8884 L201.878,555.49 L191.878,545.49 L128,545.49 L124,480.39 L120,545.49 L46.13,545.49 A0,0 0 0 0 46.13,545.49" fill="#FAFAFA" style="stroke:#181818;stroke-width:0.5;"/><path d="M191.878,545.49 L191.878,555.49 L201.878,555.49 L191.878,545.49" fill="#FAFAFA" style="stroke:#181818;stroke-width:0.5;"/><text fill="#000000" font-family="sans-serif" font-size="13" lengthAdjust="spacing" textLength="134.748" x="52.13" y="562.5569">Keyboard navigation</text><text fill="#000000" font-family="sans-serif" font-size="13" lengthAdjust="spacing" textLength="98.7886" x="52.13" y="577.6897">Screen readers</text><text fill="#000000" font-family="sans-serif" font-size="13" lengthAdjust="spacing" textLength="130.2983" x="52.13" y="592.8225">Color independence</text></g><!--link visual to consistency--><g class="link" data-entity-1="visual" data-entity-2="consistency" data-source-line="16" data-uid="lnk19" id="link_visual_consistency"><path d="M116.15,87.65 C118.33,110.55 121.1323,139.8869 123.3023,162.7169" fill="none" id="visual-to-consistency" style="stroke:#181818;stroke-width:1;"/><polygon fill="#181818" points="123.87,168.69,127.0004,159.3519,123.3969,163.7124,119.0363,160.1089,123.87,168.69" style="stroke:#181818;stroke-width:1;"/><text fill="#000000" font-family="sans-serif" font-size="13" lengthAdjust="spacing" textLength="56.6846" x="122" y="130.3669">supports</text></g><!--link consistency to feedback--><g class="link" data-entity-1="consistency" data-entity-2="feedback" data-source-line="17" data-uid="lnk20" id="link_consistency_feedback"><path d="M126,215.41 C126,239.3 126,270.89 126,294.83" fill="none" id="consistency-to-feedback" style="stroke:#181818;stroke-width:1;"/><polygon fill="#181818" points="126,300.83,130,291.83,126,295.83,122,291.83,126,300.83" style="stroke:#181818;stroke-width:1;"/><text fill="#000000" font-family="sans-serif" font-size="13" lengthAdjust="spacing" textLength="50.8384" x="127" y="262.7569">enables</text></g><!--link feedback to accessibility--><g class="link" data-entity-1="feedback" data-entity-2="accessibility" data-source-line="18" data-uid="lnk21" id="link_feedback_accessibility"><path d="M125.66,347.81 C125.29,371.69 124.8002,403.2907 124.4402,427.2307" fill="none" id="feedback-to-accessibility" style="stroke:#181818;stroke-width:1;"/><polygon fill="#181818" points="124.35,433.23,128.4849,424.2912,124.4252,428.2306,120.4858,424.1709,124.35,433.23" style="stroke:#181818;stroke-width:1;"/><text fill="#000000" font-family="sans-serif" font-size="13" lengthAdjust="spacing" textLength="53.8726" x="127" y="395.1569">includes</text></g><!--SRC=[PLBBJiGm3BpdAwoz8-uSa10FWU20n4CSzkActcv4QaTs2geG_uvR2kmkboYUZ2VZaUqrSK757dfXYLkLdg3gGC5-NsoBhRmdxc23sIY4Wl4LEuBLqytnqmjSaAMEuLuJnrGosGe-0a2KlWWJLrWz9nimmtKYHOtRSGLey3Q3-yHpOKjMYUCt9_xL-yGhehPn6pDhinJxbBCOoImrAQVwhOQxIFWCWQKID5Ahz22RnH6SmEDOf5Cisn4iOgOrdqiMdUnKHQjhVl0CfaHiT7Uz7Ihj-7Qv9Q22jPAohVc6_OAn9c7FlQNis99HHku63_TGyMT6bxiJREU_ArRopajLzzRxQDxdzSCmppcPs2JjSVhcdyEzB5pqbiP6K5jWV4lTtEDAKOaObB0bjPyK4hTKo0-ElWnBQ4T7fmTJsr2AQBMm2q-qdL68iV652R_Gz7vepTSg3otP5m00]--></g></svg>