<svg xmlns="http://www.w3.org/2000/svg" xmlns:xlink="http://www.w3.org/1999/xlink" contentStyleType="text/css" data-diagram-type="ACTIVITY" height="566px" preserveAspectRatio="none" style="width:817px;height:566px;background:#FFFFFF;" version="1.1" viewBox="0 0 817 566" width="817px" zoomAndPan="magnify"><defs/><g><ellipse cx="408.6797" cy="20" fill="#222222" rx="10" ry="10" style="stroke:#222222;stroke-width:1;"/><rect fill="#F1F1F1" height="33.9688" rx="12.5" ry="12.5" style="stroke:#181818;stroke-width:0.5;" width="157.2676" x="330.0459" y="50"/><text fill="#000000" font-family="sans-serif" font-size="12" lengthAdjust="spacing" textLength="137.2676" x="340.0459" y="71.1387">Load and prepare data</text><rect fill="#F1F1F1" height="33.9688" rx="12.5" ry="12.5" style="stroke:#181818;stroke-width:0.5;" width="179.2051" x="319.0771" y="103.9688"/><text fill="#000000" font-family="sans-serif" font-size="12" lengthAdjust="spacing" textLength="159.2051" x="329.0771" y="125.1074">Split into training/test sets</text><rect fill="#555555" height="6" rx="2.5" ry="2.5" style="stroke:#555555;stroke-width:1;" width="795.3594" x="11" y="157.9375"/><rect fill="#F1F1F1" height="33.9688" rx="12.5" ry="12.5" style="stroke:#181818;stroke-width:0.5;" width="161.9199" x="23" y="183.9375"/><text fill="#000000" font-family="sans-serif" font-size="12" lengthAdjust="spacing" textLength="141.9199" x="33" y="205.0762">Train Linear Regression</text><rect fill="#F1F1F1" height="33.9688" rx="12.5" ry="12.5" style="stroke:#181818;stroke-width:0.5;" width="140.1934" x="33.8633" y="237.9063"/><text fill="#000000" font-family="sans-serif" font-size="12" lengthAdjust="spacing" textLength="120.1934" x="43.8633" y="259.0449">Evaluate on test set</text><rect fill="#F1F1F1" height="33.9688" rx="12.5" ry="12.5" style="stroke:#181818;stroke-width:0.5;" width="134.9316" x="36.4941" y="291.875"/><text fill="#000000" font-family="sans-serif" font-size="12" lengthAdjust="spacing" textLength="114.9316" x="46.4941" y="313.0137">Record MSE and R&#178;</text><rect fill="#F1F1F1" height="33.9688" rx="12.5" ry="12.5" style="stroke:#181818;stroke-width:0.5;" width="170.4922" x="194.9199" y="183.9375"/><text fill="#000000" font-family="sans-serif" font-size="12" lengthAdjust="spacing" textLength="150.4922" x="204.9199" y="205.0762">Train Logistic Regression</text><rect fill="#F1F1F1" height="33.9688" rx="12.5" ry="12.5" style="stroke:#181818;stroke-width:0.5;" width="140.1934" x="210.0693" y="237.9063"/><text fill="#000000" font-family="sans-serif" font-size="12" lengthAdjust="spacing" textLength="120.1934" x="220.0693" y="259.0449">Evaluate on test set</text><rect fill="#F1F1F1" height="33.9688" rx="12.5" ry="12.5" style="stroke:#181818;stroke-width:0.5;" width="120.166" x="220.083" y="291.875"/><text fill="#000000" font-family="sans-serif" font-size="12" lengthAdjust="spacing" textLength="100.166" x="230.083" y="313.0137">Record accuracy</text><rect fill="#F1F1F1" height="33.9688" rx="12.5" ry="12.5" style="stroke:#181818;stroke-width:0.5;" width="140.9082" x="416.5039" y="183.9375"/><text fill="#000000" font-family="sans-serif" font-size="12" lengthAdjust="spacing" textLength="120.9082" x="426.5039" y="205.0762">Train KNN (k=3,5,7)</text><rect fill="#F1F1F1" height="33.9688" rx="12.5" ry="12.5" style="stroke:#181818;stroke-width:0.5;" width="140.1934" x="416.8613" y="237.9063"/><text fill="#000000" font-family="sans-serif" font-size="12" lengthAdjust="spacing" textLength="120.1934" x="426.8613" y="259.0449">Evaluate on test set</text><rect fill="#F1F1F1" height="33.9688" rx="12.5" ry="12.5" style="stroke:#181818;stroke-width:0.5;" width="187.0918" x="393.4121" y="291.875"/><text fill="#000000" font-family="sans-serif" font-size="12" lengthAdjust="spacing" textLength="167.0918" x="403.4121" y="313.0137">Record best k and accuracy</text><rect fill="#F1F1F1" height="33.9688" rx="12.5" ry="12.5" style="stroke:#181818;stroke-width:0.5;" width="190.2969" x="597.2832" y="183.9375"/><text fill="#000000" font-family="sans-serif" font-size="12" lengthAdjust="spacing" textLength="170.2969" x="607.2832" y="205.0762">Train Polynomial Regression</text><rect fill="#F1F1F1" height="33.9688" rx="12.5" ry="12.5" style="stroke:#181818;stroke-width:0.5;" width="126.0957" x="629.3838" y="237.9063"/><text fill="#000000" font-family="sans-serif" font-size="12" lengthAdjust="spacing" textLength="106.0957" x="639.3838" y="259.0449">Try degrees 2,3,4</text><rect fill="#F1F1F1" height="33.9688" rx="12.5" ry="12.5" style="stroke:#181818;stroke-width:0.5;" width="203.8555" x="590.5039" y="291.875"/><text fill="#000000" font-family="sans-serif" font-size="12" lengthAdjust="spacing" textLength="183.8555" x="600.5039" y="313.0137">Evaluate and check overfitting</text><rect fill="#555555" height="6" rx="2.5" ry="2.5" style="stroke:#555555;stroke-width:1;" width="795.3594" x="11" y="345.8438"/><rect fill="#F1F1F1" height="33.9688" rx="12.5" ry="12.5" style="stroke:#181818;stroke-width:0.5;" width="139.9648" x="338.6973" y="371.8438"/><text fill="#000000" font-family="sans-serif" font-size="12" lengthAdjust="spacing" textLength="119.9648" x="348.6973" y="392.9824">Compare all models</text><rect fill="#F1F1F1" height="33.9688" rx="12.5" ry="12.5" style="stroke:#181818;stroke-width:0.5;" width="151.0449" x="333.1572" y="425.8125"/><text fill="#000000" font-family="sans-serif" font-size="12" lengthAdjust="spacing" textLength="131.0449" x="343.1572" y="446.9512">Select best performer</text><rect fill="#F1F1F1" height="33.9688" rx="12.5" ry="12.5" style="stroke:#181818;stroke-width:0.5;" width="204.1836" x="306.5879" y="479.7813"/><text fill="#000000" font-family="sans-serif" font-size="12" lengthAdjust="spacing" textLength="184.1836" x="316.5879" y="500.9199">Analyze why it performed best</text><ellipse cx="408.6797" cy="544.75" fill="none" rx="11" ry="11" style="stroke:#222222;stroke-width:1;"/><ellipse cx="408.6797" cy="544.75" fill="#222222" rx="6" ry="6" style="stroke:#222222;stroke-width:1;"/><line style="stroke:#181818;stroke-width:1;" x1="408.6797" x2="408.6797" y1="30" y2="50"/><polygon fill="#181818" points="404.6797,40,408.6797,50,412.6797,40,408.6797,44" style="stroke:#181818;stroke-width:1;"/><line style="stroke:#181818;stroke-width:1;" x1="408.6797" x2="408.6797" y1="83.9688" y2="103.9688"/><polygon fill="#181818" points="404.6797,93.9688,408.6797,103.9688,412.6797,93.9688,408.6797,97.9688" style="stroke:#181818;stroke-width:1;"/><line style="stroke:#181818;stroke-width:1;" x1="103.96" x2="103.96" y1="217.9063" y2="237.9063"/><polygon fill="#181818" points="99.96,227.9063,103.96,237.9063,107.96,227.9063,103.96,231.9063" style="stroke:#181818;stroke-width:1;"/><line style="stroke:#181818;stroke-width:1;" x1="103.96" x2="103.96" y1="271.875" y2="291.875"/><polygon fill="#181818" points="99.96,281.875,103.96,291.875,107.96,281.875,103.96,285.875" style="stroke:#181818;stroke-width:1;"/><line style="stroke:#181818;stroke-width:1;" x1="280.166" x2="280.166" y1="217.9063" y2="237.9063"/><polygon fill="#181818" points="276.166,227.9063,280.166,237.9063,284.166,227.9063,280.166,231.9063" style="stroke:#181818;stroke-width:1;"/><line style="stroke:#181818;stroke-width:1;" x1="280.166" x2="280.166" y1="271.875" y2="291.875"/><polygon fill="#181818" points="276.166,281.875,280.166,291.875,284.166,281.875,280.166,285.875" style="stroke:#181818;stroke-width:1;"/><line style="stroke:#181818;stroke-width:1;" x1="486.958" x2="486.958" y1="217.9063" y2="237.9063"/><polygon fill="#181818" points="482.958,227.9063,486.958,237.9063,490.958,227.9063,486.958,231.9063" style="stroke:#181818;stroke-width:1;"/><line style="stroke:#181818;stroke-width:1;" x1="486.958" x2="486.958" y1="271.875" y2="291.875"/><polygon fill="#181818" points="482.958,281.875,486.958,291.875,490.958,281.875,486.958,285.875" style="stroke:#181818;stroke-width:1;"/><line style="stroke:#181818;stroke-width:1;" x1="692.4316" x2="692.4316" y1="217.9063" y2="237.9063"/><polygon fill="#181818" points="688.4316,227.9063,692.4316,237.9063,696.4316,227.9063,692.4316,231.9063" style="stroke:#181818;stroke-width:1;"/><line style="stroke:#181818;stroke-width:1;" x1="692.4316" x2="692.4316" y1="271.875" y2="291.875"/><polygon fill="#181818" points="688.4316,281.875,692.4316,291.875,696.4316,281.875,692.4316,285.875" style="stroke:#181818;stroke-width:1;"/><line style="stroke:#181818;stroke-width:1;" x1="103.96" x2="103.96" y1="163.9375" y2="183.9375"/><polygon fill="#181818" points="99.96,173.9375,103.96,183.9375,107.96,173.9375,103.96,177.9375" style="stroke:#181818;stroke-width:1;"/><line style="stroke:#181818;stroke-width:1;" x1="280.166" x2="280.166" y1="163.9375" y2="183.9375"/><polygon fill="#181818" points="276.166,173.9375,280.166,183.9375,284.166,173.9375,280.166,177.9375" style="stroke:#181818;stroke-width:1;"/><line style="stroke:#181818;stroke-width:1;" x1="486.958" x2="486.958" y1="163.9375" y2="183.9375"/><polygon fill="#181818" points="482.958,173.9375,486.958,183.9375,490.958,173.9375,486.958,177.9375" style="stroke:#181818;stroke-width:1;"/><line style="stroke:#181818;stroke-width:1;" x1="692.4316" x2="692.4316" y1="163.9375" y2="183.9375"/><polygon fill="#181818" points="688.4316,173.9375,692.4316,183.9375,696.4316,173.9375,692.4316,177.9375" style="stroke:#181818;stroke-width:1;"/><line style="stroke:#181818;stroke-width:1;" x1="103.96" x2="103.96" y1="325.8438" y2="345.8438"/><polygon fill="#181818" points="99.96,335.8438,103.96,345.8438,107.96,335.8438,103.96,339.8438" style="stroke:#181818;stroke-width:1;"/><line style="stroke:#181818;stroke-width:1;" x1="280.166" x2="280.166" y1="325.8438" y2="345.8438"/><polygon fill="#181818" points="276.166,335.8438,280.166,345.8438,284.166,335.8438,280.166,339.8438" style="stroke:#181818;stroke-width:1;"/><line style="stroke:#181818;stroke-width:1;" x1="486.958" x2="486.958" y1="325.8438" y2="345.8438"/><polygon fill="#181818" points="482.958,335.8438,486.958,345.8438,490.958,335.8438,486.958,339.8438" style="stroke:#181818;stroke-width:1;"/><line style="stroke:#181818;stroke-width:1;" x1="692.4316" x2="692.4316" y1="325.8438" y2="345.8438"/><polygon fill="#181818" points="688.4316,335.8438,692.4316,345.8438,696.4316,335.8438,692.4316,339.8438" style="stroke:#181818;stroke-width:1;"/><line style="stroke:#181818;stroke-width:1;" x1="408.6797" x2="408.6797" y1="137.9375" y2="157.9375"/><polygon fill="#181818" points="404.6797,147.9375,408.6797,157.9375,412.6797,147.9375,408.6797,151.9375" style="stroke:#181818;stroke-width:1;"/><line style="stroke:#181818;stroke-width:1;" x1="408.6797" x2="408.6797" y1="351.8438" y2="371.8438"/><polygon fill="#181818" points="404.6797,361.8438,408.6797,371.8438,412.6797,361.8438,408.6797,365.8438" style="stroke:#181818;stroke-width:1;"/><line style="stroke:#181818;stroke-width:1;" x1="408.6797" x2="408.6797" y1="405.8125" y2="425.8125"/><polygon fill="#181818" points="404.6797,415.8125,408.6797,425.8125,412.6797,415.8125,408.6797,419.8125" style="stroke:#181818;stroke-width:1;"/><line style="stroke:#181818;stroke-width:1;" x1="408.6797" x2="408.6797" y1="459.7813" y2="479.7813"/><polygon fill="#181818" points="404.6797,469.7813,408.6797,479.7813,412.6797,469.7813,408.6797,473.7813" style="stroke:#181818;stroke-width:1;"/><line style="stroke:#181818;stroke-width:1;" x1="408.6797" x2="408.6797" y1="513.75" y2="533.75"/><polygon fill="#181818" points="404.6797,523.75,408.6797,533.75,412.6797,523.75,408.6797,527.75" style="stroke:#181818;stroke-width:1;"/><!--SRC=[bP7TIiD048NlzodcKY4WM4L8y4AaLzOYRLzWt9qcIpOxONRQ4X_BH_39tAJuYuZUdhFdczavgVMnHy4EEevi6-6EG6L79hqxgK771nzhs698P4nI53NbWj41HWUzK7v9u52nCkMw3rx1H-LCGXzpyamfAIJIL1cpPMaDGBaPJLZuI2Ymebee9S-n6htv7iCEbO0Zl6KdOqMMnS7zUZwDNhqyLnCGiCwqJrYkVL9l_mj6QtU2TlYPUhTSmabxFIikYwlJF_4UHwsTTlqT_S1XYDnv3DzNtiW0RfGemNanAow-3XxHjY7R0kz9jbur7xmobENfqgQyvMxg1qF8DJiAQMo90bazxjVd74j7alMRY65u8ZWq0_WFw_YJQYoV-rS0]--></g></svg>