<svg xmlns="http://www.w3.org/2000/svg" xmlns:xlink="http://www.w3.org/1999/xlink" contentStyleType="text/css" data-diagram-type="ACTIVITY" height="658px" preserveAspectRatio="none" style="width:348px;height:658px;background:#FFFFFF;" version="1.1" viewBox="0 0 348 658" width="348px" zoomAndPan="magnify"><defs/><g><ellipse cx="82.3594" cy="20" fill="#222222" rx="10" ry="10" style="stroke:#222222;stroke-width:1;"/><path d="M173.7188,40 L173.7188,63.6992 L153.7188,67.6992 L173.7188,71.6992 L173.7188,95.3984 A0,0 0 0 0 173.7188,95.3984 L304.2856,95.3984 A0,0 0 0 0 304.2856,95.3984 L304.2856,50 L294.2856,40 L173.7188,40 A0,0 0 0 0 173.7188,40" fill="#FAFAFA" style="stroke:#181818;stroke-width:0.5;"/><path d="M294.2856,40 L294.2856,50 L304.2856,50 L294.2856,40" fill="#FAFAFA" style="stroke:#181818;stroke-width:0.5;"/><text fill="#000000" font-family="sans-serif" font-size="13" lengthAdjust="spacing" textLength="98.1919" x="179.7188" y="57.0669">Agile iterations</text><text fill="#000000" font-family="sans-serif" font-size="13" lengthAdjust="spacing" textLength="109.5669" x="179.7188" y="72.1997">for requirements</text><text fill="#000000" font-family="sans-serif" font-size="13" lengthAdjust="spacing" textLength="71.7666" x="179.7188" y="87.3325">refinement</text><rect fill="#F1F1F1" height="33.9688" rx="12.5" ry="12.5" style="stroke:#181818;stroke-width:0.5;" width="142.7188" x="11" y="50.7148"/><text fill="#000000" font-family="sans-serif" font-size="12" lengthAdjust="spacing" textLength="122.7188" x="21" y="71.8535">Requirements Stage</text><path d="M152.3203,161.1089 L152.3203,184.8081 L132.3203,188.8081 L152.3203,192.8081 L152.3203,216.5073 A0,0 0 0 0 152.3203,216.5073 L271.5122,216.5073 A0,0 0 0 0 271.5122,216.5073 L271.5122,171.1089 L261.5122,161.1089 L152.3203,161.1089 A0,0 0 0 0 152.3203,161.1089" fill="#FAFAFA" style="stroke:#181818;stroke-width:0.5;"/><path d="M261.5122,161.1089 L261.5122,171.1089 L271.5122,171.1089 L261.5122,161.1089" fill="#FAFAFA" style="stroke:#181818;stroke-width:0.5;"/><text fill="#000000" font-family="sans-serif" font-size="13" lengthAdjust="spacing" textLength="98.1919" x="158.3203" y="178.1758">Agile iterations</text><text fill="#000000" font-family="sans-serif" font-size="13" lengthAdjust="spacing" textLength="65.1333" x="158.3203" y="193.3086">for design</text><text fill="#000000" font-family="sans-serif" font-size="13" lengthAdjust="spacing" textLength="75.7466" x="158.3203" y="208.4414">prototyping</text><rect fill="#F1F1F1" height="33.9688" rx="12.5" ry="12.5" style="stroke:#181818;stroke-width:0.5;" width="99.9219" x="32.3984" y="171.8237"/><text fill="#000000" font-family="sans-serif" font-size="12" lengthAdjust="spacing" textLength="79.9219" x="42.3984" y="192.9624">Design Stage</text><path d="M171.9961,282.2178 L171.9961,305.917 L151.9961,309.917 L171.9961,313.917 L171.9961,337.6162 A0,0 0 0 0 171.9961,337.6162 L278.7529,337.6162 A0,0 0 0 0 278.7529,337.6162 L278.7529,292.2178 L268.7529,282.2178 L171.9961,282.2178 A0,0 0 0 0 171.9961,282.2178" fill="#FAFAFA" style="stroke:#181818;stroke-width:0.5;"/><path d="M268.7529,282.2178 L268.7529,292.2178 L278.7529,292.2178 L268.7529,282.2178" fill="#FAFAFA" style="stroke:#181818;stroke-width:0.5;"/><text fill="#000000" font-family="sans-serif" font-size="13" lengthAdjust="spacing" textLength="80.5898" x="177.9961" y="299.2847">Agile sprints</text><text fill="#000000" font-family="sans-serif" font-size="13" lengthAdjust="spacing" textLength="69.2275" x="177.9961" y="314.4175">for feature</text><text fill="#000000" font-family="sans-serif" font-size="13" lengthAdjust="spacing" textLength="85.7568" x="177.9961" y="329.5503">development</text><rect fill="#F1F1F1" height="33.9688" rx="12.5" ry="12.5" style="stroke:#181818;stroke-width:0.5;" width="139.2734" x="12.7227" y="292.9326"/><text fill="#000000" font-family="sans-serif" font-size="12" lengthAdjust="spacing" textLength="119.2734" x="22.7227" y="314.0713">Development Stage</text><path d="M153.7178,417.6235 L153.7178,441.3228 L133.7178,445.3228 L153.7178,449.3228 L153.7178,473.022 A0,0 0 0 0 153.7178,473.022 L272.9097,473.022 A0,0 0 0 0 272.9097,473.022 L272.9097,427.6235 L262.9097,417.6235 L153.7178,417.6235 A0,0 0 0 0 153.7178,417.6235" fill="#FAFAFA" style="stroke:#181818;stroke-width:0.5;"/><path d="M262.9097,417.6235 L262.9097,427.6235 L272.9097,427.6235 L262.9097,417.6235" fill="#FAFAFA" style="stroke:#181818;stroke-width:0.5;"/><text fill="#000000" font-family="sans-serif" font-size="13" lengthAdjust="spacing" textLength="98.1919" x="159.7178" y="434.6904">Agile iterations</text><text fill="#000000" font-family="sans-serif" font-size="13" lengthAdjust="spacing" textLength="67.0757" x="159.7178" y="449.8232">for testing</text><text fill="#000000" font-family="sans-serif" font-size="13" lengthAdjust="spacing" textLength="59.2427" x="159.7178" y="464.9561">and fixes</text><rect fill="#F1F1F1" height="33.9688" rx="12.5" ry="12.5" style="stroke:#181818;stroke-width:0.5;" width="102.7168" x="31.001" y="428.3384"/><text fill="#000000" font-family="sans-serif" font-size="12" lengthAdjust="spacing" textLength="82.7168" x="41.001" y="449.4771">Testing Stage</text><polygon fill="#F1F1F1" points="34.7473,371.9131,129.9714,371.9131,141.9714,383.9131,129.9714,395.9131,34.7473,395.9131,22.7473,383.9131,34.7473,371.9131" style="stroke:#181818;stroke-width:0.5;"/><text fill="#000000" font-family="sans-serif" font-size="11" lengthAdjust="spacing" textLength="53.002" x="86.3594" y="406.1235">Approved</text><text fill="#000000" font-family="sans-serif" font-size="11" lengthAdjust="spacing" textLength="95.2241" x="34.7473" y="387.7212">Gate 3 Approval?</text><polygon fill="#F1F1F1" points="82.3594,493.022,94.3594,505.022,82.3594,517.022,70.3594,505.022,82.3594,493.022" style="stroke:#181818;stroke-width:0.5;"/><polygon fill="#F1F1F1" points="34.7473,236.5073,129.9714,236.5073,141.9714,248.5073,129.9714,260.5073,34.7473,260.5073,22.7473,248.5073,34.7473,236.5073" style="stroke:#181818;stroke-width:0.5;"/><text fill="#000000" font-family="sans-serif" font-size="11" lengthAdjust="spacing" textLength="53.002" x="86.3594" y="270.7178">Approved</text><text fill="#000000" font-family="sans-serif" font-size="11" lengthAdjust="spacing" textLength="95.2241" x="34.7473" y="252.3154">Gate 2 Approval?</text><polygon fill="#F1F1F1" points="82.3594,537.022,94.3594,549.022,82.3594,561.022,70.3594,549.022,82.3594,537.022" style="stroke:#181818;stroke-width:0.5;"/><polygon fill="#F1F1F1" points="34.7473,115.3984,129.9714,115.3984,141.9714,127.3984,129.9714,139.3984,34.7473,139.3984,22.7473,127.3984,34.7473,115.3984" style="stroke:#181818;stroke-width:0.5;"/><text fill="#000000" font-family="sans-serif" font-size="11" lengthAdjust="spacing" textLength="53.002" x="86.3594" y="149.6089">Approved</text><text fill="#000000" font-family="sans-serif" font-size="11" lengthAdjust="spacing" textLength="95.2241" x="34.7473" y="131.2065">Gate 1 Approval?</text><polygon fill="#F1F1F1" points="82.3594,581.022,94.3594,593.022,82.3594,605.022,70.3594,593.022,82.3594,581.022" style="stroke:#181818;stroke-width:0.5;"/><ellipse cx="82.3594" cy="636.022" fill="none" rx="11" ry="11" style="stroke:#222222;stroke-width:1;"/><ellipse cx="82.3594" cy="636.022" fill="#222222" rx="6" ry="6" style="stroke:#222222;stroke-width:1;"/><line style="stroke:#181818;stroke-width:1;" x1="82.3594" x2="82.3594" y1="30" y2="50.7148"/><polygon fill="#181818" points="78.3594,40.7148,82.3594,50.7148,86.3594,40.7148,82.3594,44.7148" style="stroke:#181818;stroke-width:1;"/><line style="stroke:#181818;stroke-width:1;" x1="82.3594" x2="82.3594" y1="395.9131" y2="428.3384"/><polygon fill="#181818" points="78.3594,418.3384,82.3594,428.3384,86.3594,418.3384,82.3594,422.3384" style="stroke:#181818;stroke-width:1;"/><line style="stroke:#181818;stroke-width:1;" x1="141.9714" x2="282.9097" y1="383.9131" y2="383.9131"/><polygon fill="#181818" points="278.9097,435.3228,282.9097,445.3228,286.9097,435.3228,282.9097,439.3228" style="stroke:#181818;stroke-width:1;"/><line style="stroke:#181818;stroke-width:1;" x1="282.9097" x2="282.9097" y1="383.9131" y2="505.022"/><line style="stroke:#181818;stroke-width:1;" x1="282.9097" x2="94.3594" y1="505.022" y2="505.022"/><polygon fill="#181818" points="104.3594,501.022,94.3594,505.022,104.3594,509.022,100.3594,505.022" style="stroke:#181818;stroke-width:1;"/><line style="stroke:#181818;stroke-width:1;" x1="82.3594" x2="82.3594" y1="462.3071" y2="493.022"/><polygon fill="#181818" points="78.3594,483.022,82.3594,493.022,86.3594,483.022,82.3594,487.022" style="stroke:#181818;stroke-width:1;"/><line style="stroke:#181818;stroke-width:1;" x1="82.3594" x2="82.3594" y1="326.9014" y2="371.9131"/><polygon fill="#181818" points="78.3594,361.9131,82.3594,371.9131,86.3594,361.9131,82.3594,365.9131" style="stroke:#181818;stroke-width:1;"/><line style="stroke:#181818;stroke-width:1;" x1="82.3594" x2="82.3594" y1="260.5073" y2="292.9326"/><polygon fill="#181818" points="78.3594,282.9326,82.3594,292.9326,86.3594,282.9326,82.3594,286.9326" style="stroke:#181818;stroke-width:1;"/><line style="stroke:#181818;stroke-width:1;" x1="141.9714" x2="304.9097" y1="248.5073" y2="248.5073"/><polygon fill="#181818" points="300.9097,392.8154,304.9097,402.8154,308.9097,392.8154,304.9097,396.8154" style="stroke:#181818;stroke-width:1;"/><line style="stroke:#181818;stroke-width:1;" x1="304.9097" x2="304.9097" y1="248.5073" y2="549.022"/><line style="stroke:#181818;stroke-width:1;" x1="304.9097" x2="94.3594" y1="549.022" y2="549.022"/><polygon fill="#181818" points="104.3594,545.022,94.3594,549.022,104.3594,553.022,100.3594,549.022" style="stroke:#181818;stroke-width:1;"/><line style="stroke:#181818;stroke-width:1;" x1="82.3594" x2="82.3594" y1="517.022" y2="537.022"/><polygon fill="#181818" points="78.3594,527.022,82.3594,537.022,86.3594,527.022,82.3594,531.022" style="stroke:#181818;stroke-width:1;"/><line style="stroke:#181818;stroke-width:1;" x1="82.3594" x2="82.3594" y1="205.7925" y2="236.5073"/><polygon fill="#181818" points="78.3594,226.5073,82.3594,236.5073,86.3594,226.5073,82.3594,230.5073" style="stroke:#181818;stroke-width:1;"/><line style="stroke:#181818;stroke-width:1;" x1="82.3594" x2="82.3594" y1="139.3984" y2="171.8237"/><polygon fill="#181818" points="78.3594,161.8237,82.3594,171.8237,86.3594,161.8237,82.3594,165.8237" style="stroke:#181818;stroke-width:1;"/><line style="stroke:#181818;stroke-width:1;" x1="141.9714" x2="322.9097" y1="127.3984" y2="127.3984"/><polygon fill="#181818" points="318.9097,347.6162,322.9097,357.6162,326.9097,347.6162,322.9097,351.6162" style="stroke:#181818;stroke-width:1;"/><line style="stroke:#181818;stroke-width:1;" x1="322.9097" x2="322.9097" y1="127.3984" y2="593.022"/><line style="stroke:#181818;stroke-width:1;" x1="322.9097" x2="94.3594" y1="593.022" y2="593.022"/><polygon fill="#181818" points="104.3594,589.022,94.3594,593.022,104.3594,597.022,100.3594,593.022" style="stroke:#181818;stroke-width:1;"/><line style="stroke:#181818;stroke-width:1;" x1="82.3594" x2="82.3594" y1="561.022" y2="581.022"/><polygon fill="#181818" points="78.3594,571.022,82.3594,581.022,86.3594,571.022,82.3594,575.022" style="stroke:#181818;stroke-width:1;"/><line style="stroke:#181818;stroke-width:1;" x1="82.3594" x2="82.3594" y1="84.6836" y2="115.3984"/><polygon fill="#181818" points="78.3594,105.3984,82.3594,115.3984,86.3594,105.3984,82.3594,109.3984" style="stroke:#181818;stroke-width:1;"/><line style="stroke:#181818;stroke-width:1;" x1="82.3594" x2="82.3594" y1="605.022" y2="625.022"/><polygon fill="#181818" points="78.3594,615.022,82.3594,625.022,86.3594,615.022,82.3594,619.022" style="stroke:#181818;stroke-width:1;"/><!--SRC=[ZP2zJiDG38Nt-nGUsn7Ome0g8R43OnQBwvjO9FQjxHHuUv9K8Z00NIpvv_ZpiR-oL3GSOLJHbzvq90YRAFbNntlC-iRIGS71AIKFj4ZD8nqdDXf9mk4fiAFR91e4nbqV3Hmw7WWuo31OnLifQc3VLAqO5POrILnWzu2p_0eEjPgUSBZRG_Gai3iNAEzJSq_EdLpEo-jyA_E2qFYeiuyDTVqFwaI3rkMwttbUZLSh2wmGncJKIjwa6-tcJzepUInFljXPd0Mje6Ge_4wUI3AN7z53woS0]--></g></svg>