<svg xmlns="http://www.w3.org/2000/svg" xmlns:xlink="http://www.w3.org/1999/xlink" contentStyleType="text/css" data-diagram-type="DESCRIPTION" height="454px" preserveAspectRatio="none" style="width:387px;height:454px;background:#FFFFFF;" version="1.1" viewBox="0 0 387 454" width="387px" zoomAndPan="magnify"><defs/><g><!--entity P1--><g class="entity" data-entity="P1" data-source-line="6" data-uid="ent0002" id="entity_P1"><rect fill="#F1F1F1" height="52.5938" rx="2.5" ry="2.5" style="stroke:#181818;stroke-width:0.5;" width="118.4307" x="33.82" y="7"/><text fill="#000000" font-family="sans-serif" font-size="14" lengthAdjust="spacing" textLength="55.1592" x="43.82" y="29.9951">Phase 1</text><text fill="#000000" font-family="sans-serif" font-size="14" lengthAdjust="spacing" textLength="98.4307" x="43.82" y="46.292">Core Features</text></g><!--entity P2--><g class="entity" data-entity="P2" data-source-line="7" data-uid="ent0003" id="entity_P2"><rect fill="#F1F1F1" height="52.5938" rx="2.5" ry="2.5" style="stroke:#181818;stroke-width:0.5;" width="155.1191" x="15.48" y="136.6"/><text fill="#000000" font-family="sans-serif" font-size="14" lengthAdjust="spacing" textLength="55.1592" x="25.48" y="159.5951">Phase 2</text><text fill="#000000" font-family="sans-serif" font-size="14" lengthAdjust="spacing" textLength="135.1191" x="25.48" y="175.892">Advanced Features</text></g><!--entity P3--><g class="entity" data-entity="P3" data-source-line="8" data-uid="ent0004" id="entity_P3"><rect fill="#F1F1F1" height="52.5938" rx="2.5" ry="2.5" style="stroke:#181818;stroke-width:0.5;" width="104.4375" x="40.82" y="266.19"/><text fill="#000000" font-family="sans-serif" font-size="14" lengthAdjust="spacing" textLength="55.1592" x="50.82" y="289.1851">Phase 3</text><text fill="#000000" font-family="sans-serif" font-size="14" lengthAdjust="spacing" textLength="84.4375" x="50.82" y="305.482">Integrations</text></g><!--entity P4--><g class="entity" data-entity="P4" data-source-line="9" data-uid="ent0005" id="entity_P4"><rect fill="#F1F1F1" height="52.5938" rx="2.5" ry="2.5" style="stroke:#181818;stroke-width:0.5;" width="172.0791" x="7" y="395.79"/><text fill="#000000" font-family="sans-serif" font-size="14" lengthAdjust="spacing" textLength="55.1592" x="17" y="418.7851">Phase 4</text><text fill="#000000" font-family="sans-serif" font-size="14" lengthAdjust="spacing" textLength="152.0791" x="17" y="435.082">Reporting &amp; Analytics</text></g><g class="entity" data-entity="GMN9" data-source-line="15" data-uid="ent0010" id="entity_GMN9"><path d="M187.41,13.17 L187.41,29.3 L152.45,33.3 L187.41,37.3 L187.41,53.4356 A0,0 0 0 0 187.41,53.4356 L336.6771,53.4356 A0,0 0 0 0 336.6771,53.4356 L336.6771,23.17 L326.6771,13.17 L187.41,13.17 A0,0 0 0 0 187.41,13.17" fill="#FAFAFA" style="stroke:#181818;stroke-width:0.5;"/><path d="M326.6771,13.17 L326.6771,23.17 L336.6771,23.17 L326.6771,13.17" fill="#FAFAFA" style="stroke:#181818;stroke-width:0.5;"/><text fill="#000000" font-family="sans-serif" font-size="13" lengthAdjust="spacing" textLength="128.2671" x="193.41" y="30.2369">User authentication</text><text fill="#000000" font-family="sans-serif" font-size="13" lengthAdjust="spacing" textLength="106.3359" x="193.41" y="45.3697">Basic data entry</text></g><g class="entity" data-entity="GMN12" data-source-line="16" data-uid="ent0013" id="entity_GMN12"><path d="M205.46,142.76 L205.46,158.9 L170.88,162.9 L205.46,166.9 L205.46,183.0256 A0,0 0 0 0 205.46,183.0256 L356.625,183.0256 A0,0 0 0 0 356.625,183.0256 L356.625,152.76 L346.625,142.76 L205.46,142.76 A0,0 0 0 0 205.46,142.76" fill="#FAFAFA" style="stroke:#181818;stroke-width:0.5;"/><path d="M346.625,142.76 L346.625,152.76 L356.625,152.76 L346.625,142.76" fill="#FAFAFA" style="stroke:#181818;stroke-width:0.5;"/><text fill="#000000" font-family="sans-serif" font-size="13" lengthAdjust="spacing" textLength="130.165" x="211.46" y="159.8269">Search functionality</text><text fill="#000000" font-family="sans-serif" font-size="13" lengthAdjust="spacing" textLength="99.1758" x="211.46" y="174.9597">Data validation</text></g><g class="entity" data-entity="GMN15" data-source-line="17" data-uid="ent0016" id="entity_GMN15"><path d="M179.84,272.36 L179.84,288.49 L145.54,292.49 L179.84,296.49 L179.84,312.6256 A0,0 0 0 0 179.84,312.6256 L362.2355,312.6256 A0,0 0 0 0 362.2355,312.6256 L362.2355,282.36 L352.2355,272.36 L179.84,272.36 A0,0 0 0 0 179.84,272.36" fill="#FAFAFA" style="stroke:#181818;stroke-width:0.5;"/><path d="M352.2355,272.36 L352.2355,282.36 L362.2355,282.36 L352.2355,272.36" fill="#FAFAFA" style="stroke:#181818;stroke-width:0.5;"/><text fill="#000000" font-family="sans-serif" font-size="13" lengthAdjust="spacing" textLength="161.3955" x="185.84" y="289.4269">External API connections</text><text fill="#000000" font-family="sans-serif" font-size="13" lengthAdjust="spacing" textLength="141.2988" x="185.84" y="304.5597">Automated workflows</text></g><g class="entity" data-entity="GMN18" data-source-line="18" data-uid="ent0019" id="entity_GMN18"><path d="M213.88,401.95 L213.88,418.08 L179.5,422.08 L213.88,426.08 L213.88,442.2156 A0,0 0 0 0 213.88,442.2156 L380.1905,442.2156 A0,0 0 0 0 380.1905,442.2156 L380.1905,411.95 L370.1905,401.95 L213.88,401.95 A0,0 0 0 0 213.88,401.95" fill="#FAFAFA" style="stroke:#181818;stroke-width:0.5;"/><path d="M370.1905,401.95 L370.1905,411.95 L380.1905,411.95 L370.1905,401.95" fill="#FAFAFA" style="stroke:#181818;stroke-width:0.5;"/><text fill="#000000" font-family="sans-serif" font-size="13" lengthAdjust="spacing" textLength="121.6528" x="219.88" y="419.0169">Dashboard reports</text><text fill="#000000" font-family="sans-serif" font-size="13" lengthAdjust="spacing" textLength="145.3105" x="219.88" y="434.1497">Performance analytics</text></g><!--link P1 to P2--><g class="link" data-entity-1="P1" data-entity-2="P2" data-source-line="11" data-uid="lnk6" id="link_P1_P2"><path d="M93.04,59.82 C93.04,82.07 93.04,108.19 93.04,130.43" fill="none" id="P1-to-P2" style="stroke:#181818;stroke-width:1;"/><polygon fill="#181818" points="93.04,136.43,97.04,127.43,93.04,131.43,89.04,127.43,93.04,136.43" style="stroke:#181818;stroke-width:1;"/><text fill="#000000" font-family="sans-serif" font-size="13" lengthAdjust="spacing" textLength="96.0591" x="94.04" y="102.6669">Learn &amp; Adjust</text></g><!--link P2 to P3--><g class="link" data-entity-1="P2" data-entity-2="P3" data-source-line="12" data-uid="lnk7" id="link_P2_P3"><path d="M93.04,189.41 C93.04,211.66 93.04,237.78 93.04,260.02" fill="none" id="P2-to-P3" style="stroke:#181818;stroke-width:1;"/><polygon fill="#181818" points="93.04,266.02,97.04,257.02,93.04,261.02,89.04,257.02,93.04,266.02" style="stroke:#181818;stroke-width:1;"/><text fill="#000000" font-family="sans-serif" font-size="13" lengthAdjust="spacing" textLength="156.4761" x="94.04" y="232.2569">Feedback &amp; Refinement</text></g><!--link P3 to P4--><g class="link" data-entity-1="P3" data-entity-2="P4" data-source-line="13" data-uid="lnk8" id="link_P3_P4"><path d="M93.04,319 C93.04,341.26 93.04,367.37 93.04,389.61" fill="none" id="P3-to-P4" style="stroke:#181818;stroke-width:1;"/><polygon fill="#181818" points="93.04,395.61,97.04,386.61,93.04,390.61,89.04,386.61,93.04,395.61" style="stroke:#181818;stroke-width:1;"/><text fill="#000000" font-family="sans-serif" font-size="13" lengthAdjust="spacing" textLength="115.2607" x="94.04" y="361.8569">Complete System</text></g><!--SRC=[NP4_JyD03CNtV0hJWOsXj1C3KlWdAZ54L6nPt3idEPhuAfz3wRV75mfICzhlzwndE-q37r1mW25oT9t4WK1bf2BzAwb37u-1MsYmJrGKLvwQm0JLQxbz1Y6do6rlmczZKNMO29OrFqOXU27KKIWj01DKoqlejkRIVo4xyZFmzX9SrRnXfLPGG-GpixfarZM_qo6AvgpNK3Bs9mtk3Ayjtn9kRkvjDjp16w5mflpdcBImtYIjJ7eXyZjqUrFVfqq7OYDMlyJQYCSu77fIWkqfAGr5mT4A2Msd41lRqfYFH08uQcVcuARODJzW2WuyAeArvJGtvcHRI-OwQ4PssOHzq5FDJzdpPOMVHisDEVVpjv8O3sMr0HUPQHgGxCQZnW7LZdoCic_wU4pp0Ncj9qpTBg9uUsg-epahaYRAa3y4-7VG7m00]--></g></svg>