<svg xmlns="http://www.w3.org/2000/svg" xmlns:xlink="http://www.w3.org/1999/xlink" contentStyleType="text/css" data-diagram-type="DESCRIPTION" height="702.0833px" preserveAspectRatio="none" style="width:1245px;height:702px;" version="1.1" viewBox="0 0 1245 702" width="1245.8333px" zoomAndPan="magnify"><defs><linearGradient id="gl3t5g8vonfq10" x1="50%" x2="50%" y1="0%" y2="100%"><stop offset="0%" stop-color="#F18E3E"/><stop offset="100%" stop-color="#EC7211"/></linearGradient></defs><g><!--cluster E-commerce Platform Architecture--><g class="cluster" data-entity="E-commerce Platform Architecture" data-source-line="3" data-uid="ent0002" id="cluster_E-commerce Platform Architecture"><path d="M10.4167,6.25 L262.6404,6.25 A6.25,6.25 0 0 1 266.807,10.4167 L274.0987,37.4674 L1234.375,37.4674 A4.1667,4.1667 0 0 1 1238.5417,41.6341 L1238.5417,691.0208 A4.1667,4.1667 0 0 1 1234.375,695.1875 L10.4167,695.1875 A4.1667,4.1667 0 0 1 6.25,691.0208 L6.25,10.4167 A4.1667,4.1667 0 0 1 10.4167,6.25" fill="none" style="stroke:#4E5D6C;stroke-width:2.0833;"/><line style="stroke:#4E5D6C;stroke-width:2.0833;" x1="6.25" x2="274.0987" y1="37.4674" y2="37.4674"/><text fill="#4E5D6C" font-family="Verdana" font-size="12.5" font-weight="bold" lengthAdjust="spacing" textLength="243.8904" x="15.625" y="25.1444">E-commerce Platform Architecture</text></g><!--cluster Frontend--><g class="cluster" data-entity="Frontend" data-source-line="7" data-uid="ent0005" id="cluster_Frontend"><path d="M268.75,212.4687 L341.5731,212.4687 A6.25,6.25 0 0 1 345.7397,216.6354 L353.0314,243.6862 L942.7083,243.6862 A4.1667,4.1667 0 0 1 946.875,247.8529 L946.875,324.9375 A4.1667,4.1667 0 0 1 942.7083,329.1042 L268.75,329.1042 A4.1667,4.1667 0 0 1 264.5833,324.9375 L264.5833,216.6354 A4.1667,4.1667 0 0 1 268.75,212.4687" fill="none" style="stroke:#4E5D6C;stroke-width:2.0833;"/><line style="stroke:#4E5D6C;stroke-width:2.0833;" x1="264.5833" x2="353.0314" y1="243.6862" y2="243.6862"/><text fill="#4E5D6C" font-family="Verdana" font-size="12.5" font-weight="bold" lengthAdjust="spacing" textLength="64.4897" x="273.9583" y="231.3632">Frontend</text></g><!--cluster Backend Services--><g class="cluster" data-entity="Backend Services" data-source-line="14" data-uid="ent0010" id="cluster_Backend Services"><path d="M35.4167,402.5417 L167.5171,402.5417 A6.25,6.25 0 0 1 171.6838,406.7083 L178.9754,433.7591 L1046.875,433.7591 A4.1667,4.1667 0 0 1 1051.0417,437.9258 L1051.0417,515.0104 A4.1667,4.1667 0 0 1 1046.875,519.1771 L35.4167,519.1771 A4.1667,4.1667 0 0 1 31.25,515.0104 L31.25,406.7083 A4.1667,4.1667 0 0 1 35.4167,402.5417" fill="none" style="stroke:#4E5D6C;stroke-width:2.0833;"/><line style="stroke:#4E5D6C;stroke-width:2.0833;" x1="31.25" x2="178.9754" y1="433.7591" y2="433.7591"/><text fill="#4E5D6C" font-family="Verdana" font-size="12.5" font-weight="bold" lengthAdjust="spacing" textLength="123.7671" x="40.625" y="421.4361">Backend Services</text></g><!--cluster Data Layer--><g class="cluster" data-entity="Data Layer" data-source-line="22" data-uid="ent0016" id="cluster_Data Layer"><path d="M35.4167,553.5521 L120.5139,553.5521 A6.25,6.25 0 0 1 124.6806,557.7188 L131.9722,584.7695 L638.5417,584.7695 A4.1667,4.1667 0 0 1 642.7083,588.9362 L642.7083,666.0208 A4.1667,4.1667 0 0 1 638.5417,670.1875 L35.4167,670.1875 A4.1667,4.1667 0 0 1 31.25,666.0208 L31.25,557.7188 A4.1667,4.1667 0 0 1 35.4167,553.5521" fill="none" style="stroke:#4E5D6C;stroke-width:2.0833;"/><line style="stroke:#4E5D6C;stroke-width:2.0833;" x1="31.25" x2="131.9722" y1="584.7695" y2="584.7695"/><text fill="#4E5D6C" font-family="Verdana" font-size="12.5" font-weight="bold" lengthAdjust="spacing" textLength="76.7639" x="40.625" y="572.4465">Data Layer</text></g><!--cluster External Services--><g class="cluster" data-entity="External Services" data-source-line="29" data-uid="ent0021" id="cluster_External Services"><path d="M671.875,553.5521 L802.8035,553.5521 A6.25,6.25 0 0 1 806.9702,557.7188 L814.2619,584.7695 L1209.375,584.7695 A4.1667,4.1667 0 0 1 1213.5417,588.9362 L1213.5417,666.0208 A4.1667,4.1667 0 0 1 1209.375,670.1875 L671.875,670.1875 A4.1667,4.1667 0 0 1 667.7083,666.0208 L667.7083,557.7188 A4.1667,4.1667 0 0 1 671.875,553.5521" fill="none" style="stroke:#4E5D6C;stroke-width:2.0833;"/><line style="stroke:#4E5D6C;stroke-width:2.0833;" x1="667.7083" x2="814.2619" y1="584.7695" y2="584.7695"/><text fill="#4E5D6C" font-family="Verdana" font-size="12.5" font-weight="bold" lengthAdjust="spacing" textLength="122.5952" x="677.0833" y="572.4465">External Services</text></g><!--entity Customer--><g class="entity" data-entity="Customer" data-source-line="4" data-uid="ent0003" id="entity_Customer"><ellipse cx="623.9631" cy="59.375" fill="url(#gl3t5g8vonfq10)" rx="8.3333" ry="8.3333" style="stroke:#EC7211;stroke-width:1.0417;"/><path d="M623.9631,67.7083 L623.9631,95.8333 M610.4214,76.0417 L637.5047,76.0417 M623.9631,95.8333 L610.4214,111.4583 M623.9631,95.8333 L637.5047,111.4583" fill="none" style="stroke:#EC7211;stroke-width:1.0417;"/><text fill="#4E5D6C" font-family="Verdana" font-size="12.5" lengthAdjust="spacing" textLength="60.7178" x="593.6042" y="130.3528">Customer</text></g><!--entity Admin--><g class="entity" data-entity="Admin" data-source-line="5" data-uid="ent0004" id="entity_Admin"><ellipse cx="219.7891" cy="249.4479" fill="url(#gl3t5g8vonfq10)" rx="8.3333" ry="8.3333" style="stroke:#EC7211;stroke-width:1.0417;"/><path d="M219.7891,257.7813 L219.7891,285.9063 M206.2474,266.1146 L233.3308,266.1146 M219.7891,285.9063 L206.2474,301.5313 M219.7891,285.9063 L233.3308,301.5313" fill="none" style="stroke:#EC7211;stroke-width:1.0417;"/><text fill="#4E5D6C" font-family="Verdana" font-size="12.5" lengthAdjust="spacing" textLength="40.0574" x="199.7604" y="320.4257">Admin</text></g><!--entity catalog--><g class="entity" data-entity="catalog" data-source-line="8" data-uid="ent0006" id="entity_catalog"><rect fill="url(#gl3t5g8vonfq10)" height="56.2174" rx="4.1667" ry="4.1667" style="stroke:#EC7211;stroke-width:1.0417;" width="152.0162" x="281.2813" y="256.2188"/><rect fill="url(#gl3t5g8vonfq10)" height="10.4167" style="stroke:#EC7211;stroke-width:1.0417;" width="15.625" x="412.4641" y="261.4271"/><rect fill="url(#gl3t5g8vonfq10)" height="2.0833" style="stroke:#EC7211;stroke-width:1.0417;" width="4.1667" x="410.3808" y="263.5104"/><rect fill="url(#gl3t5g8vonfq10)" height="2.0833" style="stroke:#EC7211;stroke-width:1.0417;" width="4.1667" x="410.3808" y="267.6771"/><text fill="#FFFFFF" font-family="Verdana" font-size="12.5" lengthAdjust="spacing" textLength="99.9329" x="302.1146" y="293.8632">Product Catalog</text></g><!--entity cart--><g class="entity" data-entity="cart" data-source-line="9" data-uid="ent0007" id="entity_cart"><rect fill="url(#gl3t5g8vonfq10)" height="56.2174" rx="4.1667" ry="4.1667" style="stroke:#EC7211;stroke-width:1.0417;" width="141.1886" x="470.0313" y="256.2188"/><rect fill="url(#gl3t5g8vonfq10)" height="10.4167" style="stroke:#EC7211;stroke-width:1.0417;" width="15.625" x="590.3865" y="261.4271"/><rect fill="url(#gl3t5g8vonfq10)" height="2.0833" style="stroke:#EC7211;stroke-width:1.0417;" width="4.1667" x="588.3031" y="263.5104"/><rect fill="url(#gl3t5g8vonfq10)" height="2.0833" style="stroke:#EC7211;stroke-width:1.0417;" width="4.1667" x="588.3031" y="267.6771"/><text fill="#FFFFFF" font-family="Verdana" font-size="12.5" lengthAdjust="spacing" textLength="89.1052" x="490.8646" y="293.8632">Shopping Cart</text></g><!--entity checkout--><g class="entity" data-entity="checkout" data-source-line="10" data-uid="ent0008" id="entity_checkout"><rect fill="url(#gl3t5g8vonfq10)" height="56.2174" rx="4.1667" ry="4.1667" style="stroke:#EC7211;stroke-width:1.0417;" width="111.0067" x="819.5" y="256.2188"/><rect fill="url(#gl3t5g8vonfq10)" height="10.4167" style="stroke:#EC7211;stroke-width:1.0417;" width="15.625" x="909.6733" y="261.4271"/><rect fill="url(#gl3t5g8vonfq10)" height="2.0833" style="stroke:#EC7211;stroke-width:1.0417;" width="4.1667" x="907.59" y="263.5104"/><rect fill="url(#gl3t5g8vonfq10)" height="2.0833" style="stroke:#EC7211;stroke-width:1.0417;" width="4.1667" x="907.59" y="267.6771"/><text fill="#FFFFFF" font-family="Verdana" font-size="12.5" lengthAdjust="spacing" textLength="58.9233" x="840.3333" y="293.8632">Checkout</text></g><!--entity account--><g class="entity" data-entity="account" data-source-line="11" data-uid="ent0009" id="entity_account"><rect fill="url(#gl3t5g8vonfq10)" height="56.2174" rx="4.1667" ry="4.1667" style="stroke:#EC7211;stroke-width:1.0417;" width="135.2376" x="648.0104" y="256.2188"/><rect fill="url(#gl3t5g8vonfq10)" height="10.4167" style="stroke:#EC7211;stroke-width:1.0417;" width="15.625" x="762.4147" y="261.4271"/><rect fill="url(#gl3t5g8vonfq10)" height="2.0833" style="stroke:#EC7211;stroke-width:1.0417;" width="4.1667" x="760.3314" y="263.5104"/><rect fill="url(#gl3t5g8vonfq10)" height="2.0833" style="stroke:#EC7211;stroke-width:1.0417;" width="4.1667" x="760.3314" y="267.6771"/><text fill="#FFFFFF" font-family="Verdana" font-size="12.5" lengthAdjust="spacing" textLength="83.1543" x="668.8438" y="293.8632">User Account</text></g><!--entity products--><g class="entity" data-entity="products" data-source-line="15" data-uid="ent0011" id="entity_products"><rect fill="url(#gl3t5g8vonfq10)" height="56.2174" rx="4.1667" ry="4.1667" style="stroke:#EC7211;stroke-width:1.0417;" width="186.3546" x="246.4063" y="446.2917"/><rect fill="url(#gl3t5g8vonfq10)" height="10.4167" style="stroke:#EC7211;stroke-width:1.0417;" width="15.625" x="411.9275" y="451.5"/><rect fill="url(#gl3t5g8vonfq10)" height="2.0833" style="stroke:#EC7211;stroke-width:1.0417;" width="4.1667" x="409.8442" y="453.5833"/><rect fill="url(#gl3t5g8vonfq10)" height="2.0833" style="stroke:#EC7211;stroke-width:1.0417;" width="4.1667" x="409.8442" y="457.75"/><text fill="#FFFFFF" font-family="Verdana" font-size="12.5" lengthAdjust="spacing" textLength="134.2712" x="267.2396" y="483.9361">Product Management</text></g><!--entity orders--><g class="entity" data-entity="orders" data-source-line="16" data-uid="ent0012" id="entity_orders"><rect fill="url(#gl3t5g8vonfq10)" height="56.2174" rx="4.1667" ry="4.1667" style="stroke:#EC7211;stroke-width:1.0417;" width="159.0413" x="672.5625" y="446.2917"/><rect fill="url(#gl3t5g8vonfq10)" height="10.4167" style="stroke:#EC7211;stroke-width:1.0417;" width="15.625" x="810.7705" y="451.5"/><rect fill="url(#gl3t5g8vonfq10)" height="2.0833" style="stroke:#EC7211;stroke-width:1.0417;" width="4.1667" x="808.6872" y="453.5833"/><rect fill="url(#gl3t5g8vonfq10)" height="2.0833" style="stroke:#EC7211;stroke-width:1.0417;" width="4.1667" x="808.6872" y="457.75"/><text fill="#FFFFFF" font-family="Verdana" font-size="12.5" lengthAdjust="spacing" textLength="106.958" x="693.3958" y="483.9361">Order Processing</text></g><!--entity payments--><g class="entity" data-entity="payments" data-source-line="17" data-uid="ent0013" id="entity_payments"><rect fill="url(#gl3t5g8vonfq10)" height="56.2174" rx="4.1667" ry="4.1667" style="stroke:#EC7211;stroke-width:1.0417;" width="166.5609" x="867.7604" y="446.2917"/><rect fill="url(#gl3t5g8vonfq10)" height="10.4167" style="stroke:#EC7211;stroke-width:1.0417;" width="15.625" x="1013.488" y="451.5"/><rect fill="url(#gl3t5g8vonfq10)" height="2.0833" style="stroke:#EC7211;stroke-width:1.0417;" width="4.1667" x="1011.4046" y="453.5833"/><rect fill="url(#gl3t5g8vonfq10)" height="2.0833" style="stroke:#EC7211;stroke-width:1.0417;" width="4.1667" x="1011.4046" y="457.75"/><text fill="#FFFFFF" font-family="Verdana" font-size="12.5" lengthAdjust="spacing" textLength="114.4775" x="888.5938" y="483.9361">Payment Gateway</text></g><!--entity inventory--><g class="entity" data-entity="inventory" data-source-line="18" data-uid="ent0014" id="entity_inventory"><rect fill="url(#gl3t5g8vonfq10)" height="56.2174" rx="4.1667" ry="4.1667" style="stroke:#EC7211;stroke-width:1.0417;" width="162.3739" x="47.9792" y="446.2917"/><rect fill="url(#gl3t5g8vonfq10)" height="10.4167" style="stroke:#EC7211;stroke-width:1.0417;" width="15.625" x="189.5197" y="451.5"/><rect fill="url(#gl3t5g8vonfq10)" height="2.0833" style="stroke:#EC7211;stroke-width:1.0417;" width="4.1667" x="187.4364" y="453.5833"/><rect fill="url(#gl3t5g8vonfq10)" height="2.0833" style="stroke:#EC7211;stroke-width:1.0417;" width="4.1667" x="187.4364" y="457.75"/><text fill="#FFFFFF" font-family="Verdana" font-size="12.5" lengthAdjust="spacing" textLength="110.2905" x="68.8125" y="483.9361">Inventory System</text></g><!--entity users--><g class="entity" data-entity="users" data-source-line="19" data-uid="ent0015" id="entity_users"><rect fill="url(#gl3t5g8vonfq10)" height="56.2174" rx="4.1667" ry="4.1667" style="stroke:#EC7211;stroke-width:1.0417;" width="166.8905" x="469.6771" y="446.2917"/><rect fill="url(#gl3t5g8vonfq10)" height="10.4167" style="stroke:#EC7211;stroke-width:1.0417;" width="15.625" x="615.7342" y="451.5"/><rect fill="url(#gl3t5g8vonfq10)" height="2.0833" style="stroke:#EC7211;stroke-width:1.0417;" width="4.1667" x="613.6509" y="453.5833"/><rect fill="url(#gl3t5g8vonfq10)" height="2.0833" style="stroke:#EC7211;stroke-width:1.0417;" width="4.1667" x="613.6509" y="457.75"/><text fill="#FFFFFF" font-family="Verdana" font-size="12.5" lengthAdjust="spacing" textLength="114.8071" x="490.5104" y="483.9361">User Management</text></g><!--entity productdb--><g class="entity" data-entity="productdb" data-source-line="23" data-uid="ent0017" id="entity_productdb"><rect fill="url(#gl3t5g8vonfq10)" height="56.2174" rx="4.1667" ry="4.1667" style="stroke:#EC7211;stroke-width:1.0417;" width="122.2127" x="218.0625" y="597.3021"/><rect fill="url(#gl3t5g8vonfq10)" height="10.4167" style="stroke:#EC7211;stroke-width:1.0417;" width="15.625" x="319.4419" y="602.5104"/><rect fill="url(#gl3t5g8vonfq10)" height="2.0833" style="stroke:#EC7211;stroke-width:1.0417;" width="4.1667" x="317.3586" y="604.5938"/><rect fill="url(#gl3t5g8vonfq10)" height="2.0833" style="stroke:#EC7211;stroke-width:1.0417;" width="4.1667" x="317.3586" y="608.7604"/><text fill="#FFFFFF" font-family="Verdana" font-size="12.5" lengthAdjust="spacing" textLength="70.1294" x="238.8958" y="634.9465">Product DB</text></g><!--entity orderdb--><g class="entity" data-entity="orderdb" data-source-line="24" data-uid="ent0018" id="entity_orderdb"><rect fill="url(#gl3t5g8vonfq10)" height="56.2174" rx="4.1667" ry="4.1667" style="stroke:#EC7211;stroke-width:1.0417;" width="109.9996" x="515.8333" y="597.3021"/><rect fill="url(#gl3t5g8vonfq10)" height="10.4167" style="stroke:#EC7211;stroke-width:1.0417;" width="15.625" x="604.9996" y="602.5104"/><rect fill="url(#gl3t5g8vonfq10)" height="2.0833" style="stroke:#EC7211;stroke-width:1.0417;" width="4.1667" x="602.9163" y="604.5938"/><rect fill="url(#gl3t5g8vonfq10)" height="2.0833" style="stroke:#EC7211;stroke-width:1.0417;" width="4.1667" x="602.9163" y="608.7604"/><text fill="#FFFFFF" font-family="Verdana" font-size="12.5" lengthAdjust="spacing" textLength="57.9163" x="536.6667" y="634.9465">Order DB</text></g><!--entity userdb--><g class="entity" data-entity="userdb" data-source-line="25" data-uid="ent0019" id="entity_userdb"><rect fill="url(#gl3t5g8vonfq10)" height="56.2174" rx="4.1667" ry="4.1667" style="stroke:#EC7211;stroke-width:1.0417;" width="102.7486" x="376.75" y="597.3021"/><rect fill="url(#gl3t5g8vonfq10)" height="10.4167" style="stroke:#EC7211;stroke-width:1.0417;" width="15.625" x="458.6653" y="602.5104"/><rect fill="url(#gl3t5g8vonfq10)" height="2.0833" style="stroke:#EC7211;stroke-width:1.0417;" width="4.1667" x="456.5819" y="604.5938"/><rect fill="url(#gl3t5g8vonfq10)" height="2.0833" style="stroke:#EC7211;stroke-width:1.0417;" width="4.1667" x="456.5819" y="608.7604"/><text fill="#FFFFFF" font-family="Verdana" font-size="12.5" lengthAdjust="spacing" textLength="50.6653" x="397.5833" y="634.9465">User DB</text></g><!--entity invdb--><g class="entity" data-entity="invdb" data-source-line="26" data-uid="ent0020" id="entity_invdb"><rect fill="url(#gl3t5g8vonfq10)" height="56.2174" rx="4.1667" ry="4.1667" style="stroke:#EC7211;stroke-width:1.0417;" width="133.962" x="47.6042" y="597.3021"/><rect fill="url(#gl3t5g8vonfq10)" height="10.4167" style="stroke:#EC7211;stroke-width:1.0417;" width="15.625" x="160.7328" y="602.5104"/><rect fill="url(#gl3t5g8vonfq10)" height="2.0833" style="stroke:#EC7211;stroke-width:1.0417;" width="4.1667" x="158.6495" y="604.5938"/><rect fill="url(#gl3t5g8vonfq10)" height="2.0833" style="stroke:#EC7211;stroke-width:1.0417;" width="4.1667" x="158.6495" y="608.7604"/><text fill="#FFFFFF" font-family="Verdana" font-size="12.5" lengthAdjust="spacing" textLength="81.8787" x="68.4375" y="634.9465">Inventory DB</text></g><!--entity payprocessor--><g class="entity" data-entity="payprocessor" data-source-line="30" data-uid="ent0022" id="entity_payprocessor"><rect fill="url(#gl3t5g8vonfq10)" height="56.2174" rx="4.1667" ry="4.1667" style="stroke:#EC7211;stroke-width:1.0417;" width="172.0418" x="1024.3958" y="597.3021"/><rect fill="url(#gl3t5g8vonfq10)" height="10.4167" style="stroke:#EC7211;stroke-width:1.0417;" width="15.625" x="1175.6043" y="602.5104"/><rect fill="url(#gl3t5g8vonfq10)" height="2.0833" style="stroke:#EC7211;stroke-width:1.0417;" width="4.1667" x="1173.521" y="604.5938"/><rect fill="url(#gl3t5g8vonfq10)" height="2.0833" style="stroke:#EC7211;stroke-width:1.0417;" width="4.1667" x="1173.521" y="608.7604"/><text fill="#FFFFFF" font-family="Verdana" font-size="12.5" lengthAdjust="spacing" textLength="119.9585" x="1045.2292" y="634.9465">Payment Processor</text></g><!--entity shipping--><g class="entity" data-entity="shipping" data-source-line="31" data-uid="ent0023" id="entity_shipping"><rect fill="url(#gl3t5g8vonfq10)" height="56.2174" rx="4.1667" ry="4.1667" style="stroke:#EC7211;stroke-width:1.0417;" width="130.3609" x="857.7396" y="597.3021"/><rect fill="url(#gl3t5g8vonfq10)" height="10.4167" style="stroke:#EC7211;stroke-width:1.0417;" width="15.625" x="967.2672" y="602.5104"/><rect fill="url(#gl3t5g8vonfq10)" height="2.0833" style="stroke:#EC7211;stroke-width:1.0417;" width="4.1667" x="965.1838" y="604.5938"/><rect fill="url(#gl3t5g8vonfq10)" height="2.0833" style="stroke:#EC7211;stroke-width:1.0417;" width="4.1667" x="965.1838" y="608.7604"/><text fill="#FFFFFF" font-family="Verdana" font-size="12.5" lengthAdjust="spacing" textLength="78.2776" x="878.5729" y="634.9465">Shipping API</text></g><!--entity email--><g class="entity" data-entity="email" data-source-line="32" data-uid="ent0024" id="entity_email"><rect fill="url(#gl3t5g8vonfq10)" height="56.2174" rx="4.1667" ry="4.1667" style="stroke:#EC7211;stroke-width:1.0417;" width="136.9344" x="684.6563" y="597.3021"/><rect fill="url(#gl3t5g8vonfq10)" height="10.4167" style="stroke:#EC7211;stroke-width:1.0417;" width="15.625" x="800.7573" y="602.5104"/><rect fill="url(#gl3t5g8vonfq10)" height="2.0833" style="stroke:#EC7211;stroke-width:1.0417;" width="4.1667" x="798.674" y="604.5938"/><rect fill="url(#gl3t5g8vonfq10)" height="2.0833" style="stroke:#EC7211;stroke-width:1.0417;" width="4.1667" x="798.674" y="608.7604"/><text fill="#FFFFFF" font-family="Verdana" font-size="12.5" lengthAdjust="spacing" textLength="84.8511" x="705.4896" y="634.9465">Email Service</text></g><!--link Customer to catalog--><g class="link" data-entity-1="Customer" data-entity-2="catalog" data-source-line="35" data-uid="lnk25" id="link_Customer_catalog"><path d="M587.875,103.1562 C547.8438,113.2604 482.9271,133.9271 437.5,169.7604 C407.75,193.2292 387.2847,225.1109 373.618,250.5067" fill="none" id="Customer-to-catalog" style="stroke:#EC7211;stroke-width:3.125;"/><polygon fill="#EC7211" points="370.6563,256.0104,378.768,249.7294,373.1244,251.424,371.4298,245.7804,370.6563,256.0104" style="stroke:#EC7211;stroke-width:3.125;"/><text fill="#4E5D6C" font-family="Verdana" font-size="12.5" lengthAdjust="spacing" textLength="104.6265" x="443.75" y="187.6132">Browse products</text></g><!--link Customer to cart--><g class="link" data-entity-1="Customer" data-entity-2="cart" data-source-line="36" data-uid="lnk26" id="link_Customer_cart"><path d="M590.7188,138.7813 C584.1875,148.6146 577.8438,159.2708 572.9167,169.7604 C559.7604,197.7708 552.2093,226.1292 547.1468,249.6812" fill="none" id="Customer-to-cart" style="stroke:#EC7211;stroke-width:3.125;"/><polygon fill="#EC7211" points="545.8333,255.7917,551.8771,247.5016,546.9279,250.6996,543.7299,245.7504,545.8333,255.7917" style="stroke:#EC7211;stroke-width:3.125;"/><text fill="#4E5D6C" font-family="Verdana" font-size="12.5" lengthAdjust="spacing" textLength="69.4885" x="579.1667" y="187.6132">Add to cart</text></g><!--link Customer to checkout--><g class="link" data-entity-1="Customer" data-entity-2="checkout" data-source-line="37" data-uid="lnk27" id="link_Customer_checkout"><path d="M659.9896,106.4062 C694.5833,118.2917 747.1146,139.5729 785.4167,169.7604 C816.1771,194.0104 839.353,225.5983 855.3842,250.6816" fill="none" id="Customer-to-checkout" style="stroke:#EC7211;stroke-width:3.125;"/><polygon fill="#EC7211" points="858.75,255.9479,857.2122,245.8046,855.9452,251.5593,850.1904,250.2923,858.75,255.9479" style="stroke:#EC7211;stroke-width:3.125;"/><text fill="#4E5D6C" font-family="Verdana" font-size="12.5" lengthAdjust="spacing" textLength="57.2571" x="816.6667" y="187.6132">Purchase</text></g><!--link Customer to account--><g class="link" data-entity-1="Customer" data-entity-2="account" data-source-line="38" data-uid="lnk28" id="link_Customer_account"><path d="M645.2188,138.9063 C662.8333,175.0208 684.5732,219.6114 699.542,250.3094" fill="none" id="Customer-to-account" style="stroke:#EC7211;stroke-width:3.125;"/><polygon fill="#EC7211" points="702.2813,255.9271,701.9175,245.6743,699.9985,251.2456,694.4272,249.3267,702.2813,255.9271" style="stroke:#EC7211;stroke-width:3.125;"/><text fill="#4E5D6C" font-family="Verdana" font-size="12.5" lengthAdjust="spacing" textLength="93.3838" x="678.125" y="187.6132">Manage profile</text></g><!--link Admin to products--><g class="link" data-entity-1="Admin" data-entity-2="products" data-source-line="40" data-uid="lnk29" id="link_Admin_products"><path d="M220.4063,328.6458 C222.2813,347.25 226.6875,368.6458 236.4583,385.875 C250.2396,410.1771 268.4208,427.1351 289.3583,442.2393" fill="none" id="Admin-to-products" style="stroke:#EC7211;stroke-width:3.125;"/><polygon fill="#EC7211" points="294.4271,445.8958,289.2617,437.0318,290.2031,442.8487,284.3863,443.7902,294.4271,445.8958" style="stroke:#EC7211;stroke-width:3.125;"/><text fill="#4E5D6C" font-family="Verdana" font-size="12.5" lengthAdjust="spacing" textLength="99.7742" x="242.7083" y="377.6861">Manage catalog</text></g><!--link Admin to orders--><g class="link" data-entity-1="Admin" data-entity-2="orders" data-source-line="41" data-uid="lnk30" id="link_Admin_orders"><path d="M245.5313,322.3125 C251.1771,328.1979 257.5833,333.5938 264.5833,337.4375 C303.0208,358.5625 615.0625,376.5417 655.2083,394.2083 C682.6354,406.2813 704.1805,423.9707 722.3264,441.7415" fill="none" id="Admin-to-orders" style="stroke:#EC7211;stroke-width:3.125;"/><polygon fill="#EC7211" points="726.7917,446.1146,723.009,436.5782,723.0706,442.4704,717.1783,442.5319,726.7917,446.1146" style="stroke:#EC7211;stroke-width:3.125;"/><text fill="#4E5D6C" font-family="Verdana" font-size="12.5" lengthAdjust="spacing" textLength="91.9495" x="622.9167" y="377.6861">Process orders</text></g><!--link Admin to inventory--><g class="link" data-entity-1="Admin" data-entity-2="inventory" data-source-line="42" data-uid="lnk31" id="link_Admin_inventory"><path d="M194.5104,293.4271 C166.6458,303.8125 123.2604,324.8333 104.1667,359.8333 C89.3854,386.9479 98.4184,416.6 110.3247,440.5792" fill="none" id="Admin-to-inventory" style="stroke:#EC7211;stroke-width:3.125;"/><polygon fill="#EC7211" points="113.1042,446.1771,112.6669,435.9272,110.7879,441.5121,105.2029,439.6332,113.1042,446.1771" style="stroke:#EC7211;stroke-width:3.125;"/><text fill="#4E5D6C" font-family="Verdana" font-size="12.5" lengthAdjust="spacing" textLength="82.4158" x="110.4167" y="377.6861">Update stock</text></g><!--link catalog to products--><g class="link" data-entity-1="catalog" data-entity-2="products" data-source-line="44" data-uid="lnk32" id="link_catalog_products"><path d="M358.3125,312.75 C358.7604,333 358.7083,361.2188 356.25,385.875 C354.2292,406.1875 351.1896,422.7068 347.4396,439.8527" fill="none" id="catalog-to-products" style="stroke:#EC7211;stroke-width:3.125;"/><polygon fill="#EC7211" points="346.1042,445.9583,352.1777,437.6901,347.217,440.8703,344.0368,435.9096,346.1042,445.9583" style="stroke:#EC7211;stroke-width:3.125;"/></g><!--link cart to products--><g class="link" data-entity-1="cart" data-entity-2="products" data-source-line="45" data-uid="lnk33" id="link_cart_products"><path d="M546.5833,312.7292 C549.7813,335.4792 549.8646,367.0729 531.25,385.875 C518.6458,398.6146 467.8125,387.8854 451.0417,394.2083 C420.3958,405.7604 395.1633,423.8231 374.0279,441.7398" fill="none" id="cart-to-products" style="stroke:#EC7211;stroke-width:3.125;"/><polygon fill="#EC7211" points="369.2604,445.7813,379.106,442.8974,373.2333,442.4134,373.7174,436.5407,369.2604,445.7813" style="stroke:#EC7211;stroke-width:3.125;"/></g><!--link checkout to orders--><g class="link" data-entity-1="checkout" data-entity-2="orders" data-source-line="46" data-uid="lnk34" id="link_checkout_orders"><path d="M857.125,312.7083 C833.8229,348.3542 796.7119,405.1022 773.3994,440.7584" fill="none" id="checkout-to-orders" style="stroke:#EC7211;stroke-width:3.125;"/><polygon fill="#EC7211" points="769.9792,445.9896,778.5969,440.423,772.8293,441.6303,771.622,435.8627,769.9792,445.9896" style="stroke:#EC7211;stroke-width:3.125;"/></g><!--link checkout to payments--><g class="link" data-entity-1="checkout" data-entity-2="payments" data-source-line="47" data-uid="lnk35" id="link_checkout_payments"><path d="M886.0521,312.7083 C900.4792,348.3542 923.2093,404.539 937.626,440.1953" fill="none" id="checkout-to-payments" style="stroke:#EC7211;stroke-width:3.125;"/><polygon fill="#EC7211" points="939.9688,445.9896,940.3175,435.7363,938.0164,441.161,932.5917,438.86,939.9688,445.9896" style="stroke:#EC7211;stroke-width:3.125;"/></g><!--link account to users--><g class="link" data-entity-1="account" data-entity-2="users" data-source-line="48" data-uid="lnk36" id="link_account_users"><path d="M692,312.7083 C661.1875,348.3542 611.6915,405.6051 580.8686,441.2613" fill="none" id="account-to-users" style="stroke:#EC7211;stroke-width:3.125;"/><polygon fill="#EC7211" points="576.7813,445.9896,586.0644,441.6221,580.1873,442.0494,579.7601,436.1723,576.7813,445.9896" style="stroke:#EC7211;stroke-width:3.125;"/></g><!--link products to productdb--><g class="link" data-entity-1="products" data-entity-2="productdb" data-source-line="50" data-uid="lnk37" id="link_products_productdb"><path d="M328.5,502.7604 C317.6042,529.6354 303.4012,564.6249 292.5262,591.4374" fill="none" id="products-to-productdb" style="stroke:#EC7211;stroke-width:3.125;"/><polygon fill="#EC7211" points="290.1771,597.2292,297.5619,590.1076,292.1347,592.4027,289.8396,586.9755,290.1771,597.2292" style="stroke:#EC7211;stroke-width:3.125;"/></g><!--link orders to orderdb--><g class="link" data-entity-1="orders" data-entity-2="orderdb" data-source-line="51" data-uid="lnk38" id="link_orders_orderdb"><path d="M718.8438,502.7604 C686.2396,529.5521 641.6307,566.1984 609.0057,593.0109" fill="none" id="orders-to-orderdb" style="stroke:#EC7211;stroke-width:3.125;"/><polygon fill="#EC7211" points="604.1771,596.9792,614.0655,594.2458,608.2009,593.6722,608.7744,587.8077,604.1771,596.9792" style="stroke:#EC7211;stroke-width:3.125;"/></g><!--link users to userdb--><g class="link" data-entity-1="users" data-entity-2="userdb" data-source-line="52" data-uid="lnk39" id="link_users_userdb"><path d="M530.1979,502.7604 C507.6458,529.6354 477.4238,565.629 454.9238,592.4415" fill="none" id="users-to-userdb" style="stroke:#EC7211;stroke-width:3.125;"/><polygon fill="#EC7211" points="450.9063,597.2292,460.1244,592.7261,454.2542,593.2395,453.7409,587.3693,450.9063,597.2292" style="stroke:#EC7211;stroke-width:3.125;"/></g><!--link inventory to invdb--><g class="link" data-entity-1="inventory" data-entity-2="invdb" data-source-line="53" data-uid="lnk40" id="link_inventory_invdb"><path d="M126.4896,502.7604 C123.8646,529.6354 120.4736,564.1964 117.8486,591.0089" fill="none" id="inventory-to-invdb" style="stroke:#EC7211;stroke-width:3.125;"/><polygon fill="#EC7211" points="117.2396,597.2292,122.2999,588.3048,117.7471,592.0456,114.0062,587.4928,117.2396,597.2292" style="stroke:#EC7211;stroke-width:3.125;"/></g><!--link payments to payprocessor--><g class="link" data-entity-1="payments" data-entity-2="payprocessor" data-source-line="55" data-uid="lnk41" id="link_payments_payprocessor"><path d="M980.2708,502.7604 C1008.9375,529.5521 1047.8394,565.8998 1076.5373,592.7123" fill="none" id="payments-to-payprocessor" style="stroke:#EC7211;stroke-width:3.125;"/><polygon fill="#EC7211" points="1081.1042,596.9792,1077.0984,587.5343,1077.2984,593.4235,1071.4093,593.6235,1081.1042,596.9792" style="stroke:#EC7211;stroke-width:3.125;"/></g><!--link orders to shipping--><g class="link" data-entity-1="orders" data-entity-2="shipping" data-source-line="56" data-uid="lnk42" id="link_orders_shipping"><path d="M787.9896,502.9375 C804.0417,515.5208 823.0208,530.8021 839.5833,545.2188 C858.6979,561.8646 874.8753,577.1096 890.844,592.6513" fill="none" id="orders-to-shipping" style="stroke:#EC7211;stroke-width:3.125;"/><polygon fill="#EC7211" points="895.3229,597.0104,891.5106,587.4858,891.5905,593.3778,885.6985,593.4577,895.3229,597.0104" style="stroke:#EC7211;stroke-width:3.125;"/></g><!--link orders to email--><g class="link" data-entity-1="orders" data-entity-2="email" data-source-line="57" data-uid="lnk43" id="link_orders_email"><path d="M752.2708,502.7604 C752.4583,529.6354 752.7063,564.1668 752.8938,590.9793" fill="none" id="orders-to-email" style="stroke:#EC7211;stroke-width:3.125;"/><polygon fill="#EC7211" points="752.9375,597.2292,757.0385,587.8253,752.9011,592.021,748.7054,587.8835,752.9375,597.2292" style="stroke:#EC7211;stroke-width:3.125;"/></g><!--SRC=[VPF1Rjim38RlUGekzxp03WFID2iAR9Y1eAUX1rPc4oEnP4XoCsFekvUY94UsYvui__X4yfT-VVCdQWdmwZR6eZxIQjMXEkEHOBtVADEsP1L1TK7_QcmBMwjEZIVbUqjh-By2GEMDXLtll65s5BPrs-WL_uxbVbgZFUawRWFWuftHf3tyhQofU-LXXnulvlWCw435zHmzd4pNDVh8hFK9j7vExKwapgPFGFgPGq-EU4wbJAyZY77DtFjayZjUyE1m8FlMA79VEFYDchUqb2fsKNPp_8-jkJTlucgEtGXiWhX0Ann2ENX0JrSSOjceBTX7_SPVOmSu3CvJAt2JnK_zpmRkNHnXUW3tV1Vm2mUosNhDoWiwkZc_loiTroypB3fEa3XT839F8i8S2-1cBr5iJQ3fjFj_dgp6ovVtbKurNO6n-LoxB2o3ryJWRQj7WLqIvk2-nMRiBIG59O-PNmfiDZzooE4xXyoQAvlCYLalKUi3jwrhy4P-bqnAUk2gdfyg7zi2IYaFJBpyqFErkJ39gBnRuV8a1PZ6NK-u65jf6SykALDgJ640dpg-L08UIfsbQpw7ig_8x7ckPO-ttdErU1xPR91ZjaDIihEYjEGeMHahYoZRnW8YtSmaQwnA0cFVF4IPfQ9q4Pn2ZI5v_m00]--></g></svg>