<svg xmlns="http://www.w3.org/2000/svg" xmlns:xlink="http://www.w3.org/1999/xlink" contentStyleType="text/css" data-diagram-type="DESCRIPTION" height="840.625px" preserveAspectRatio="none" style="width:646px;height:840px;" version="1.1" viewBox="0 0 646 840" width="646.875px" zoomAndPan="magnify"><defs><linearGradient id="gt5p68b6wwo1y0" x1="50%" x2="50%" y1="0%" y2="100%"><stop offset="0%" stop-color="#F18E3E"/><stop offset="100%" stop-color="#EC7211"/></linearGradient></defs><g><!--cluster Interactive Website Architecture--><g class="cluster" data-entity="Interactive Website Architecture" data-source-line="3" data-uid="ent0002" id="cluster_Interactive Website Architecture"><path d="M10.4167,6.25 L249.5544,6.25 A6.25,6.25 0 0 1 253.7211,10.4167 L261.0128,37.4674 L635.4167,37.4674 A4.1667,4.1667 0 0 1 639.5833,41.6341 L639.5833,830.0417 A4.1667,4.1667 0 0 1 635.4167,834.2083 L10.4167,834.2083 A4.1667,4.1667 0 0 1 6.25,830.0417 L6.25,10.4167 A4.1667,4.1667 0 0 1 10.4167,6.25" fill="none" style="stroke:#4E5D6C;stroke-width:2.0833;"/><line style="stroke:#4E5D6C;stroke-width:2.0833;" x1="6.25" x2="261.0128" y1="37.4674" y2="37.4674"/><text fill="#4E5D6C" font-family="Verdana" font-size="12.5" font-weight="bold" lengthAdjust="spacing" textLength="230.8044" x="15.625" y="25.1444">Interactive Website Architecture</text></g><!--cluster Client Side--><g class="cluster" data-entity="Client Side" data-source-line="6" data-uid="ent0004" id="cluster_Client Side"><path d="M35.4167,212.4583 L119.9097,212.4583 A6.25,6.25 0 0 1 124.0763,216.625 L131.368,243.6758 L236.4583,243.6758 A4.1667,4.1667 0 0 1 240.625,247.8424 L240.625,658.1979 A4.1667,4.1667 0 0 1 236.4583,662.3646 L35.4167,662.3646 A4.1667,4.1667 0 0 1 31.25,658.1979 L31.25,216.625 A4.1667,4.1667 0 0 1 35.4167,212.4583" fill="none" style="stroke:#4E5D6C;stroke-width:2.0833;"/><line style="stroke:#4E5D6C;stroke-width:2.0833;" x1="31.25" x2="131.368" y1="243.6758" y2="243.6758"/><text fill="#4E5D6C" font-family="Verdana" font-size="12.5" font-weight="bold" lengthAdjust="spacing" textLength="76.1597" x="40.625" y="231.3528">Client Side</text></g><!--cluster Server Side--><g class="cluster" data-entity="Server Side" data-source-line="12" data-uid="ent0008" id="cluster_Server Side"><path d="M269.7917,400.9688 L359.6252,400.9688 A6.25,6.25 0 0 1 363.7919,405.1354 L371.0836,432.1862 L610.4167,432.1862 A4.1667,4.1667 0 0 1 614.5833,436.3529 L614.5833,805.0417 A4.1667,4.1667 0 0 1 610.4167,809.2083 L269.7917,809.2083 A4.1667,4.1667 0 0 1 265.625,805.0417 L265.625,405.1354 A4.1667,4.1667 0 0 1 269.7917,400.9688" fill="none" style="stroke:#4E5D6C;stroke-width:2.0833;"/><line style="stroke:#4E5D6C;stroke-width:2.0833;" x1="265.625" x2="371.0836" y1="432.1862" y2="432.1862"/><text fill="#4E5D6C" font-family="Verdana" font-size="12.5" font-weight="bold" lengthAdjust="spacing" textLength="81.5002" x="275" y="419.8632">Server Side</text></g><!--entity User--><g class="entity" data-entity="User" data-source-line="4" data-uid="ent0003" id="entity_User"><ellipse cx="165.6206" cy="59.375" fill="url(#gt5p68b6wwo1y0)" rx="8.3333" ry="8.3333" style="stroke:#EC7211;stroke-width:1.0417;"/><path d="M165.6206,67.7083 L165.6206,95.8333 M152.0789,76.0417 L179.1623,76.0417 M165.6206,95.8333 L152.0789,111.4583 M165.6206,95.8333 L179.1623,111.4583" fill="none" style="stroke:#EC7211;stroke-width:1.0417;"/><text fill="#4E5D6C" font-family="Verdana" font-size="12.5" lengthAdjust="spacing" textLength="28.4912" x="151.375" y="130.3528">User</text></g><!--entity html--><g class="entity" data-entity="html" data-source-line="7" data-uid="ent0005" id="entity_html"><rect fill="url(#gt5p68b6wwo1y0)" height="56.2174" rx="4.1667" ry="4.1667" style="stroke:#EC7211;stroke-width:1.0417;" width="115.6759" x="107.7917" y="256.2083"/><rect fill="url(#gt5p68b6wwo1y0)" height="10.4167" style="stroke:#EC7211;stroke-width:1.0417;" width="15.625" x="202.6342" y="261.4167"/><rect fill="url(#gt5p68b6wwo1y0)" height="2.0833" style="stroke:#EC7211;stroke-width:1.0417;" width="4.1667" x="200.5509" y="263.5"/><rect fill="url(#gt5p68b6wwo1y0)" height="2.0833" style="stroke:#EC7211;stroke-width:1.0417;" width="4.1667" x="200.5509" y="267.6667"/><text fill="#FFFFFF" font-family="Verdana" font-size="12.5" lengthAdjust="spacing" textLength="63.5925" x="128.625" y="293.8528">HTML/CSS</text></g><!--entity js--><g class="entity" data-entity="js" data-source-line="8" data-uid="ent0006" id="entity_js"><rect fill="url(#gt5p68b6wwo1y0)" height="56.2174" rx="4.1667" ry="4.1667" style="stroke:#EC7211;stroke-width:1.0417;" width="114.742" x="47.8333" y="444.7188"/><rect fill="url(#gt5p68b6wwo1y0)" height="10.4167" style="stroke:#EC7211;stroke-width:1.0417;" width="15.625" x="141.742" y="449.9271"/><rect fill="url(#gt5p68b6wwo1y0)" height="2.0833" style="stroke:#EC7211;stroke-width:1.0417;" width="4.1667" x="139.6587" y="452.0104"/><rect fill="url(#gt5p68b6wwo1y0)" height="2.0833" style="stroke:#EC7211;stroke-width:1.0417;" width="4.1667" x="139.6587" y="456.1771"/><text fill="#FFFFFF" font-family="Verdana" font-size="12.5" lengthAdjust="spacing" textLength="62.6587" x="68.6667" y="482.3632">JavaScript</text></g><!--entity dom--><g class="entity" data-entity="dom" data-source-line="9" data-uid="ent0007" id="entity_dom"><rect fill="url(#gt5p68b6wwo1y0)" height="56.2174" rx="4.1667" ry="4.1667" style="stroke:#EC7211;stroke-width:1.0417;" width="82.3324" x="48.4167" y="589.4792"/><rect fill="url(#gt5p68b6wwo1y0)" height="10.4167" style="stroke:#EC7211;stroke-width:1.0417;" width="15.625" x="109.9157" y="594.6875"/><rect fill="url(#gt5p68b6wwo1y0)" height="2.0833" style="stroke:#EC7211;stroke-width:1.0417;" width="4.1667" x="107.8324" y="596.7708"/><rect fill="url(#gt5p68b6wwo1y0)" height="2.0833" style="stroke:#EC7211;stroke-width:1.0417;" width="4.1667" x="107.8324" y="600.9375"/><text fill="#FFFFFF" font-family="Verdana" font-size="12.5" lengthAdjust="spacing" textLength="30.249" x="69.25" y="627.1236">DOM</text></g><!--entity server--><g class="entity" data-entity="server" data-source-line="13" data-uid="ent0009" id="entity_server"><rect fill="url(#gt5p68b6wwo1y0)" height="56.2174" rx="4.1667" ry="4.1667" style="stroke:#EC7211;stroke-width:1.0417;" width="125.0326" x="318.7292" y="444.7188"/><rect fill="url(#gt5p68b6wwo1y0)" height="10.4167" style="stroke:#EC7211;stroke-width:1.0417;" width="15.625" x="422.9284" y="449.9271"/><rect fill="url(#gt5p68b6wwo1y0)" height="2.0833" style="stroke:#EC7211;stroke-width:1.0417;" width="4.1667" x="420.8451" y="452.0104"/><rect fill="url(#gt5p68b6wwo1y0)" height="2.0833" style="stroke:#EC7211;stroke-width:1.0417;" width="4.1667" x="420.8451" y="456.1771"/><text fill="#FFFFFF" font-family="Verdana" font-size="12.5" lengthAdjust="spacing" textLength="72.9492" x="339.5625" y="482.3632">Web Server</text></g><!--entity app--><g class="entity" data-entity="app" data-source-line="14" data-uid="ent0010" id="entity_app"><rect fill="url(#gt5p68b6wwo1y0)" height="56.2174" rx="4.1667" ry="4.1667" style="stroke:#EC7211;stroke-width:1.0417;" width="158.7911" x="337.2708" y="589.4792"/><rect fill="url(#gt5p68b6wwo1y0)" height="10.4167" style="stroke:#EC7211;stroke-width:1.0417;" width="15.625" x="475.2286" y="594.6875"/><rect fill="url(#gt5p68b6wwo1y0)" height="2.0833" style="stroke:#EC7211;stroke-width:1.0417;" width="4.1667" x="473.1453" y="596.7708"/><rect fill="url(#gt5p68b6wwo1y0)" height="2.0833" style="stroke:#EC7211;stroke-width:1.0417;" width="4.1667" x="473.1453" y="600.9375"/><text fill="#FFFFFF" font-family="Verdana" font-size="12.5" lengthAdjust="spacing" textLength="106.7078" x="358.1042" y="627.1236">Application Logic</text></g><!--entity db--><g class="entity" data-entity="db" data-source-line="15" data-uid="ent0011" id="entity_db"><rect fill="url(#gt5p68b6wwo1y0)" height="56.2174" rx="4.1667" ry="4.1667" style="stroke:#EC7211;stroke-width:1.0417;" width="111.7269" x="354.5521" y="736.3229"/><rect fill="url(#gt5p68b6wwo1y0)" height="10.4167" style="stroke:#EC7211;stroke-width:1.0417;" width="15.625" x="445.4456" y="741.5313"/><rect fill="url(#gt5p68b6wwo1y0)" height="2.0833" style="stroke:#EC7211;stroke-width:1.0417;" width="4.1667" x="443.3623" y="743.6146"/><rect fill="url(#gt5p68b6wwo1y0)" height="2.0833" style="stroke:#EC7211;stroke-width:1.0417;" width="4.1667" x="443.3623" y="747.7813"/><text fill="#FFFFFF" font-family="Verdana" font-size="12.5" lengthAdjust="spacing" textLength="59.6436" x="375.3854" y="773.9674">Database</text></g><!--link User to html--><g class="link" data-entity-1="User" data-entity-2="html" data-source-line="18" data-uid="lnk12" id="link_User_html"><path d="M165.625,138.8958 C165.625,175.0104 165.625,218.9792 165.625,249.6667" fill="none" id="User-to-html" style="stroke:#EC7211;stroke-width:3.125;"/><polygon fill="#EC7211" points="165.625,255.9167,169.7917,246.5417,165.625,250.7083,161.4583,246.5417,165.625,255.9167" style="stroke:#EC7211;stroke-width:3.125;"/><text fill="#4E5D6C" font-family="Verdana" font-size="12.5" lengthAdjust="spacing" textLength="93.042" x="171.875" y="187.6028">Requests page</text></g><!--link html to js--><g class="link" data-entity-1="html" data-entity-2="js" data-source-line="19" data-uid="lnk13" id="link_html_js"><path d="M117.6771,312.8438 C107.2083,321.3021 97.5208,331.6146 91.6667,343.6771 C76.1458,375.6771 83.1521,411.4168 92.1834,438.4064" fill="none" id="html-to-js" style="stroke:#EC7211;stroke-width:3.125;"/><polygon fill="#EC7211" points="94.1667,444.3333,95.1431,434.1207,92.5139,439.3942,87.2404,436.7651,94.1667,444.3333" style="stroke:#EC7211;stroke-width:3.125;"/><text fill="#4E5D6C" font-family="Verdana" font-size="12.5" lengthAdjust="spacing" textLength="102.2034" x="97.9167" y="368.8215">Executes scripts</text></g><!--link js to dom--><g class="link" data-entity-1="js" data-entity-2="dom" data-source-line="20" data-uid="lnk14" id="link_js_dom"><path d="M102.1979,501.3854 C99.4271,526.6458 96.0362,557.6727 93.2654,582.9123" fill="none" id="js-to-dom" style="stroke:#EC7211;stroke-width:3.125;"/><polygon fill="#EC7211" points="92.5833,589.125,97.7482,580.2607,93.1517,583.9478,89.4646,579.3513,92.5833,589.125" style="stroke:#EC7211;stroke-width:3.125;"/><text fill="#4E5D6C" font-family="Verdana" font-size="12.5" lengthAdjust="spacing" textLength="127.7649" x="104.1667" y="550.0403">Manipulates content</text></g><!--link html to server--><g class="link" data-entity-1="html" data-entity-2="server" data-source-line="21" data-uid="lnk15" id="link_html_server"><path d="M186.7813,312.5938 C206.4896,337.6146 234.75,372.5521 247.9167,384.3021 C273.5208,407.1667 300.2506,425.181 326.5319,441.0143" fill="none" id="html-to-server" style="stroke:#EC7211;stroke-width:3.125;"/><polygon fill="#EC7211" points="331.8854,444.2396,326.0053,435.8327,327.4242,441.5519,321.705,442.9707,331.8854,444.2396" style="stroke:#EC7211;stroke-width:3.125;"/><text fill="#4E5D6C" font-family="Verdana" font-size="12.5" lengthAdjust="spacing" textLength="112.7258" x="254.1667" y="361.5299">Form submissions</text><text fill="#4E5D6C" font-family="Verdana" font-size="12.5" lengthAdjust="spacing" textLength="87.6282" x="266.7155" y="376.0806">AJAX requests</text></g><!--link server to html--><g class="link" data-entity-1="server" data-entity-2="html" data-source-line="26" data-uid="lnk20" id="link_server_html"><path d="M388.9375,444.375 C395.1042,416.0521 399.4583,372.0938 377.0833,343.6771 C358.1458,319.6354 285.7814,303.8078 229.9585,294.6099" fill="none" id="server-to-html" style="stroke:#EC7211;stroke-width:3.125;"/><polygon fill="#EC7211" points="223.7917,293.5938,232.3645,299.2291,228.9307,294.4405,233.7193,291.0067,223.7917,293.5938" style="stroke:#EC7211;stroke-width:3.125;"/><text fill="#4E5D6C" font-family="Verdana" font-size="12.5" lengthAdjust="spacing" textLength="106.958" x="398.9583" y="368.8215">Dynamic content</text></g><!--link server to app--><g class="link" data-entity-1="server" data-entity-2="app" data-source-line="22" data-uid="lnk16" id="link_server_app"><path d="M338.625,501.375 C319.6458,517.2292 303.9375,537.9896 315.625,558.2292 C322.9167,570.8646 328.8747,577.5772 341.1768,585.6293" fill="none" id="server-to-app" style="stroke:#EC7211;stroke-width:3.125;"/><polygon fill="#EC7211" points="346.4063,589.0521,340.844,580.4316,342.0484,586.1997,336.2802,587.4041,346.4063,589.0521" style="stroke:#EC7211;stroke-width:3.125;"/><text fill="#4E5D6C" font-family="Verdana" font-size="12.5" lengthAdjust="spacing" textLength="120.3918" x="321.875" y="550.0403">Processes requests</text></g><!--link app to server--><g class="link" data-entity-1="app" data-entity-2="server" data-source-line="25" data-uid="lnk19" id="link_app_server"><path d="M440.1042,589.3125 C451.4792,572.6563 460.9688,551.0104 452.0833,532.1875 C446.4375,520.2292 441.8054,513.9047 431.6387,505.4047" fill="none" id="app-to-server" style="stroke:#EC7211;stroke-width:3.125;"/><polygon fill="#EC7211" points="426.8438,501.3958,431.3636,510.6058,430.8395,504.7366,436.7087,504.2125,426.8438,501.3958" style="stroke:#EC7211;stroke-width:3.125;"/><text fill="#4E5D6C" font-family="Verdana" font-size="12.5" lengthAdjust="spacing" textLength="92.7246" x="461.4583" y="550.0403">Response data</text></g><!--link app to db--><g class="link" data-entity-1="app" data-entity-2="db" data-source-line="23" data-uid="lnk17" id="link_app_db"><path d="M356.5104,645.9896 C343.8958,654.6771 332.2292,665.6042 325,679.0313 C313.0417,701.2396 326.249,717.8541 349.0095,732.8436" fill="none" id="app-to-db" style="stroke:#EC7211;stroke-width:3.125;"/><polygon fill="#EC7211" points="354.2292,736.2813,348.6913,727.645,349.8794,733.4166,344.1079,734.6047,354.2292,736.2813" style="stroke:#EC7211;stroke-width:3.125;"/><text fill="#4E5D6C" font-family="Verdana" font-size="12.5" lengthAdjust="spacing" textLength="100.3479" x="331.25" y="696.884">Data operations</text></g><!--link db to app--><g class="link" data-entity-1="db" data-entity-2="app" data-source-line="24" data-uid="lnk18" id="link_db_app"><path d="M428.6354,736.0625 C433.9167,726.6458 438.9792,715.7708 441.6667,705.0729 C446.6458,685.2292 442.5782,668.7408 434.8803,651.8241" fill="none" id="db-to-app" style="stroke:#EC7211;stroke-width:3.125;"/><polygon fill="#EC7211" points="432.2917,646.1354,432.3822,656.3942,434.4489,650.876,439.9671,652.9427,432.2917,646.1354" style="stroke:#EC7211;stroke-width:3.125;"/><text fill="#4E5D6C" font-family="Verdana" font-size="12.5" lengthAdjust="spacing" textLength="80.9021" x="448.9583" y="696.884">Returns data</text></g><!--SRC=[TP9FJyCm3CNl_HIczuax1wHg0y6q2RI2G08ERcPr6MqIudI0qBuxJlQl6-BKDEzdvpqdPs51BG5-yi1wD3LbcKFrZZL1Vci2ULH1hmYUg68T20gl5l9LeVEKmqy6883ryCZaC_dR5myRJIP0gUTR3a3PrbaJTrzk7gQJys5PlW4oB4BRd09ZN66fl7OX8Ki-1KPtqwJCRIlI-kZialoA_7zdInJO4Aa1f-KfL3ZNQ8L1MmCJMskLM7JkZmyCM27JnaorynBd0OF1PGe75v3FwACZ3YmkQyg5I48abXprgozINI3nar9pH4I9W4ICn1IDTbs34L9MxiQ4epwR896yjhu5xgfMCqi0VZN5k7W6lxKGgxPmh9DGiUZUMqNCqhpFHJ5vg28Jmu9ryYhYO18WGg_9ZEHX61c4WFtoWxSPiOoEQO_qdEncDVess6frIBd-1G00]--></g></svg>