<svg xmlns="http://www.w3.org/2000/svg" xmlns:xlink="http://www.w3.org/1999/xlink" contentStyleType="text/css" data-diagram-type="DESCRIPTION" height="343.75px" preserveAspectRatio="none" style="width:735px;height:343px;" version="1.1" viewBox="0 0 735 343" width="735.4167px" zoomAndPan="magnify"><defs><linearGradient id="g1xh5nfm6wz3io0" x1="50%" x2="50%" y1="0%" y2="100%"><stop offset="0%" stop-color="#F18E3E"/><stop offset="100%" stop-color="#EC7211"/></linearGradient></defs><g><!--cluster Web Application Comparison--><g class="cluster" data-entity="Web Application Comparison" data-source-line="3" data-uid="ent0002" id="cluster_Web Application Comparison"><path d="M10.4167,6.25 L221.9421,6.25 A6.25,6.25 0 0 1 226.1088,10.4167 L233.4005,37.4674 L723.9583,37.4674 A4.1667,4.1667 0 0 1 728.125,41.6341 L728.125,333.0104 A4.1667,4.1667 0 0 1 723.9583,337.1771 L10.4167,337.1771 A4.1667,4.1667 0 0 1 6.25,333.0104 L6.25,10.4167 A4.1667,4.1667 0 0 1 10.4167,6.25" fill="none" style="stroke:#4E5D6C;stroke-width:2.0833;"/><line style="stroke:#4E5D6C;stroke-width:2.0833;" x1="6.25" x2="233.4005" y1="37.4674" y2="37.4674"/><text fill="#4E5D6C" font-family="Verdana" font-size="12.5" font-weight="bold" lengthAdjust="spacing" textLength="203.1921" x="15.625" y="25.1444">Web Application Comparison</text></g><!--entity interactive--><g class="entity" data-entity="interactive" data-source-line="4" data-uid="ent0003" id="entity_interactive"><rect fill="url(#g1xh5nfm6wz3io0)" height="56.2174" rx="4.1667" ry="4.1667" style="stroke:#EC7211;stroke-width:1.0417;" width="180.4647" x="526.4375" y="264.2917"/><rect fill="url(#g1xh5nfm6wz3io0)" height="10.4167" style="stroke:#EC7211;stroke-width:1.0417;" width="15.625" x="686.0688" y="269.5"/><rect fill="url(#g1xh5nfm6wz3io0)" height="2.0833" style="stroke:#EC7211;stroke-width:1.0417;" width="4.1667" x="683.9855" y="271.5833"/><rect fill="url(#g1xh5nfm6wz3io0)" height="2.0833" style="stroke:#EC7211;stroke-width:1.0417;" width="4.1667" x="683.9855" y="275.75"/><text fill="#FFFFFF" font-family="Verdana" font-size="12.5" lengthAdjust="spacing" textLength="128.3813" x="547.2708" y="301.9361">Interactive Websites</text></g><!--entity ecommerce--><g class="entity" data-entity="ecommerce" data-source-line="5" data-uid="ent0004" id="entity_ecommerce"><rect fill="url(#g1xh5nfm6wz3io0)" height="56.2174" rx="4.1667" ry="4.1667" style="stroke:#EC7211;stroke-width:1.0417;" width="194.1793" x="267.4896" y="264.2917"/><rect fill="url(#g1xh5nfm6wz3io0)" height="10.4167" style="stroke:#EC7211;stroke-width:1.0417;" width="15.625" x="440.8355" y="269.5"/><rect fill="url(#g1xh5nfm6wz3io0)" height="2.0833" style="stroke:#EC7211;stroke-width:1.0417;" width="4.1667" x="438.7522" y="271.5833"/><rect fill="url(#g1xh5nfm6wz3io0)" height="2.0833" style="stroke:#EC7211;stroke-width:1.0417;" width="4.1667" x="438.7522" y="275.75"/><text fill="#FFFFFF" font-family="Verdana" font-size="12.5" lengthAdjust="spacing" textLength="142.0959" x="288.3229" y="301.9361">E-commerce Platforms</text></g><!--entity pwa--><g class="entity" data-entity="pwa" data-source-line="6" data-uid="ent0005" id="entity_pwa"><rect fill="url(#g1xh5nfm6wz3io0)" height="56.2174" rx="4.1667" ry="4.1667" style="stroke:#EC7211;stroke-width:1.0417;" width="191.6219" x="22.9375" y="264.2917"/><rect fill="url(#g1xh5nfm6wz3io0)" height="10.4167" style="stroke:#EC7211;stroke-width:1.0417;" width="15.625" x="193.7261" y="269.5"/><rect fill="url(#g1xh5nfm6wz3io0)" height="2.0833" style="stroke:#EC7211;stroke-width:1.0417;" width="4.1667" x="191.6427" y="271.5833"/><rect fill="url(#g1xh5nfm6wz3io0)" height="2.0833" style="stroke:#EC7211;stroke-width:1.0417;" width="4.1667" x="191.6427" y="275.75"/><text fill="#FFFFFF" font-family="Verdana" font-size="12.5" lengthAdjust="spacing" textLength="139.5386" x="43.7708" y="301.9361">Progressive Web Apps</text></g><g class="entity" data-entity="GMN6" data-source-line="9" data-uid="ent0007" id="entity_GMN6"><path d="M521.5417,54.1667 L521.5417,197.6237 A4.1667,4.1667 0 0 0 525.7083,201.7904 L612.5,201.7904 L616.6667,264.0938 L620.8333,201.7904 L707.6257,201.7904 A4.1667,4.1667 0 0 0 711.7923,197.6237 L711.7923,60.4167 L701.3757,50 L525.7083,50 A4.1667,4.1667 0 0 0 521.5417,54.1667" fill="#0073BB" style="stroke:#005C96;stroke-width:1.0417;"/><path d="M701.3757,50 L701.3757,58.3333 A2.0833,2.0833 0 0 0 703.459,60.4167 L711.7923,60.4167 L701.3757,50" fill="#0073BB" style="stroke:#005C96;stroke-width:1.0417;"/><text fill="#FFFFFF" font-family="Verdana" font-size="12.5" font-weight="bold" lengthAdjust="spacing" textLength="74.7803" x="533" y="72.0194">Strengths:</text><text fill="#FFFFFF" font-family="Verdana" font-size="12.5" lengthAdjust="spacing" textLength="133.1238" x="533" y="86.5702">&#8226; Quick development</text><text fill="#FFFFFF" font-family="Verdana" font-size="12.5" lengthAdjust="spacing" textLength="101.1353" x="533" y="101.121">&#8226; High flexibility</text><text fill="#FFFFFF" font-family="Verdana" font-size="12.5" lengthAdjust="spacing" textLength="147.6257" x="533" y="115.6718">&#8226; Rich user interactions</text><text fill="#FFFFFF" font-family="Verdana" font-size="12.5" lengthAdjust="spacing" textLength="3.9734" x="533" y="130.2226">&#160;</text><text fill="#FFFFFF" font-family="Verdana" font-size="12.5" font-weight="bold" lengthAdjust="spacing" textLength="86.2732" x="533" y="144.7734">Constraints:</text><text fill="#FFFFFF" font-family="Verdana" font-size="12.5" lengthAdjust="spacing" textLength="144.5007" x="533" y="159.3241">&#8226; Network dependency</text><text fill="#FFFFFF" font-family="Verdana" font-size="12.5" lengthAdjust="spacing" textLength="147.5647" x="533" y="173.8749">&#8226; Browser compatibility</text><text fill="#FFFFFF" font-family="Verdana" font-size="12.5" lengthAdjust="spacing" textLength="157.959" x="533" y="188.4257">&#8226; Security considerations</text></g><g class="entity" data-entity="GMN9" data-source-line="21" data-uid="ent0010" id="entity_GMN9"><path d="M244.2188,54.1667 L244.2188,197.6237 A4.1667,4.1667 0 0 0 248.3854,201.7904 L360.4167,201.7904 L364.5833,264.0938 L368.75,201.7904 L480.7849,201.7904 A4.1667,4.1667 0 0 0 484.9516,197.6237 L484.9516,60.4167 L474.5349,50 L248.3854,50 A4.1667,4.1667 0 0 0 244.2188,54.1667" fill="#0073BB" style="stroke:#005C96;stroke-width:1.0417;"/><path d="M474.5349,50 L474.5349,58.3333 A2.0833,2.0833 0 0 0 476.6182,60.4167 L484.9516,60.4167 L474.5349,50" fill="#0073BB" style="stroke:#005C96;stroke-width:1.0417;"/><text fill="#FFFFFF" font-family="Verdana" font-size="12.5" font-weight="bold" lengthAdjust="spacing" textLength="74.7803" x="255.6771" y="72.0194">Strengths:</text><text fill="#FFFFFF" font-family="Verdana" font-size="12.5" lengthAdjust="spacing" textLength="156.0303" x="255.6771" y="86.5702">&#8226; Proven business model</text><text fill="#FFFFFF" font-family="Verdana" font-size="12.5" lengthAdjust="spacing" textLength="109.6741" x="255.6771" y="101.121">&#8226; Rich ecosystem</text><text fill="#FFFFFF" font-family="Verdana" font-size="12.5" lengthAdjust="spacing" textLength="144.2017" x="255.6771" y="115.6718">&#8226; Scalable architecture</text><text fill="#FFFFFF" font-family="Verdana" font-size="12.5" lengthAdjust="spacing" textLength="3.9734" x="255.6771" y="130.2226">&#160;</text><text fill="#FFFFFF" font-family="Verdana" font-size="12.5" font-weight="bold" lengthAdjust="spacing" textLength="86.2732" x="255.6771" y="144.7734">Constraints:</text><text fill="#FFFFFF" font-family="Verdana" font-size="12.5" lengthAdjust="spacing" textLength="208.4412" x="255.6771" y="159.3241">&#8226; Complex security requirements</text><text fill="#FFFFFF" font-family="Verdana" font-size="12.5" lengthAdjust="spacing" textLength="162.9272" x="255.6771" y="173.8749">&#8226; High development costs</text><text fill="#FFFFFF" font-family="Verdana" font-size="12.5" lengthAdjust="spacing" textLength="155.4932" x="255.6771" y="188.4257">&#8226; Regulatory compliance</text></g><g class="entity" data-entity="GMN12" data-source-line="33" data-uid="ent0013" id="entity_GMN12"><path d="M23.0833,54.1667 L23.0833,197.6237 A4.1667,4.1667 0 0 0 27.25,201.7904 L112.8854,201.7904 L118.2292,264.0938 L121.2188,201.7904 L204.0037,201.7904 A4.1667,4.1667 0 0 0 208.1704,197.6237 L208.1704,60.4167 L197.7537,50 L27.25,50 A4.1667,4.1667 0 0 0 23.0833,54.1667" fill="#0073BB" style="stroke:#005C96;stroke-width:1.0417;"/><path d="M197.7537,50 L197.7537,58.3333 A2.0833,2.0833 0 0 0 199.8371,60.4167 L208.1704,60.4167 L197.7537,50" fill="#0073BB" style="stroke:#005C96;stroke-width:1.0417;"/><text fill="#FFFFFF" font-family="Verdana" font-size="12.5" font-weight="bold" lengthAdjust="spacing" textLength="74.7803" x="34.5417" y="72.0194">Strengths:</text><text fill="#FFFFFF" font-family="Verdana" font-size="12.5" lengthAdjust="spacing" textLength="152.7954" x="34.5417" y="86.5702">&#8226; Native app experience</text><text fill="#FFFFFF" font-family="Verdana" font-size="12.5" lengthAdjust="spacing" textLength="134.4849" x="34.5417" y="101.121">&#8226; Offline functionality</text><text fill="#FFFFFF" font-family="Verdana" font-size="12.5" lengthAdjust="spacing" textLength="103.7292" x="34.5417" y="115.6718">&#8226; Cross-platform</text><text fill="#FFFFFF" font-family="Verdana" font-size="12.5" lengthAdjust="spacing" textLength="3.9734" x="34.5417" y="130.2226">&#160;</text><text fill="#FFFFFF" font-family="Verdana" font-size="12.5" font-weight="bold" lengthAdjust="spacing" textLength="86.2732" x="34.5417" y="144.7734">Constraints:</text><text fill="#FFFFFF" font-family="Verdana" font-size="12.5" lengthAdjust="spacing" textLength="102.179" x="34.5417" y="159.3241">&#8226; iOS limitations</text><text fill="#FFFFFF" font-family="Verdana" font-size="12.5" lengthAdjust="spacing" textLength="119.0247" x="34.5417" y="173.8749">&#8226; Complex caching</text><text fill="#FFFFFF" font-family="Verdana" font-size="12.5" lengthAdjust="spacing" textLength="99.3042" x="34.5417" y="188.4257">&#8226; Battery usage</text></g><!--SRC=[XLD1Rjj03Bph5MoE1lo1tbgZG7j9qlZGGz43lQOa8glTBKdPCOe2VKkVrfUKaXtBCf3afjqXEJl3qJjhgIF0lIwpO6gegWg6Hsm8RhxH1ZwK4ZcWSKwmobr1OStf1dvL0C7FEL4o-Fub6Ga6uns1joaRwGz01Pw0USUdfHywaa1m7z7gBDsnWvxlv_NtaXiXrHF3yB1ZVTbZvQKf6u7b0hc-8WLOBDOcb1fhzVrYCLxz-_CNllOS7c5BEugvTCvoHZvpqq8TwOat7DaEP-21GmkzaamSEMbrObdvjmawDEEv9Tjd6PWAfIsbCCtxA7a_J1k4kibNR6iAlVY5mqbvwtn7EW2VCog-LdvftekwtSeT9TZqoiaTXIvlASub-Xmzg54tlILWn4tqg4XeVRt1Ug4tX0-1SHD1dtK8_UnPQF1QvsPVRC7LwWNyG4tl0Sbo65sAZ6cKzv85GnvU4N-BOqYn5A2dGiAKJcuDw5rTHpS5wZwDgyNPFbQILPVb5DStnFFT6Y9tREUbpKq9w3wcPee2cYVguEdod-zIt-__]--></g></svg>