<svg xmlns="http://www.w3.org/2000/svg" xmlns:xlink="http://www.w3.org/1999/xlink" contentStyleType="text/css" data-diagram-type="DESCRIPTION" height="1000px" preserveAspectRatio="none" style="width:1150px;height:1000px;" version="1.1" viewBox="0 0 1150 1000" width="1150px" zoomAndPan="magnify"><defs><linearGradient id="gek0nl4mk0wyl0" x1="50%" x2="50%" y1="0%" y2="100%"><stop offset="0%" stop-color="#F18E3E"/><stop offset="100%" stop-color="#EC7211"/></linearGradient></defs><g><!--cluster Progressive Web App Architecture--><g class="cluster" data-entity="Progressive Web App Architecture" data-source-line="3" data-uid="ent0002" id="cluster_Progressive Web App Architecture"><path d="M10.4167,6.25 L261.6943,6.25 A6.25,6.25 0 0 1 265.861,10.4167 L273.1527,37.4674 L1138.5417,37.4674 A4.1667,4.1667 0 0 1 1142.7083,41.6341 L1142.7083,989.3854 A4.1667,4.1667 0 0 1 1138.5417,993.5521 L10.4167,993.5521 A4.1667,4.1667 0 0 1 6.25,989.3854 L6.25,10.4167 A4.1667,4.1667 0 0 1 10.4167,6.25" fill="none" style="stroke:#4E5D6C;stroke-width:2.0833;"/><line style="stroke:#4E5D6C;stroke-width:2.0833;" x1="6.25" x2="273.1527" y1="37.4674" y2="37.4674"/><text fill="#4E5D6C" font-family="Verdana" font-size="12.5" font-weight="bold" lengthAdjust="spacing" textLength="242.9443" x="15.625" y="25.1444">Progressive Web App Architecture</text></g><!--cluster Browser Environment--><g class="cluster" data-entity="Browser Environment" data-source-line="6" data-uid="ent0004" id="cluster_Browser Environment"><path d="M35.4167,212.4687 L195.9106,212.4687 A6.25,6.25 0 0 1 200.0773,216.6354 L207.369,243.6862 L410.4167,243.6862 A4.1667,4.1667 0 0 1 414.5833,247.8529 L414.5833,643.6146 A4.1667,4.1667 0 0 1 410.4167,647.7812 L35.4167,647.7812 A4.1667,4.1667 0 0 1 31.25,643.6146 L31.25,216.6354 A4.1667,4.1667 0 0 1 35.4167,212.4687" fill="none" style="stroke:#4E5D6C;stroke-width:2.0833;"/><line style="stroke:#4E5D6C;stroke-width:2.0833;" x1="31.25" x2="207.369" y1="243.6862" y2="243.6862"/><text fill="#4E5D6C" font-family="Verdana" font-size="12.5" font-weight="bold" lengthAdjust="spacing" textLength="152.1606" x="40.625" y="231.3632">Browser Environment</text></g><!--cluster Application Layer--><g class="cluster" data-entity="Application Layer" data-source-line="13" data-uid="ent0009" id="cluster_Application Layer"><path d="M443.75,386.3854 L575.356,386.3854 A6.25,6.25 0 0 1 579.5227,390.5521 L586.8144,417.6029 L996.875,417.6029 A4.1667,4.1667 0 0 1 1001.0417,421.7695 L1001.0417,643.6146 A4.1667,4.1667 0 0 1 996.875,647.7812 L443.75,647.7812 A4.1667,4.1667 0 0 1 439.5833,643.6146 L439.5833,390.5521 A4.1667,4.1667 0 0 1 443.75,386.3854" fill="none" style="stroke:#4E5D6C;stroke-width:2.0833;"/><line style="stroke:#4E5D6C;stroke-width:2.0833;" x1="439.5833" x2="586.8144" y1="417.6029" y2="417.6029"/><text fill="#4E5D6C" font-family="Verdana" font-size="12.5" font-weight="bold" lengthAdjust="spacing" textLength="123.2727" x="448.9583" y="405.2799">Application Layer</text></g><!--cluster Server Infrastructure--><g class="cluster" data-entity="Server Infrastructure" data-source-line="20" data-uid="ent0014" id="cluster_Server Infrastructure"><path d="M670.8333,707.1562 L828.9469,707.1562 A6.25,6.25 0 0 1 833.1136,711.3229 L840.4053,738.3737 L1026.0417,738.3737 A4.1667,4.1667 0 0 1 1030.2083,742.5404 L1030.2083,964.3854 A4.1667,4.1667 0 0 1 1026.0417,968.5521 L670.8333,968.5521 A4.1667,4.1667 0 0 1 666.6667,964.3854 L666.6667,711.3229 A4.1667,4.1667 0 0 1 670.8333,707.1562" fill="none" style="stroke:#4E5D6C;stroke-width:2.0833;"/><line style="stroke:#4E5D6C;stroke-width:2.0833;" x1="666.6667" x2="840.4053" y1="738.3737" y2="738.3737"/><text fill="#4E5D6C" font-family="Verdana" font-size="12.5" font-weight="bold" lengthAdjust="spacing" textLength="149.7803" x="676.0417" y="726.0507">Server Infrastructure</text></g><!--entity User--><g class="entity" data-entity="User" data-source-line="4" data-uid="ent0003" id="entity_User"><ellipse cx="284.3706" cy="59.375" fill="url(#gek0nl4mk0wyl0)" rx="8.3333" ry="8.3333" style="stroke:#EC7211;stroke-width:1.0417;"/><path d="M284.3706,67.7083 L284.3706,95.8333 M270.8289,76.0417 L297.9123,76.0417 M284.3706,95.8333 L270.8289,111.4583 M284.3706,95.8333 L297.9123,111.4583" fill="none" style="stroke:#EC7211;stroke-width:1.0417;"/><text fill="#4E5D6C" font-family="Verdana" font-size="12.5" lengthAdjust="spacing" textLength="28.4912" x="270.125" y="130.3528">User</text></g><!--entity network--><g class="entity" data-entity="network" data-source-line="27" data-uid="ent0019" id="entity_network"><rect fill="url(#gek0nl4mk0wyl0)" height="56.2174" rx="4.1667" ry="4.1667" style="stroke:#EC7211;stroke-width:1.0417;" width="104.2745" x="1021.8229" y="574.8958"/><rect fill="url(#gek0nl4mk0wyl0)" height="10.4167" style="stroke:#EC7211;stroke-width:1.0417;" width="15.625" x="1105.2641" y="580.1042"/><rect fill="url(#gek0nl4mk0wyl0)" height="2.0833" style="stroke:#EC7211;stroke-width:1.0417;" width="4.1667" x="1103.1807" y="582.1875"/><rect fill="url(#gek0nl4mk0wyl0)" height="2.0833" style="stroke:#EC7211;stroke-width:1.0417;" width="4.1667" x="1103.1807" y="586.3542"/><text fill="#FFFFFF" font-family="Verdana" font-size="12.5" lengthAdjust="spacing" textLength="52.1912" x="1042.6563" y="612.5403">Network</text></g><!--entity shell--><g class="entity" data-entity="shell" data-source-line="7" data-uid="ent0005" id="entity_shell"><rect fill="url(#gek0nl4mk0wyl0)" height="56.2174" rx="4.1667" ry="4.1667" style="stroke:#EC7211;stroke-width:1.0417;" width="114.9984" x="226.875" y="256.2187"/><rect fill="url(#gek0nl4mk0wyl0)" height="10.4167" style="stroke:#EC7211;stroke-width:1.0417;" width="15.625" x="321.04" y="261.4271"/><rect fill="url(#gek0nl4mk0wyl0)" height="2.0833" style="stroke:#EC7211;stroke-width:1.0417;" width="4.1667" x="318.9567" y="263.5104"/><rect fill="url(#gek0nl4mk0wyl0)" height="2.0833" style="stroke:#EC7211;stroke-width:1.0417;" width="4.1667" x="318.9567" y="267.6771"/><text fill="#FFFFFF" font-family="Verdana" font-size="12.5" lengthAdjust="spacing" textLength="62.915" x="247.7083" y="293.8632">PWA Shell</text></g><!--entity sw--><g class="entity" data-entity="sw" data-source-line="8" data-uid="ent0006" id="entity_sw"><rect fill="url(#gek0nl4mk0wyl0)" height="56.2174" rx="4.1667" ry="4.1667" style="stroke:#EC7211;stroke-width:1.0417;" width="147.4691" x="48.1354" y="430.1354"/><rect fill="url(#gek0nl4mk0wyl0)" height="10.4167" style="stroke:#EC7211;stroke-width:1.0417;" width="15.625" x="174.7712" y="435.3438"/><rect fill="url(#gek0nl4mk0wyl0)" height="2.0833" style="stroke:#EC7211;stroke-width:1.0417;" width="4.1667" x="172.6878" y="437.4271"/><rect fill="url(#gek0nl4mk0wyl0)" height="2.0833" style="stroke:#EC7211;stroke-width:1.0417;" width="4.1667" x="172.6878" y="441.5938"/><text fill="#FFFFFF" font-family="Verdana" font-size="12.5" lengthAdjust="spacing" textLength="95.3857" x="68.9688" y="467.7799">Service Worker</text></g><!--entity manifest--><g class="entity" data-entity="manifest" data-source-line="9" data-uid="ent0007" id="entity_manifest"><rect fill="url(#gek0nl4mk0wyl0)" height="56.2174" rx="4.1667" ry="4.1667" style="stroke:#EC7211;stroke-width:1.0417;" width="165.7796" x="231.6979" y="430.1354"/><rect fill="url(#gek0nl4mk0wyl0)" height="10.4167" style="stroke:#EC7211;stroke-width:1.0417;" width="15.625" x="376.6442" y="435.3438"/><rect fill="url(#gek0nl4mk0wyl0)" height="2.0833" style="stroke:#EC7211;stroke-width:1.0417;" width="4.1667" x="374.5609" y="437.4271"/><rect fill="url(#gek0nl4mk0wyl0)" height="2.0833" style="stroke:#EC7211;stroke-width:1.0417;" width="4.1667" x="374.5609" y="441.5938"/><text fill="#FFFFFF" font-family="Verdana" font-size="12.5" lengthAdjust="spacing" textLength="113.6963" x="252.5313" y="467.7799">Web App Manifest</text></g><!--entity cache--><g class="entity" data-entity="cache" data-source-line="10" data-uid="ent0008" id="entity_cache"><rect fill="url(#gek0nl4mk0wyl0)" height="56.2174" rx="4.1667" ry="4.1667" style="stroke:#EC7211;stroke-width:1.0417;" width="143.8375" x="49.9583" y="574.8958"/><rect fill="url(#gek0nl4mk0wyl0)" height="10.4167" style="stroke:#EC7211;stroke-width:1.0417;" width="15.625" x="172.9625" y="580.1042"/><rect fill="url(#gek0nl4mk0wyl0)" height="2.0833" style="stroke:#EC7211;stroke-width:1.0417;" width="4.1667" x="170.8792" y="582.1875"/><rect fill="url(#gek0nl4mk0wyl0)" height="2.0833" style="stroke:#EC7211;stroke-width:1.0417;" width="4.1667" x="170.8792" y="586.3542"/><text fill="#FFFFFF" font-family="Verdana" font-size="12.5" lengthAdjust="spacing" textLength="91.7542" x="70.7917" y="612.5403">Cache Storage</text></g><!--entity app--><g class="entity" data-entity="app" data-source-line="14" data-uid="ent0010" id="entity_app"><rect fill="url(#gek0nl4mk0wyl0)" height="56.2174" rx="4.1667" ry="4.1667" style="stroke:#EC7211;stroke-width:1.0417;" width="110.317" x="664.6354" y="430.1354"/><rect fill="url(#gek0nl4mk0wyl0)" height="10.4167" style="stroke:#EC7211;stroke-width:1.0417;" width="15.625" x="754.1191" y="435.3438"/><rect fill="url(#gek0nl4mk0wyl0)" height="2.0833" style="stroke:#EC7211;stroke-width:1.0417;" width="4.1667" x="752.0357" y="437.4271"/><rect fill="url(#gek0nl4mk0wyl0)" height="2.0833" style="stroke:#EC7211;stroke-width:1.0417;" width="4.1667" x="752.0357" y="441.5938"/><text fill="#FFFFFF" font-family="Verdana" font-size="12.5" lengthAdjust="spacing" textLength="58.2336" x="685.4688" y="467.7799">Main App</text></g><!--entity sync--><g class="entity" data-entity="sync" data-source-line="15" data-uid="ent0011" id="entity_sync"><rect fill="url(#gek0nl4mk0wyl0)" height="56.2174" rx="4.1667" ry="4.1667" style="stroke:#EC7211;stroke-width:1.0417;" width="161.0311" x="656.9896" y="574.8958"/><rect fill="url(#gek0nl4mk0wyl0)" height="10.4167" style="stroke:#EC7211;stroke-width:1.0417;" width="15.625" x="797.1873" y="580.1042"/><rect fill="url(#gek0nl4mk0wyl0)" height="2.0833" style="stroke:#EC7211;stroke-width:1.0417;" width="4.1667" x="795.104" y="582.1875"/><rect fill="url(#gek0nl4mk0wyl0)" height="2.0833" style="stroke:#EC7211;stroke-width:1.0417;" width="4.1667" x="795.104" y="586.3542"/><text fill="#FFFFFF" font-family="Verdana" font-size="12.5" lengthAdjust="spacing" textLength="108.9478" x="677.8229" y="612.5403">Background Sync</text></g><!--entity push--><g class="entity" data-entity="push" data-source-line="16" data-uid="ent0012" id="entity_push"><rect fill="url(#gek0nl4mk0wyl0)" height="56.2174" rx="4.1667" ry="4.1667" style="stroke:#EC7211;stroke-width:1.0417;" width="164.1866" x="456.4479" y="574.8958"/><rect fill="url(#gek0nl4mk0wyl0)" height="10.4167" style="stroke:#EC7211;stroke-width:1.0417;" width="15.625" x="599.8012" y="580.1042"/><rect fill="url(#gek0nl4mk0wyl0)" height="2.0833" style="stroke:#EC7211;stroke-width:1.0417;" width="4.1667" x="597.7179" y="582.1875"/><rect fill="url(#gek0nl4mk0wyl0)" height="2.0833" style="stroke:#EC7211;stroke-width:1.0417;" width="4.1667" x="597.7179" y="586.3542"/><text fill="#FFFFFF" font-family="Verdana" font-size="12.5" lengthAdjust="spacing" textLength="112.1033" x="477.2813" y="612.5403">Push Notifications</text></g><!--entity offline--><g class="entity" data-entity="offline" data-source-line="17" data-uid="ent0013" id="entity_offline"><rect fill="url(#gek0nl4mk0wyl0)" height="56.2174" rx="4.1667" ry="4.1667" style="stroke:#EC7211;stroke-width:1.0417;" width="130.1473" x="854.7188" y="574.8958"/><rect fill="url(#gek0nl4mk0wyl0)" height="10.4167" style="stroke:#EC7211;stroke-width:1.0417;" width="15.625" x="964.0327" y="580.1042"/><rect fill="url(#gek0nl4mk0wyl0)" height="2.0833" style="stroke:#EC7211;stroke-width:1.0417;" width="4.1667" x="961.9494" y="582.1875"/><rect fill="url(#gek0nl4mk0wyl0)" height="2.0833" style="stroke:#EC7211;stroke-width:1.0417;" width="4.1667" x="961.9494" y="586.3542"/><text fill="#FFFFFF" font-family="Verdana" font-size="12.5" lengthAdjust="spacing" textLength="78.064" x="875.5521" y="612.5403">Offline Logic</text></g><!--entity server--><g class="entity" data-entity="server" data-source-line="21" data-uid="ent0015" id="entity_server"><rect fill="url(#gek0nl4mk0wyl0)" height="56.2174" rx="4.1667" ry="4.1667" style="stroke:#EC7211;stroke-width:1.0417;" width="125.0326" x="851.0208" y="895.6667"/><rect fill="url(#gek0nl4mk0wyl0)" height="10.4167" style="stroke:#EC7211;stroke-width:1.0417;" width="15.625" x="955.2201" y="900.875"/><rect fill="url(#gek0nl4mk0wyl0)" height="2.0833" style="stroke:#EC7211;stroke-width:1.0417;" width="4.1667" x="953.1367" y="902.9583"/><rect fill="url(#gek0nl4mk0wyl0)" height="2.0833" style="stroke:#EC7211;stroke-width:1.0417;" width="4.1667" x="953.1367" y="907.125"/><text fill="#FFFFFF" font-family="Verdana" font-size="12.5" lengthAdjust="spacing" textLength="72.9492" x="871.8542" y="933.3111">Web Server</text></g><!--entity api--><g class="entity" data-entity="api" data-source-line="22" data-uid="ent0016" id="entity_api"><rect fill="url(#gek0nl4mk0wyl0)" height="56.2174" rx="4.1667" ry="4.1667" style="stroke:#EC7211;stroke-width:1.0417;" width="137.9781" x="875.8021" y="750.9062"/><rect fill="url(#gek0nl4mk0wyl0)" height="10.4167" style="stroke:#EC7211;stroke-width:1.0417;" width="15.625" x="992.9469" y="756.1146"/><rect fill="url(#gek0nl4mk0wyl0)" height="2.0833" style="stroke:#EC7211;stroke-width:1.0417;" width="4.1667" x="990.8635" y="758.1979"/><rect fill="url(#gek0nl4mk0wyl0)" height="2.0833" style="stroke:#EC7211;stroke-width:1.0417;" width="4.1667" x="990.8635" y="762.3646"/><text fill="#FFFFFF" font-family="Verdana" font-size="12.5" lengthAdjust="spacing" textLength="85.8948" x="896.6354" y="788.5507">API Endpoints</text></g><!--entity pushsvc--><g class="entity" data-entity="pushsvc" data-source-line="23" data-uid="ent0017" id="entity_pushsvc"><rect fill="url(#gek0nl4mk0wyl0)" height="56.2174" rx="4.1667" ry="4.1667" style="stroke:#EC7211;stroke-width:1.0417;" width="132.1493" x="682.8854" y="895.6667"/><rect fill="url(#gek0nl4mk0wyl0)" height="10.4167" style="stroke:#EC7211;stroke-width:1.0417;" width="15.625" x="794.2013" y="900.875"/><rect fill="url(#gek0nl4mk0wyl0)" height="2.0833" style="stroke:#EC7211;stroke-width:1.0417;" width="4.1667" x="792.118" y="902.9583"/><rect fill="url(#gek0nl4mk0wyl0)" height="2.0833" style="stroke:#EC7211;stroke-width:1.0417;" width="4.1667" x="792.118" y="907.125"/><text fill="#FFFFFF" font-family="Verdana" font-size="12.5" lengthAdjust="spacing" textLength="80.0659" x="703.7188" y="933.3111">Push Service</text></g><!--entity jobs--><g class="entity" data-entity="jobs" data-source-line="24" data-uid="ent0018" id="entity_jobs"><rect fill="url(#gek0nl4mk0wyl0)" height="56.2174" rx="4.1667" ry="4.1667" style="stroke:#EC7211;stroke-width:1.0417;" width="156.6854" x="683.1146" y="750.9062"/><rect fill="url(#gek0nl4mk0wyl0)" height="10.4167" style="stroke:#EC7211;stroke-width:1.0417;" width="15.625" x="818.9666" y="756.1146"/><rect fill="url(#gek0nl4mk0wyl0)" height="2.0833" style="stroke:#EC7211;stroke-width:1.0417;" width="4.1667" x="816.8833" y="758.1979"/><rect fill="url(#gek0nl4mk0wyl0)" height="2.0833" style="stroke:#EC7211;stroke-width:1.0417;" width="4.1667" x="816.8833" y="762.3646"/><text fill="#FFFFFF" font-family="Verdana" font-size="12.5" lengthAdjust="spacing" textLength="104.6021" x="703.9479" y="788.5507">Background Jobs</text></g><!--link User to shell--><g class="link" data-entity-1="User" data-entity-2="shell" data-source-line="29" data-uid="lnk20" id="link_User_shell"><path d="M284.375,138.8958 C284.375,175.0104 284.375,218.9792 284.375,249.6667" fill="none" id="User-to-shell" style="stroke:#EC7211;stroke-width:3.125;"/><polygon fill="#EC7211" points="284.375,255.9167,288.5417,246.5417,284.375,250.7083,280.2083,246.5417,284.375,255.9167" style="stroke:#EC7211;stroke-width:3.125;"/><text fill="#4E5D6C" font-family="Verdana" font-size="12.5" lengthAdjust="spacing" textLength="91.8884" x="290.625" y="187.6132">Launches PWA</text></g><!--link shell to sw--><g class="link" data-entity-1="shell" data-entity-2="sw" data-source-line="30" data-uid="lnk21" id="link_shell_sw"><path d="M226.4167,304.8958 C206.0729,314.0729 184.4167,326.7812 168.75,343.6771 C146.1354,368.0729 135.1977,398.8336 128.9164,423.8753" fill="none" id="shell-to-sw" style="stroke:#EC7211;stroke-width:3.125;"/><polygon fill="#EC7211" points="127.3958,429.9375,133.7182,421.8579,128.663,424.8857,125.6353,419.8305,127.3958,429.9375" style="stroke:#EC7211;stroke-width:3.125;"/><text fill="#4E5D6C" font-family="Verdana" font-size="12.5" lengthAdjust="spacing" textLength="105.5908" x="175" y="361.5299">Registers worker</text></g><!--link shell to manifest--><g class="link" data-entity-1="shell" data-entity-2="manifest" data-source-line="31" data-uid="lnk22" id="link_shell_manifest"><path d="M289.1667,312.5937 C294.8021,344.6771 303.0318,391.5112 308.6881,423.6674" fill="none" id="shell-to-manifest" style="stroke:#EC7211;stroke-width:3.125;"/><polygon fill="#EC7211" points="309.7708,429.8229,312.2504,419.8678,308.8685,424.6933,304.043,421.3115,309.7708,429.8229" style="stroke:#EC7211;stroke-width:3.125;"/><text fill="#4E5D6C" font-family="Verdana" font-size="12.5" lengthAdjust="spacing" textLength="101.3611" x="304.1667" y="361.5299">Installation data</text></g><!--link sw to cache--><g class="link" data-entity-1="sw" data-entity-2="cache" data-source-line="32" data-uid="lnk23" id="link_sw_cache"><path d="M121.875,486.8021 C121.875,512.0625 121.875,543.0521 121.875,568.2917" fill="none" id="sw-to-cache" style="stroke:#EC7211;stroke-width:3.125;"/><polygon fill="#EC7211" points="121.875,574.5417,126.0417,565.1667,121.875,569.3333,117.7083,565.1667,121.875,574.5417" style="stroke:#EC7211;stroke-width:3.125;"/><text fill="#4E5D6C" font-family="Verdana" font-size="12.5" lengthAdjust="spacing" textLength="110.4858" x="128.125" y="535.4569">Caches resources</text></g><!--link shell to app--><g class="link" data-entity-1="shell" data-entity-2="app" data-source-line="33" data-uid="lnk24" id="link_shell_app"><path d="M342.1979,308.1875 C426.2813,341.375 575.4885,400.2575 658.3323,432.9554" fill="none" id="shell-to-app" style="stroke:#EC7211;stroke-width:3.125;"/><polygon fill="#EC7211" points="664.1458,435.25,656.9552,427.9324,659.3012,433.3379,653.8958,435.6838,664.1458,435.25" style="stroke:#EC7211;stroke-width:3.125;"/><text fill="#4E5D6C" font-family="Verdana" font-size="12.5" lengthAdjust="spacing" textLength="109.6436" x="494.7917" y="361.5299">Loads application</text></g><!--link app to offline--><g class="link" data-entity-1="app" data-entity-2="offline" data-source-line="35" data-uid="lnk25" id="link_app_offline"><path d="M775.4375,480.9792 C796.8125,490.6042 820.8125,503.0625 840.625,517.6042 C862.6458,533.7708 879.6077,551.7676 894.4306,569.5905" fill="none" id="app-to-offline" style="stroke:#EC7211;stroke-width:3.125;"/><polygon fill="#EC7211" points="898.4271,574.3958,895.6359,564.5236,895.0967,570.3914,889.2289,569.8522,898.4271,574.3958" style="stroke:#EC7211;stroke-width:3.125;"/><text fill="#4E5D6C" font-family="Verdana" font-size="12.5" lengthAdjust="spacing" textLength="80.6213" x="875" y="535.4569">Offline mode</text></g><!--link app to sync--><g class="link" data-entity-1="app" data-entity-2="sync" data-source-line="36" data-uid="lnk26" id="link_app_sync"><path d="M715.9063,486.8438 C714.2708,503.4167 713.4167,524.875 716.6667,543.6458 C718.4688,554.0312 719.7395,559.1597 723.3437,568.7534" fill="none" id="app-to-sync" style="stroke:#EC7211;stroke-width:3.125;"/><polygon fill="#EC7211" points="725.5417,574.6042,726.1452,564.3627,723.71,569.7285,718.3442,567.2934,725.5417,574.6042" style="stroke:#EC7211;stroke-width:3.125;"/><text fill="#4E5D6C" font-family="Verdana" font-size="12.5" lengthAdjust="spacing" textLength="107.5256" x="722.9167" y="535.4569">Background sync</text></g><!--link app to push--><g class="link" data-entity-1="app" data-entity-2="push" data-source-line="37" data-uid="lnk27" id="link_app_push"><path d="M664.3646,485.5625 C647.6354,494.6354 629.7083,505.5833 614.5833,517.6042 C593.5938,534.2917 577.3756,552.2009 563.0944,569.8779" fill="none" id="app-to-push" style="stroke:#EC7211;stroke-width:3.125;"/><polygon fill="#EC7211" points="559.1667,574.7396,568.2993,570.0656,562.4398,570.6882,561.8171,564.8286,559.1667,574.7396" style="stroke:#EC7211;stroke-width:3.125;"/><text fill="#4E5D6C" font-family="Verdana" font-size="12.5" lengthAdjust="spacing" textLength="78.2349" x="620.8333" y="535.4569">Notifications</text></g><!--link app to network--><g class="link" data-entity-1="app" data-entity-2="network" data-source-line="39" data-uid="lnk28" id="link_app_network"><path d="M775.3438,464.9792 C827.6563,471.9896 907.1354,486.9583 969.7917,517.6042 C999.0625,531.9271 1022.9324,551.5132 1042.672,570.2215" fill="none" id="app-to-network" style="stroke:#EC7211;stroke-width:3.125;"/><polygon fill="#EC7211" points="1047.2083,574.5208,1043.2701,565.0476,1043.4281,570.9381,1037.5376,571.096,1047.2083,574.5208" style="stroke:#EC7211;stroke-width:3.125;"/><text fill="#4E5D6C" font-family="Verdana" font-size="12.5" lengthAdjust="spacing" textLength="98.5962" x="1015.625" y="535.4569">Online requests</text></g><!--link network to api--><g class="link" data-entity-1="network" data-entity-2="api" data-source-line="40" data-uid="lnk29" id="link_network_api"><path d="M1053.4896,631.6042 C1029.3021,664.1771 993.0276,713.013 968.8922,745.5234" fill="none" id="network-to-api" style="stroke:#EC7211;stroke-width:3.125;"/><polygon fill="#EC7211" points="965.1667,750.5417,974.1005,745.4979,968.2713,746.3598,967.4094,740.5306,965.1667,750.5417" style="stroke:#EC7211;stroke-width:3.125;"/><text fill="#4E5D6C" font-family="Verdana" font-size="12.5" lengthAdjust="spacing" textLength="51.7395" x="1034.375" y="682.3007">API calls</text></g><!--link api to server--><g class="link" data-entity-1="api" data-entity-2="server" data-source-line="41" data-uid="lnk30" id="link_api_server"><path d="M938.7708,807.5729 C933.2292,832.8333 926.4084,863.9673 920.8876,889.2069" fill="none" id="api-to-server" style="stroke:#EC7211;stroke-width:3.125;"/><polygon fill="#EC7211" points="919.5521,895.3125,925.6258,887.0444,920.665,890.2245,917.485,885.2637,919.5521,895.3125" style="stroke:#EC7211;stroke-width:3.125;"/><text fill="#4E5D6C" font-family="Verdana" font-size="12.5" lengthAdjust="spacing" textLength="112.6038" x="937.5" y="856.2278">Server processing</text></g><!--link sw to sync--><g class="link" data-entity-1="sw" data-entity-2="sync" data-source-line="43" data-uid="lnk31" id="link_sw_sync"><path d="M195.8021,481.5833 C201.7917,483.25 207.7604,484.8646 213.5417,486.3542 C326.5104,515.6354 355.4479,520.2917 469.7917,543.6458 C544.5208,558.9167 564.1875,557.875 638.5417,574.8958 C644.4479,576.25 644.4581,576.2005 650.5726,577.7317" fill="none" id="sw-to-sync" style="stroke:#EC7211;stroke-width:3.125;"/><polygon fill="#EC7211" points="656.6354,579.25,648.5534,572.9307,651.5831,577.9848,646.5291,581.0144,656.6354,579.25" style="stroke:#EC7211;stroke-width:3.125;"/><text fill="#4E5D6C" font-family="Verdana" font-size="12.5" lengthAdjust="spacing" textLength="96.5393" x="476.0417" y="535.4569">Queues actions</text></g><!--link sync to api--><g class="link" data-entity-1="sync" data-entity-2="api" data-source-line="44" data-uid="lnk32" id="link_sync_api"><path d="M709.0104,631.5938 C693.3438,650.0104 680,673.8229 695.8333,690.4896 C708.2813,703.6042 841.6563,691.8438 858.3333,698.8229 C884.6146,709.8229 903.9206,727.7323 919.7227,745.9927" fill="none" id="sync-to-api" style="stroke:#EC7211;stroke-width:3.125;"/><polygon fill="#EC7211" points="923.8125,750.7188,920.8285,740.9031,920.4043,746.7804,914.527,746.3562,923.8125,750.7188" style="stroke:#EC7211;stroke-width:3.125;"/><text fill="#4E5D6C" font-family="Verdana" font-size="12.5" lengthAdjust="spacing" textLength="77.9968" x="702.0833" y="682.3007">When online</text></g><!--link pushsvc to push--><g class="link" data-entity-1="pushsvc" data-entity-2="push" data-source-line="45" data-uid="lnk33" id="link_pushsvc_push"><path d="M682.5417,900.9896 C638.9479,883.0208 584.8958,852.9479 556.25,807.125 C522.1042,752.5104 526.6671,679.0918 532.6671,637.6439" fill="none" id="pushsvc-to-push" style="stroke:#EC7211;stroke-width:3.125;"/><polygon fill="#EC7211" points="533.5625,631.4583,528.0957,640.1397,532.8163,636.6129,536.3431,641.3336,533.5625,631.4583" style="stroke:#EC7211;stroke-width:3.125;"/><text fill="#4E5D6C" font-family="Verdana" font-size="12.5" lengthAdjust="spacing" textLength="96.5576" x="562.5" y="783.8528">Push messages</text></g><!--link jobs to pushsvc--><g class="link" data-entity-1="jobs" data-entity-2="pushsvc" data-source-line="46" data-uid="lnk34" id="link_jobs_pushsvc"><path d="M759.0521,807.5729 C756.8333,832.8333 754.1177,863.8467 751.9093,889.0863" fill="none" id="jobs-to-pushsvc" style="stroke:#EC7211;stroke-width:3.125;"/><polygon fill="#EC7211" points="751.3646,895.3125,756.3325,886.3364,751.8186,890.124,748.0309,885.61,751.3646,895.3125" style="stroke:#EC7211;stroke-width:3.125;"/><text fill="#4E5D6C" font-family="Verdana" font-size="12.5" lengthAdjust="spacing" textLength="51.4587" x="762.5" y="856.2278">Triggers</text></g><!--SRC=[VPJ1Rjim38RlUGhEzxn03mFIOOSCQPSj6t8eTb1bnjPgInubnoY6llj8oWvYfzXD5Z-JFydV_f1gR17C4DU1ZAzmjUgCVJ4LGh6dK176wCu8Hto6JTV1Xcpj4jhK4nRmTmLWR0e4FoFIYfykBzzJ6FWEFlkpe-1Rz2dp03QqNV1y0K_xumOEDJRDBp0HefoMo07fx2mh2FI2bBbX2Kto7ent9un9iNPyMCAVZAqH3YoRbIffvOQnjraBdB1nrYGNFEpCAz8x3JmOvwMofZ5TjupVSxAAGkzBEBnwc-NpuMOGVQpXCIHt6Yj6HJk-Ng9VJwV6UOHTg5nE6FBDJGCoEbx1rf_8n4JzrTPkffVPh4-FIsYpt_8ooouud-BOhdktZN5ZbmRYsVvdB5_2SqxtcmzJ2xO9VGbFZvW6Nhk6VJvBLCm6w_N7R1YuWs9dUiyhZC26AfZ80KK6YN_7oiM4565G6ysPoIX2RdrCfcdorakJZAA3SceJWTH14VZZ23rPZFDqR0FL54ofdfXCL8Xs2Geqxap0QQ5jAB6uGiGd4hyQbbnT8p9UGMREcTKPnwPrl9OX_DDpiofwYcRPJYZPi-K9n5p7PIdPINSNJtKKhFmQVANLnW5DYh_ro2Narv3rG8vSLJdMw26e80cFDfdrf5vgkGXxMNE8GIw4q0pz85TLlDTYzVOF]--></g></svg>