<svg xmlns="http://www.w3.org/2000/svg" xmlns:xlink="http://www.w3.org/1999/xlink" contentStyleType="text/css" data-diagram-type="DESCRIPTION" height="447px" preserveAspectRatio="none" style="width:623px;height:447px;background:#FFFFFF;" version="1.1" viewBox="0 0 623 447" width="623px" zoomAndPan="magnify"><defs/><g><!--cluster Version Control System--><g class="cluster" data-entity="Version Control System" data-source-line="4" data-uid="ent0002" id="cluster_Version Control System"><path d="M8.5,124.3 L195.3896,124.3 A3.75,3.75 0 0 1 197.8896,126.8 L204.8896,146.5969 L204.5,146.5969 A2.5,2.5 0 0 1 207,149.0969 L207,437.69 A2.5,2.5 0 0 1 204.5,440.19 L8.5,440.19 A2.5,2.5 0 0 1 6,437.69 L6,126.8 A2.5,2.5 0 0 1 8.5,124.3" fill="none" style="stroke:#000000;stroke-width:1.5;"/><line style="stroke:#000000;stroke-width:1.5;" x1="6" x2="204.8896" y1="146.5969" y2="146.5969"/><text fill="#000000" font-family="sans-serif" font-size="14" font-weight="bold" lengthAdjust="spacing" textLength="185.8896" x="10" y="139.2951">Version Control System</text></g><!--cluster Backup Strategy--><g class="cluster" data-entity="Backup Strategy" data-source-line="10" data-uid="ent0006" id="cluster_Backup Strategy"><path d="M442.5,6 L574.5518,6 A3.75,3.75 0 0 1 577.0518,8.5 L584.0518,28.2969 L613.5,28.2969 A2.5,2.5 0 0 1 616,30.7969 L616,322.39 A2.5,2.5 0 0 1 613.5,324.89 L442.5,324.89 A2.5,2.5 0 0 1 440,322.39 L440,8.5 A2.5,2.5 0 0 1 442.5,6" fill="none" style="stroke:#000000;stroke-width:1.5;"/><line style="stroke:#000000;stroke-width:1.5;" x1="440" x2="584.0518" y1="28.2969" y2="28.2969"/><text fill="#000000" font-family="sans-serif" font-size="14" font-weight="bold" lengthAdjust="spacing" textLength="131.0518" x="444" y="20.9951">Backup Strategy</text></g><!--cluster Release Management--><g class="cluster" data-entity="Release Management" data-source-line="16" data-uid="ent0010" id="cluster_Release Management"><path d="M233.5,6 L404.2705,6 A3.75,3.75 0 0 1 406.7705,8.5 L413.7705,28.2969 L413.5,28.2969 A2.5,2.5 0 0 1 416,30.7969 L416,322.39 A2.5,2.5 0 0 1 413.5,324.89 L233.5,324.89 A2.5,2.5 0 0 1 231,322.39 L231,8.5 A2.5,2.5 0 0 1 233.5,6" fill="none" style="stroke:#000000;stroke-width:1.5;"/><line style="stroke:#000000;stroke-width:1.5;" x1="231" x2="413.7705" y1="28.2969" y2="28.2969"/><text fill="#000000" font-family="sans-serif" font-size="14" font-weight="bold" lengthAdjust="spacing" textLength="169.7705" x="235" y="20.9951">Release Management</text></g><!--entity local--><g class="entity" data-entity="local" data-source-line="5" data-uid="ent0003" id="entity_local"><rect fill="#F1F1F1" height="36.2969" rx="2.5" ry="2.5" style="stroke:#181818;stroke-width:0.5;" width="136.0537" x="45.97" y="159.3"/><text fill="#000000" font-family="sans-serif" font-size="14" lengthAdjust="spacing" textLength="116.0537" x="55.97" y="182.2951">Local Repository</text></g><!--entity remote--><g class="entity" data-entity="remote" data-source-line="6" data-uid="ent0004" id="entity_remote"><rect fill="#F1F1F1" height="36.2969" rx="2.5" ry="2.5" style="stroke:#181818;stroke-width:0.5;" width="154.1689" x="36.92" y="272.6"/><text fill="#000000" font-family="sans-serif" font-size="14" lengthAdjust="spacing" textLength="134.1689" x="46.92" y="295.5951">Remote Repository</text></g><!--entity backup--><g class="entity" data-entity="backup" data-source-line="7" data-uid="ent0005" id="entity_backup"><rect fill="#F1F1F1" height="36.2969" rx="2.5" ry="2.5" style="stroke:#181818;stroke-width:0.5;" width="151.2705" x="38.36" y="387.89"/><text fill="#000000" font-family="sans-serif" font-size="14" lengthAdjust="spacing" textLength="131.2705" x="48.36" y="410.8851">Backup Repository</text></g><!--entity daily--><g class="entity" data-entity="daily" data-source-line="11" data-uid="ent0007" id="entity_daily"><rect fill="#F1F1F1" height="36.2969" rx="2.5" ry="2.5" style="stroke:#181818;stroke-width:0.5;" width="144.0244" x="455.99" y="41"/><text fill="#000000" font-family="sans-serif" font-size="14" lengthAdjust="spacing" textLength="124.0244" x="465.99" y="63.9951">Daily Incremental</text></g><!--entity weekly--><g class="entity" data-entity="weekly" data-source-line="12" data-uid="ent0008" id="entity_weekly"><rect fill="#F1F1F1" height="36.2969" rx="2.5" ry="2.5" style="stroke:#181818;stroke-width:0.5;" width="100.5068" x="477.75" y="159.3"/><text fill="#000000" font-family="sans-serif" font-size="14" lengthAdjust="spacing" textLength="80.5068" x="487.75" y="182.2951">Weekly Full</text></g><!--entity monthly--><g class="entity" data-entity="monthly" data-source-line="13" data-uid="ent0009" id="entity_monthly"><rect fill="#F1F1F1" height="36.2969" rx="2.5" ry="2.5" style="stroke:#181818;stroke-width:0.5;" width="133.1963" x="461.4" y="272.6"/><text fill="#000000" font-family="sans-serif" font-size="14" lengthAdjust="spacing" textLength="113.1963" x="471.4" y="295.5951">Monthly Archive</text></g><!--entity feature--><g class="entity" data-entity="feature" data-source-line="17" data-uid="ent0011" id="entity_feature"><rect fill="#F1F1F1" height="36.2969" rx="2.5" ry="2.5" style="stroke:#181818;stroke-width:0.5;" width="143.7168" x="248.14" y="41"/><text fill="#000000" font-family="sans-serif" font-size="14" lengthAdjust="spacing" textLength="123.7168" x="258.14" y="63.9951">Feature Branches</text></g><!--entity release--><g class="entity" data-entity="release" data-source-line="18" data-uid="ent0012" id="entity_release"><rect fill="#F1F1F1" height="36.2969" rx="2.5" ry="2.5" style="stroke:#181818;stroke-width:0.5;" width="145.0703" x="247.46" y="159.3"/><text fill="#000000" font-family="sans-serif" font-size="14" lengthAdjust="spacing" textLength="125.0703" x="257.46" y="182.2951">Release Branches</text></g><!--entity tags--><g class="entity" data-entity="tags" data-source-line="19" data-uid="ent0013" id="entity_tags"><rect fill="#F1F1F1" height="36.2969" rx="2.5" ry="2.5" style="stroke:#181818;stroke-width:0.5;" width="136.7168" x="248.64" y="272.6"/><text fill="#000000" font-family="sans-serif" font-size="14" lengthAdjust="spacing" textLength="116.7168" x="258.64" y="295.5951">Tagged Versions</text></g><!--link local to remote--><g class="link" data-entity-1="local" data-entity-2="remote" data-source-line="22" data-uid="lnk14" id="link_local_remote"><path d="M114,195.84 C114,216.62 114,245.21 114,266.11" fill="none" id="local-to-remote" style="stroke:#181818;stroke-width:1;"/><polygon fill="#181818" points="114,272.11,118,263.11,114,267.11,110,263.11,114,272.11" style="stroke:#181818;stroke-width:1;"/><text fill="#000000" font-family="sans-serif" font-size="13" lengthAdjust="spacing" textLength="59.5981" x="115" y="238.6669">push/pull</text></g><!--link remote to backup--><g class="link" data-entity-1="remote" data-entity-2="backup" data-source-line="23" data-uid="lnk15" id="link_remote_backup"><path d="M114,308.95 C114,330.25 114,360.3 114,381.67" fill="none" id="remote-to-backup" style="stroke:#181818;stroke-width:1;"/><polygon fill="#181818" points="114,387.67,118,378.67,114,382.67,110,378.67,114,387.67" style="stroke:#181818;stroke-width:1;"/><text fill="#000000" font-family="sans-serif" font-size="13" lengthAdjust="spacing" textLength="40.2632" x="115" y="353.9569">mirror</text></g><!--link daily to weekly--><g class="link" data-entity-1="daily" data-entity-2="weekly" data-source-line="24" data-uid="lnk16" id="link_daily_weekly"><path d="M528,77.56 C528,99.49 528,130.94 528,152.92" fill="none" id="daily-to-weekly" style="stroke:#181818;stroke-width:1;"/><polygon fill="#181818" points="528,158.92,532,149.92,528,153.92,524,149.92,528,158.92" style="stroke:#181818;stroke-width:1;"/></g><!--link weekly to monthly--><g class="link" data-entity-1="weekly" data-entity-2="monthly" data-source-line="25" data-uid="lnk17" id="link_weekly_monthly"><path d="M528,195.84 C528,216.62 528,245.21 528,266.11" fill="none" id="weekly-to-monthly" style="stroke:#181818;stroke-width:1;"/><polygon fill="#181818" points="528,272.11,532,263.11,528,267.11,524,263.11,528,272.11" style="stroke:#181818;stroke-width:1;"/></g><!--link feature to release--><g class="link" data-entity-1="feature" data-entity-2="release" data-source-line="26" data-uid="lnk18" id="link_feature_release"><path d="M320,77.56 C320,99.49 320,130.94 320,152.92" fill="none" id="feature-to-release" style="stroke:#181818;stroke-width:1;"/><polygon fill="#181818" points="320,158.92,324,149.92,320,153.92,316,149.92,320,158.92" style="stroke:#181818;stroke-width:1;"/></g><!--link release to tags--><g class="link" data-entity-1="release" data-entity-2="tags" data-source-line="27" data-uid="lnk19" id="link_release_tags"><path d="M319.53,195.84 C318.97,216.62 318.2007,245.2122 317.6407,266.1122" fill="none" id="release-to-tags" style="stroke:#181818;stroke-width:1;"/><polygon fill="#181818" points="317.48,272.11,321.7196,263.2204,317.6139,267.1118,313.7225,263.0061,317.48,272.11" style="stroke:#181818;stroke-width:1;"/></g><!--link tags to backup--><g class="link" data-entity-1="tags" data-entity-2="backup" data-source-line="28" data-uid="lnk20" id="link_tags_backup"><path d="M285.73,309.2 C247.58,330.49 188.7091,363.3457 150.5491,384.6457" fill="none" id="tags-to-backup" style="stroke:#181818;stroke-width:1;"/><polygon fill="#181818" points="145.31,387.57,155.1182,386.6762,149.6759,385.133,151.2191,379.6907,145.31,387.57" style="stroke:#181818;stroke-width:1;"/></g><!--SRC=[RP5FImCn4CNl-HJ3tejt3qAh50HxQKNFOphDXisVPPArBE9tDvj4QMDpICYR7pClBs7GRaH62zOxBtlsbY3oH2ByLKAFHt_MJi49JI0XHfG3AeBkZJXex-3HkyZUm64EaMm7NmBIOf8HdJ89VF4I3Unfz457ptC76C0iOalkoVf8BSfPRTbDyZ6DBVkHLV5zuRE2XyWOISqt33wXDZCyEvacaOjeSglZehReEz6GsEra2dJEzvRQfKZwXArPzlgJCccBTcLjJuOm4EpGfVio-uQxBM6Sc633w6HF8NSx5V5_WANX5Sj5RDbNL8gEKB-ne15LM1pctu7Lwg663_SmJg6_6zExHPMMQeaxLQrczYnoPhbIWob7Ldu3gDPhzsAjdbdB7fRjOeBu0G00]--></g></svg>