<svg xmlns="http://www.w3.org/2000/svg" xmlns:xlink="http://www.w3.org/1999/xlink" contentStyleType="text/css" data-diagram-type="GANTT" height="377px" preserveAspectRatio="none" style="width:924px;height:377px;background:#FFFFFF;" version="1.1" viewBox="0 0 924 377" width="924px" zoomAndPan="magnify"><defs/><g><text fill="#000000" font-family="sans-serif" font-size="10" lengthAdjust="spacing" textLength="6.3623" x="5" y="25.2822">2</text><text fill="#000000" font-family="sans-serif" font-size="10" lengthAdjust="spacing" textLength="6.3623" x="33" y="25.2822">3</text><text fill="#000000" font-family="sans-serif" font-size="10" lengthAdjust="spacing" textLength="6.3623" x="61" y="25.2822">4</text><text fill="#000000" font-family="sans-serif" font-size="10" lengthAdjust="spacing" textLength="6.3623" x="89" y="25.2822">5</text><text fill="#000000" font-family="sans-serif" font-size="10" lengthAdjust="spacing" textLength="6.3623" x="117" y="25.2822">6</text><text fill="#000000" font-family="sans-serif" font-size="10" lengthAdjust="spacing" textLength="6.3623" x="145" y="25.2822">7</text><text fill="#000000" font-family="sans-serif" font-size="10" lengthAdjust="spacing" textLength="6.3623" x="173" y="25.2822">8</text><text fill="#000000" font-family="sans-serif" font-size="10" lengthAdjust="spacing" textLength="6.3623" x="201" y="25.2822">9</text><text fill="#000000" font-family="sans-serif" font-size="10" lengthAdjust="spacing" textLength="12.7246" x="229" y="25.2822">10</text><text fill="#000000" font-family="sans-serif" font-size="10" lengthAdjust="spacing" textLength="12.7246" x="257" y="25.2822">11</text><text fill="#000000" font-family="sans-serif" font-size="10" lengthAdjust="spacing" textLength="12.7246" x="285" y="25.2822">12</text><text fill="#000000" font-family="sans-serif" font-size="10" lengthAdjust="spacing" textLength="12.7246" x="313" y="25.2822">13</text><text fill="#000000" font-family="sans-serif" font-size="10" lengthAdjust="spacing" textLength="12.7246" x="341" y="25.2822">14</text><text fill="#000000" font-family="sans-serif" font-size="10" lengthAdjust="spacing" textLength="12.7246" x="369" y="25.2822">15</text><text fill="#000000" font-family="sans-serif" font-size="10" lengthAdjust="spacing" textLength="12.7246" x="397" y="25.2822">16</text><text fill="#000000" font-family="sans-serif" font-size="10" lengthAdjust="spacing" textLength="12.7246" x="425" y="25.2822">17</text><text fill="#000000" font-family="sans-serif" font-size="10" lengthAdjust="spacing" textLength="12.7246" x="453" y="25.2822">18</text><text fill="#000000" font-family="sans-serif" font-size="10" lengthAdjust="spacing" textLength="12.7246" x="481" y="25.2822">19</text><text fill="#000000" font-family="sans-serif" font-size="10" lengthAdjust="spacing" textLength="12.7246" x="509" y="25.2822">20</text><text fill="#000000" font-family="sans-serif" font-size="10" lengthAdjust="spacing" textLength="12.7246" x="537" y="25.2822">21</text><text fill="#000000" font-family="sans-serif" font-size="10" lengthAdjust="spacing" textLength="12.7246" x="565" y="25.2822">22</text><text fill="#000000" font-family="sans-serif" font-size="10" lengthAdjust="spacing" textLength="12.7246" x="593" y="25.2822">23</text><text fill="#000000" font-family="sans-serif" font-size="10" lengthAdjust="spacing" textLength="12.7246" x="621" y="25.2822">24</text><text fill="#000000" font-family="sans-serif" font-size="10" lengthAdjust="spacing" textLength="12.7246" x="649" y="25.2822">25</text><text fill="#000000" font-family="sans-serif" font-size="10" lengthAdjust="spacing" textLength="12.7246" x="677" y="25.2822">26</text><text fill="#000000" font-family="sans-serif" font-size="10" lengthAdjust="spacing" textLength="12.7246" x="705" y="25.2822">27</text><text fill="#000000" font-family="sans-serif" font-size="10" lengthAdjust="spacing" textLength="12.7246" x="733" y="25.2822">28</text><text fill="#000000" font-family="sans-serif" font-size="10" lengthAdjust="spacing" textLength="12.7246" x="761" y="25.2822">29</text><line style="stroke:#C0C0C0;stroke-width:1;" x1="0" x2="0" y1="16" y2="359.875"/><line style="stroke:#C0C0C0;stroke-width:1;" x1="28" x2="28" y1="16" y2="359.875"/><line style="stroke:#C0C0C0;stroke-width:1;" x1="56" x2="56" y1="16" y2="359.875"/><line style="stroke:#C0C0C0;stroke-width:1;" x1="84" x2="84" y1="16" y2="359.875"/><line style="stroke:#C0C0C0;stroke-width:1;" x1="112" x2="112" y1="16" y2="359.875"/><line style="stroke:#C0C0C0;stroke-width:1;" x1="140" x2="140" y1="16" y2="359.875"/><line style="stroke:#C0C0C0;stroke-width:1;" x1="168" x2="168" y1="16" y2="359.875"/><line style="stroke:#C0C0C0;stroke-width:1;" x1="196" x2="196" y1="16" y2="359.875"/><line style="stroke:#C0C0C0;stroke-width:1;" x1="224" x2="224" y1="16" y2="359.875"/><line style="stroke:#C0C0C0;stroke-width:1;" x1="252" x2="252" y1="16" y2="359.875"/><line style="stroke:#C0C0C0;stroke-width:1;" x1="280" x2="280" y1="16" y2="359.875"/><line style="stroke:#C0C0C0;stroke-width:1;" x1="308" x2="308" y1="16" y2="359.875"/><line style="stroke:#C0C0C0;stroke-width:1;" x1="336" x2="336" y1="16" y2="359.875"/><line style="stroke:#C0C0C0;stroke-width:1;" x1="364" x2="364" y1="16" y2="359.875"/><line style="stroke:#C0C0C0;stroke-width:1;" x1="392" x2="392" y1="16" y2="359.875"/><line style="stroke:#C0C0C0;stroke-width:1;" x1="420" x2="420" y1="16" y2="359.875"/><line style="stroke:#C0C0C0;stroke-width:1;" x1="448" x2="448" y1="16" y2="359.875"/><line style="stroke:#C0C0C0;stroke-width:1;" x1="476" x2="476" y1="16" y2="359.875"/><line style="stroke:#C0C0C0;stroke-width:1;" x1="504" x2="504" y1="16" y2="359.875"/><line style="stroke:#C0C0C0;stroke-width:1;" x1="532" x2="532" y1="16" y2="359.875"/><line style="stroke:#C0C0C0;stroke-width:1;" x1="560" x2="560" y1="16" y2="359.875"/><line style="stroke:#C0C0C0;stroke-width:1;" x1="588" x2="588" y1="16" y2="359.875"/><line style="stroke:#C0C0C0;stroke-width:1;" x1="616" x2="616" y1="16" y2="359.875"/><line style="stroke:#C0C0C0;stroke-width:1;" x1="644" x2="644" y1="16" y2="359.875"/><line style="stroke:#C0C0C0;stroke-width:1;" x1="672" x2="672" y1="16" y2="359.875"/><line style="stroke:#C0C0C0;stroke-width:1;" x1="700" x2="700" y1="16" y2="359.875"/><line style="stroke:#C0C0C0;stroke-width:1;" x1="728" x2="728" y1="16" y2="359.875"/><line style="stroke:#C0C0C0;stroke-width:1;" x1="756" x2="756" y1="16" y2="359.875"/><line style="stroke:#C0C0C0;stroke-width:1;" x1="784" x2="784" y1="16" y2="359.875"/><line style="stroke:#C0C0C0;stroke-width:1;" x1="0" x2="0" y1="0" y2="16"/><line style="stroke:#C0C0C0;stroke-width:1;" x1="104" x2="104" y1="0" y2="16"/><text fill="#000000" font-family="sans-serif" font-size="12" font-weight="bold" lengthAdjust="spacing" textLength="58.6816" x="22.6592" y="11.1387">Jan 2025</text><line style="stroke:#C0C0C0;stroke-width:1;" x1="216" x2="216" y1="0" y2="16"/><text fill="#000000" font-family="sans-serif" font-size="12" font-weight="bold" lengthAdjust="spacing" textLength="62.502" x="128.749" y="11.1387">Feb 2025</text><line style="stroke:#C0C0C0;stroke-width:1;" x1="340" x2="340" y1="0" y2="16"/><text fill="#000000" font-family="sans-serif" font-size="12" font-weight="bold" lengthAdjust="spacing" textLength="63.5332" x="246.2334" y="11.1387">Mar 2025</text><line style="stroke:#C0C0C0;stroke-width:1;" x1="460" x2="460" y1="0" y2="16"/><text fill="#000000" font-family="sans-serif" font-size="12" font-weight="bold" lengthAdjust="spacing" textLength="61.3711" x="369.3145" y="11.1387">Apr 2025</text><line style="stroke:#C0C0C0;stroke-width:1;" x1="584" x2="584" y1="0" y2="16"/><text fill="#000000" font-family="sans-serif" font-size="12" font-weight="bold" lengthAdjust="spacing" textLength="65.4375" x="489.2813" y="11.1387">May 2025</text><line style="stroke:#C0C0C0;stroke-width:1;" x1="704" x2="704" y1="0" y2="16"/><text fill="#000000" font-family="sans-serif" font-size="12" font-weight="bold" lengthAdjust="spacing" textLength="59.127" x="614.4365" y="11.1387">Jun 2025</text><line style="stroke:#C0C0C0;stroke-width:1;" x1="784" x2="784" y1="0" y2="16"/><text fill="#000000" font-family="sans-serif" font-size="12" font-weight="bold" lengthAdjust="spacing" textLength="54.6973" x="716.6514" y="11.1387">Jul 2025</text><line style="stroke:#C0C0C0;stroke-width:1;" x1="0" x2="784" y1="0" y2="0"/><line style="stroke:#C0C0C0;stroke-width:1;" x1="0" x2="784" y1="16" y2="16"/><line style="stroke:#C0C0C0;stroke-width:1;" x1="0" x2="784" y1="27" y2="27"/><path d="M2,68.207 L-8,68.207 L-8,85.0117 L-3,85.0117" fill="none" style="stroke:#181818;stroke-width:1.5;"/><polygon fill="#181818" points="-4,81.0117,0,85.0117,-4,89.0117,-4,81.0117" style="stroke:#181818;stroke-width:1;"/><path d="M76,91.4141 L76,101.8164 L81,101.8164" fill="none" style="stroke:#181818;stroke-width:1.5;"/><polygon fill="#181818" points="80,97.8164,84,101.8164,80,105.8164,80,97.8164" style="stroke:#181818;stroke-width:1;"/><path d="M104,108.2188 L104,151.4258 L109,151.4258" fill="none" style="stroke:#181818;stroke-width:1.5;"/><polygon fill="#181818" points="108,147.4258,112,151.4258,108,155.4258,108,147.4258" style="stroke:#181818;stroke-width:1;"/><path d="M104,108.2188 L104,168.2305 L109,168.2305" fill="none" style="stroke:#181818;stroke-width:1.5;"/><polygon fill="#181818" points="108,164.2305,112,168.2305,108,172.2305,108,164.2305" style="stroke:#181818;stroke-width:1;"/><path d="M104,108.2188 L104,185.0352 L109,185.0352" fill="none" style="stroke:#181818;stroke-width:1.5;"/><polygon fill="#181818" points="108,181.0352,112,185.0352,108,189.0352,108,181.0352" style="stroke:#181818;stroke-width:1;"/><path d="M188,191.4375 L188,234.6445 L193,234.6445" fill="none" style="stroke:#181818;stroke-width:1.5;"/><polygon fill="#181818" points="192,230.6445,196,234.6445,192,238.6445,192,230.6445" style="stroke:#181818;stroke-width:1;"/><path d="M356,241.0469 L356,251.4492 L361,251.4492" fill="none" style="stroke:#181818;stroke-width:1.5;"/><polygon fill="#181818" points="360,247.4492,364,251.4492,360,255.4492,360,247.4492" style="stroke:#181818;stroke-width:1;"/><path d="M356,241.0469 L356,268.2539 L361,268.2539" fill="none" style="stroke:#181818;stroke-width:1.5;"/><polygon fill="#181818" points="360,264.2539,364,268.2539,360,272.2539,360,264.2539" style="stroke:#181818;stroke-width:1;"/><path d="M580,257.8516 L580,317.8633 L585,317.8633" fill="none" style="stroke:#181818;stroke-width:1.5;"/><polygon fill="#181818" points="584,313.8633,588,317.8633,584,321.8633,584,313.8633" style="stroke:#181818;stroke-width:1;"/><path d="M636,324.2656 L636,334.668 L641,334.668" fill="none" style="stroke:#181818;stroke-width:1.5;"/><polygon fill="#181818" points="640,330.668,644,334.668,640,338.668,640,330.668" style="stroke:#181818;stroke-width:1;"/><path d="M720,341.0703 L720,351.4727 L725,351.4727" fill="none" style="stroke:#181818;stroke-width:1.5;"/><polygon fill="#181818" points="724,347.4727,728,351.4727,724,355.4727,724,347.4727" style="stroke:#181818;stroke-width:1;"/><line style="stroke:#181818;stroke-width:1;" x1="0" x2="5" y1="43.4023" y2="43.4023"/><line style="stroke:#181818;stroke-width:1;" x1="128.5503" x2="783" y1="43.4023" y2="43.4023"/><rect fill="#E2E2F0" height="12.8047" style="stroke:none;stroke-width:1;" width="52" x="2" y="61.8047"/><rect fill="none" height="12.8047" style="stroke:#181818;stroke-width:1;" width="52" x="2" y="61.8047"/><rect fill="#E2E2F0" height="12.8047" style="stroke:none;stroke-width:1;" width="80" x="2" y="78.6094"/><rect fill="none" height="12.8047" style="stroke:#181818;stroke-width:1;" width="80" x="2" y="78.6094"/><rect fill="#E2E2F0" height="12.8047" style="stroke:none;stroke-width:1;" width="24" x="86" y="95.4141"/><rect fill="none" height="12.8047" style="stroke:#181818;stroke-width:1;" width="24" x="86" y="95.4141"/><line style="stroke:#181818;stroke-width:1;" x1="0" x2="5" y1="126.6211" y2="126.6211"/><line style="stroke:#181818;stroke-width:1;" x1="89.3198" x2="783" y1="126.6211" y2="126.6211"/><rect fill="#E2E2F0" height="12.8047" style="stroke:none;stroke-width:1;" width="108" x="114" y="145.0234"/><rect fill="none" height="12.8047" style="stroke:#181818;stroke-width:1;" width="108" x="114" y="145.0234"/><rect fill="#E2E2F0" height="12.8047" style="stroke:none;stroke-width:1;" width="136" x="114" y="161.8281"/><rect fill="none" height="12.8047" style="stroke:#181818;stroke-width:1;" width="136" x="114" y="161.8281"/><rect fill="#E2E2F0" height="12.8047" style="stroke:none;stroke-width:1;" width="80" x="114" y="178.6328"/><rect fill="none" height="12.8047" style="stroke:#181818;stroke-width:1;" width="80" x="114" y="178.6328"/><line style="stroke:#181818;stroke-width:1;" x1="0" x2="5" y1="209.8398" y2="209.8398"/><line style="stroke:#181818;stroke-width:1;" x1="125.3921" x2="783" y1="209.8398" y2="209.8398"/><rect fill="#E2E2F0" height="12.8047" style="stroke:none;stroke-width:1;" width="164" x="198" y="228.2422"/><rect fill="none" height="12.8047" style="stroke:#181818;stroke-width:1;" width="164" x="198" y="228.2422"/><rect fill="#E2E2F0" height="12.8047" style="stroke:none;stroke-width:1;" width="220" x="366" y="245.0469"/><rect fill="none" height="12.8047" style="stroke:#181818;stroke-width:1;" width="220" x="366" y="245.0469"/><rect fill="#E2E2F0" height="12.8047" style="stroke:none;stroke-width:1;" width="136" x="366" y="261.8516"/><rect fill="none" height="12.8047" style="stroke:#181818;stroke-width:1;" width="136" x="366" y="261.8516"/><line style="stroke:#181818;stroke-width:1;" x1="0" x2="5" y1="293.0586" y2="293.0586"/><line style="stroke:#181818;stroke-width:1;" x1="91.8818" x2="783" y1="293.0586" y2="293.0586"/><rect fill="#E2E2F0" height="12.8047" style="stroke:none;stroke-width:1;" width="52" x="590" y="311.4609"/><rect fill="none" height="12.8047" style="stroke:#181818;stroke-width:1;" width="52" x="590" y="311.4609"/><rect fill="#E2E2F0" height="12.8047" style="stroke:none;stroke-width:1;" width="80" x="646" y="328.2656"/><rect fill="none" height="12.8047" style="stroke:#181818;stroke-width:1;" width="80" x="646" y="328.2656"/><rect fill="#E2E2F0" height="12.8047" style="stroke:none;stroke-width:1;" width="52" x="730" y="345.0703"/><rect fill="none" height="12.8047" style="stroke:#181818;stroke-width:1;" width="52" x="730" y="345.0703"/><text fill="#000000" font-family="sans-serif" font-size="11" lengthAdjust="spacing" textLength="113.5503" x="10" y="47.2104">Requirements Phase</text><text fill="#000000" font-family="sans-serif" font-size="11" lengthAdjust="spacing" textLength="126.5806" x="58" y="72.0151">Stakeholder Interviews</text><text fill="#000000" font-family="sans-serif" font-size="11" lengthAdjust="spacing" textLength="165.5049" x="86" y="88.8198">Requirements Documentation</text><text fill="#000000" font-family="sans-serif" font-size="11" lengthAdjust="spacing" textLength="120.4468" x="114" y="105.6245">Requirements Review</text><text fill="#000000" font-family="sans-serif" font-size="11" lengthAdjust="spacing" textLength="74.3198" x="10" y="130.4292">Design Phase</text><text fill="#000000" font-family="sans-serif" font-size="11" lengthAdjust="spacing" textLength="93.9619" x="118" y="155.2339">Database Design</text><text fill="#000000" font-family="sans-serif" font-size="11" lengthAdjust="spacing" textLength="52.771" x="118" y="172.0386">UI Design</text><text fill="#000000" font-family="sans-serif" font-size="11" lengthAdjust="spacing" textLength="112.3418" x="198" y="188.8433">System Architecture</text><text fill="#000000" font-family="sans-serif" font-size="11" lengthAdjust="spacing" textLength="110.3921" x="10" y="213.6479">Development Phase</text><text fill="#000000" font-family="sans-serif" font-size="11" lengthAdjust="spacing" textLength="124.2441" x="202" y="238.4526">Authentication Module</text><text fill="#000000" font-family="sans-serif" font-size="11" lengthAdjust="spacing" textLength="109.4951" x="370" y="255.2573">Grade Management</text><text fill="#000000" font-family="sans-serif" font-size="11" lengthAdjust="spacing" textLength="97.4639" x="370" y="272.062">Reporting Module</text><text fill="#000000" font-family="sans-serif" font-size="11" lengthAdjust="spacing" textLength="76.8818" x="10" y="296.8667">Testing Phase</text><text fill="#000000" font-family="sans-serif" font-size="11" lengthAdjust="spacing" textLength="66.4297" x="646" y="321.6714">Unit Testing</text><text fill="#000000" font-family="sans-serif" font-size="11" lengthAdjust="spacing" textLength="104.6504" x="730" y="338.4761">Integration Testing</text><text fill="#000000" font-family="sans-serif" font-size="11" lengthAdjust="spacing" textLength="136.8179" x="786" y="355.2808">User Acceptance Testing</text><line style="stroke:#C0C0C0;stroke-width:1;" x1="0" x2="784" y1="359.875" y2="359.875"/><line style="stroke:#C0C0C0;stroke-width:1;" x1="0" x2="0" y1="359.875" y2="375.875"/><line style="stroke:#C0C0C0;stroke-width:1;" x1="104" x2="104" y1="359.875" y2="375.875"/><text fill="#000000" font-family="sans-serif" font-size="12" font-weight="bold" lengthAdjust="spacing" textLength="58.6816" x="22.6592" y="371.0137">Jan 2025</text><line style="stroke:#C0C0C0;stroke-width:1;" x1="216" x2="216" y1="359.875" y2="375.875"/><text fill="#000000" font-family="sans-serif" font-size="12" font-weight="bold" lengthAdjust="spacing" textLength="62.502" x="128.749" y="371.0137">Feb 2025</text><line style="stroke:#C0C0C0;stroke-width:1;" x1="340" x2="340" y1="359.875" y2="375.875"/><text fill="#000000" font-family="sans-serif" font-size="12" font-weight="bold" lengthAdjust="spacing" textLength="63.5332" x="246.2334" y="371.0137">Mar 2025</text><line style="stroke:#C0C0C0;stroke-width:1;" x1="460" x2="460" y1="359.875" y2="375.875"/><text fill="#000000" font-family="sans-serif" font-size="12" font-weight="bold" lengthAdjust="spacing" textLength="61.3711" x="369.3145" y="371.0137">Apr 2025</text><line style="stroke:#C0C0C0;stroke-width:1;" x1="584" x2="584" y1="359.875" y2="375.875"/><text fill="#000000" font-family="sans-serif" font-size="12" font-weight="bold" lengthAdjust="spacing" textLength="65.4375" x="489.2813" y="371.0137">May 2025</text><line style="stroke:#C0C0C0;stroke-width:1;" x1="704" x2="704" y1="359.875" y2="375.875"/><text fill="#000000" font-family="sans-serif" font-size="12" font-weight="bold" lengthAdjust="spacing" textLength="59.127" x="614.4365" y="371.0137">Jun 2025</text><line style="stroke:#C0C0C0;stroke-width:1;" x1="784" x2="784" y1="359.875" y2="375.875"/><text fill="#000000" font-family="sans-serif" font-size="12" font-weight="bold" lengthAdjust="spacing" textLength="54.6973" x="716.6514" y="371.0137">Jul 2025</text><line style="stroke:#C0C0C0;stroke-width:1;" x1="0" x2="784" y1="375.875" y2="375.875"/><!--SRC=[fPHBR-8m58Nt_XLtD-qY5O-1LbaLbPcgY4W821iqYqjo9tXgRCQFLFpxSPAc9QgBHZEhnDVsTuwF7_V6ehO5IclPKQjVb5ceImO6lS4ewlMZtjZtS6bDXeBWXUXPd1YB8bZIRySr7SZtmMAFXY2As7PbyPdsIkIauKbQqYMd5_FZ8nPGvg0RYA_NQCEs7UnKPQxwGykLV6EWXSzalfXcK1S-3CANLCtfK2-8Up9vPeVRhxbr6bCol91dEKpHugvgD3sVoxpQ2F6_jhxJf__1Z5hCwcGi7M2YipstVg-Tfdy2jdas2oz9g6Crvspr4sVtliApEZn8LEv4Lola9QGrRiq_Qim94fHOr0uxjB1UY7VtVXQEIbikYv2xl-UDph9Oawc1xpcaajkst17ui9eG- -rIL2Uyq8sN4AqZSsd7jgdn5sQIPNIqA3CAqa9gb-pT-vxc3M4BuRzfCeUIjAdczs-g6typk5exWXbAwDr2_pOUZkBX6DBrG_qWNBEhnyKSZ7BQMygviPhlNAL_pMPO8YoTtui3nU1ZGx59sW9yaoNNIbO9ijacYM7bTdusMe9DmgRq4vsmVbIcSh-As2j-Z-xO76NXVF0nI2S4Ur2UfazDwmy0]--></g></svg>