<svg xmlns="http://www.w3.org/2000/svg" xmlns:xlink="http://www.w3.org/1999/xlink" contentStyleType="text/css" data-diagram-type="DESCRIPTION" height="659px" preserveAspectRatio="none" style="width:413px;height:659px;background:#FFFFFF;" version="1.1" viewBox="0 0 413 659" width="413px" zoomAndPan="magnify"><defs/><g><!--entity req--><g class="entity" data-entity="req" data-source-line="5" data-uid="ent0002" id="entity_req"><rect fill="#FFFFFF" height="36.2969" rx="2.5" ry="2.5" style="stroke:#000000;stroke-width:1;" width="180.3984" x="12" y="12.98"/><text fill="#000000" font-family="Verdana" font-size="14" lengthAdjust="spacing" textLength="160.3984" x="22" y="35.9751">Requirements Analysis</text></g><g class="entity" data-entity="GMN3" data-source-line="6" data-uid="ent0004" id="entity_GMN3"><path d="M227.69,11 L227.69,27.13 L192.48,31.13 L227.69,35.13 L227.69,51.2656 A0,0 0 0 0 227.69,51.2656 L406.7022,51.2656 A0,0 0 0 0 406.7022,51.2656 L406.7022,21 L396.7022,11 L227.69,11 A0,0 0 0 0 227.69,11" fill="#FFFFFF" style="stroke:#000000;stroke-width:1;"/><path d="M396.7022,11 L396.7022,21 L406.7022,21 L396.7022,11" fill="#FFFFFF" style="stroke:#000000;stroke-width:1;"/><text fill="#000000" font-family="Verdana" font-size="13" lengthAdjust="spacing" textLength="143.0317" x="233.69" y="28.0669">Gather and document</text><text fill="#000000" font-family="Verdana" font-size="13" lengthAdjust="spacing" textLength="158.0122" x="233.69" y="43.1997">all system requirements</text></g><!--entity design--><g class="entity" data-entity="design" data-source-line="8" data-uid="ent0006" id="entity_design"><rect fill="#FFFFFF" height="36.2969" rx="2.5" ry="2.5" style="stroke:#000000;stroke-width:1;" width="124.9932" x="39.7" y="113.25"/><text fill="#000000" font-family="Verdana" font-size="14" lengthAdjust="spacing" textLength="104.9932" x="49.7" y="136.2451">System Design</text></g><g class="entity" data-entity="GMN7" data-source-line="9" data-uid="ent0008" id="entity_GMN7"><path d="M199.71,111.27 L199.71,127.4 L164.92,131.4 L199.71,135.4 L199.71,151.5356 A0,0 0 0 0 199.71,151.5356 L398.6856,151.5356 A0,0 0 0 0 398.6856,151.5356 L398.6856,121.27 L388.6856,111.27 L199.71,111.27 A0,0 0 0 0 199.71,111.27" fill="#FFFFFF" style="stroke:#000000;stroke-width:1;"/><path d="M388.6856,111.27 L388.6856,121.27 L398.6856,121.27 L388.6856,111.27" fill="#FFFFFF" style="stroke:#000000;stroke-width:1;"/><text fill="#000000" font-family="Verdana" font-size="13" lengthAdjust="spacing" textLength="177.9756" x="205.71" y="128.3369">Create system architecture</text><text fill="#000000" font-family="Verdana" font-size="13" lengthAdjust="spacing" textLength="128.6353" x="205.71" y="143.4697">and detailed design</text></g><!--entity impl--><g class="entity" data-entity="impl" data-source-line="11" data-uid="ent0010" id="entity_impl"><rect fill="#FFFFFF" height="36.2969" rx="2.5" ry="2.5" style="stroke:#000000;stroke-width:1;" width="131.166" x="36.62" y="213.52"/><text fill="#000000" font-family="Verdana" font-size="14" lengthAdjust="spacing" textLength="111.166" x="46.62" y="236.5151">Implementation</text></g><g class="entity" data-entity="GMN11" data-source-line="12" data-uid="ent0012" id="entity_GMN11"><path d="M202.69,211.53 L202.69,227.66 L168.28,231.66 L202.69,235.66 L202.69,251.7956 A0,0 0 0 0 202.69,251.7956 L359.7076,251.7956 A0,0 0 0 0 359.7076,251.7956 L359.7076,221.53 L349.7076,211.53 L202.69,211.53 A0,0 0 0 0 202.69,211.53" fill="#FFFFFF" style="stroke:#000000;stroke-width:1;"/><path d="M349.7076,211.53 L349.7076,221.53 L359.7076,221.53 L349.7076,211.53" fill="#FFFFFF" style="stroke:#000000;stroke-width:1;"/><text fill="#000000" font-family="Verdana" font-size="13" lengthAdjust="spacing" textLength="134.0879" x="208.69" y="228.5969">Write code based on</text><text fill="#000000" font-family="Verdana" font-size="13" lengthAdjust="spacing" textLength="136.0176" x="208.69" y="243.7297">design specifications</text></g><!--entity test--><g class="entity" data-entity="test" data-source-line="14" data-uid="ent0014" id="entity_test"><rect fill="#FFFFFF" height="36.2969" rx="2.5" ry="2.5" style="stroke:#000000;stroke-width:1;" width="71.5977" x="66.4" y="313.78"/><text fill="#000000" font-family="Verdana" font-size="14" lengthAdjust="spacing" textLength="51.5977" x="76.4" y="336.7751">Testing</text></g><g class="entity" data-entity="GMN15" data-source-line="15" data-uid="ent0016" id="entity_GMN15"><path d="M172.74,311.8 L172.74,327.93 L138.33,331.93 L172.74,335.93 L172.74,352.0656 A0,0 0 0 0 172.74,352.0656 L327.6502,352.0656 A0,0 0 0 0 327.6502,352.0656 L327.6502,321.8 L317.6502,311.8 L172.74,311.8 A0,0 0 0 0 172.74,311.8" fill="#FFFFFF" style="stroke:#000000;stroke-width:1;"/><path d="M317.6502,311.8 L317.6502,321.8 L327.6502,321.8 L317.6502,311.8" fill="#FFFFFF" style="stroke:#000000;stroke-width:1;"/><text fill="#000000" font-family="Verdana" font-size="13" lengthAdjust="spacing" textLength="133.9102" x="178.74" y="328.8669">Verify system meets</text><text fill="#000000" font-family="Verdana" font-size="13" lengthAdjust="spacing" textLength="106.8818" x="178.74" y="343.9997">all requirements</text></g><!--entity deploy--><g class="entity" data-entity="deploy" data-source-line="17" data-uid="ent0018" id="entity_deploy"><rect fill="#FFFFFF" height="36.2969" rx="2.5" ry="2.5" style="stroke:#000000;stroke-width:1;" width="105.6338" x="49.38" y="414.05"/><text fill="#000000" font-family="Verdana" font-size="14" lengthAdjust="spacing" textLength="85.6338" x="59.38" y="437.0451">Deployment</text></g><g class="entity" data-entity="GMN19" data-source-line="18" data-uid="ent0020" id="entity_GMN19"><path d="M190.05,412.06 L190.05,428.2 L155.44,432.2 L190.05,436.2 L190.05,452.3256 A0,0 0 0 0 190.05,452.3256 L368.3513,452.3256 A0,0 0 0 0 368.3513,452.3256 L368.3513,422.06 L358.3513,412.06 L190.05,412.06 A0,0 0 0 0 190.05,412.06" fill="#FFFFFF" style="stroke:#000000;stroke-width:1;"/><path d="M358.3513,412.06 L358.3513,422.06 L368.3513,422.06 L358.3513,412.06" fill="#FFFFFF" style="stroke:#000000;stroke-width:1;"/><text fill="#000000" font-family="Verdana" font-size="13" lengthAdjust="spacing" textLength="106.2471" x="196.05" y="429.1269">Install system in</text><text fill="#000000" font-family="Verdana" font-size="13" lengthAdjust="spacing" textLength="157.3013" x="196.05" y="444.2597">production environment</text></g><!--entity maint--><g class="entity" data-entity="maint" data-source-line="20" data-uid="ent0022" id="entity_maint"><rect fill="#FFFFFF" height="36.2969" rx="2.5" ry="2.5" style="stroke:#000000;stroke-width:1;" width="110.1592" x="47.12" y="514.31"/><text fill="#000000" font-family="Verdana" font-size="14" lengthAdjust="spacing" textLength="90.1592" x="57.12" y="537.3051">Maintenance</text></g><g class="entity" data-entity="GMN23" data-source-line="21" data-uid="ent0024" id="entity_GMN23"><path d="M192.1,512.33 L192.1,552.5956 L338.2885,552.5956 L338.2885,522.33 L328.2885,512.33 L192.1,512.33" fill="#FFFFFF" style="stroke:#000000;stroke-width:1;"/><path d="M328.2885,512.33 L328.2885,522.33 L338.2885,522.33 L328.2885,512.33" fill="#FFFFFF" style="stroke:#000000;stroke-width:1;"/><text fill="#000000" font-family="Verdana" font-size="13" lengthAdjust="spacing" textLength="108.8242" x="198.1" y="529.3969">Ongoing support</text><text fill="#000000" font-family="Verdana" font-size="13" lengthAdjust="spacing" textLength="125.1885" x="198.1" y="544.5297">and enhancements</text></g><g class="entity" data-entity="GMN31" data-source-line="29" data-uid="ent0032" id="entity_GMN31"><path d="M148.44,612.59 L148.44,652.8556 L381.9532,652.8556 L381.9532,622.59 L371.9532,612.59 L148.44,612.59" fill="#FFFFFF" style="stroke:#000000;stroke-width:1;"/><path d="M371.9532,612.59 L371.9532,622.59 L381.9532,622.59 L371.9532,612.59" fill="#FFFFFF" style="stroke:#000000;stroke-width:1;"/><text fill="#000000" font-family="Verdana" font-size="13" lengthAdjust="spacing" textLength="195.6982" x="154.44" y="629.6569">Each phase has formal review</text><text fill="#000000" font-family="Verdana" font-size="13" lengthAdjust="spacing" textLength="212.5132" x="154.44" y="644.7897">and approval before progression</text></g><!--link maint to GMN23--><g class="link" data-entity-1="maint" data-entity-2="GMN23" data-source-line="21" data-uid="lnk25" id="link_maint_GMN23"><path d="M157.59,532.46 C168.94,532.46 180.29,532.46 191.64,532.46" fill="none" id="maint-GMN23" style="stroke:#000000;stroke-width:1;stroke-dasharray:7.0,7.0;"/></g><!--link req to design--><g class="link" data-entity-1="req" data-entity-2="design" data-source-line="23" data-uid="lnk26" id="link_req_design"><path d="M102.2,49.7 C102.2,67.59 102.2,89.15 102.2,106.98" fill="none" id="req-to-design" style="stroke:#000000;stroke-width:1;"/><polygon fill="#000000" points="102.2,112.98,106.2,103.98,102.2,107.98,98.2,103.98,102.2,112.98" style="stroke:#000000;stroke-width:1;"/></g><!--link design to impl--><g class="link" data-entity-1="design" data-entity-2="impl" data-source-line="24" data-uid="lnk27" id="link_design_impl"><path d="M102.2,149.97 C102.2,167.85 102.2,189.42 102.2,207.25" fill="none" id="design-to-impl" style="stroke:#000000;stroke-width:1;"/><polygon fill="#000000" points="102.2,213.25,106.2,204.25,102.2,208.25,98.2,204.25,102.2,213.25" style="stroke:#000000;stroke-width:1;"/></g><!--link impl to test--><g class="link" data-entity-1="impl" data-entity-2="test" data-source-line="25" data-uid="lnk28" id="link_impl_test"><path d="M102.2,250.23 C102.2,268.12 102.2,289.68 102.2,307.51" fill="none" id="impl-to-test" style="stroke:#000000;stroke-width:1;"/><polygon fill="#000000" points="102.2,313.51,106.2,304.51,102.2,308.51,98.2,304.51,102.2,313.51" style="stroke:#000000;stroke-width:1;"/></g><!--link test to deploy--><g class="link" data-entity-1="test" data-entity-2="deploy" data-source-line="26" data-uid="lnk29" id="link_test_deploy"><path d="M102.2,350.5 C102.2,368.38 102.2,389.95 102.2,407.78" fill="none" id="test-to-deploy" style="stroke:#000000;stroke-width:1;"/><polygon fill="#000000" points="102.2,413.78,106.2,404.78,102.2,408.78,98.2,404.78,102.2,413.78" style="stroke:#000000;stroke-width:1;"/></g><!--link deploy to maint--><g class="link" data-entity-1="deploy" data-entity-2="maint" data-source-line="27" data-uid="lnk30" id="link_deploy_maint"><path d="M102.2,450.76 C102.2,468.65 102.2,490.21 102.2,508.05" fill="none" id="deploy-to-maint" style="stroke:#000000;stroke-width:1;"/><polygon fill="#000000" points="102.2,514.05,106.2,505.05,102.2,509.05,98.2,505.05,102.2,514.05" style="stroke:#000000;stroke-width:1;"/></g><!--link GMN23 to GMN31--><g class="link" data-entity-1="GMN23" data-entity-2="GMN31" data-source-line="29" data-uid="lnk33" id="link_GMN23_GMN31"><path d="M265.2,552.88 C265.2,570.1 265.2,595.14 265.2,612.35" fill="none" id="GMN23-GMN31" style="stroke:#000000;stroke-width:1;stroke-dasharray:7.0,7.0;"/></g><!--SRC=[TPF1Rjim38RlUGgkzxv03mE6THXwA0PimtRfXP5fMvWbAYIT8cy_IdAA94KlXlLJ-Z_oj_p9Pae4PS6OT_elveA22H9d3hEmbqnMkgZeZ0E_nZp1Y8lIRYSK3FEq4DpzfCCQnVsoANp9k9mqwXsWWj1Xbza894wp0OzLWGVuZiuNm3p0m66j9r_yt09wKgDKTxqvNg5-zVeZQPnoGmpjzORIHGTz5K8lRBOeOOxcRgkGyogT3ED2mzdcalMKoj9QG8lSOT6b6rIL7FHNt1W23mHxL3Va_9AtDhHGY6CCpUTwdj-avg4sS_Ft6_CgkVaVaZYUpbCa8jCUruSvFL9P-5JrBQIwV1TI5Tt-AQjTX1-zyo8yhA7s2vIFKJXNhol4iryT8qynK6Eakhv1DCq9F_B4zUxeMWgBzUmfp_NmM_C7kB__VFuGMtHLQQ6tcEkgfTHowRlRODieLUbjz3xsRCR9-Tymp51c_p3W3nXP4jRqZf5UUpDOVEIZYtloglyPmfEGgYVm7m00]--></g></svg>