<svg xmlns="http://www.w3.org/2000/svg" xmlns:xlink="http://www.w3.org/1999/xlink" contentStyleType="text/css" data-diagram-type="DESCRIPTION" height="534px" preserveAspectRatio="none" style="width:330px;height:534px;background:#FFFFFF;" version="1.1" viewBox="0 0 330 534" width="330px" zoomAndPan="magnify"><defs/><g><!--entity prob--><g class="entity" data-entity="prob" data-source-line="5" data-uid="ent0002" id="entity_prob"><rect fill="#D3D3D3" height="36.2969" rx="2.5" ry="2.5" style="stroke:#000000;stroke-width:1;" width="126.0869" x="12" y="20.55"/><text fill="#000000" font-family="Verdana" font-size="14" lengthAdjust="spacing" textLength="106.0869" x="22" y="43.5451">1. The Problem</text></g><g class="entity" data-entity="GMN3" data-source-line="7" data-uid="ent0004" id="entity_GMN3"><path d="M172.71,11 L172.71,34.7 L138.54,38.7 L172.71,42.7 L172.71,66.3984 A0,0 0 0 0 172.71,66.3984 L321.3677,66.3984 A0,0 0 0 0 321.3677,66.3984 L321.3677,21 L311.3677,11 L172.71,11 A0,0 0 0 0 172.71,11" fill="#FFFFFF" style="stroke:#000000;stroke-width:1;"/><path d="M311.3677,11 L311.3677,21 L321.3677,21 L311.3677,11" fill="#FFFFFF" style="stroke:#000000;stroke-width:1;"/><text fill="#000000" font-family="Verdana" font-size="13" lengthAdjust="spacing" textLength="125.6011" x="178.71" y="28.0669">Current pain points</text><text fill="#000000" font-family="Verdana" font-size="13" lengthAdjust="spacing" textLength="123.4683" x="178.71" y="43.1997">Quantified impacts</text><text fill="#000000" font-family="Verdana" font-size="13" lengthAdjust="spacing" textLength="127.6577" x="178.71" y="58.3325">Why it matters now</text></g><!--entity solution--><g class="entity" data-entity="solution" data-source-line="12" data-uid="ent0006" id="entity_solution"><rect fill="#D3D3D3" height="36.2969" rx="2.5" ry="2.5" style="stroke:#000000;stroke-width:1;" width="125.3281" x="12.38" y="135.95"/><text fill="#000000" font-family="Verdana" font-size="14" lengthAdjust="spacing" textLength="105.3281" x="22.38" y="158.9451">2. The Solution</text></g><g class="entity" data-entity="GMN7" data-source-line="14" data-uid="ent0008" id="entity_GMN7"><path d="M172.98,126.4 L172.98,150.1 L138.11,154.1 L172.98,158.1 L172.98,181.7984 A0,0 0 0 0 172.98,181.7984 L289.0996,181.7984 A0,0 0 0 0 289.0996,181.7984 L289.0996,136.4 L279.0996,126.4 L172.98,126.4 A0,0 0 0 0 172.98,126.4" fill="#FFFFFF" style="stroke:#000000;stroke-width:1;"/><path d="M279.0996,126.4 L279.0996,136.4 L289.0996,136.4 L279.0996,126.4" fill="#FFFFFF" style="stroke:#000000;stroke-width:1;"/><text fill="#000000" font-family="Verdana" font-size="13" lengthAdjust="spacing" textLength="95.1196" x="178.98" y="143.4669">What you built</text><text fill="#000000" font-family="Verdana" font-size="13" lengthAdjust="spacing" textLength="83.5669" x="178.98" y="158.5997">How it works</text><text fill="#000000" font-family="Verdana" font-size="13" lengthAdjust="spacing" textLength="82.3418" x="178.98" y="173.7325">Key features</text></g><!--entity demo--><g class="entity" data-entity="demo" data-source-line="19" data-uid="ent0010" id="entity_demo"><rect fill="#D3D3D3" height="36.2969" rx="2.5" ry="2.5" style="stroke:#000000;stroke-width:1;" width="109.8926" x="20.1" y="251.35"/><text fill="#000000" font-family="Verdana" font-size="14" lengthAdjust="spacing" textLength="89.8926" x="30.1" y="274.3451">3. The Demo</text></g><g class="entity" data-entity="GMN11" data-source-line="21" data-uid="ent0012" id="entity_GMN11"><path d="M164.65,241.79 L164.65,265.49 L130.19,269.49 L164.65,273.49 L164.65,297.1884 A0,0 0 0 0 164.65,297.1884 L297.4322,297.1884 A0,0 0 0 0 297.4322,297.1884 L297.4322,251.79 L287.4322,241.79 L164.65,241.79 A0,0 0 0 0 164.65,241.79" fill="#FFFFFF" style="stroke:#000000;stroke-width:1;"/><path d="M287.4322,241.79 L287.4322,251.79 L297.4322,251.79 L287.4322,241.79" fill="#FFFFFF" style="stroke:#000000;stroke-width:1;"/><text fill="#000000" font-family="Verdana" font-size="13" lengthAdjust="spacing" textLength="111.7822" x="170.65" y="258.8569">Live walkthrough</text><text fill="#000000" font-family="Verdana" font-size="13" lengthAdjust="spacing" textLength="94.5483" x="170.65" y="273.9897">Real scenarios</text><text fill="#000000" font-family="Verdana" font-size="13" lengthAdjust="spacing" textLength="92.0347" x="170.65" y="289.1225">Prove it works</text></g><!--entity benefits--><g class="entity" data-entity="benefits" data-source-line="26" data-uid="ent0014" id="entity_benefits"><rect fill="#D3D3D3" height="36.2969" rx="2.5" ry="2.5" style="stroke:#000000;stroke-width:1;" width="125.6016" x="12.24" y="366.74"/><text fill="#000000" font-family="Verdana" font-size="14" lengthAdjust="spacing" textLength="105.6016" x="22.24" y="389.7351">4. The Benefits</text></g><g class="entity" data-entity="GMN15" data-source-line="28" data-uid="ent0016" id="entity_GMN15"><path d="M173.12,357.19 L173.12,380.89 L138.32,384.89 L173.12,388.89 L173.12,412.5884 A0,0 0 0 0 173.12,412.5884 L300.9701,412.5884 A0,0 0 0 0 300.9701,412.5884 L300.9701,367.19 L290.9701,357.19 L173.12,357.19 A0,0 0 0 0 173.12,357.19" fill="#FFFFFF" style="stroke:#000000;stroke-width:1;"/><path d="M290.9701,357.19 L290.9701,367.19 L300.9701,367.19 L290.9701,357.19" fill="#FFFFFF" style="stroke:#000000;stroke-width:1;"/><text fill="#000000" font-family="Verdana" font-size="13" lengthAdjust="spacing" textLength="75.0293" x="179.12" y="374.2569">Time saved</text><text fill="#000000" font-family="Verdana" font-size="13" lengthAdjust="spacing" textLength="93.0376" x="179.12" y="389.3897">Costs reduced</text><text fill="#000000" font-family="Verdana" font-size="13" lengthAdjust="spacing" textLength="106.8501" x="179.12" y="404.5225">Problems solved</text></g><!--entity next--><g class="entity" data-entity="next" data-source-line="33" data-uid="ent0018" id="entity_next"><rect fill="#D3D3D3" height="36.2969" rx="2.5" ry="2.5" style="stroke:#000000;stroke-width:1;" width="114.2881" x="17.9" y="482.14"/><text fill="#000000" font-family="Verdana" font-size="14" lengthAdjust="spacing" textLength="94.2881" x="27.9" y="505.1351">5. Next Steps</text></g><g class="entity" data-entity="GMN19" data-source-line="35" data-uid="ent0020" id="entity_GMN19"><path d="M166.83,472.59 L166.83,496.29 L132.48,500.29 L166.83,504.29 L166.83,527.9884 A0,0 0 0 0 166.83,527.9884 L323.2572,527.9884 A0,0 0 0 0 323.2572,527.9884 L323.2572,482.59 L313.2572,472.59 L166.83,472.59 A0,0 0 0 0 166.83,472.59" fill="#FFFFFF" style="stroke:#000000;stroke-width:1;"/><path d="M313.2572,472.59 L313.2572,482.59 L323.2572,482.59 L313.2572,472.59" fill="#FFFFFF" style="stroke:#000000;stroke-width:1;"/><text fill="#000000" font-family="Verdana" font-size="13" lengthAdjust="spacing" textLength="135.4272" x="172.83" y="489.6569">Implementation plan</text><text fill="#000000" font-family="Verdana" font-size="13" lengthAdjust="spacing" textLength="55.6753" x="172.83" y="504.7897">Timeline</text><text fill="#000000" font-family="Verdana" font-size="13" lengthAdjust="spacing" textLength="99.4043" x="172.83" y="519.9225">Decision points</text></g><!--link prob to solution--><g class="link" data-entity-1="prob" data-entity-2="solution" data-source-line="40" data-uid="lnk22" id="link_prob_solution"><path d="M75.04,56.92 C75.04,78.23 75.04,108.32 75.04,129.71" fill="none" id="prob-to-solution" style="stroke:#000000;stroke-width:1;"/><polygon fill="#000000" points="75.04,135.71,79.04,126.71,75.04,130.71,71.04,126.71,75.04,135.71" style="stroke:#000000;stroke-width:1;"/></g><!--link solution to demo--><g class="link" data-entity-1="solution" data-entity-2="demo" data-source-line="41" data-uid="lnk23" id="link_solution_demo"><path d="M75.04,172.32 C75.04,193.63 75.04,223.72 75.04,245.11" fill="none" id="solution-to-demo" style="stroke:#000000;stroke-width:1;"/><polygon fill="#000000" points="75.04,251.11,79.04,242.11,75.04,246.11,71.04,242.11,75.04,251.11" style="stroke:#000000;stroke-width:1;"/></g><!--link demo to benefits--><g class="link" data-entity-1="demo" data-entity-2="benefits" data-source-line="42" data-uid="lnk24" id="link_demo_benefits"><path d="M75.04,287.72 C75.04,309.03 75.04,339.12 75.04,360.51" fill="none" id="demo-to-benefits" style="stroke:#000000;stroke-width:1;"/><polygon fill="#000000" points="75.04,366.51,79.04,357.51,75.04,361.51,71.04,357.51,75.04,366.51" style="stroke:#000000;stroke-width:1;"/></g><!--link benefits to next--><g class="link" data-entity-1="benefits" data-entity-2="next" data-source-line="43" data-uid="lnk25" id="link_benefits_next"><path d="M75.04,403.12 C75.04,424.43 75.04,454.52 75.04,475.91" fill="none" id="benefits-to-next" style="stroke:#000000;stroke-width:1;"/><polygon fill="#000000" points="75.04,481.91,79.04,472.91,75.04,476.91,71.04,472.91,75.04,481.91" style="stroke:#000000;stroke-width:1;"/></g><!--SRC=[TPBBJWCn34Nt-GfJraNYjMK1NO1026YbhjqPTyPgnXabJeV-FKccBI2rk_YXdAjxVQ4jTGIzHHOJDYmzUkoWS-AgrhiqKX_fpoIqMBk1fO4rsa36UAeKfR44a-ihMBG47zwjB7KJm01zUiEbvQRLnkFEY5C2dqi3y1Iz9r7e4nnwnw8XTJyZYlAQgGRkUgnASzdkW1KwL2KVGDnWI6h8t_sJS3DAc3iRbPqK3M5VdDMnR55XvoAi8jlSU7P3fWtERpBybNQm9jJeAPp6texO6NMk8ElqE8jxuot1W7QZoU7OjAdrHMWXL2JesMLayZ0j7JMSXDwDq4SIMhE60bxjYxFm1QTC0swfpW6ua5OzrR4gzJwvObdUE8czlu9t-bQOA_KZL79v3lZIzUdB53EM3DAboLw6PQ7qd575eOp62_Y5bkEPfdEJwSCnHNECyp39PflY-A5pSC4SxJXCijGV]--></g></svg>