<svg xmlns="http://www.w3.org/2000/svg" xmlns:xlink="http://www.w3.org/1999/xlink" contentStyleType="text/css" data-diagram-type="DESCRIPTION" height="554px" preserveAspectRatio="none" style="width:456px;height:554px;background:#FFFFFF;" version="1.1" viewBox="0 0 456 554" width="456px" zoomAndPan="magnify"><defs/><g><!--cluster Solution Presentation Narrative--><g class="cluster" data-entity="Solution Presentation Narrative" data-source-line="5" data-uid="ent0002" id="cluster_Solution Presentation Narrative"><path d="M13.5,11 L265.9941,11 A3.75,3.75 0 0 1 268.4941,13.5 L275.4941,33.2969 L418.5,33.2969 A2.5,2.5 0 0 1 421,35.7969 L421,461.09 A2.5,2.5 0 0 1 418.5,463.59 L13.5,463.59 A2.5,2.5 0 0 1 11,461.09 L11,13.5 A2.5,2.5 0 0 1 13.5,11" fill="#FFFFFF" style="stroke:#000000;stroke-width:1;"/><line style="stroke:#000000;stroke-width:1;" x1="11" x2="275.4941" y1="33.2969" y2="33.2969"/><text fill="#000000" font-family="Verdana" font-size="14" font-weight="bold" lengthAdjust="spacing" textLength="251.4941" x="15" y="25.9951">Solution Presentation Narrative</text></g><!--entity prob--><g class="entity" data-entity="prob" data-source-line="6" data-uid="ent0003" id="entity_prob"><rect fill="#FFFFFF" height="36.2969" rx="2.5" ry="2.5" style="stroke:#000000;stroke-width:1;" width="167.3281" x="27.34" y="55.55"/><text fill="#000000" font-family="Verdana" font-size="14" lengthAdjust="spacing" textLength="147.3281" x="37.34" y="78.5451">Problem Introduction</text></g><g class="entity" data-entity="GMN4" data-source-line="7" data-uid="ent0005" id="entity_GMN4"><path d="M229.25,46 L229.25,69.7 L195.09,73.7 L229.25,77.7 L229.25,101.3984 A0,0 0 0 0 229.25,101.3984 L404.752,101.3984 A0,0 0 0 0 404.752,101.3984 L404.752,56 L394.752,46 L229.25,46 A0,0 0 0 0 229.25,46" fill="#FFFFFF" style="stroke:#000000;stroke-width:1;"/><path d="M394.752,46 L394.752,56 L404.752,56 L394.752,46" fill="#FFFFFF" style="stroke:#000000;stroke-width:1;"/><text fill="#000000" font-family="Verdana" font-size="13" lengthAdjust="spacing" textLength="123.3096" x="235.25" y="63.0669">Current challenges</text><text fill="#000000" font-family="Verdana" font-size="13" lengthAdjust="spacing" textLength="154.502" x="235.25" y="78.1997">Stakeholder pain points</text><text fill="#000000" font-family="Verdana" font-size="13" lengthAdjust="spacing" textLength="106.1963" x="235.25" y="93.3325">Business impact</text></g><!--entity journey--><g class="entity" data-entity="journey" data-source-line="9" data-uid="ent0007" id="entity_journey"><rect fill="#FFFFFF" height="36.2969" rx="2.5" ry="2.5" style="stroke:#000000;stroke-width:1;" width="134.5771" x="43.71" y="170.95"/><text fill="#000000" font-family="Verdana" font-size="14" lengthAdjust="spacing" textLength="114.5771" x="53.71" y="193.9451">Solution Journey</text></g><g class="entity" data-entity="GMN8" data-source-line="10" data-uid="ent0009" id="entity_GMN8"><path d="M213.08,161.4 L213.08,185.1 L178.57,189.1 L213.08,193.1 L213.08,216.7984 A0,0 0 0 0 213.08,216.7984 L378.9208,216.7984 A0,0 0 0 0 378.9208,216.7984 L378.9208,171.4 L368.9208,161.4 L213.08,161.4 A0,0 0 0 0 213.08,161.4" fill="#FFFFFF" style="stroke:#000000;stroke-width:1;"/><path d="M368.9208,161.4 L368.9208,171.4 L378.9208,171.4 L368.9208,161.4" fill="#FFFFFF" style="stroke:#000000;stroke-width:1;"/><text fill="#000000" font-family="Verdana" font-size="13" lengthAdjust="spacing" textLength="141.8892" x="219.08" y="178.4669">Development process</text><text fill="#000000" font-family="Verdana" font-size="13" lengthAdjust="spacing" textLength="88.7085" x="219.08" y="193.5997">Key decisions</text><text fill="#000000" font-family="Verdana" font-size="13" lengthAdjust="spacing" textLength="144.8408" x="219.08" y="208.7325">Overcoming obstacles</text></g><!--entity demo--><g class="entity" data-entity="demo" data-source-line="12" data-uid="ent0011" id="entity_demo"><rect fill="#FFFFFF" height="36.2969" rx="2.5" ry="2.5" style="stroke:#000000;stroke-width:1;" width="124.4053" x="48.8" y="286.35"/><text fill="#000000" font-family="Verdana" font-size="14" lengthAdjust="spacing" textLength="104.4053" x="58.8" y="309.3451">Demonstration</text></g><g class="entity" data-entity="GMN12" data-source-line="13" data-uid="ent0013" id="entity_GMN12"><path d="M208.1,276.8 L208.1,300.5 L173.62,304.5 L208.1,308.5 L208.1,332.1984 A0,0 0 0 0 208.1,332.1984 L347.8964,332.1984 A0,0 0 0 0 347.8964,332.1984 L347.8964,286.8 L337.8964,276.8 L208.1,276.8 A0,0 0 0 0 208.1,276.8" fill="#FFFFFF" style="stroke:#000000;stroke-width:1;"/><path d="M337.8964,276.8 L337.8964,286.8 L347.8964,286.8 L337.8964,276.8" fill="#FFFFFF" style="stroke:#000000;stroke-width:1;"/><text fill="#000000" font-family="Verdana" font-size="13" lengthAdjust="spacing" textLength="111.7632" x="214.1" y="293.8669">Live functionality</text><text fill="#000000" font-family="Verdana" font-size="13" lengthAdjust="spacing" textLength="95.5703" x="214.1" y="308.9997">User scenarios</text><text fill="#000000" font-family="Verdana" font-size="13" lengthAdjust="spacing" textLength="118.7964" x="214.1" y="324.1325">Benefit realization</text></g><!--entity future--><g class="entity" data-entity="future" data-source-line="15" data-uid="ent0015" id="entity_future"><rect fill="#FFFFFF" height="36.2969" rx="2.5" ry="2.5" style="stroke:#000000;stroke-width:1;" width="112.1963" x="54.9" y="401.75"/><text fill="#000000" font-family="Verdana" font-size="14" lengthAdjust="spacing" textLength="92.1963" x="64.9" y="424.7451">Future Vision</text></g><g class="entity" data-entity="GMN16" data-source-line="16" data-uid="ent0017" id="entity_GMN16"><path d="M202,392.2 L202,447.5984 L370.0054,447.5984 L370.0054,402.2 L360.0054,392.2 L202,392.2" fill="#FFFFFF" style="stroke:#000000;stroke-width:1;"/><path d="M360.0054,392.2 L360.0054,402.2 L370.0054,402.2 L360.0054,392.2" fill="#FFFFFF" style="stroke:#000000;stroke-width:1;"/><text fill="#000000" font-family="Verdana" font-size="13" lengthAdjust="spacing" textLength="111.4585" x="208" y="409.2669">Ongoing benefits</text><text fill="#000000" font-family="Verdana" font-size="13" lengthAdjust="spacing" textLength="147.0054" x="208" y="424.3997">Expansion possibilities</text><text fill="#000000" font-family="Verdana" font-size="13" lengthAdjust="spacing" textLength="107.123" x="208" y="439.5325">Long-term value</text></g><g class="entity" data-entity="GMN22" data-source-line="23" data-uid="ent0023" id="entity_GMN22"><path d="M122.63,507.59 L122.63,547.8556 L449.3712,547.8556 L449.3712,517.59 L439.3712,507.59 L122.63,507.59" fill="#FFFFFF" style="stroke:#000000;stroke-width:1;"/><path d="M439.3712,507.59 L439.3712,517.59 L449.3712,517.59 L439.3712,507.59" fill="#FFFFFF" style="stroke:#000000;stroke-width:1;"/><text fill="#000000" font-family="Verdana" font-size="13" lengthAdjust="spacing" textLength="305.7412" x="128.63" y="524.6569">Narrative follows problem-solution-benefit flow</text><text fill="#000000" font-family="Verdana" font-size="13" lengthAdjust="spacing" textLength="194.7334" x="128.63" y="539.7897">with concrete demonstrations</text></g><!--link future to GMN16--><g class="link" data-entity-1="future" data-entity-2="GMN16" data-source-line="16" data-uid="lnk18" id="link_future_GMN16"><path d="M167.4,419.9 C178.82,419.9 190.25,419.9 201.68,419.9" fill="none" id="future-GMN16" style="stroke:#000000;stroke-width:1;stroke-dasharray:7.0,7.0;"/></g><!--link prob to journey--><g class="link" data-entity-1="prob" data-entity-2="journey" data-source-line="18" data-uid="lnk19" id="link_prob_journey"><path d="M111,91.92 C111,113.24 111,143.32 111,164.71" fill="none" id="prob-to-journey" style="stroke:#000000;stroke-width:1;"/><polygon fill="#000000" points="111,170.71,115,161.71,111,165.71,107,161.71,111,170.71" style="stroke:#000000;stroke-width:1;"/></g><!--link journey to demo--><g class="link" data-entity-1="journey" data-entity-2="demo" data-source-line="19" data-uid="lnk20" id="link_journey_demo"><path d="M111,207.32 C111,228.63 111,258.72 111,280.11" fill="none" id="journey-to-demo" style="stroke:#000000;stroke-width:1;"/><polygon fill="#000000" points="111,286.11,115,277.11,111,281.11,107,277.11,111,286.11" style="stroke:#000000;stroke-width:1;"/></g><!--link demo to future--><g class="link" data-entity-1="demo" data-entity-2="future" data-source-line="20" data-uid="lnk21" id="link_demo_future"><path d="M111,322.72 C111,344.03 111,374.12 111,395.51" fill="none" id="demo-to-future" style="stroke:#000000;stroke-width:1;"/><polygon fill="#000000" points="111,401.51,115,392.51,111,396.51,107,392.51,111,401.51" style="stroke:#000000;stroke-width:1;"/></g><!--link GMN16 to GMN22--><g class="link" data-entity-1="GMN16" data-entity-2="GMN22" data-source-line="23" data-uid="lnk24" id="link_GMN16_GMN22"><path d="M286,447.87 C286,466.37 286,490.48 286,507.15" fill="none" id="GMN16-GMN22" style="stroke:#000000;stroke-width:1;stroke-dasharray:7.0,7.0;"/></g><!--SRC=[PLB1Rjim3BtxAxZS_GCxxB1s0xOLQu6YE-KYoxIjHY8DaawM3VltqKeGTBDE52c-z_Z4TpPXGPXpIDJe8T4S91GeJ1mdOI-PBFYcebFe-PHeX25anQQPGpo44M7tp7cnn0HFWefaeLw-1n6FZhY3tmtu4OmMQCpUyIJSPIpmXKouN-BQi8EWC7kXFYOs14dZPF0UxXOHnuKuXPoHHjGzFLiuuCIvHu7PPu2P4vaNFYwQ25KX5LTepV_SDxLVUH72S-LzlSHRwdiyOkQvhFGkBZhmdhxX6NgCIHt6huz7bCXbjOOxjH0pweRs7jrQDGctMNlFR0aVt34O5ggUX9pilASNzI4r8WL9l8w8X4CoX_S7lohYXk_pOeiW_AWYAzzGCrl6HnfvrTvTK1t_qyyvqDhdfggcBhcCj9h-m3IsXbBW6B9lHmLR_mpQziC_9bxZchyDkWOrSvNofscgaexDkBYKsyx0m3dpwR8GlYcjNd-jlQg4mSjxEYMR8395GSVfttgiVm40]--></g></svg>