<svg xmlns="http://www.w3.org/2000/svg" xmlns:xlink="http://www.w3.org/1999/xlink" contentStyleType="text/css" data-diagram-type="DESCRIPTION" height="145px" preserveAspectRatio="none" style="width:892px;height:145px;background:#FFFFFF;" version="1.1" viewBox="0 0 892 145" width="892px" zoomAndPan="magnify"><defs/><g><!--entity Teacher--><g class="entity" data-entity="Teacher" data-source-line="5" data-uid="ent0002" id="entity_Teacher"><ellipse cx="39.3418" cy="67.5659" fill="#FFFFFF" rx="8" ry="8" style="stroke:#000000;stroke-width:1;"/><path d="M39.3418,75.5659 L39.3418,102.5659 M26.3418,83.5659 L52.3418,83.5659 M39.3418,102.5659 L26.3418,117.5659 M39.3418,102.5659 L52.3418,117.5659" fill="none" style="stroke:#000000;stroke-width:1;"/><text fill="#000000" font-family="Verdana" font-size="14" lengthAdjust="spacing" textLength="56.6836" x="11" y="132.561">Teacher</text></g><!--entity office--><g class="entity" data-entity="office" data-source-line="6" data-uid="ent0003" id="entity_office"><ellipse cx="396.3399" cy="67.5659" fill="#FFFFFF" rx="8" ry="8" style="stroke:#000000;stroke-width:1;"/><path d="M396.3399,75.5659 L396.3399,102.5659 M383.3399,83.5659 L409.3399,83.5659 M396.3399,102.5659 L383.3399,117.5659 M396.3399,102.5659 L409.3399,117.5659" fill="none" style="stroke:#000000;stroke-width:1;"/><text fill="#000000" font-family="Verdana" font-size="14" lengthAdjust="spacing" textLength="78.3398" x="357.17" y="132.561">Office Staff</text></g><!--entity db--><g class="entity" data-entity="db" data-source-line="7" data-uid="ent0004" id="entity_db"><path d="M583,76.4159 C583,66.4159 633.3457,66.4159 633.3457,66.4159 C633.3457,66.4159 683.6914,66.4159 683.6914,76.4159 L683.6914,118.0097 C683.6914,128.0097 633.3457,128.0097 633.3457,128.0097 C633.3457,128.0097 583,128.0097 583,118.0097 L583,76.4159" fill="#FFFFFF" style="stroke:#000000;stroke-width:1;"/><path d="M583,76.4159 C583,86.4159 633.3457,86.4159 633.3457,86.4159 C633.3457,86.4159 683.6914,86.4159 683.6914,76.4159" fill="none" style="stroke:#000000;stroke-width:1;"/><text fill="#000000" font-family="Verdana" font-size="14" lengthAdjust="spacing" textLength="80.6914" x="593" y="103.411">Attendance</text><text fill="#000000" font-family="Verdana" font-size="14" lengthAdjust="spacing" textLength="66.8008" x="593" y="119.7079">Database</text></g><!--entity app--><g class="entity" data-entity="app" data-source-line="8" data-uid="ent0005" id="entity_app"><path d="M224.2138,84.2186 C226.5587,78.968 231.2291,77.2536 235.5836,81.9129 C239.6243,77.0159 243.0019,77.0228 246.3477,82.6253 C249.0439,76.3503 252.4114,75.048 257.6138,80.1418 C260.6447,74.883 264.8955,74.8435 268.494,79.5201 C272.9558,73.7319 278.8458,74.5291 281.8961,81.0561 C284.7647,76.5976 288.9037,76.6414 291.9047,80.9041 C295.6157,74.9493 300.9604,76.4746 303.5963,81.9991 C307.6641,77.9747 311.7636,77.2448 314.5032,83.4195 C322.0157,86.255 322.5474,91.6162 317.8335,97.3704 C325.4613,103.8622 323.3113,109.7291 315.0387,113.4587 C311.8373,118.3388 308.1445,118.3347 304.5252,113.932 C301.3666,119.6064 297.5598,120.6526 292.74,115.7899 C290.1389,122.6065 285.6421,121.7314 281.27,117.6546 C278.6001,123.0694 274.4957,124.1788 270.1699,119.4703 C266.7704,125.6013 261.4045,124.4904 258.4066,119.0615 C253.2209,123.8894 248.3478,123.1347 246.1695,115.9881 C242.6723,120.9816 239.3239,120.1668 235.9054,115.9008 C230.9912,119.8425 226.2762,119.3816 224.3993,112.6319 C215.6377,111.1984 214.1491,104.5356 218.7967,97.9759 C214.867,91.8044 215.3868,85.367 224.2138,84.2186" fill="#FFFFFF" style="stroke:#000000;stroke-width:1;"/><text fill="#000000" font-family="Verdana" font-size="14" lengthAdjust="spacing" textLength="77.7246" x="229.48" y="102.061">Mobile App</text></g><g class="entity" data-entity="GMN9" data-source-line="15" data-uid="ent0010" id="entity_GMN9"><path d="M719.15,69.5159 L719.15,93.2159 L684.17,97.2159 L719.15,101.2159 L719.15,124.9144 A0,0 0 0 0 719.15,124.9144 L885.5431,124.9144 A0,0 0 0 0 885.5431,124.9144 L885.5431,79.5159 L875.5431,69.5159 L719.15,69.5159 A0,0 0 0 0 719.15,69.5159" fill="#FFFFFF" style="stroke:#000000;stroke-width:1;"/><path d="M875.5431,69.5159 L875.5431,79.5159 L885.5431,79.5159 L875.5431,69.5159" fill="#FFFFFF" style="stroke:#000000;stroke-width:1;"/><text fill="#000000" font-family="Verdana" font-size="13" lengthAdjust="spacing" textLength="145.3931" x="725.15" y="86.5828">Automatic compliance</text><text fill="#000000" font-family="Verdana" font-size="13" lengthAdjust="spacing" textLength="119.3804" x="725.15" y="101.7156">Real-time updates</text><text fill="#000000" font-family="Verdana" font-size="13" lengthAdjust="spacing" textLength="109.002" x="725.15" y="116.8484">No manual entry</text></g><!--link Teacher to app--><g class="link" data-entity-1="Teacher" data-entity-2="app" data-source-line="10" data-uid="lnk6" id="link_Teacher_app"><path d="M67.88,97.2159 C104.33,97.2159 162.17,97.2159 208.02,97.2159" fill="none" id="Teacher-to-app" style="stroke:#000000;stroke-width:1;"/><polygon fill="#000000" points="214.02,97.2159,205.02,93.2159,209.02,97.2159,205.02,101.2159,214.02,97.2159" style="stroke:#000000;stroke-width:1;"/><text fill="#000000" font-family="Verdana" font-size="13" lengthAdjust="spacing" textLength="110.189" x="86.08" y="75.2828">Mark attendance</text><text fill="#000000" font-family="Verdana" font-size="13" lengthAdjust="spacing" textLength="83.9541" x="99.1974" y="90.4156">(30 seconds)</text></g><!--link app to db--><g class="link" data-entity-1="app" data-entity-2="db" data-source-line="11" data-uid="lnk7" id="link_app_db"><path d="M311.01,73.6659 C320.31,68.6259 330.13,63.3659 339.34,58.5659 C369.51,42.8459 374.73,32.2259 407.84,24.4259 C446.34,15.3659 458.47,14.8359 496.84,24.4259 C529.41,32.5659 557.6182,46.9582 583.1782,62.7782" fill="none" id="app-to-db" style="stroke:#000000;stroke-width:1;"/><polygon fill="#000000" points="588.28,65.9359,582.7324,57.7981,584.0285,63.3045,578.5221,64.6006,588.28,65.9359" style="stroke:#000000;stroke-width:1;"/><text fill="#000000" font-family="Verdana" font-size="13" lengthAdjust="spacing" textLength="87.5913" x="408.84" y="24.6328">Store records</text></g><!--link office to db--><g class="link" data-entity-1="office" data-entity-2="db" data-source-line="12" data-uid="lnk8" id="link_office_db"><path d="M436.01,97.2159 C476.33,97.2159 532.94,97.2159 576.8,97.2159" fill="none" id="office-to-db" style="stroke:#000000;stroke-width:1;"/><polygon fill="#000000" points="582.8,97.2159,573.8,93.2159,577.8,97.2159,573.8,101.2159,582.8,97.2159" style="stroke:#000000;stroke-width:1;"/><text fill="#000000" font-family="Verdana" font-size="13" lengthAdjust="spacing" textLength="111.6108" x="453.75" y="75.2828">Generate reports</text><text fill="#000000" font-family="Verdana" font-size="13" lengthAdjust="spacing" textLength="51.5938" x="483.7585" y="90.4156">(1 click)</text></g><!--SRC=[JP0nQyGm38Lt_merKsyuQEbsGo5Gw7HNQ3jsKMpbOk98HbOe_VUrqnHkrFiUJq-wiuaMWfmmiYjpv8oA2op2uYULYanNkY5bmY3VaQymOYha77eJXKz2Fv7kK_SsZj4JV1YEOmTOG3R11JGSi11qlHbnGFRqnI-xkZd3u7oIDK1tbY4cWZxd3M3EpkrxuFZSvXESKMV0cwpxfmSev8L3ERXgQSumd6eLKGAjH4DnVtN-sIinALh3MTHAJNa4dwAV3ywnD12lazKZMZk0VZLPqA87BqjEiMskyZjXEbgiFrjpFPHArIu22_AA2OXDVrpj2Itn5m00]--></g></svg>