<svg xmlns="http://www.w3.org/2000/svg" xmlns:xlink="http://www.w3.org/1999/xlink" contentStyleType="text/css" data-diagram-type="DESCRIPTION" height="646px" preserveAspectRatio="none" style="width:1441px;height:646px;background:#FFFFFF;" version="1.1" viewBox="0 0 1441 646" width="1441px" zoomAndPan="magnify"><defs/><g><!--cluster Programming Paradigms--><g class="cluster" data-entity="Programming Paradigms" data-source-line="1" data-uid="ent0002" id="cluster_Programming Paradigms"><path d="M8.5,76.95 L205.3154,76.95 A3.75,3.75 0 0 1 207.8154,79.45 L214.8154,99.2469 L1155.5,99.2469 A2.5,2.5 0 0 1 1158,101.7469 L1158,636.64 A2.5,2.5 0 0 1 1155.5,639.14 L8.5,639.14 A2.5,2.5 0 0 1 6,636.64 L6,79.45 A2.5,2.5 0 0 1 8.5,76.95" fill="none" style="stroke:#000000;stroke-width:1.5;"/><line style="stroke:#000000;stroke-width:1.5;" x1="6" x2="214.8154" y1="99.2469" y2="99.2469"/><text fill="#000000" font-family="sans-serif" font-size="14" font-weight="bold" lengthAdjust="spacing" textLength="195.8154" x="10" y="91.9451">Programming Paradigms</text></g><!--cluster Imperative--><g class="cluster" data-entity="Imperative" data-source-line="3" data-uid="ent0003" id="cluster_Imperative"><rect fill="none" height="219.6" rx="2.5" ry="2.5" style="stroke:#181818;stroke-width:1;" width="550" x="576" y="127.95"/><text fill="#000000" font-family="sans-serif" font-size="14" font-weight="bold" lengthAdjust="spacing" textLength="85.7773" x="808.1113" y="142.9451">Imperative</text></g><!--cluster Object-Oriented--><g class="cluster" data-entity="Object-Oriented" data-source-line="9" data-uid="ent0007" id="cluster_Object-Oriented"><rect fill="none" height="219.6" rx="2.5" ry="2.5" style="stroke:#181818;stroke-width:1;" width="498" x="38" y="127.95"/><text fill="#000000" font-family="sans-serif" font-size="14" font-weight="bold" lengthAdjust="spacing" textLength="126.2939" x="223.853" y="142.9451">Object-Oriented</text></g><!--cluster Logic--><g class="cluster" data-entity="Logic" data-source-line="15" data-uid="ent0011" id="cluster_Logic"><rect fill="none" height="219.59" rx="2.5" ry="2.5" style="stroke:#181818;stroke-width:1;" width="434" x="692" y="387.55"/><text fill="#000000" font-family="sans-serif" font-size="14" font-weight="bold" lengthAdjust="spacing" textLength="41.6582" x="888.1709" y="402.5451">Logic</text></g><!--cluster Functional--><g class="cluster" data-entity="Functional" data-source-line="21" data-uid="ent0015" id="cluster_Functional"><rect fill="none" height="219.59" rx="2.5" ry="2.5" style="stroke:#181818;stroke-width:1;" width="503" x="149" y="387.55"/><text fill="#000000" font-family="sans-serif" font-size="14" font-weight="bold" lengthAdjust="spacing" textLength="83.1182" x="358.9409" y="402.5451">Functional</text></g><!--entity Step-by-step instructions--><g class="entity" data-entity="Step-by-step instructions" data-source-line="4" data-uid="ent0004" id="entity_Step-by-step instructions"><rect fill="#F1F1F1" height="46.2969" rx="2.5" ry="2.5" style="stroke:#181818;stroke-width:0.5;" width="215.8682" x="619.07" y="170.95"/><rect fill="#F1F1F1" height="10" style="stroke:#181818;stroke-width:0.5;" width="15" x="814.9382" y="175.95"/><rect fill="#F1F1F1" height="2" style="stroke:#181818;stroke-width:0.5;" width="4" x="812.9382" y="177.95"/><rect fill="#F1F1F1" height="2" style="stroke:#181818;stroke-width:0.5;" width="4" x="812.9382" y="181.95"/><text fill="#000000" font-family="sans-serif" font-size="14" lengthAdjust="spacing" textLength="175.8682" x="634.07" y="203.9451">Step-by-step instructions</text></g><!--entity Variables change over time--><g class="entity" data-entity="Variables change over time" data-source-line="5" data-uid="ent0005" id="entity_Variables change over time"><rect fill="#F1F1F1" height="46.2969" rx="2.5" ry="2.5" style="stroke:#181818;stroke-width:0.5;" width="232.7871" x="869.61" y="170.95"/><rect fill="#F1F1F1" height="10" style="stroke:#181818;stroke-width:0.5;" width="15" x="1082.3971" y="175.95"/><rect fill="#F1F1F1" height="2" style="stroke:#181818;stroke-width:0.5;" width="4" x="1080.3971" y="177.95"/><rect fill="#F1F1F1" height="2" style="stroke:#181818;stroke-width:0.5;" width="4" x="1080.3971" y="181.95"/><text fill="#000000" font-family="sans-serif" font-size="14" lengthAdjust="spacing" textLength="192.7871" x="884.61" y="203.9451">Variables change over time</text></g><!--entity Explicit control flow--><g class="entity" data-entity="Explicit control flow" data-source-line="6" data-uid="ent0006" id="entity_Explicit control flow"><rect fill="#F1F1F1" height="46.2969" rx="2.5" ry="2.5" style="stroke:#181818;stroke-width:0.5;" width="177.4434" x="679.28" y="277.25"/><rect fill="#F1F1F1" height="10" style="stroke:#181818;stroke-width:0.5;" width="15" x="836.7234" y="282.25"/><rect fill="#F1F1F1" height="2" style="stroke:#181818;stroke-width:0.5;" width="4" x="834.7234" y="284.25"/><rect fill="#F1F1F1" height="2" style="stroke:#181818;stroke-width:0.5;" width="4" x="834.7234" y="288.25"/><text fill="#000000" font-family="sans-serif" font-size="14" lengthAdjust="spacing" textLength="137.4434" x="694.28" y="310.2451">Explicit control flow</text></g><!--entity Objects with properties--><g class="entity" data-entity="Objects with properties" data-source-line="10" data-uid="ent0008" id="entity_Objects with properties"><rect fill="#F1F1F1" height="46.2969" rx="2.5" ry="2.5" style="stroke:#181818;stroke-width:0.5;" width="203.2422" x="81.38" y="170.95"/><rect fill="#F1F1F1" height="10" style="stroke:#181818;stroke-width:0.5;" width="15" x="264.6222" y="175.95"/><rect fill="#F1F1F1" height="2" style="stroke:#181818;stroke-width:0.5;" width="4" x="262.6222" y="177.95"/><rect fill="#F1F1F1" height="2" style="stroke:#181818;stroke-width:0.5;" width="4" x="262.6222" y="181.95"/><text fill="#000000" font-family="sans-serif" font-size="14" lengthAdjust="spacing" textLength="163.2422" x="96.38" y="203.9451">Objects with properties</text></g><!--entity Objects with methods--><g class="entity" data-entity="Objects with methods" data-source-line="11" data-uid="ent0009" id="entity_Objects with methods"><rect fill="#F1F1F1" height="46.2969" rx="2.5" ry="2.5" style="stroke:#181818;stroke-width:0.5;" width="192.8516" x="319.57" y="170.95"/><rect fill="#F1F1F1" height="10" style="stroke:#181818;stroke-width:0.5;" width="15" x="492.4216" y="175.95"/><rect fill="#F1F1F1" height="2" style="stroke:#181818;stroke-width:0.5;" width="4" x="490.4216" y="177.95"/><rect fill="#F1F1F1" height="2" style="stroke:#181818;stroke-width:0.5;" width="4" x="490.4216" y="181.95"/><text fill="#000000" font-family="sans-serif" font-size="14" lengthAdjust="spacing" textLength="152.8516" x="334.57" y="203.9451">Objects with methods</text></g><!--entity Message passing--><g class="entity" data-entity="Message passing" data-source-line="12" data-uid="ent0010" id="entity_Message passing"><rect fill="#F1F1F1" height="46.2969" rx="2.5" ry="2.5" style="stroke:#181818;stroke-width:0.5;" width="159.5127" x="103.24" y="277.25"/><rect fill="#F1F1F1" height="10" style="stroke:#181818;stroke-width:0.5;" width="15" x="242.7527" y="282.25"/><rect fill="#F1F1F1" height="2" style="stroke:#181818;stroke-width:0.5;" width="4" x="240.7527" y="284.25"/><rect fill="#F1F1F1" height="2" style="stroke:#181818;stroke-width:0.5;" width="4" x="240.7527" y="288.25"/><text fill="#000000" font-family="sans-serif" font-size="14" lengthAdjust="spacing" textLength="119.5127" x="118.24" y="310.2451">Message passing</text></g><!--entity Facts and rules--><g class="entity" data-entity="Facts and rules" data-source-line="16" data-uid="ent0012" id="entity_Facts and rules"><rect fill="#F1F1F1" height="46.2969" rx="2.5" ry="2.5" style="stroke:#181818;stroke-width:0.5;" width="146.7773" x="735.61" y="430.55"/><rect fill="#F1F1F1" height="10" style="stroke:#181818;stroke-width:0.5;" width="15" x="862.3873" y="435.55"/><rect fill="#F1F1F1" height="2" style="stroke:#181818;stroke-width:0.5;" width="4" x="860.3873" y="437.55"/><rect fill="#F1F1F1" height="2" style="stroke:#181818;stroke-width:0.5;" width="4" x="860.3873" y="441.55"/><text fill="#000000" font-family="sans-serif" font-size="14" lengthAdjust="spacing" textLength="106.7773" x="750.61" y="463.5451">Facts and rules</text></g><!--entity Deductive reasoning--><g class="entity" data-entity="Deductive reasoning" data-source-line="17" data-uid="ent0013" id="entity_Deductive reasoning"><rect fill="#F1F1F1" height="46.2969" rx="2.5" ry="2.5" style="stroke:#181818;stroke-width:0.5;" width="184.9082" x="917.55" y="430.55"/><rect fill="#F1F1F1" height="10" style="stroke:#181818;stroke-width:0.5;" width="15" x="1082.4582" y="435.55"/><rect fill="#F1F1F1" height="2" style="stroke:#181818;stroke-width:0.5;" width="4" x="1080.4582" y="437.55"/><rect fill="#F1F1F1" height="2" style="stroke:#181818;stroke-width:0.5;" width="4" x="1080.4582" y="441.55"/><text fill="#000000" font-family="sans-serif" font-size="14" lengthAdjust="spacing" textLength="144.9082" x="932.55" y="463.5451">Deductive reasoning</text></g><!--entity Query-based--><g class="entity" data-entity="Query-based" data-source-line="18" data-uid="ent0014" id="entity_Query-based"><rect fill="#F1F1F1" height="46.2969" rx="2.5" ry="2.5" style="stroke:#181818;stroke-width:0.5;" width="129.8584" x="744.07" y="536.84"/><rect fill="#F1F1F1" height="10" style="stroke:#181818;stroke-width:0.5;" width="15" x="853.9284" y="541.84"/><rect fill="#F1F1F1" height="2" style="stroke:#181818;stroke-width:0.5;" width="4" x="851.9284" y="543.84"/><rect fill="#F1F1F1" height="2" style="stroke:#181818;stroke-width:0.5;" width="4" x="851.9284" y="547.84"/><text fill="#000000" font-family="sans-serif" font-size="14" lengthAdjust="spacing" textLength="89.8584" x="759.07" y="569.8351">Query-based</text></g><!--entity Mathematical functions--><g class="entity" data-entity="Mathematical functions" data-source-line="22" data-uid="ent0016" id="entity_Mathematical functions"><rect fill="#F1F1F1" height="46.2969" rx="2.5" ry="2.5" style="stroke:#181818;stroke-width:0.5;" width="204.3291" x="192.84" y="430.55"/><rect fill="#F1F1F1" height="10" style="stroke:#181818;stroke-width:0.5;" width="15" x="377.1691" y="435.55"/><rect fill="#F1F1F1" height="2" style="stroke:#181818;stroke-width:0.5;" width="4" x="375.1691" y="437.55"/><rect fill="#F1F1F1" height="2" style="stroke:#181818;stroke-width:0.5;" width="4" x="375.1691" y="441.55"/><text fill="#000000" font-family="sans-serif" font-size="14" lengthAdjust="spacing" textLength="164.3291" x="207.84" y="463.5451">Mathematical functions</text></g><!--entity No changing variables--><g class="entity" data-entity="No changing variables" data-source-line="23" data-uid="ent0017" id="entity_No changing variables"><rect fill="#F1F1F1" height="46.2969" rx="2.5" ry="2.5" style="stroke:#181818;stroke-width:0.5;" width="196.2695" x="431.87" y="430.55"/><rect fill="#F1F1F1" height="10" style="stroke:#181818;stroke-width:0.5;" width="15" x="608.1395" y="435.55"/><rect fill="#F1F1F1" height="2" style="stroke:#181818;stroke-width:0.5;" width="4" x="606.1395" y="437.55"/><rect fill="#F1F1F1" height="2" style="stroke:#181818;stroke-width:0.5;" width="4" x="606.1395" y="441.55"/><text fill="#000000" font-family="sans-serif" font-size="14" lengthAdjust="spacing" textLength="156.2695" x="446.87" y="463.5451">No changing variables</text></g><!--entity Function composition--><g class="entity" data-entity="Function composition" data-source-line="24" data-uid="ent0018" id="entity_Function composition"><rect fill="#F1F1F1" height="46.2969" rx="2.5" ry="2.5" style="stroke:#181818;stroke-width:0.5;" width="190.1172" x="199.94" y="536.84"/><rect fill="#F1F1F1" height="10" style="stroke:#181818;stroke-width:0.5;" width="15" x="370.0572" y="541.84"/><rect fill="#F1F1F1" height="2" style="stroke:#181818;stroke-width:0.5;" width="4" x="368.0572" y="543.84"/><rect fill="#F1F1F1" height="2" style="stroke:#181818;stroke-width:0.5;" width="4" x="368.0572" y="547.84"/><text fill="#000000" font-family="sans-serif" font-size="14" lengthAdjust="spacing" textLength="150.1172" x="214.94" y="569.8351">Function composition</text></g><g class="entity" data-entity="GMN19" data-source-line="28" data-uid="ent0020" id="entity_GMN19"><path d="M1174.14,181.53 L1174.14,206.6628 L1273.8636,206.6628 L1273.8636,191.53 L1263.8636,181.53 L1174.14,181.53" fill="#FEFFDD" style="stroke:#181818;stroke-width:0.5;"/><path d="M1263.8636,181.53 L1263.8636,191.53 L1273.8636,191.53 L1263.8636,181.53" fill="#FEFFDD" style="stroke:#181818;stroke-width:1;"/><text fill="#000000" font-family="sans-serif" font-size="13" lengthAdjust="spacing" textLength="78.7236" x="1180.14" y="198.5969">How to do it</text></g><g class="entity" data-entity="GMN22" data-source-line="29" data-uid="ent0023" id="entity_GMN22"><path d="M1309.29,181.53 L1309.29,206.6628 L1434.7153,206.6628 L1434.7153,191.53 L1424.7153,181.53 L1309.29,181.53" fill="#FEFFDD" style="stroke:#181818;stroke-width:0.5;"/><path d="M1424.7153,181.53 L1424.7153,191.53 L1434.7153,191.53 L1424.7153,181.53" fill="#FEFFDD" style="stroke:#181818;stroke-width:1;"/><text fill="#000000" font-family="sans-serif" font-size="13" lengthAdjust="spacing" textLength="104.4253" x="1315.29" y="198.5969">Model the world</text></g><g class="entity" data-entity="GMN25" data-source-line="30" data-uid="ent0026" id="entity_GMN25"><path d="M1173.76,441.13 L1173.76,466.2628 L1274.2454,466.2628 L1274.2454,451.13 L1264.2454,441.13 L1173.76,441.13" fill="#FEFFDD" style="stroke:#181818;stroke-width:0.5;"/><path d="M1264.2454,441.13 L1264.2454,451.13 L1274.2454,451.13 L1264.2454,441.13" fill="#FEFFDD" style="stroke:#181818;stroke-width:1;"/><text fill="#000000" font-family="sans-serif" font-size="13" lengthAdjust="spacing" textLength="79.4854" x="1179.76" y="458.1969">What is true</text></g><g class="entity" data-entity="GMN28" data-source-line="31" data-uid="ent0029" id="entity_GMN28"><path d="M1309.39,441.13 L1309.39,466.2628 L1430.6068,466.2628 L1430.6068,451.13 L1420.6068,441.13 L1309.39,441.13" fill="#FEFFDD" style="stroke:#181818;stroke-width:0.5;"/><path d="M1420.6068,441.13 L1420.6068,451.13 L1430.6068,451.13 L1420.6068,441.13" fill="#FEFFDD" style="stroke:#181818;stroke-width:1;"/><text fill="#000000" font-family="sans-serif" font-size="13" lengthAdjust="spacing" textLength="100.2168" x="1315.39" y="458.1969">Transform data</text></g><!--link Imperative to GMN19--><g class="link" data-entity-1="Imperative" data-entity-2="GMN19" data-source-line="28" data-uid="lnk21" id="link_Imperative_GMN19"><path d="M579.3339,127.2189 C579.3475,126.9615 579.3616,126.7038 579.3761,126.4459 C579.4052,125.9301 579.436,125.4135 579.4688,124.8963 C581.5625,91.79 591.225,55.765 620.5,38.95 C666.75,12.39 1052.46,15.79 1100.5,38.95 C1163.76,69.45 1204.62,149.86 1218.61,181.27" fill="none" id="Imperative-GMN19" style="stroke:#181818;stroke-width:1;stroke-dasharray:7.0,7.0;"/></g><!--link Object-Oriented to GMN22--><g class="link" data-entity-1="Object-Oriented" data-entity-2="GMN22" data-source-line="29" data-uid="lnk24" id="link_Object-Oriented_GMN22"><path d="M41.3339,127.2189 C41.3475,126.9615 41.3616,126.7038 41.3761,126.4459 C41.4052,125.9301 41.436,125.4135 41.4688,124.8963 C43.5625,91.79 53.225,55.765 82.5,38.95 C139.88,6 1215.51,7.08 1273.5,38.95 C1330.54,70.3 1359.22,150.21 1368.52,181.38" fill="none" id="Object-Oriented-GMN22" style="stroke:#181818;stroke-width:1;stroke-dasharray:7.0,7.0;"/></g><!--link Logic to GMN25--><g class="link" data-entity-1="Logic" data-entity-2="GMN25" data-source-line="30" data-uid="lnk27" id="link_Logic_GMN25"><path d="M708.9554,387.3485 C709.0155,387.2241 709.076,387.0999 709.1368,386.9759 C709.2584,386.7279 709.3815,386.4806 709.5061,386.2343 C709.7551,385.7415 710.01,385.2521 710.2708,384.7664 C710.7924,383.7948 711.3377,382.8378 711.9078,381.8975 C714.188,378.1361 716.8638,374.6413 720,371.55 C725.68,365.94 729.57,368.44 737.5,367.55 C777.58,363.02 1060.42,363.02 1100.5,367.55 C1150.12,373.14 1194.44,418.34 1213.75,440.94" fill="none" id="Logic-GMN25" style="stroke:#181818;stroke-width:1;stroke-dasharray:7.0,7.0;"/></g><!--link Functional to GMN28--><g class="link" data-entity-1="Functional" data-entity-2="GMN28" data-source-line="31" data-uid="lnk30" id="link_Functional_GMN28"><path d="M165.9554,387.3485 C166.0155,387.2241 166.076,387.0999 166.1368,386.9759 C166.2584,386.7279 166.3815,386.4806 166.5061,386.2343 C166.7551,385.7415 167.01,385.2521 167.2708,384.7664 C167.7924,383.7948 168.3377,382.8378 168.9078,381.8975 C171.188,378.1361 173.8637,374.6413 177,371.55 C182.68,365.94 186.57,368.44 194.5,367.55 C224.31,364.18 1244.69,364.18 1274.5,367.55 C1282.43,368.44 1285.07,367.6 1292,371.55 C1322.76,389.07 1348.82,422.57 1361.59,440.91" fill="none" id="Functional-GMN28" style="stroke:#181818;stroke-width:1;stroke-dasharray:7.0,7.0;"/></g><!--SRC=[RPBFJiCm3CRlUmfhzxv0pp21nDWG20w8WzjuhI69gyHjcH3lJah_Y8trahQVy_tiBscm_C2AOBqFKWLqZdq5Umnek79n3L-h5K2WKj5NDfNTkeO2AdSqQ92UrqUb9YkEMKmhi8yQsb9PV7mRzMSCZ8Mb26MTN0Yaem3AZgQ2wy_6SiaAfNWDOk5WfH-qxpFuhdXF7zakC7abitGm_e_GizRG14ajAjFCFr4TQIrcbhOKup1zWp6cmIynxwJYSY5jS712Ro2qTY5SaHb6xYXjn2X-iahAGqlXc1KOoLmotxJ-Dogq2s6BMfDB2PUOWfZq6NGlOuR38NLph9CsUwKKNIEHX_UHcQXUD3N7LQqWXzDJpE56Ub018y1wNlalyXosOiX2wX9w2TQSxvW2o-6bHWMEaEu3dHVz7Jo7fu0-7YGuCAZu0m00]--></g></svg>