<svg xmlns="http://www.w3.org/2000/svg" xmlns:xlink="http://www.w3.org/1999/xlink" contentStyleType="text/css" data-diagram-type="SEQUENCE" height="415px" preserveAspectRatio="none" style="width:784px;height:415px;background:#FFFFFF;" version="1.1" viewBox="0 0 784 415" width="784px" zoomAndPan="magnify"><defs/><g><g><title>User</title><rect fill="#000000" fill-opacity="0.00000" height="253.0625" width="8" x="19.9551" y="81.2969"/><line style="stroke:#181818;stroke-width:0.5;stroke-dasharray:5.0,5.0;" x1="23" x2="23" y1="81.2969" y2="334.3594"/></g><g><title>Client</title><rect fill="#000000" fill-opacity="0.00000" height="253.0625" width="8" x="165.5698" y="81.2969"/><line style="stroke:#181818;stroke-width:0.5;stroke-dasharray:5.0,5.0;" x1="168.5884" x2="168.5884" y1="81.2969" y2="334.3594"/></g><g><title>Middleware</title><rect fill="#000000" fill-opacity="0.00000" height="253.0625" width="8" x="280.3989" y="81.2969"/><line style="stroke:#181818;stroke-width:0.5;stroke-dasharray:5.0,5.0;" x1="283.5513" x2="283.5513" y1="81.2969" y2="334.3594"/></g><g><title>Web Server</title><rect fill="#000000" fill-opacity="0.00000" height="253.0625" width="8" x="450.1094" y="81.2969"/><line style="stroke:#181818;stroke-width:0.5;stroke-dasharray:5.0,5.0;" x1="454.0635" x2="454.0635" y1="81.2969" y2="334.3594"/></g><g><title>Database</title><rect fill="#000000" fill-opacity="0.00000" height="253.0625" width="8" x="581.1943" y="81.2969"/><line style="stroke:#181818;stroke-width:0.5;stroke-dasharray:5.0,5.0;" x1="584.7939" x2="584.7939" y1="81.2969" y2="334.3594"/></g><g><title>Third-party API</title><rect fill="#000000" fill-opacity="0.00000" height="253.0625" width="8" x="703.1123" y="81.2969"/><line style="stroke:#181818;stroke-width:0.5;stroke-dasharray:5.0,5.0;" x1="706.5947" x2="706.5947" y1="81.2969" y2="334.3594"/></g><g class="participant participant-head" data-participant="User"><text fill="#000000" font-family="sans-serif" font-size="14" lengthAdjust="spacing" textLength="31.9102" x="5" y="77.9951">User</text><ellipse cx="23.9551" cy="13.5" fill="#E3E3E3" rx="8" ry="8" style="stroke:#181818;stroke-width:0.5;"/><path d="M23.9551,21.5 L23.9551,48.5 M10.9551,29.5 L36.9551,29.5 M23.9551,48.5 L10.9551,63.5 M23.9551,48.5 L36.9551,63.5" fill="none" style="stroke:#181818;stroke-width:0.5;"/></g><g class="participant participant-tail" data-participant="User"><text fill="#000000" font-family="sans-serif" font-size="14" lengthAdjust="spacing" textLength="31.9102" x="5" y="346.3545">User</text><ellipse cx="23.9551" cy="358.1563" fill="#E3E3E3" rx="8" ry="8" style="stroke:#181818;stroke-width:0.5;"/><path d="M23.9551,366.1563 L23.9551,393.1563 M10.9551,374.1563 L36.9551,374.1563 M23.9551,393.1563 L10.9551,408.1563 M23.9551,393.1563 L36.9551,408.1563" fill="none" style="stroke:#181818;stroke-width:0.5;"/></g><g class="participant participant-head" data-participant="Client"><rect fill="#E3E3E3" height="46.5938" rx="2.5" ry="2.5" style="stroke:#181818;stroke-width:0.5;" width="81.9629" x="128.5884" y="33.7031"/><text fill="#000000" font-family="sans-serif" font-size="14" lengthAdjust="spacing" textLength="40.5303" x="149.3047" y="53.6982">Client</text><text fill="#000000" font-family="sans-serif" font-size="14" lengthAdjust="spacing" textLength="67.9629" x="135.5884" y="69.9951">(Browser)</text></g><g class="participant participant-tail" data-participant="Client"><rect fill="#E3E3E3" height="46.5938" rx="2.5" ry="2.5" style="stroke:#181818;stroke-width:0.5;" width="81.9629" x="128.5884" y="333.3594"/><text fill="#000000" font-family="sans-serif" font-size="14" lengthAdjust="spacing" textLength="40.5303" x="149.3047" y="353.3545">Client</text><text fill="#000000" font-family="sans-serif" font-size="14" lengthAdjust="spacing" textLength="67.9629" x="135.5884" y="369.6514">(Browser)</text></g><g class="participant participant-head" data-participant="Auth"><rect fill="#E3E3E3" height="46.5938" rx="2.5" ry="2.5" style="stroke:#181818;stroke-width:0.5;" width="127.6953" x="220.5513" y="33.7031"/><text fill="#000000" font-family="sans-serif" font-size="14" lengthAdjust="spacing" textLength="80.6436" x="244.0771" y="53.6982">Middleware</text><text fill="#000000" font-family="sans-serif" font-size="14" lengthAdjust="spacing" textLength="113.6953" x="227.5513" y="69.9951">(Authentication)</text></g><g class="participant participant-tail" data-participant="Auth"><rect fill="#E3E3E3" height="46.5938" rx="2.5" ry="2.5" style="stroke:#181818;stroke-width:0.5;" width="127.6953" x="220.5513" y="333.3594"/><text fill="#000000" font-family="sans-serif" font-size="14" lengthAdjust="spacing" textLength="80.6436" x="244.0771" y="353.3545">Middleware</text><text fill="#000000" font-family="sans-serif" font-size="14" lengthAdjust="spacing" textLength="113.6953" x="227.5513" y="369.6514">(Authentication)</text></g><g class="participant participant-head" data-participant="Server"><rect fill="#E3E3E3" height="46.5938" rx="2.5" ry="2.5" style="stroke:#181818;stroke-width:0.5;" width="114.0918" x="397.0635" y="33.7031"/><text fill="#000000" font-family="sans-serif" font-size="14" lengthAdjust="spacing" textLength="81.7031" x="413.2578" y="53.6982">Web Server</text><text fill="#000000" font-family="sans-serif" font-size="14" lengthAdjust="spacing" textLength="100.0918" x="404.0635" y="69.9951">(Python/Flask)</text></g><g class="participant participant-tail" data-participant="Server"><rect fill="#E3E3E3" height="46.5938" rx="2.5" ry="2.5" style="stroke:#181818;stroke-width:0.5;" width="114.0918" x="397.0635" y="333.3594"/><text fill="#000000" font-family="sans-serif" font-size="14" lengthAdjust="spacing" textLength="81.7031" x="413.2578" y="353.3545">Web Server</text><text fill="#000000" font-family="sans-serif" font-size="14" lengthAdjust="spacing" textLength="100.0918" x="404.0635" y="369.6514">(Python/Flask)</text></g><g class="participant participant-head" data-participant="DB"><rect fill="#E3E3E3" height="30.2969" rx="2.5" ry="2.5" style="stroke:#181818;stroke-width:0.5;" width="80.8008" x="544.7939" y="50"/><text fill="#000000" font-family="sans-serif" font-size="14" lengthAdjust="spacing" textLength="66.8008" x="551.7939" y="69.9951">Database</text></g><g class="participant participant-tail" data-participant="DB"><rect fill="#E3E3E3" height="30.2969" rx="2.5" ry="2.5" style="stroke:#181818;stroke-width:0.5;" width="80.8008" x="544.7939" y="333.3594"/><text fill="#000000" font-family="sans-serif" font-size="14" lengthAdjust="spacing" textLength="66.8008" x="551.7939" y="353.3545">Database</text></g><g class="participant participant-head" data-participant="API"><rect fill="#E3E3E3" height="46.5938" rx="2.5" ry="2.5" style="stroke:#181818;stroke-width:0.5;" width="143.0352" x="635.5947" y="33.7031"/><text fill="#000000" font-family="sans-serif" font-size="14" lengthAdjust="spacing" textLength="104.6035" x="654.8105" y="53.6982">Third-party API</text><text fill="#000000" font-family="sans-serif" font-size="14" lengthAdjust="spacing" textLength="129.0352" x="642.5947" y="69.9951">(Payment Service)</text></g><g class="participant participant-tail" data-participant="API"><rect fill="#E3E3E3" height="46.5938" rx="2.5" ry="2.5" style="stroke:#181818;stroke-width:0.5;" width="143.0352" x="635.5947" y="333.3594"/><text fill="#000000" font-family="sans-serif" font-size="14" lengthAdjust="spacing" textLength="104.6035" x="654.8105" y="353.3545">Third-party API</text><text fill="#000000" font-family="sans-serif" font-size="14" lengthAdjust="spacing" textLength="129.0352" x="642.5947" y="369.6514">(Payment Service)</text></g><g class="message" data-participant-1="User" data-participant-2="Client"><polygon fill="#181818" points="157.5698,108.4297,167.5698,112.4297,157.5698,116.4297,161.5698,112.4297" style="stroke:#181818;stroke-width:1;"/><line style="stroke:#181818;stroke-width:1;" x1="23.9551" x2="163.5698" y1="112.4297" y2="112.4297"/><text fill="#000000" font-family="sans-serif" font-size="13" lengthAdjust="spacing" textLength="98.8013" x="30.9551" y="107.3638">Make purchase</text></g><g class="message" data-participant-1="Client" data-participant-2="Auth"><polygon fill="#181818" points="272.3989,137.5625,282.3989,141.5625,272.3989,145.5625,276.3989,141.5625" style="stroke:#181818;stroke-width:1;"/><line style="stroke:#181818;stroke-width:1;" x1="169.5698" x2="278.3989" y1="141.5625" y2="141.5625"/><text fill="#000000" font-family="sans-serif" font-size="13" lengthAdjust="spacing" textLength="86.5757" x="176.5698" y="136.4966">Send request</text></g><g class="message" data-participant-1="Auth" data-participant-2="Server"><polygon fill="#181818" points="442.1094,166.6953,452.1094,170.6953,442.1094,174.6953,446.1094,170.6953" style="stroke:#181818;stroke-width:1;"/><line style="stroke:#181818;stroke-width:1;" x1="284.3989" x2="448.1094" y1="170.6953" y2="170.6953"/><text fill="#000000" font-family="sans-serif" font-size="13" lengthAdjust="spacing" textLength="145.7104" x="291.3989" y="165.6294">Authenticated request</text></g><g class="message" data-participant-1="Server" data-participant-2="DB"><polygon fill="#181818" points="573.1943,195.8281,583.1943,199.8281,573.1943,203.8281,577.1943,199.8281" style="stroke:#181818;stroke-width:1;"/><line style="stroke:#181818;stroke-width:1;" x1="454.1094" x2="579.1943" y1="199.8281" y2="199.8281"/><text fill="#000000" font-family="sans-serif" font-size="13" lengthAdjust="spacing" textLength="107.085" x="461.1094" y="194.7622">Store order data</text></g><g class="message" data-participant-1="Server" data-participant-2="API"><polygon fill="#181818" points="695.1123,224.9609,705.1123,228.9609,695.1123,232.9609,699.1123,228.9609" style="stroke:#181818;stroke-width:1;"/><line style="stroke:#181818;stroke-width:1;" x1="454.1094" x2="701.1123" y1="228.9609" y2="228.9609"/><text fill="#000000" font-family="sans-serif" font-size="13" lengthAdjust="spacing" textLength="111.8711" x="461.1094" y="223.895">Process payment</text></g><g class="message" data-participant-1="API" data-participant-2="Server"><polygon fill="#181818" points="465.1094,254.0938,455.1094,258.0938,465.1094,262.0938,461.1094,258.0938" style="stroke:#181818;stroke-width:1;"/><line style="stroke:#181818;stroke-width:1;" x1="459.1094" x2="706.1123" y1="258.0938" y2="258.0938"/><text fill="#000000" font-family="sans-serif" font-size="13" lengthAdjust="spacing" textLength="144.0347" x="471.1094" y="253.0278">Payment confirmation</text></g><g class="message" data-participant-1="Server" data-participant-2="Client"><polygon fill="#181818" points="180.5698,283.2266,170.5698,287.2266,180.5698,291.2266,176.5698,287.2266" style="stroke:#181818;stroke-width:1;"/><line style="stroke:#181818;stroke-width:1;" x1="174.5698" x2="453.1094" y1="287.2266" y2="287.2266"/><text fill="#000000" font-family="sans-serif" font-size="13" lengthAdjust="spacing" textLength="115.7939" x="186.5698" y="282.1606">Success response</text></g><g class="message" data-participant-1="Client" data-participant-2="User"><polygon fill="#181818" points="34.9551,312.3594,24.9551,316.3594,34.9551,320.3594,30.9551,316.3594" style="stroke:#181818;stroke-width:1;"/><line style="stroke:#181818;stroke-width:1;" x1="28.9551" x2="168.5698" y1="316.3594" y2="316.3594"/><text fill="#000000" font-family="sans-serif" font-size="13" lengthAdjust="spacing" textLength="121.6147" x="40.9551" y="311.2935">Show confirmation</text></g><!--SRC=[LP0nJyCm48Lt_ufJ9nWgzWv8BHLIXqgH2c9XkTfNR3NnXRD3r7_FEGabMT_xxlazfsk8BGesq71awuKRWYmTcNHtaaV7VOXVSC4waJ5eCmky9nAZH0usj1Wph5xgG35_neUTSA_kumemmQWkoMDmhgOUXPJUTjah4Ipcm74yAjhov8FES2Bv8T6JwfOznwVN6jDrF1YjvSaUCvunqG3iTqlppGTnwoBTO5iTIYZU6kqnH0LBKv7gO4oP2kldQGfiu8XNWhOJwpNUJB82fRRQ9ueEXBuxIjaCcdfZGtLdU-aVcsm5zxiIeLzCmE9KSxfZvcib1IfXIob1ExOsHPs_yhV6Shm4QOQ_dONSfvmwE-G8fPRZOiqmMmdF_IBc5m00]--></g></svg>