<svg xmlns="http://www.w3.org/2000/svg" xmlns:xlink="http://www.w3.org/1999/xlink" contentStyleType="text/css" data-diagram-type="DESCRIPTION" height="233px" preserveAspectRatio="none" style="width:608px;height:233px;background:#FFFFFF;" version="1.1" viewBox="0 0 608 233" width="608px" zoomAndPan="magnify"><defs/><g><!--cluster Web Browser (Client)--><g class="cluster" data-entity="Web Browser (Client)" data-source-line="4" data-uid="ent0002" id="cluster_Web Browser (Client)"><rect fill="none" height="220.59" rx="2.5" ry="2.5" style="stroke:#181818;stroke-width:1;" width="245" x="7" y="7"/><text fill="#000000" font-family="sans-serif" font-size="14" font-weight="bold" lengthAdjust="spacing" textLength="168.3896" x="45.3052" y="21.9951">Web Browser (Client)</text></g><!--entity html--><g class="entity" data-entity="html" data-source-line="5" data-uid="ent0003" id="entity_html"><rect fill="#F1F1F1" height="46.2969" rx="2.5" ry="2.5" style="stroke:#181818;stroke-width:0.5;" width="78.958" x="129.52" y="42"/><rect fill="#F1F1F1" height="10" style="stroke:#181818;stroke-width:0.5;" width="15" x="188.478" y="47"/><rect fill="#F1F1F1" height="2" style="stroke:#181818;stroke-width:0.5;" width="4" x="186.478" y="49"/><rect fill="#F1F1F1" height="2" style="stroke:#181818;stroke-width:0.5;" width="4" x="186.478" y="53"/><text fill="#000000" font-family="sans-serif" font-size="14" lengthAdjust="spacing" textLength="38.958" x="144.52" y="74.9951">HTML</text></g><!--entity css--><g class="entity" data-entity="css" data-source-line="6" data-uid="ent0004" id="entity_css"><rect fill="#F1F1F1" height="46.2969" rx="2.5" ry="2.5" style="stroke:#181818;stroke-width:0.5;" width="67.5488" x="23.23" y="165.29"/><rect fill="#F1F1F1" height="10" style="stroke:#181818;stroke-width:0.5;" width="15" x="70.7788" y="170.29"/><rect fill="#F1F1F1" height="2" style="stroke:#181818;stroke-width:0.5;" width="4" x="68.7788" y="172.29"/><rect fill="#F1F1F1" height="2" style="stroke:#181818;stroke-width:0.5;" width="4" x="68.7788" y="176.29"/><text fill="#000000" font-family="sans-serif" font-size="14" lengthAdjust="spacing" textLength="27.5488" x="38.23" y="198.2851">CSS</text></g><!--entity js--><g class="entity" data-entity="js" data-source-line="7" data-uid="ent0005" id="entity_js"><rect fill="#F1F1F1" height="46.2969" rx="2.5" ry="2.5" style="stroke:#181818;stroke-width:0.5;" width="110.1777" x="125.91" y="165.29"/><rect fill="#F1F1F1" height="10" style="stroke:#181818;stroke-width:0.5;" width="15" x="216.0877" y="170.29"/><rect fill="#F1F1F1" height="2" style="stroke:#181818;stroke-width:0.5;" width="4" x="214.0877" y="172.29"/><rect fill="#F1F1F1" height="2" style="stroke:#181818;stroke-width:0.5;" width="4" x="214.0877" y="176.29"/><text fill="#000000" font-family="sans-serif" font-size="14" lengthAdjust="spacing" textLength="70.1777" x="140.91" y="198.2851">JavaScript</text></g><g class="entity" data-entity="GMN8" data-source-line="13" data-uid="ent0009" id="entity_GMN8"><path d="M267.87,52.58 L267.87,61.14 L208.95,65.14 L267.87,69.14 L267.87,77.7128 A0,0 0 0 0 267.87,77.7128 L432.1239,77.7128 A0,0 0 0 0 432.1239,77.7128 L432.1239,62.58 L422.1239,52.58 L267.87,52.58 A0,0 0 0 0 267.87,52.58" fill="#FAFAFA" style="stroke:#181818;stroke-width:0.5;"/><path d="M422.1239,52.58 L422.1239,62.58 L432.1239,62.58 L422.1239,52.58" fill="#FAFAFA" style="stroke:#181818;stroke-width:0.5;"/><text fill="#000000" font-family="sans-serif" font-size="13" lengthAdjust="spacing" textLength="143.2539" x="273.87" y="69.6469">Structure and content</text></g><g class="entity" data-entity="GMN11" data-source-line="14" data-uid="ent0012" id="entity_GMN11"><path d="M270.6,175.88 L270.6,201.0128 L417.3979,201.0128 L417.3979,185.88 L407.3979,175.88 L270.6,175.88" fill="#FAFAFA" style="stroke:#181818;stroke-width:0.5;"/><path d="M407.3979,175.88 L407.3979,185.88 L417.3979,185.88 L407.3979,175.88" fill="#FAFAFA" style="stroke:#181818;stroke-width:1;"/><text fill="#000000" font-family="sans-serif" font-size="13" lengthAdjust="spacing" textLength="125.7979" x="276.6" y="192.9469">Visual presentation</text></g><g class="entity" data-entity="GMN14" data-source-line="15" data-uid="ent0015" id="entity_GMN14"><path d="M452.42,175.88 L452.42,201.0128 L601.5728,201.0128 L601.5728,185.88 L591.5728,175.88 L452.42,175.88" fill="#FAFAFA" style="stroke:#181818;stroke-width:0.5;"/><path d="M591.5728,175.88 L591.5728,185.88 L601.5728,185.88 L591.5728,175.88" fill="#FAFAFA" style="stroke:#181818;stroke-width:1;"/><text fill="#000000" font-family="sans-serif" font-size="13" lengthAdjust="spacing" textLength="128.1528" x="458.42" y="192.9469">Interactive features</text></g><!--link html to css--><g class="link" data-entity-1="html" data-entity-2="css" data-source-line="9" data-uid="lnk6" id="link_html_css"><path d="M148.2,88.68 C128.08,110.46 101.841,138.8824 81.761,160.6224" fill="none" id="html-to-css" style="stroke:#181818;stroke-width:1;"/><polygon fill="#181818" points="77.69,165.03,86.7349,161.1327,81.0825,161.357,80.8582,155.7046,77.69,165.03" style="stroke:#181818;stroke-width:1;"/><text fill="#000000" font-family="sans-serif" font-size="13" lengthAdjust="spacing" textLength="37.9463" x="120" y="131.3569">styles</text></g><!--link html to js--><g class="link" data-entity-1="html" data-entity-2="js" data-source-line="10" data-uid="lnk7" id="link_html_js"><path d="M171.23,88.68 C173.38,110.46 176.0395,137.3191 178.1895,159.0591" fill="none" id="html-to-js" style="stroke:#181818;stroke-width:1;"/><polygon fill="#181818" points="178.78,165.03,181.8748,155.68,178.2879,160.0543,173.9137,156.4674,178.78,165.03" style="stroke:#181818;stroke-width:1;"/><text fill="#000000" font-family="sans-serif" font-size="13" lengthAdjust="spacing" textLength="65.2983" x="176" y="131.3569">behaviour</text></g><!--link css to GMN11--><g class="link" data-entity-1="css" data-entity-2="GMN11" data-source-line="14" data-uid="lnk13" id="link_css_GMN11"><path d="M75.21,165.02 C87.65,151 105.48,134.47 125.5,126.79 C170.73,109.44 187.64,114.51 234.5,126.79 C270.38,136.2 306.89,160.3 327.38,175.43" fill="none" id="css-GMN11" style="stroke:#181818;stroke-width:1;stroke-dasharray:7.0,7.0;"/></g><!--link js to GMN14--><g class="link" data-entity-1="js" data-entity-2="GMN14" data-source-line="15" data-uid="lnk16" id="link_js_GMN14"><path d="M206.16,164.9 C222.97,150.84 246.36,134.3 270.5,126.79 C332.88,107.39 354.3,110.23 417.5,126.79 C453.38,136.2 489.89,160.3 510.38,175.43" fill="none" id="js-GMN14" style="stroke:#181818;stroke-width:1;stroke-dasharray:7.0,7.0;"/></g><!--SRC=[NO-nJiD038RtUmeh4mnzWGuCT044KogOtQkJktAn8zj9XH3lpYML4Ete__liNxRFp2Cg3Z08Iqmg0u7hHC7-Y2KyoZbp3nqMen2KeYFtXQ3ve0CygfoD5Evs9HFxVGFV0I3AC0hN6Pgd_Tjh0sYGV2ZNQDUsAubcr-05PsoZvj5NVh9G-R8Fcyt3eiCMpByAsV_yjCG7IZXdcJJyXC3Y19hxv23THTn2Mp-CFYa1yh6sijVE6_LIyPvjmWAZabK5FGlVU6lbSxsW63tF11tXSjf-0G00]--></g></svg>