<svg xmlns="http://www.w3.org/2000/svg" xmlns:xlink="http://www.w3.org/1999/xlink" contentStyleType="text/css" data-diagram-type="CLASS" height="300px" preserveAspectRatio="none" style="width:919px;height:300px;background:#FFFFFF;" version="1.1" viewBox="0 0 919 300" width="919px" zoomAndPan="magnify"><defs/><g><!--class QA Framework--><g class="entity" data-entity="QA Framework" data-source-line="6" data-uid="ent0002" id="entity_QA Framework"><rect fill="#F1F1F1" height="113.1875" rx="2.5" ry="2.5" style="stroke:#181818;stroke-width:0.5;" width="214.4463" x="329.96" y="7"/><ellipse cx="381.1509" cy="23" fill="#C2C2C2" rx="11" ry="11" style="stroke:#181818;stroke-width:1;"/><path d="M384.1197,28.6406 Q383.5415,28.9375 382.9009,29.0781 Q382.2603,29.2344 381.5572,29.2344 Q379.0572,29.2344 377.729,27.5938 Q376.4165,25.9375 376.4165,22.8125 Q376.4165,19.6875 377.729,18.0313 Q379.0572,16.375 381.5572,16.375 Q382.2603,16.375 382.9009,16.5313 Q383.5572,16.6875 384.1197,16.9844 L384.1197,19.7031 Q383.4947,19.125 382.9009,18.8594 Q382.3072,18.5781 381.6822,18.5781 Q380.3384,18.5781 379.6509,19.6563 Q378.9634,20.7188 378.9634,22.8125 Q378.9634,24.9063 379.6509,25.9844 Q380.3384,27.0469 381.6822,27.0469 Q382.3072,27.0469 382.9009,26.7813 Q383.4947,26.5 384.1197,25.9219 L384.1197,28.6406 Z " fill="#000000"/><text fill="#000000" font-family="sans-serif" font-size="14" lengthAdjust="spacing" textLength="103.5645" x="401.6509" y="27.8467">QA Framework</text><line style="stroke:#181818;stroke-width:0.5;" x1="330.96" x2="543.4063" y1="39" y2="39"/><line style="stroke:#181818;stroke-width:0.5;" x1="330.96" x2="543.4063" y1="47" y2="47"/><ellipse cx="340.96" cy="60.6484" fill="#A6A6A6" rx="3" ry="3" style="stroke:#545454;stroke-width:1;"/><text fill="#000000" font-family="sans-serif" font-size="14" lengthAdjust="spacing" textLength="166.291" x="349.96" y="63.9951">define_quality_criteria()</text><ellipse cx="340.96" cy="76.9453" fill="#A6A6A6" rx="3" ry="3" style="stroke:#545454;stroke-width:1;"/><text fill="#000000" font-family="sans-serif" font-size="14" lengthAdjust="spacing" textLength="188.4463" x="349.96" y="80.292">establish_review_process()</text><ellipse cx="340.96" cy="93.2422" fill="#A6A6A6" rx="3" ry="3" style="stroke:#545454;stroke-width:1;"/><text fill="#000000" font-family="sans-serif" font-size="14" lengthAdjust="spacing" textLength="133.8818" x="349.96" y="96.5889">track_compliance()</text><ellipse cx="340.96" cy="109.5391" fill="#A6A6A6" rx="3" ry="3" style="stroke:#545454;stroke-width:1;"/><text fill="#000000" font-family="sans-serif" font-size="14" lengthAdjust="spacing" textLength="131.708" x="349.96" y="112.8857">generate_reports()</text></g><!--class Quality Criteria--><g class="entity" data-entity="Quality Criteria" data-source-line="13" data-uid="ent0003" id="entity_Quality Criteria"><rect fill="#F1F1F1" height="113.1875" rx="2.5" ry="2.5" style="stroke:#181818;stroke-width:0.5;" width="186.3711" x="7" y="180.19"/><ellipse cx="43.6664" cy="196.19" fill="#C2C2C2" rx="11" ry="11" style="stroke:#181818;stroke-width:1;"/><path d="M46.6351,201.8306 Q46.057,202.1275 45.4164,202.2681 Q44.7757,202.4244 44.0726,202.4244 Q41.5726,202.4244 40.2445,200.7838 Q38.932,199.1275 38.932,196.0025 Q38.932,192.8775 40.2445,191.2213 Q41.5726,189.565 44.0726,189.565 Q44.7757,189.565 45.4164,189.7213 Q46.0726,189.8775 46.6351,190.1744 L46.6351,192.8931 Q46.0101,192.315 45.4164,192.0494 Q44.8226,191.7681 44.1976,191.7681 Q42.8539,191.7681 42.1664,192.8463 Q41.4789,193.9088 41.4789,196.0025 Q41.4789,198.0963 42.1664,199.1744 Q42.8539,200.2369 44.1976,200.2369 Q44.8226,200.2369 45.4164,199.9713 Q46.0101,199.69 46.6351,199.1119 L46.6351,201.8306 Z " fill="#000000"/><text fill="#000000" font-family="sans-serif" font-size="14" lengthAdjust="spacing" textLength="106.2236" x="62.4811" y="201.0367">Quality Criteria</text><line style="stroke:#181818;stroke-width:0.5;" x1="8" x2="192.3711" y1="212.19" y2="212.19"/><rect fill="none" height="6" style="stroke:#595959;stroke-width:1;" width="6" x="15" y="222.8384"/><text fill="#000000" font-family="sans-serif" font-size="14" lengthAdjust="spacing" textLength="158.2861" x="27" y="229.1851">correctness_standards</text><rect fill="none" height="6" style="stroke:#595959;stroke-width:1;" width="6" x="15" y="239.1353"/><text fill="#000000" font-family="sans-serif" font-size="14" lengthAdjust="spacing" textLength="160.3711" x="27" y="245.482">usability_requirements</text><rect fill="none" height="6" style="stroke:#595959;stroke-width:1;" width="6" x="15" y="255.4322"/><text fill="#000000" font-family="sans-serif" font-size="14" lengthAdjust="spacing" textLength="147.0137" x="27" y="261.7789">performance_targets</text><rect fill="none" height="6" style="stroke:#595959;stroke-width:1;" width="6" x="15" y="271.7291"/><text fill="#000000" font-family="sans-serif" font-size="14" lengthAdjust="spacing" textLength="115.623" x="27" y="278.0757">security_policies</text><line style="stroke:#181818;stroke-width:0.5;" x1="8" x2="192.3711" y1="285.3775" y2="285.3775"/></g><!--class Review Process--><g class="entity" data-entity="Review Process" data-source-line="20" data-uid="ent0004" id="entity_Review Process"><rect fill="#F1F1F1" height="113.1875" rx="2.5" ry="2.5" style="stroke:#181818;stroke-width:0.5;" width="192.9336" x="228.72" y="180.19"/><ellipse cx="267.229" cy="196.19" fill="#C2C2C2" rx="11" ry="11" style="stroke:#181818;stroke-width:1;"/><path d="M270.1977,201.8306 Q269.6196,202.1275 268.979,202.2681 Q268.3384,202.4244 267.6352,202.4244 Q265.1352,202.4244 263.8071,200.7838 Q262.4946,199.1275 262.4946,196.0025 Q262.4946,192.8775 263.8071,191.2213 Q265.1352,189.565 267.6352,189.565 Q268.3384,189.565 268.979,189.7213 Q269.6352,189.8775 270.1977,190.1744 L270.1977,192.8931 Q269.5727,192.315 268.979,192.0494 Q268.3852,191.7681 267.7602,191.7681 Q266.4165,191.7681 265.729,192.8463 Q265.0415,193.9088 265.0415,196.0025 Q265.0415,198.0963 265.729,199.1744 Q266.4165,200.2369 267.7602,200.2369 Q268.3852,200.2369 268.979,199.9713 Q269.5727,199.69 270.1977,199.1119 L270.1977,201.8306 Z " fill="#000000"/><text fill="#000000" font-family="sans-serif" font-size="14" lengthAdjust="spacing" textLength="108.6914" x="286.4532" y="201.0367">Review Process</text><line style="stroke:#181818;stroke-width:0.5;" x1="229.72" x2="420.6536" y1="212.19" y2="212.19"/><rect fill="none" height="6" style="stroke:#595959;stroke-width:1;" width="6" x="236.72" y="222.8384"/><text fill="#000000" font-family="sans-serif" font-size="14" lengthAdjust="spacing" textLength="94.6641" x="248.72" y="229.1851">code_reviews</text><rect fill="none" height="6" style="stroke:#595959;stroke-width:1;" width="6" x="236.72" y="239.1353"/><text fill="#000000" font-family="sans-serif" font-size="14" lengthAdjust="spacing" textLength="107.3447" x="248.72" y="245.482">design_reviews</text><rect fill="none" height="6" style="stroke:#595959;stroke-width:1;" width="6" x="236.72" y="255.4322"/><text fill="#000000" font-family="sans-serif" font-size="14" lengthAdjust="spacing" textLength="166.9336" x="248.72" y="261.7789">documentation_reviews</text><rect fill="none" height="6" style="stroke:#595959;stroke-width:1;" width="6" x="236.72" y="271.7291"/><text fill="#000000" font-family="sans-serif" font-size="14" lengthAdjust="spacing" textLength="143.5684" x="248.72" y="278.0757">stakeholder_reviews</text><line style="stroke:#181818;stroke-width:0.5;" x1="229.72" x2="420.6536" y1="285.3775" y2="285.3775"/></g><!--class Compliance Tracking--><g class="entity" data-entity="Compliance Tracking" data-source-line="27" data-uid="ent0005" id="entity_Compliance Tracking"><rect fill="#F1F1F1" height="113.1875" rx="2.5" ry="2.5" style="stroke:#181818;stroke-width:0.5;" width="188.0322" x="456.17" y="180.19"/><ellipse cx="475.1453" cy="196.19" fill="#C2C2C2" rx="11" ry="11" style="stroke:#181818;stroke-width:1;"/><path d="M478.114,201.8306 Q477.5359,202.1275 476.8953,202.2681 Q476.2547,202.4244 475.5515,202.4244 Q473.0515,202.4244 471.7234,200.7838 Q470.4109,199.1275 470.4109,196.0025 Q470.4109,192.8775 471.7234,191.2213 Q473.0515,189.565 475.5515,189.565 Q476.2547,189.565 476.8953,189.7213 Q477.5515,189.8775 478.114,190.1744 L478.114,192.8931 Q477.489,192.315 476.8953,192.0494 Q476.3015,191.7681 475.6765,191.7681 Q474.3328,191.7681 473.6453,192.8463 Q472.9578,193.9088 472.9578,196.0025 Q472.9578,198.0963 473.6453,199.1744 Q474.3328,200.2369 475.6765,200.2369 Q476.3015,200.2369 476.8953,199.9713 Q477.489,199.69 478.114,199.1119 L478.114,201.8306 Z " fill="#000000"/><text fill="#000000" font-family="sans-serif" font-size="14" lengthAdjust="spacing" textLength="147.1982" x="490.0287" y="201.0367">Compliance Tracking</text><line style="stroke:#181818;stroke-width:0.5;" x1="457.17" x2="643.2022" y1="212.19" y2="212.19"/><rect fill="none" height="6" style="stroke:#595959;stroke-width:1;" width="6" x="464.17" y="222.8384"/><text fill="#000000" font-family="sans-serif" font-size="14" lengthAdjust="spacing" textLength="152.6738" x="476.17" y="229.1851">privacy_requirements</text><rect fill="none" height="6" style="stroke:#595959;stroke-width:1;" width="6" x="464.17" y="239.1353"/><text fill="#000000" font-family="sans-serif" font-size="14" lengthAdjust="spacing" textLength="162.0322" x="476.17" y="245.482">accessibility_standards</text><rect fill="none" height="6" style="stroke:#595959;stroke-width:1;" width="6" x="464.17" y="255.4322"/><text fill="#000000" font-family="sans-serif" font-size="14" lengthAdjust="spacing" textLength="143.0557" x="476.17" y="261.7789">industry_regulations</text><rect fill="none" height="6" style="stroke:#595959;stroke-width:1;" width="6" x="464.17" y="271.7291"/><text fill="#000000" font-family="sans-serif" font-size="14" lengthAdjust="spacing" textLength="77.6152" x="476.17" y="278.0757">audit_trails</text><line style="stroke:#181818;stroke-width:0.5;" x1="457.17" x2="643.2022" y1="285.3775" y2="285.3775"/></g><!--class Testing Integration--><g class="entity" data-entity="Testing Integration" data-source-line="34" data-uid="ent0006" id="entity_Testing Integration"><rect fill="#F1F1F1" height="113.1875" rx="2.5" ry="2.5" style="stroke:#181818;stroke-width:0.5;" width="233.2178" x="679.58" y="180.19"/><ellipse cx="725.3432" cy="196.19" fill="#C2C2C2" rx="11" ry="11" style="stroke:#181818;stroke-width:1;"/><path d="M728.3119,201.8306 Q727.7338,202.1275 727.0932,202.2681 Q726.4526,202.4244 725.7494,202.4244 Q723.2494,202.4244 721.9213,200.7838 Q720.6088,199.1275 720.6088,196.0025 Q720.6088,192.8775 721.9213,191.2213 Q723.2494,189.565 725.7494,189.565 Q726.4526,189.565 727.0932,189.7213 Q727.7494,189.8775 728.3119,190.1744 L728.3119,192.8931 Q727.6869,192.315 727.0932,192.0494 Q726.4994,191.7681 725.8744,191.7681 Q724.5307,191.7681 723.8432,192.8463 Q723.1557,193.9088 723.1557,196.0025 Q723.1557,198.0963 723.8432,199.1744 Q724.5307,200.2369 725.8744,200.2369 Q726.4994,200.2369 727.0932,199.9713 Q727.6869,199.69 728.3119,199.1119 L728.3119,201.8306 Z " fill="#000000"/><text fill="#000000" font-family="sans-serif" font-size="14" lengthAdjust="spacing" textLength="133.1914" x="745.8432" y="201.0367">Testing Integration</text><line style="stroke:#181818;stroke-width:0.5;" x1="680.58" x2="911.7978" y1="212.19" y2="212.19"/><rect fill="none" height="6" style="stroke:#595959;stroke-width:1;" width="6" x="687.58" y="222.8384"/><text fill="#000000" font-family="sans-serif" font-size="14" lengthAdjust="spacing" textLength="138.7422" x="699.58" y="229.1851">unit_test_alignment</text><rect fill="none" height="6" style="stroke:#595959;stroke-width:1;" width="6" x="687.58" y="239.1353"/><text fill="#000000" font-family="sans-serif" font-size="14" lengthAdjust="spacing" textLength="205.4199" x="699.58" y="245.482">integration_test_coordination</text><rect fill="none" height="6" style="stroke:#595959;stroke-width:1;" width="6" x="687.58" y="255.4322"/><text fill="#000000" font-family="sans-serif" font-size="14" lengthAdjust="spacing" textLength="190.5381" x="699.58" y="261.7789">acceptance_test_validation</text><rect fill="none" height="6" style="stroke:#595959;stroke-width:1;" width="6" x="687.58" y="271.7291"/><text fill="#000000" font-family="sans-serif" font-size="14" lengthAdjust="spacing" textLength="207.2178" x="699.58" y="278.0757">performance_test_monitoring</text><line style="stroke:#181818;stroke-width:0.5;" x1="680.58" x2="911.7978" y1="285.3775" y2="285.3775"/></g><!--link QA Framework to Quality Criteria--><g class="link" data-entity-1="QA Framework" data-entity-2="Quality Criteria" data-source-line="41" data-uid="lnk7" id="link_QA Framework_Quality Criteria"><path codeLine="41" d="M329.63,119.23 C285.9,141.45 241.1992,164.1523 199.0192,185.5823" fill="none" id="QA Framework-to-Quality Criteria" style="stroke:#181818;stroke-width:1;"/><polygon fill="#181818" points="193.67,188.3,203.5056,187.7896,198.1277,186.0352,199.882,180.6573,193.67,188.3" style="stroke:#181818;stroke-width:1;"/></g><!--link QA Framework to Review Process--><g class="link" data-entity-1="QA Framework" data-entity-2="Review Process" data-source-line="42" data-uid="lnk8" id="link_QA Framework_Review Process"><path codeLine="42" d="M400.51,120.65 C388.07,139.67 377.4648,155.879 365.0348,174.879" fill="none" id="QA Framework-to-Review Process" style="stroke:#181818;stroke-width:1;"/><polygon fill="#181818" points="361.75,179.9,370.0245,174.5584,364.4873,175.7159,363.3298,170.1787,361.75,179.9" style="stroke:#181818;stroke-width:1;"/></g><!--link QA Framework to Compliance Tracking--><g class="link" data-entity-1="QA Framework" data-entity-2="Compliance Tracking" data-source-line="43" data-uid="lnk9" id="link_QA Framework_Compliance Tracking"><path codeLine="43" d="M474.19,120.65 C486.74,139.67 497.4431,155.8936 509.9931,174.8936" fill="none" id="QA Framework-to-Compliance Tracking" style="stroke:#181818;stroke-width:1;"/><polygon fill="#181818" points="513.3,179.9,511.6773,170.1857,510.5443,175.728,505.002,174.5949,513.3,179.9" style="stroke:#181818;stroke-width:1;"/></g><!--link QA Framework to Testing Integration--><g class="link" data-entity-1="QA Framework" data-entity-2="Testing Integration" data-source-line="44" data-uid="lnk10" id="link_QA Framework_Testing Integration"><path codeLine="44" d="M544.9,115.96 C587.24,136.15 630.5442,156.7975 673.7442,177.3975" fill="none" id="QA Framework-to-Testing Integration" style="stroke:#181818;stroke-width:1;"/><polygon fill="#181818" points="679.16,179.98,672.758,172.4957,674.6469,177.8279,669.3147,179.7167,679.16,179.98" style="stroke:#181818;stroke-width:1;"/></g><!--SRC=[RPBTJiCm38Nl-nI1An3QAo1D4o0aX63QVMGIhxEMniL9DY74kvFq3rQrbpxdr9_jX2Fv5WGQrR1dSn1kK4L9M8L92GUmV2PVgpsuW5LrPN5F7jNsORDRlpwzF2ZZ88Ig-YjSlw_LOmxZcULuhRuhbR-xFgS_4pYANze8HHI2czjUnX3Xmr4uQC4JuLctmWP36FKeO8xQSDCw0czmhDVeKI1YZhKiiVX_Bc7wXcepD1o1LeP5q4IVc-ZSt5iG6tef1VYW3bFmCv5WWpuEMekoPsaAWuuWDOv2G9EaP5fsP0Z336JRpQNU-hd-OLWSPXv-P35GxMSrDgb0G2IUIPdzY0Ts5cKIBZjlfgsfNLbZFkVKlXKwWLaQ54pXf64HimsHjob4ARawkOvgZ2LBKUTpaPjpxFAHorDwzX5hwK8JH_8bbGqwdwlsXMFiD9bxtJ2B9TzL_aZRs5-aE4xv5_QVVd6oOiZldI9BPYc4i_UwMjqll9f5r-oaYvwbvIyQbxPJ_G80]--></g></svg>