<svg xmlns="http://www.w3.org/2000/svg" xmlns:xlink="http://www.w3.org/1999/xlink" contentStyleType="text/css" data-diagram-type="DESCRIPTION" height="361px" preserveAspectRatio="none" style="width:1186px;height:361px;background:#FFFFFF;" version="1.1" viewBox="0 0 1186 361" width="1186px" zoomAndPan="magnify"><defs/><g><!--cluster Library vs Bespoke Decision--><g class="cluster" data-entity="Library vs Bespoke Decision" data-source-line="4" data-uid="ent0002" id="cluster_Library vs Bespoke Decision"><path d="M129.38,6 L352.4591,6 A3.75,3.75 0 0 1 354.9591,8.5 L361.9591,28.2969 L972.38,28.2969 A2.5,2.5 0 0 1 974.88,30.7969 L974.88,100.79 A2.5,2.5 0 0 1 972.38,103.29 L129.38,103.29 A2.5,2.5 0 0 1 126.88,100.79 L126.88,8.5 A2.5,2.5 0 0 1 129.38,6" fill="none" style="stroke:#000000;stroke-width:1.5;"/><line style="stroke:#000000;stroke-width:1.5;" x1="126.88" x2="361.9591" y1="28.2969" y2="28.2969"/><text fill="#000000" font-family="sans-serif" font-size="14" font-weight="bold" lengthAdjust="spacing" textLength="222.0791" x="130.88" y="20.9951">Library vs Bespoke Decision</text></g><!--cluster Decision Matrix--><g class="cluster" data-entity="Decision Matrix" data-source-line="11" data-uid="ent0007" id="cluster_Decision Matrix"><path d="M224.38,152.29 L347.9894,152.29 A3.75,3.75 0 0 1 350.4894,154.79 L357.4894,174.5869 L545.38,174.5869 A2.5,2.5 0 0 1 547.88,177.0869 L547.88,247.09 A2.5,2.5 0 0 1 545.38,249.59 L224.38,249.59 A2.5,2.5 0 0 1 221.88,247.09 L221.88,154.79 A2.5,2.5 0 0 1 224.38,152.29" fill="none" style="stroke:#000000;stroke-width:1.5;"/><line style="stroke:#000000;stroke-width:1.5;" x1="221.88" x2="357.4894" y1="174.5869" y2="174.5869"/><text fill="#000000" font-family="sans-serif" font-size="14" font-weight="bold" lengthAdjust="spacing" textLength="122.6094" x="225.88" y="167.2851">Decision Matrix</text></g><!--entity requirements--><g class="entity" data-entity="requirements" data-source-line="5" data-uid="ent0003" id="entity_requirements"><rect fill="#F1F1F1" height="46.2969" rx="2.5" ry="2.5" style="stroke:#181818;stroke-width:0.5;" width="191.1699" x="143.3" y="41"/><rect fill="#F1F1F1" height="10" style="stroke:#181818;stroke-width:0.5;" width="15" x="314.4699" y="46"/><rect fill="#F1F1F1" height="2" style="stroke:#181818;stroke-width:0.5;" width="4" x="312.4699" y="48"/><rect fill="#F1F1F1" height="2" style="stroke:#181818;stroke-width:0.5;" width="4" x="312.4699" y="52"/><text fill="#000000" font-family="sans-serif" font-size="14" lengthAdjust="spacing" textLength="151.1699" x="158.3" y="73.9951">Project Requirements</text></g><!--entity team--><g class="entity" data-entity="team" data-source-line="6" data-uid="ent0004" id="entity_team"><rect fill="#F1F1F1" height="46.2969" rx="2.5" ry="2.5" style="stroke:#181818;stroke-width:0.5;" width="149.5049" x="369.13" y="41"/><rect fill="#F1F1F1" height="10" style="stroke:#181818;stroke-width:0.5;" width="15" x="498.6349" y="46"/><rect fill="#F1F1F1" height="2" style="stroke:#181818;stroke-width:0.5;" width="4" x="496.6349" y="48"/><rect fill="#F1F1F1" height="2" style="stroke:#181818;stroke-width:0.5;" width="4" x="496.6349" y="52"/><text fill="#000000" font-family="sans-serif" font-size="14" lengthAdjust="spacing" textLength="109.5049" x="384.13" y="73.9951">Team Expertise</text></g><!--entity timeline--><g class="entity" data-entity="timeline" data-source-line="7" data-uid="ent0005" id="entity_timeline"><rect fill="#F1F1F1" height="46.2969" rx="2.5" ry="2.5" style="stroke:#181818;stroke-width:0.5;" width="184.2861" x="553.74" y="41"/><rect fill="#F1F1F1" height="10" style="stroke:#181818;stroke-width:0.5;" width="15" x="718.0261" y="46"/><rect fill="#F1F1F1" height="2" style="stroke:#181818;stroke-width:0.5;" width="4" x="716.0261" y="48"/><rect fill="#F1F1F1" height="2" style="stroke:#181818;stroke-width:0.5;" width="4" x="716.0261" y="52"/><text fill="#000000" font-family="sans-serif" font-size="14" lengthAdjust="spacing" textLength="144.2861" x="568.74" y="73.9951">Timeline Constraints</text></g><!--entity maintenance--><g class="entity" data-entity="maintenance" data-source-line="8" data-uid="ent0006" id="entity_maintenance"><rect fill="#F1F1F1" height="46.2969" rx="2.5" ry="2.5" style="stroke:#181818;stroke-width:0.5;" width="185.2158" x="773.27" y="41"/><rect fill="#F1F1F1" height="10" style="stroke:#181818;stroke-width:0.5;" width="15" x="938.4858" y="46"/><rect fill="#F1F1F1" height="2" style="stroke:#181818;stroke-width:0.5;" width="4" x="936.4858" y="48"/><rect fill="#F1F1F1" height="2" style="stroke:#181818;stroke-width:0.5;" width="4" x="936.4858" y="52"/><text fill="#000000" font-family="sans-serif" font-size="14" lengthAdjust="spacing" textLength="145.2158" x="788.27" y="73.9951">Maintenance Burden</text></g><!--entity use_lib--><g class="entity" data-entity="use_lib" data-source-line="12" data-uid="ent0008" id="entity_use_lib"><rect fill="#F1F1F1" height="46.2969" rx="2.5" ry="2.5" style="stroke:#181818;stroke-width:0.5;" width="119.5566" x="238.1" y="187.29"/><rect fill="#F1F1F1" height="10" style="stroke:#181818;stroke-width:0.5;" width="15" x="337.6566" y="192.29"/><rect fill="#F1F1F1" height="2" style="stroke:#181818;stroke-width:0.5;" width="4" x="335.6566" y="194.29"/><rect fill="#F1F1F1" height="2" style="stroke:#181818;stroke-width:0.5;" width="4" x="335.6566" y="198.29"/><text fill="#000000" font-family="sans-serif" font-size="14" lengthAdjust="spacing" textLength="79.5566" x="253.1" y="220.2851">Use Library</text></g><!--entity build_custom--><g class="entity" data-entity="build_custom" data-source-line="13" data-uid="ent0009" id="entity_build_custom"><rect fill="#F1F1F1" height="46.2969" rx="2.5" ry="2.5" style="stroke:#181818;stroke-width:0.5;" width="139.2783" x="392.24" y="187.29"/><rect fill="#F1F1F1" height="10" style="stroke:#181818;stroke-width:0.5;" width="15" x="511.5183" y="192.29"/><rect fill="#F1F1F1" height="2" style="stroke:#181818;stroke-width:0.5;" width="4" x="509.5183" y="194.29"/><rect fill="#F1F1F1" height="2" style="stroke:#181818;stroke-width:0.5;" width="4" x="509.5183" y="198.29"/><text fill="#000000" font-family="sans-serif" font-size="14" lengthAdjust="spacing" textLength="99.2783" x="407.24" y="220.2851">Build Bespoke</text></g><g class="entity" data-entity="GMN10" data-source-line="16" data-uid="ent0011" id="entity_GMN10"><path d="M6,182.74 L6,238.1384 L201.7637,238.1384 L201.7637,192.74 L191.7637,182.74 L6,182.74" fill="#FAFAFA" style="stroke:#181818;stroke-width:0.5;"/><path d="M191.7637,182.74 L191.7637,192.74 L201.7637,192.74 L191.7637,182.74" fill="#FAFAFA" style="stroke:#181818;stroke-width:1;"/><text fill="#000000" font-family="sans-serif" font-size="13" lengthAdjust="spacing" textLength="108.6973" x="12" y="199.8069">Complexity level</text><text fill="#000000" font-family="sans-serif" font-size="13" lengthAdjust="spacing" textLength="160.7988" x="12" y="214.9397">Custom features needed</text><text fill="#000000" font-family="sans-serif" font-size="13" lengthAdjust="spacing" textLength="174.7637" x="12" y="230.0725">Performance requirements</text></g><g class="entity" data-entity="GMN13" data-source-line="17" data-uid="ent0014" id="entity_GMN13"><path d="M566.91,182.74 L566.91,238.1384 L750.848,238.1384 L750.848,192.74 L740.848,182.74 L566.91,182.74" fill="#FAFAFA" style="stroke:#181818;stroke-width:0.5;"/><path d="M740.848,182.74 L740.848,192.74 L750.848,192.74 L740.848,182.74" fill="#FAFAFA" style="stroke:#181818;stroke-width:1;"/><text fill="#000000" font-family="sans-serif" font-size="13" lengthAdjust="spacing" textLength="149.3223" x="572.91" y="199.8069">Framework experience</text><text fill="#000000" font-family="sans-serif" font-size="13" lengthAdjust="spacing" textLength="162.938" x="572.91" y="214.9397">Learning curve tolerance</text><text fill="#000000" font-family="sans-serif" font-size="13" lengthAdjust="spacing" textLength="127.3086" x="572.91" y="230.0725">Available resources</text></g><g class="entity" data-entity="GMN16" data-source-line="18" data-uid="ent0017" id="entity_GMN16"><path d="M786.23,182.74 L786.23,238.1384 A0,0 0 0 0 786.23,238.1384 L981.543,238.1384 A0,0 0 0 0 981.543,238.1384 L981.543,192.74 L971.543,182.74 L843.26,182.74 L683.07,87.69 L835.26,182.74 L786.23,182.74 A0,0 0 0 0 786.23,182.74" fill="#FAFAFA" style="stroke:#181818;stroke-width:0.5;"/><path d="M971.543,182.74 L971.543,192.74 L981.543,192.74 L971.543,182.74" fill="#FAFAFA" style="stroke:#181818;stroke-width:0.5;"/><text fill="#000000" font-family="sans-serif" font-size="13" lengthAdjust="spacing" textLength="174.313" x="792.23" y="199.8069">Development speed needs</text><text fill="#000000" font-family="sans-serif" font-size="13" lengthAdjust="spacing" textLength="160.9829" x="792.23" y="214.9397">Time to market pressure</text><text fill="#000000" font-family="sans-serif" font-size="13" lengthAdjust="spacing" textLength="156.0508" x="792.23" y="230.0725">Prototype vs production</text></g><g class="entity" data-entity="GMN19" data-source-line="19" data-uid="ent0020" id="entity_GMN19"><path d="M1016.4,182.74 L1016.4,238.1384 L1179.3717,238.1384 L1179.3717,192.74 L1169.3717,182.74 L1016.4,182.74" fill="#FAFAFA" style="stroke:#181818;stroke-width:0.5;"/><path d="M1169.3717,182.74 L1169.3717,192.74 L1179.3717,192.74 L1169.3717,182.74" fill="#FAFAFA" style="stroke:#181818;stroke-width:1;"/><text fill="#000000" font-family="sans-serif" font-size="13" lengthAdjust="spacing" textLength="121.5259" x="1022.4" y="199.8069">Long-term support</text><text fill="#000000" font-family="sans-serif" font-size="13" lengthAdjust="spacing" textLength="141.9717" x="1022.4" y="214.9397">Update dependencies</text><text fill="#000000" font-family="sans-serif" font-size="13" lengthAdjust="spacing" textLength="95.6338" x="1022.4" y="230.0725">Technical debt</text></g><g class="entity" data-entity="GMN22" data-source-line="21" data-uid="ent0023" id="entity_GMN22"><path d="M193.85,299.14 L193.85,354.5384 A0,0 0 0 0 193.85,354.5384 L365.9115,354.5384 A0,0 0 0 0 365.9115,354.5384 L365.9115,309.14 L355.9115,299.14 L288.13,299.14 L294.33,234.04 L280.13,299.14 L193.85,299.14 A0,0 0 0 0 193.85,299.14" fill="#FAFAFA" style="stroke:#181818;stroke-width:0.5;"/><path d="M355.9115,299.14 L355.9115,309.14 L365.9115,309.14 L355.9115,299.14" fill="#FAFAFA" style="stroke:#181818;stroke-width:0.5;"/><text fill="#000000" font-family="sans-serif" font-size="13" lengthAdjust="spacing" textLength="151.0615" x="199.85" y="316.2069">Standard requirements</text><text fill="#000000" font-family="sans-serif" font-size="13" lengthAdjust="spacing" textLength="90.105" x="199.85" y="331.3397">Tight timeline</text><text fill="#000000" font-family="sans-serif" font-size="13" lengthAdjust="spacing" textLength="140.0928" x="199.85" y="346.4725">Team has experience</text></g><g class="entity" data-entity="GMN25" data-source-line="22" data-uid="ent0026" id="entity_GMN25"><path d="M400.61,299.14 L400.61,354.5384 A0,0 0 0 0 400.61,354.5384 L559.1574,354.5384 A0,0 0 0 0 559.1574,354.5384 L559.1574,309.14 L549.1574,299.14 L479.64,299.14 L465.44,234.04 L471.64,299.14 L400.61,299.14 A0,0 0 0 0 400.61,299.14" fill="#FAFAFA" style="stroke:#181818;stroke-width:0.5;"/><path d="M549.1574,299.14 L549.1574,309.14 L559.1574,309.14 L549.1574,299.14" fill="#FAFAFA" style="stroke:#181818;stroke-width:0.5;"/><text fill="#000000" font-family="sans-serif" font-size="13" lengthAdjust="spacing" textLength="137.5474" x="406.61" y="316.2069">Unique requirements</text><text fill="#000000" font-family="sans-serif" font-size="13" lengthAdjust="spacing" textLength="130.7427" x="406.61" y="331.3397">Performance critical</text><text fill="#000000" font-family="sans-serif" font-size="13" lengthAdjust="spacing" textLength="125.29" x="406.61" y="346.4725">Full control needed</text></g><!--link requirements to GMN10--><g class="link" data-entity-1="requirements" data-entity-2="GMN10" data-source-line="16" data-uid="lnk12" id="link_requirements_GMN10"><path d="M186.92,87.55 C171.95,95.87 156.53,106.47 144.88,119.29 C128.46,137.36 117.65,163.12 111.27,182.48" fill="none" id="requirements-GMN10" style="stroke:#181818;stroke-width:1;stroke-dasharray:7.0,7.0;"/></g><!--link team to GMN13--><g class="link" data-entity-1="team" data-entity-2="GMN13" data-source-line="17" data-uid="lnk15" id="link_team_GMN13"><path d="M480.6,87.68 C496.94,96.6 516.77,105.98 535.88,111.29 C558,117.44 621.55,104.24 638.88,119.29 C656.56,134.64 660.58,161.8 660.77,182.31" fill="none" id="team-GMN13" style="stroke:#181818;stroke-width:1;stroke-dasharray:7.0,7.0;"/></g><!--link maintenance to GMN19--><g class="link" data-entity-1="maintenance" data-entity-2="GMN19" data-source-line="19" data-uid="lnk21" id="link_maintenance_GMN19"><path d="M904.86,87.72 C931.52,103.31 967.57,124.69 998.88,144.29 C1018.41,156.52 1039.8,170.52 1057.69,182.4" fill="none" id="maintenance-GMN19" style="stroke:#181818;stroke-width:1;stroke-dasharray:7.0,7.0;"/></g><!--link requirements to use_lib--><g class="link" data-entity-1="requirements" data-entity-2="use_lib" data-source-line="24" data-uid="lnk28" id="link_requirements_use_lib"><path d="M186.29,87.76 C162.75,101.02 143.39,118.6 158.88,136.29 C167.74,146.41 206.55,138.92 218.88,144.29 C241.37,154.1 258.313,168.0318 273.083,182.7018" fill="none" id="requirements-to-use_lib" style="stroke:#181818;stroke-width:1;"/><polygon fill="#181818" points="277.34,186.93,273.7733,177.7497,273.7925,183.4065,268.1357,183.4257,277.34,186.93" style="stroke:#181818;stroke-width:1;"/><text fill="#000000" font-family="sans-serif" font-size="13" lengthAdjust="spacing" textLength="101.2832" x="159.88" y="132.3569">standard needs</text></g><!--link requirements to build_custom--><g class="link" data-entity-1="requirements" data-entity-2="build_custom" data-source-line="25" data-uid="lnk29" id="link_requirements_build_custom"><path d="M289.12,87.79 C308.47,95.95 330.95,104.75 351.88,111.29 C367.52,116.19 373.92,110.71 387.88,119.29 C414.97,135.94 433.5301,160.951 446.2601,181.771" fill="none" id="requirements-to-build_custom" style="stroke:#181818;stroke-width:1;"/><polygon fill="#181818" points="449.39,186.89,448.1078,177.125,446.7818,182.6242,441.2825,181.2982,449.39,186.89" style="stroke:#181818;stroke-width:1;"/><text fill="#000000" font-family="sans-serif" font-size="13" lengthAdjust="spacing" textLength="87.9722" x="408.88" y="132.3569">unique needs</text></g><!--link team to use_lib--><g class="link" data-entity-1="team" data-entity-2="use_lib" data-source-line="26" data-uid="lnk30" id="link_team_use_lib"><path d="M405.61,87.65 C389.49,96.24 370.25,105.37 351.88,111.29 C341.17,114.75 309.37,110.9 301.88,119.29 C285.72,137.42 286.4827,160.7566 290.5327,180.9966" fill="none" id="team-to-use_lib" style="stroke:#181818;stroke-width:1;"/><polygon fill="#181818" points="291.71,186.88,293.8664,177.2701,290.729,181.9772,286.0219,178.8398,291.71,186.88" style="stroke:#181818;stroke-width:1;"/><text fill="#000000" font-family="sans-serif" font-size="13" lengthAdjust="spacing" textLength="80.5327" x="302.88" y="132.3569">experienced</text></g><!--link timeline to use_lib--><g class="link" data-entity-1="timeline" data-entity-2="use_lib" data-source-line="27" data-uid="lnk31" id="link_timeline_use_lib"><path d="M611.27,87.64 C583.67,104.31 543.39,125.87 504.88,136.29 C476.94,143.86 401.74,133.51 374.88,144.29 C352.13,153.43 335.3755,167.7129 321.1055,182.7129" fill="none" id="timeline-to-use_lib" style="stroke:#181818;stroke-width:1;"/><polygon fill="#181818" points="316.97,187.06,326.0714,183.2964,320.4163,183.4374,320.2752,177.7823,316.97,187.06" style="stroke:#181818;stroke-width:1;"/><text fill="#000000" font-family="sans-serif" font-size="13" lengthAdjust="spacing" textLength="80.7485" x="549.88" y="132.3569">fast delivery</text></g><!--link maintenance to build_custom--><g class="link" data-entity-1="maintenance" data-entity-2="build_custom" data-source-line="28" data-uid="lnk32" id="link_maintenance_build_custom"><path d="M817.6,87.7 C798.65,95.94 776.53,104.82 755.88,111.29 C705.14,127.2 691.46,128.34 638.88,136.29 C599.61,142.23 587,130.17 549.88,144.29 C525.19,153.69 505.833,168.091 489.223,182.941" fill="none" id="maintenance-to-build_custom" style="stroke:#181818;stroke-width:1;"/><polygon fill="#181818" points="484.75,186.94,494.1255,183.9234,488.4775,183.6075,488.7935,177.9594,484.75,186.94" style="stroke:#181818;stroke-width:1;"/><text fill="#000000" font-family="sans-serif" font-size="13" lengthAdjust="spacing" textLength="69.5195" x="727.88" y="132.3569">full control</text></g><!--SRC=[RL9DRzim3BtxLn2vvm_qC63frbCA5Djo2r38CfDeaKcLej84m_xxA3T9xMH7qq-FxuDv7oWvSJtqJEntmZs2Ii4cN__adUluFT0MDYvcR9ha_Dvj4MRBq8gJ4nmoB30dtYDyGnzoO9h1dmR0Sv-Oa1HcByA_qIlymBSI17iRvXcu338QJ9_yGjl-_PXGD6GSm6gZ6r3eCGP2U6JAAYvSUFNyOmf_hW0aHnvXKQH36i3zvxZvEt9uiGFFJYKSxrojCi8vXO6dP7oDePs25YN4xfBG06lhvDMNhDpNVSIAqBBQ9_1c4WaycBC-HJm6FK740yOrFGulOODEYs06GkomMzCBoeQb7znDShrPK6CquYUh5zzPze0rvO3sRarBT4ArRb_aODV04SKDVxuUN8YkZPKySn6FzyoNEXxi54mhfoe0SZA5WyoyfbgPqLheiaU5P6JPR9XyOMKz9QmNbOIxujN2lzqnAilMB9csSqMnGoqfiUYQLgbpzgB3X6GD-u1rA_eT1U-YpLkzo_pSd17-L4UTaswIO5MztUdLN-Mp37TMvcTsjvpZceruHU6ju0tjk38lGQl2DJsL6Es4I8NZkTsccPp5VFvbf3bVD0yHtoDlb9GF9H_WuHYcT9-MkkRQw1IoSLajoHWEAATcNCb_zcr6Tlu1]--></g></svg>