<svg xmlns="http://www.w3.org/2000/svg" xmlns:xlink="http://www.w3.org/1999/xlink" contentStyleType="text/css" data-diagram-type="DESCRIPTION" height="607px" preserveAspectRatio="none" style="width:517px;height:607px;background:#FFFFFF;" version="1.1" viewBox="0 0 517 607" width="517px" zoomAndPan="magnify"><defs/><g><!--cluster Complex Web Application--><g class="cluster" data-entity="Complex Web Application" data-source-line="4" data-uid="ent0002" id="cluster_Complex Web Application"><path d="M8.5,6 L211.3311,6 A3.75,3.75 0 0 1 213.8311,8.5 L220.8311,28.2969 L306.5,28.2969 A2.5,2.5 0 0 1 309,30.7969 L309,493.44 A2.5,2.5 0 0 1 306.5,495.94 L8.5,495.94 A2.5,2.5 0 0 1 6,493.44 L6,8.5 A2.5,2.5 0 0 1 8.5,6" fill="none" style="stroke:#000000;stroke-width:1.5;"/><line style="stroke:#000000;stroke-width:1.5;" x1="6" x2="220.8311" y1="28.2969" y2="28.2969"/><text fill="#000000" font-family="sans-serif" font-size="14" font-weight="bold" lengthAdjust="spacing" textLength="201.8311" x="10" y="20.9951">Complex Web Application</text></g><!--entity routing--><g class="entity" data-entity="routing" data-source-line="5" data-uid="ent0003" id="entity_routing"><rect fill="#F1F1F1" height="46.2969" rx="2.5" ry="2.5" style="stroke:#181818;stroke-width:0.5;" width="150.9609" x="133.52" y="41"/><rect fill="#F1F1F1" height="10" style="stroke:#181818;stroke-width:0.5;" width="15" x="264.4809" y="46"/><rect fill="#F1F1F1" height="2" style="stroke:#181818;stroke-width:0.5;" width="4" x="262.4809" y="48"/><rect fill="#F1F1F1" height="2" style="stroke:#181818;stroke-width:0.5;" width="4" x="262.4809" y="52"/><text fill="#000000" font-family="sans-serif" font-size="14" lengthAdjust="spacing" textLength="110.9609" x="148.52" y="73.9951">Routing System</text></g><!--entity state--><g class="entity" data-entity="state" data-source-line="6" data-uid="ent0004" id="entity_state"><rect fill="#F1F1F1" height="46.2969" rx="2.5" ry="2.5" style="stroke:#181818;stroke-width:0.5;" width="173.7314" x="68.13" y="433.64"/><rect fill="#F1F1F1" height="10" style="stroke:#181818;stroke-width:0.5;" width="15" x="221.8614" y="438.64"/><rect fill="#F1F1F1" height="2" style="stroke:#181818;stroke-width:0.5;" width="4" x="219.8614" y="440.64"/><rect fill="#F1F1F1" height="2" style="stroke:#181818;stroke-width:0.5;" width="4" x="219.8614" y="444.64"/><text fill="#000000" font-family="sans-serif" font-size="14" lengthAdjust="spacing" textLength="133.7314" x="83.13" y="466.6351">State Management</text></g><!--entity components--><g class="entity" data-entity="components" data-source-line="7" data-uid="ent0005" id="entity_components"><rect fill="#F1F1F1" height="46.2969" rx="2.5" ry="2.5" style="stroke:#181818;stroke-width:0.5;" width="212.0537" x="77.97" y="168.85"/><rect fill="#F1F1F1" height="10" style="stroke:#181818;stroke-width:0.5;" width="15" x="270.0237" y="173.85"/><rect fill="#F1F1F1" height="2" style="stroke:#181818;stroke-width:0.5;" width="4" x="268.0237" y="175.85"/><rect fill="#F1F1F1" height="2" style="stroke:#181818;stroke-width:0.5;" width="4" x="268.0237" y="179.85"/><text fill="#000000" font-family="sans-serif" font-size="14" lengthAdjust="spacing" textLength="172.0537" x="92.97" y="201.8451">Component Architecture</text></g><!--entity data--><g class="entity" data-entity="data" data-source-line="8" data-uid="ent0006" id="entity_data"><rect fill="#F1F1F1" height="46.2969" rx="2.5" ry="2.5" style="stroke:#181818;stroke-width:0.5;" width="109.8359" x="183.08" y="301.25"/><rect fill="#F1F1F1" height="10" style="stroke:#181818;stroke-width:0.5;" width="15" x="272.9159" y="306.25"/><rect fill="#F1F1F1" height="2" style="stroke:#181818;stroke-width:0.5;" width="4" x="270.9159" y="308.25"/><rect fill="#F1F1F1" height="2" style="stroke:#181818;stroke-width:0.5;" width="4" x="270.9159" y="312.25"/><text fill="#000000" font-family="sans-serif" font-size="14" lengthAdjust="spacing" textLength="69.8359" x="198.08" y="334.2451">Data Flow</text></g><g class="entity" data-entity="GMN7" data-source-line="11" data-uid="ent0008" id="entity_GMN7"><path d="M324.75,164.3 L324.75,219.6984 A0,0 0 0 0 324.75,219.6984 L505.2476,219.6984 A0,0 0 0 0 505.2476,219.6984 L505.2476,174.3 L495.2476,164.3 L374.61,164.3 L245.83,87.65 L366.61,164.3 L324.75,164.3 A0,0 0 0 0 324.75,164.3" fill="#FAFAFA" style="stroke:#181818;stroke-width:0.5;"/><path d="M495.2476,164.3 L495.2476,174.3 L505.2476,174.3 L495.2476,164.3" fill="#FAFAFA" style="stroke:#181818;stroke-width:0.5;"/><text fill="#000000" font-family="sans-serif" font-size="13" lengthAdjust="spacing" textLength="159.4976" x="330.75" y="181.3669">Navigate between views</text><text fill="#000000" font-family="sans-serif" font-size="13" lengthAdjust="spacing" textLength="134.5132" x="330.75" y="196.4997">Handle URL changes</text><text fill="#000000" font-family="sans-serif" font-size="13" lengthAdjust="spacing" textLength="156.9141" x="330.75" y="211.6325">Manage browser history</text></g><g class="entity" data-entity="GMN10" data-source-line="12" data-uid="ent0011" id="entity_GMN10"><path d="M67.31,545.49 L67.31,600.8884 A0,0 0 0 0 67.31,600.8884 L242.685,600.8884 A0,0 0 0 0 242.685,600.8884 L242.685,555.49 L232.685,545.49 L159,545.49 L155,480.39 L151,545.49 L67.31,545.49 A0,0 0 0 0 67.31,545.49" fill="#FAFAFA" style="stroke:#181818;stroke-width:0.5;"/><path d="M232.685,545.49 L232.685,555.49 L242.685,555.49 L232.685,545.49" fill="#FAFAFA" style="stroke:#181818;stroke-width:0.5;"/><text fill="#000000" font-family="sans-serif" font-size="13" lengthAdjust="spacing" textLength="154.375" x="73.31" y="562.5569">Global application state</text><text fill="#000000" font-family="sans-serif" font-size="13" lengthAdjust="spacing" textLength="148.6621" x="73.31" y="577.6897">Local component state</text><text fill="#000000" font-family="sans-serif" font-size="13" lengthAdjust="spacing" textLength="141.4766" x="73.31" y="592.8225">State synchronization</text></g><g class="entity" data-entity="GMN13" data-source-line="13" data-uid="ent0014" id="entity_GMN13"><path d="M327.6,296.69 L327.6,352.0884 L510.4018,352.0884 L510.4018,306.69 L500.4018,296.69 L327.6,296.69" fill="#FAFAFA" style="stroke:#181818;stroke-width:0.5;"/><path d="M500.4018,296.69 L500.4018,306.69 L510.4018,306.69 L500.4018,296.69" fill="#FAFAFA" style="stroke:#181818;stroke-width:1;"/><text fill="#000000" font-family="sans-serif" font-size="13" lengthAdjust="spacing" textLength="161.8018" x="333.6" y="313.7569">Reusable UI components</text><text fill="#000000" font-family="sans-serif" font-size="13" lengthAdjust="spacing" textLength="133.0024" x="333.6" y="328.8897">Component lifecycle</text><text fill="#000000" font-family="sans-serif" font-size="13" lengthAdjust="spacing" textLength="112.6836" x="333.6" y="344.0225">Props and events</text></g><g class="entity" data-entity="GMN16" data-source-line="14" data-uid="ent0017" id="entity_GMN16"><path d="M324.88,429.09 L324.88,484.4884 A0,0 0 0 0 324.88,484.4884 L471.1129,484.4884 A0,0 0 0 0 471.1129,484.4884 L471.1129,439.09 L461.1129,429.09 L368.77,429.09 L265.5,347.81 L360.77,429.09 L324.88,429.09 A0,0 0 0 0 324.88,429.09" fill="#FAFAFA" style="stroke:#181818;stroke-width:0.5;"/><path d="M461.1129,429.09 L461.1129,439.09 L471.1129,439.09 L461.1129,429.09" fill="#FAFAFA" style="stroke:#181818;stroke-width:0.5;"/><text fill="#000000" font-family="sans-serif" font-size="13" lengthAdjust="spacing" textLength="125.2329" x="330.88" y="446.1569">API communication</text><text fill="#000000" font-family="sans-serif" font-size="13" lengthAdjust="spacing" textLength="83.6304" x="330.88" y="461.2897">Data binding</text><text fill="#000000" font-family="sans-serif" font-size="13" lengthAdjust="spacing" textLength="119.3804" x="330.88" y="476.4225">Real-time updates</text></g><!--link components to GMN13--><g class="link" data-entity-1="components" data-entity-2="GMN13" data-source-line="13" data-uid="lnk15" id="link_components_GMN13"><path d="M256.48,215.57 C280.95,224.58 307.91,236.08 331,249.69 C352.97,262.65 374.97,281.07 391.48,296.26" fill="none" id="components-GMN13" style="stroke:#181818;stroke-width:1;stroke-dasharray:7.0,7.0;"/></g><!--link routing to components--><g class="link" data-entity-1="routing" data-entity-2="components" data-source-line="16" data-uid="lnk19" id="link_routing_components"><path d="M204.53,87.65 C199.98,110.55 194.1403,139.9752 189.6003,162.8052" fill="none" id="routing-to-components" style="stroke:#181818;stroke-width:1;"/><polygon fill="#181818" points="188.43,168.69,194.1086,160.643,189.4052,163.786,186.2622,159.0827,188.43,168.69" style="stroke:#181818;stroke-width:1;"/><text fill="#000000" font-family="sans-serif" font-size="13" lengthAdjust="spacing" textLength="49.9497" x="198" y="130.3669">renders</text></g><!--link state to components--><g class="link" data-entity-1="state" data-entity-2="components" data-source-line="17" data-uid="lnk20" id="link_state_components"><path d="M129.9,433.28 C99.15,402.83 53.61,346.56 75,296.69 C89.77,262.25 117.3455,237.3245 143.0255,219.0045" fill="none" id="state-to-components" style="stroke:#181818;stroke-width:1;"/><polygon fill="#181818" points="147.91,215.52,138.2603,217.4905,143.8396,218.4238,142.9063,224.0031,147.91,215.52" style="stroke:#181818;stroke-width:1;"/><text fill="#000000" font-family="sans-serif" font-size="13" lengthAdjust="spacing" textLength="89.2925" x="76" y="328.9569">provides data</text></g><!--link components to data--><g class="link" data-entity-1="components" data-entity-2="data" data-source-line="18" data-uid="lnk21" id="link_components_data"><path d="M193.28,215.41 C203.17,239.3 216.4432,271.347 226.3632,295.287" fill="none" id="components-to-data" style="stroke:#181818;stroke-width:1;"/><polygon fill="#181818" points="228.66,300.83,228.9101,290.9843,226.746,296.2109,221.5194,294.0468,228.66,300.83" style="stroke:#181818;stroke-width:1;"/><text fill="#000000" font-family="sans-serif" font-size="13" lengthAdjust="spacing" textLength="107.3833" x="215" y="262.7569">triggers updates</text></g><!--link data to state--><g class="link" data-entity-1="data" data-entity-2="state" data-source-line="19" data-uid="lnk22" id="link_data_state"><path d="M223.73,347.81 C208.53,371.69 187.8221,404.2286 172.5821,428.1686" fill="none" id="data-to-state" style="stroke:#181818;stroke-width:1;"/><polygon fill="#181818" points="169.36,433.23,177.5674,427.7859,172.0451,429.0121,170.8188,423.4898,169.36,433.23" style="stroke:#181818;stroke-width:1;"/><text fill="#000000" font-family="sans-serif" font-size="13" lengthAdjust="spacing" textLength="89.6416" x="202" y="395.1569">updates state</text></g><!--SRC=[PLBBReCm4BpxArQvvmTwg1IbwaDggoXHrGkNnMp0Yjb5je7IglzUOyYpDpmpEpiUum-66tHOGoqikd9I4mJNal8dnbTOI6-uX3rQJqerg0zO4YpMKZUMlk2JSbWrZJKQWn5Um8y2q94K9Wwms4eRnldTu0FL2q0FReAkTRk0WU0DERhN4KbAFuBNklNfS-LqPGBfq3fAwfFANuyyO41ujD8dLH5FwbSfbhWlbn2a1jaVGy4Tl6DdoZ5CJg4dOkWCzJxZP-J24dniNq5No2L5RCeBkPFUauFA-21kkFLEruZEJrPoj83dkYOgurVHaJXddk6f53_m-3filjFChVlvsd75bbgF-HZpvOB8-5oRDNlIWxRHVkEayH2l1TIbscwSnwgYvsgJlEgMvzGPfqfpmqMiBECjeLq64t-Vjeapv9KwrhbStby7TCG5EQ-cJlxHZPFE53G_qmKrAkSymPcoZ1wdRGaV1SUYPs8w_m40]--></g></svg>