<svg xmlns="http://www.w3.org/2000/svg" xmlns:xlink="http://www.w3.org/1999/xlink" contentStyleType="text/css" data-diagram-type="SEQUENCE" height="523px" preserveAspectRatio="none" style="width:475px;height:523px;background:#FFFFFF;" version="1.1" viewBox="0 0 475 523" width="475px" zoomAndPan="magnify"><defs/><g><g><title>User</title><rect fill="#000000" fill-opacity="0.00000" height="361.5938" width="8" x="19.9551" y="81.2969"/><line style="stroke:#181818;stroke-width:0.5;stroke-dasharray:5.0,5.0;" x1="23" x2="23" y1="81.2969" y2="442.8906"/></g><g><title>Browser</title><rect fill="#000000" fill-opacity="0.00000" height="361.5938" width="8" x="111.9702" y="81.2969"/><line style="stroke:#181818;stroke-width:0.5;stroke-dasharray:5.0,5.0;" x1="115.4507" x2="115.4507" y1="81.2969" y2="442.8906"/></g><g><title>Dev Tools</title><rect fill="#000000" fill-opacity="0.00000" height="361.5938" width="8" x="265.9575" y="81.2969"/><line style="stroke:#181818;stroke-width:0.5;stroke-dasharray:5.0,5.0;" x1="269.4966" x2="269.4966" y1="81.2969" y2="442.8906"/></g><g><title>Web Server</title><rect fill="#000000" fill-opacity="0.00000" height="361.5938" width="8" x="375.27" y="81.2969"/><line style="stroke:#181818;stroke-width:0.5;stroke-dasharray:5.0,5.0;" x1="378.4185" x2="378.4185" y1="81.2969" y2="442.8906"/></g><g class="participant participant-head" data-participant="User"><text fill="#000000" font-family="sans-serif" font-size="14" lengthAdjust="spacing" textLength="31.9102" x="5" y="77.9951">User</text><ellipse cx="23.9551" cy="13.5" fill="#E3E3E3" rx="8" ry="8" style="stroke:#181818;stroke-width:0.5;"/><path d="M23.9551,21.5 L23.9551,48.5 M10.9551,29.5 L36.9551,29.5 M23.9551,48.5 L10.9551,63.5 M23.9551,48.5 L36.9551,63.5" fill="none" style="stroke:#181818;stroke-width:0.5;"/></g><g class="participant participant-tail" data-participant="User"><text fill="#000000" font-family="sans-serif" font-size="14" lengthAdjust="spacing" textLength="31.9102" x="5" y="454.8857">User</text><ellipse cx="23.9551" cy="466.6875" fill="#E3E3E3" rx="8" ry="8" style="stroke:#181818;stroke-width:0.5;"/><path d="M23.9551,474.6875 L23.9551,501.6875 M10.9551,482.6875 L36.9551,482.6875 M23.9551,501.6875 L10.9551,516.6875 M23.9551,501.6875 L36.9551,516.6875" fill="none" style="stroke:#181818;stroke-width:0.5;"/></g><g class="participant participant-head" data-participant="browser"><rect fill="#E3E3E3" height="30.2969" rx="2.5" ry="2.5" style="stroke:#181818;stroke-width:0.5;" width="71.0391" x="80.4507" y="50"/><text fill="#000000" font-family="sans-serif" font-size="14" lengthAdjust="spacing" textLength="57.0391" x="87.4507" y="69.9951">Browser</text></g><g class="participant participant-tail" data-participant="browser"><rect fill="#E3E3E3" height="30.2969" rx="2.5" ry="2.5" style="stroke:#181818;stroke-width:0.5;" width="71.0391" x="80.4507" y="441.8906"/><text fill="#000000" font-family="sans-serif" font-size="14" lengthAdjust="spacing" textLength="57.0391" x="87.4507" y="461.8857">Browser</text></g><g class="participant participant-head" data-participant="devtools"><rect fill="#E3E3E3" height="46.5938" rx="2.5" ry="2.5" style="stroke:#181818;stroke-width:0.5;" width="102.9219" x="218.4966" y="33.7031"/><text fill="#000000" font-family="sans-serif" font-size="14" lengthAdjust="spacing" textLength="68.9951" x="235.46" y="53.6982">Dev Tools</text><text fill="#000000" font-family="sans-serif" font-size="14" lengthAdjust="spacing" textLength="88.9219" x="225.4966" y="69.9951">Network Tab</text></g><g class="participant participant-tail" data-participant="devtools"><rect fill="#E3E3E3" height="46.5938" rx="2.5" ry="2.5" style="stroke:#181818;stroke-width:0.5;" width="102.9219" x="218.4966" y="441.8906"/><text fill="#000000" font-family="sans-serif" font-size="14" lengthAdjust="spacing" textLength="68.9951" x="235.46" y="461.8857">Dev Tools</text><text fill="#000000" font-family="sans-serif" font-size="14" lengthAdjust="spacing" textLength="88.9219" x="225.4966" y="478.1826">Network Tab</text></g><g class="participant participant-head" data-participant="server"><rect fill="#E3E3E3" height="30.2969" rx="2.5" ry="2.5" style="stroke:#181818;stroke-width:0.5;" width="95.7031" x="331.4185" y="50"/><text fill="#000000" font-family="sans-serif" font-size="14" lengthAdjust="spacing" textLength="81.7031" x="338.4185" y="69.9951">Web Server</text></g><g class="participant participant-tail" data-participant="server"><rect fill="#E3E3E3" height="30.2969" rx="2.5" ry="2.5" style="stroke:#181818;stroke-width:0.5;" width="95.7031" x="331.4185" y="441.8906"/><text fill="#000000" font-family="sans-serif" font-size="14" lengthAdjust="spacing" textLength="81.7031" x="338.4185" y="461.8857">Web Server</text></g><g class="message" data-participant-1="User" data-participant-2="browser"><polygon fill="#181818" points="103.9702,108.4297,113.9702,112.4297,103.9702,116.4297,107.9702,112.4297" style="stroke:#181818;stroke-width:1;"/><line style="stroke:#181818;stroke-width:1;" x1="23.9551" x2="109.9702" y1="112.4297" y2="112.4297"/><text fill="#000000" font-family="sans-serif" font-size="13" lengthAdjust="spacing" textLength="68.0151" x="30.9551" y="107.3638">Load page</text></g><g class="message" data-participant-1="browser" data-participant-2="server"><polygon fill="#181818" points="367.27,137.5625,377.27,141.5625,367.27,145.5625,371.27,141.5625" style="stroke:#181818;stroke-width:1;"/><line style="stroke:#181818;stroke-width:1;" x1="115.9702" x2="373.27" y1="141.5625" y2="141.5625"/><text fill="#000000" font-family="sans-serif" font-size="13" lengthAdjust="spacing" textLength="104.2793" x="122.9702" y="136.4966">GET /index.html</text></g><g class="message" data-participant-1="server" data-participant-2="browser"><polygon fill="#181818" points="126.9702,166.6953,116.9702,170.6953,126.9702,174.6953,122.9702,170.6953" style="stroke:#181818;stroke-width:1;"/><line style="stroke:#181818;stroke-width:1;" x1="120.9702" x2="378.27" y1="170.6953" y2="170.6953"/><text fill="#000000" font-family="sans-serif" font-size="13" lengthAdjust="spacing" textLength="99.6392" x="132.9702" y="165.6294">HTML response</text></g><g class="message" data-participant-1="browser" data-participant-2="devtools"><polygon fill="#181818" points="257.9575,195.8281,267.9575,199.8281,257.9575,203.8281,261.9575,199.8281" style="stroke:#181818;stroke-width:1;"/><line style="stroke:#181818;stroke-width:1;" x1="115.9702" x2="263.9575" y1="199.8281" y2="199.8281"/><text fill="#000000" font-family="sans-serif" font-size="13" lengthAdjust="spacing" textLength="124.7251" x="122.9702" y="194.7622">Log request details</text></g><g class="message" data-participant-1="browser" data-participant-2="server"><polygon fill="#181818" points="367.27,224.9609,377.27,228.9609,367.27,232.9609,371.27,228.9609" style="stroke:#181818;stroke-width:1;"/><line style="stroke:#181818;stroke-width:1;" x1="115.9702" x2="373.27" y1="228.9609" y2="228.9609"/><text fill="#000000" font-family="sans-serif" font-size="13" lengthAdjust="spacing" textLength="88.2324" x="122.9702" y="223.895">GET /api/data</text></g><g class="message" data-participant-1="server" data-participant-2="browser"><polygon fill="#181818" points="126.9702,254.0938,116.9702,258.0938,126.9702,262.0938,122.9702,258.0938" style="stroke:#181818;stroke-width:1;"/><line style="stroke:#181818;stroke-width:1;" x1="120.9702" x2="378.27" y1="258.0938" y2="258.0938"/><text fill="#000000" font-family="sans-serif" font-size="13" lengthAdjust="spacing" textLength="95.5068" x="132.9702" y="253.0278">JSON response</text></g><g class="message" data-participant-1="browser" data-participant-2="devtools"><polygon fill="#181818" points="257.9575,283.2266,267.9575,287.2266,257.9575,291.2266,261.9575,287.2266" style="stroke:#181818;stroke-width:1;"/><line style="stroke:#181818;stroke-width:1;" x1="115.9702" x2="263.9575" y1="287.2266" y2="287.2266"/><text fill="#000000" font-family="sans-serif" font-size="13" lengthAdjust="spacing" textLength="74.6167" x="122.9702" y="282.1606">Log API call</text></g><g class="message" data-participant-1="browser" data-participant-2="server"><polygon fill="#181818" points="367.27,312.3594,377.27,316.3594,367.27,320.3594,371.27,316.3594" style="stroke:#181818;stroke-width:1;"/><line style="stroke:#181818;stroke-width:1;" x1="115.9702" x2="373.27" y1="316.3594" y2="316.3594"/><text fill="#000000" font-family="sans-serif" font-size="13" lengthAdjust="spacing" textLength="90.7397" x="122.9702" y="311.2935">GET /style.css</text></g><g class="message" data-participant-1="server" data-participant-2="browser"><polygon fill="#181818" points="126.9702,341.4922,116.9702,345.4922,126.9702,349.4922,122.9702,345.4922" style="stroke:#181818;stroke-width:1;"/><line style="stroke:#181818;stroke-width:1;" x1="120.9702" x2="378.27" y1="345.4922" y2="345.4922"/><text fill="#000000" font-family="sans-serif" font-size="13" lengthAdjust="spacing" textLength="89.0449" x="132.9702" y="340.4263">CSS response</text></g><g class="message" data-participant-1="browser" data-participant-2="devtools"><polygon fill="#181818" points="257.9575,370.625,267.9575,374.625,257.9575,378.625,261.9575,374.625" style="stroke:#181818;stroke-width:1;"/><line style="stroke:#181818;stroke-width:1;" x1="115.9702" x2="263.9575" y1="374.625" y2="374.625"/><text fill="#000000" font-family="sans-serif" font-size="13" lengthAdjust="spacing" textLength="129.9873" x="122.9702" y="369.5591">Log resource timing</text></g><path d="M274,387.625 L274,427.625 L468,427.625 L468,397.625 L458,387.625 L274,387.625" fill="#FAFAFA" style="stroke:#181818;stroke-width:0.5;"/><path d="M458,387.625 L458,397.625 L468,397.625 L458,387.625" fill="#FAFAFA" style="stroke:#181818;stroke-width:0.5;"/><text fill="#000000" font-family="sans-serif" font-size="13" lengthAdjust="spacing" textLength="125.9121" x="280" y="404.6919">Shows all requests,</text><text fill="#000000" font-family="sans-serif" font-size="13" lengthAdjust="spacing" textLength="173.7734" x="280" y="419.8247">timing, and response sizes</text><!--SRC=[ZP7BJiD034NtynLMrwNTiq3Y9Hug1Ib1RBfn4ZSPDHc7iPC0NyyqRIeYjQWxo_Vw7izODjRLwB62YXsdXUUAG7r3HWwA59XnPrqEQoo5ZC5KsSExa3V1eJQrDJg5oOtdBZGdW0B9hXuRxgY5cBcKbLkITkmt46FI-pDgTQkC1pueWOXykm-LlZHcYuQBgm42bx1WpA36dCpG2_BE7jI7-nZcrcNqDIkqAirU62KynYyBy2GrEncb39lrb3nOFXiI3Mr56_Oz3SJQpZDKF8fxZbwNv-2ktvuWnRByXoFwNT8i5JaAkesYyvubtFWq7DzMuTJ6E5O2R_D2WTT_tL4HCY2iD7o5J5TkDpK5TDc11c9_I7u1]--></g></svg>