<svg xmlns="http://www.w3.org/2000/svg" xmlns:xlink="http://www.w3.org/1999/xlink" contentStyleType="text/css" data-diagram-type="DESCRIPTION" height="330px" preserveAspectRatio="none" style="width:846px;height:330px;background:#FFFFFF;" version="1.1" viewBox="0 0 846 330" width="846px" zoomAndPan="magnify"><defs/><g><!--cluster code--><g class="cluster" data-entity="code" data-source-line="4" data-uid="ent0002" id="cluster_code"><rect fill="none" height="236.6" rx="2.5" ry="2.5" style="stroke:#181818;stroke-width:1;" width="248" x="7" y="7"/><text fill="#000000" font-family="sans-serif" font-size="14" font-weight="bold" lengthAdjust="spacing" textLength="127.7295" x="67.1353" y="21.9951">Same Web Code</text></g><!--entity html--><g class="entity" data-entity="html" data-source-line="5" data-uid="ent0003" id="entity_html"><rect fill="#F1F1F1" height="46.2969" rx="2.5" ry="2.5" style="stroke:#181818;stroke-width:0.5;" width="78.958" x="30.52" y="50"/><rect fill="#F1F1F1" height="10" style="stroke:#181818;stroke-width:0.5;" width="15" x="89.478" y="55"/><rect fill="#F1F1F1" height="2" style="stroke:#181818;stroke-width:0.5;" width="4" x="87.478" y="57"/><rect fill="#F1F1F1" height="2" style="stroke:#181818;stroke-width:0.5;" width="4" x="87.478" y="61"/><text fill="#000000" font-family="sans-serif" font-size="14" lengthAdjust="spacing" textLength="38.958" x="45.52" y="82.9951">HTML</text></g><!--entity css--><g class="entity" data-entity="css" data-source-line="6" data-uid="ent0004" id="entity_css"><rect fill="#F1F1F1" height="46.2969" rx="2.5" ry="2.5" style="stroke:#181818;stroke-width:0.5;" width="67.5488" x="144.23" y="50"/><rect fill="#F1F1F1" height="10" style="stroke:#181818;stroke-width:0.5;" width="15" x="191.7788" y="55"/><rect fill="#F1F1F1" height="2" style="stroke:#181818;stroke-width:0.5;" width="4" x="189.7788" y="57"/><rect fill="#F1F1F1" height="2" style="stroke:#181818;stroke-width:0.5;" width="4" x="189.7788" y="61"/><text fill="#000000" font-family="sans-serif" font-size="14" lengthAdjust="spacing" textLength="27.5488" x="159.23" y="82.9951">CSS</text></g><!--entity js--><g class="entity" data-entity="js" data-source-line="7" data-uid="ent0005" id="entity_js"><rect fill="#F1F1F1" height="46.2969" rx="2.5" ry="2.5" style="stroke:#181818;stroke-width:0.5;" width="110.1777" x="30.91" y="173.3"/><rect fill="#F1F1F1" height="10" style="stroke:#181818;stroke-width:0.5;" width="15" x="121.0877" y="178.3"/><rect fill="#F1F1F1" height="2" style="stroke:#181818;stroke-width:0.5;" width="4" x="119.0877" y="180.3"/><rect fill="#F1F1F1" height="2" style="stroke:#181818;stroke-width:0.5;" width="4" x="119.0877" y="184.3"/><text fill="#000000" font-family="sans-serif" font-size="14" lengthAdjust="spacing" textLength="70.1777" x="45.91" y="206.2951">JavaScript</text></g><!--entity chrome--><g class="entity" data-entity="chrome" data-source-line="10" data-uid="ent0006" id="entity_chrome"><rect fill="#F1F1F1" height="36.2969" rx="2.5" ry="2.5" style="stroke:#181818;stroke-width:0.5;" width="124.959" x="278.52" y="178.3"/><text fill="#000000" font-family="sans-serif" font-size="14" lengthAdjust="spacing" textLength="104.959" x="288.52" y="201.2951">Chrome (Blink)</text></g><!--entity firefox--><g class="entity" data-entity="firefox" data-source-line="11" data-uid="ent0007" id="entity_firefox"><rect fill="#F1F1F1" height="36.2969" rx="2.5" ry="2.5" style="stroke:#181818;stroke-width:0.5;" width="127.2969" x="438.35" y="178.3"/><text fill="#000000" font-family="sans-serif" font-size="14" lengthAdjust="spacing" textLength="107.2969" x="448.35" y="201.2951">Firefox (Gecko)</text></g><!--entity safari--><g class="entity" data-entity="safari" data-source-line="12" data-uid="ent0008" id="entity_safari"><rect fill="#F1F1F1" height="36.2969" rx="2.5" ry="2.5" style="stroke:#181818;stroke-width:0.5;" width="125.8955" x="648.05" y="178.3"/><text fill="#000000" font-family="sans-serif" font-size="14" lengthAdjust="spacing" textLength="105.8955" x="658.05" y="201.2951">Safari (WebKit)</text></g><g class="entity" data-entity="GMN12" data-source-line="18" data-uid="ent0013" id="entity_GMN12"><path d="M242.56,298.6 L242.56,323.7328 A0,0 0 0 0 242.56,323.7328 L381.4423,323.7328 A0,0 0 0 0 381.4423,323.7328 L381.4423,308.6 L371.4423,298.6 L319.08,298.6 L336.47,215.06 L311.08,298.6 L242.56,298.6 A0,0 0 0 0 242.56,298.6" fill="#FAFAFA" style="stroke:#181818;stroke-width:0.5;"/><path d="M371.4423,298.6 L371.4423,308.6 L381.4423,308.6 L371.4423,298.6" fill="#FAFAFA" style="stroke:#181818;stroke-width:0.5;"/><text fill="#000000" font-family="sans-serif" font-size="13" lengthAdjust="spacing" textLength="117.8823" x="248.56" y="315.6669">May look different</text></g><g class="entity" data-entity="GMN15" data-source-line="19" data-uid="ent0016" id="entity_GMN15"><path d="M416.36,298.6 L416.36,323.7328 A0,0 0 0 0 416.36,323.7328 L587.6471,323.7328 A0,0 0 0 0 587.6471,323.7328 L587.6471,308.6 L577.6471,298.6 L506,298.6 L502,215.06 L498,298.6 L416.36,298.6 A0,0 0 0 0 416.36,298.6" fill="#FAFAFA" style="stroke:#181818;stroke-width:0.5;"/><path d="M577.6471,298.6 L577.6471,308.6 L587.6471,308.6 L577.6471,298.6" fill="#FAFAFA" style="stroke:#181818;stroke-width:0.5;"/><text fill="#000000" font-family="sans-serif" font-size="13" lengthAdjust="spacing" textLength="150.2871" x="422.36" y="315.6669">May behave differently</text></g><g class="entity" data-entity="GMN18" data-source-line="20" data-uid="ent0019" id="entity_GMN18"><path d="M622.55,298.6 L622.55,323.7328 A0,0 0 0 0 622.55,323.7328 L839.4577,323.7328 A0,0 0 0 0 839.4577,323.7328 L839.4577,308.6 L829.4577,298.6 L732.88,298.6 L714.12,215.06 L724.88,298.6 L622.55,298.6 A0,0 0 0 0 622.55,298.6" fill="#FAFAFA" style="stroke:#181818;stroke-width:0.5;"/><path d="M829.4577,298.6 L829.4577,308.6 L839.4577,308.6 L829.4577,298.6" fill="#FAFAFA" style="stroke:#181818;stroke-width:0.5;"/><text fill="#000000" font-family="sans-serif" font-size="13" lengthAdjust="spacing" textLength="195.9077" x="628.55" y="315.6669">May have compatibility issues</text></g><!--link code to chrome--><g class="link" data-entity-1="code" data-entity-2="chrome" data-source-line="14" data-uid="lnk9" id="link_code_chrome"><path d="M255.1874,84.7118 C255.2689,84.8169 255.3508,84.9227 255.4333,85.0291 C255.5983,85.242 255.7652,85.4574 255.9342,85.6754 C256.2721,86.1114 256.6179,86.5576 256.9712,87.0136 C262.6256,94.3097 270.2275,104.1194 278.5575,114.8688 C295.2175,136.3675 311.1145,156.8826 323.8445,173.3076" fill="none" id="code-to-chrome" style="stroke:#181818;stroke-width:1;"/><polygon fill="#181818" points="327.52,178.05,325.1683,168.486,324.457,174.098,318.8451,173.3868,327.52,178.05" style="stroke:#181818;stroke-width:1;"/><text fill="#000000" font-family="sans-serif" font-size="13" lengthAdjust="spacing" textLength="124.8647" x="301" y="139.3669">Different rendering</text></g><!--link code to firefox--><g class="link" data-entity-1="code" data-entity-2="firefox" data-source-line="15" data-uid="lnk10" id="link_code_firefox"><path d="M255.2024,74.9205 C255.4524,74.9467 255.7075,74.9736 255.9678,75.0012 C257.009,75.1119 258.1327,75.2347 259.3343,75.3706 C261.7376,75.6424 264.4529,75.9663 267.4452,76.3486 C279.4141,77.8778 295.8131,80.3419 314.3912,84.1463 C351.5475,91.755 397.42,104.725 434,126.3 C456.48,139.56 472.95,157.4024 485.38,173.1324" fill="none" id="code-to-firefox" style="stroke:#181818;stroke-width:1;"/><polygon fill="#181818" points="489.1,177.84,486.6584,168.2986,486,173.917,480.3816,173.2586,489.1,177.84" style="stroke:#181818;stroke-width:1;"/><text fill="#000000" font-family="sans-serif" font-size="13" lengthAdjust="spacing" textLength="124.8647" x="456" y="139.3669">Different rendering</text></g><!--link code to safari--><g class="link" data-entity-1="code" data-entity-2="safari" data-source-line="16" data-uid="lnk11" id="link_code_safari"><path d="M255.5019,74.3199 C256.19,74.3377 256.9173,74.3574 257.683,74.379 C263.8089,74.5519 272.3921,74.8504 282.9705,75.3614 C304.1272,76.3834 333.2644,78.2556 366.6838,81.6738 C433.5225,88.51 517.49,101.53 589,126.3 C625.12,138.81 657.8481,158.6314 681.6081,174.6814" fill="none" id="code-to-safari" style="stroke:#181818;stroke-width:1;"/><polygon fill="#181818" points="686.58,178.04,681.3612,169.6875,682.4367,175.2412,676.8831,176.3168,686.58,178.04" style="stroke:#181818;stroke-width:1;"/><text fill="#000000" font-family="sans-serif" font-size="13" lengthAdjust="spacing" textLength="124.8647" x="628" y="139.3669">Different rendering</text></g><!--SRC=[XP7FJiCm3CRlUGghftBO2t3WG14Wnav5ukospXgQn5MI3Ih4kvCcOwMJ49V8ylVpvp_nWx8ZEZHWs7BREpO4mHr8-BFYU-puNTazIDIUX73K1hHxJL3K6FbNQg3YZWf03sqCu5D03Cp8bco0ul5bzvp4FXYzbggwpcNUhuKdF6BTEZM6fBzvyRNgNELPorkjx72LFLBgDtIl74d-WFA1se4p9NDklOL4fw2CYsnLo9XFEI7IFflDpSaThk5EIKbk7Z8-7RbucOKwkV-7PVS_A64v43GS0XjWkNJUuGIQUO3kf-eINThFR4Cz7ccXzNJ9d-UOyGJFNu11DKghC87o_a3-6m00]--></g></svg>