<svg xmlns="http://www.w3.org/2000/svg" xmlns:xlink="http://www.w3.org/1999/xlink" contentStyleType="text/css" data-diagram-type="DESCRIPTION" height="640px" preserveAspectRatio="none" style="width:634px;height:640px;background:#FFFFFF;" version="1.1" viewBox="0 0 634 640" width="634px" zoomAndPan="magnify"><defs/><g><!--entity req--><g class="entity" data-entity="req" data-source-line="5" data-uid="ent0002" id="entity_req"><rect fill="#FFFFFF" height="36.2969" rx="2.5" ry="2.5" style="stroke:#000000;stroke-width:1;" width="180.3984" x="193.41" y="20.55"/><text fill="#000000" font-family="Verdana" font-size="14" lengthAdjust="spacing" textLength="160.3984" x="203.41" y="43.5451">Requirements Analysis</text></g><g class="entity" data-entity="GMN3" data-source-line="6" data-uid="ent0004" id="entity_GMN3"><path d="M408.97,11 L408.97,34.7 L374.1,38.7 L408.97,42.7 L408.97,66.3984 A0,0 0 0 0 408.97,66.3984 L568.2473,66.3984 A0,0 0 0 0 568.2473,66.3984 L568.2473,21 L558.2473,11 L408.97,11 A0,0 0 0 0 408.97,11" fill="#FFFFFF" style="stroke:#000000;stroke-width:1;"/><path d="M558.2473,11 L558.2473,21 L568.2473,21 L558.2473,11" fill="#FFFFFF" style="stroke:#000000;stroke-width:1;"/><text fill="#000000" font-family="Verdana" font-size="13" lengthAdjust="spacing" textLength="73.0234" x="414.97" y="28.0669">User needs</text><text fill="#000000" font-family="Verdana" font-size="13" lengthAdjust="spacing" textLength="96.0146" x="414.97" y="43.1997">Business goals</text><text fill="#000000" font-family="Verdana" font-size="13" lengthAdjust="spacing" textLength="138.2773" x="414.97" y="58.3325">Technical constraints</text></g><!--entity ia--><g class="entity" data-entity="ia" data-source-line="8" data-uid="ent0006" id="entity_ia"><rect fill="#FFFFFF" height="36.2969" rx="2.5" ry="2.5" style="stroke:#000000;stroke-width:1;" width="192.0605" x="15.58" y="136.95"/><text fill="#000000" font-family="Verdana" font-size="14" lengthAdjust="spacing" textLength="172.0605" x="25.58" y="159.9451">Information Architecture</text></g><g class="entity" data-entity="GMN7" data-source-line="9" data-uid="ent0008" id="entity_GMN7"><path d="M242.67,127.4 L242.67,151.1 L208,155.1 L242.67,159.1 L242.67,182.7984 A0,0 0 0 0 242.67,182.7984 L400.5636,182.7984 A0,0 0 0 0 400.5636,182.7984 L400.5636,137.4 L390.5636,127.4 L242.67,127.4 A0,0 0 0 0 242.67,127.4" fill="#FFFFFF" style="stroke:#000000;stroke-width:1;"/><path d="M390.5636,127.4 L390.5636,137.4 L400.5636,137.4 L390.5636,127.4" fill="#FFFFFF" style="stroke:#000000;stroke-width:1;"/><text fill="#000000" font-family="Verdana" font-size="13" lengthAdjust="spacing" textLength="136.8936" x="248.67" y="144.4669">Content organization</text><text fill="#000000" font-family="Verdana" font-size="13" lengthAdjust="spacing" textLength="133.5293" x="248.67" y="159.5997">Navigation structure</text><text fill="#000000" font-family="Verdana" font-size="13" lengthAdjust="spacing" textLength="121.9067" x="248.67" y="174.7325">User flow mapping</text></g><!--entity lowfi--><g class="entity" data-entity="lowfi" data-source-line="11" data-uid="ent0010" id="entity_lowfi"><rect fill="#FFFFFF" height="36.2969" rx="2.5" ry="2.5" style="stroke:#000000;stroke-width:1;" width="189.2236" x="12" y="253.35"/><text fill="#000000" font-family="Verdana" font-size="14" lengthAdjust="spacing" textLength="169.2236" x="22" y="276.3451">Low-Fidelity Wireframes</text></g><g class="entity" data-entity="GMN11" data-source-line="12" data-uid="ent0012" id="entity_GMN11"><path d="M236.65,243.8 L236.65,267.5 L201.44,271.5 L236.65,275.5 L236.65,299.1984 A0,0 0 0 0 236.65,299.1984 L384.5777,299.1984 A0,0 0 0 0 384.5777,299.1984 L384.5777,253.8 L374.5777,243.8 L236.65,243.8 A0,0 0 0 0 236.65,243.8" fill="#FFFFFF" style="stroke:#000000;stroke-width:1;"/><path d="M374.5777,243.8 L374.5777,253.8 L384.5777,253.8 L374.5777,243.8" fill="#FFFFFF" style="stroke:#000000;stroke-width:1;"/><text fill="#000000" font-family="Verdana" font-size="13" lengthAdjust="spacing" textLength="79.1108" x="242.65" y="260.8669">Basic layout</text><text fill="#000000" font-family="Verdana" font-size="13" lengthAdjust="spacing" textLength="126.9277" x="242.65" y="275.9997">Element placement</text><text fill="#000000" font-family="Verdana" font-size="13" lengthAdjust="spacing" textLength="117.4189" x="242.65" y="291.1325">Content hierarchy</text></g><!--entity proto--><g class="entity" data-entity="proto" data-source-line="14" data-uid="ent0014" id="entity_proto"><rect fill="#FFFFFF" height="36.2969" rx="2.5" ry="2.5" style="stroke:#000000;stroke-width:1;" width="175.251" x="25.99" y="369.75"/><text fill="#000000" font-family="Verdana" font-size="14" lengthAdjust="spacing" textLength="155.251" x="35.99" y="392.7451">Interactive Prototypes</text></g><g class="entity" data-entity="GMN15" data-source-line="15" data-uid="ent0016" id="entity_GMN15"><path d="M236.07,360.2 L236.07,383.9 L201.67,387.9 L236.07,391.9 L236.07,415.5984 A0,0 0 0 0 236.07,415.5984 L399.1623,415.5984 A0,0 0 0 0 399.1623,415.5984 L399.1623,370.2 L389.1623,360.2 L236.07,360.2 A0,0 0 0 0 236.07,360.2" fill="#FFFFFF" style="stroke:#000000;stroke-width:1;"/><path d="M389.1623,360.2 L389.1623,370.2 L399.1623,370.2 L389.1623,360.2" fill="#FFFFFF" style="stroke:#000000;stroke-width:1;"/><text fill="#000000" font-family="Verdana" font-size="13" lengthAdjust="spacing" textLength="78.8315" x="242.07" y="377.2669">User testing</text><text fill="#000000" font-family="Verdana" font-size="13" lengthAdjust="spacing" textLength="97.811" x="242.07" y="392.3997">Flow validation</text><text fill="#000000" font-family="Verdana" font-size="13" lengthAdjust="spacing" textLength="142.0923" x="242.07" y="407.5325">Stakeholder feedback</text></g><!--entity hifi--><g class="entity" data-entity="hifi" data-source-line="17" data-uid="ent0018" id="entity_hifi"><rect fill="#FFFFFF" height="36.2969" rx="2.5" ry="2.5" style="stroke:#000000;stroke-width:1;" width="168.3057" x="199.46" y="486.15"/><text fill="#000000" font-family="Verdana" font-size="14" lengthAdjust="spacing" textLength="148.3057" x="209.46" y="509.1451">High-Fidelity Designs</text></g><g class="entity" data-entity="GMN19" data-source-line="18" data-uid="ent0020" id="entity_GMN19"><path d="M402.84,476.6 L402.84,531.9984 L594.3761,531.9984 L594.3761,486.6 L584.3761,476.6 L402.84,476.6" fill="#FFFFFF" style="stroke:#000000;stroke-width:1;"/><path d="M584.3761,476.6 L584.3761,486.6 L594.3761,486.6 L584.3761,476.6" fill="#FFFFFF" style="stroke:#000000;stroke-width:1;"/><text fill="#000000" font-family="Verdana" font-size="13" lengthAdjust="spacing" textLength="86.3535" x="408.84" y="493.6669">Visual design</text><text fill="#000000" font-family="Verdana" font-size="13" lengthAdjust="spacing" textLength="114.2642" x="408.84" y="508.7997">Brand integration</text><text fill="#000000" font-family="Verdana" font-size="13" lengthAdjust="spacing" textLength="170.5361" x="408.84" y="523.9325">Development-ready specs</text></g><g class="entity" data-entity="GMN27" data-source-line="27" data-uid="ent0028" id="entity_GMN27"><path d="M373.99,592.99 L373.99,633.2556 L623.2327,633.2556 L623.2327,602.99 L613.2327,592.99 L373.99,592.99" fill="#FFFFFF" style="stroke:#000000;stroke-width:1;"/><path d="M613.2327,592.99 L613.2327,602.99 L623.2327,602.99 L613.2327,592.99" fill="#FFFFFF" style="stroke:#000000;stroke-width:1;"/><text fill="#000000" font-family="Verdana" font-size="13" lengthAdjust="spacing" textLength="228.2427" x="379.99" y="610.0569">Wireframing is an iterative process</text><text fill="#000000" font-family="Verdana" font-size="13" lengthAdjust="spacing" textLength="226.9097" x="379.99" y="625.1897">that refines through user feedback</text></g><!--link hifi to GMN19--><g class="link" data-entity-1="hifi" data-entity-2="GMN19" data-source-line="18" data-uid="lnk21" id="link_hifi_GMN19"><path d="M368.02,504.3 C379.49,504.3 390.97,504.3 402.45,504.3" fill="none" id="hifi-GMN19" style="stroke:#000000;stroke-width:1;stroke-dasharray:7.0,7.0;"/></g><!--link req to ia--><g class="link" data-entity-1="req" data-entity-2="ia" data-source-line="20" data-uid="lnk22" id="link_req_ia"><path d="M257.11,57.33 C224.79,78.82 175.4759,111.6271 143.1359,133.1371" fill="none" id="req-to-ia" style="stroke:#000000;stroke-width:1;"/><polygon fill="#000000" points="138.14,136.46,147.849,134.8063,142.3032,133.691,143.4186,128.1451,138.14,136.46" style="stroke:#000000;stroke-width:1;"/></g><!--link ia to lowfi--><g class="link" data-entity-1="ia" data-entity-2="lowfi" data-source-line="21" data-uid="lnk23" id="link_ia_lowfi"><path d="M110.85,173.47 C109.91,194.98 108.5811,225.3857 107.6411,246.9657" fill="none" id="ia-to-lowfi" style="stroke:#000000;stroke-width:1;"/><polygon fill="#000000" points="107.38,252.96,111.7679,244.1426,107.5976,247.9647,103.7754,243.7945,107.38,252.96" style="stroke:#000000;stroke-width:1;"/></g><!--link lowfi to proto--><g class="link" data-entity-1="lowfi" data-entity-2="proto" data-source-line="22" data-uid="lnk24" id="link_lowfi_proto"><path d="M107.67,289.87 C108.99,311.37 110.8537,341.7912 112.1737,363.3712" fill="none" id="lowfi-to-proto" style="stroke:#000000;stroke-width:1;"/><polygon fill="#000000" points="112.54,369.36,115.9831,360.1326,112.2347,364.3693,107.998,360.621,112.54,369.36" style="stroke:#000000;stroke-width:1;"/></g><!--link proto to hifi--><g class="link" data-entity-1="proto" data-entity-2="hifi" data-source-line="23" data-uid="lnk25" id="link_proto_hifi"><path d="M139.8,406.52 C171.75,428.02 220.4524,460.7899 252.4124,482.2999" fill="none" id="proto-to-hifi" style="stroke:#000000;stroke-width:1;"/><polygon fill="#000000" points="257.39,485.65,252.1569,477.3064,253.242,482.8583,247.6901,483.9433,257.39,485.65" style="stroke:#000000;stroke-width:1;"/></g><!--link hifi to req--><g class="link" data-entity-1="hifi" data-entity-2="req" data-source-line="25" data-uid="lnk26" id="link_hifi_req"><path d="M354.65,485.79 C401.63,469.48 454.61,439.8 454.61,388.9 C454.61,154.1 454.61,154.1 454.61,154.1 C454.61,103.2 407.2981,75.4878 360.3181,59.1778" fill="none" id="hifi-to-req" style="stroke:#000000;stroke-width:1;"/><polygon fill="#000000" points="354.65,57.21,361.8403,63.9405,359.3734,58.8498,364.4641,56.3829,354.65,57.21" style="stroke:#000000;stroke-width:1;"/><text fill="#000000" font-family="Verdana" font-size="13" lengthAdjust="spacing" textLength="170.8853" x="455.61" y="276.0669">Iterate based on feedback</text></g><!--link GMN19 to GMN27--><g class="link" data-entity-1="GMN19" data-entity-2="GMN27" data-source-line="27" data-uid="lnk29" id="link_GMN19_GMN27"><path d="M498.61,532.25 C498.61,551.04 498.61,575.68 498.61,592.59" fill="none" id="GMN19-GMN27" style="stroke:#000000;stroke-width:1;stroke-dasharray:7.0,7.0;"/></g><!--SRC=[PLFDRjim3BxdARZUym8x36ZN5Iim3CFQRHTV69csYSYK8z89lASV9ITeazrCIkBtHt-mWKQ2AIBBHlSi4sOSOKoImf2J7rcUwTs93jYc4qiF7KQbpIPJC9G-4jpzfCFCsUU9ATmBnaLPxm0LCXqsaemWSpyOfAvqu2FyKieWHAqsyZ0h2wb2dtno8wyK1k604K8IjUmCJQ_mdgLBUKJZ972Vmy3cPtEc2ibuWyZeW9-JcDE3b7iK_blVDl8TZzolSnnehaCQgUIwc4umuZIvv2lmR-cqVUAM8ji2Vrnsv_RGAjVVT7m3NtlEu06L0qHSqcoDV8dLhX90g5-DN2WEJ1bTrNAZsRmTZ8y4FtAoPCjqHfrAUODQUnUZZTHSHYDFHTGH8xTd0ruCzpIas1R57iSEm_uAzgiFV9FxICgzhAW3_oUrj1ppD-liwRNrikURKLhm4AdFPzX7Eb9CKz6zpOJj0ZfHg24VOBlzL4BqsChNQkbgOgbNiQkyKbSQcufSodMzdejNpco7IYrukc_QAkDTCakZNxpaL_QQ5L20wzFYicC4Nyj6R43pmLtPKZ3_E-P-W5dVMVOF]--></g></svg>