<svg xmlns="http://www.w3.org/2000/svg" xmlns:xlink="http://www.w3.org/1999/xlink" contentStyleType="text/css" data-diagram-type="DESCRIPTION" height="537px" preserveAspectRatio="none" style="width:570px;height:537px;background:#FFFFFF;" version="1.1" viewBox="0 0 570 537" width="570px" zoomAndPan="magnify"><defs/><g><!--cluster Accessible Mechatronic System--><g class="cluster" data-entity="Accessible Mechatronic System" data-source-line="5" data-uid="ent0002" id="cluster_Accessible Mechatronic System"><path d="M13.5,11 L262.6924,11 A3.75,3.75 0 0 1 265.1924,13.5 L272.1924,33.2969 L560.5,33.2969 A2.5,2.5 0 0 1 563,35.7969 L563,528.02 A2.5,2.5 0 0 1 560.5,530.52 L13.5,530.52 A2.5,2.5 0 0 1 11,528.02 L11,13.5 A2.5,2.5 0 0 1 13.5,11" fill="#FFFFFF" style="stroke:#000000;stroke-width:1;"/><line style="stroke:#000000;stroke-width:1;" x1="11" x2="272.1924" y1="33.2969" y2="33.2969"/><text fill="#000000" font-family="Verdana" font-size="14" font-weight="bold" lengthAdjust="spacing" textLength="248.1924" x="15" y="25.9951">Accessible Mechatronic System</text></g><!--entity Input Interface--><g class="entity" data-entity="Input Interface" data-source-line="6" data-uid="ent0003" id="entity_Input Interface"><rect fill="#FFFFFF" height="46.2969" rx="2.5" ry="2.5" style="stroke:#000000;stroke-width:1;" width="143.3799" x="125.31" y="146.26"/><rect fill="#FFFFFF" height="10" style="stroke:#000000;stroke-width:1;" width="15" x="248.6899" y="151.26"/><rect fill="#FFFFFF" height="2" style="stroke:#000000;stroke-width:1;" width="4" x="246.6899" y="153.26"/><rect fill="#FFFFFF" height="2" style="stroke:#000000;stroke-width:1;" width="4" x="246.6899" y="157.26"/><text fill="#000000" font-family="Verdana" font-size="14" lengthAdjust="spacing" textLength="103.3799" x="140.31" y="179.2551">Input Interface</text></g><!--entity Control System--><g class="entity" data-entity="Control System" data-source-line="6" data-uid="ent0004" id="entity_Control System"><rect fill="#FFFFFF" height="46.2969" rx="2.5" ry="2.5" style="stroke:#000000;stroke-width:1;" width="147.5703" x="123.21" y="252.56"/><rect fill="#FFFFFF" height="10" style="stroke:#000000;stroke-width:1;" width="15" x="250.7803" y="257.56"/><rect fill="#FFFFFF" height="2" style="stroke:#000000;stroke-width:1;" width="4" x="248.7803" y="259.56"/><rect fill="#FFFFFF" height="2" style="stroke:#000000;stroke-width:1;" width="4" x="248.7803" y="263.56"/><text fill="#000000" font-family="Verdana" font-size="14" lengthAdjust="spacing" textLength="107.5703" x="138.21" y="285.5551">Control System</text></g><!--entity Output Interface--><g class="entity" data-entity="Output Interface" data-source-line="7" data-uid="ent0006" id="entity_Output Interface"><rect fill="#FFFFFF" height="46.2969" rx="2.5" ry="2.5" style="stroke:#000000;stroke-width:1;" width="155.7598" x="27.12" y="363.41"/><rect fill="#FFFFFF" height="10" style="stroke:#000000;stroke-width:1;" width="15" x="162.8798" y="368.41"/><rect fill="#FFFFFF" height="2" style="stroke:#000000;stroke-width:1;" width="4" x="160.8798" y="370.41"/><rect fill="#FFFFFF" height="2" style="stroke:#000000;stroke-width:1;" width="4" x="160.8798" y="374.41"/><text fill="#000000" font-family="Verdana" font-size="14" lengthAdjust="spacing" textLength="115.7598" x="42.12" y="396.4051">Output Interface</text></g><!--entity Safety Systems--><g class="entity" data-entity="Safety Systems" data-source-line="8" data-uid="ent0008" id="entity_Safety Systems"><rect fill="#FFFFFF" height="46.2969" rx="2.5" ry="2.5" style="stroke:#000000;stroke-width:1;" width="148.7324" x="398.63" y="363.41"/><rect fill="#FFFFFF" height="10" style="stroke:#000000;stroke-width:1;" width="15" x="527.3624" y="368.41"/><rect fill="#FFFFFF" height="2" style="stroke:#000000;stroke-width:1;" width="4" x="525.3624" y="370.41"/><rect fill="#FFFFFF" height="2" style="stroke:#000000;stroke-width:1;" width="4" x="525.3624" y="374.41"/><text fill="#000000" font-family="Verdana" font-size="14" lengthAdjust="spacing" textLength="108.7324" x="413.63" y="396.4051">Safety Systems</text></g><g class="entity" data-entity="GMN10" data-source-line="10" data-uid="ent0011" id="entity_GMN10"><path d="M87.89,46 L87.89,86.2656 A0,0 0 0 0 87.89,86.2656 L193,86.2656 L197,146.12 L201,86.2656 L306.1117,86.2656 A0,0 0 0 0 306.1117,86.2656 L306.1117,56 L296.1117,46 L87.89,46 A0,0 0 0 0 87.89,46" fill="#FFFFFF" style="stroke:#000000;stroke-width:1;"/><path d="M296.1117,46 L296.1117,56 L306.1117,56 L296.1117,46" fill="#FFFFFF" style="stroke:#000000;stroke-width:1;"/><text fill="#000000" font-family="Verdana" font-size="13" lengthAdjust="spacing" textLength="150.3188" x="93.89" y="63.0669">Multiple input methods</text><text fill="#000000" font-family="Verdana" font-size="13" lengthAdjust="spacing" textLength="197.2217" x="93.89" y="78.1997">(voice, touch, gesture, switch)</text></g><g class="entity" data-entity="GMN13" data-source-line="11" data-uid="ent0014" id="entity_GMN13"><path d="M305.37,255.57 L305.37,271.71 L271.25,275.71 L305.37,279.71 L305.37,295.8356 A0,0 0 0 0 305.37,295.8356 L484.6234,295.8356 A0,0 0 0 0 484.6234,295.8356 L484.6234,265.57 L474.6234,255.57 L305.37,255.57 A0,0 0 0 0 305.37,255.57" fill="#FFFFFF" style="stroke:#000000;stroke-width:1;"/><path d="M474.6234,255.57 L474.6234,265.57 L484.6234,265.57 L474.6234,255.57" fill="#FFFFFF" style="stroke:#000000;stroke-width:1;"/><text fill="#000000" font-family="Verdana" font-size="13" lengthAdjust="spacing" textLength="131.4092" x="311.37" y="272.6369">Adaptive algorithms</text><text fill="#000000" font-family="Verdana" font-size="13" lengthAdjust="spacing" textLength="158.2534" x="311.37" y="287.7697">Customisable responses</text></g><g class="entity" data-entity="GMN16" data-source-line="12" data-uid="ent0017" id="entity_GMN16"><path d="M27.05,474.25 L27.05,514.5156 A0,0 0 0 0 27.05,514.5156 L188.9553,514.5156 A0,0 0 0 0 188.9553,514.5156 L188.9553,484.25 L178.9553,474.25 L111.45,474.25 L105.64,410 L103.45,474.25 L27.05,474.25 A0,0 0 0 0 27.05,474.25" fill="#FFFFFF" style="stroke:#000000;stroke-width:1;"/><path d="M178.9553,474.25 L178.9553,484.25 L188.9553,484.25 L178.9553,474.25" fill="#FFFFFF" style="stroke:#000000;stroke-width:1;"/><text fill="#000000" font-family="Verdana" font-size="13" lengthAdjust="spacing" textLength="140.7656" x="33.05" y="491.3169">Multi-modal feedback</text><text fill="#000000" font-family="Verdana" font-size="13" lengthAdjust="spacing" textLength="140.9053" x="33.05" y="506.4497">(visual, audio, haptic)</text></g><g class="entity" data-entity="GMN19" data-source-line="13" data-uid="ent0020" id="entity_GMN19"><path d="M218.33,358.86 L218.33,414.2584 A0,0 0 0 0 218.33,414.2584 L363.6615,414.2584 A0,0 0 0 0 363.6615,414.2584 L363.6615,390.56 L398.4,386.56 L363.6615,382.56 L363.6615,368.86 L353.6615,358.86 L218.33,358.86 A0,0 0 0 0 218.33,358.86" fill="#FFFFFF" style="stroke:#000000;stroke-width:1;"/><path d="M353.6615,358.86 L353.6615,368.86 L363.6615,368.86 L353.6615,358.86" fill="#FFFFFF" style="stroke:#000000;stroke-width:1;"/><text fill="#000000" font-family="Verdana" font-size="13" lengthAdjust="spacing" textLength="112.5313" x="224.33" y="375.9269">Emergency stops</text><text fill="#000000" font-family="Verdana" font-size="13" lengthAdjust="spacing" textLength="75.4229" x="224.33" y="391.0597">Force limits</text><text fill="#000000" font-family="Verdana" font-size="13" lengthAdjust="spacing" textLength="124.3315" x="224.33" y="406.1925">Timeout protection</text></g><!--link Input Interface to Control System--><g class="link" data-entity-1="Input Interface" data-entity-2="Control System" data-source-line="6" data-uid="lnk5" id="link_Input Interface_Control System"><path d="M197,193.04 C197,210.54 197,228.64 197,246.12" fill="none" id="Input Interface-to-Control System" style="stroke:#000000;stroke-width:1;"/><polygon fill="#000000" points="197,252.12,201,243.12,197,247.12,193,243.12,197,252.12" style="stroke:#000000;stroke-width:1;"/></g><!--link Control System to Output Interface--><g class="link" data-entity-1="Control System" data-entity-2="Output Interface" data-source-line="7" data-uid="lnk7" id="link_Control System_Output Interface"><path d="M177.94,299.26 C162.15,317.94 143.6931,339.7775 127.9131,358.4475" fill="none" id="Control System-to-Output Interface" style="stroke:#000000;stroke-width:1;"/><polygon fill="#000000" points="124.04,363.03,132.9047,358.7384,127.2676,359.2113,126.7947,353.5742,124.04,363.03" style="stroke:#000000;stroke-width:1;"/></g><!--link Control System to Safety Systems--><g class="link" data-entity-1="Control System" data-entity-2="Safety Systems" data-source-line="8" data-uid="lnk9" id="link_Control System_Safety Systems"><path d="M254.19,299.26 C301.56,317.94 362.9582,342.1591 410.3082,360.8291" fill="none" id="Control System-to-Safety Systems" style="stroke:#000000;stroke-width:1;"/><polygon fill="#000000" points="415.89,363.03,408.9846,356.0075,411.2385,361.1959,406.0501,363.4499,415.89,363.03" style="stroke:#000000;stroke-width:1;"/></g><!--SRC=[VP6nRW8n38RtUmgNgPNW1HWg8THA7L07kb66aFDTB98uIXmGglhkDGSLb5RDPlz__dnsxiHXG4ZUK6pAbc8osGG87Dcwp2f9hdYb56TQtbFieJE-ODCaOxUcHnZDhCLIQECH5cYTaSoHB2mFHJ2CuAC1FQkNcAh0InJCdR6uXida4LPpZchtP_FwPBrfdfolLNu6_EDTcWxbSEwLTJDO8uiEnGcu-uDc2elgXP8EGOCMK1otvJtUxvWiZlLgjMuCFHQfMUko9x7kuPATgNSofDz2JM7McYIqGp2-vqpYWYRFQn4ELCnnTHbBubYmN08tBAeFYR-c_mQU16wDXmwntUY7776fLEF7O6fBF0PtVDXUONhiJfGtMzB4fu2vnsWFe6192PyvMxr1WKIhDmh8If6ovbWXZitd5m00]--></g></svg>