<svg xmlns="http://www.w3.org/2000/svg" xmlns:xlink="http://www.w3.org/1999/xlink" contentStyleType="text/css" data-diagram-type="CLASS" height="427px" preserveAspectRatio="none" style="width:443px;height:427px;background:#FFFFFF;" version="1.1" viewBox="0 0 443 427" width="443px" zoomAndPan="magnify"><defs/><g><!--class AccessibleRobotController--><g class="entity" data-entity="AccessibleRobotController" data-source-line="5" data-uid="ent0002" id="entity_AccessibleRobotController"><rect fill="#FFFFFF" height="206.9688" rx="2.5" ry="2.5" style="stroke:#000000;stroke-width:1;" width="218.0449" x="126.22" y="12"/><ellipse cx="142.0035" cy="26" fill="#FFFFFF" rx="9" ry="9" style="stroke:#000000;stroke-width:1;"/><path d="M145.4097,27.9688 C144.691,28.6406 143.3941,29.8125 141.6441,29.8125 C139.4254,29.8125 138.4566,27.875 138.4566,25.9219 C138.4566,23.5313 139.941,22.2656 141.5816,22.2656 C143.5972,22.2656 143.816,23.7813 143.9879,24.875 L145.4097,24.6875 C145.316,24.1094 145.2379,23.5313 145.2379,22.5625 C145.2379,21.8906 145.2847,21.3438 145.316,20.9219 L143.9097,20.9219 L143.8004,21.875 C143.2066,21.3438 142.566,20.7969 141.3472,20.7969 C139.3004,20.7969 136.8941,22.625 136.8941,25.9375 C136.8941,28.875 138.6597,31.2656 141.6597,31.2656 C144.0972,31.2656 145.8004,29.6406 146.3941,29.0625 L145.4097,27.9688 Z " fill="#000000"/><text fill="#000000" font-family="Verdana" font-size="14" lengthAdjust="spacing" textLength="183.8594" x="154.6221" y="30.8467">AccessibleRobotController</text><line style="stroke:#000000;stroke-width:1;" x1="127.22" x2="343.2649" y1="40" y2="40"/><rect fill="none" height="6" style="stroke:#000000;stroke-width:1;" width="6" x="134.22" y="50.6484"/><text fill="#000000" font-family="Verdana" font-size="14" lengthAdjust="spacing" textLength="194.0449" x="144.22" y="56.9951">height_adjustable_interface</text><rect fill="none" height="6" style="stroke:#000000;stroke-width:1;" width="6" x="134.22" y="66.9453"/><text fill="#000000" font-family="Verdana" font-size="14" lengthAdjust="spacing" textLength="178.6709" x="144.22" y="73.292">force_adjustable_controls</text><rect fill="none" height="6" style="stroke:#000000;stroke-width:1;" width="6" x="134.22" y="83.2422"/><text fill="#000000" font-family="Verdana" font-size="14" lengthAdjust="spacing" textLength="123.1494" x="144.22" y="89.5889">voice_recognition</text><rect fill="none" height="6" style="stroke:#000000;stroke-width:1;" width="6" x="134.22" y="99.5391"/><text fill="#000000" font-family="Verdana" font-size="14" lengthAdjust="spacing" textLength="110.1064" x="144.22" y="105.8857">audio_feedback</text><rect fill="none" height="6" style="stroke:#000000;stroke-width:1;" width="6" x="134.22" y="115.8359"/><text fill="#000000" font-family="Verdana" font-size="14" lengthAdjust="spacing" textLength="181.1182" x="144.22" y="122.1826">emergency_stop_systems</text><line style="stroke:#000000;stroke-width:1;" x1="127.22" x2="343.2649" y1="129.4844" y2="129.4844"/><ellipse cx="137.22" cy="143.1328" fill="#FFFFFF" rx="3" ry="3" style="stroke:#000000;stroke-width:1;"/><text fill="#000000" font-family="Verdana" font-size="14" lengthAdjust="spacing" textLength="175" x="144.22" y="146.4795">adjust_interface_height()</text><ellipse cx="137.22" cy="159.4297" fill="#FFFFFF" rx="3" ry="3" style="stroke:#000000;stroke-width:1;"/><text fill="#000000" font-family="Verdana" font-size="14" lengthAdjust="spacing" textLength="153.1729" x="144.22" y="162.7764">set_force_sensitivity()</text><ellipse cx="137.22" cy="175.7266" fill="#FFFFFF" rx="3" ry="3" style="stroke:#000000;stroke-width:1;"/><text fill="#000000" font-family="Verdana" font-size="14" lengthAdjust="spacing" textLength="158.2656" x="144.22" y="179.0732">enable_voice_control()</text><ellipse cx="137.22" cy="192.0234" fill="#FFFFFF" rx="3" ry="3" style="stroke:#000000;stroke-width:1;"/><text fill="#000000" font-family="Verdana" font-size="14" lengthAdjust="spacing" textLength="159.6191" x="144.22" y="195.3701">provide_audio_status()</text><ellipse cx="137.22" cy="208.3203" fill="#FFFFFF" rx="3" ry="3" style="stroke:#000000;stroke-width:1;"/><text fill="#000000" font-family="Verdana" font-size="14" lengthAdjust="spacing" textLength="181.4121" x="144.22" y="211.667">trigger_emergency_stop()</text></g><!--class SafetyMonitor--><g class="entity" data-entity="SafetyMonitor" data-source-line="18" data-uid="ent0003" id="entity_SafetyMonitor"><rect fill="#FFFFFF" height="141.7813" rx="2.5" ry="2.5" style="stroke:#000000;stroke-width:1;" width="216.4863" x="12" y="278.97"/><ellipse cx="67.4932" cy="292.97" fill="#FFFFFF" rx="9" ry="9" style="stroke:#000000;stroke-width:1;"/><path d="M70.8994,294.9388 C70.1807,295.6106 68.8838,296.7825 67.1338,296.7825 C64.915,296.7825 63.9463,294.845 63.9463,292.8919 C63.9463,290.5013 65.4307,289.2356 67.0713,289.2356 C69.0869,289.2356 69.3057,290.7513 69.4775,291.845 L70.8994,291.6575 C70.8057,291.0794 70.7275,290.5013 70.7275,289.5325 C70.7275,288.8606 70.7744,288.3138 70.8057,287.8919 L69.3994,287.8919 L69.29,288.845 C68.6963,288.3138 68.0557,287.7669 66.8369,287.7669 C64.79,287.7669 62.3838,289.595 62.3838,292.9075 C62.3838,295.845 64.1494,298.2356 67.1494,298.2356 C69.5869,298.2356 71.29,296.6106 71.8838,296.0325 L70.8994,294.9388 Z " fill="#000000"/><text fill="#000000" font-family="Verdana" font-size="14" lengthAdjust="spacing" textLength="98" x="84.9932" y="297.8167">SafetyMonitor</text><line style="stroke:#000000;stroke-width:1;" x1="13" x2="227.4863" y1="306.97" y2="306.97"/><rect fill="none" height="6" style="stroke:#000000;stroke-width:1;" width="6" x="20" y="317.6184"/><text fill="#000000" font-family="Verdana" font-size="14" lengthAdjust="spacing" textLength="80.6504" x="30" y="323.9651">force_limits</text><rect fill="none" height="6" style="stroke:#000000;stroke-width:1;" width="6" x="20" y="333.9153"/><text fill="#000000" font-family="Verdana" font-size="14" lengthAdjust="spacing" textLength="134.2373" x="30" y="340.262">motion_boundaries</text><rect fill="none" height="6" style="stroke:#000000;stroke-width:1;" width="6" x="20" y="350.2122"/><text fill="#000000" font-family="Verdana" font-size="14" lengthAdjust="spacing" textLength="117.3867" x="30" y="356.5589">timeout_settings</text><line style="stroke:#000000;stroke-width:1;" x1="13" x2="227.4863" y1="363.8606" y2="363.8606"/><ellipse cx="23" cy="377.5091" fill="#FFFFFF" rx="3" ry="3" style="stroke:#000000;stroke-width:1;"/><text fill="#000000" font-family="Verdana" font-size="14" lengthAdjust="spacing" textLength="192.4863" x="30" y="380.8557">monitor_force_application()</text><ellipse cx="23" cy="393.8059" fill="#FFFFFF" rx="3" ry="3" style="stroke:#000000;stroke-width:1;"/><text fill="#000000" font-family="Verdana" font-size="14" lengthAdjust="spacing" textLength="153.0225" x="30" y="397.1526">check_motion_limits()</text><ellipse cx="23" cy="410.1028" fill="#FFFFFF" rx="3" ry="3" style="stroke:#000000;stroke-width:1;"/><text fill="#000000" font-family="Verdana" font-size="14" lengthAdjust="spacing" textLength="127.4902" x="30" y="413.4495">handle_timeouts()</text></g><!--class MultimodalFeedback--><g class="entity" data-entity="MultimodalFeedback" data-source-line="27" data-uid="ent0004" id="entity_MultimodalFeedback"><rect fill="#FFFFFF" height="141.7813" rx="2.5" ry="2.5" style="stroke:#000000;stroke-width:1;" width="173.2158" x="263.64" y="278.97"/><ellipse cx="276.64" cy="292.97" fill="#FFFFFF" rx="9" ry="9" style="stroke:#000000;stroke-width:1;"/><path d="M280.0463,294.9388 C279.3275,295.6106 278.0306,296.7825 276.2806,296.7825 C274.0619,296.7825 273.0931,294.845 273.0931,292.8919 C273.0931,290.5013 274.5775,289.2356 276.2181,289.2356 C278.2338,289.2356 278.4525,290.7513 278.6244,291.845 L280.0463,291.6575 C279.9525,291.0794 279.8744,290.5013 279.8744,289.5325 C279.8744,288.8606 279.9213,288.3138 279.9525,287.8919 L278.5463,287.8919 L278.4369,288.845 C277.8431,288.3138 277.2025,287.7669 275.9838,287.7669 C273.9369,287.7669 271.5306,289.595 271.5306,292.9075 C271.5306,295.845 273.2963,298.2356 276.2963,298.2356 C278.7338,298.2356 280.4369,296.6106 281.0306,296.0325 L280.0463,294.9388 Z " fill="#000000"/><text fill="#000000" font-family="Verdana" font-size="14" lengthAdjust="spacing" textLength="145.2158" x="288.64" y="297.8167">MultimodalFeedback</text><line style="stroke:#000000;stroke-width:1;" x1="264.64" x2="435.8558" y1="306.97" y2="306.97"/><rect fill="none" height="6" style="stroke:#000000;stroke-width:1;" width="6" x="271.64" y="317.6184"/><text fill="#000000" font-family="Verdana" font-size="14" lengthAdjust="spacing" textLength="97.5215" x="281.64" y="323.9651">visual_display</text><rect fill="none" height="6" style="stroke:#000000;stroke-width:1;" width="6" x="271.64" y="333.9153"/><text fill="#000000" font-family="Verdana" font-size="14" lengthAdjust="spacing" textLength="85.415" x="281.64" y="340.262">audio_alerts</text><rect fill="none" height="6" style="stroke:#000000;stroke-width:1;" width="6" x="271.64" y="350.2122"/><text fill="#000000" font-family="Verdana" font-size="14" lengthAdjust="spacing" textLength="114.7275" x="281.64" y="356.5589">haptic_feedback</text><line style="stroke:#000000;stroke-width:1;" x1="264.64" x2="435.8558" y1="363.8606" y2="363.8606"/><ellipse cx="274.64" cy="377.5091" fill="#FFFFFF" rx="3" ry="3" style="stroke:#000000;stroke-width:1;"/><text fill="#000000" font-family="Verdana" font-size="14" lengthAdjust="spacing" textLength="110.6533" x="281.64" y="380.8557">display_status()</text><ellipse cx="274.64" cy="393.8059" fill="#FFFFFF" rx="3" ry="3" style="stroke:#000000;stroke-width:1;"/><text fill="#000000" font-family="Verdana" font-size="14" lengthAdjust="spacing" textLength="118.542" x="281.64" y="397.1526">play_audio_cue()</text><ellipse cx="274.64" cy="410.1028" fill="#FFFFFF" rx="3" ry="3" style="stroke:#000000;stroke-width:1;"/><text fill="#000000" font-family="Verdana" font-size="14" lengthAdjust="spacing" textLength="133.0205" x="281.64" y="413.4495">provide_vibration()</text></g><!--link AccessibleRobotController to SafetyMonitor--><g class="link" data-entity-1="AccessibleRobotController" data-entity-2="SafetyMonitor" data-source-line="36" data-uid="lnk5" id="link_AccessibleRobotController_SafetyMonitor"><path codeLine="36" d="M184.3,219.42 C174.39,239.45 166.8714,254.6425 157.6314,273.3125" fill="none" id="AccessibleRobotController-to-SafetyMonitor" style="stroke:#000000;stroke-width:1;"/><polygon fill="#000000" points="154.97,278.69,162.547,272.3981,157.1878,274.2088,155.3771,268.8496,154.97,278.69" style="stroke:#000000;stroke-width:1;"/></g><!--link AccessibleRobotController to MultimodalFeedback--><g class="link" data-entity-1="AccessibleRobotController" data-entity-2="MultimodalFeedback" data-source-line="37" data-uid="lnk6" id="link_AccessibleRobotController_MultimodalFeedback"><path codeLine="37" d="M286.19,219.42 C296.1,239.45 303.6186,254.6425 312.8586,273.3125" fill="none" id="AccessibleRobotController-to-MultimodalFeedback" style="stroke:#000000;stroke-width:1;"/><polygon fill="#000000" points="315.52,278.69,315.1129,268.8496,313.3022,274.2088,307.943,272.3981,315.52,278.69" style="stroke:#000000;stroke-width:1;"/></g><!--SRC=[XPB1Jkmm34NtynLvEn2QNq12IEpOy3uWSXEtDPF6LUmKLOX_9qpIClFG4rtwkiwvr_wZ8qvevW0K3tAYE4E2oKmSsOs9YwGfuuKY8tX-epYO7eBWuU02Y9W7vr24ke0ltB4-SjJ48M0oxmTJlgCPaOPHBVZNB0gbqL9KJ3quR1qz9uUN3QvEaQOlJ4LFw7Y8fCInrI5xOjiZ-WxSgHMBgpHWTAiLvTdAAefJdNHdwXlV0BR2tTmsNL1jfH6CKjvQIDTTnNYcgpYDSHVdn0lvOkCCLOnebbtKHCE0oLx35VbZo_4lzAZhCnU3_9rTPGaqaMvXJFoLWEquHm-9SAihJSXP2xXgsTBcUAeJcokOvq0ElYRiR6v4Tx9jR7rgrqQ8lZXki-KI-3c7KcOFuQajOATUI384wqdAUQrNou9o6RkL4MObTxt0EzD- -pV2SwqESHb_nBvGbpPVXV7_Ptaytb-7_KllJv-V]--></g></svg>